M48
;Layer_Color=9474304
;FILE_FORMAT=2:5
INCH,LZ
;TYPE=PLATED
T1F00S00C0.01299
T2F00S00C0.02000
T3F00S00C0.03500
T4F00S00C0.03543
T5F00S00C0.03937
T6F00S00C0.04685
T7F00S00C0.09600
T8F00S00C0.13600
T9F00S00C0.17500
T10F00S00C0.91500
;TYPE=NON_PLATED
T11F00S00C0.03100
T12F00S00C0.03543
T13F00S00C0.15800
%
T01
X0391876Y0346776
X03966
X0401324
Y03515
X03966
X0391876
Y0356224
X03966
X0401324
T02
X048105Y02397
X047375Y025665
X047415Y02947
X04895Y029355
X04871Y03036
X04921Y03106
X0480462Y0312238
X0475738
X051755Y03031
X053125Y029525
X046485Y02852
X045725Y028055
X045695Y029115
X044605Y029245
X044875Y029995
X044075Y030835
X044425Y023595
X034555Y02509
X03382Y02739
X03386Y02831
X03215Y02932
X03144Y02881
X03289Y03016
X03216Y03124
X0344Y03114
X035745Y0311
X03504Y03014
X03275Y02657
X0321Y0266
X03169Y02434
X032415Y02306
X0309Y027915
X03055Y02853
X03021Y03119
X02571Y02886
X02585Y03186
X026585Y031885
X0244Y03187
X02905Y03237
X029635Y03158
X03058Y032055
X03074Y03432
X02868Y034295
X02889Y04634
X0306Y04635
X03046Y04585
X033305Y0467
X034185Y04655
X0345Y0457
X035175Y04541
X03574Y04664
X03623Y04686
X03657Y04481
X03699Y04518
X03854
X03884Y04563
X0383Y0459
X03805Y0432
X03736Y04324
X03705Y04204
X03782Y04105
X038275Y04101
X03905Y04105
X040405Y041065
X04127Y04105
X04175Y04101
X04196Y04
X042135Y038765
X04064Y038905
X040215Y03882
X040055Y0381
X040905Y038125
X04124Y037855
X0416812Y0366179
X0422Y0366
X04285Y03655
X0433
X04391Y035535
X0441Y0351
X04504Y035175
X04574Y03522
X046245Y036125
X046755Y03611
X04459Y03564
X04285Y0353
X0420094Y034967
X0414688Y0349718
X041255Y03416
X0413Y03345
X0416935Y033153
X04058Y033335
X04063Y033765
X039789Y0332655
X03936Y03332
X03893
X03844Y03335
X03851Y034
X03771Y034315
X03712Y03422
X03762Y03368
X0375Y035185
X03694Y03527
X03695Y03645
X03636Y03638
X036054Y0367
X036974Y037104
X037455Y037925
X03852Y038175
X03889Y038395
X03878Y03762
X039345Y037865
X039665Y03757
X039565Y03696
X04029Y0371
X0381826Y03552
X03622Y034535
X03562Y034055
X035395Y03366
X0359438Y0328862
X0362Y03151
X03697Y03208
X03462Y03181
X03455Y03235
X033565Y032575
X033435Y03337
X03228Y03299
X03177Y03252
X03465Y0348
X03464Y035465
X03535Y0351
X03805Y03998
X03863Y04296
X03908Y04279
X0404Y04312
X04133Y04298
X0418Y04302
X04229Y04303
X04273Y04354
X04309Y04213
X04324Y04097
X04504Y044775
X04576Y04428
X046745Y04353
X0464Y0467
X04525Y046175
X043Y04655
X04227Y04672
X04223Y04624
X04216Y04572
X04118Y04563
X04045Y046775
X034095Y04402
X04095Y03255
X042745Y033635
X04325Y03435
X0443Y03347
X04521Y03291
X046935Y032815
X04793Y033575
X04888Y03262
X05001Y03306
X05142Y03348
X053655Y03187
X054155Y032265
X0480462Y0316962
X0475738
X047685Y03648
X04836Y03647
X04948Y03633
X05065Y049771
X05148Y04996
X05243Y04878
X05425Y05075
X04675Y0484
X04529Y04869
X0447Y0492095
X04394Y04934
X042505Y049365
X04099Y04943
X04104Y0486
X04049Y04882
X04001Y04946
X03903Y04938
X03852Y04935
X03802Y04938
X038155Y048655
X0388Y04695
X042535Y047065
X044485Y04827
X04487Y054175
X0438Y0546
X04295Y0539
X04249Y05291
X04201Y05294
X04151Y05291
X041Y05289
X0405Y05291
X03999Y05292
X03947Y05288
X03904Y05287
X03853Y05293
X03801Y05292
X03663Y053
X03637Y05248
X036Y05213
X037Y05116
X034615Y05145
X0345841Y054215
X03521Y05469
X0335Y054545
X03245Y05479
X032875Y05605
X032015Y05295
X03156Y052095
X032885Y05001
X034605Y04846
X0354Y04753
X036865Y05407
X03099Y05299
X031145Y05143
X030335Y05128
X02897Y05132
X02954Y05211
X0295138Y0491062
X0299862
Y0486338
X0295138
X03121Y04907
X03115Y04979
X03123Y04711
X02744Y04875
X026Y047595
T03
X04745Y0522
X04665
T04
X0269145Y0278713
X0276216Y0271642
X0290358
X0283287Y0278713
Y0264571
X0290358Y02575
X03045
X0297429Y0250429
Y0264571
X0276216Y0285784
X0475Y0508
X0465
T05
X0370463Y0385236
Y0414764
X0429537
Y0385236
T06
X03569Y05117
X04431
T07
X02907Y03646
Y04354
X05093
Y03646
T08
X03255Y03492
Y04508
X04745
Y03492
T09
X0355Y0274
X0445
T10
X04Y0274
T11
X02745Y03495
Y03545
Y03595
X0274Y04375
Y04425
Y04475
X0526
Y04425
Y04375
Y03595
Y03545
Y03495
T12
X0506595Y04725
X0518405
T13
X0605Y0185
X0195Y0615
M30
