  0
SECTION
  2
HEADER
  9
$ACADVER
  1
AC1015
  9
$ACADMAINTVER
 70
     6
  9
$DWGCODEPAGE
  3
ANSI_1252
  9
$INSBASE
 10
0.0
 20
0.0
 30
0.0
  9
$EXTMIN
 10
-7.2452793442
 20
-7.3088454925
 30
0.0
  9
$EXTMAX
 10
9.583862048
 20
5.2643038798
 30
0.0
  9
$LIMMIN
 10
0.0
 20
0.0
  9
$LIMMAX
 10
12.0
 20
9.0
  9
$ORTHOMODE
 70
     0
  9
$REGENMODE
 70
     1
  9
$FILLMODE
 70
     1
  9
$QTEXTMODE
 70
     0
  9
$MIRRTEXT
 70
     1
  9
$LTSCALE
 40
1.0
  9
$ATTMODE
 70
     1
  9
$TEXTSIZE
 40
0.125
  9
$TRACEWID
 40
0.05
  9
$TEXTSTYLE
  7
Standard
  9
$CLAYER
  8
0
  9
$CELTYPE
  6
ByLayer
  9
$CECOLOR
 62
   256
  9
$CELTSCALE
 40
1.0
  9
$DISPSILH
 70
     0
  9
$DIMSCALE
 40
1.0
  9
$DIMASZ
 40
0.13
  9
$DIMEXO
 40
0.05
  9
$DIMDLI
 40
0.38
  9
$DIMRND
 40
0.0
  9
$DIMDLE
 40
0.0
  9
$DIMEXE
 40
0.125
  9
$DIMTP
 40
0.0
  9
$DIMTM
 40
0.0
  9
$DIMTXT
 40
0.125
  9
$DIMCEN
 40
0.09
  9
$DIMTSZ
 40
0.0
  9
$DIMTOL
 70
     0
  9
$DIMLIM
 70
     0
  9
$DIMTIH
 70
     1
  9
$DIMTOH
 70
     1
  9
$DIMSE1
 70
     0
  9
$DIMSE2
 70
     0
  9
$DIMTAD
 70
     0
  9
$DIMZIN
 70
     0
  9
$DIMBLK
  1

  9
$DIMASO
 70
     1
  9
$DIMSHO
 70
     1
  9
$DIMPOST
  1

  9
$DIMAPOST
  1

  9
$DIMALT
 70
     0
  9
$DIMALTD
 70
     2
  9
$DIMALTF
 40
25.4
  9
$DIMLFAC
 40
1.0
  9
$DIMTOFL
 70
     0
  9
$DIMTVP
 40
0.0
  9
$DIMTIX
 70
     0
  9
$DIMSOXD
 70
     0
  9
$DIMSAH
 70
     0
  9
$DIMBLK1
  1

  9
$DIMBLK2
  1

  9
$DIMSTYLE
  2
Standard
  9
$DIMCLRD
 70
     0
  9
$DIMCLRE
 70
     0
  9
$DIMCLRT
 70
     0
  9
$DIMTFAC
 40
1.0
  9
$DIMGAP
 40
0.06
  9
$DIMJUST
 70
     0
  9
$DIMSD1
 70
     0
  9
$DIMSD2
 70
     0
  9
$DIMTOLJ
 70
     1
  9
$DIMTZIN
 70
     0
  9
$DIMALTZ
 70
     0
  9
$DIMALTTZ
 70
     0
  9
$DIMUPT
 70
     0
  9
$DIMDEC
 70
     2
  9
$DIMTDEC
 70
     2
  9
$DIMALTU
 70
     2
  9
$DIMALTTD
 70
     2
  9
$DIMTXSTY
  7
Standard
  9
$DIMAUNIT
 70
     0
  9
$DIMADEC
 70
     2
  9
$DIMALTRND
 40
0.0
  9
$DIMAZIN
 70
     0
  9
$DIMDSEP
 70
    46
  9
$DIMATFIT
 70
     3
  9
$DIMFRAC
 70
     0
  9
$DIMLDRBLK
  1

  9
$DIMLUNIT
 70
     2
  9
$DIMLWD
 70
    -2
  9
$DIMLWE
 70
    -2
  9
$DIMTMOVE
 70
     0
  9
$LUNITS
 70
     2
  9
$LUPREC
 70
     2
  9
$SKETCHINC
 40
0.1
  9
$FILLETRAD
 40
0.5
  9
$AUNITS
 70
     0
  9
$AUPREC
 70
     2
  9
$MENU
  1
.
  9
$ELEVATION
 40
0.0
  9
$PELEVATION
 40
0.0
  9
$THICKNESS
 40
0.0
  9
$LIMCHECK
 70
     0
  9
$CHAMFERA
 40
0.5
  9
$CHAMFERB
 40
0.5
  9
$CHAMFERC
 40
1.0
  9
$CHAMFERD
 40
0.0
  9
$SKPOLY
 70
     0
  9
$TDCREATE
 40
2456960.354769109
  9
$TDUCREATE
 40
2456960.563102442
  9
$TDUPDATE
 40
2456960.354830498
  9
$TDUUPDATE
 40
2456960.563163831
  9
$TDINDWG
 40
0.0000000116
  9
$TDUSRTIMER
 40
0.0000000116
  9
$USRTIMER
 70
     1
  9
$ANGBASE
 50
0.0
  9
$ANGDIR
 70
     0
  9
$PDMODE
 70
     0
  9
$PDSIZE
 40
-1.0
  9
$PLINEWID
 40
0.0
  9
$SPLFRAME
 70
     0
  9
$SPLINETYPE
 70
     6
  9
$SPLINESEGS
 70
     8
  9
$HANDSEED
  5
3F0
  9
$SURFTAB1
 70
     6
  9
$SURFTAB2
 70
     6
  9
$SURFTYPE
 70
     6
  9
$SURFU
 70
     6
  9
$SURFV
 70
     6
  9
$UCSBASE
  2

  9
$UCSNAME
  2

  9
$UCSORG
 10
0.0
 20
0.0
 30
0.0
  9
$UCSXDIR
 10
1.0
 20
0.0
 30
0.0
  9
$UCSYDIR
 10
0.0
 20
1.0
 30
0.0
  9
$UCSORTHOREF
  2

  9
$UCSORTHOVIEW
 70
     0
  9
$UCSORGTOP
 10
0.0
 20
0.0
 30
0.0
  9
$UCSORGBOTTOM
 10
0.0
 20
0.0
 30
0.0
  9
$UCSORGLEFT
 10
0.0
 20
0.0
 30
0.0
  9
$UCSORGRIGHT
 10
0.0
 20
0.0
 30
0.0
  9
$UCSORGFRONT
 10
0.0
 20
0.0
 30
0.0
  9
$UCSORGBACK
 10
0.0
 20
0.0
 30
0.0
  9
$PUCSBASE
  2

  9
$PUCSNAME
  2

  9
$PUCSORG
 10
0.0
 20
0.0
 30
0.0
  9
$PUCSXDIR
 10
1.0
 20
0.0
 30
0.0
  9
$PUCSYDIR
 10
0.0
 20
1.0
 30
0.0
  9
$PUCSORTHOREF
  2

  9
$PUCSORTHOVIEW
 70
     0
  9
$PUCSORGTOP
 10
0.0
 20
0.0
 30
0.0
  9
$PUCSORGBOTTOM
 10
0.0
 20
0.0
 30
0.0
  9
$PUCSORGLEFT
 10
0.0
 20
0.0
 30
0.0
  9
$PUCSORGRIGHT
 10
0.0
 20
0.0
 30
0.0
  9
$PUCSORGFRONT
 10
0.0
 20
0.0
 30
0.0
  9
$PUCSORGBACK
 10
0.0
 20
0.0
 30
0.0
  9
$USERI1
 70
     0
  9
$USERI2
 70
     0
  9
$USERI3
 70
     0
  9
$USERI4
 70
     0
  9
$USERI5
 70
     0
  9
$USERR1
 40
0.0
  9
$USERR2
 40
0.0
  9
$USERR3
 40
0.0
  9
$USERR4
 40
0.0
  9
$USERR5
 40
0.0
  9
$WORLDVIEW
 70
     1
  9
$SHADEDGE
 70
     3
  9
$SHADEDIF
 70
    70
  9
$TILEMODE
 70
     1
  9
$MAXACTVP
 70
    64
  9
$PINSBASE
 10
0.0
 20
0.0
 30
0.0
  9
$PLIMCHECK
 70
     0
  9
$PEXTMIN
 10
1.0000000000E+20
 20
1.0000000000E+20
 30
1.0000000000E+20
  9
$PEXTMAX
 10
-1.0000000000E+20
 20
-1.0000000000E+20
 30
-1.0000000000E+20
  9
$PLIMMIN
 10
0.0
 20
0.0
  9
$PLIMMAX
 10
12.0
 20
9.0
  9
$UNITMODE
 70
     0
  9
$VISRETAIN
 70
     1
  9
$PLINEGEN
 70
     0
  9
$PSLTSCALE
 70
     1
  9
$TREEDEPTH
 70
  3020
  9
$CMLSTYLE
  2
Standard
  9
$CMLJUST
 70
     0
  9
$CMLSCALE
 40
1.0
  9
$PROXYGRAPHICS
 70
     1
  9
$MEASUREMENT
 70
     0
  9
$CELWEIGHT
370
    -1
  9
$ENDCAPS
280
     0
  9
$JOINSTYLE
280
     0
  9
$LWDISPLAY
290
     1
  9
$INSUNITS
 70
     1
  9
$HYPERLINKBASE
  1

  9
$STYLESHEET
  1

  9
$XEDIT
290
     1
  9
$CEPSNTYPE
380
     0
  9
$PSTYLEMODE
290
     1
  9
$FINGERPRINTGUID
  2
{1FBD2BF5-21B3-44F1-BC92-53BDCAFF257D}
  9
$VERSIONGUID
  2
{FAEB1C32-E019-11D5-929B-00C0DF256EC4}
  9
$EXTNAMES
290
     1
  9
$PSVPSCALE
 40
0.0
  9
$OLESTARTUP
290
     0
  0
ENDSEC
  0
SECTION
  2
CLASSES
  0
CLASS
  1
ACDBDICTIONARYWDFLT
  2
AcDbDictionaryWithDefault
  3
ObjectDBX Classes
 90
        0
280
     0
281
     0
  0
CLASS
  1
VISUALSTYLE
  2
AcDbVisualStyle
  3
ObjectDBX Classes
 90
     4095
280
     0
281
     0
  0
CLASS
  1
MATERIAL
  2
AcDbMaterial
  3
ObjectDBX Classes
 90
     1153
280
     0
281
     0
  0
CLASS
  1
ACDBPLACEHOLDER
  2
AcDbPlaceHolder
  3
ObjectDBX Classes
 90
        0
280
     0
281
     0
  0
CLASS
  1
LAYOUT
  2
AcDbLayout
  3
ObjectDBX Classes
 90
        0
280
     0
281
     0
  0
ENDSEC
  0
SECTION
  2
TABLES
  0
TABLE
  2
VPORT
  5
8
330
0
100
AcDbSymbolTable
 70
     1
  0
VPORT
  5
29
330
8
100
AcDbSymbolTableRecord
100
AcDbViewportTableRecord
  2
*Active
 70
     0
 10
0.0
 20
0.0
 11
1.0
 21
1.0
 12
1.1692913519
 22
-1.0222708064
 13
0.0
 23
0.0
 14
0.5
 24
0.5
 15
0.5
 25
0.5
 16
0.0
 26
0.0
 36
1.0
 17
0.0
 27
0.0
 37
0.0
 40
12.8246123597
 41
1.3384984855
 42
50.0
 43
0.0
 44
0.0
 50
0.0
 51
0.0
 71
     0
 72
   100
 73
     1
 74
     3
 75
     0
 76
     0
 77
     0
 78
     0
281
     0
 65
     1
110
0.0
120
0.0
130
0.0
111
1.0
121
0.0
131
0.0
112
0.0
122
1.0
132
0.0
 79
     0
146
0.0
  0
ENDTAB
  0
TABLE
  2
LTYPE
  5
5
330
0
100
AcDbSymbolTable
 70
     6
  0
LTYPE
  5
14
330
5
100
AcDbSymbolTableRecord
100
AcDbLinetypeTableRecord
  2
ByBlock
 70
     0
  3

 72
    65
 73
     0
 40
0.0
  0
LTYPE
  5
15
330
5
100
AcDbSymbolTableRecord
100
AcDbLinetypeTableRecord
  2
ByLayer
 70
     0
  3

 72
    65
 73
     0
 40
0.0
  0
LTYPE
  5
16
330
5
100
AcDbSymbolTableRecord
100
AcDbLinetypeTableRecord
  2
Continuous
 70
     0
  3
Solid line
 72
    65
 73
     0
 40
0.0
  0
LTYPE
  5
3F
330
5
100
AcDbSymbolTableRecord
100
AcDbLinetypeTableRecord
  2
HIDDEN
 70
     0
  3
Hidden __ __ __ __ __ __ __ __ __ __ __ __ __ __
 72
    65
 73
     2
 40
0.075
 49
0.05
 74
     0
 49
-0.025
 74
     0
  0
LTYPE
  5
40
330
5
100
AcDbSymbolTableRecord
100
AcDbLinetypeTableRecord
  2
PHANTOM
 70
     0
  3
Phantom ______  __  __  ______  __  __  ______
 72
    65
 73
     6
 40
0.5
 49
0.25
 74
     0
 49
-0.05
 74
     0
 49
0.05
 74
     0
 49
-0.05
 74
     0
 49
0.05
 74
     0
 49
-0.05
 74
     0
  0
LTYPE
  5
41
330
5
100
AcDbSymbolTableRecord
100
AcDbLinetypeTableRecord
  2
CENTER
 70
     0
  3
Center ____ _ ____ _ ____ _ ____ _ ____ _ ____
 72
    65
 73
     4
 40
0.4
 49
0.25
 74
     0
 49
-0.05
 74
     0
 49
0.05
 74
     0
 49
-0.05
 74
     0
  0
LTYPE
  5
42
330
5
100
AcDbSymbolTableRecord
100
AcDbLinetypeTableRecord
  2
CENTERX2
 70
     0
  3
Center (2x) ________  __  ________  __  _____
 72
    65
 73
     4
 40
0.8
 49
0.5
 74
     0
 49
-0.1
 74
     0
 49
0.1
 74
     0
 49
-0.1
 74
     0
  0
LTYPE
  5
43
330
5
100
AcDbSymbolTableRecord
100
AcDbLinetypeTableRecord
  2
DOT2
 70
     0
  3
Dot (.5x) ........................................
 72
    65
 73
     2
 40
0.025
 49
0.0
 74
     0
 49
-0.025
 74
     0
  0
ENDTAB
  0
TABLE
  2
LAYER
  5
2
330
0
100
AcDbSymbolTable
 70
     1
  0
LAYER
  5
10
330
2
100
AcDbSymbolTableRecord
100
AcDbLayerTableRecord
  2
0
 70
     0
 62
     7
  6
Continuous
370
    -3
390
F
  0
ENDTAB
  0
TABLE
  2
STYLE
  5
3
330
0
100
AcDbSymbolTable
 70
     1
  0
STYLE
  5
11
330
3
100
AcDbSymbolTableRecord
100
AcDbTextStyleTableRecord
  2
Standard
 70
     0
 40
0.0
 41
1.0
 50
0.0
 71
     0
 42
0.125
  3
txt
  4

  0
ENDTAB
  0
TABLE
  2
VIEW
  5
6
330
0
100
AcDbSymbolTable
 70
     0
  0
ENDTAB
  0
TABLE
  2
UCS
  5
7
330
0
100
AcDbSymbolTable
 70
     0
  0
ENDTAB
  0
TABLE
  2
APPID
  5
9
330
0
100
AcDbSymbolTable
 70
     1
  0
APPID
  5
12
330
9
100
AcDbSymbolTableRecord
100
AcDbRegAppTableRecord
  2
ACAD
 70
     0
  0
ENDTAB
  0
TABLE
  2
DIMSTYLE
  5
A
330
0
100
AcDbSymbolTable
 70
     1
100
AcDbDimStyleTable
  0
DIMSTYLE
105
27
330
A
100
AcDbSymbolTableRecord
100
AcDbDimStyleTableRecord
  2
Standard
 70
     0
178
     0
340
11
  0
ENDTAB
  0
TABLE
  2
BLOCK_RECORD
  5
1
330
0
100
AcDbSymbolTable
 70
     1
  0
BLOCK_RECORD
  5
1F
330
1
100
AcDbSymbolTableRecord
100
AcDbBlockTableRecord
  2
*Model_Space
340
22
  0
BLOCK_RECORD
  5
1B
330
1
100
AcDbSymbolTableRecord
100
AcDbBlockTableRecord
  2
*Paper_Space
340
1E
  0
BLOCK_RECORD
  5
23
330
1
100
AcDbSymbolTableRecord
100
AcDbBlockTableRecord
  2
*Paper_Space0
340
26
  0
ENDTAB
  0
ENDSEC
  0
SECTION
  2
BLOCKS
  0
BLOCK
  5
20
330
1F
100
AcDbEntity
  8
0
100
AcDbBlockBegin
  2
*Model_Space
 70
     0
 10
0.0
 20
0.0
 30
0.0
  3
*Model_Space
  1

  0
ENDBLK
  5
21
330
1F
100
AcDbEntity
  8
0
100
AcDbBlockEnd
  0
BLOCK
  5
1C
330
1B
100
AcDbEntity
 67
     1
  8
0
100
AcDbBlockBegin
  2
*Paper_Space
 70
     0
 10
0.0
 20
0.0
 30
0.0
  3
*Paper_Space
  1

  0
ENDBLK
  5
1D
330
1B
100
AcDbEntity
 67
     1
  8
0
100
AcDbBlockEnd
  0
BLOCK
  5
24
330
23
100
AcDbEntity
  8
0
100
AcDbBlockBegin
  2
*Paper_Space0
 70
     0
 10
0.0
 20
0.0
 30
0.0
  3
*Paper_Space0
  1

  0
ENDBLK
  5
25
330
23
100
AcDbEntity
  8
0
100
AcDbBlockEnd
  0
ENDSEC
  0
SECTION
  2
ENTITIES
  0
LWPOLYLINE
  5
44
330
1F
100
AcDbEntity
  8
0
  6
Continuous
 62
     7
370
    15
100
AcDbPolyline
 90
       29
 70
   128
 43
0.0
 10
8.3464251809
 20
-0.0627590499
 10
8.3813295354
 20
-0.0880261688
 10
8.4056193182
 20
-0.1171435528
 10
8.4180765381
 20
-0.1486511348
 10
8.4180765381
 20
-0.1809689929
 10
8.4056193182
 20
-0.2124765748
 10
8.3813295354
 20
-0.2415939589
 10
8.3464251809
 20
-0.2668610778
 10
8.3026565048
 20
-0.2870109328
 10
8.2522182511
 20
-0.3010331259
 10
8.1976396047
 20
-0.3082245259
 10
8.1416573666
 20
-0.3082245259
 10
8.0870787201
 20
-0.3010331259
 10
8.0366404665
 20
-0.2870109328
 10
7.9928717903
 20
-0.2668610778
 10
7.9579674358
 20
-0.2415939589
 10
7.9336776531
 20
-0.2124765748
 10
7.9212204332
 20
-0.1809689929
 10
7.9212204332
 20
-0.1486511348
 10
7.9336776531
 20
-0.1171435528
 10
7.9579674358
 20
-0.0880261688
 10
7.9928717903
 20
-0.0627590499
 10
8.0366404665
 20
-0.0426091949
 10
8.0870787201
 20
-0.0285870018
 10
8.1416573666
 20
-0.0213956018
 10
8.1976396047
 20
-0.0213956018
 10
8.2522182511
 20
-0.0285870018
 10
8.3026565048
 20
-0.0426091949
 10
8.3464251809
 20
-0.0627590499
  0
LWPOLYLINE
  5
49
330
1F
100
AcDbEntity
  8
0
  6
Continuous
 62
     7
370
    15
100
AcDbPolyline
 90
       41
 70
   128
 43
0.0
 10
-3.1794153524
 20
2.5089265024
 10
-3.119754588
 20
2.4795107455
 10
-3.0528572117
 20
2.4558449714
 10
-2.980370459
 20
2.4385119102
 10
-2.9040791943
 20
2.4279383591
 10
-2.8258619618
 20
2.4243846743
 10
-2.7476447293
 20
2.4279383591
 10
-2.6713534646
 20
2.4385119102
 10
-2.5988667119
 20
2.4558449714
 10
-2.5319693357
 20
2.4795107455
 10
-2.4723085712
 20
2.5089265024
 10
-2.4213534646
 20
2.5433679286
 10
-2.3803586997
 20
2.5819869619
 10
-2.3503337037
 20
2.6238326735
 10
-2.3320177915
 20
2.6678746831
 10
-2.3258619618
 20
2.7130285303
 10
-2.3320177915
 20
2.7581823775
 10
-2.3503337037
 20
2.8022243872
 10
-2.3803586997
 20
2.8440700988
 10
-2.4213534646
 20
2.8826891321
 10
-2.4723085712
 20
2.9171305583
 10
-2.5319693357
 20
2.9465463152
 10
-2.5988667119
 20
2.9702120892
 10
-2.6713534646
 20
2.9875451505
 10
-2.7476447293
 20
2.9981187015
 10
-2.8258619618
 20
3.0016723864
 10
-2.9040791943
 20
2.9981187015
 10
-2.980370459
 20
2.9875451505
 10
-3.0528572117
 20
2.9702120892
 10
-3.119754588
 20
2.9465463152
 10
-3.1794153524
 20
2.9171305583
 10
-3.230370459
 20
2.8826891321
 10
-3.2713652239
 20
2.8440700988
 10
-3.30139022
 20
2.8022243872
 10
-3.3197061321
 20
2.7581823775
 10
-3.3258619618
 20
2.7130285303
 10
-3.3197061321
 20
2.6678746831
 10
-3.30139022
 20
2.6238326735
 10
-3.2713652239
 20
2.5819869619
 10
-3.230370459
 20
2.5433679286
 10
-3.1794153524
 20
2.5089265024
  0
LWPOLYLINE
  5
4A
330
1F
100
AcDbEntity
  8
0
  6
Continuous
 62
     7
370
    15
100
AcDbPolyline
 90
       41
 70
   128
 43
0.0
 10
4.810891275
 20
-2.1037793294
 10
4.8705520394
 20
-2.1331950863
 10
4.9374494157
 20
-2.1568608604
 10
5.0099361684
 20
-2.1741939216
 10
5.0862274331
 20
-2.1847674727
 10
5.1644446656
 20
-2.1883211575
 10
5.2426618981
 20
-2.1847674727
 10
5.3189531628
 20
-2.1741939216
 10
5.3914399155
 20
-2.1568608604
 10
5.4583372917
 20
-2.1331950863
 10
5.5179980562
 20
-2.1037793294
 10
5.5689531628
 20
-2.0693379032
 10
5.6099479277
 20
-2.0307188699
 10
5.6399729237
 20
-1.9888731583
 10
5.6582888359
 20
-1.9448311487
 10
5.6644446656
 20
-1.8996773015
 10
5.6582888359
 20
-1.8545234543
 10
5.6399729237
 20
-1.8104814446
 10
5.6099479277
 20
-1.768635733
 10
5.5689531628
 20
-1.7300166997
 10
5.5179980562
 20
-1.6955752735
 10
5.4583372917
 20
-1.6661595166
 10
5.3914399155
 20
-1.6424937426
 10
5.3189531628
 20
-1.6251606813
 10
5.2426618981
 20
-1.6145871303
 10
5.1644446656
 20
-1.6110334454
 10
5.0862274331
 20
-1.6145871303
 10
5.0099361684
 20
-1.6251606813
 10
4.9374494157
 20
-1.6424937426
 10
4.8705520394
 20
-1.6661595166
 10
4.810891275
 20
-1.6955752735
 10
4.7599361684
 20
-1.7300166997
 10
4.7189414035
 20
-1.768635733
 10
4.6889164074
 20
-1.8104814446
 10
4.6706004953
 20
-1.8545234543
 10
4.6644446656
 20
-1.8996773015
 10
4.6706004953
 20
-1.9448311487
 10
4.6889164074
 20
-1.9888731583
 10
4.7189414035
 20
-2.0307188699
 10
4.7599361684
 20
-2.0693379032
 10
4.810891275
 20
-2.1037793294
  0
LWPOLYLINE
  5
4B
330
1F
100
AcDbEntity
  8
0
  6
Continuous
 62
     7
370
    15
100
AcDbPolyline
 90
       29
 70
   128
 43
0.0
 10
0.0025651629
 20
4.345844754
 10
0.0463338391
 20
4.325694899
 10
0.0967720927
 20
4.3116727059
 10
0.1513507392
 20
4.3044813059
 10
0.2073329773
 20
4.3044813059
 10
0.2619116237
 20
4.3116727059
 10
0.3123498774
 20
4.325694899
 10
0.3561185535
 20
4.345844754
 10
0.391022908
 20
4.3711118729
 10
0.4153126908
 20
4.400229257
 10
0.4277699107
 20
4.4317368389
 10
0.4277699107
 20
4.464054697
 10
0.4153126908
 20
4.495562279
 10
0.391022908
 20
4.524679663
 10
0.3561185535
 20
4.5499467819
 10
0.3123498774
 20
4.5700966369
 10
0.2619116237
 20
4.58411883
 10
0.2073329773
 20
4.59131023
 10
0.1513507392
 20
4.59131023
 10
0.0967720927
 20
4.58411883
 10
0.0463338391
 20
4.5700966369
 10
0.0025651629
 20
4.5499467819
 10
-0.0323391916
 20
4.524679663
 10
-0.0566289743
 20
4.495562279
 10
-0.0690861942
 20
4.464054697
 10
-0.0690861942
 20
4.4317368389
 10
-0.0566289743
 20
4.400229257
 10
-0.0323391916
 20
4.3711118729
 10
0.0025651629
 20
4.345844754
  0
LWPOLYLINE
  5
4C
330
1F
100
AcDbEntity
  8
0
  6
Continuous
 62
     7
370
    15
100
AcDbPolyline
 90
       29
 70
   128
 43
0.0
 10
-5.6542890866
 20
1.0802123067
 10
-5.6193847321
 20
1.0549451878
 10
-5.5950949493
 20
1.0258278037
 10
-5.5826377294
 20
0.9943202218
 10
-5.5826377294
 20
0.9620023636
 10
-5.5950949493
 20
0.9304947817
 10
-5.6193847321
 20
0.9013773977
 10
-5.6542890866
 20
0.8761102787
 10
-5.6980577627
 20
0.8559604238
 10
-5.7484960164
 20
0.8419382307
 10
-5.8030746628
 20
0.8347468307
 10
-5.8590569009
 20
0.8347468307
 10
-5.9136355473
 20
0.8419382307
 10
-5.964073801
 20
0.8559604238
 10
-6.0078424772
 20
0.8761102787
 10
-6.0427468317
 20
0.9013773977
 10
-6.0670366144
 20
0.9304947817
 10
-6.0794938343
 20
0.9620023636
 10
-6.0794938343
 20
0.9943202218
 10
-6.0670366144
 20
1.0258278037
 10
-6.0427468317
 20
1.0549451878
 10
-6.0078424772
 20
1.0802123067
 10
-5.964073801
 20
1.1003621616
 10
-5.9136355473
 20
1.1143843548
 10
-5.8590569009
 20
1.1215757547
 10
-5.8030746628
 20
1.1215757547
 10
-5.7484960164
 20
1.1143843548
 10
-5.6980577627
 20
1.1003621616
 10
-5.6542890866
 20
1.0802123067
  0
LWPOLYLINE
  5
4D
330
1F
100
AcDbEntity
  8
0
  6
Continuous
 62
     7
370
    15
100
AcDbPolyline
 90
       29
 70
   128
 43
0.0
 10
1.9824641503
 20
-3.7365955531
 10
2.0262328264
 20
-3.756745408
 10
2.0766710801
 20
-3.7707676011
 10
2.1312497265
 20
-3.7779590011
 10
2.1872319646
 20
-3.7779590011
 10
2.241810611
 20
-3.7707676011
 10
2.2922488647
 20
-3.756745408
 10
2.3360175408
 20
-3.7365955531
 10
2.3709218954
 20
-3.7113284341
 10
2.3952116781
 20
-3.6822110501
 10
2.407668898
 20
-3.6507034681
 10
2.407668898
 20
-3.61838561
 10
2.3952116781
 20
-3.5868780281
 10
2.3709218954
 20
-3.557760644
 10
2.3360175408
 20
-3.5324935251
 10
2.2922488647
 20
-3.5123436702
 10
2.241810611
 20
-3.498321477
 10
2.1872319646
 20
-3.4911300771
 10
2.1312497265
 20
-3.4911300771
 10
2.0766710801
 20
-3.498321477
 10
2.0262328264
 20
-3.5123436702
 10
1.9824641503
 20
-3.5324935251
 10
1.9475597957
 20
-3.557760644
 10
1.923270013
 20
-3.5868780281
 10
1.9108127931
 20
-3.61838561
 10
1.9108127931
 20
-3.6507034681
 10
1.923270013
 20
-3.6822110501
 10
1.9475597957
 20
-3.7113284341
 10
1.9824641503
 20
-3.7365955531
  0
LWPOLYLINE
  5
13F
330
1F
100
AcDbEntity
  8
0
  6
Continuous
 62
     7
370
    15
100
AcDbPolyline
 90
       13
 70
   128
 43
0.0
 10
-0.4323055075
 20
-0.8036494113
 10
-0.4279484445
 20
-0.9374264273
 10
-0.4149028247
 20
-1.0754489443
 10
-0.3932452048
 20
-1.2169069913
 10
-0.3631026804
 20
-1.3609704364
 10
-0.3246521398
 20
-1.5067938579
 10
-0.278119226
 20
-1.653521506
 10
-0.2237770128
 20
-1.8002923245
 10
-0.1619444018
 20
-1.9462450039
 10
-0.0929842514
 20
-2.0905230358
 10
-0.0173012471
 20
-2.2322797394
 10
0.064660473
 20
-2.37068323
 10
0.1168283405
 20
-2.4520430607
  0
LWPOLYLINE
  5
141
330
1F
100
AcDbEntity
  8
0
  6
Continuous
 62
     7
370
    15
100
AcDbPolyline
 90
       11
 70
   128
 43
0.0
 10
-0.1353206594
 20
-0.6322037079
 10
-0.1307026754
 20
-0.7699985427
 10
-0.1168774464
 20
-0.9122681288
 10
-0.0939309629
 20
-1.0581275742
 10
-0.0620059479
 20
-1.2066696588
 10
-0.0213009696
 20
-1.3569704769
 10
0.0279307943
 20
-1.5080951839
 10
0.0853831309
 20
-1.6591038105
 10
0.1506986967
 20
-1.8090571096
 10
0.2234712403
 20
-1.9570223981
 10
0.3032481294
 20
-2.1020793578
  0
LWPOLYLINE
  5
14C
330
1F
100
AcDbEntity
  8
0
  6
Continuous
 62
     7
370
    15
100
AcDbPolyline
 90
        3
 70
   128
 43
0.0
 10
1.0425998907
 20
-2.7858194091
 10
1.0146720953
 20
-2.7593247796
 10
0.9103791413
 20
-2.653949868
  0
LWPOLYLINE
  5
153
330
1F
100
AcDbEntity
  8
0
  6
Continuous
 62
     7
370
    15
100
AcDbPolyline
 90
       13
 70
   128
 43
0.0
 10
1.6890148361
 20
0.4209627564
 10
1.693371899
 20
0.2871857405
 10
1.7064175189
 20
0.1491632235
 10
1.7280751388
 20
0.0077051764
 10
1.7582176632
 20
-0.1363582687
 10
1.7966682038
 20
-0.2821816902
 10
1.8432011175
 20
-0.4289093383
 10
1.8975433307
 20
-0.5756801568
 10
1.9593759417
 20
-0.7216328361
 10
2.0283360922
 20
-0.8659108681
 10
2.1040190964
 20
-1.0076675717
 10
2.1859808166
 20
-1.1460710622
 10
2.2381486841
 20
-1.227430893
  0
LWPOLYLINE
  5
15C
330
1F
100
AcDbEntity
  8
0
  6
Continuous
 62
     7
370
    15
100
AcDbPolyline
 90
       11
 70
   128
 43
0.0
 10
1.9859996842
 20
0.5924084599
 10
1.9906176682
 20
0.454613625
 10
2.0044428972
 20
0.3123440389
 10
2.0273893807
 20
0.1664845935
 10
2.0593143956
 20
0.0179425089
 10
2.1000193739
 20
-0.1323583092
 10
2.1492511379
 20
-0.2834830161
 10
2.2067034744
 20
-0.4344916428
 10
2.2720190402
 20
-0.5844449419
 10
2.3447915839
 20
-0.7324102304
 10
2.424568473
 20
-0.8774671901
  0
LWPOLYLINE
  5
177
330
1F
100
AcDbEntity
  8
0
  6
Continuous
 62
     7
370
    15
100
AcDbPolyline
 90
        3
 70
   128
 43
0.0
 10
3.1639202342
 20
-1.5612072413
 10
3.1359924389
 20
-1.5347126118
 10
3.0316994848
 20
-1.4293377003
  0
LWPOLYLINE
  5
17C
330
1F
100
AcDbEntity
  8
0
  6
Continuous
 62
     7
370
    15
100
AcDbPolyline
 90
       13
 70
   128
 43
0.0
 10
-3.8971287353
 20
1.1965504626
 10
-3.8927716724
 20
1.0627734467
 10
-3.8797260525
 20
0.9247509297
 10
-3.8580684326
 20
0.7832928826
 10
-3.8279259082
 20
0.6392294375
 10
-3.7894753676
 20
0.4934060161
 10
-3.7429424538
 20
0.346678368
 10
-3.6886002406
 20
0.1999075495
 10
-3.6267676296
 20
0.0539548701
 10
-3.5578074792
 20
-0.0903231618
 10
-3.482124475
 20
-0.2320798654
 10
-3.4001627548
 20
-0.370483356
 10
-3.3479948873
 20
-0.4518431867
  0
LWPOLYLINE
  5
17E
330
1F
100
AcDbEntity
  8
0
  6
Continuous
 62
     7
370
    15
100
AcDbPolyline
 90
       11
 70
   128
 43
0.0
 10
-3.6001438872
 20
1.3679961661
 10
-3.5955259032
 20
1.2302013312
 10
-3.5817006742
 20
1.0879317452
 10
-3.5587541907
 20
0.9420722997
 10
-3.5268291758
 20
0.7935302151
 10
-3.4861241974
 20
0.643229397
 10
-3.4368924335
 20
0.4921046901
 10
-3.3794400969
 20
0.3410960635
 10
-3.3141245311
 20
0.1911427643
 10
-3.2413519875
 20
0.0431774759
 10
-3.1615750984
 20
-0.1018794839
  0
LWPOLYLINE
  5
185
330
1F
100
AcDbEntity
  8
0
  6
Continuous
 62
     7
370
    15
100
AcDbPolyline
 90
       13
 70
   128
 43
0.0
 10
3.8103351796
 20
1.6455749241
 10
3.8146922426
 20
1.5117979082
 10
3.8277378624
 20
1.3737753912
 10
3.8493954823
 20
1.2323173441
 10
3.8795380068
 20
1.088253899
 10
3.9179885474
 20
0.9424304776
 10
3.9645214611
 20
0.7957028295
 10
4.0188636743
 20
0.648932011
 10
4.0806962853
 20
0.5029793316
 10
4.1496564357
 20
0.3587012997
 10
4.22533944
 20
0.2169445961
 10
4.3073011601
 20
0.0785411055
 10
4.3594690277
 20
-0.0028187252
  0
LWPOLYLINE
  5
18E
330
1F
100
AcDbEntity
  8
0
  6
Continuous
 62
     7
370
    15
100
AcDbPolyline
 90
       11
 70
   128
 43
0.0
 10
4.1073200277
 20
1.8170206276
 10
4.1119380117
 20
1.6792257927
 10
4.1257632408
 20
1.5369562067
 10
4.1487097243
 20
1.3910967612
 10
4.1806347392
 20
1.2425546766
 10
4.2213397175
 20
1.0922538585
 10
4.2705714814
 20
0.9411291516
 10
4.328023818
 20
0.790120525
 10
4.3933393838
 20
0.6401672258
 10
4.4661119275
 20
0.4922019374
 10
4.5458888166
 20
0.3471449776
  0
LWPOLYLINE
  5
198
330
1F
100
AcDbEntity
  8
0
  6
Continuous
 62
     7
370
    15
100
AcDbPolyline
 90
        3
 70
   128
 43
0.0
 10
-2.4222233371
 20
-0.7856195351
 10
-2.4501511325
 20
-0.7591249056
 10
-2.5544440866
 20
-0.6537499941
  0
LWPOLYLINE
  5
1B0
330
1F
100
AcDbEntity
  8
0
  6
Continuous
 62
     7
370
    15
100
AcDbPolyline
 90
        3
 70
   128
 43
0.0
 10
5.2852405778
 20
-0.3365950736
 10
5.2573127824
 20
-0.3101004441
 10
5.1530198284
 20
-0.2047255326
  0
LWPOLYLINE
  5
1B4
330
1F
100
AcDbEntity
  8
0
  6
Continuous
 62
     7
370
    15
100
AcDbPolyline
 90
       13
 70
   128
 43
0.0
 10
-1.7758083918
 20
2.4211626304
 10
-1.7714513288
 20
2.2873856144
 10
-1.7584057089
 20
2.1493630974
 10
-1.736748089
 20
2.0079050504
 10
-1.7066055646
 20
1.8638416053
 10
-1.668155024
 20
1.7180181838
 10
-1.6216221103
 20
1.5712905357
 10
-1.5672798971
 20
1.4245197172
 10
-1.5054472861
 20
1.2785670378
 10
-1.4364871357
 20
1.1342890059
 10
-1.3608041314
 20
0.9925323023
 10
-1.2788424113
 20
0.8541288117
 10
-1.2266745437
 20
0.772768981
  0
LWPOLYLINE
  5
1BD
330
1F
100
AcDbEntity
  8
0
  6
Continuous
 62
     7
370
    15
100
AcDbPolyline
 90
       11
 70
   128
 43
0.0
 10
-1.4788235437
 20
2.5926083338
 10
-1.4742055596
 20
2.454813499
 10
-1.4603803306
 20
2.3125439129
 10
-1.4374338471
 20
2.1666844675
 10
-1.4055088322
 20
2.0181423829
 10
-1.3648038539
 20
1.8678415648
 10
-1.31557209
 20
1.7167168578
 10
-1.2581197534
 20
1.5657082312
 10
-1.1928041876
 20
1.4157549321
 10
-1.1200316439
 20
1.2677896436
 10
-1.0402547548
 20
1.1227326839
  0
LWPOLYLINE
  5
1DD
330
1F
100
AcDbEntity
  8
0
  6
Continuous
 62
     7
370
    15
100
AcDbPolyline
 90
        3
 70
   128
 43
0.0
 10
-0.3009029936
 20
0.4389926326
 10
-0.328830789
 20
0.4654872621
 10
-0.433123743
 20
0.5708621737
  0
LWPOLYLINE
  5
1F0
330
1F
100
AcDbEntity
  8
0
  6
Continuous
 62
     7
370
    15
100
AcDbPolyline
 90
       13
 70
   128
 43
0.0
 10
0.3455119518
 20
3.6457747981
 10
0.3498690148
 20
3.5119977822
 10
0.3629146346
 20
3.3739752652
 10
0.3845722545
 20
3.2325172181
 10
0.4147147789
 20
3.088453773
 10
0.4531653195
 20
2.9426303515
 10
0.4996982333
 20
2.7959027034
 10
0.5540404465
 20
2.6491318849
 10
0.6158730575
 20
2.5031792056
 10
0.6848332079
 20
2.3589011736
 10
0.7605162122
 20
2.21714447
 10
0.8424779323
 20
2.0787409795
 10
0.8946457999
 20
1.9973811487
  0
LWPOLYLINE
  5
1F9
330
1F
100
AcDbEntity
  8
0
  6
Continuous
 62
     7
370
    15
100
AcDbPolyline
 90
       11
 70
   128
 43
0.0
 10
0.6424967999
 20
3.8172205016
 10
0.6471147839
 20
3.6794256667
 10
0.6609400129
 20
3.5371560806
 10
0.6838864965
 20
3.3912966352
 10
0.7158115114
 20
3.2427545506
 10
0.7565164897
 20
3.0924537325
 10
0.8057482536
 20
2.9413290256
 10
0.8632005902
 20
2.7903203989
 10
0.928516156
 20
2.6403670998
 10
1.0012886996
 20
2.4924018113
 10
1.0810655887
 20
2.3473448516
  0
LWPOLYLINE
  5
20D
330
1F
100
AcDbEntity
  8
0
  6
Continuous
 62
     7
370
    15
100
AcDbPolyline
 90
        3
 70
   128
 43
0.0
 10
1.82041735
 20
1.6636048004
 10
1.7924895546
 20
1.6900994298
 10
1.6881966006
 20
1.7954743414
  0
LINE
  5
226
330
1F
100
AcDbEntity
  8
0
  6
Continuous
 62
     7
370
    15
100
AcDbLine
 10
0.1793418582
 20
5.2643038798
 30
0.0
 11
9.583862048
 21
-0.1648100638
 31
0.0
  0
LINE
  5
227
330
1F
100
AcDbEntity
  8
0
  6
Continuous
 62
     7
370
    15
100
AcDbLine
 10
9.583862048
 20
-0.1648100638
 30
0.0
 11
2.1592408456
 21
-4.4509526509
 31
0.0
  0
LINE
  5
228
330
1F
100
AcDbEntity
  8
0
  6
Continuous
 62
     7
370
    15
100
AcDbLine
 10
-7.2452793442
 20
0.9781612927
 30
0.0
 11
2.1592408456
 21
-4.4509526509
 31
0.0
  0
LINE
  5
229
330
1F
100
AcDbEntity
  8
0
  6
Continuous
 62
     7
370
    15
100
AcDbLine
 10
0.1793418582
 20
5.2643038798
 30
0.0
 11
-7.2452793442
 21
0.9781612927
 31
0.0
  0
LINE
  5
22A
330
1F
100
AcDbEntity
  8
0
  6
Continuous
 62
     7
370
    15
100
AcDbLine
 10
2.9128257054
 20
2.6621132673
 30
0.0
 11
3.0751067117
 21
2.7557960982
 31
0.0
  0
LINE
  5
22B
330
1F
100
AcDbEntity
  8
0
  6
Continuous
 62
     7
370
    15
100
AcDbLine
 10
1.6046781602
 20
3.4172907708
 30
0.0
 11
2.9128257054
 21
2.6621132673
 31
0.0
  0
LINE
  5
22C
330
1F
100
AcDbEntity
  8
0
  6
Continuous
 62
     7
370
    15
100
AcDbLine
 10
1.6046781602
 20
3.4172907708
 30
0.0
 11
1.7669591665
 21
3.5109736016
 31
0.0
  0
LINE
  5
22D
330
1F
100
AcDbEntity
  8
0
  6
Continuous
 62
     7
370
    15
100
AcDbLine
 10
1.3780504368
 20
3.7354858324
 30
0.0
 11
1.7669591665
 21
3.5109736016
 31
0.0
  0
LINE
  5
22E
330
1F
100
AcDbEntity
  8
0
  6
Continuous
 62
     7
370
    15
100
AcDbLine
 10
1.3780504368
 20
3.7354858324
 30
0.0
 11
1.2157694306
 21
3.6418030015
 31
0.0
  0
LINE
  5
22F
330
1F
100
AcDbEntity
  8
0
  6
Continuous
 62
     7
370
    15
100
AcDbLine
 10
1.1556653542
 20
3.6765003463
 30
0.0
 11
1.2157694306
 21
3.6418030015
 31
0.0
  0
LINE
  5
230
330
1F
100
AcDbEntity
  8
0
  6
Continuous
 62
     7
370
    15
100
AcDbLine
 10
1.1556653542
 20
3.6765003463
 30
0.0
 11
1.0209615123
 21
3.5987374736
 31
0.0
  0
LINE
  5
231
330
1F
100
AcDbEntity
  8
0
  6
Continuous
 62
     7
370
    15
100
AcDbLine
 10
1.0209615123
 20
3.5987374736
 30
0.0
 11
0.6424967999
 21
3.8172205016
 31
0.0
  0
LINE
  5
232
330
1F
100
AcDbEntity
  8
0
  6
Continuous
 62
     7
370
    15
100
AcDbLine
 10
0.6424967999
 20
3.8172205016
 30
0.0
 11
0.3455119518
 21
3.6457747981
 31
0.0
  0
LINE
  5
233
330
1F
100
AcDbEntity
  8
0
  6
Continuous
 62
     7
370
    15
100
AcDbLine
 10
0.3455119518
 20
3.6457747981
 30
0.0
 11
0.2748012737
 21
3.6865952037
 31
0.0
  0
LINE
  5
234
330
1F
100
AcDbEntity
  8
0
  6
Continuous
 62
     7
370
    15
100
AcDbLine
 10
-0.6059002223
 20
3.178177052
 30
0.0
 11
0.2748012737
 21
3.6865952037
 31
0.0
  0
LINE
  5
235
330
1F
100
AcDbEntity
  8
0
  6
Continuous
 62
     7
370
    15
100
AcDbLine
 10
-0.5351895442
 20
3.1373566465
 30
0.0
 11
-0.6059002223
 21
3.178177052
 31
0.0
  0
LINE
  5
236
330
1F
100
AcDbEntity
  8
0
  6
Continuous
 62
     7
370
    15
100
AcDbLine
 10
-0.5351895442
 20
3.1373566465
 30
0.0
 11
-0.5454425925
 21
3.1314376876
 31
0.0
  0
LINE
  5
237
330
1F
100
AcDbEntity
  8
0
  6
Continuous
 62
     7
370
    15
100
AcDbLine
 10
-0.225443508
 20
2.9467061483
 30
0.0
 11
-0.5454425925
 21
3.1314376876
 31
0.0
  0
LINE
  5
238
330
1F
100
AcDbEntity
  8
0
  6
Continuous
 62
     7
370
    15
100
AcDbLine
 10
-0.225443508
 20
2.9467061483
 30
0.0
 11
-0.490608551
 21
2.7936296274
 31
0.0
  0
LINE
  5
239
330
1F
100
AcDbEntity
  8
0
  6
Continuous
 62
     7
370
    15
100
AcDbLine
 10
-0.264334381
 20
2.6630043295
 30
0.0
 11
-0.490608551
 21
2.7936296274
 31
0.0
  0
LINE
  5
23A
330
1F
100
AcDbEntity
  8
0
  6
Continuous
 62
     7
370
    15
100
AcDbLine
 10
-0.264334381
 20
2.6630043295
 30
0.0
 11
-0.0875576857
 21
2.7650553434
 31
0.0
  0
LINE
  5
23B
330
1F
100
AcDbEntity
  8
0
  6
Continuous
 62
     7
370
    15
100
AcDbLine
 10
0.6353282944
 20
2.3477421499
 30
0.0
 11
-0.0875576857
 21
2.7650553434
 31
0.0
  0
LINE
  5
23C
330
1F
100
AcDbEntity
  8
0
  6
Continuous
 62
     7
370
    15
100
AcDbLine
 10
0.6353282944
 20
2.3477421499
 30
0.0
 11
0.5469399467
 21
2.2967166429
 31
0.0
  0
LINE
  5
23D
330
1F
100
AcDbEntity
  8
0
  6
Continuous
 62
     7
370
    15
100
AcDbLine
 10
0.6055274068
 20
2.2628948221
 30
0.0
 11
0.5469399467
 21
2.2967166429
 31
0.0
  0
LINE
  5
23E
330
1F
100
AcDbEntity
  8
0
  6
Continuous
 62
     7
370
    15
100
AcDbLine
 10
0.6055274068
 20
2.2628948221
 30
0.0
 11
0.5171390592
 21
2.2118693151
 31
0.0
  0
LINE
  5
23F
330
1F
100
AcDbEntity
  8
0
  6
Continuous
 62
     7
370
    15
100
AcDbLine
 10
0.8916647592
 20
1.9956602306
 30
0.0
 11
0.5171390592
 21
2.2118693151
 31
0.0
  0
LINE
  5
240
330
1F
100
AcDbEntity
  8
0
  6
Continuous
 62
     7
370
    15
100
AcDbLine
 10
0.9800531069
 20
2.0466857376
 30
0.0
 11
0.8916647592
 21
1.9956602306
 31
0.0
  0
LINE
  5
241
330
1F
100
AcDbEntity
  8
0
  6
Continuous
 62
     7
370
    15
100
AcDbLine
 10
1.038640567
 20
2.0128639168
 30
0.0
 11
0.9800531069
 21
2.0466857376
 31
0.0
  0
LINE
  5
242
330
1F
100
AcDbEntity
  8
0
  6
Continuous
 62
     7
370
    15
100
AcDbLine
 10
1.1270289147
 20
2.0638894238
 30
0.0
 11
1.038640567
 21
2.0128639168
 31
0.0
  0
LINE
  5
243
330
1F
100
AcDbEntity
  8
0
  6
Continuous
 62
     7
370
    15
100
AcDbLine
 10
1.8499148947
 20
1.6465762302
 30
0.0
 11
1.1270289147
 21
2.0638894238
 31
0.0
  0
LINE
  5
244
330
1F
100
AcDbEntity
  8
0
  6
Continuous
 62
     7
370
    15
100
AcDbLine
 10
1.8499148947
 20
1.6465762302
 30
0.0
 11
1.6731381994
 21
1.5445252163
 31
0.0
  0
LINE
  5
245
330
1F
100
AcDbEntity
  8
0
  6
Continuous
 62
     7
370
    15
100
AcDbLine
 10
1.8994123694
 20
1.4138999184
 30
0.0
 11
1.6731381994
 21
1.5445252163
 31
0.0
  0
LINE
  5
246
330
1F
100
AcDbEntity
  8
0
  6
Continuous
 62
     7
370
    15
100
AcDbLine
 10
2.1645774124
 20
1.5669764393
 30
0.0
 11
1.8994123694
 21
1.4138999184
 31
0.0
  0
LINE
  5
247
330
1F
100
AcDbEntity
  8
0
  6
Continuous
 62
     7
370
    15
100
AcDbLine
 10
2.4244058885
 20
1.4169806528
 30
0.0
 11
2.1645774124
 21
1.5669764393
 31
0.0
  0
LINE
  5
248
330
1F
100
AcDbEntity
  8
0
  6
Continuous
 62
     7
370
    15
100
AcDbLine
 10
2.4346589368
 20
1.4228996116
 30
0.0
 11
2.4244058885
 21
1.4169806528
 31
0.0
  0
LINE
  5
249
330
1F
100
AcDbEntity
  8
0
  6
Continuous
 62
     7
370
    15
100
AcDbLine
 10
2.5053696149
 20
1.382079206
 30
0.0
 11
2.4346589368
 21
1.4228996116
 31
0.0
  0
LINE
  5
24A
330
1F
100
AcDbEntity
  8
0
  6
Continuous
 62
     7
370
    15
100
AcDbLine
 10
3.3860711109
 20
1.8904973577
 30
0.0
 11
2.5053696149
 21
1.382079206
 31
0.0
  0
LINE
  5
24B
330
1F
100
AcDbEntity
  8
0
  6
Continuous
 62
     7
370
    15
100
AcDbLine
 10
3.3860711109
 20
1.8904973577
 30
0.0
 11
3.3153604328
 21
1.9313177633
 31
0.0
  0
LINE
  5
24C
330
1F
100
AcDbEntity
  8
0
  6
Continuous
 62
     7
370
    15
100
AcDbLine
 10
3.6123452809
 20
2.1027634667
 30
0.0
 11
3.3153604328
 21
1.9313177633
 31
0.0
  0
LINE
  5
24D
330
1F
100
AcDbEntity
  8
0
  6
Continuous
 62
     7
370
    15
100
AcDbLine
 10
3.6123452809
 20
2.1027634667
 30
0.0
 11
3.1670305932
 21
2.3598381639
 31
0.0
  0
LINE
  5
24E
330
1F
100
AcDbEntity
  8
0
  6
Continuous
 62
     7
370
    15
100
AcDbLine
 10
3.1670305932
 20
2.3598381639
 30
0.0
 11
3.4640154413
 21
2.5312838674
 31
0.0
  0
LINE
  5
24F
330
1F
100
AcDbEntity
  8
0
  6
Continuous
 62
     7
370
    15
100
AcDbLine
 10
3.0751067117
 20
2.7557960982
 30
0.0
 11
3.4640154413
 21
2.5312838674
 31
0.0
  0
LINE
  5
250
330
1F
100
AcDbEntity
  8
0
  6
Continuous
 62
     7
370
    15
100
AcDbLine
 10
4.620488582
 20
1.6763004723
 30
0.0
 11
4.6805926584
 21
1.6416031276
 31
0.0
  0
LINE
  5
251
330
1F
100
AcDbEntity
  8
0
  6
Continuous
 62
     7
370
    15
100
AcDbLine
 10
4.620488582
 20
1.6763004723
 30
0.0
 11
4.4857847402
 21
1.5985375997
 31
0.0
  0
LINE
  5
252
330
1F
100
AcDbEntity
  8
0
  6
Continuous
 62
     7
370
    15
100
AcDbLine
 10
4.4857847402
 20
1.5985375997
 30
0.0
 11
4.1073200277
 21
1.8170206276
 31
0.0
  0
LINE
  5
253
330
1F
100
AcDbEntity
  8
0
  6
Continuous
 62
     7
370
    15
100
AcDbLine
 10
4.1073200277
 20
1.8170206276
 30
0.0
 11
3.8103351796
 21
1.6455749241
 31
0.0
  0
LINE
  5
254
330
1F
100
AcDbEntity
  8
0
  6
Continuous
 62
     7
370
    15
100
AcDbLine
 10
3.8103351796
 20
1.6455749241
 30
0.0
 11
3.7396245015
 21
1.6863953297
 31
0.0
  0
LINE
  5
255
330
1F
100
AcDbEntity
  8
0
  6
Continuous
 62
     7
370
    15
100
AcDbLine
 10
2.8589230055
 20
1.1779771781
 30
0.0
 11
3.7396245015
 21
1.6863953297
 31
0.0
  0
LINE
  5
256
330
1F
100
AcDbEntity
  8
0
  6
Continuous
 62
     7
370
    15
100
AcDbLine
 10
2.9296336837
 20
1.1371567725
 30
0.0
 11
2.8589230055
 21
1.1779771781
 31
0.0
  0
LINE
  5
257
330
1F
100
AcDbEntity
  8
0
  6
Continuous
 62
     7
370
    15
100
AcDbLine
 10
2.9296336837
 20
1.1371567725
 30
0.0
 11
2.9193806353
 21
1.1312378137
 31
0.0
  0
LINE
  5
258
330
1F
100
AcDbEntity
  8
0
  6
Continuous
 62
     7
370
    15
100
AcDbLine
 10
3.2393797198
 20
0.9465062744
 30
0.0
 11
2.9193806353
 21
1.1312378137
 31
0.0
  0
LINE
  5
259
330
1F
100
AcDbEntity
  8
0
  6
Continuous
 62
     7
370
    15
100
AcDbLine
 10
3.2393797198
 20
0.9465062744
 30
0.0
 11
2.9742146768
 21
0.7934297534
 31
0.0
  0
LINE
  5
25A
330
1F
100
AcDbEntity
  8
0
  6
Continuous
 62
     7
370
    15
100
AcDbLine
 10
3.2004888468
 20
0.6628044555
 30
0.0
 11
2.9742146768
 21
0.7934297534
 31
0.0
  0
LINE
  5
25B
330
1F
100
AcDbEntity
  8
0
  6
Continuous
 62
     7
370
    15
100
AcDbLine
 10
3.2004888468
 20
0.6628044555
 30
0.0
 11
3.3772655421
 21
0.7648554695
 31
0.0
  0
LINE
  5
25C
330
1F
100
AcDbEntity
  8
0
  6
Continuous
 62
     7
370
    15
100
AcDbLine
 10
4.1001515222
 20
0.3475422759
 30
0.0
 11
3.3772655421
 21
0.7648554695
 31
0.0
  0
LINE
  5
25D
330
1F
100
AcDbEntity
  8
0
  6
Continuous
 62
     7
370
    15
100
AcDbLine
 10
4.1001515222
 20
0.3475422759
 30
0.0
 11
4.0117631745
 21
0.2965167689
 31
0.0
  0
LINE
  5
25E
330
1F
100
AcDbEntity
  8
0
  6
Continuous
 62
     7
370
    15
100
AcDbLine
 10
4.0703506346
 20
0.2626949481
 30
0.0
 11
4.0117631745
 21
0.2965167689
 31
0.0
  0
LINE
  5
25F
330
1F
100
AcDbEntity
  8
0
  6
Continuous
 62
     7
370
    15
100
AcDbLine
 10
4.0703506346
 20
0.2626949481
 30
0.0
 11
3.981962287
 21
0.2116694411
 31
0.0
  0
LINE
  5
260
330
1F
100
AcDbEntity
  8
0
  6
Continuous
 62
     7
370
    15
100
AcDbLine
 10
4.3564879871
 20
-0.0045396434
 30
0.0
 11
3.981962287
 21
0.2116694411
 31
0.0
  0
LINE
  5
261
330
1F
100
AcDbEntity
  8
0
  6
Continuous
 62
     7
370
    15
100
AcDbLine
 10
4.4448763347
 20
0.0464858636
 30
0.0
 11
4.3564879871
 21
-0.0045396434
 31
0.0
  0
LINE
  5
262
330
1F
100
AcDbEntity
  8
0
  6
Continuous
 62
     7
370
    15
100
AcDbLine
 10
4.5034637948
 20
0.0126640428
 30
0.0
 11
4.4448763347
 21
0.0464858636
 31
0.0
  0
LINE
  5
263
330
1F
100
AcDbEntity
  8
0
  6
Continuous
 62
     7
370
    15
100
AcDbLine
 10
4.5918521425
 20
0.0636895498
 30
0.0
 11
4.5034637948
 21
0.0126640428
 31
0.0
  0
LINE
  5
264
330
1F
100
AcDbEntity
  8
0
  6
Continuous
 62
     7
370
    15
100
AcDbLine
 10
5.3147381225
 20
-0.3536236437
 30
0.0
 11
4.5918521425
 21
0.0636895498
 31
0.0
  0
LINE
  5
265
330
1F
100
AcDbEntity
  8
0
  6
Continuous
 62
     7
370
    15
100
AcDbLine
 10
5.3147381225
 20
-0.3536236437
 30
0.0
 11
5.1379614273
 21
-0.4556746577
 31
0.0
  0
LINE
  5
266
330
1F
100
AcDbEntity
  8
0
  6
Continuous
 62
     7
370
    15
100
AcDbLine
 10
5.3642355972
 20
-0.5862999556
 30
0.0
 11
5.1379614273
 21
-0.4556746577
 31
0.0
  0
LINE
  5
267
330
1F
100
AcDbEntity
  8
0
  6
Continuous
 62
     7
370
    15
100
AcDbLine
 10
5.6294006402
 20
-0.4332234346
 30
0.0
 11
5.3642355972
 21
-0.5862999556
 31
0.0
  0
LINE
  5
268
330
1F
100
AcDbEntity
  8
0
  6
Continuous
 62
     7
370
    15
100
AcDbLine
 10
5.8892291163
 20
-0.5832192212
 30
0.0
 11
5.6294006402
 21
-0.4332234346
 31
0.0
  0
LINE
  5
269
330
1F
100
AcDbEntity
  8
0
  6
Continuous
 62
     7
370
    15
100
AcDbLine
 10
5.8994821646
 20
-0.5773002623
 30
0.0
 11
5.8892291163
 21
-0.5832192212
 31
0.0
  0
LINE
  5
26A
330
1F
100
AcDbEntity
  8
0
  6
Continuous
 62
     7
370
    15
100
AcDbLine
 10
5.9701928428
 20
-0.6181206679
 30
0.0
 11
5.8994821646
 21
-0.5773002623
 31
0.0
  0
LINE
  5
26B
330
1F
100
AcDbEntity
  8
0
  6
Continuous
 62
     7
370
    15
100
AcDbLine
 10
6.8508943387
 20
-0.1097025163
 30
0.0
 11
5.9701928428
 21
-0.6181206679
 31
0.0
  0
LINE
  5
26C
330
1F
100
AcDbEntity
  8
0
  6
Continuous
 62
     7
370
    15
100
AcDbLine
 10
6.8508943387
 20
-0.1097025163
 30
0.0
 11
6.7801836606
 21
-0.0688821107
 31
0.0
  0
LINE
  5
26D
330
1F
100
AcDbEntity
  8
0
  6
Continuous
 62
     7
370
    15
100
AcDbLine
 10
7.0771685087
 20
0.1025635928
 30
0.0
 11
6.7801836606
 21
-0.0688821107
 31
0.0
  0
LINE
  5
26E
330
1F
100
AcDbEntity
  8
0
  6
Continuous
 62
     7
370
    15
100
AcDbLine
 10
7.0771685087
 20
0.1025635928
 30
0.0
 11
6.6318538211
 21
0.35963829
 31
0.0
  0
LINE
  5
26F
330
1F
100
AcDbEntity
  8
0
  6
Continuous
 62
     7
370
    15
100
AcDbLine
 10
6.6318538211
 20
0.35963829
 30
0.0
 11
6.9288386692
 21
0.5310839935
 31
0.0
  0
LINE
  5
270
330
1F
100
AcDbEntity
  8
0
  6
Continuous
 62
     7
370
    15
100
AcDbLine
 10
6.5399299395
 20
0.7555962242
 30
0.0
 11
6.9288386692
 21
0.5310839935
 31
0.0
  0
LINE
  5
271
330
1F
100
AcDbEntity
  8
0
  6
Continuous
 62
     7
370
    15
100
AcDbLine
 10
6.3776489332
 20
0.6619133934
 30
0.0
 11
6.5399299395
 21
0.7555962242
 31
0.0
  0
LINE
  5
272
330
1F
100
AcDbEntity
  8
0
  6
Continuous
 62
     7
370
    15
100
AcDbLine
 10
5.069501388
 20
1.4170908968
 30
0.0
 11
6.3776489332
 21
0.6619133934
 31
0.0
  0
LINE
  5
273
330
1F
100
AcDbEntity
  8
0
  6
Continuous
 62
     7
370
    15
100
AcDbLine
 10
5.069501388
 20
1.4170908968
 30
0.0
 11
5.2317823943
 21
1.5107737276
 31
0.0
  0
LINE
  5
274
330
1F
100
AcDbEntity
  8
0
  6
Continuous
 62
     7
370
    15
100
AcDbLine
 10
4.8428736647
 20
1.7352859584
 30
0.0
 11
5.2317823943
 21
1.5107737276
 31
0.0
  0
LINE
  5
275
330
1F
100
AcDbEntity
  8
0
  6
Continuous
 62
     7
370
    15
100
AcDbLine
 10
4.8428736647
 20
1.7352859584
 30
0.0
 11
4.6805926584
 21
1.6416031276
 31
0.0
  0
LINE
  5
276
330
1F
100
AcDbEntity
  8
0
  6
Continuous
 62
     7
370
    15
100
AcDbLine
 10
4.2563285897
 20
-0.5626987744
 30
0.0
 11
4.4186095959
 21
-0.4690159435
 31
0.0
  0
LINE
  5
277
330
1F
100
AcDbEntity
  8
0
  6
Continuous
 62
     7
370
    15
100
AcDbLine
 10
2.9481810445
 20
0.1924787291
 30
0.0
 11
4.2563285897
 21
-0.5626987744
 31
0.0
  0
LINE
  5
278
330
1F
100
AcDbEntity
  8
0
  6
Continuous
 62
     7
370
    15
100
AcDbLine
 10
2.9481810445
 20
0.1924787291
 30
0.0
 11
3.1104620507
 21
0.2861615599
 31
0.0
  0
LINE
  5
279
330
1F
100
AcDbEntity
  8
0
  6
Continuous
 62
     7
370
    15
100
AcDbLine
 10
2.7215533211
 20
0.5106737907
 30
0.0
 11
3.1104620507
 21
0.2861615599
 31
0.0
  0
LINE
  5
27A
330
1F
100
AcDbEntity
  8
0
  6
Continuous
 62
     7
370
    15
100
AcDbLine
 10
2.7215533211
 20
0.5106737907
 30
0.0
 11
2.5592723148
 21
0.4169909598
 31
0.0
  0
LINE
  5
27B
330
1F
100
AcDbEntity
  8
0
  6
Continuous
 62
     7
370
    15
100
AcDbLine
 10
2.4991682384
 20
0.4516883046
 30
0.0
 11
2.5592723148
 21
0.4169909598
 31
0.0
  0
LINE
  5
27C
330
1F
100
AcDbEntity
  8
0
  6
Continuous
 62
     7
370
    15
100
AcDbLine
 10
2.4991682384
 20
0.4516883046
 30
0.0
 11
2.3644643966
 21
0.3739254319
 31
0.0
  0
LINE
  5
27D
330
1F
100
AcDbEntity
  8
0
  6
Continuous
 62
     7
370
    15
100
AcDbLine
 10
2.3644643966
 20
0.3739254319
 30
0.0
 11
1.9859996842
 21
0.5924084599
 31
0.0
  0
LINE
  5
27E
330
1F
100
AcDbEntity
  8
0
  6
Continuous
 62
     7
370
    15
100
AcDbLine
 10
1.9859996842
 20
0.5924084599
 30
0.0
 11
1.6890148361
 21
0.4209627564
 31
0.0
  0
LINE
  5
27F
330
1F
100
AcDbEntity
  8
0
  6
Continuous
 62
     7
370
    15
100
AcDbLine
 10
1.6890148361
 20
0.4209627564
 30
0.0
 11
1.6183041579
 21
0.461783162
 31
0.0
  0
LINE
  5
280
330
1F
100
AcDbEntity
  8
0
  6
Continuous
 62
     7
370
    15
100
AcDbLine
 10
0.737602662
 20
-0.0466349897
 30
0.0
 11
1.6183041579
 21
0.461783162
 31
0.0
  0
LINE
  5
281
330
1F
100
AcDbEntity
  8
0
  6
Continuous
 62
     7
370
    15
100
AcDbLine
 10
0.8083133401
 20
-0.0874553952
 30
0.0
 11
0.737602662
 21
-0.0466349897
 31
0.0
  0
LINE
  5
282
330
1F
100
AcDbEntity
  8
0
  6
Continuous
 62
     7
370
    15
100
AcDbLine
 10
0.8083133401
 20
-0.0874553952
 30
0.0
 11
0.7980602918
 21
-0.0933743541
 31
0.0
  0
LINE
  5
283
330
1F
100
AcDbEntity
  8
0
  6
Continuous
 62
     7
370
    15
100
AcDbLine
 10
1.1180593762
 20
-0.2781058934
 30
0.0
 11
0.7980602918
 21
-0.0933743541
 31
0.0
  0
LINE
  5
284
330
1F
100
AcDbEntity
  8
0
  6
Continuous
 62
     7
370
    15
100
AcDbLine
 10
1.1180593762
 20
-0.2781058934
 30
0.0
 11
0.8528943333
 21
-0.4311824143
 31
0.0
  0
LINE
  5
285
330
1F
100
AcDbEntity
  8
0
  6
Continuous
 62
     7
370
    15
100
AcDbLine
 10
1.0791685032
 20
-0.5618077122
 30
0.0
 11
0.8528943333
 21
-0.4311824143
 31
0.0
  0
LINE
  5
286
330
1F
100
AcDbEntity
  8
0
  6
Continuous
 62
     7
370
    15
100
AcDbLine
 10
1.0791685032
 20
-0.5618077122
 30
0.0
 11
1.2559451985
 21
-0.4597566983
 31
0.0
  0
LINE
  5
287
330
1F
100
AcDbEntity
  8
0
  6
Continuous
 62
     7
370
    15
100
AcDbLine
 10
1.9788311786
 20
-0.8770698918
 30
0.0
 11
1.2559451985
 21
-0.4597566983
 31
0.0
  0
LINE
  5
288
330
1F
100
AcDbEntity
  8
0
  6
Continuous
 62
     7
370
    15
100
AcDbLine
 10
1.9788311786
 20
-0.8770698918
 30
0.0
 11
1.890442831
 21
-0.9280953988
 31
0.0
  0
LINE
  5
289
330
1F
100
AcDbEntity
  8
0
  6
Continuous
 62
     7
370
    15
100
AcDbLine
 10
1.9490302911
 20
-0.9619172196
 30
0.0
 11
1.890442831
 21
-0.9280953988
 31
0.0
  0
LINE
  5
28A
330
1F
100
AcDbEntity
  8
0
  6
Continuous
 62
     7
370
    15
100
AcDbLine
 10
1.9490302911
 20
-0.9619172196
 30
0.0
 11
1.8606419434
 21
-1.0129427266
 31
0.0
  0
LINE
  5
28B
330
1F
100
AcDbEntity
  8
0
  6
Continuous
 62
     7
370
    15
100
AcDbLine
 10
2.2351676435
 20
-1.2291518111
 30
0.0
 11
1.8606419434
 21
-1.0129427266
 31
0.0
  0
LINE
  5
28C
330
1F
100
AcDbEntity
  8
0
  6
Continuous
 62
     7
370
    15
100
AcDbLine
 10
2.3235559911
 20
-1.1781263041
 30
0.0
 11
2.2351676435
 21
-1.2291518111
 31
0.0
  0
LINE
  5
28D
330
1F
100
AcDbEntity
  8
0
  6
Continuous
 62
     7
370
    15
100
AcDbLine
 10
2.3821434513
 20
-1.2119481249
 30
0.0
 11
2.3235559911
 21
-1.1781263041
 31
0.0
  0
LINE
  5
28E
330
1F
100
AcDbEntity
  8
0
  6
Continuous
 62
     7
370
    15
100
AcDbLine
 10
2.4705317989
 20
-1.1609226179
 30
0.0
 11
2.3821434513
 21
-1.2119481249
 31
0.0
  0
LINE
  5
28F
330
1F
100
AcDbEntity
  8
0
  6
Continuous
 62
     7
370
    15
100
AcDbLine
 10
3.193417779
 20
-1.5782358115
 30
0.0
 11
2.4705317989
 21
-1.1609226179
 31
0.0
  0
LINE
  5
290
330
1F
100
AcDbEntity
  8
0
  6
Continuous
 62
     7
370
    15
100
AcDbLine
 10
3.193417779
 20
-1.5782358115
 30
0.0
 11
3.0166410837
 21
-1.6802868254
 31
0.0
  0
LINE
  5
291
330
1F
100
AcDbEntity
  8
0
  6
Continuous
 62
     7
370
    15
100
AcDbLine
 10
3.2429152537
 20
-1.8109121233
 30
0.0
 11
3.0166410837
 21
-1.6802868254
 31
0.0
  0
LINE
  5
292
330
1F
100
AcDbEntity
  8
0
  6
Continuous
 62
     7
370
    15
100
AcDbLine
 10
3.5080802966
 20
-1.6578356024
 30
0.0
 11
3.2429152537
 21
-1.8109121233
 31
0.0
  0
LINE
  5
293
330
1F
100
AcDbEntity
  8
0
  6
Continuous
 62
     7
370
    15
100
AcDbLine
 10
3.7679087727
 20
-1.8078313889
 30
0.0
 11
3.5080802966
 21
-1.6578356024
 31
0.0
  0
LINE
  5
294
330
1F
100
AcDbEntity
  8
0
  6
Continuous
 62
     7
370
    15
100
AcDbLine
 10
3.7781618211
 20
-1.8019124301
 30
0.0
 11
3.7679087727
 21
-1.8078313889
 31
0.0
  0
LINE
  5
295
330
1F
100
AcDbEntity
  8
0
  6
Continuous
 62
     7
370
    15
100
AcDbLine
 10
3.8488724992
 20
-1.8427328357
 30
0.0
 11
3.7781618211
 21
-1.8019124301
 31
0.0
  0
LINE
  5
296
330
1F
100
AcDbEntity
  8
0
  6
Continuous
 62
     7
370
    15
100
AcDbLine
 10
4.7295739952
 20
-1.334314684
 30
0.0
 11
3.8488724992
 21
-1.8427328357
 31
0.0
  0
LINE
  5
297
330
1F
100
AcDbEntity
  8
0
  6
Continuous
 62
     7
370
    15
100
AcDbLine
 10
4.7295739952
 20
-1.334314684
 30
0.0
 11
4.658863317
 21
-1.2934942784
 31
0.0
  0
LINE
  5
298
330
1F
100
AcDbEntity
  8
0
  6
Continuous
 62
     7
370
    15
100
AcDbLine
 10
4.9558481651
 20
-1.122048575
 30
0.0
 11
4.658863317
 21
-1.2934942784
 31
0.0
  0
LINE
  5
299
330
1F
100
AcDbEntity
  8
0
  6
Continuous
 62
     7
370
    15
100
AcDbLine
 10
4.9558481651
 20
-1.122048575
 30
0.0
 11
4.5105334775
 21
-0.8649738778
 31
0.0
  0
LINE
  5
29A
330
1F
100
AcDbEntity
  8
0
  6
Continuous
 62
     7
370
    15
100
AcDbLine
 10
4.5105334775
 20
-0.8649738778
 30
0.0
 11
4.8075183256
 21
-0.6935281743
 31
0.0
  0
LINE
  5
29B
330
1F
100
AcDbEntity
  8
0
  6
Continuous
 62
     7
370
    15
100
AcDbLine
 10
4.4186095959
 20
-0.4690159435
 30
0.0
 11
4.8075183256
 21
-0.6935281743
 31
0.0
  0
LINE
  5
29C
330
1F
100
AcDbEntity
  8
0
  6
Continuous
 62
     7
370
    15
100
AcDbLine
 10
2.1350082461
 20
-1.7873109421
 30
0.0
 11
2.2972892524
 21
-1.6936281113
 31
0.0
  0
LINE
  5
29D
330
1F
100
AcDbEntity
  8
0
  6
Continuous
 62
     7
370
    15
100
AcDbLine
 10
0.8268607009
 20
-1.0321334387
 30
0.0
 11
2.1350082461
 21
-1.7873109421
 31
0.0
  0
LINE
  5
29E
330
1F
100
AcDbEntity
  8
0
  6
Continuous
 62
     7
370
    15
100
AcDbLine
 10
0.8268607009
 20
-1.0321334387
 30
0.0
 11
0.9891417072
 21
-0.9384506078
 31
0.0
  0
LINE
  5
29F
330
1F
100
AcDbEntity
  8
0
  6
Continuous
 62
     7
370
    15
100
AcDbLine
 10
0.6002329775
 20
-0.7139383771
 30
0.0
 11
0.9891417072
 21
-0.9384506078
 31
0.0
  0
LINE
  5
2A0
330
1F
100
AcDbEntity
  8
0
  6
Continuous
 62
     7
370
    15
100
AcDbLine
 10
0.6002329775
 20
-0.7139383771
 30
0.0
 11
0.4379519713
 21
-0.8076212079
 31
0.0
  0
LINE
  5
2A1
330
1F
100
AcDbEntity
  8
0
  6
Continuous
 62
     7
370
    15
100
AcDbLine
 10
0.3778478949
 20
-0.7729238632
 30
0.0
 11
0.4379519713
 21
-0.8076212079
 31
0.0
  0
LINE
  5
2A2
330
1F
100
AcDbEntity
  8
0
  6
Continuous
 62
     7
370
    15
100
AcDbLine
 10
0.3778478949
 20
-0.7729238632
 30
0.0
 11
0.243144053
 21
-0.8506867358
 31
0.0
  0
LINE
  5
2A3
330
1F
100
AcDbEntity
  8
0
  6
Continuous
 62
     7
370
    15
100
AcDbLine
 10
0.243144053
 20
-0.8506867358
 30
0.0
 11
-0.1353206594
 21
-0.6322037079
 31
0.0
  0
LINE
  5
2A4
330
1F
100
AcDbEntity
  8
0
  6
Continuous
 62
     7
370
    15
100
AcDbLine
 10
-0.1353206594
 20
-0.6322037079
 30
0.0
 11
-0.4323055075
 21
-0.8036494113
 31
0.0
  0
LINE
  5
2A5
330
1F
100
AcDbEntity
  8
0
  6
Continuous
 62
     7
370
    15
100
AcDbLine
 10
-0.4323055075
 20
-0.8036494113
 30
0.0
 11
-0.5030161856
 21
-0.7628290058
 31
0.0
  0
LINE
  5
2A6
330
1F
100
AcDbEntity
  8
0
  6
Continuous
 62
     7
370
    15
100
AcDbLine
 10
-1.3837176816
 20
-1.2712471574
 30
0.0
 11
-0.5030161856
 21
-0.7628290058
 31
0.0
  0
LINE
  5
2A7
330
1F
100
AcDbEntity
  8
0
  6
Continuous
 62
     7
370
    15
100
AcDbLine
 10
-1.3130070035
 20
-1.312067563
 30
0.0
 11
-1.3837176816
 21
-1.2712471574
 31
0.0
  0
LINE
  5
2A8
330
1F
100
AcDbEntity
  8
0
  6
Continuous
 62
     7
370
    15
100
AcDbLine
 10
-1.3130070035
 20
-1.312067563
 30
0.0
 11
-1.3232600518
 21
-1.3179865218
 31
0.0
  0
LINE
  5
2A9
330
1F
100
AcDbEntity
  8
0
  6
Continuous
 62
     7
370
    15
100
AcDbLine
 10
-1.0032609674
 20
-1.5027180611
 30
0.0
 11
-1.3232600518
 21
-1.3179865218
 31
0.0
  0
LINE
  5
2AA
330
1F
100
AcDbEntity
  8
0
  6
Continuous
 62
     7
370
    15
100
AcDbLine
 10
-1.0032609674
 20
-1.5027180611
 30
0.0
 11
-1.2684260103
 21
-1.6557945821
 31
0.0
  0
LINE
  5
2AB
330
1F
100
AcDbEntity
  8
0
  6
Continuous
 62
     7
370
    15
100
AcDbLine
 10
-1.0421518403
 20
-1.78641988
 30
0.0
 11
-1.2684260103
 21
-1.6557945821
 31
0.0
  0
LINE
  5
2AC
330
1F
100
AcDbEntity
  8
0
  6
Continuous
 62
     7
370
    15
100
AcDbLine
 10
-1.0421518403
 20
-1.78641988
 30
0.0
 11
-0.865375145
 21
-1.684368866
 31
0.0
  0
LINE
  5
2AD
330
1F
100
AcDbEntity
  8
0
  6
Continuous
 62
     7
370
    15
100
AcDbLine
 10
-0.1424891649
 20
-2.1016820595
 30
0.0
 11
-0.865375145
 21
-1.684368866
 31
0.0
  0
LINE
  5
2AE
330
1F
100
AcDbEntity
  8
0
  6
Continuous
 62
     7
370
    15
100
AcDbLine
 10
-0.1424891649
 20
-2.1016820595
 30
0.0
 11
-0.2308775126
 21
-2.1527075665
 31
0.0
  0
LINE
  5
2AF
330
1F
100
AcDbEntity
  8
0
  6
Continuous
 62
     7
370
    15
100
AcDbLine
 10
-0.1722900525
 20
-2.1865293873
 30
0.0
 11
-0.2308775126
 21
-2.1527075665
 31
0.0
  0
LINE
  5
2B0
330
1F
100
AcDbEntity
  8
0
  6
Continuous
 62
     7
370
    15
100
AcDbLine
 10
-0.1722900525
 20
-2.1865293873
 30
0.0
 11
-0.2606784001
 21
-2.2375548943
 31
0.0
  0
LINE
  5
2B1
330
1F
100
AcDbEntity
  8
0
  6
Continuous
 62
     7
370
    15
100
AcDbLine
 10
0.1138472999
 20
-2.4537639788
 30
0.0
 11
-0.2606784001
 21
-2.2375548943
 31
0.0
  0
LINE
  5
2B2
330
1F
100
AcDbEntity
  8
0
  6
Continuous
 62
     7
370
    15
100
AcDbLine
 10
0.2022356476
 20
-2.4027384718
 30
0.0
 11
0.1138472999
 21
-2.4537639788
 31
0.0
  0
LINE
  5
2B3
330
1F
100
AcDbEntity
  8
0
  6
Continuous
 62
     7
370
    15
100
AcDbLine
 10
0.2608231077
 20
-2.4365602926
 30
0.0
 11
0.2022356476
 21
-2.4027384718
 31
0.0
  0
LINE
  5
2B4
330
1F
100
AcDbEntity
  8
0
  6
Continuous
 62
     7
370
    15
100
AcDbLine
 10
0.3492114554
 20
-2.3855347857
 30
0.0
 11
0.2608231077
 21
-2.4365602926
 31
0.0
  0
LINE
  5
2B5
330
1F
100
AcDbEntity
  8
0
  6
Continuous
 62
     7
370
    15
100
AcDbLine
 10
1.0720974354
 20
-2.8028479792
 30
0.0
 11
0.3492114554
 21
-2.3855347857
 31
0.0
  0
LINE
  5
2B6
330
1F
100
AcDbEntity
  8
0
  6
Continuous
 62
     7
370
    15
100
AcDbLine
 10
1.0720974354
 20
-2.8028479792
 30
0.0
 11
0.8953207401
 21
-2.9048989932
 31
0.0
  0
LINE
  5
2B7
330
1F
100
AcDbEntity
  8
0
  6
Continuous
 62
     7
370
    15
100
AcDbLine
 10
1.1215949101
 20
-3.0355242911
 30
0.0
 11
0.8953207401
 21
-2.9048989932
 31
0.0
  0
LINE
  5
2B8
330
1F
100
AcDbEntity
  8
0
  6
Continuous
 62
     7
370
    15
100
AcDbLine
 10
1.3867599531
 20
-2.8824477701
 30
0.0
 11
1.1215949101
 21
-3.0355242911
 31
0.0
  0
LINE
  5
2B9
330
1F
100
AcDbEntity
  8
0
  6
Continuous
 62
     7
370
    15
100
AcDbLine
 10
1.6465884292
 20
-3.0324435566
 30
0.0
 11
1.3867599531
 21
-2.8824477701
 31
0.0
  0
LINE
  5
2BA
330
1F
100
AcDbEntity
  8
0
  6
Continuous
 62
     7
370
    15
100
AcDbLine
 10
1.6568414775
 20
-3.0265245978
 30
0.0
 11
1.6465884292
 21
-3.0324435566
 31
0.0
  0
LINE
  5
2BB
330
1F
100
AcDbEntity
  8
0
  6
Continuous
 62
     7
370
    15
100
AcDbLine
 10
1.7275521556
 20
-3.0673450034
 30
0.0
 11
1.6568414775
 21
-3.0265245978
 31
0.0
  0
LINE
  5
2BC
330
1F
100
AcDbEntity
  8
0
  6
Continuous
 62
     7
370
    15
100
AcDbLine
 10
2.6082536516
 20
-2.5589268518
 30
0.0
 11
1.7275521556
 21
-3.0673450034
 31
0.0
  0
LINE
  5
2BD
330
1F
100
AcDbEntity
  8
0
  6
Continuous
 62
     7
370
    15
100
AcDbLine
 10
2.6082536516
 20
-2.5589268518
 30
0.0
 11
2.5375429735
 21
-2.5181064462
 31
0.0
  0
LINE
  5
2BE
330
1F
100
AcDbEntity
  8
0
  6
Continuous
 62
     7
370
    15
100
AcDbLine
 10
2.8345278216
 20
-2.3466607427
 30
0.0
 11
2.5375429735
 21
-2.5181064462
 31
0.0
  0
LINE
  5
2BF
330
1F
100
AcDbEntity
  8
0
  6
Continuous
 62
     7
370
    15
100
AcDbLine
 10
2.8345278216
 20
-2.3466607427
 30
0.0
 11
2.3892131339
 21
-2.0895860455
 31
0.0
  0
LINE
  5
2C0
330
1F
100
AcDbEntity
  8
0
  6
Continuous
 62
     7
370
    15
100
AcDbLine
 10
2.3892131339
 20
-2.0895860455
 30
0.0
 11
2.686197982
 21
-1.918140342
 31
0.0
  0
LINE
  5
2C1
330
1F
100
AcDbEntity
  8
0
  6
Continuous
 62
     7
370
    15
100
AcDbLine
 10
2.2972892524
 20
-1.6936281113
 30
0.0
 11
2.686197982
 21
-1.918140342
 31
0.0
  0
LINE
  5
2C2
330
1F
100
AcDbEntity
  8
0
  6
Continuous
 62
     7
370
    15
100
AcDbLine
 10
0.7915053618
 20
1.4375010996
 30
0.0
 11
0.9537863681
 21
1.5311839304
 31
0.0
  0
LINE
  5
2C3
330
1F
100
AcDbEntity
  8
0
  6
Continuous
 62
     7
370
    15
100
AcDbLine
 10
-0.5166421833
 20
2.192678603
 30
0.0
 11
0.7915053618
 21
1.4375010996
 31
0.0
  0
LINE
  5
2C4
330
1F
100
AcDbEntity
  8
0
  6
Continuous
 62
     7
370
    15
100
AcDbLine
 10
-0.5166421833
 20
2.192678603
 30
0.0
 11
-0.3543611771
 21
2.2863614339
 31
0.0
  0
LINE
  5
2C5
330
1F
100
AcDbEntity
  8
0
  6
Continuous
 62
     7
370
    15
100
AcDbLine
 10
-0.7432699067
 20
2.5108736646
 30
0.0
 11
-0.3543611771
 21
2.2863614339
 31
0.0
  0
LINE
  5
2C6
330
1F
100
AcDbEntity
  8
0
  6
Continuous
 62
     7
370
    15
100
AcDbLine
 10
-0.7432699067
 20
2.5108736646
 30
0.0
 11
-0.905550913
 21
2.4171908338
 31
0.0
  0
LINE
  5
2C7
330
1F
100
AcDbEntity
  8
0
  6
Continuous
 62
     7
370
    15
100
AcDbLine
 10
-0.9656549894
 20
2.4518881785
 30
0.0
 11
-0.905550913
 21
2.4171908338
 31
0.0
  0
LINE
  5
2C8
330
1F
100
AcDbEntity
  8
0
  6
Continuous
 62
     7
370
    15
100
AcDbLine
 10
-0.9656549894
 20
2.4518881785
 30
0.0
 11
-1.1003588312
 21
2.3741253059
 31
0.0
  0
LINE
  5
2C9
330
1F
100
AcDbEntity
  8
0
  6
Continuous
 62
     7
370
    15
100
AcDbLine
 10
-1.1003588312
 20
2.3741253059
 30
0.0
 11
-1.4788235437
 21
2.5926083338
 31
0.0
  0
LINE
  5
2CA
330
1F
100
AcDbEntity
  8
0
  6
Continuous
 62
     7
370
    15
100
AcDbLine
 10
-1.4788235437
 20
2.5926083338
 30
0.0
 11
-1.7758083918
 21
2.4211626304
 31
0.0
  0
LINE
  5
2CB
330
1F
100
AcDbEntity
  8
0
  6
Continuous
 62
     7
370
    15
100
AcDbLine
 10
-1.7758083918
 20
2.4211626304
 30
0.0
 11
-1.8465190699
 21
2.4619830359
 31
0.0
  0
LINE
  5
2CC
330
1F
100
AcDbEntity
  8
0
  6
Continuous
 62
     7
370
    15
100
AcDbLine
 10
-2.7272205658
 20
1.9535648843
 30
0.0
 11
-1.8465190699
 21
2.4619830359
 31
0.0
  0
LINE
  5
2CD
330
1F
100
AcDbEntity
  8
0
  6
Continuous
 62
     7
370
    15
100
AcDbLine
 10
-2.6565098877
 20
1.9127444787
 30
0.0
 11
-2.7272205658
 21
1.9535648843
 31
0.0
  0
LINE
  5
2CE
330
1F
100
AcDbEntity
  8
0
  6
Continuous
 62
     7
370
    15
100
AcDbLine
 10
-2.6565098877
 20
1.9127444787
 30
0.0
 11
-2.666762936
 21
1.9068255199
 31
0.0
  0
LINE
  5
2CF
330
1F
100
AcDbEntity
  8
0
  6
Continuous
 62
     7
370
    15
100
AcDbLine
 10
-2.3467638516
 20
1.7220939806
 30
0.0
 11
-2.666762936
 21
1.9068255199
 31
0.0
  0
LINE
  5
2D0
330
1F
100
AcDbEntity
  8
0
  6
Continuous
 62
     7
370
    15
100
AcDbLine
 10
-2.3467638516
 20
1.7220939806
 30
0.0
 11
-2.6119288946
 21
1.5690174596
 31
0.0
  0
LINE
  5
2D1
330
1F
100
AcDbEntity
  8
0
  6
Continuous
 62
     7
370
    15
100
AcDbLine
 10
-2.3856547246
 20
1.4383921617
 30
0.0
 11
-2.6119288946
 21
1.5690174596
 31
0.0
  0
LINE
  5
2D2
330
1F
100
AcDbEntity
  8
0
  6
Continuous
 62
     7
370
    15
100
AcDbLine
 10
-2.3856547246
 20
1.4383921617
 30
0.0
 11
-2.2088780293
 21
1.5404431757
 31
0.0
  0
LINE
  5
2D3
330
1F
100
AcDbEntity
  8
0
  6
Continuous
 62
     7
370
    15
100
AcDbLine
 10
-1.4859920492
 20
1.1231299822
 30
0.0
 11
-2.2088780293
 21
1.5404431757
 31
0.0
  0
LINE
  5
2D4
330
1F
100
AcDbEntity
  8
0
  6
Continuous
 62
     7
370
    15
100
AcDbLine
 10
-1.4859920492
 20
1.1231299822
 30
0.0
 11
-1.5743803968
 21
1.0721044752
 31
0.0
  0
LINE
  5
2D5
330
1F
100
AcDbEntity
  8
0
  6
Continuous
 62
     7
370
    15
100
AcDbLine
 10
-1.5157929367
 20
1.0382826544
 30
0.0
 11
-1.5743803968
 21
1.0721044752
 31
0.0
  0
LINE
  5
2D6
330
1F
100
AcDbEntity
  8
0
  6
Continuous
 62
     7
370
    15
100
AcDbLine
 10
-1.5157929367
 20
1.0382826544
 30
0.0
 11
-1.6041812844
 21
0.9872571474
 31
0.0
  0
LINE
  5
2D7
330
1F
100
AcDbEntity
  8
0
  6
Continuous
 62
     7
370
    15
100
AcDbLine
 10
-1.2296555843
 20
0.7710480629
 30
0.0
 11
-1.6041812844
 21
0.9872571474
 31
0.0
  0
LINE
  5
2D8
330
1F
100
AcDbEntity
  8
0
  6
Continuous
 62
     7
370
    15
100
AcDbLine
 10
-1.1412672367
 20
0.8220735699
 30
0.0
 11
-1.2296555843
 21
0.7710480629
 31
0.0
  0
LINE
  5
2D9
330
1F
100
AcDbEntity
  8
0
  6
Continuous
 62
     7
370
    15
100
AcDbLine
 10
-1.0826797765
 20
0.7882517491
 30
0.0
 11
-1.1412672367
 21
0.8220735699
 31
0.0
  0
LINE
  5
2DA
330
1F
100
AcDbEntity
  8
0
  6
Continuous
 62
     7
370
    15
100
AcDbLine
 10
-0.9942914289
 20
0.839277256
 30
0.0
 11
-1.0826797765
 21
0.7882517491
 31
0.0
  0
LINE
  5
2DB
330
1F
100
AcDbEntity
  8
0
  6
Continuous
 62
     7
370
    15
100
AcDbLine
 10
-0.2714054488
 20
0.4219640625
 30
0.0
 11
-0.9942914289
 21
0.839277256
 31
0.0
  0
LINE
  5
2DC
330
1F
100
AcDbEntity
  8
0
  6
Continuous
 62
     7
370
    15
100
AcDbLine
 10
-0.2714054488
 20
0.4219640625
 30
0.0
 11
-0.4481821441
 21
0.3199130485
 31
0.0
  0
LINE
  5
2DD
330
1F
100
AcDbEntity
  8
0
  6
Continuous
 62
     7
370
    15
100
AcDbLine
 10
-0.2219079741
 20
0.1892877506
 30
0.0
 11
-0.4481821441
 21
0.3199130485
 31
0.0
  0
LINE
  5
2DE
330
1F
100
AcDbEntity
  8
0
  6
Continuous
 62
     7
370
    15
100
AcDbLine
 10
0.0432570688
 20
0.3423642716
 30
0.0
 11
-0.2219079741
 21
0.1892877506
 31
0.0
  0
LINE
  5
2DF
330
1F
100
AcDbEntity
  8
0
  6
Continuous
 62
     7
370
    15
100
AcDbLine
 10
0.3030855449
 20
0.1923684851
 30
0.0
 11
0.0432570688
 21
0.3423642716
 31
0.0
  0
LINE
  5
2E0
330
1F
100
AcDbEntity
  8
0
  6
Continuous
 62
     7
370
    15
100
AcDbLine
 10
0.3133385933
 20
0.1982874439
 30
0.0
 11
0.3030855449
 21
0.1923684851
 31
0.0
  0
LINE
  5
2E1
330
1F
100
AcDbEntity
  8
0
  6
Continuous
 62
     7
370
    15
100
AcDbLine
 10
0.3840492714
 20
0.1574670383
 30
0.0
 11
0.3133385933
 21
0.1982874439
 31
0.0
  0
LINE
  5
2E2
330
1F
100
AcDbEntity
  8
0
  6
Continuous
 62
     7
370
    15
100
AcDbLine
 10
1.2647507673
 20
0.6658851899
 30
0.0
 11
0.3840492714
 21
0.1574670383
 31
0.0
  0
LINE
  5
2E3
330
1F
100
AcDbEntity
  8
0
  6
Continuous
 62
     7
370
    15
100
AcDbLine
 10
1.2647507673
 20
0.6658851899
 30
0.0
 11
1.1940400892
 21
0.7067055955
 31
0.0
  0
LINE
  5
2E4
330
1F
100
AcDbEntity
  8
0
  6
Continuous
 62
     7
370
    15
100
AcDbLine
 10
1.4910249373
 20
0.878151299
 30
0.0
 11
1.1940400892
 21
0.7067055955
 31
0.0
  0
LINE
  5
2E5
330
1F
100
AcDbEntity
  8
0
  6
Continuous
 62
     7
370
    15
100
AcDbLine
 10
1.4910249373
 20
0.878151299
 30
0.0
 11
1.0457102497
 21
1.1352259962
 31
0.0
  0
LINE
  5
2E6
330
1F
100
AcDbEntity
  8
0
  6
Continuous
 62
     7
370
    15
100
AcDbLine
 10
1.0457102497
 20
1.1352259962
 30
0.0
 11
1.3426950978
 21
1.3066716997
 31
0.0
  0
LINE
  5
2E7
330
1F
100
AcDbEntity
  8
0
  6
Continuous
 62
     7
370
    15
100
AcDbLine
 10
0.9537863681
 20
1.5311839304
 30
0.0
 11
1.3426950978
 21
1.3066716997
 31
0.0
  0
LINE
  5
2E8
330
1F
100
AcDbEntity
  8
0
  6
Continuous
 62
     7
370
    15
100
AcDbLine
 10
-1.3298149817
 20
0.2128889319
 30
0.0
 11
-1.1675339754
 21
0.3065717627
 31
0.0
  0
LINE
  5
2E9
330
1F
100
AcDbEntity
  8
0
  6
Continuous
 62
     7
370
    15
100
AcDbLine
 10
-2.6379625269
 20
0.9680664353
 30
0.0
 11
-1.3298149817
 21
0.2128889319
 31
0.0
  0
LINE
  5
2EA
330
1F
100
AcDbEntity
  8
0
  6
Continuous
 62
     7
370
    15
100
AcDbLine
 10
-2.6379625269
 20
0.9680664353
 30
0.0
 11
-2.4756815206
 21
1.0617492661
 31
0.0
  0
LINE
  5
2EB
330
1F
100
AcDbEntity
  8
0
  6
Continuous
 62
     7
370
    15
100
AcDbLine
 10
-2.8645902503
 20
1.2862614969
 30
0.0
 11
-2.4756815206
 21
1.0617492661
 31
0.0
  0
LINE
  5
2EC
330
1F
100
AcDbEntity
  8
0
  6
Continuous
 62
     7
370
    15
100
AcDbLine
 10
-2.8645902503
 20
1.2862614969
 30
0.0
 11
-3.0268712566
 21
1.1925786661
 31
0.0
  0
LINE
  5
2ED
330
1F
100
AcDbEntity
  8
0
  6
Continuous
 62
     7
370
    15
100
AcDbLine
 10
-3.086975333
 20
1.2272760108
 30
0.0
 11
-3.0268712566
 21
1.1925786661
 31
0.0
  0
LINE
  5
2EE
330
1F
100
AcDbEntity
  8
0
  6
Continuous
 62
     7
370
    15
100
AcDbLine
 10
-3.086975333
 20
1.2272760108
 30
0.0
 11
-3.2216791748
 21
1.1495131382
 31
0.0
  0
LINE
  5
2EF
330
1F
100
AcDbEntity
  8
0
  6
Continuous
 62
     7
370
    15
100
AcDbLine
 10
-3.2216791748
 20
1.1495131382
 30
0.0
 11
-3.6001438872
 21
1.3679961661
 31
0.0
  0
LINE
  5
2F0
330
1F
100
AcDbEntity
  8
0
  6
Continuous
 62
     7
370
    15
100
AcDbLine
 10
-3.6001438872
 20
1.3679961661
 30
0.0
 11
-3.8971287353
 21
1.1965504626
 31
0.0
  0
LINE
  5
2F1
330
1F
100
AcDbEntity
  8
0
  6
Continuous
 62
     7
370
    15
100
AcDbLine
 10
-3.8971287353
 20
1.1965504626
 30
0.0
 11
-3.9678394134
 21
1.2373708682
 31
0.0
  0
LINE
  5
2F2
330
1F
100
AcDbEntity
  8
0
  6
Continuous
 62
     7
370
    15
100
AcDbLine
 10
-4.8485409094
 20
0.7289527166
 30
0.0
 11
-3.9678394134
 21
1.2373708682
 31
0.0
  0
LINE
  5
2F3
330
1F
100
AcDbEntity
  8
0
  6
Continuous
 62
     7
370
    15
100
AcDbLine
 10
-4.7778302313
 20
0.688132311
 30
0.0
 11
-4.8485409094
 21
0.7289527166
 31
0.0
  0
LINE
  5
2F4
330
1F
100
AcDbEntity
  8
0
  6
Continuous
 62
     7
370
    15
100
AcDbLine
 10
-4.7778302313
 20
0.688132311
 30
0.0
 11
-4.7880832796
 21
0.6822133522
 31
0.0
  0
LINE
  5
2F5
330
1F
100
AcDbEntity
  8
0
  6
Continuous
 62
     7
370
    15
100
AcDbLine
 10
-4.4680841952
 20
0.4974818128
 30
0.0
 11
-4.7880832796
 21
0.6822133522
 31
0.0
  0
LINE
  5
2F6
330
1F
100
AcDbEntity
  8
0
  6
Continuous
 62
     7
370
    15
100
AcDbLine
 10
-4.4680841952
 20
0.4974818128
 30
0.0
 11
-4.7332492381
 21
0.3444052919
 31
0.0
  0
LINE
  5
2F7
330
1F
100
AcDbEntity
  8
0
  6
Continuous
 62
     7
370
    15
100
AcDbLine
 10
-4.5069750681
 20
0.213779994
 30
0.0
 11
-4.7332492381
 21
0.3444052919
 31
0.0
  0
LINE
  5
2F8
330
1F
100
AcDbEntity
  8
0
  6
Continuous
 62
     7
370
    15
100
AcDbLine
 10
-4.5069750681
 20
0.213779994
 30
0.0
 11
-4.3301983728
 21
0.315831008
 31
0.0
  0
LINE
  5
2F9
330
1F
100
AcDbEntity
  8
0
  6
Continuous
 62
     7
370
    15
100
AcDbLine
 10
-3.6073123928
 20
-0.1014821856
 30
0.0
 11
-4.3301983728
 21
0.315831008
 31
0.0
  0
LINE
  5
2FA
330
1F
100
AcDbEntity
  8
0
  6
Continuous
 62
     7
370
    15
100
AcDbLine
 10
-3.6073123928
 20
-0.1014821856
 30
0.0
 11
-3.6957007404
 21
-0.1525076926
 31
0.0
  0
LINE
  5
2FB
330
1F
100
AcDbEntity
  8
0
  6
Continuous
 62
     7
370
    15
100
AcDbLine
 10
-3.6371132803
 20
-0.1863295134
 30
0.0
 11
-3.6957007404
 21
-0.1525076926
 31
0.0
  0
LINE
  5
2FC
330
1F
100
AcDbEntity
  8
0
  6
Continuous
 62
     7
370
    15
100
AcDbLine
 10
-3.6371132803
 20
-0.1863295134
 30
0.0
 11
-3.7255016279
 21
-0.2373550204
 31
0.0
  0
LINE
  5
2FD
330
1F
100
AcDbEntity
  8
0
  6
Continuous
 62
     7
370
    15
100
AcDbLine
 10
-3.3509759279
 20
-0.4535641049
 30
0.0
 11
-3.7255016279
 21
-0.2373550204
 31
0.0
  0
LINE
  5
2FE
330
1F
100
AcDbEntity
  8
0
  6
Continuous
 62
     7
370
    15
100
AcDbLine
 10
-3.2625875802
 20
-0.4025385979
 30
0.0
 11
-3.3509759279
 21
-0.4535641049
 31
0.0
  0
LINE
  5
2FF
330
1F
100
AcDbEntity
  8
0
  6
Continuous
 62
     7
370
    15
100
AcDbLine
 10
-3.2040001201
 20
-0.4363604187
 30
0.0
 11
-3.2625875802
 21
-0.4025385979
 31
0.0
  0
LINE
  5
300
330
1F
100
AcDbEntity
  8
0
  6
Continuous
 62
     7
370
    15
100
AcDbLine
 10
-3.1156117725
 20
-0.3853349117
 30
0.0
 11
-3.2040001201
 21
-0.4363604187
 31
0.0
  0
LINE
  5
301
330
1F
100
AcDbEntity
  8
0
  6
Continuous
 62
     7
370
    15
100
AcDbLine
 10
-2.3927257924
 20
-0.8026481052
 30
0.0
 11
-3.1156117725
 21
-0.3853349117
 31
0.0
  0
LINE
  5
302
330
1F
100
AcDbEntity
  8
0
  6
Continuous
 62
     7
370
    15
100
AcDbLine
 10
-2.3927257924
 20
-0.8026481052
 30
0.0
 11
-2.5695024877
 21
-0.9046991192
 31
0.0
  0
LINE
  5
303
330
1F
100
AcDbEntity
  8
0
  6
Continuous
 62
     7
370
    15
100
AcDbLine
 10
-2.3432283177
 20
-1.0353244171
 30
0.0
 11
-2.5695024877
 21
-0.9046991192
 31
0.0
  0
LINE
  5
304
330
1F
100
AcDbEntity
  8
0
  6
Continuous
 62
     7
370
    15
100
AcDbLine
 10
-2.0780632748
 20
-0.8822478961
 30
0.0
 11
-2.3432283177
 21
-1.0353244171
 31
0.0
  0
LINE
  5
305
330
1F
100
AcDbEntity
  8
0
  6
Continuous
 62
     7
370
    15
100
AcDbLine
 10
-1.8182347986
 20
-1.0322436827
 30
0.0
 11
-2.0780632748
 21
-0.8822478961
 31
0.0
  0
LINE
  5
306
330
1F
100
AcDbEntity
  8
0
  6
Continuous
 62
     7
370
    15
100
AcDbLine
 10
-1.8079817503
 20
-1.0263247238
 30
0.0
 11
-1.8182347986
 21
-1.0322436827
 31
0.0
  0
LINE
  5
307
330
1F
100
AcDbEntity
  8
0
  6
Continuous
 62
     7
370
    15
100
AcDbLine
 10
-1.7372710722
 20
-1.0671451294
 30
0.0
 11
-1.8079817503
 21
-1.0263247238
 31
0.0
  0
LINE
  5
308
330
1F
100
AcDbEntity
  8
0
  6
Continuous
 62
     7
370
    15
100
AcDbLine
 10
-0.8565695762
 20
-0.5587269778
 30
0.0
 11
-1.7372710722
 21
-1.0671451294
 31
0.0
  0
LINE
  5
309
330
1F
100
AcDbEntity
  8
0
  6
Continuous
 62
     7
370
    15
100
AcDbLine
 10
-0.8565695762
 20
-0.5587269778
 30
0.0
 11
-0.9272802543
 21
-0.5179065722
 31
0.0
  0
LINE
  5
30A
330
1F
100
AcDbEntity
  8
0
  6
Continuous
 62
     7
370
    15
100
AcDbLine
 10
-0.6302954062
 20
-0.3464608687
 30
0.0
 11
-0.9272802543
 21
-0.5179065722
 31
0.0
  0
LINE
  5
30B
330
1F
100
AcDbEntity
  8
0
  6
Continuous
 62
     7
370
    15
100
AcDbLine
 10
-0.6302954062
 20
-0.3464608687
 30
0.0
 11
-1.0756100939
 21
-0.0893861715
 31
0.0
  0
LINE
  5
30C
330
1F
100
AcDbEntity
  8
0
  6
Continuous
 62
     7
370
    15
100
AcDbLine
 10
-1.0756100939
 20
-0.0893861715
 30
0.0
 11
-0.7786252458
 21
0.082059532
 31
0.0
  0
LINE
  5
30D
330
1F
100
AcDbEntity
  8
0
  6
Continuous
 62
     7
370
    15
100
AcDbLine
 10
-1.1675339754
 20
0.3065717627
 30
0.0
 11
-0.7786252458
 21
0.082059532
 31
0.0
  0
LINE
  5
30E
330
1F
100
AcDbEntity
  8
0
  6
Continuous
 62
     7
370
    15
100
AcDbLine
 10
9.583862048
 20
-3.0227029054
 30
0.0
 11
9.583862048
 21
-0.1648100638
 31
0.0
  0
LINE
  5
30F
330
1F
100
AcDbEntity
  8
0
  6
Continuous
 62
     7
370
    15
100
AcDbLine
 10
9.583862048
 20
-3.0227029054
 30
0.0
 11
2.1592408456
 21
-7.3088454925
 31
0.0
  0
LINE
  5
310
330
1F
100
AcDbEntity
  8
0
  6
Continuous
 62
     7
370
    15
100
AcDbLine
 10
2.1592408456
 20
-7.3088454925
 30
0.0
 11
2.1592408456
 21
-4.4509526509
 31
0.0
  0
LINE
  5
311
330
1F
100
AcDbEntity
  8
0
  6
Continuous
 62
     7
370
    15
100
AcDbLine
 10
0.7450272832
 20
-6.0841669747
 30
0.0
 11
-5.8310657819
 21
-2.2878692548
 31
0.0
  0
LINE
  5
312
330
1F
100
AcDbEntity
  8
0
  6
Continuous
 62
     7
370
    15
100
AcDbLine
 10
-5.8310657819
 20
-2.2878692548
 30
0.0
 11
-5.8310657819
 21
-2.6961396607
 31
0.0
  0
LINE
  5
313
330
1F
100
AcDbEntity
  8
0
  6
Continuous
 62
     7
370
    15
100
AcDbLine
 10
-7.2452793442
 20
-1.8797315489
 30
0.0
 11
-5.8310657819
 21
-2.6961396607
 31
0.0
  0
LINE
  5
314
330
1F
100
AcDbEntity
  8
0
  6
Continuous
 62
     7
370
    15
100
AcDbLine
 10
-7.2452793442
 20
-1.8797315489
 30
0.0
 11
-7.2452793442
 21
0.9781612927
 31
0.0
  0
LINE
  5
315
330
1F
100
AcDbEntity
  8
0
  6
Continuous
 62
     7
370
    15
100
AcDbLine
 10
0.7450272832
 20
-6.4924373807
 30
0.0
 11
2.1592408456
 21
-7.3088454925
 31
0.0
  0
LINE
  5
316
330
1F
100
AcDbEntity
  8
0
  6
Continuous
 62
     7
370
    15
100
AcDbLine
 10
0.7450272832
 20
-6.0841669747
 30
0.0
 11
0.7450272832
 21
-6.4924373807
 31
0.0
  0
LINE
  5
317
330
1F
100
AcDbEntity
  8
0
  6
Continuous
 62
     7
370
    15
100
AcDbLine
 10
-1.3130070035
 20
-1.312067563
 30
0.0
 11
-1.3129716171
 21
-1.3239259087
 31
0.0
  0
LINE
  5
318
330
1F
100
AcDbEntity
  8
0
  6
Continuous
 62
     7
370
    15
100
AcDbLine
 10
1.0720974354
 20
-2.8028479792
 30
0.0
 11
1.0720974354
 21
-3.0069500072
 31
0.0
  0
LINE
  5
319
330
1F
100
AcDbEntity
  8
0
  6
Continuous
 62
     7
370
    15
100
AcDbLine
 10
2.5357735964
 20
-2.600768697
 30
0.0
 11
2.5375429735
 21
-2.5181064462
 31
0.0
  0
LINE
  5
31A
330
1F
100
AcDbEntity
  8
0
  6
Continuous
 62
     7
370
    15
100
AcDbLine
 10
2.3892131339
 20
-2.6853762511
 30
0.0
 11
2.3892131339
 21
-2.0895860455
 31
0.0
  0
LINE
  5
31B
330
1F
100
AcDbEntity
  8
0
  6
Continuous
 62
     7
370
    15
100
AcDbLine
 10
-0.1722900525
 20
-2.1865293873
 30
0.0
 11
-0.1722900525
 21
-2.2885804013
 31
0.0
  0
LINE
  5
31C
330
1F
100
AcDbEntity
  8
0
  6
Continuous
 62
     7
370
    15
100
AcDbLine
 10
-0.1424891649
 20
-2.1016820595
 30
0.0
 11
-0.1424891649
 21
-2.3057840875
 31
0.0
  0
LINE
  5
31D
330
1F
100
AcDbEntity
  8
0
  6
Continuous
 62
     7
370
    15
100
AcDbLine
 10
2.2972892524
 20
-2.7384427783
 30
0.0
 11
2.2972892524
 21
-1.6936281113
 31
0.0
  0
LINE
  5
31E
330
1F
100
AcDbEntity
  8
0
  6
Continuous
 62
     7
370
    15
100
AcDbLine
 10
2.1350082461
 20
-2.8321256092
 30
0.0
 11
2.1350082461
 21
-1.7873109421
 31
0.0
  0
LINE
  5
31F
330
1F
100
AcDbEntity
  8
0
  6
Continuous
 62
     7
370
    15
100
AcDbLine
 10
0.8083133401
 20
-0.0874553952
 30
0.0
 11
0.8083487264
 21
-0.099313741
 31
0.0
  0
LINE
  5
320
330
1F
100
AcDbEntity
  8
0
  6
Continuous
 62
     7
370
    15
100
AcDbLine
 10
0.9103791413
 20
-2.2030912244
 30
0.0
 11
0.9103791413
 21
-2.653949868
 31
0.0
  0
LINE
  5
321
330
1F
100
AcDbEntity
  8
0
  6
Continuous
 62
     7
370
    15
100
AcDbLine
 10
0.9103791413
 20
-2.2030912244
 30
0.0
 11
0.8268607009
 21
-2.154877055
 31
0.0
  0
LINE
  5
322
330
1F
100
AcDbEntity
  8
0
  6
Continuous
 62
     7
370
    15
100
AcDbLine
 10
0.8268607009
 20
-1.0321334387
 30
0.0
 11
0.8268607009
 21
-2.154877055
 31
0.0
  0
LINE
  5
323
330
1F
100
AcDbEntity
  8
0
  6
Continuous
 62
     7
370
    15
100
AcDbLine
 10
2.067512483
 20
-2.8710900838
 30
0.0
 11
1.8830957533
 21
-2.7646285718
 31
0.0
  0
LINE
  5
324
330
1F
100
AcDbEntity
  8
0
  6
Continuous
 62
     7
370
    15
100
AcDbLine
 10
3.193417779
 20
-1.5782358115
 30
0.0
 11
3.193417779
 21
-1.7823378394
 31
0.0
  0
LINE
  5
325
330
1F
100
AcDbEntity
  8
0
  6
Continuous
 62
     7
370
    15
100
AcDbLine
 10
-1.0032609674
 20
-1.5027180611
 30
0.0
 11
-1.0032609674
 21
-1.7639686569
 31
0.0
  0
LINE
  5
326
330
1F
100
AcDbEntity
  8
0
  6
Continuous
 62
     7
370
    15
100
AcDbLine
 10
4.65709394
 20
-1.3761565292
 30
0.0
 11
4.658863317
 21
-1.2934942784
 31
0.0
  0
LINE
  5
327
330
1F
100
AcDbEntity
  8
0
  6
Continuous
 62
     7
370
    15
100
AcDbLine
 10
0.6921568591
 20
-2.5835129531
 30
0.0
 11
0.6921568591
 21
-2.2326399277
 31
0.0
  0
LINE
  5
328
330
1F
100
AcDbEntity
  8
0
  6
Continuous
 62
     7
370
    15
100
AcDbLine
 10
0.7756752994
 20
-2.280854097
 30
0.0
 11
0.6921568591
 21
-2.2326399277
 31
0.0
  0
LINE
  5
329
330
1F
100
AcDbEntity
  8
0
  6
Continuous
 62
     7
370
    15
100
AcDbLine
 10
0.7756752994
 20
-2.6317271225
 30
0.0
 11
0.7756752994
 21
-2.280854097
 31
0.0
  0
LINE
  5
32A
330
1F
100
AcDbEntity
  8
0
  6
Continuous
 62
     7
370
    15
100
AcDbLine
 10
1.0785106377
 20
-3.01065227
 30
0.0
 11
1.0720974354
 21
-3.0055684397
 31
0.0
  0
LINE
  5
32B
330
1F
100
AcDbEntity
  8
0
  6
Continuous
 62
     7
370
    15
100
AcDbLine
 10
1.7483919115
 20
-2.8423914445
 30
0.0
 11
1.7483919115
 21
-3.0553144684
 31
0.0
  0
LINE
  5
32C
330
1F
100
AcDbEntity
  8
0
  6
Continuous
 62
     7
370
    15
100
AcDbLine
 10
1.9328086412
 20
-2.9488529564
 30
0.0
 11
1.7483919115
 21
-2.8423914445
 31
0.0
  0
LINE
  5
32D
330
1F
100
AcDbEntity
  8
0
  6
Continuous
 62
     7
370
    15
100
AcDbLine
 10
1.7483919115
 20
-2.8423914445
 30
0.0
 11
1.8830957533
 21
-2.7646285718
 31
0.0
  0
LINE
  5
32E
330
1F
100
AcDbEntity
  8
0
  6
Continuous
 62
     7
370
    15
100
AcDbLine
 10
4.5105334775
 20
-1.4607640833
 30
0.0
 11
4.5105334775
 21
-0.8649738778
 31
0.0
  0
LINE
  5
32F
330
1F
100
AcDbEntity
  8
0
  6
Continuous
 62
     7
370
    15
100
AcDbLine
 10
-4.7778302313
 20
0.688132311
 30
0.0
 11
-4.7777948449
 21
0.6762739653
 31
0.0
  0
LINE
  5
330
330
1F
100
AcDbEntity
  8
0
  6
Continuous
 62
     7
370
    15
100
AcDbLine
 10
1.9490302911
 20
-0.9619172196
 30
0.0
 11
1.9490302911
 21
-1.0639682336
 31
0.0
  0
LINE
  5
331
330
1F
100
AcDbEntity
  8
0
  6
Continuous
 62
     7
370
    15
100
AcDbLine
 10
0.6002329775
 20
-2.5304464259
 30
0.0
 11
0.6002329775
 21
-0.7139383771
 31
0.0
  0
LINE
  5
332
330
1F
100
AcDbEntity
  8
0
  6
Continuous
 62
     7
370
    15
100
AcDbLine
 10
0.9103791413
 20
-2.653949868
 30
0.0
 11
0.862274768
 21
-2.6817199316
 31
0.0
  0
LINE
  5
333
330
1F
100
AcDbEntity
  8
0
  6
Continuous
 62
     7
370
    15
100
AcDbLine
 10
1.9788311786
 20
-0.8770698918
 30
0.0
 11
1.9788311786
 21
-1.0811719198
 31
0.0
  0
LINE
  5
334
330
1F
100
AcDbEntity
  8
0
  6
Continuous
 62
     7
370
    15
100
AcDbLine
 10
-2.3927257924
 20
-0.8026481052
 30
0.0
 11
-2.3927257924
 21
-1.0067501332
 31
0.0
  0
LINE
  5
335
330
1F
100
AcDbEntity
  8
0
  6
Continuous
 62
     7
370
    15
100
AcDbLine
 10
0.243144053
 20
-0.8506867358
 30
0.0
 11
0.243144053
 21
-1.1931172191
 31
0.0
  0
LINE
  5
336
330
1F
100
AcDbEntity
  8
0
  6
Continuous
 62
     7
370
    15
100
AcDbLine
 10
0.243144053
 20
-1.1931172191
 30
0.0
 11
0.3032481294
 21
-1.3605912002
 31
0.0
  0
LINE
  5
337
330
1F
100
AcDbEntity
  8
0
  6
Continuous
 62
     7
370
    15
100
AcDbLine
 10
0.3032481294
 20
-2.1020793578
 30
0.0
 11
0.3032481294
 21
-1.3605912002
 31
0.0
  0
LINE
  5
338
330
1F
100
AcDbEntity
  8
0
  6
Continuous
 62
     7
370
    15
100
AcDbLine
 10
0.4379519713
 20
-1.2828283275
 30
0.0
 11
0.4379519713
 21
-0.8076212079
 31
0.0
  0
LINE
  5
339
330
1F
100
AcDbEntity
  8
0
  6
Continuous
 62
     7
370
    15
100
AcDbLine
 10
0.4379519713
 20
-1.2828283275
 30
0.0
 11
0.3032481294
 21
-1.3605912002
 31
0.0
  0
LINE
  5
33A
330
1F
100
AcDbEntity
  8
0
  6
Continuous
 62
     7
370
    15
100
AcDbLine
 10
0.3778478949
 20
-0.7729238632
 30
0.0
 11
0.3778478949
 21
-1.1153543464
 31
0.0
  0
LINE
  5
33B
330
1F
100
AcDbEntity
  8
0
  6
Continuous
 62
     7
370
    15
100
AcDbLine
 10
0.3778478949
 20
-1.1153543464
 30
0.0
 11
0.243144053
 21
-1.1931172191
 31
0.0
  0
LINE
  5
33C
330
1F
100
AcDbEntity
  8
0
  6
Continuous
 62
     7
370
    15
100
AcDbLine
 10
0.3778478949
 20
-1.1153543464
 30
0.0
 11
0.4379519713
 21
-1.2828283275
 31
0.0
  0
LINE
  5
33D
330
1F
100
AcDbEntity
  8
0
  6
Continuous
 62
     7
370
    15
100
AcDbLine
 10
4.4186095959
 20
-1.5138306106
 30
0.0
 11
4.4186095959
 21
-0.4690159435
 31
0.0
  0
LINE
  5
33E
330
1F
100
AcDbEntity
  8
0
  6
Continuous
 62
     7
370
    15
100
AcDbLine
 10
4.2563285897
 20
-1.6075134414
 30
0.0
 11
4.2563285897
 21
-0.5626987744
 31
0.0
  0
LINE
  5
33F
330
1F
100
AcDbEntity
  8
0
  6
Continuous
 62
     7
370
    15
100
AcDbLine
 10
0.7756752994
 20
-2.280854097
 30
0.0
 11
0.9103791413
 21
-2.2030912244
 31
0.0
  0
LINE
  5
340
330
1F
100
AcDbEntity
  8
0
  6
Continuous
 62
     7
370
    15
100
AcDbLine
 10
0.8268607009
 20
-2.154877055
 30
0.0
 11
0.6921568591
 21
-2.2326399277
 31
0.0
  0
LINE
  5
341
330
1F
100
AcDbEntity
  8
0
  6
Continuous
 62
     7
370
    15
100
AcDbLine
 10
2.9296336837
 20
1.1371567725
 30
0.0
 11
2.92966907
 21
1.1252984268
 31
0.0
  0
LINE
  5
342
330
1F
100
AcDbEntity
  8
0
  6
Continuous
 62
     7
370
    15
100
AcDbLine
 10
3.0316994848
 20
-0.9784790566
 30
0.0
 11
3.0316994848
 21
-1.4293377003
 31
0.0
  0
LINE
  5
343
330
1F
100
AcDbEntity
  8
0
  6
Continuous
 62
     7
370
    15
100
AcDbLine
 10
3.0316994848
 20
-0.9784790566
 30
0.0
 11
2.9481810445
 21
-0.9302648873
 31
0.0
  0
LINE
  5
344
330
1F
100
AcDbEntity
  8
0
  6
Continuous
 62
     7
370
    15
100
AcDbLine
 10
2.9481810445
 20
0.1924787291
 30
0.0
 11
2.9481810445
 21
-0.9302648873
 31
0.0
  0
LINE
  5
345
330
1F
100
AcDbEntity
  8
0
  6
Continuous
 62
     7
370
    15
100
AcDbLine
 10
4.1888328266
 20
-1.6464779161
 30
0.0
 11
4.0044160969
 21
-1.5400164041
 31
0.0
  0
LINE
  5
346
330
1F
100
AcDbEntity
  8
0
  6
Continuous
 62
     7
370
    15
100
AcDbLine
 10
-0.9290496314
 20
-0.600568823
 30
0.0
 11
-0.9272802543
 21
-0.5179065722
 31
0.0
  0
LINE
  5
347
330
1F
100
AcDbEntity
  8
0
  6
Continuous
 62
     7
370
    15
100
AcDbLine
 10
5.3147381225
 20
-0.3536236437
 30
0.0
 11
5.3147381225
 21
-0.5577256717
 31
0.0
  0
LINE
  5
348
330
1F
100
AcDbEntity
  8
0
  6
Continuous
 62
     7
370
    15
100
AcDbLine
 10
1.1180593762
 20
-0.2781058934
 30
0.0
 11
1.1180593762
 21
-0.5393564892
 31
0.0
  0
LINE
  5
349
330
1F
100
AcDbEntity
  8
0
  6
Continuous
 62
     7
370
    15
100
AcDbLine
 10
-1.0756100939
 20
-0.6851763771
 30
0.0
 11
-1.0756100939
 21
-0.0893861715
 31
0.0
  0
LINE
  5
34A
330
1F
100
AcDbEntity
  8
0
  6
Continuous
 62
     7
370
    15
100
AcDbLine
 10
-3.6371132803
 20
-0.1863295134
 30
0.0
 11
-3.6371132803
 21
-0.2883805273
 31
0.0
  0
LINE
  5
34B
330
1F
100
AcDbEntity
  8
0
  6
Continuous
 62
     7
370
    15
100
AcDbLine
 10
-3.6073123928
 20
-0.1014821856
 30
0.0
 11
-3.6073123928
 21
-0.3055842135
 31
0.0
  0
LINE
  5
34C
330
1F
100
AcDbEntity
  8
0
  6
Continuous
 62
     7
370
    15
100
AcDbLine
 10
6.7784142836
 20
-0.1515443615
 30
0.0
 11
6.7801836606
 21
-0.0688821107
 31
0.0
  0
LINE
  5
34D
330
1F
100
AcDbEntity
  8
0
  6
Continuous
 62
     7
370
    15
100
AcDbLine
 10
2.8134772026
 20
-1.3589007854
 30
0.0
 11
2.8134772026
 21
-1.0080277599
 31
0.0
  0
LINE
  5
34E
330
1F
100
AcDbEntity
  8
0
  6
Continuous
 62
     7
370
    15
100
AcDbLine
 10
2.896995643
 20
-1.0562419293
 30
0.0
 11
2.8134772026
 21
-1.0080277599
 31
0.0
  0
LINE
  5
34F
330
1F
100
AcDbEntity
  8
0
  6
Continuous
 62
     7
370
    15
100
AcDbLine
 10
2.896995643
 20
-1.4071149548
 30
0.0
 11
2.896995643
 21
-1.0562419293
 31
0.0
  0
LINE
  5
350
330
1F
100
AcDbEntity
  8
0
  6
Continuous
 62
     7
370
    15
100
AcDbLine
 10
3.1998309812
 20
-1.7860401023
 30
0.0
 11
3.193417779
 21
-1.780956272
 31
0.0
  0
LINE
  5
351
330
1F
100
AcDbEntity
  8
0
  6
Continuous
 62
     7
370
    15
100
AcDbLine
 10
3.8697122551
 20
-1.6177792768
 30
0.0
 11
3.8697122551
 21
-1.8307023007
 31
0.0
  0
LINE
  5
352
330
1F
100
AcDbEntity
  8
0
  6
Continuous
 62
     7
370
    15
100
AcDbLine
 10
4.0541289848
 20
-1.7242407887
 30
0.0
 11
3.8697122551
 21
-1.6177792768
 31
0.0
  0
LINE
  5
353
330
1F
100
AcDbEntity
  8
0
  6
Continuous
 62
     7
370
    15
100
AcDbLine
 10
3.8697122551
 20
-1.6177792768
 30
0.0
 11
4.0044160969
 21
-1.5400164041
 31
0.0
  0
LINE
  5
354
330
1F
100
AcDbEntity
  8
0
  6
Continuous
 62
     7
370
    15
100
AcDbLine
 10
-1.1675339754
 20
-0.7382429044
 30
0.0
 11
-1.1675339754
 21
0.3065717627
 31
0.0
  0
LINE
  5
355
330
1F
100
AcDbEntity
  8
0
  6
Continuous
 62
     7
370
    15
100
AcDbLine
 10
6.6318538211
 20
-0.2361519156
 30
0.0
 11
6.6318538211
 21
0.35963829
 31
0.0
  0
LINE
  5
356
330
1F
100
AcDbEntity
  8
0
  6
Continuous
 62
     7
370
    15
100
AcDbLine
 10
-1.3298149817
 20
-0.8319257352
 30
0.0
 11
-1.3298149817
 21
0.2128889319
 31
0.0
  0
LINE
  5
357
330
1F
100
AcDbEntity
  8
0
  6
Continuous
 62
     7
370
    15
100
AcDbLine
 10
-2.6565098877
 20
1.9127444787
 30
0.0
 11
-2.6564745014
 21
1.900886133
 31
0.0
  0
LINE
  5
358
330
1F
100
AcDbEntity
  8
0
  6
Continuous
 62
     7
370
    15
100
AcDbLine
 10
4.0703506346
 20
0.2626949481
 30
0.0
 11
4.0703506346
 21
0.1606439342
 31
0.0
  0
LINE
  5
359
330
1F
100
AcDbEntity
  8
0
  6
Continuous
 62
     7
370
    15
100
AcDbLine
 10
-2.5544440866
 20
-0.2028913504
 30
0.0
 11
-2.5544440866
 21
-0.6537499941
 31
0.0
  0
LINE
  5
35A
330
1F
100
AcDbEntity
  8
0
  6
Continuous
 62
     7
370
    15
100
AcDbLine
 10
-2.5544440866
 20
-0.2028913504
 30
0.0
 11
-2.6379625269
 21
-0.154677181
 31
0.0
  0
LINE
  5
35B
330
1F
100
AcDbEntity
  8
0
  6
Continuous
 62
     7
370
    15
100
AcDbLine
 10
-2.6379625269
 20
0.9680664353
 30
0.0
 11
-2.6379625269
 21
-0.154677181
 31
0.0
  0
LINE
  5
35C
330
1F
100
AcDbEntity
  8
0
  6
Continuous
 62
     7
370
    15
100
AcDbLine
 10
-1.3973107448
 20
-0.8708902098
 30
0.0
 11
-1.5817274745
 21
-0.7644286979
 31
0.0
  0
LINE
  5
35D
330
1F
100
AcDbEntity
  8
0
  6
Continuous
 62
     7
370
    15
100
AcDbLine
 10
2.7215533211
 20
-1.3058342581
 30
0.0
 11
2.7215533211
 21
0.5106737907
 31
0.0
  0
LINE
  5
35E
330
1F
100
AcDbEntity
  8
0
  6
Continuous
 62
     7
370
    15
100
AcDbLine
 10
3.0316994848
 20
-1.4293377003
 30
0.0
 11
2.9835951116
 21
-1.4571077639
 31
0.0
  0
LINE
  5
35F
330
1F
100
AcDbEntity
  8
0
  6
Continuous
 62
     7
370
    15
100
AcDbLine
 10
4.1001515222
 20
0.3475422759
 30
0.0
 11
4.1001515222
 21
0.143440248
 31
0.0
  0
LINE
  5
360
330
1F
100
AcDbEntity
  8
0
  6
Continuous
 62
     7
370
    15
100
AcDbLine
 10
-0.2714054488
 20
0.4219640625
 30
0.0
 11
-0.2714054488
 21
0.2178620345
 31
0.0
  0
LINE
  5
361
330
1F
100
AcDbEntity
  8
0
  6
Continuous
 62
     7
370
    15
100
AcDbLine
 10
2.3644643966
 20
0.3739254319
 30
0.0
 11
2.3644643966
 21
0.0314949487
 31
0.0
  0
LINE
  5
362
330
1F
100
AcDbEntity
  8
0
  6
Continuous
 62
     7
370
    15
100
AcDbLine
 10
2.3644643966
 20
0.0314949487
 30
0.0
 11
2.424568473
 21
-0.1359790324
 31
0.0
  0
LINE
  5
363
330
1F
100
AcDbEntity
  8
0
  6
Continuous
 62
     7
370
    15
100
AcDbLine
 10
2.424568473
 20
-0.8774671901
 30
0.0
 11
2.424568473
 21
-0.1359790324
 31
0.0
  0
LINE
  5
364
330
1F
100
AcDbEntity
  8
0
  6
Continuous
 62
     7
370
    15
100
AcDbLine
 10
2.5592723148
 20
-0.0582161598
 30
0.0
 11
2.5592723148
 21
0.4169909598
 31
0.0
  0
LINE
  5
365
330
1F
100
AcDbEntity
  8
0
  6
Continuous
 62
     7
370
    15
100
AcDbLine
 10
2.5592723148
 20
-0.0582161598
 30
0.0
 11
2.424568473
 21
-0.1359790324
 31
0.0
  0
LINE
  5
366
330
1F
100
AcDbEntity
  8
0
  6
Continuous
 62
     7
370
    15
100
AcDbLine
 10
-4.4680841952
 20
0.4974818128
 30
0.0
 11
-4.4680841952
 21
0.2362312171
 31
0.0
  0
LINE
  5
367
330
1F
100
AcDbEntity
  8
0
  6
Continuous
 62
     7
370
    15
100
AcDbLine
 10
2.4991682384
 20
0.4516883046
 30
0.0
 11
2.4991682384
 21
0.1092578213
 31
0.0
  0
LINE
  5
368
330
1F
100
AcDbEntity
  8
0
  6
Continuous
 62
     7
370
    15
100
AcDbLine
 10
2.4991682384
 20
0.1092578213
 30
0.0
 11
2.3644643966
 21
0.0314949487
 31
0.0
  0
LINE
  5
369
330
1F
100
AcDbEntity
  8
0
  6
Continuous
 62
     7
370
    15
100
AcDbLine
 10
2.4991682384
 20
0.1092578213
 30
0.0
 11
2.5592723148
 21
-0.0582161598
 31
0.0
  0
LINE
  5
36A
330
1F
100
AcDbEntity
  8
0
  6
Continuous
 62
     7
370
    15
100
AcDbLine
 10
6.5399299395
 20
-0.2892184429
 30
0.0
 11
6.5399299395
 21
0.7555962242
 31
0.0
  0
LINE
  5
36B
330
1F
100
AcDbEntity
  8
0
  6
Continuous
 62
     7
370
    15
100
AcDbLine
 10
6.3776489332
 20
-0.3829012737
 30
0.0
 11
6.3776489332
 21
0.6619133934
 31
0.0
  0
LINE
  5
36C
330
1F
100
AcDbEntity
  8
0
  6
Continuous
 62
     7
370
    15
100
AcDbLine
 10
2.896995643
 20
-1.0562419293
 30
0.0
 11
3.0316994848
 21
-0.9784790566
 31
0.0
  0
LINE
  5
36D
330
1F
100
AcDbEntity
  8
0
  6
Continuous
 62
     7
370
    15
100
AcDbLine
 10
2.9481810445
 20
-0.9302648873
 30
0.0
 11
2.8134772026
 21
-1.0080277599
 31
0.0
  0
LINE
  5
36E
330
1F
100
AcDbEntity
  8
0
  6
Continuous
 62
     7
370
    15
100
AcDbLine
 10
6.3101531701
 20
-0.4218657483
 30
0.0
 11
6.1257364404
 21
-0.3154042364
 31
0.0
  0
LINE
  5
36F
330
1F
100
AcDbEntity
  8
0
  6
Continuous
 62
     7
370
    15
100
AcDbLine
 10
5.1530198284
 20
0.2461331111
 30
0.0
 11
5.1530198284
 21
-0.2047255326
 31
0.0
  0
LINE
  5
370
330
1F
100
AcDbEntity
  8
0
  6
Continuous
 62
     7
370
    15
100
AcDbLine
 10
5.1530198284
 20
0.2461331111
 30
0.0
 11
5.069501388
 21
0.2943472805
 31
0.0
  0
LINE
  5
371
330
1F
100
AcDbEntity
  8
0
  6
Continuous
 62
     7
370
    15
100
AcDbLine
 10
5.069501388
 20
1.4170908968
 30
0.0
 11
5.069501388
 21
0.2943472805
 31
0.0
  0
LINE
  5
372
330
1F
100
AcDbEntity
  8
0
  6
Continuous
 62
     7
370
    15
100
AcDbLine
 10
1.1922707122
 20
0.6240433447
 30
0.0
 11
1.1940400892
 21
0.7067055955
 31
0.0
  0
LINE
  5
373
330
1F
100
AcDbEntity
  8
0
  6
Continuous
 62
     7
370
    15
100
AcDbLine
 10
-2.7726663687
 20
-0.5833130792
 30
0.0
 11
-2.7726663687
 21
-0.2324400537
 31
0.0
  0
LINE
  5
374
330
1F
100
AcDbEntity
  8
0
  6
Continuous
 62
     7
370
    15
100
AcDbLine
 10
-2.6891479284
 20
-0.280654223
 30
0.0
 11
-2.7726663687
 21
-0.2324400537
 31
0.0
  0
LINE
  5
375
330
1F
100
AcDbEntity
  8
0
  6
Continuous
 62
     7
370
    15
100
AcDbLine
 10
-2.6891479284
 20
-0.6315272485
 30
0.0
 11
-2.6891479284
 21
-0.280654223
 31
0.0
  0
LINE
  5
376
330
1F
100
AcDbEntity
  8
0
  6
Continuous
 62
     7
370
    15
100
AcDbLine
 10
-2.3863125901
 20
-1.010452396
 30
0.0
 11
-2.3927257924
 21
-1.0053685658
 31
0.0
  0
LINE
  5
377
330
1F
100
AcDbEntity
  8
0
  6
Continuous
 62
     7
370
    15
100
AcDbLine
 10
-1.7164313163
 20
-0.8421915705
 30
0.0
 11
-1.7164313163
 21
-1.0551145944
 31
0.0
  0
LINE
  5
378
330
1F
100
AcDbEntity
  8
0
  6
Continuous
 62
     7
370
    15
100
AcDbLine
 10
-1.5320145866
 20
-0.9486530825
 30
0.0
 11
-1.7164313163
 21
-0.8421915705
 31
0.0
  0
LINE
  5
379
330
1F
100
AcDbEntity
  8
0
  6
Continuous
 62
     7
370
    15
100
AcDbLine
 10
-1.7164313163
 20
-0.8421915705
 30
0.0
 11
-1.5817274745
 21
-0.7644286979
 31
0.0
  0
LINE
  5
37A
330
1F
100
AcDbEntity
  8
0
  6
Continuous
 62
     7
370
    15
100
AcDbLine
 10
3.2393797198
 20
0.9465062744
 30
0.0
 11
3.2393797198
 21
0.6852556786
 31
0.0
  0
LINE
  5
37B
330
1F
100
AcDbEntity
  8
0
  6
Continuous
 62
     7
370
    15
100
AcDbLine
 10
1.0457102497
 20
0.5394357906
 30
0.0
 11
1.0457102497
 21
1.1352259962
 31
0.0
  0
LINE
  5
37C
330
1F
100
AcDbEntity
  8
0
  6
Continuous
 62
     7
370
    15
100
AcDbLine
 10
-1.5157929367
 20
1.0382826544
 30
0.0
 11
-1.5157929367
 21
0.9362316404
 31
0.0
  0
LINE
  5
37D
330
1F
100
AcDbEntity
  8
0
  6
Continuous
 62
     7
370
    15
100
AcDbLine
 10
-2.8645902503
 20
-0.5302465519
 30
0.0
 11
-2.8645902503
 21
1.2862614969
 31
0.0
  0
LINE
  5
37E
330
1F
100
AcDbEntity
  8
0
  6
Continuous
 62
     7
370
    15
100
AcDbLine
 10
-2.5544440866
 20
-0.6537499941
 30
0.0
 11
-2.6025484598
 21
-0.6815200576
 31
0.0
  0
LINE
  5
37F
330
1F
100
AcDbEntity
  8
0
  6
Continuous
 62
     7
370
    15
100
AcDbLine
 10
-1.4859920492
 20
1.1231299822
 30
0.0
 11
-1.4859920492
 21
0.9190279542
 31
0.0
  0
LINE
  5
380
330
1F
100
AcDbEntity
  8
0
  6
Continuous
 62
     7
370
    15
100
AcDbLine
 10
-3.2216791748
 20
1.1495131382
 30
0.0
 11
-3.2216791748
 21
0.8070826549
 31
0.0
  0
LINE
  5
381
330
1F
100
AcDbEntity
  8
0
  6
Continuous
 62
     7
370
    15
100
AcDbLine
 10
-3.2216791748
 20
0.8070826549
 30
0.0
 11
-3.1615750984
 21
0.6396086738
 31
0.0
  0
LINE
  5
382
330
1F
100
AcDbEntity
  8
0
  6
Continuous
 62
     7
370
    15
100
AcDbLine
 10
-3.1615750984
 20
-0.1018794839
 30
0.0
 11
-3.1615750984
 21
0.6396086738
 31
0.0
  0
LINE
  5
383
330
1F
100
AcDbEntity
  8
0
  6
Continuous
 62
     7
370
    15
100
AcDbLine
 10
-3.0268712566
 20
0.7173715464
 30
0.0
 11
-3.0268712566
 21
1.1925786661
 31
0.0
  0
LINE
  5
384
330
1F
100
AcDbEntity
  8
0
  6
Continuous
 62
     7
370
    15
100
AcDbLine
 10
-3.0268712566
 20
0.7173715464
 30
0.0
 11
-3.1615750984
 21
0.6396086738
 31
0.0
  0
LINE
  5
385
330
1F
100
AcDbEntity
  8
0
  6
Continuous
 62
     7
370
    15
100
AcDbLine
 10
5.0183159866
 20
-0.182502787
 30
0.0
 11
5.0183159866
 21
0.1683702385
 31
0.0
  0
LINE
  5
386
330
1F
100
AcDbEntity
  8
0
  6
Continuous
 62
     7
370
    15
100
AcDbLine
 10
5.3211513248
 20
-0.5614279345
 30
0.0
 11
5.3147381225
 21
-0.5563441043
 31
0.0
  0
LINE
  5
387
330
1F
100
AcDbEntity
  8
0
  6
Continuous
 62
     7
370
    15
100
AcDbLine
 10
5.9910325986
 20
-0.393167109
 30
0.0
 11
5.9910325986
 21
-0.6060901329
 31
0.0
  0
LINE
  5
388
330
1F
100
AcDbEntity
  8
0
  6
Continuous
 62
     7
370
    15
100
AcDbLine
 10
6.1754493283
 20
-0.499628621
 30
0.0
 11
5.9910325986
 21
-0.393167109
 31
0.0
  0
LINE
  5
389
330
1F
100
AcDbEntity
  8
0
  6
Continuous
 62
     7
370
    15
100
AcDbLine
 10
4.9347975462
 20
-0.1342886177
 30
0.0
 11
4.9347975462
 21
0.2165844078
 31
0.0
  0
LINE
  5
38A
330
1F
100
AcDbEntity
  8
0
  6
Continuous
 62
     7
370
    15
100
AcDbLine
 10
5.0183159866
 20
0.1683702385
 30
0.0
 11
4.9347975462
 21
0.2165844078
 31
0.0
  0
LINE
  5
38B
330
1F
100
AcDbEntity
  8
0
  6
Continuous
 62
     7
370
    15
100
AcDbLine
 10
5.9910325986
 20
-0.393167109
 30
0.0
 11
6.1257364404
 21
-0.3154042364
 31
0.0
  0
LINE
  5
38C
330
1F
100
AcDbEntity
  8
0
  6
Continuous
 62
     7
370
    15
100
AcDbLine
 10
-3.086975333
 20
1.2272760108
 30
0.0
 11
-3.086975333
 21
0.8848455276
 31
0.0
  0
LINE
  5
38D
330
1F
100
AcDbEntity
  8
0
  6
Continuous
 62
     7
370
    15
100
AcDbLine
 10
-3.086975333
 20
0.8848455276
 30
0.0
 11
-3.2216791748
 21
0.8070826549
 31
0.0
  0
LINE
  5
38E
330
1F
100
AcDbEntity
  8
0
  6
Continuous
 62
     7
370
    15
100
AcDbLine
 10
-3.086975333
 20
0.8848455276
 30
0.0
 11
-3.0268712566
 21
0.7173715464
 31
0.0
  0
LINE
  5
38F
330
1F
100
AcDbEntity
  8
0
  6
Continuous
 62
     7
370
    15
100
AcDbLine
 10
0.9537863681
 20
0.4863692634
 30
0.0
 11
0.9537863681
 21
1.5311839304
 31
0.0
  0
LINE
  5
390
330
1F
100
AcDbEntity
  8
0
  6
Continuous
 62
     7
370
    15
100
AcDbLine
 10
0.7915053618
 20
0.3926864325
 30
0.0
 11
0.7915053618
 21
1.4375010996
 31
0.0
  0
LINE
  5
391
330
1F
100
AcDbEntity
  8
0
  6
Continuous
 62
     7
370
    15
100
AcDbLine
 10
-5.8310657819
 20
-2.6961396607
 30
0.0
 11
-5.4774549242
 21
-2.4920044577
 31
0.0
  0
LINE
  5
392
330
1F
100
AcDbEntity
  8
0
  6
Continuous
 62
     7
370
    15
100
AcDbLine
 10
-2.6891479284
 20
-0.280654223
 30
0.0
 11
-2.5544440866
 21
-0.2028913504
 31
0.0
  0
LINE
  5
393
330
1F
100
AcDbEntity
  8
0
  6
Continuous
 62
     7
370
    15
100
AcDbLine
 10
-2.6379625269
 20
-0.154677181
 30
0.0
 11
-2.7726663687
 21
-0.2324400537
 31
0.0
  0
LINE
  5
394
330
1F
100
AcDbEntity
  8
0
  6
Continuous
 62
     7
370
    15
100
AcDbLine
 10
-0.5351895442
 20
3.1373566465
 30
0.0
 11
-0.5351541578
 21
3.1254983007
 31
0.0
  0
LINE
  5
395
330
1F
100
AcDbEntity
  8
0
  6
Continuous
 62
     7
370
    15
100
AcDbLine
 10
-0.433123743
 20
1.0217208173
 30
0.0
 11
-0.433123743
 21
0.5708621737
 31
0.0
  0
LINE
  5
396
330
1F
100
AcDbEntity
  8
0
  6
Continuous
 62
     7
370
    15
100
AcDbLine
 10
-0.433123743
 20
1.0217208173
 30
0.0
 11
-0.5166421833
 21
1.0699349867
 31
0.0
  0
LINE
  5
397
330
1F
100
AcDbEntity
  8
0
  6
Continuous
 62
     7
370
    15
100
AcDbLine
 10
-0.5166421833
 20
2.192678603
 30
0.0
 11
-0.5166421833
 21
1.0699349867
 31
0.0
  0
LINE
  5
398
330
1F
100
AcDbEntity
  8
0
  6
Continuous
 62
     7
370
    15
100
AcDbLine
 10
0.7240095988
 20
0.3537219579
 30
0.0
 11
0.5395928691
 21
0.4601834699
 31
0.0
  0
LINE
  5
399
330
1F
100
AcDbEntity
  8
0
  6
Continuous
 62
     7
370
    15
100
AcDbLine
 10
4.8428736647
 20
-0.0812220904
 30
0.0
 11
4.8428736647
 21
1.7352859584
 31
0.0
  0
LINE
  5
39A
330
1F
100
AcDbEntity
  8
0
  6
Continuous
 62
     7
370
    15
100
AcDbLine
 10
5.1530198284
 20
-0.2047255326
 30
0.0
 11
5.1049154552
 21
-0.2324955961
 31
0.0
  0
LINE
  5
39B
330
1F
100
AcDbEntity
  8
0
  6
Continuous
 62
     7
370
    15
100
AcDbLine
 10
1.8499148947
 20
1.6465762302
 30
0.0
 11
1.8499148947
 21
1.4424742023
 31
0.0
  0
LINE
  5
39C
330
1F
100
AcDbEntity
  8
0
  6
Continuous
 62
     7
370
    15
100
AcDbLine
 10
4.4857847402
 20
1.5985375997
 30
0.0
 11
4.4857847402
 21
1.2561071164
 31
0.0
  0
LINE
  5
39D
330
1F
100
AcDbEntity
  8
0
  6
Continuous
 62
     7
370
    15
100
AcDbLine
 10
4.4857847402
 20
1.2561071164
 30
0.0
 11
4.5458888166
 21
1.0886331353
 31
0.0
  0
LINE
  5
39E
330
1F
100
AcDbEntity
  8
0
  6
Continuous
 62
     7
370
    15
100
AcDbLine
 10
4.5458888166
 20
0.3471449776
 30
0.0
 11
4.5458888166
 21
1.0886331353
 31
0.0
  0
LINE
  5
39F
330
1F
100
AcDbEntity
  8
0
  6
Continuous
 62
     7
370
    15
100
AcDbLine
 10
4.6805926584
 20
1.1663960079
 30
0.0
 11
4.6805926584
 21
1.6416031276
 31
0.0
  0
LINE
  5
3A0
330
1F
100
AcDbEntity
  8
0
  6
Continuous
 62
     7
370
    15
100
AcDbLine
 10
4.6805926584
 20
1.1663960079
 30
0.0
 11
4.5458888166
 21
1.0886331353
 31
0.0
  0
LINE
  5
3A1
330
1F
100
AcDbEntity
  8
0
  6
Continuous
 62
     7
370
    15
100
AcDbLine
 10
-2.3467638516
 20
1.7220939806
 30
0.0
 11
-2.3467638516
 21
1.4608433848
 31
0.0
  0
LINE
  5
3A2
330
1F
100
AcDbEntity
  8
0
  6
Continuous
 62
     7
370
    15
100
AcDbLine
 10
4.620488582
 20
1.6763004723
 30
0.0
 11
4.620488582
 21
1.3338699891
 31
0.0
  0
LINE
  5
3A3
330
1F
100
AcDbEntity
  8
0
  6
Continuous
 62
     7
370
    15
100
AcDbLine
 10
4.620488582
 20
1.3338699891
 30
0.0
 11
4.4857847402
 21
1.2561071164
 31
0.0
  0
LINE
  5
3A4
330
1F
100
AcDbEntity
  8
0
  6
Continuous
 62
     7
370
    15
100
AcDbLine
 10
4.620488582
 20
1.3338699891
 30
0.0
 11
4.6805926584
 21
1.1663960079
 31
0.0
  0
LINE
  5
3A5
330
1F
100
AcDbEntity
  8
0
  6
Continuous
 62
     7
370
    15
100
AcDbLine
 10
5.0183159866
 20
0.1683702385
 30
0.0
 11
5.1530198284
 21
0.2461331111
 31
0.0
  0
LINE
  5
3A6
330
1F
100
AcDbEntity
  8
0
  6
Continuous
 62
     7
370
    15
100
AcDbLine
 10
5.069501388
 20
0.2943472805
 30
0.0
 11
4.9347975462
 21
0.2165844078
 31
0.0
  0
LINE
  5
3A7
330
1F
100
AcDbEntity
  8
0
  6
Continuous
 62
     7
370
    15
100
AcDbLine
 10
3.3135910557
 20
1.8486555125
 30
0.0
 11
3.3153604328
 21
1.9313177633
 31
0.0
  0
LINE
  5
3A8
330
1F
100
AcDbEntity
  8
0
  6
Continuous
 62
     7
370
    15
100
AcDbLine
 10
-0.6513460252
 20
0.6412990885
 30
0.0
 11
-0.6513460252
 21
0.992172114
 31
0.0
  0
LINE
  5
3A9
330
1F
100
AcDbEntity
  8
0
  6
Continuous
 62
     7
370
    15
100
AcDbLine
 10
-0.5678275848
 20
0.9439579447
 30
0.0
 11
-0.6513460252
 21
0.992172114
 31
0.0
  0
LINE
  5
3AA
330
1F
100
AcDbEntity
  8
0
  6
Continuous
 62
     7
370
    15
100
AcDbLine
 10
-0.5678275848
 20
0.5930849192
 30
0.0
 11
-0.5678275848
 21
0.9439579447
 31
0.0
  0
LINE
  5
3AB
330
1F
100
AcDbEntity
  8
0
  6
Continuous
 62
     7
370
    15
100
AcDbLine
 10
-0.2649922466
 20
0.2141597717
 30
0.0
 11
-0.2714054488
 21
0.219243602
 31
0.0
  0
LINE
  5
3AC
330
1F
100
AcDbEntity
  8
0
  6
Continuous
 62
     7
370
    15
100
AcDbLine
 10
0.4048890273
 20
0.3824205972
 30
0.0
 11
0.4048890273
 21
0.1694975733
 31
0.0
  0
LINE
  5
3AD
330
1F
100
AcDbEntity
  8
0
  6
Continuous
 62
     7
370
    15
100
AcDbLine
 10
0.589305757
 20
0.2759590853
 30
0.0
 11
0.4048890273
 21
0.3824205972
 31
0.0
  0
LINE
  5
3AE
330
1F
100
AcDbEntity
  8
0
  6
Continuous
 62
     7
370
    15
100
AcDbLine
 10
0.4048890273
 20
0.3824205972
 30
0.0
 11
0.5395928691
 21
0.4601834699
 31
0.0
  0
LINE
  5
3AF
330
1F
100
AcDbEntity
  8
0
  6
Continuous
 62
     7
370
    15
100
AcDbLine
 10
3.1670305932
 20
1.7640479584
 30
0.0
 11
3.1670305932
 21
2.3598381639
 31
0.0
  0
LINE
  5
3B0
330
1F
100
AcDbEntity
  8
0
  6
Continuous
 62
     7
370
    15
100
AcDbLine
 10
0.6055274068
 20
2.2628948221
 30
0.0
 11
0.6055274068
 21
2.1608438081
 31
0.0
  0
LINE
  5
3B1
330
1F
100
AcDbEntity
  8
0
  6
Continuous
 62
     7
370
    15
100
AcDbLine
 10
-0.7432699067
 20
0.6943656158
 30
0.0
 11
-0.7432699067
 21
2.5108736646
 31
0.0
  0
LINE
  5
3B2
330
1F
100
AcDbEntity
  8
0
  6
Continuous
 62
     7
370
    15
100
AcDbLine
 10
-0.433123743
 20
0.5708621737
 30
0.0
 11
-0.4812281162
 21
0.5430921101
 31
0.0
  0
LINE
  5
3B3
330
1F
100
AcDbEntity
  8
0
  6
Continuous
 62
     7
370
    15
100
AcDbLine
 10
0.6353282944
 20
2.3477421499
 30
0.0
 11
0.6353282944
 21
2.1436401219
 31
0.0
  0
LINE
  5
3B4
330
1F
100
AcDbEntity
  8
0
  6
Continuous
 62
     7
370
    15
100
AcDbLine
 10
-1.1003588312
 20
2.3741253059
 30
0.0
 11
-1.1003588312
 21
2.0316948226
 31
0.0
  0
LINE
  5
3B5
330
1F
100
AcDbEntity
  8
0
  6
Continuous
 62
     7
370
    15
100
AcDbLine
 10
-1.1003588312
 20
2.0316948226
 30
0.0
 11
-1.0402547548
 21
1.8642208415
 31
0.0
  0
LINE
  5
3B6
330
1F
100
AcDbEntity
  8
0
  6
Continuous
 62
     7
370
    15
100
AcDbLine
 10
-1.0402547548
 20
1.1227326839
 30
0.0
 11
-1.0402547548
 21
1.8642208415
 31
0.0
  0
LINE
  5
3B7
330
1F
100
AcDbEntity
  8
0
  6
Continuous
 62
     7
370
    15
100
AcDbLine
 10
-0.905550913
 20
1.9419837142
 30
0.0
 11
-0.905550913
 21
2.4171908338
 31
0.0
  0
LINE
  5
3B8
330
1F
100
AcDbEntity
  8
0
  6
Continuous
 62
     7
370
    15
100
AcDbLine
 10
-0.905550913
 20
1.9419837142
 30
0.0
 11
-1.0402547548
 21
1.8642208415
 31
0.0
  0
LINE
  5
3B9
330
1F
100
AcDbEntity
  8
0
  6
Continuous
 62
     7
370
    15
100
AcDbLine
 10
-0.9656549894
 20
2.4518881785
 30
0.0
 11
-0.9656549894
 21
2.1094576953
 31
0.0
  0
LINE
  5
3BA
330
1F
100
AcDbEntity
  8
0
  6
Continuous
 62
     7
370
    15
100
AcDbLine
 10
-0.9656549894
 20
2.1094576953
 30
0.0
 11
-1.1003588312
 21
2.0316948226
 31
0.0
  0
LINE
  5
3BB
330
1F
100
AcDbEntity
  8
0
  6
Continuous
 62
     7
370
    15
100
AcDbLine
 10
-0.9656549894
 20
2.1094576953
 30
0.0
 11
-0.905550913
 21
1.9419837142
 31
0.0
  0
LINE
  5
3BC
330
1F
100
AcDbEntity
  8
0
  6
Continuous
 62
     7
370
    15
100
AcDbLine
 10
3.0751067117
 20
1.7109814311
 30
0.0
 11
3.0751067117
 21
2.7557960982
 31
0.0
  0
LINE
  5
3BD
330
1F
100
AcDbEntity
  8
0
  6
Continuous
 62
     7
370
    15
100
AcDbLine
 10
2.9128257054
 20
1.6172986003
 30
0.0
 11
2.9128257054
 21
2.6621132673
 31
0.0
  0
LINE
  5
3BE
330
1F
100
AcDbEntity
  8
0
  6
Continuous
 62
     7
370
    15
100
AcDbLine
 10
-0.5678275848
 20
0.9439579447
 30
0.0
 11
-0.433123743
 21
1.0217208173
 31
0.0
  0
LINE
  5
3BF
330
1F
100
AcDbEntity
  8
0
  6
Continuous
 62
     7
370
    15
100
AcDbLine
 10
-0.5166421833
 20
1.0699349867
 30
0.0
 11
-0.6513460252
 21
0.992172114
 31
0.0
  0
LINE
  5
3C0
330
1F
100
AcDbEntity
  8
0
  6
Continuous
 62
     7
370
    15
100
AcDbLine
 10
1.6881966006
 20
2.2463329851
 30
0.0
 11
1.6881966006
 21
1.7954743414
 31
0.0
  0
LINE
  5
3C1
330
1F
100
AcDbEntity
  8
0
  6
Continuous
 62
     7
370
    15
100
AcDbLine
 10
1.6881966006
 20
2.2463329851
 30
0.0
 11
1.6046781602
 21
2.2945471544
 31
0.0
  0
LINE
  5
3C2
330
1F
100
AcDbEntity
  8
0
  6
Continuous
 62
     7
370
    15
100
AcDbLine
 10
1.6046781602
 20
3.4172907708
 30
0.0
 11
1.6046781602
 21
2.2945471544
 31
0.0
  0
LINE
  5
3C3
330
1F
100
AcDbEntity
  8
0
  6
Continuous
 62
     7
370
    15
100
AcDbLine
 10
2.8453299423
 20
1.5783341256
 30
0.0
 11
2.6609132126
 21
1.6847956376
 31
0.0
  0
LINE
  5
3C4
330
1F
100
AcDbEntity
  8
0
  6
Continuous
 62
     7
370
    15
100
AcDbLine
 10
-0.225443508
 20
2.9467061483
 30
0.0
 11
-0.225443508
 21
2.6854555525
 31
0.0
  0
LINE
  5
3C5
330
1F
100
AcDbEntity
  8
0
  6
Continuous
 62
     7
370
    15
100
AcDbLine
 10
1.4699743184
 20
1.8659112563
 30
0.0
 11
1.4699743184
 21
2.2167842818
 31
0.0
  0
LINE
  5
3C6
330
1F
100
AcDbEntity
  8
0
  6
Continuous
 62
     7
370
    15
100
AcDbLine
 10
1.5534927588
 20
2.1685701124
 30
0.0
 11
1.4699743184
 21
2.2167842818
 31
0.0
  0
LINE
  5
3C7
330
1F
100
AcDbEntity
  8
0
  6
Continuous
 62
     7
370
    15
100
AcDbLine
 10
1.5534927588
 20
1.8176970869
 30
0.0
 11
1.5534927588
 21
2.1685701124
 31
0.0
  0
LINE
  5
3C8
330
1F
100
AcDbEntity
  8
0
  6
Continuous
 62
     7
370
    15
100
AcDbLine
 10
1.856328097
 20
1.4387719394
 30
0.0
 11
1.8499148947
 21
1.4438557697
 31
0.0
  0
LINE
  5
3C9
330
1F
100
AcDbEntity
  8
0
  6
Continuous
 62
     7
370
    15
100
AcDbLine
 10
2.5262093708
 20
1.6070327649
 30
0.0
 11
2.5262093708
 21
1.394109741
 31
0.0
  0
LINE
  5
3CA
330
1F
100
AcDbEntity
  8
0
  6
Continuous
 62
     7
370
    15
100
AcDbLine
 10
2.7106261005
 20
1.500571253
 30
0.0
 11
2.5262093708
 21
1.6070327649
 31
0.0
  0
LINE
  5
3CB
330
1F
100
AcDbEntity
  8
0
  6
Continuous
 62
     7
370
    15
100
AcDbLine
 10
2.5262093708
 20
1.6070327649
 30
0.0
 11
2.6609132126
 21
1.6847956376
 31
0.0
  0
LINE
  5
3CC
330
1F
100
AcDbEntity
  8
0
  6
Continuous
 62
     7
370
    15
100
AcDbLine
 10
1.3780504368
 20
1.9189777836
 30
0.0
 11
1.3780504368
 21
3.7354858324
 31
0.0
  0
LINE
  5
3CD
330
1F
100
AcDbEntity
  8
0
  6
Continuous
 62
     7
370
    15
100
AcDbLine
 10
1.6881966006
 20
1.7954743414
 30
0.0
 11
1.6400922273
 21
1.7677042778
 31
0.0
  0
LINE
  5
3CE
330
1F
100
AcDbEntity
  8
0
  6
Continuous
 62
     7
370
    15
100
AcDbLine
 10
1.0209615123
 20
3.5987374736
 30
0.0
 11
1.0209615123
 21
3.2563069904
 31
0.0
  0
LINE
  5
3CF
330
1F
100
AcDbEntity
  8
0
  6
Continuous
 62
     7
370
    15
100
AcDbLine
 10
1.0209615123
 20
3.2563069904
 30
0.0
 11
1.0810655887
 21
3.0888330093
 31
0.0
  0
LINE
  5
3D0
330
1F
100
AcDbEntity
  8
0
  6
Continuous
 62
     7
370
    15
100
AcDbLine
 10
1.0810655887
 20
2.3473448516
 30
0.0
 11
1.0810655887
 21
3.0888330093
 31
0.0
  0
LINE
  5
3D1
330
1F
100
AcDbEntity
  8
0
  6
Continuous
 62
     7
370
    15
100
AcDbLine
 10
1.2157694306
 20
3.1665958819
 30
0.0
 11
1.2157694306
 21
3.6418030015
 31
0.0
  0
LINE
  5
3D2
330
1F
100
AcDbEntity
  8
0
  6
Continuous
 62
     7
370
    15
100
AcDbLine
 10
1.2157694306
 20
3.1665958819
 30
0.0
 11
1.0810655887
 21
3.0888330093
 31
0.0
  0
LINE
  5
3D3
330
1F
100
AcDbEntity
  8
0
  6
Continuous
 62
     7
370
    15
100
AcDbLine
 10
1.1556653542
 20
3.6765003463
 30
0.0
 11
1.1556653542
 21
3.334069863
 31
0.0
  0
LINE
  5
3D4
330
1F
100
AcDbEntity
  8
0
  6
Continuous
 62
     7
370
    15
100
AcDbLine
 10
1.1556653542
 20
3.334069863
 30
0.0
 11
1.0209615123
 21
3.2563069904
 31
0.0
  0
LINE
  5
3D5
330
1F
100
AcDbEntity
  8
0
  6
Continuous
 62
     7
370
    15
100
AcDbLine
 10
1.1556653542
 20
3.334069863
 30
0.0
 11
1.2157694306
 21
3.1665958819
 31
0.0
  0
LINE
  5
3D6
330
1F
100
AcDbEntity
  8
0
  6
Continuous
 62
     7
370
    15
100
AcDbLine
 10
1.5534927588
 20
2.1685701124
 30
0.0
 11
1.6881966006
 21
2.2463329851
 31
0.0
  0
LINE
  5
3D7
330
1F
100
AcDbEntity
  8
0
  6
Continuous
 62
     7
370
    15
100
AcDbLine
 10
1.6046781602
 20
2.2945471544
 30
0.0
 11
1.4699743184
 21
2.2167842818
 31
0.0
  0
ARC
  5
3D8
330
1F
100
AcDbEntity
  8
0
  6
Continuous
 62
     7
370
    15
100
AcDbCircle
 10
2.5811559171
 20
-0.6697843821
 30
0.0
 40
3.085575288509336
100
AcDbArc
 50
181.7279994825
 51
207.4839416832
  0
ARC
  5
3D9
330
1F
100
AcDbEntity
  8
0
  6
Continuous
 62
     7
370
    15
100
AcDbCircle
 10
3.2482725055
 20
-0.3933810877
 30
0.0
 40
3.805480469505762
100
AcDbArc
 50
206.998217567
 51
211.7293170116
  0
ARC
  5
3DA
330
1F
100
AcDbEntity
  8
0
  6
Continuous
 62
     7
370
    15
100
AcDbCircle
 10
3.3912578821
 20
-0.3134456941
 30
0.0
 40
3.568615223736851
100
AcDbArc
 50
210.0802342379
 51
218.29024513
  0
ARC
  5
3DB
330
1F
100
AcDbEntity
  8
0
  6
Continuous
 62
     7
370
    15
100
AcDbCircle
 10
4.7024762606
 20
0.5548277857
 30
0.0
 40
3.08557528850932
100
AcDbArc
 50
181.7279994825
 51
207.4839416832
  0
ARC
  5
3DC
330
1F
100
AcDbEntity
  8
0
  6
Continuous
 62
     7
370
    15
100
AcDbCircle
 10
5.3695928491
 20
0.83123108
 30
0.0
 40
3.805480469504968
100
AcDbArc
 50
206.998217567
 51
211.7293170116
  0
ARC
  5
3DD
330
1F
100
AcDbEntity
  8
0
  6
Continuous
 62
     7
370
    15
100
AcDbCircle
 10
2.8340467797
 20
-0.88102913
 30
0.0
 40
2.614793282797268
100
AcDbArc
 50
227.6359536212
 51
232.7133976677
  0
ARC
  5
3DE
330
1F
100
AcDbEntity
  8
0
  6
Continuous
 62
     7
370
    15
100
AcDbCircle
 10
5.5125782256
 20
0.9111664736
 30
0.0
 40
3.568615223736637
100
AcDbArc
 50
210.0802342379
 51
218.29024513
  0
ARC
  5
3DF
330
1F
100
AcDbEntity
  8
0
  6
Continuous
 62
     7
370
    15
100
AcDbCircle
 10
-0.8836673107
 20
1.3304154919
 30
0.0
 40
3.0855752885093
100
AcDbArc
 50
181.7279994825
 51
207.4839416832
  0
ARC
  5
3E0
330
1F
100
AcDbEntity
  8
0
  6
Continuous
 62
     7
370
    15
100
AcDbCircle
 10
-0.2165507223
 20
1.6068187863
 30
0.0
 40
3.805480469505466
100
AcDbArc
 50
206.998217567
 51
211.7293170116
  0
ARC
  5
3E1
330
1F
100
AcDbEntity
  8
0
  6
Continuous
 62
     7
370
    15
100
AcDbCircle
 10
6.8237966042
 20
1.7794399534
 30
0.0
 40
3.085575288509294
100
AcDbArc
 50
181.7279994825
 51
207.4839416832
  0
ARC
  5
3E2
330
1F
100
AcDbEntity
  8
0
  6
Continuous
 62
     7
370
    15
100
AcDbCircle
 10
7.4909131926
 20
2.0558432478
 30
0.0
 40
3.805480469504796
100
AcDbArc
 50
206.998217567
 51
211.7293170116
  0
ARC
  5
3E3
330
1F
100
AcDbEntity
  8
0
  6
Continuous
 62
     7
370
    15
100
AcDbCircle
 10
4.9553671232
 20
0.3435830378
 30
0.0
 40
2.61479328279834
100
AcDbArc
 50
227.6359536212
 51
232.7133976677
  0
ARC
  5
3E4
330
1F
100
AcDbEntity
  8
0
  6
Continuous
 62
     7
370
    15
100
AcDbCircle
 10
-0.0735653458
 20
1.6867541798
 30
0.0
 40
3.568615223736668
100
AcDbArc
 50
210.0802342379
 51
218.29024513
  0
ARC
  5
3E5
330
1F
100
AcDbEntity
  8
0
  6
Continuous
 62
     7
370
    15
100
AcDbCircle
 10
7.6338985692
 20
2.1357786413
 30
0.0
 40
3.568615223736686
100
AcDbArc
 50
210.0802342379
 51
218.29024513
  0
ARC
  5
3E6
330
1F
100
AcDbEntity
  8
0
  6
Continuous
 62
     7
370
    15
100
AcDbCircle
 10
1.2376530328
 20
2.5550276596
 30
0.0
 40
3.085575288509292
100
AcDbArc
 50
181.7279994825
 51
207.4839416832
  0
ARC
  5
3E7
330
1F
100
AcDbEntity
  8
0
  6
Continuous
 62
     7
370
    15
100
AcDbCircle
 10
1.9047696212
 20
2.831430954
 30
0.0
 40
3.805480469505942
100
AcDbArc
 50
206.998217567
 51
211.7293170116
  0
ARC
  5
3E8
330
1F
100
AcDbEntity
  8
0
  6
Continuous
 62
     7
370
    15
100
AcDbCircle
 10
-0.6307764481
 20
1.119170744
 30
0.0
 40
2.614793282798223
100
AcDbArc
 50
227.6359536212
 51
232.7133976677
  0
ARC
  5
3E9
330
1F
100
AcDbEntity
  8
0
  6
Continuous
 62
     7
370
    15
100
AcDbCircle
 10
7.0766874668
 20
1.5681952055
 30
0.0
 40
2.614793282799567
100
AcDbArc
 50
227.6359536212
 51
232.7133976677
  0
ARC
  5
3EA
330
1F
100
AcDbEntity
  8
0
  6
Continuous
 62
     7
370
    15
100
AcDbCircle
 10
2.0477549978
 20
2.9113663476
 30
0.0
 40
3.568615223736617
100
AcDbArc
 50
210.0802342379
 51
218.29024513
  0
ARC
  5
3EB
330
1F
100
AcDbEntity
  8
0
  6
Continuous
 62
     7
370
    15
100
AcDbCircle
 10
3.3589733764
 20
3.7796398273
 30
0.0
 40
3.085575288509299
100
AcDbArc
 50
181.7279994825
 51
207.4839416832
  0
ARC
  5
3EC
330
1F
100
AcDbEntity
  8
0
  6
Continuous
 62
     7
370
    15
100
AcDbCircle
 10
4.0260899648
 20
4.0560431217
 30
0.0
 40
3.805480469503265
100
AcDbArc
 50
206.998217567
 51
211.7293170116
  0
ARC
  5
3ED
330
1F
100
AcDbEntity
  8
0
  6
Continuous
 62
     7
370
    15
100
AcDbCircle
 10
1.4905438954
 20
2.3437829117
 30
0.0
 40
2.614793282798263
100
AcDbArc
 50
227.6359536212
 51
232.7133976677
  0
ARC
  5
3EE
330
1F
100
AcDbEntity
  8
0
  6
Continuous
 62
     7
370
    15
100
AcDbCircle
 10
4.1690753414
 20
4.1359785153
 30
0.0
 40
3.568615223736872
100
AcDbArc
 50
210.0802342379
 51
218.29024513
  0
ARC
  5
3EF
330
1F
100
AcDbEntity
  8
0
  6
Continuous
 62
     7
370
    15
100
AcDbCircle
 10
3.611864239
 20
3.5683950795
 30
0.0
 40
2.614793282798313
100
AcDbArc
 50
227.6359536212
 51
232.7133976677
  0
ENDSEC
  0
SECTION
  2
OBJECTS
  0
DICTIONARY
  5
C
330
0
100
AcDbDictionary
281
     1
  3
ACAD_GROUP
350
D
  3
ACAD_LAYOUT
350
1A
  3
ACAD_MLINESTYLE
350
17
  3
ACAD_PLOTSETTINGS
350
19
  3
ACAD_PLOTSTYLENAME
350
E
  0
DICTIONARY
  5
D
102
{ACAD_REACTORS
330
C
102
}
330
C
100
AcDbDictionary
281
     1
  0
DICTIONARY
  5
1A
102
{ACAD_REACTORS
330
C
102
}
330
C
100
AcDbDictionary
281
     1
  3
Layout1
350
1E
  3
Layout2
350
26
  3
Model
350
22
  0
DICTIONARY
  5
17
102
{ACAD_REACTORS
330
C
102
}
330
C
100
AcDbDictionary
281
     1
  3
Standard
350
18
  0
DICTIONARY
  5
19
102
{ACAD_REACTORS
330
C
102
}
330
C
100
AcDbDictionary
281
     1
  0
ACDBDICTIONARYWDFLT
  5
E
102
{ACAD_REACTORS
330
C
102
}
330
C
100
AcDbDictionary
281
     1
  3
Normal
350
F
100
AcDbDictionaryWithDefault
340
F
  0
LAYOUT
  5
1E
102
{ACAD_REACTORS
330
1A
102
}
330
1A
100
AcDbPlotSettings
  1

  2
none_device
  4

  6

 40
0.0
 41
0.0
 42
0.0
 43
0.0
 44
0.0
 45
0.0
 46
0.0
 47
0.0
 48
0.0
 49
0.0
140
0.0
141
0.0
142
1.0
143
1.0
 70
   688
 72
     0
 73
     0
 74
     5
  7

 75
    16
147
1.0
148
0.0
149
0.0
100
AcDbLayout
  1
Layout1
 70
     1
 71
     1
 10
0.0
 20
0.0
 11
12.0
 21
9.0
 12
0.0
 22
0.0
 32
0.0
 14
1.0000000000E+20
 24
1.0000000000E+20
 34
1.0000000000E+20
 15
-1.0000000000E+20
 25
-1.0000000000E+20
 35
-1.0000000000E+20
146
0.0
 13
0.0
 23
0.0
 33
0.0
 16
1.0
 26
0.0
 36
0.0
 17
0.0
 27
1.0
 37
0.0
 76
     0
330
1B
  0
LAYOUT
  5
26
102
{ACAD_REACTORS
330
1A
102
}
330
1A
100
AcDbPlotSettings
  1

  2
none_device
  4

  6

 40
0.0
 41
0.0
 42
0.0
 43
0.0
 44
0.0
 45
0.0
 46
0.0
 47
0.0
 48
0.0
 49
0.0
140
0.0
141
0.0
142
1.0
143
1.0
 70
   688
 72
     0
 73
     0
 74
     5
  7

 75
    16
147
1.0
148
0.0
149
0.0
100
AcDbLayout
  1
Layout2
 70
     1
 71
     2
 10
0.0
 20
0.0
 11
0.0
 21
0.0
 12
0.0
 22
0.0
 32
0.0
 14
0.0
 24
0.0
 34
0.0
 15
0.0
 25
0.0
 35
0.0
146
0.0
 13
0.0
 23
0.0
 33
0.0
 16
1.0
 26
0.0
 36
0.0
 17
0.0
 27
1.0
 37
0.0
 76
     0
330
23
  0
LAYOUT
  5
22
102
{ACAD_REACTORS
330
1A
102
}
330
1A
100
AcDbPlotSettings
  1

  2
none_device
  4
ANSI_A_(11.00_x_8.50_Inches)
  6

 40
6.35
 41
19.05
 42
6.35000508
 43
19.05000254
 44
279.4
 45
215.9
 46
114.1313697153
 47
105.7021772889
 48
0.0
 49
0.0
140
0.0
141
0.0
142
0.6470918359
143
1.0
 70
  1696
 72
     0
 73
     0
 74
     0
  7

 75
     0
147
0.5913241897
148
0.0
149
0.0
100
AcDbLayout
  1
Model
 70
     1
 71
     0
 10
0.0
 20
0.0
 11
12.0
 21
9.0
 12
0.0
 22
0.0
 32
0.0
 14
-7.2452793442
 24
-7.3088454925
 34
0.0
 15
9.583862048
 25
5.2643038798
 35
0.0
146
0.0
 13
0.0
 23
0.0
 33
0.0
 16
1.0
 26
0.0
 36
0.0
 17
0.0
 27
1.0
 37
0.0
 76
     0
330
1F
331
29
  0
MLINESTYLE
  5
18
102
{ACAD_REACTORS
330
17
102
}
330
17
100
AcDbMlineStyle
  2
Standard
 70
     0
  3

 62
   256
 51
90.0
 52
90.0
 71
     2
 49
0.5
 62
   256
  6
BYLAYER
 49
-0.5
 62
   256
  6
BYLAYER
  0
ACDBPLACEHOLDER
  5
F
102
{ACAD_REACTORS
330
E
102
}
330
E
  0
ENDSEC
  0
EOF
