%FSTAX24Y24*%
%MOIN*%
%SFA1B1*%

%IPPOS*%
%ADD32C,0.003900*%
%LNtoasterbigboard-1*%
%LPD*%
G54D32*
X05757Y111863D02*
X058239D01*
X05757Y112237D02*
X058239D01*
Y111863D02*
Y112237D01*
X05757Y111863D02*
Y112237D01*
X108415D02*
X109085D01*
X108415Y111863D02*
X109085D01*
X108415D02*
Y112237D01*
X109085Y111863D02*
Y112237D01*
X082515Y042663D02*
X083185D01*
X082515Y043037D02*
X083185D01*
Y042663D02*
Y043037D01*
X082515Y042663D02*
Y043037D01*
X084365Y043287D02*
X085035D01*
X084365Y042913D02*
X085035D01*
X084365D02*
Y043287D01*
X085035Y042913D02*
Y043287D01*
X088865Y042663D02*
X089535D01*
X088865Y043037D02*
X089535D01*
Y042663D02*
Y043037D01*
X088865Y042663D02*
Y043037D01*
X090515Y043237D02*
X091185D01*
X090515Y042863D02*
X091185D01*
X090515D02*
Y043237D01*
X091185Y042863D02*
Y043237D01*
X082656Y043413D02*
X083344D01*
X082656Y043787D02*
X083344D01*
Y043413D02*
Y043787D01*
X082656Y043413D02*
Y043787D01*
X088856Y043463D02*
X089544D01*
X088856Y043837D02*
X089544D01*
Y043463D02*
Y043837D01*
X088856Y043463D02*
Y043837D01*
X080415Y039267D02*
Y040133D01*
X080985Y039267D02*
Y040133D01*
X080415Y039237D02*
X080985D01*
X080415Y040163D02*
X080985D01*
X086615Y038767D02*
Y039633D01*
X087185Y038767D02*
Y039633D01*
X086615Y038737D02*
X087185D01*
X086615Y039663D02*
X087185D01*
X084031Y044404D02*
X085369D01*
X084031Y043696D02*
X085369D01*
X084031D02*
Y044404D01*
X085369Y043696D02*
Y044404D01*
X090181Y044354D02*
X091519D01*
X090181Y043646D02*
X091519D01*
X090181D02*
Y044354D01*
X091519Y043646D02*
Y044354D01*
X05757Y112937D02*
X058239D01*
X05757Y112563D02*
X058239D01*
X05757D02*
Y112937D01*
X058239Y112563D02*
Y112937D01*
X10842Y112563D02*
X109089D01*
X10842Y112937D02*
X109089D01*
Y112563D02*
Y112937D01*
X10842Y112563D02*
Y112937D01*
M02*