%FSTAX24Y24*%
%MOIN*%
%SFA1B1*%

%IPPOS*%
%ADD36R,0.035600X0.043400*%
%ADD37R,0.149700X0.080800*%
%ADD38R,0.039500X0.043400*%
%ADD39R,0.063100X0.051300*%
%ADD40R,0.051300X0.074900*%
%ADD41R,0.077700X0.168200*%
%ADD42R,0.168200X0.077700*%
%ADD43R,0.047800X0.047800*%
%ADD44R,0.094600X0.059200*%
%ADD45O,0.165500X0.155600*%
%ADD46O,0.136000X0.145800*%
%ADD47O,0.145800X0.136000*%
%ADD48C,0.208000*%
%ADD49R,0.608000X0.208000*%
%ADD50C,0.058000*%
%LNtoasterbigboard-1*%
%LPD*%
G54D36*
X090555Y04305D03*
X091145D03*
X089495Y04285D03*
X088905D03*
X084405Y0431D03*
X084995D03*
X083145Y04285D03*
X082555D03*
X089205Y02118D03*
X088615D03*
X083205Y0211D03*
X083795D03*
X088605Y0204D03*
X089195D03*
X083795D03*
X083205D03*
G54D37*
X0871Y02937D03*
Y03143D03*
X08535Y02937D03*
Y03143D03*
G54D38*
X088924Y04365D03*
X089476D03*
X082724Y0436D03*
X083276D03*
G54D39*
X0869Y039515D03*
Y038885D03*
X0808Y039515D03*
Y038885D03*
G54D40*
X090318Y044D03*
X091382D03*
X084169Y04405D03*
X085232D03*
G54D41*
X088199Y040501D03*
Y038702D03*
X081949Y040501D03*
Y038702D03*
G54D42*
X088648Y041851D03*
X082398D03*
G54D43*
X091801Y040052D03*
Y038249D03*
Y03915D03*
X089998Y041851D03*
Y038249D03*
X0909D03*
X091801Y041851D03*
X085551Y040052D03*
Y038249D03*
Y03915D03*
X083748Y041851D03*
Y038249D03*
X08465D03*
X085551Y041851D03*
G54D44*
X0909Y033125D03*
Y031275D03*
G54D45*
X0862Y025841D03*
G54D46*
X08805Y02466D03*
G54D47*
X0862Y023479D03*
G54D48*
X050208Y105865D03*
X040427D03*
X063299D03*
X07308D03*
X050208Y077115D03*
X040427D03*
X063299D03*
X07308D03*
X050208Y048365D03*
X040427D03*
X063299D03*
X07308D03*
X114799Y105865D03*
X124579D03*
X101707D03*
X091927D03*
X114799Y077115D03*
X124579D03*
X101707D03*
X091927D03*
X114799Y048365D03*
X124579D03*
X101707D03*
X091927D03*
G54D49*
X0281Y04875D03*
X1399D03*
Y08675D03*
X0281D03*
X1399Y02625D03*
X0281Y10925D03*
X1399D03*
X0281Y02625D03*
G54D50*
X0785Y0408D03*
X0503Y0407D03*
X094709Y04095D03*
X1146D03*
M02*