%FSTAX24Y24*%
%MOIN*%
%SFA1B1*%

%IPPOS*%
%ADD36C,0.003900*%
%LNtoasterbigboard-1*%
%LPD*%
G54D36*
X09085Y042863D02*
Y043237D01*
X090663Y04305D02*
X091037D01*
X090378Y043267D02*
X091322D01*
X090378Y042833D02*
X091322D01*
X090378D02*
Y043267D01*
X091322Y042833D02*
Y043267D01*
X0892Y042663D02*
Y043037D01*
X089013Y04285D02*
X089387D01*
X088728Y042633D02*
X089672D01*
X088728Y043067D02*
X089672D01*
Y042633D02*
Y043067D01*
X088728Y042633D02*
Y043067D01*
X0847Y042913D02*
Y043287D01*
X084513Y0431D02*
X084887D01*
X084228Y043317D02*
X085172D01*
X084228Y042883D02*
X085172D01*
X084228D02*
Y043317D01*
X085172Y042883D02*
Y043317D01*
X08285Y042663D02*
Y043037D01*
X082663Y04285D02*
X083037D01*
X082378Y042633D02*
X083322D01*
X082378Y043067D02*
X083322D01*
Y042633D02*
Y043067D01*
X082378Y042633D02*
Y043067D01*
X08891Y020993D02*
Y021367D01*
X088723Y02118D02*
X089097D01*
X088438Y020963D02*
X089382D01*
X088438Y021397D02*
X089382D01*
Y020963D02*
Y021397D01*
X088438Y020963D02*
Y021397D01*
X0835Y020913D02*
Y021287D01*
X083313Y0211D02*
X083687D01*
X083028Y021317D02*
X083972D01*
X083028Y020883D02*
X083972D01*
X083028D02*
Y021317D01*
X083972Y020883D02*
Y021317D01*
X088728Y043433D02*
Y043867D01*
X089672Y043433D02*
Y043867D01*
X088728D02*
X089672D01*
X088728Y043433D02*
X089672D01*
X089013Y04365D02*
X089387D01*
X0892Y043463D02*
Y043837D01*
X082528Y043383D02*
Y043817D01*
X083472Y043383D02*
Y043817D01*
X082528D02*
X083472D01*
X082528Y043383D02*
X083472D01*
X082813Y0436D02*
X083187D01*
X083Y043413D02*
Y043787D01*
X086585Y039781D02*
X087215D01*
X086585Y038619D02*
X087215D01*
Y038649D02*
Y039751D01*
X086585Y038649D02*
Y039751D01*
X0869Y039003D02*
Y039397D01*
X086703Y0392D02*
X087097D01*
X080485Y039781D02*
X081115D01*
X080485Y038619D02*
X081115D01*
Y038649D02*
Y039751D01*
X080485Y038649D02*
Y039751D01*
X0808Y039003D02*
Y039397D01*
X080603Y0392D02*
X080997D01*
X09085Y043803D02*
Y044197D01*
X090653Y044D02*
X091047D01*
X090063Y044374D02*
X091637D01*
X090063Y043626D02*
X091637D01*
X090063D02*
Y044374D01*
X091637Y043626D02*
Y044374D01*
X0847Y043853D02*
Y044247D01*
X084503Y04405D02*
X084897D01*
X083913Y044424D02*
X085487D01*
X083913Y043676D02*
X085487D01*
X083913D02*
Y044424D01*
X085487Y043676D02*
Y044424D01*
X0889Y020213D02*
Y020587D01*
X088713Y0204D02*
X089087D01*
X088428Y020617D02*
X089372D01*
X088428Y020183D02*
X089372D01*
X088428D02*
Y020617D01*
X089372Y020183D02*
Y020617D01*
X0835Y020213D02*
Y020587D01*
X083313Y0204D02*
X083687D01*
X083028Y020183D02*
X083972D01*
X083028Y020617D02*
X083972D01*
Y020183D02*
Y020617D01*
X083028Y020183D02*
Y020617D01*
M02*