%FSTAX24Y24*%
%MOIN*%
%SFA1B1*%

%IPPOS*%
%AMD17*
4,1,4,0.042500,-0.011100,0.034300,0.027400,-0.042500,0.011100,-0.034300,-0.027400,0.042500,-0.011100,0.0*
%
%AMD18*
4,1,4,0.041400,-0.014800,0.036600,0.024300,-0.041400,0.014800,-0.036600,-0.024300,0.041400,-0.014800,0.0*
%
%AMD28*
4,1,4,-0.017600,-0.037800,0.037800,-0.017600,0.017600,0.037800,-0.037800,0.017600,-0.017600,-0.037800,0.0*
%
%ADD10R,0.035400X0.027600*%
%ADD11R,0.048000X0.019700*%
%ADD12R,0.023600X0.019700*%
%ADD13R,0.110000X0.029100*%
%ADD14R,0.059100X0.023600*%
%ADD15R,0.050000X0.080000*%
%ADD16R,0.027600X0.035400*%
G04~CAMADD=17~9~0.0~0.0~394.0~787.0~0.0~0.0~0~0.0~0.0~0.0~0.0~0~0.0~0.0~0.0~0.0~0~0.0~0.0~0.0~282.0~850.0~547.0*
%ADD17D17*%
G04~CAMADD=18~9~0.0~0.0~394.0~787.0~0.0~0.0~0~0.0~0.0~0.0~0.0~0~0.0~0.0~0.0~0.0~0~0.0~0.0~0.0~277.0~828.0~485.0*
%ADD18D18*%
%ADD19R,0.129900X0.129900*%
%ADD20O,0.009800X0.033500*%
%ADD21O,0.033500X0.009800*%
%ADD22C,0.020000*%
%ADD23C,0.007000*%
%ADD24C,0.015700*%
%ADD25C,0.010000*%
%ADD26C,0.015000*%
%ADD27C,0.050000*%
G04~CAMADD=28~10~0.0~590.4~0.0~0.0~0.0~0.0~0~0.0~0.0~0.0~0.0~0~0.0~0.0~0.0~0.0~0~0.0~0.0~0.0~200.0~590.4~0.0*
%ADD28D28*%
%ADD29C,0.059100*%
%ADD30R,0.059100X0.059100*%
%ADD31R,0.059100X0.059100*%
%ADD32C,0.149000*%
%ADD33C,0.035000*%
%ADD34C,0.026000*%
%LNarmboardbeta-1*%
%LPD*%
G54D10*
X03888Y025615D03*
Y026205D03*
X03732Y028075D03*
Y028665D03*
X03714Y029985D03*
Y030575D03*
X03999Y023645D03*
Y024235D03*
X0378Y028065D03*
Y028655D03*
X04803Y016345D03*
Y015755D03*
X04452Y020175D03*
Y020765D03*
X0384Y026225D03*
Y025635D03*
X034084Y030379D03*
Y030969D03*
X04803Y016785D03*
Y017375D03*
X04353Y020185D03*
Y020775D03*
X04404Y020185D03*
Y020775D03*
X03614Y026675D03*
Y026085D03*
X03515Y028255D03*
Y028845D03*
X04096Y018415D03*
Y019005D03*
X04056Y020865D03*
Y020275D03*
X03711Y023925D03*
Y024515D03*
X03951Y024235D03*
Y023645D03*
X03666Y029995D03*
Y030585D03*
G54D11*
X034824Y030216D03*
X035856Y03059D03*
Y030216D03*
Y030964D03*
X034824D03*
X036614Y025976D03*
X037646Y02635D03*
Y025976D03*
Y026724D03*
X036614D03*
X035714Y028176D03*
X036746Y02855D03*
Y028176D03*
Y028924D03*
X035714D03*
X037834Y023876D03*
X038866Y02425D03*
Y023876D03*
Y024624D03*
X037834D03*
G54D12*
X038423Y02659D03*
X038817D03*
X036693Y03089D03*
X037087D03*
X039583Y02458D03*
X039977D03*
X037343Y02901D03*
X037737D03*
X048447Y0225D03*
X048053D03*
G54D13*
X05253Y02065D03*
X05093Y02015D03*
X05253D03*
Y01965D03*
X05093D03*
Y01915D03*
X05253D03*
Y01865D03*
X05093D03*
X05253Y01815D03*
X05093D03*
Y01765D03*
X05253D03*
Y01715D03*
X05093D03*
Y02065D03*
G54D14*
X049444Y017546D03*
Y018294D03*
X048736Y01792D03*
X049296Y016514D03*
Y015766D03*
X050004Y01614D03*
G54D15*
X04691Y01614D03*
X04531D03*
X04691Y01794D03*
X04531D03*
G54D16*
X048705Y01702D03*
X049295D03*
X048775Y02586D03*
X048185D03*
X049825D03*
X049235D03*
X048775Y02537D03*
X048185D03*
X049825Y02538D03*
X049235D03*
X03528Y031724D03*
X034689D03*
X037455Y02525D03*
X038045D03*
X036355Y02745D03*
X036945D03*
X035489Y029574D03*
X03608D03*
X039595Y01699D03*
X039005D03*
X038845Y02275D03*
X038255D03*
G54D17*
X039349Y021729D03*
X037424Y021319D03*
X039464Y02119D03*
X037538Y02078D03*
X037653Y020241D03*
X039578Y02065D03*
G54D18*
X039835Y019175D03*
X037881Y018935D03*
X039902Y018628D03*
X037948Y018388D03*
X038016Y017841D03*
X039969Y018081D03*
G54D19*
X04834Y02095D03*
G54D20*
X047651Y021924D03*
X047848D03*
X048045D03*
X048242D03*
X048438D03*
X048635D03*
X048832D03*
X049029D03*
Y019976D03*
X048832D03*
X048635D03*
X048438D03*
X048242D03*
X048045D03*
X047848D03*
X047651D03*
G54D21*
X049314Y021639D03*
Y021442D03*
Y021245D03*
Y021048D03*
Y020852D03*
Y020655D03*
Y020458D03*
Y020261D03*
X047366D03*
Y020458D03*
Y020655D03*
Y020852D03*
Y021048D03*
Y021245D03*
Y021442D03*
Y021639D03*
G54D22*
X038423Y026953D02*
X03843Y02696D01*
X038423Y02659D02*
Y026953D01*
X0384Y026225D02*
X038423Y026248D01*
Y02659*
X04176Y025185D02*
Y02736D01*
X04106Y02806D02*
X04176Y02736D01*
X037646Y02635D02*
X03806D01*
X038185Y026225D02*
X0384D01*
X03806Y02635D02*
X038185Y026225D01*
X03959Y024587D02*
Y02494D01*
X039583Y02458D02*
X03959Y024587D01*
X03951Y024507D02*
X039583Y02458D01*
X03951Y024235D02*
Y024507D01*
X04176Y025185D02*
X04191Y025035D01*
X041963*
X038866Y02425D02*
X039495D01*
X03951Y024235*
X035509Y026055D02*
X03617D01*
X03711Y023925D02*
X037135Y0239D01*
X03743*
X037454Y023876*
X037834*
X037461Y024515D02*
X03757Y024624D01*
X037834*
X03711Y024515D02*
X037461D01*
X036525Y023925D02*
X03711D01*
X036525D02*
X03687Y02358D01*
X0363Y02415D02*
X036525Y023925D01*
X035725Y026675D02*
X03614D01*
X0357Y0267D02*
X035725Y026675D01*
X03614D02*
X036189Y026724D01*
X036614*
X03614Y026085D02*
X03617Y026055D01*
X036249Y025976*
X036614*
X036655Y03059D02*
D01*
X035856D02*
X036655D01*
X03666Y030585D01*
X036693Y030628D02*
Y03089D01*
X0367Y030897*
Y03121*
X034084Y030969D02*
X034819D01*
X034824Y030964*
X034084Y030379D02*
X034247Y030216D01*
X034824*
X037315Y02867D02*
X03732Y028665D01*
X03713Y02867D02*
X037315D01*
X03701Y02855D02*
X03713Y02867D01*
X036746Y02855D02*
X03701D01*
X03515Y028255D02*
X035229Y028176D01*
X035714*
X03515Y028845D02*
X035229Y028924D01*
X035714*
X03734Y02931D02*
X037343Y029307D01*
Y02901D02*
Y029307D01*
Y028718D02*
Y02901D01*
X046881Y023124D02*
Y025112D01*
X045994Y024225D02*
X046881Y025112D01*
X049825Y02538D02*
Y02586D01*
X047977Y026207D02*
X049803D01*
X049825Y026185*
Y02586D02*
Y026185D01*
X046881Y025112D02*
X047977Y026207D01*
X048447Y0225D02*
X048497Y02255D01*
X04879*
X04803Y016345D02*
Y016785D01*
X04823Y01783D02*
Y01792D01*
Y01783D02*
X048377Y017683D01*
Y017033D02*
Y017683D01*
Y017033D02*
X04839Y01702D01*
X048705*
X04823Y01792D02*
X048736D01*
X04823D02*
Y01833D01*
X048053Y0225D02*
X04806Y022507D01*
X04714Y022865D02*
X047915D01*
X03364Y03082D02*
X033789Y030969D01*
X034084*
X04434Y02231D02*
Y022528D01*
X044314Y022554D02*
X04434Y022528D01*
Y02231D02*
X04618D01*
X0465Y02199*
X046881Y023124D02*
X04714Y022865D01*
X05165Y02341D02*
X0524D01*
X05243Y02338D02*
Y02467D01*
X048832Y01542D02*
X05393D01*
X04803Y016345D02*
X04837D01*
X048435Y015817D02*
X048832Y01542D01*
X048435Y015817D02*
Y01628D01*
X04837Y016345D02*
X048435Y01628D01*
X04878Y01596D02*
X048974Y015766D01*
X049296*
X05342Y02065D02*
X053725Y020345D01*
Y017443D02*
Y020345D01*
X05253Y02065D02*
X05342D01*
X03449Y031724D02*
X034689D01*
X034276Y03151D02*
X03449Y031724D01*
X033572Y03151D02*
X034276D01*
X03325Y031188D02*
X033572Y03151D01*
X04106Y02806D02*
Y029129D01*
X039766Y029879D02*
X040309D01*
X04106Y029129*
X04837Y016345D02*
X048635D01*
X054075Y015565D02*
Y017093D01*
X036327Y025127D02*
X036495Y025295D01*
X03455Y02935D02*
X034774Y029574D01*
X03425Y028655D02*
Y029D01*
X034227Y029023D02*
X03455Y029345D01*
X034227Y029023D02*
X03425Y029D01*
X03525Y027D02*
X0357Y02745D01*
X03465Y028255D02*
X03515D01*
X0353Y026155D02*
Y0269D01*
X05344Y02067D02*
Y02237D01*
X05243Y02338D02*
X05344Y02237D01*
X05342Y02065D02*
X05344Y02067D01*
X049986Y018294D02*
X04999Y01829D01*
X049444Y018294D02*
X049986D01*
X034655Y027545D02*
X0353Y0269D01*
X034655Y027545D02*
Y02825D01*
X03465Y028255D02*
X034655Y02825D01*
X053725Y017443D02*
X054075Y017093D01*
X048804Y016514D02*
X049296D01*
X048635Y016345D02*
X048804Y016514D01*
X04834Y02095D02*
X048635Y021245D01*
X038845Y02306D02*
X038905Y02312D01*
X04834Y021422D02*
X048438Y021521D01*
X035455Y026D02*
X036327Y025127D01*
X0363Y0251D02*
X036327Y025127D01*
X036495Y025295D02*
X03741D01*
X037455Y02525*
X037Y02495D02*
X0371Y02485D01*
Y024545D02*
Y02485D01*
X0353Y026155D02*
X035455Y026D01*
X035509Y026055*
X0353Y0269D02*
Y02695D01*
X03325Y03D02*
X034227Y029023D01*
X03455Y029345D02*
Y02935D01*
X03525Y027D02*
X0353Y02695D01*
X0357Y02745D02*
X036355D01*
X03325Y03D02*
Y0304D01*
X034774Y029574D02*
X035489D01*
X034655Y028845D02*
X03515D01*
X03465Y02885D02*
X034655Y028845D01*
X03325Y0304D02*
X034063D01*
X034084Y030379*
X03325Y0304D02*
Y031188D01*
X039706Y021842D02*
X040342D01*
X05393Y01542D02*
X054075Y015565D01*
X05353Y01715D02*
X05373Y01695D01*
X0418Y01805D02*
X04302D01*
X04423*
X04823Y01833D02*
X04855Y01865D01*
X05105*
X05089Y01816D02*
Y01866D01*
X0363Y02415D02*
Y0251D01*
X04353Y020775D02*
X04404D01*
X038845Y02275D02*
Y02306D01*
X038905Y02312D02*
X0393D01*
X04754Y01603D02*
Y01668D01*
X04724Y01698D02*
X04754Y01668D01*
X04558Y01698D02*
X04724D01*
X04535Y01675D02*
X04558Y01698D01*
X04535Y01618D02*
Y01675D01*
X04531Y01614D02*
X04535Y01618D01*
X05105Y01715D02*
X05253D01*
X05353*
X04754Y01603D02*
X047815Y015755D01*
X04803*
X05113Y02065D02*
X05253D01*
X03425Y028655D02*
X03465Y028255D01*
X03687Y02251D02*
Y02358D01*
X039835Y019175D02*
X040285D01*
X04048Y01937*
X04096Y018415D02*
X041325Y01805D01*
X0418*
X038845Y02275D02*
X04035D01*
X037331Y020241D02*
X037653D01*
X03719Y0201D02*
X037331Y020241D01*
X04054Y01936D02*
Y01937D01*
X040342Y021842D02*
X04055Y02205D01*
X04743Y01542D02*
X048832D01*
X04729Y01556D02*
X04743Y01542D01*
X03863Y01556D02*
X04729D01*
X0379Y01629D02*
X03863Y01556D01*
X040545Y02026D02*
X04056Y020275D01*
X04015Y02026D02*
X040545D01*
X03994Y02005D02*
X04015Y02026D01*
X0379Y01699D02*
X039005D01*
X0379Y01629D02*
Y01699D01*
X03719Y01941D02*
Y0201D01*
Y01941D02*
X037297Y019303D01*
Y018667D02*
X037364Y0186D01*
Y018122D02*
Y0186D01*
X03744Y01738D02*
X03783Y01699D01*
X0379*
X037621Y017841D02*
X038016D01*
X037364Y018122D02*
X03744Y018046D01*
Y01738D02*
Y01766D01*
Y018046*
Y01766D02*
X037621Y017841D01*
X037297Y018667D02*
Y019153D01*
X037794Y01965D02*
X03878D01*
X038875Y019745*
X037297Y019153D02*
Y019303D01*
Y019153D02*
X037794Y01965D01*
X03912Y02005D02*
X03994D01*
X038875Y019745D02*
Y019805D01*
X03912Y02005*
X04035Y02275D02*
X04055Y02255D01*
Y02205D02*
Y02255D01*
X041963Y025035D02*
X042165Y024833D01*
Y02478D02*
Y024833D01*
Y02478D02*
X04272Y024225D01*
X045994*
X04048Y01937D02*
X04054D01*
X036655Y03059D02*
X036693Y030628D01*
X04404Y020775D02*
X04451D01*
X049825Y02538D02*
X050325D01*
X05041Y025295*
X05208Y02502D02*
X05243Y02467D01*
X05041Y025295D02*
X051065D01*
X05134Y02502*
X05208*
G54D23*
X04964Y024414D02*
X04965Y024404D01*
X038817Y026433D02*
X03888Y02637D01*
Y026205D02*
Y02637D01*
X038817Y026433D02*
Y02659D01*
X04064D02*
X04153Y0257D01*
X038817Y02659D02*
X04064D01*
X038004Y025976D02*
X0381Y02588D01*
X037646Y025976D02*
X038004D01*
X03886Y025635D02*
X03888Y025615D01*
X0384Y025635D02*
X03886D01*
X038135D02*
X0384D01*
X0381Y02567D02*
X038135Y025635D01*
X0381Y02567D02*
Y02588D01*
X039977Y024248D02*
X03999Y024235D01*
X039977Y024248D02*
Y02458D01*
X040475Y024235D02*
X04049Y02422D01*
X03999Y024235D02*
X040475D01*
X03823Y0234D02*
X04038D01*
X04063Y02365*
X04109Y021696D02*
X0416Y021186D01*
X04094Y02145D02*
X04127Y02112D01*
X04086Y01979D02*
Y02128D01*
X04116Y020238D02*
X04174Y020818D01*
X04116Y019738D02*
Y020238D01*
X03973Y02533D02*
X04062D01*
X0408Y025548D02*
X04125Y025098D01*
X04139Y02402D02*
Y025156D01*
X0411Y025446D02*
X04139Y025156D01*
X0408Y025548D02*
Y025746D01*
X040606Y02594D02*
X0408Y025746D01*
X03941Y02565D02*
X03973Y02533D01*
X0411Y025446D02*
Y02567D01*
X03999Y023645D02*
D01*
X03951D02*
X03999D01*
X039174Y023876D02*
X0392Y02385D01*
Y02371D02*
Y02385D01*
Y02371D02*
X039265Y023645D01*
X03951*
X038866Y023876D02*
X039174D01*
X03925Y02466D02*
Y02505D01*
X03905Y02525D02*
X03925Y02505D01*
X039214Y024624D02*
X03925Y02466D01*
X038866Y024624D02*
X039214D01*
X040374Y02594D02*
X040606D01*
X040074Y02564D02*
X040374Y02594D01*
X036945Y02745D02*
X03744D01*
X037646Y027244*
Y026724D02*
Y027244D01*
X03714Y030575D02*
X037615D01*
X03765Y03054*
X03714Y030095D02*
X03716D01*
X036295Y029995D02*
X03666D01*
X036074Y030216D02*
X036295Y029995D01*
X035856Y030216D02*
X036074D01*
X03713Y029995D02*
X03714Y029985D01*
X03666Y029995D02*
X03713D01*
X03622Y030964D02*
X03639Y031134D01*
X035856Y030964D02*
X03622D01*
X03639Y031134D02*
Y0315D01*
X03528Y031724D02*
X036166D01*
X03639Y0315*
X037087Y03089D02*
Y03092D01*
Y030648D02*
Y03089D01*
X037737Y028873D02*
X0378Y02881D01*
Y028655D02*
Y02881D01*
X037737Y028873D02*
Y02901D01*
X03777Y028685D02*
X0378Y028655D01*
X03608Y029574D02*
X03668D01*
X0371Y029154*
Y028924D02*
Y029154D01*
X037165Y028065D02*
X03728D01*
X036746Y028176D02*
X037054D01*
X037165Y028065*
X037805Y02862D02*
X03825D01*
X03777Y028065D02*
D01*
X03728D02*
X03777D01*
X036746Y028924D02*
X0371D01*
X05Y02001D02*
X05014Y02015D01*
X05093*
X05Y01963D02*
Y02001D01*
X049314Y020458D02*
X049558D01*
X04971Y02061*
X0499*
X049539Y020655D02*
X049784Y0209D01*
X049314Y020655D02*
X049539D01*
X049784Y0209D02*
X050122D01*
X05057Y021348*
X050064Y02104D02*
X05043Y021406D01*
X049323Y02104D02*
X050064D01*
X050006Y02118D02*
X05029Y021464D01*
X049709Y021245D02*
X049774Y02118D01*
X050006*
X049314Y021048D02*
X049323Y02104D01*
X05057Y021348D02*
Y02216D01*
X04965Y023026D02*
X05001Y022666D01*
Y021976D02*
Y022666D01*
X049673Y021639D02*
X05001Y021976D01*
X049314Y021639D02*
X049673D01*
X05015Y02172D02*
Y022724D01*
X04989Y02146D02*
X05015Y02172D01*
X04965Y023026D02*
Y02341D01*
X05029Y021464D02*
Y022782D01*
X05011Y022764D02*
X05015Y022724D01*
X05025Y022822D02*
X05029Y022782D01*
X05043Y021406D02*
Y02227D01*
X05057Y02216D02*
X05121Y0228D01*
Y02486*
X05043Y02227D02*
X05107Y02291D01*
Y024802*
X049314Y021245D02*
X049709D01*
X049314Y021442D02*
X049872D01*
X04973Y02228D02*
Y02255D01*
X0497Y02225D02*
X04973Y02228D01*
X049099Y02225D02*
X0497D01*
X05025Y022822D02*
Y023804D01*
X05011Y022764D02*
Y023746D01*
X049872Y021442D02*
X04989Y02146D01*
X04738Y01943D02*
X047651Y019701D01*
X04711Y01943D02*
X04738D01*
X047298Y01915D02*
X047848Y0197D01*
X04658Y01931D02*
X04674Y01915D01*
X047298*
X04691Y01794D02*
X04717D01*
X0475Y01827*
X04754*
X05065Y02341D02*
Y02364D01*
X04954Y023953D02*
X049903D01*
X04924Y02425D02*
Y024576D01*
Y02425D02*
X049243D01*
X04954Y023953*
X049314Y020261D02*
X049479D01*
X05253Y02015D02*
X05255Y02013D01*
X05338*
X05326Y01865D02*
X05336Y01855D01*
X05253Y01865D02*
X05326D01*
X04691Y02149D02*
X046958Y021442D01*
X047366*
X04571Y02011D02*
X04577Y02005D01*
X04571Y02011D02*
Y02078D01*
X0445Y01974D02*
X04452Y01976D01*
Y020175*
X04402Y01967D02*
X04404Y01969D01*
Y020185*
X0435Y01967D02*
X04353Y0197D01*
Y020185*
X04698Y02065D02*
Y020748D01*
X03991Y02564D02*
X040074D01*
X041912Y02171D02*
X046616D01*
X04678Y021874*
X04673Y022156D02*
Y02248D01*
X046878Y022628D02*
X04745D01*
X047848Y021924D02*
Y02223D01*
X04678Y021874D02*
Y022106D01*
X04673Y022156D02*
X04678Y022106D01*
X04673Y02248D02*
X046878Y022628D01*
X04745D02*
X047848Y02223D01*
X04167Y021952D02*
X041912Y02171D01*
X04153Y021894D02*
X04189Y021534D01*
X045598D02*
X045922Y02121D01*
X04189Y021534D02*
X045598D01*
X04878Y02533D02*
X049239D01*
X04813Y01899D02*
X048635Y019495D01*
X049992Y024062D02*
X05025Y023804D01*
X04701Y021806D02*
X047177Y021639D01*
X04701Y021806D02*
Y02229D01*
X048832Y022181D02*
X049201Y02255D01*
X048832Y021924D02*
Y022181D01*
X049201Y02255D02*
X04927D01*
X049029Y02218D02*
X049099Y02225D01*
X049029Y021924D02*
Y02218D01*
X048242Y021924D02*
Y0223D01*
X048048D02*
X048242D01*
X05324Y01915D02*
X05336Y01903D01*
X05253Y01915D02*
X05324D01*
X05325Y01965D02*
X05338Y01952D01*
X05253Y01965D02*
X05325D01*
X045922Y02121D02*
X047046D01*
X047081Y021245*
X04709Y020072D02*
Y020362D01*
X04627Y01976D02*
X046778D01*
X04709Y020072*
X04695Y02013D02*
Y02042D01*
X046212Y0199D02*
X04672D01*
X04695Y02013*
Y02042D02*
X047185Y020655D01*
X047366*
X041508Y01939D02*
X045702D01*
X046212Y0199*
X04116Y019738D02*
X041508Y01939D01*
X04188Y02076D02*
Y021346D01*
X04144Y02032D02*
X04188Y02076D01*
X04144Y02005D02*
Y02032D01*
X04174Y020818D02*
Y021244D01*
X04125Y021734D02*
X04174Y021244D01*
X04102Y01968D02*
X04145Y01925D01*
X04102Y01968D02*
Y020296D01*
X04145Y01925D02*
X04576D01*
X048438Y019694D02*
Y019976D01*
X04768Y0187D02*
X04785Y01887D01*
Y019106*
X048438Y019694*
X047414Y01887D02*
X048242Y019698D01*
Y019976*
X04708Y01871D02*
X04724Y01887D01*
X047414*
X047356Y01901D02*
X048045Y019699D01*
Y019976*
X04488Y01857D02*
X04532Y01901D01*
X047356*
X047848Y0197D02*
Y019976D01*
X04576Y01925D02*
X04627Y01976D01*
X04709Y020362D02*
X047186Y020458D01*
X047366*
X047081Y021245D02*
X047366D01*
X047082Y021048D02*
X047366D01*
X046864Y02083D02*
X047082Y021048D01*
X04698Y020748D02*
X047084Y020852D01*
X047366*
X04667Y02034D02*
X04698Y02065D01*
X0467Y02083D02*
X046864D01*
X04964Y024414D02*
Y02465D01*
X038016Y018856D02*
X038051Y01882D01*
X04997Y01702D02*
Y0175D01*
X049924Y017546D02*
X04997Y0175D01*
X049444Y017546D02*
X049924D01*
X04997Y01702D02*
X05045Y01654D01*
Y01623D02*
Y01654D01*
X049295Y01702D02*
X04997D01*
X05036Y01614D02*
X05045Y01623D01*
X050004Y01614D02*
X05036D01*
X048438Y021924D02*
Y022298D01*
Y021521D02*
Y021924D01*
X038866Y024624D02*
X03889Y0246D01*
X038045Y02525D02*
X03905D01*
X039859Y02075D02*
X039909Y0208D01*
X048635Y021924D02*
Y0223D01*
X04844D02*
X048635D01*
X048045Y021924D02*
Y022405D01*
X048775Y02586D02*
X049235D01*
X036945Y02741D02*
Y02745D01*
X03608Y02953D02*
Y029574D01*
X03528Y031582D02*
Y031724D01*
X04423Y01605D02*
X04488Y0167D01*
X047651Y019701D02*
Y019976D01*
X047177Y021639D02*
X047366D01*
X04488Y0167D02*
Y01857D01*
X04139Y021836D02*
X04188Y021346D01*
X049992Y024062D02*
D01*
X05018Y023874D01*
X04965Y024404D02*
X049992Y024062D01*
X04965Y024404D02*
Y02441D01*
X04803Y017375D02*
Y01774D01*
X04754Y01823D02*
Y01827D01*
Y01823D02*
X04803Y01774D01*
X039595Y01699D02*
X04024D01*
X0368Y02139D02*
X03694Y02125D01*
Y02124D02*
Y02125D01*
X037344Y02124D02*
X037424Y021319D01*
X03694Y02124D02*
X037344D01*
X0368Y02139D02*
Y02197D01*
X03758Y02275*
X038255*
X03758D02*
X03823Y0234D01*
X039578Y02065D02*
X04004D01*
X04027Y02088*
X040545*
X04056Y020865*
X040719Y018081D02*
X04077Y01803D01*
Y01752D02*
Y01803D01*
X039969Y018081D02*
X040719D01*
X04024Y01699D02*
X04077Y01752D01*
X037881Y018935D02*
X038565D01*
X03943Y0198*
X04102Y020296D02*
X0416Y020876D01*
Y021186*
X04096Y019005D02*
Y01928D01*
X04086Y01938D02*
X04096Y01928D01*
X0408Y02134D02*
X04086Y02128D01*
X03943Y0198D02*
X04085D01*
X04086Y01979*
Y01938D02*
Y01979D01*
X0501Y02419D02*
Y02456D01*
Y02419D02*
X05065Y02364D01*
X049903Y023953D02*
X05011Y023746D01*
X049479Y020261D02*
X04965Y02009D01*
X048635Y019495D02*
Y019976D01*
X049029Y01976D02*
Y019976D01*
X049562Y019D02*
X04963D01*
X048832Y01973D02*
Y019976D01*
Y01973D02*
X049562Y019D01*
X049509Y01928D02*
X049746D01*
X050026Y019D02*
X05011D01*
X049746Y01928D02*
X050026Y019D01*
X049029Y01976D02*
X049509Y01928D01*
X04056Y02287D02*
Y02313D01*
Y02287D02*
X0408Y02263D01*
Y02134D02*
Y02263D01*
X04139Y021836D02*
Y02402D01*
X04167Y021952D02*
Y023904D01*
X04153Y021894D02*
Y023962D01*
Y0257*
X04125Y021734D02*
Y025098D01*
X04049Y02566D02*
X04109Y02506D01*
X04062Y02533D02*
X04094Y02501D01*
X04109Y021696D02*
Y02506D01*
X04094Y02145D02*
Y02501D01*
X048635Y021245D02*
Y021924D01*
X05098Y02509D02*
X05121Y02486D01*
X03777Y028655D02*
Y028685D01*
Y028655D02*
X037805Y02862D01*
X04924Y024576D02*
X049474Y02481D01*
X04985*
X0501Y02456*
X04865Y02441D02*
X04919Y02495D01*
X050922*
X05107Y024802*
X048959Y02509D02*
X05098D01*
X048957Y025088D02*
X048959Y02509D01*
X048269Y025088D02*
X048957D01*
X048185Y025172D02*
Y02537D01*
Y025172D02*
X048269Y025088D01*
X048179Y02537D02*
Y02544D01*
X04167Y02454D02*
X04182Y02469D01*
X04167Y023904D02*
Y02454D01*
G54D24*
X036614Y026724D02*
X036784D01*
X0356Y028934D02*
X035854D01*
G54D25*
X047944Y02586D02*
X048185D01*
X047705Y02541D02*
Y025621D01*
X047944Y02586*
X048438Y022298D02*
X04844Y0223D01*
Y0225*
G54D26*
X04806Y022507D02*
Y02272D01*
X047915Y022865D02*
X04806Y02272D01*
G54D27*
X05173Y02196D03*
Y01584D03*
G54D28*
X04045Y028D03*
G54D29*
X03951Y027658D03*
X040108Y02894D03*
X039168Y028598D03*
X039766Y029879D03*
X038826Y029537D03*
X04423Y01605D03*
Y01705D03*
X04302Y01605D03*
Y01705D03*
X0418Y01605D03*
Y01705D03*
X04765Y02341D03*
Y02441D03*
X04865Y02341D03*
Y02441D03*
X04965Y02341D03*
Y02441D03*
X05065Y02341D03*
Y02441D03*
X05165Y02341D03*
X0452Y02311D03*
X0435Y02308D03*
G54D30*
X04423Y01805D03*
X04302D03*
X0418D03*
G54D31*
X05165Y02441D03*
X0462Y02311D03*
X0425Y02308D03*
G54D32*
X05152Y02659D03*
X03744Y03264D03*
G54D33*
X04182Y02469D03*
X0367Y03121D03*
X03825Y02862D03*
X03765Y03054D03*
X03734Y02931D03*
X05Y01963D03*
X044314Y022554D03*
X04768Y0187D03*
X0465Y02199D03*
X04691Y02149D03*
X04667Y02034D03*
X05011Y019D03*
X05338Y01952D03*
X04571Y02078D03*
X04999Y01829D03*
X05338Y02013D03*
X05336Y01903D03*
Y01855D03*
X05373Y01695D03*
X04879Y02255D03*
X03959Y02494D03*
X0393Y02312D03*
X047868Y020478D03*
X04834D03*
X047705Y02541D03*
X0445Y01974D03*
X04577Y02005D03*
X037Y02495D03*
X0357Y0267D03*
X03843Y02696D03*
X03364Y03082D03*
X03465Y02885D03*
X048812Y02095D03*
X04834D03*
X047868D03*
X048812Y021422D03*
X04834D03*
X047868D03*
X04701Y02229D03*
X04878Y01596D03*
X04754Y01603D03*
Y01827D03*
X04658Y01931D03*
X04963Y019D03*
X04711Y01943D03*
X04813Y01899D03*
X04973Y02255D03*
X04927D03*
X0467Y02083D03*
X04708Y01871D03*
X04063Y02365D03*
X04144Y02005D03*
X03941Y02565D03*
X03991Y02564D03*
X04049Y02566D03*
X0411Y02567D03*
X04049Y02422D03*
X04989Y02146D03*
X03687Y02251D03*
X04054Y01936D03*
X04127Y02112D03*
X04965Y02009D03*
X0499Y02061D03*
X04056Y02313D03*
X04402Y01967D03*
X0435D03*
G54D34*
X044064Y021256D03*
Y020784D03*
X044536Y021256D03*
Y020784D03*
M02*