%FSTAX25Y25*%
%MOIN*%
%SFA1B1*%

%IPPOS*%
%AMD38*
4,1,4,0.003900,0.061700,-0.038400,-0.048500,-0.003900,-0.061700,0.038400,0.048500,0.003900,0.061700,0.0*
%
%AMD54*
4,1,4,0.042900,-0.020000,0.020000,0.042900,-0.042900,0.020000,-0.020000,-0.042900,0.042900,-0.020000,0.0*
%
%AMD55*
4,1,4,0.043300,-0.019300,0.019300,0.043300,-0.043300,0.019300,-0.019300,-0.043300,0.043300,-0.019300,0.0*
%
%ADD37C,0.010000*%
G04~CAMADD=38~9~0.0~0.0~1180.0~371.0~0.0~0.0~0~0.0~0.0~0.0~0.0~0~0.0~0.0~0.0~0.0~0~0.0~0.0~0.0~69.0~768.0~1233.0*
%ADD38D38*%
%ADD39R,0.031600X0.027700*%
%ADD40R,0.035600X0.043400*%
%ADD41R,0.056000X0.027700*%
%ADD42O,0.017800X0.041500*%
%ADD43O,0.041500X0.017800*%
%ADD44R,0.137900X0.137900*%
%ADD45R,0.043400X0.035600*%
%ADD46R,0.035600X0.047400*%
%ADD47R,0.027700X0.031600*%
%ADD48R,0.067100X0.031600*%
%ADD49R,0.088000X0.058000*%
%ADD50R,0.047400X0.035600*%
%ADD51C,0.078900*%
%ADD52R,0.067100X0.067100*%
%ADD53C,0.067100*%
G04~CAMADD=54~10~0.0~670.3~0.0~0.0~0.0~0.0~0~0.0~0.0~0.0~0.0~0~0.0~0.0~0.0~0.0~0~0.0~0.0~0.0~290.0~670.3~0.0*
%ADD54D54*%
G04~CAMADD=55~10~0.0~670.3~0.0~0.0~0.0~0.0~0~0.0~0.0~0.0~0.0~0~0.0~0.0~0.0~0.0~0~0.0~0.0~0.0~291.0~670.3~0.0*
%ADD55D55*%
%ADD56C,0.157000*%
%ADD57C,0.043000*%
%LNarmboardproto-1*%
%LPD*%
G54D37*
X09187Y063424D02*
D01*
D01*
G75*
G03X091963Y063365I0000915J0000414D01*
G74*G01*
D01*
D01*
G75*
G03X092071Y06335I0000652J0000733D01*
G74*G01*
X09187Y094696D02*
D01*
D01*
G75*
G03Y063424I0346200J-0156360D01*
G74*G01*
X096506Y080234D02*
D01*
D01*
G75*
G03X096474Y080308I-0001030J-0000006D01*
G74*G01*
X096385Y08195D02*
D01*
D01*
G75*
G03X096477Y08201I-0000002J0001009D01*
G74*G01*
X096474Y080308D02*
D01*
D01*
G75*
G03X0964Y08034I-0000722J-0000656D01*
G74*G01*
X096477Y08201D02*
D01*
D01*
G75*
G03X096506Y082081I-0000727J0000711D01*
G74*G01*
X091962Y094755D02*
D01*
D01*
G75*
G03X09187Y094696I-0000011J-0000994D01*
G74*G01*
X092071Y09477D02*
D01*
D01*
G75*
G03X091962Y094755I-0000425J-0000945D01*
G74*G01*
X101235Y086976D02*
D01*
D01*
G75*
G03X101259Y086958I0000670J0000644D01*
G74*G01*
X101654Y074973D02*
D01*
D01*
G75*
G03X101464Y075068I-0001433J-0000491D01*
G74*G01*
X103419Y068618D02*
D01*
D01*
G75*
G03X103477Y068709I-0000415J0000904D01*
G74*G01*
Y068711D02*
D01*
D01*
G75*
G03X103501Y068776I-0000759J0000649D01*
G74*G01*
D01*
D01*
G75*
G03X103493Y068817I-0001197J-0000020D01*
G74*G01*
X101663Y074941D02*
D01*
D01*
G75*
G03X103493Y068817I0244501J0039708D01*
G74*G01*
X102248Y086426D02*
D01*
D01*
G75*
G03X102451Y086486I0000710J0001328D01*
G74*G01*
X10351Y089296D02*
D01*
D01*
G75*
G03X102465Y086518I0228033J-0101634D01*
G74*G01*
X103511Y089296D02*
D01*
D01*
G75*
G03X103519Y089337I-0000763J0000361D01*
G74*G01*
D01*
D01*
G75*
G03X103495Y089403I-0001054J-0000009D01*
G74*G01*
D01*
D01*
G75*
G03X103437Y089494I-0001007J-0000002D01*
G74*G01*
X096506Y076207D02*
X096562Y075641D01*
X096506Y076207D02*
Y080234D01*
X092071Y06335D02*
X103419Y068618D01*
X09906Y074547D02*
X100181Y07464D01*
X097629Y074691D02*
X09906Y074547D01*
X096829Y075121D02*
X097629Y074691D01*
X100181Y07464D02*
X100951Y074897D01*
X096562Y075641D02*
X096829Y075121D01*
X100959Y0749D02*
X101464Y075068D01*
X09571Y08034D02*
X0964D01*
X09571Y08195D02*
X096385D01*
X09571Y08034D02*
Y08195D01*
X096506Y082081D02*
Y085895D01*
X096608Y086609*
X097116Y087215*
X101259Y086958D02*
X102247Y086426D01*
X097116Y087215D02*
X097867Y087465D01*
X099023Y087546*
X092071Y09477D02*
X103437Y089494D01*
X099023Y087546D02*
X10042Y087414D01*
X101235Y086976*
G54D38*
X093173Y092614D03*
X093066Y090941D03*
X09364Y092435D03*
X094107Y092256D03*
X093533Y090762D03*
X094Y090583D03*
X094573Y092077D03*
X09504Y091897D03*
X094467Y090403D03*
X095507Y091718D03*
X094933Y090224D03*
X0954Y090045D03*
X095974Y091539D03*
X096441Y09136D03*
X095867Y089866D03*
X092599Y09112D03*
G54D39*
X098007Y07297D03*
X097613D03*
X101807Y08936D03*
X101413D03*
G54D40*
X099115Y07334D03*
X098525D03*
X101635Y07044D03*
X101045D03*
X097585Y07142D03*
X098175D03*
X094225Y08358D03*
X094815D03*
X091275Y0788D03*
X091865D03*
X091285Y07827D03*
X091875D03*
X093315Y08293D03*
X093905D03*
X090185Y0788D03*
X090775D03*
X090225Y07827D03*
X090815D03*
X098175Y07191D03*
X097585D03*
G54D41*
X100126Y072304D03*
X099094Y07193D03*
Y072304D03*
Y071556D03*
X100126D03*
G54D42*
X093661Y070486D03*
X093858D03*
X094055D03*
X094252D03*
X094448D03*
X094645D03*
X094842D03*
X095039D03*
Y072434D03*
X094842D03*
X094645D03*
X094448D03*
X094252D03*
X094055D03*
X093858D03*
X093661D03*
G54D43*
X095324Y070771D03*
Y070968D03*
Y071165D03*
Y071362D03*
Y071558D03*
Y071755D03*
Y071952D03*
Y072149D03*
X093376D03*
Y071952D03*
Y071755D03*
Y071558D03*
Y071362D03*
Y071165D03*
Y070968D03*
Y070771D03*
G54D44*
X09435Y07146D03*
G54D45*
X10087Y072235D03*
Y071645D03*
X09217Y071925D03*
Y072515D03*
X10008Y088775D03*
Y088185D03*
G54D46*
X101704Y069832D03*
X100956D03*
X10133Y068888D03*
G54D47*
X10234Y069193D03*
Y069587D03*
X09274Y071747D03*
Y071353D03*
G54D48*
X094704Y084236D03*
Y084984D03*
X093996Y08461D03*
X093706Y082134D03*
Y081386D03*
X094414Y08176D03*
G54D49*
X09237Y08856D03*
Y08696D03*
X09057Y08856D03*
Y08696D03*
G54D50*
X100958Y088814D03*
Y088066D03*
X101902Y08844D03*
G54D51*
X091663Y092337D03*
X097377Y090143D03*
G54D52*
X09135Y08028D03*
X09134Y07297D03*
G54D53*
X09035Y08028D03*
X09135Y08128D03*
X09035D03*
X09135Y08228D03*
X09035D03*
X09135Y08328D03*
X09035D03*
X09135Y08428D03*
X09035D03*
X097981Y067706D03*
X09892Y068048D03*
X096608Y066686D03*
X095316Y067262D03*
X095675Y066328D03*
X094383Y066903D03*
X094741Y06597D03*
X093449Y066545D03*
X093808Y065611D03*
X092516Y066187D03*
X092874Y065253D03*
X09034Y07697D03*
X09134D03*
X09034Y07597D03*
X09134D03*
X09034Y07497D03*
X09134D03*
X09034Y07397D03*
X09134D03*
X09034Y07297D03*
G54D54*
X09986Y06839D03*
G54D55*
X09625Y06762D03*
G54D56*
X09484Y07597D03*
X09502Y08681D03*
G54D57*
X093Y08944D03*
X09394Y09342D03*
X09441Y09308D03*
X09492Y09284D03*
X09313Y09363D03*
X09212Y08393D03*
X09315Y0873D03*
X0924Y07093D03*
X09303Y08349D03*
X094665Y071145D03*
X09403Y06961D03*
X094035Y071145D03*
X094665Y071775D03*
X094035D03*
X09355Y06881D03*
X09277Y07269D03*
X09853Y07267D03*
X09398Y08814D03*
X09286Y07697D03*
X10201Y06849D03*
X09761Y07247D03*
X0924Y08325D03*
X09271Y08393D03*
X09277Y0751D03*
X09675Y07121D03*
X09467Y08287D03*
X09156Y08522D03*
X09288Y07051D03*
X09921Y06953D03*
X1024Y08889D03*
X09146Y08949D03*
X093868Y06827D03*
X09266Y07341D03*
X09538Y06947D03*
X09494Y06922D03*
X09503Y0734D03*
X09544Y07307D03*
X09792Y07088D03*
X0957Y0702D03*
X09585Y07342D03*
X09624Y07303D03*
X09657Y07259D03*
X09634Y07175D03*
X09604Y07071D03*
X10038Y07048D03*
X09311Y08173D03*
X09071Y0895D03*
X09654Y0887D03*
X0955Y08889D03*
X09293Y08522D03*
X09324Y07291D03*
M02*