%FSTAX25Y25*%
%MOIN*%
%SFA1B1*%

%IPPOS*%
%AMD54*
4,1,4,0.042900,-0.020000,0.020000,0.042900,-0.042900,0.020000,-0.020000,-0.042900,0.042900,-0.020000,0.0*
%
%AMD55*
4,1,4,0.043300,-0.019300,0.019300,0.043300,-0.043300,0.019300,-0.019300,-0.043300,0.043300,-0.019300,0.0*
%
%ADD51C,0.078900*%
%ADD52R,0.067100X0.067100*%
%ADD53C,0.067100*%
G04~CAMADD=54~10~0.0~670.3~0.0~0.0~0.0~0.0~0~0.0~0.0~0.0~0.0~0~0.0~0.0~0.0~0.0~0~0.0~0.0~0.0~290.0~670.3~0.0*
%ADD54D54*%
G04~CAMADD=55~10~0.0~670.3~0.0~0.0~0.0~0.0~0~0.0~0.0~0.0~0.0~0~0.0~0.0~0.0~0.0~0~0.0~0.0~0.0~291.0~670.3~0.0*
%ADD55D55*%
%ADD56C,0.157000*%
%ADD57C,0.043000*%
%LNarmboardproto-1*%
%LPD*%
G54D51*
X091663Y092337D03*
X097377Y090143D03*
G54D52*
X09135Y08028D03*
X09134Y07297D03*
G54D53*
X09035Y08028D03*
X09135Y08128D03*
X09035D03*
X09135Y08228D03*
X09035D03*
X09135Y08328D03*
X09035D03*
X09135Y08428D03*
X09035D03*
X097981Y067706D03*
X09892Y068048D03*
X096608Y066686D03*
X095316Y067262D03*
X095675Y066328D03*
X094383Y066903D03*
X094741Y06597D03*
X093449Y066545D03*
X093808Y065611D03*
X092516Y066187D03*
X092874Y065253D03*
X09034Y07697D03*
X09134D03*
X09034Y07597D03*
X09134D03*
X09034Y07497D03*
X09134D03*
X09034Y07397D03*
X09134D03*
X09034Y07297D03*
G54D54*
X09986Y06839D03*
G54D55*
X09625Y06762D03*
G54D56*
X09484Y07597D03*
X09502Y08681D03*
G54D57*
X093Y08944D03*
X09394Y09342D03*
X09441Y09308D03*
X09492Y09284D03*
X09313Y09363D03*
X09212Y08393D03*
X09315Y0873D03*
X0924Y07093D03*
X09303Y08349D03*
X094665Y071145D03*
X09403Y06961D03*
X094035Y071145D03*
X094665Y071775D03*
X094035D03*
X09355Y06881D03*
X09277Y07269D03*
X09853Y07267D03*
X09398Y08814D03*
X09286Y07697D03*
X10201Y06849D03*
X09761Y07247D03*
X0924Y08325D03*
X09271Y08393D03*
X09277Y0751D03*
X09675Y07121D03*
X09467Y08287D03*
X09156Y08522D03*
X09288Y07051D03*
X09921Y06953D03*
X1024Y08889D03*
X09146Y08949D03*
X093868Y06827D03*
X09266Y07341D03*
X09538Y06947D03*
X09494Y06922D03*
X09503Y0734D03*
X09544Y07307D03*
X09792Y07088D03*
X0957Y0702D03*
X09585Y07342D03*
X09624Y07303D03*
X09657Y07259D03*
X09634Y07175D03*
X09604Y07071D03*
X10038Y07048D03*
X09311Y08173D03*
X09071Y0895D03*
X09654Y0887D03*
X0955Y08889D03*
X09293Y08522D03*
X09324Y07291D03*
M02*