%FSTAX25Y25*%
%MOIN*%
%SFA1B1*%

%IPPOS*%
%ADD24C,0.008000*%
%ADD34C,0.009800*%
%ADD35C,0.005000*%
%ADD36C,0.007900*%
%ADD37C,0.010000*%
%LNarmboardproto-1*%
%LPD*%
G54D24*
X09619Y07597D02*
D01*
D01*
G75*
G03X09349I-0013500J0D01*
G74*G01*
D01*
G75*
G03X09619I0013500J0D01*
G74*G01*
X09637Y08681D02*
D01*
D01*
G75*
G03X09367I-0013500J0D01*
G74*G01*
D01*
G75*
G03X09637I0013500J0D01*
G74*G01*
G54D34*
X09915Y07262D02*
D01*
D01*
G75*
G03X099052I-0000490J0D01*
G74*G01*
D01*
G75*
G03X09915I0000490J0D01*
G74*G01*
X09371Y070102D02*
D01*
D01*
G75*
G03X093612I-0000490J0D01*
G74*G01*
D01*
G75*
G03X09371I0000490J0D01*
G74*G01*
X102089Y069909D02*
D01*
D01*
G75*
G03X101991I-0000490J0D01*
G74*G01*
D01*
G75*
G03X102089I0000490J0D01*
G74*G01*
X094754Y083901D02*
D01*
D01*
G75*
G03X094656I-0000490J0D01*
G74*G01*
D01*
G75*
G03X094754I0000490J0D01*
G74*G01*
X093755Y082469D02*
D01*
D01*
G75*
G03X093657I-0000490J0D01*
G74*G01*
D01*
G75*
G03X093755I0000490J0D01*
G74*G01*
X10093Y08915D02*
D01*
D01*
G75*
G03X100832I-0000490J0D01*
G74*G01*
D01*
G75*
G03X10093I0000490J0D01*
G74*G01*
G54D35*
X09194Y08776D02*
D01*
D01*
G75*
G03X091I-0004700J0D01*
G74*G01*
D01*
G75*
G03X09194I0004700J0D01*
G74*G01*
X09006Y08662D02*
Y08891D01*
X09288*
X09006Y08662D02*
X09288D01*
Y08891*
X090013Y08512D02*
X089947D01*
X08998*
Y084953*
X089947Y08492*
X089913*
X08988Y084953*
X090213Y08512D02*
X09008D01*
Y08502*
X090147Y085053*
X09018*
X090213Y08502*
Y084953*
X09018Y08492*
X090113*
X09008Y084953*
X0902Y079673D02*
Y07954D01*
X090067Y079673*
X090033*
X09Y07964*
Y079573*
X090033Y07954*
X09161Y07961D02*
Y079677D01*
Y079643*
X09141*
X091443Y07961*
X091517Y08488D02*
X09155Y084913D01*
Y08498*
X091517Y085013*
X091383*
X09135Y08498*
Y084913*
X091383Y08488*
X091417*
X09145Y084913*
Y085013*
X09055Y08488D02*
Y084947D01*
Y084913*
X09035*
X090383Y08488*
Y085047D02*
X09035Y08508D01*
Y085147*
X090383Y08518*
X090517*
X09055Y085147*
Y08508*
X090517Y085047*
X090383*
X097783Y073627D02*
X09775Y07366D01*
X097683*
X09765Y073627*
Y073493*
X097683Y07346*
X09775*
X097783Y073493*
X09785Y073627D02*
X097883Y07366D01*
X09795*
X097983Y073627*
Y073593*
X09795Y07356*
X097917*
X09795*
X097983Y073527*
Y073493*
X09795Y07346*
X097883*
X09785Y073493*
X09896Y07284D02*
Y07304D01*
X09906*
X099093Y073007*
Y07294*
X09906Y072907*
X09896*
X099027D02*
X099093Y07284D01*
X09916Y07304D02*
X099293D01*
Y073007*
X09916Y072873*
Y07284*
X09954Y0729D02*
Y072733D01*
X099573Y0727*
X09964*
X099673Y072733*
Y0729*
X09974Y072867D02*
X099773Y0729D01*
X09984*
X099873Y072867*
Y072833*
X09984Y0728*
X099807*
X09984*
X099873Y072767*
Y072733*
X09984Y0727*
X099773*
X09974Y072733*
X09311Y07025D02*
Y070083D01*
X093143Y07005*
X09321*
X093243Y070083*
Y07025*
X09331Y07005D02*
X093377D01*
X093343*
Y07025*
X09331Y070217*
X10156Y08771D02*
Y087543D01*
X101593Y08751*
X10166*
X101693Y087543*
Y08771*
X10186Y08751D02*
Y08771D01*
X10176Y08761*
X101893*
X09985Y08905D02*
Y08925D01*
X09995*
X099983Y089217*
Y08915*
X09995Y089117*
X09985*
X099917D02*
X099983Y08905D01*
X10005D02*
X100117D01*
X100083*
Y08925*
X10005Y089217*
X100217Y08905D02*
X100283D01*
X10025*
Y08925*
X100217Y089217*
X096223Y07505D02*
X096157D01*
X09619*
Y074883*
X096157Y07485*
X096123*
X09609Y074883*
X09629Y07505D02*
X096423D01*
Y075017*
X09629Y074883*
Y07485*
X102773Y069427D02*
X10274Y06946D01*
X102673*
X10264Y069427*
Y069293*
X102673Y06926*
X10274*
X102773Y069293*
X10294Y06926D02*
Y06946D01*
X10284Y06936*
X102973*
X10076Y06876D02*
Y068593D01*
X100793Y06856*
X10086*
X100893Y068593*
Y06876*
X101093Y06856D02*
X10096D01*
X101093Y068693*
Y068727*
X10106Y06876*
X100993*
X10096Y068727*
X091393Y088657D02*
X09136Y08869D01*
X091293*
X09126Y088657*
Y088623*
X091293Y08859*
X09136*
X091393Y088557*
Y088523*
X09136Y08849*
X091293*
X09126Y088523*
X09146Y08869D02*
Y08849D01*
X091527Y088557*
X091593Y08849*
Y08869*
X09166Y08849D02*
X091727D01*
X091693*
Y08869*
X09166Y088657*
X09666Y07147D02*
Y07167D01*
X09676*
X096793Y071637*
Y07157*
X09676Y071537*
X09666*
X096727D02*
X096793Y07147D01*
X09686D02*
X096927D01*
X096893*
Y07167*
X09686Y071637*
X097027D02*
X09706Y07167D01*
X097127*
X09716Y071637*
Y071503*
X097127Y07147*
X09706*
X097027Y071503*
Y071637*
X09677Y0719D02*
Y0721D01*
X09687*
X096903Y072067*
Y072*
X09687Y071967*
X09677*
X096837D02*
X096903Y0719D01*
X09697Y071933D02*
X097003Y0719D01*
X09707*
X097103Y071933*
Y072067*
X09707Y0721*
X097003*
X09697Y072067*
Y072033*
X097003Y072*
X097103*
X10126Y07214D02*
Y07234D01*
X10136*
X101393Y072307*
Y07224*
X10136Y072207*
X10126*
X101327D02*
X101393Y07214D01*
X10146Y072307D02*
X101493Y07234D01*
X10156*
X101593Y072307*
Y072273*
X10156Y07224*
X101593Y072207*
Y072173*
X10156Y07214*
X101493*
X10146Y072173*
Y072207*
X101493Y07224*
X10146Y072273*
Y072307*
X101493Y07224D02*
X10156D01*
X10025Y07003D02*
Y07023D01*
X10035*
X100383Y070197*
Y07013*
X10035Y070097*
X10025*
X100317D02*
X100383Y07003D01*
X100583Y07023D02*
X100517Y070197D01*
X10045Y07013*
Y070063*
X100483Y07003*
X10055*
X100583Y070063*
Y070097*
X10055Y07013*
X10045*
X09331Y08321D02*
Y08341D01*
X09341*
X093443Y083377*
Y08331*
X09341Y083277*
X09331*
X093377D02*
X093443Y08321D01*
X093643Y08341D02*
X09351D01*
Y08331*
X093577Y083343*
X09361*
X093643Y08331*
Y083243*
X09361Y08321*
X093543*
X09351Y083243*
X09466Y08314D02*
Y08334D01*
X09476*
X094793Y083307*
Y08324*
X09476Y083207*
X09466*
X094727D02*
X094793Y08314D01*
X09496D02*
Y08334D01*
X09486Y08324*
X094993*
X09215Y07816D02*
Y07836D01*
X09225*
X092283Y078327*
Y07826*
X09225Y078227*
X09215*
X092217D02*
X092283Y07816D01*
X09235Y078327D02*
X092383Y07836D01*
X09245*
X092483Y078327*
Y078293*
X09245Y07826*
X092417*
X09245*
X092483Y078227*
Y078193*
X09245Y07816*
X092383*
X09235Y078193*
X0915Y0715D02*
Y0717D01*
X0916*
X091633Y071667*
Y0716*
X0916Y071567*
X0915*
X091567D02*
X091633Y0715D01*
X091833D02*
X0917D01*
X091833Y071633*
Y071667*
X0918Y0717*
X091733*
X0917Y071667*
X09173Y07905D02*
Y07925D01*
X09183*
X091863Y079217*
Y07915*
X09183Y079117*
X09173*
X091797D02*
X091863Y07905D01*
X09193D02*
X091997D01*
X091963*
Y07925*
X09193Y079217*
X094623Y082183D02*
Y082317D01*
X09459Y08235*
X094523*
X09449Y082317*
Y082183*
X094523Y08215*
X09459*
X094557Y082217D02*
X094623Y08215D01*
X09459D02*
X094623Y082183D01*
X094823Y08215D02*
X09469D01*
X094823Y082283*
Y082317*
X09479Y08235*
X094723*
X09469Y082317*
X093793Y085023D02*
Y085157D01*
X09376Y08519*
X093693*
X09366Y085157*
Y085023*
X093693Y08499*
X09376*
X093727Y085057D02*
X093793Y08499D01*
X09376D02*
X093793Y085023D01*
X09386Y08499D02*
X093927D01*
X093893*
Y08519*
X09386Y085157*
X095843Y08541D02*
X095777D01*
X09581*
Y085243*
X095777Y08521*
X095743*
X09571Y085243*
X096043Y08541D02*
X095977Y085377D01*
X09591Y08531*
Y085243*
X095943Y08521*
X09601*
X096043Y085243*
Y085277*
X09601Y08531*
X09591*
X098223Y06703D02*
X098157D01*
X09819*
Y066863*
X098157Y06683*
X098123*
X09809Y066863*
X09829Y066997D02*
X098323Y06703D01*
X09839*
X098423Y066997*
Y066963*
X09839Y06693*
X098357*
X09839*
X098423Y066897*
Y066863*
X09839Y06683*
X098323*
X09829Y066863*
X089973Y07779D02*
X089907D01*
X08994*
Y077623*
X089907Y07759*
X089873*
X08984Y077623*
X09014Y07759D02*
Y07779D01*
X09004Y07769*
X090173*
X091983Y06698D02*
X091917D01*
X09195*
Y066813*
X091917Y06678*
X091883*
X09185Y066813*
X092183Y06678D02*
X09205D01*
X092183Y066913*
Y066947*
X09215Y06698*
X092083*
X09205Y066947*
X09071Y07803D02*
Y07783D01*
X09081*
X090843Y077863*
Y077997*
X09081Y07803*
X09071*
X091043Y07783D02*
X09091D01*
X091043Y077963*
Y077997*
X09101Y07803*
X090943*
X09091Y077997*
X09044Y07928D02*
Y07908D01*
X09054*
X090573Y079113*
Y079247*
X09054Y07928*
X09044*
X09064Y07908D02*
X090707D01*
X090673*
Y07928*
X09064Y079247*
X101623Y089777D02*
X10159Y08981D01*
X101523*
X10149Y089777*
Y089643*
X101523Y08961*
X10159*
X101623Y089643*
X101823Y08961D02*
X10169D01*
X101823Y089743*
Y089777*
X10179Y08981*
X101723*
X10169Y089777*
X092773Y071137D02*
X09274Y07117D01*
X092673*
X09264Y071137*
Y071003*
X092673Y07097*
X09274*
X092773Y071003*
X09284Y07097D02*
X092907D01*
X092873*
Y07117*
X09284Y071137*
X094397Y078263D02*
Y078163D01*
X09443Y07813*
X094497*
X09453Y078163*
Y078263*
Y078363D02*
Y07843D01*
X094497Y078463*
X09443*
X094397Y07843*
Y078363*
X09443Y07833*
X094497*
X09453Y078363*
Y07853D02*
X094397D01*
Y07863*
X09443Y078663*
X09453*
X094363Y078763D02*
X094397D01*
Y07873*
Y078796*
Y078763*
X094497*
X09453Y078796*
X094397Y078896D02*
X09453D01*
X094463*
X09443Y07893*
X094397Y078963*
Y078996*
X09453Y07913D02*
Y079196D01*
X094497Y07923*
X09443*
X094397Y079196*
Y07913*
X09443Y079096*
X094497*
X09453Y07913*
Y079296D02*
Y079363D01*
Y07933*
X09433*
Y079296*
X09453Y079463D02*
Y07953D01*
Y079496*
X09433*
Y079463*
X09453Y079729D02*
Y079663D01*
X094497Y07963*
X09443*
X094397Y079663*
Y079729*
X09443Y079763*
X094463*
Y07963*
X094397Y079829D02*
X09453D01*
X094463*
X09443Y079863*
X094397Y079896*
Y079929*
X093917Y07743D02*
X09405D01*
X093983*
X09395Y077463*
X093917Y077497*
Y07753*
X09405Y077663D02*
Y07773D01*
X094017Y077763*
X09395*
X093917Y07773*
Y077663*
X09395Y07763*
X094017*
X09405Y077663*
Y07783D02*
X093917D01*
Y07793*
X09395Y077963*
X09405*
Y07813D02*
Y078063D01*
X094017Y07803*
X09395*
X093917Y078063*
Y07813*
X09395Y078163*
X093983*
Y07803*
X094117Y078496D02*
Y07853D01*
X094083Y078563*
X093917*
Y078463*
X09395Y07843*
X094017*
X09405Y078463*
Y078563*
X093917Y07863D02*
X09405D01*
X093983*
X09395Y078663*
X093917Y078696*
Y07873*
X09405Y07883D02*
Y078896D01*
Y078863*
X093917*
Y07883*
X094117Y078996D02*
X093917D01*
Y079096*
X09395Y079129*
X094017*
X09405Y079096*
Y078996*
X094117Y079196D02*
X093917D01*
Y079296*
X09395Y079329*
X094017*
X09405Y079296*
Y079196*
Y079496D02*
Y079429D01*
X094017Y079396*
X09395*
X093917Y079429*
Y079496*
X09395Y079529*
X093983*
Y079396*
X093917Y079596D02*
X09405D01*
X093983*
X09395Y079629*
X093917Y079663*
Y079696*
X097346Y067184D02*
X09747Y067231D01*
X097394Y067059*
X097406Y067028*
X097449Y067009*
X097511Y067033*
X09753Y067076*
X096925Y068093D02*
X096863Y06807D01*
X096894Y068081*
X096966Y067895*
X096985Y067938*
X091896Y066127D02*
X091853Y066146D01*
X091791Y066122*
X091771Y066079*
X091819Y065955*
X091862Y065936*
X091924Y06596*
X091944Y066003*
X091932Y066034*
X091889Y066053*
X091795Y066017*
X092242Y065225D02*
X09218Y065201D01*
X092211Y065213*
X092283Y065026*
X092302Y065069*
X092146Y065009D02*
X092127Y064966D01*
X092065Y064942*
X092022Y064962*
X091974Y065086*
X091993Y065129*
X092056Y065153*
X092099Y065134*
X092146Y065009*
X09051Y07759D02*
Y077657D01*
Y077623*
X09031*
X090343Y07759*
Y077757D02*
X09031Y07779D01*
Y077857*
X090343Y07789*
X090477*
X09051Y077857*
Y07779*
X090477Y077757*
X090343*
X091507Y07757D02*
X09154Y077603D01*
Y07767*
X091507Y077703*
X091373*
X09134Y07767*
Y077603*
X091373Y07757*
X091407*
X09144Y077603*
Y077703*
X0916Y07228D02*
Y072347D01*
Y072313*
X0914*
X091433Y07228*
X09074Y072363D02*
Y07223D01*
X090607Y072363*
X090573*
X09054Y07233*
Y072263*
X090573Y07223*
G54D36*
X097678Y091334D02*
X098005Y091209D01*
X097607Y091147D02*
X097679Y091335D01*
X091917Y093528D02*
X092262Y093395D01*
X091845Y09334D02*
X091917Y093528D01*
X091845Y09334D02*
X091917Y093528D01*
X09219Y093207D02*
X092262Y093395D01*
X09219Y093207D02*
X093021Y092889D01*
X096729Y091484D02*
X097607Y091147D01*
X09599Y089615D02*
X097213Y089146D01*
X091127Y091471D02*
X091385Y092143D01*
X091586Y092666D02*
X091917Y093528D01*
X097213Y089146D02*
X097482Y089846D01*
X097679Y090358D02*
X098005Y091209D01*
X091127Y091471D02*
X092304Y09102D01*
X08985Y08478D02*
X09185D01*
X08985Y07978D02*
X09185D01*
X08985D02*
Y08478D01*
X09185Y07978D02*
Y08478D01*
X098741Y073202D02*
X098899D01*
X098741Y073478D02*
X098899D01*
X09993Y07134D02*
Y071655D01*
X099768Y071339D02*
X099926D01*
X09993Y072206D02*
Y07252D01*
X099728D02*
X09993D01*
X093326Y070436D02*
X093356D01*
X093326D02*
Y070466D01*
Y072454D02*
Y072484D01*
X093356*
X095344D02*
X095374D01*
Y072454D02*
Y072484D01*
Y070436D02*
Y070466D01*
X095344Y070436D02*
X095374D01*
X101261Y070302D02*
X101419D01*
X101261Y070578D02*
X101419D01*
X101008Y071861D02*
Y072019D01*
X100732Y071861D02*
Y072019D01*
X097801Y071558D02*
X097959D01*
X097801Y071282D02*
X097959D01*
X100739Y068888D02*
X101054D01*
X100739D02*
Y069084D01*
X101606Y068888D02*
X101921D01*
Y06908*
X100159Y069031D02*
X100501Y068091D01*
X097682Y067065D02*
X100501Y068091D01*
X09734Y068005D02*
X097682Y067065D01*
X09734Y068005D02*
X100159Y069031D01*
X09187Y066474D02*
X092586Y064607D01*
X096538Y068266D02*
X097254Y066399D01*
X092586Y064607D02*
X097254Y066399D01*
X09187Y066474D02*
X096538Y068266D01*
X092032Y072141D02*
Y072299D01*
X092308Y072141D02*
Y072299D01*
X09184Y07247D02*
Y07747D01*
X08984Y07247D02*
Y07747D01*
Y07247D02*
X09184D01*
X08984Y07747D02*
X09184D01*
X094441Y083718D02*
X094599D01*
X094441Y083442D02*
X094599D01*
X091491Y078938D02*
X091649D01*
X091491Y078662D02*
X091649D01*
X091501Y078408D02*
X091659D01*
X091501Y078132D02*
X091659D01*
X094074Y084886D02*
Y085201D01*
X094232*
X094074Y084019D02*
Y084334D01*
Y084019D02*
X094232D01*
X094336Y081169D02*
Y081484D01*
X094178Y081169D02*
X094336D01*
Y082036D02*
Y082351D01*
X094178D02*
X094336D01*
X093531Y083068D02*
X093689D01*
X093531Y082792D02*
X093689D01*
X090401Y078938D02*
X090559D01*
X090401Y078662D02*
X090559D01*
X090441Y078408D02*
X090599D01*
X090441Y078132D02*
X090599D01*
X100218Y088401D02*
Y088559D01*
X099942Y088401D02*
Y088559D01*
X101902Y087849D02*
Y088164D01*
X101706Y087849D02*
X101902D01*
Y088716D02*
Y089031D01*
X10171D02*
X101902D01*
X097801Y071772D02*
X097959D01*
X097801Y072048D02*
X097959D01*
G54D37*
X092162Y09132D02*
X092173Y091348D01*
X09159Y09447D02*
X09139D01*
X09149*
Y09397*
X09139Y09387*
X09129*
X09119Y09397*
X09179Y09387D02*
X09199D01*
X09189*
Y09447*
X09179Y09437*
M02*