%FSTAX25Y25*%
%MOIN*%
%SFA1B1*%

%IPPOS*%
%AMD11*
4,1,4,0.006200,0.056500,-0.033200,-0.046200,-0.006200,-0.056500,0.033200,0.046200,0.006200,0.056500,0.0*
%
%AMD30*
4,1,4,0.037800,-0.017600,0.017600,0.037800,-0.037800,0.017600,-0.017600,-0.037800,0.037800,-0.017600,0.0*
%
%AMD31*
4,1,4,0.038100,-0.017000,0.017000,0.038100,-0.038100,0.017000,-0.017000,-0.038100,0.038100,-0.017000,0.0*
%
%ADD10C,0.007000*%
G04~CAMADD=11~9~0.0~0.0~1100.0~291.0~0.0~0.0~0~0.0~0.0~0.0~0.0~0~0.0~0.0~0.0~0.0~0~0.0~0.0~0.0~69.0~664.0~1129.0*
%ADD11D11*%
%ADD12R,0.023600X0.019700*%
%ADD13R,0.027600X0.035400*%
%ADD14R,0.048000X0.019700*%
%ADD15O,0.009800X0.033500*%
%ADD16O,0.033500X0.009800*%
%ADD17R,0.129900X0.129900*%
%ADD18R,0.035400X0.027600*%
%ADD19R,0.027600X0.039400*%
%ADD20R,0.019700X0.023600*%
%ADD21R,0.059100X0.023600*%
%ADD22R,0.080000X0.050000*%
%ADD23R,0.039400X0.027600*%
%ADD24C,0.008000*%
%ADD25C,0.020000*%
%ADD26C,0.015000*%
%ADD27C,0.070900*%
%ADD28R,0.059100X0.059100*%
%ADD29C,0.059100*%
G04~CAMADD=30~10~0.0~590.4~0.0~0.0~0.0~0.0~0~0.0~0.0~0.0~0.0~0~0.0~0.0~0.0~0.0~0~0.0~0.0~0.0~290.0~590.4~0.0*
%ADD30D30*%
G04~CAMADD=31~10~0.0~590.4~0.0~0.0~0.0~0.0~0~0.0~0.0~0.0~0.0~0~0.0~0.0~0.0~0.0~0~0.0~0.0~0.0~291.0~590.4~0.0*
%ADD31D31*%
%ADD32C,0.149000*%
%ADD33C,0.035000*%
%LNarmboardproto-1*%
%LPD*%
G54D10*
X094331Y093406D02*
D01*
D01*
G75*
G03X094186Y09342I-0001533J-0008307D01*
G74*G01*
X094331Y093406D02*
X095259Y093D01*
X09394Y09342D02*
X094186D01*
X09441Y092915D02*
Y09308D01*
X09514Y08207D02*
Y08358D01*
Y08416*
X09498Y08191D02*
X09514Y08207D01*
X094404Y092909D02*
X09441Y092915D01*
X09196Y083206D02*
X092684Y08393D01*
X09271*
X09303Y08349D02*
Y084027D01*
X09294Y084117D02*
X09303Y084027D01*
X09612Y071362D02*
X096598D01*
X09675Y07121*
X095782Y070968D02*
X09604Y07071D01*
X095324Y070968D02*
X095782D01*
X095735Y071755D02*
X09657Y07259D01*
X095324Y071755D02*
X095735D01*
X09434Y068212D02*
Y069703D01*
X094252Y069791D02*
X09434Y069703D01*
X094448Y0701D02*
X0945Y070048D01*
Y069019D02*
Y070048D01*
X094448Y0701D02*
Y070486D01*
X09403Y070185D02*
X094055Y07021D01*
X09403Y06961D02*
Y070185D01*
X09726Y072989D02*
Y07317D01*
X09743Y07334*
X097611*
X09761Y071935D02*
Y07247D01*
X091878Y07051D02*
X09288D01*
X091778Y07061D02*
X091878Y07051D01*
X091703Y07093D02*
X0924D01*
X091472Y071162D02*
X091703Y07093D01*
X09314Y074935D02*
Y077975D01*
Y074935D02*
X094645Y07343D01*
X092315Y0788D02*
X09314Y077975D01*
X094645Y072434D02*
Y07343D01*
X09196Y08189D02*
Y083206D01*
X09135Y08128D02*
X09196Y08189D01*
X0921Y08057D02*
Y08295D01*
X0924Y08325*
X09181Y08028D02*
X0921Y08057D01*
X09135Y08028D02*
X09181D01*
X09288Y07051D02*
Y0708D01*
X093048Y070968*
X09277Y07212D02*
Y07269D01*
Y07212D02*
X09284Y07205D01*
X0902Y07452D02*
X09034Y07438D01*
Y07397D02*
Y07438D01*
X09009Y07452D02*
X0902D01*
X089885Y074725D02*
X09009Y07452D01*
X089885Y074725D02*
Y07512D01*
X09015Y075385*
X090512*
X09083Y075067*
Y07475D02*
Y075067D01*
Y07475D02*
X091045Y074535D01*
X092483D02*
X093858Y07316D01*
X091045Y074535D02*
X092483D01*
X09217Y07341D02*
X09266D01*
X09086D02*
X09217D01*
X090625Y073645D02*
X09086Y07341D01*
X09057Y08856D02*
Y08894D01*
X09069Y08906*
X09107*
X098314Y072304D02*
X099094D01*
X098175Y072165D02*
X098314Y072304D01*
X098175Y07191D02*
Y072165D01*
X091865Y0788D02*
X092315D01*
X0945Y069019D02*
X094521Y068998D01*
X09398Y08814D02*
X094025Y088185D01*
X10008*
X100095Y08817*
X0919Y07597D02*
X09277Y0751D01*
X09134Y07597D02*
X0919D01*
X09503Y066802D02*
X095504Y066328D01*
X095675*
X09761Y07247D02*
Y072967D01*
G54D11*
X093173Y092614D03*
X093066Y090941D03*
X09364Y092435D03*
X094107Y092256D03*
X093533Y090762D03*
X094Y090583D03*
X094573Y092077D03*
X09504Y091897D03*
X094467Y090403D03*
X095507Y091718D03*
X094933Y090224D03*
X0954Y090045D03*
X095974Y091539D03*
X096441Y09136D03*
X095867Y089866D03*
X092599Y09112D03*
G54D12*
X098007Y07297D03*
X097613D03*
X101807Y08936D03*
X101413D03*
G54D13*
X099115Y07334D03*
X098525D03*
X101635Y07044D03*
X101045D03*
X097585Y07142D03*
X098175D03*
X094225Y08358D03*
X094815D03*
X091275Y0788D03*
X091865D03*
X091285Y07827D03*
X091875D03*
X093315Y08293D03*
X093905D03*
X090185Y0788D03*
X090775D03*
X090225Y07827D03*
X090815D03*
X098175Y07191D03*
X097585D03*
G54D14*
X100126Y072304D03*
X099094Y07193D03*
Y072304D03*
Y071556D03*
X100126D03*
G54D15*
X093661Y070486D03*
X093858D03*
X094055D03*
X094252D03*
X094448D03*
X094645D03*
X094842D03*
X095039D03*
Y072434D03*
X094842D03*
X094645D03*
X094448D03*
X094252D03*
X094055D03*
X093858D03*
X093661D03*
G54D16*
X095324Y070771D03*
Y070968D03*
Y071165D03*
Y071362D03*
Y071558D03*
Y071755D03*
Y071952D03*
Y072149D03*
X093376D03*
Y071952D03*
Y071755D03*
Y071558D03*
Y071362D03*
Y071165D03*
Y070968D03*
Y070771D03*
G54D17*
X09435Y07146D03*
G54D18*
X10087Y072235D03*
Y071645D03*
X09217Y071925D03*
Y072515D03*
X10008Y088775D03*
Y088185D03*
G54D19*
X101704Y069832D03*
X100956D03*
X10133Y068888D03*
G54D20*
X10234Y069193D03*
Y069587D03*
X09274Y071747D03*
Y071353D03*
G54D21*
X094704Y084236D03*
Y084984D03*
X093996Y08461D03*
X093706Y082134D03*
Y081386D03*
X094414Y08176D03*
G54D22*
X09237Y08856D03*
Y08696D03*
X09057Y08856D03*
Y08696D03*
G54D23*
X100958Y088814D03*
Y088066D03*
X101902Y08844D03*
G54D24*
X093285Y089322D02*
Y089835D01*
X093023Y08906D02*
X093285Y089322D01*
X09146Y08906D02*
X093023D01*
X09504Y091897D02*
X09512Y09202D01*
X095371Y09271*
X095259Y093D02*
X095371Y09271D01*
X094107Y092256D02*
Y09247D01*
X095064Y084236D02*
X09514Y08416D01*
X094815Y08358D02*
X09514D01*
X09483Y08176D02*
X09498Y08191D01*
X09416Y09237D02*
X094404Y092909D01*
X092372Y084685D02*
X09294Y084117D01*
X095324Y071362D02*
X09612D01*
X094252Y069791D02*
Y070486D01*
X09434Y068212D02*
X09503Y066802D01*
X094055Y07021D02*
Y070486D01*
X089909Y072479D02*
X091778Y07061D01*
X09029Y07398D02*
X090625Y073645D01*
X094645Y069905D02*
Y070486D01*
Y069905D02*
X09491Y06964D01*
X094842Y070008D02*
X09538Y06947D01*
X094842Y070008D02*
Y070486D01*
X093745Y069018D02*
Y069728D01*
X09355Y06881D02*
Y069745D01*
X093858Y069841D02*
Y070486D01*
X093745Y069728D02*
X093858Y069841D01*
X093661Y069856D02*
Y070486D01*
X09355Y069745D02*
X093661Y069856D01*
X09284Y07205D02*
X092938Y071952D01*
X093858Y072434D02*
Y07316D01*
X09217Y072515D02*
Y07341D01*
X093376Y071755D02*
X094055D01*
X093745Y069018D02*
X093868Y068895D01*
X089875Y072758D02*
X091472Y071162D01*
X093025Y071755D02*
X093376D01*
X092745Y071742D02*
X093025D01*
Y071755D02*
X093222Y071558D01*
X093376*
X092958Y071362D02*
X093376D01*
X092958D02*
X093155Y071165D01*
X093376*
X091182Y084685D02*
X092372D01*
X092335Y074375D02*
X09277Y07394D01*
X090935Y074375D02*
X092335D01*
X09277Y07394D02*
X093661Y073049D01*
Y072434D02*
Y073049D01*
X092445Y07497D02*
X094055Y07336D01*
X09134Y07497D02*
X092445D01*
X089725Y073298D02*
Y081535D01*
X089575Y07319D02*
Y082505D01*
X09083Y07548D02*
Y077194D01*
X089945Y078079D02*
X09083Y077194D01*
X089945Y078079D02*
Y078569D01*
X09034Y07497D02*
X090935Y074375D01*
X09083Y07548D02*
X09134Y07497D01*
X094842Y072434D02*
Y073212D01*
X09503Y0734*
X095039Y07267D02*
X095439Y07307D01*
X093868Y06827D02*
Y068895D01*
X094521Y068998D02*
X094525Y068994D01*
X09491Y06925D02*
X09494Y06922D01*
X09491Y06925D02*
Y06964D01*
X094525Y068994D02*
X09541Y06823D01*
X095658Y067672*
X09581Y06733*
X09605Y06679*
X09611Y066655*
X09625Y06634*
X09615Y0659D02*
X09625Y06634D01*
X09328Y065004D02*
X09345Y0649D01*
X092874Y065253D02*
X09328Y065004D01*
X09345Y0649D02*
X09615Y0659D01*
X093868Y06827D02*
X093904Y067666D01*
X093978Y06644*
X093905Y066085D02*
X093978Y06644D01*
X093808Y065611D02*
X093905Y066085D01*
X089725Y073298D02*
X089875Y072758D01*
X089575Y07319D02*
X089725Y072696D01*
X09313Y09363D02*
X09373Y09319D01*
X09383Y09313*
X0939Y09307*
X09374Y09259D02*
X0939Y09307D01*
X09364Y092435D02*
X09374Y09259D01*
X09468Y0923D02*
X09492Y09284D01*
X094573Y092077D02*
X09468Y0923D01*
X094107Y092256D02*
X09416Y09237D01*
X09284Y09028D02*
X093031Y090855D01*
X093066Y090941*
X09284Y09028D02*
X093285Y089835D01*
X08999Y0818D02*
X09087D01*
X089725Y081535D02*
X08999Y0818D01*
X09087D02*
X09135Y08228D01*
X089575Y082505D02*
X09035Y08328D01*
X089909Y072479D02*
Y072512D01*
X089725Y072696D02*
X089909Y072512D01*
X097525Y070595D02*
X098232D01*
X09726Y07086D02*
Y072989D01*
Y07086D02*
X097525Y070595D01*
X097611Y07334D02*
X098525D01*
X098232Y070595D02*
X098693Y071056D01*
Y0715*
X098749Y071556*
X099094*
X094414Y08176D02*
X09483D01*
X094704Y084236D02*
X095064D01*
X089937Y080867D02*
X09035Y08128D01*
X089937Y078577D02*
Y080867D01*
Y078577D02*
X089945Y078569D01*
X093048Y070968D02*
X093376D01*
X09277Y0751D02*
X094252Y073618D01*
Y072434D02*
Y073618D01*
X094055Y072434D02*
Y07336D01*
X09085Y084353D02*
X091182Y084685D01*
X09085Y08278D02*
Y084353D01*
X0917Y08393D02*
X09212D01*
X09135Y08428D02*
X0917Y08393D01*
X090765Y07832D02*
X09092D01*
X090765Y078185D02*
Y07832D01*
X090815Y07827D02*
X091285D01*
X090745Y07892D02*
X09088D01*
X091255Y0788D02*
X091265Y07879D01*
X090775Y0788D02*
X091255D01*
X09035Y08228D02*
X09085Y08278D01*
X098175Y07146D02*
Y07191D01*
X09364Y092435D02*
X09371Y092505D01*
X100095Y08817D02*
X10034D01*
X100444Y088066*
X100958*
X090765Y078185D02*
D01*
X092748Y071362D02*
X092958D01*
X101045Y070185D02*
Y07044D01*
X100956Y070096D02*
X101045Y070185D01*
X100956Y069832D02*
Y070096D01*
X09892Y068048D02*
X09894Y068068D01*
X095324Y070771D02*
X095589D01*
X0957Y07066*
Y0702D02*
Y07066D01*
X095324Y072149D02*
X095609D01*
X095039Y072434D02*
Y07267D01*
X09624Y07251D02*
Y07303D01*
X095324Y071952D02*
X095682D01*
X09624Y07251*
X095324Y071165D02*
X096205D01*
X09793Y06944*
X095324Y071558D02*
X096148D01*
X09634Y07175*
X09793Y067757D02*
X097981Y067706D01*
X09793Y067757D02*
Y06944D01*
X10038Y07048D02*
X101005D01*
X101045Y07044*
X09585Y07239D02*
Y07342D01*
X095609Y072149D02*
X09585Y07239D01*
X091265Y07818D02*
X091285Y0782D01*
X091265Y07879D02*
X091275Y0788D01*
X093055Y072635D02*
X09324Y07282D01*
Y07291*
X093055Y072255D02*
Y072635D01*
Y072255D02*
X093161Y072149D01*
X093376*
X092938Y071952D02*
X093376D01*
X09107Y08906D02*
X09146D01*
Y08949*
G54D25*
X095345Y081335D02*
Y083455D01*
X09485Y08084D02*
X095345Y081335D01*
X09535Y08346D02*
Y084944D01*
X095345Y083455D02*
X09535Y08346D01*
X09531Y084984D02*
X09535Y084944D01*
X09957Y06953D02*
X09977Y06973D01*
X09921Y06953D02*
X09957D01*
X093345Y080365D02*
X09382Y08084D01*
X093345Y07502D02*
Y080365D01*
X094525Y07384D02*
X0991D01*
X093345Y07502D02*
X094525Y07384D01*
X09382Y08084D02*
X09485D01*
X0991Y07384D02*
X10033D01*
X099115Y07334D02*
Y073825D01*
X093495Y0849D02*
Y08598D01*
X093485Y08597D02*
X093495Y08598D01*
X090122Y08597D02*
X093485D01*
X093495Y08598D02*
Y088625D01*
X093475Y084495D02*
Y08488D01*
X093495Y0849*
Y088625D02*
X09393Y08906D01*
X09314Y0873D02*
X09315D01*
X10133Y0685D02*
X10202D01*
X0977Y0709D02*
X09824D01*
X093905Y08293D02*
X09467D01*
X09836Y07297D02*
X09853Y0728D01*
Y07267D02*
Y0728D01*
X09134Y0774D02*
X091875Y077935D01*
Y07827*
X09134Y07697D02*
Y0774D01*
Y07697D02*
X09286D01*
X10201Y06849D02*
X10202Y0685D01*
X10234Y06882*
X10133Y0685D02*
Y068888D01*
X10234Y06882D02*
Y069193D01*
X097585Y071015D02*
Y07142D01*
X09217Y07156D02*
X092377Y071353D01*
X09254*
X09217Y07156D02*
Y071925D01*
X09274Y071747D02*
X092745Y071742D01*
X093475Y083985D02*
Y084495D01*
X089365Y073103D02*
Y084015D01*
X09035Y07944D02*
X09197D01*
X091385Y071925D02*
X09217D01*
X09034Y07297D02*
X091385Y071925D01*
X093475Y083985D02*
X09388Y08358D01*
X089365Y073103D02*
X089515Y072576D01*
X089878Y085844D02*
X090122Y08597D01*
X089365Y084015D02*
X089878Y085844D01*
X092115Y090145D02*
X092195Y090065D01*
X09282Y08944*
X092195Y090065D02*
X09238Y09056D01*
X092599Y09112*
X0931Y0924*
X09312Y09243*
X09313Y09245*
X093173Y092614*
X09462Y09031D02*
X094933Y090224D01*
X094467Y090403D02*
X09462Y09031D01*
X09393Y08906D02*
X094467Y090403D01*
X0955Y08889D02*
X09571Y08952D01*
X09583Y08975*
X095867Y089866*
X09628Y09099*
X09633Y09119*
X09639Y09135*
X096441Y09136*
X09035Y07944D02*
Y08028D01*
X090185Y079275D02*
X09035Y07944D01*
X090185Y0788D02*
Y079275D01*
Y0788D02*
X090225Y07876D01*
Y07827D02*
Y07876D01*
X089515Y072576D02*
X092516Y069575D01*
Y066187D02*
Y069575D01*
X094704Y084984D02*
X09531D01*
X10087Y072235D02*
Y0733D01*
X098007Y07297D02*
X09836D01*
X09197Y07944D02*
X09244Y07991D01*
Y081548*
X093026Y082134*
X093176*
X09467Y08287D02*
Y08293D01*
X09156Y08522D02*
X09293D01*
X09388Y08358D02*
X094225D01*
X093475Y084495D02*
X09359Y08461D01*
X09904Y0887D02*
X099115Y088775D01*
X09654Y0887D02*
X09904D01*
X099115Y088775D02*
X10008D01*
X098865Y068103D02*
Y070535D01*
X099425Y071095*
X100595*
X10087Y07137*
Y071645*
X098865Y068103D02*
X09892Y068048D01*
X100506Y071556D02*
X100595Y071645D01*
X100126Y071556D02*
X100506D01*
X100595Y071645D02*
X10087D01*
X1001Y070825D02*
X101845D01*
X09977Y070495D02*
X1001Y070825D01*
X09977Y06973D02*
Y070495D01*
X10204Y07044D02*
X10234Y07014D01*
X10033Y07384D02*
X10087Y0733D01*
X100575Y072235D02*
X10087D01*
X100506Y072304D02*
X100575Y072235D01*
X100126Y072304D02*
X100506D01*
X098483Y071143D02*
Y071766D01*
X098647Y07193*
X099094*
X101635Y07044D02*
X10204D01*
X101845Y070825D02*
X10204Y07063D01*
Y07044D02*
Y07063D01*
X1024Y08889D02*
Y08919D01*
X09359Y08461D02*
X093996D01*
X09304Y08293D02*
X093315D01*
X09304Y08227D02*
Y08293D01*
Y08227D02*
X093176Y082134D01*
X093706*
X1024Y08867D02*
Y08889D01*
X101902Y08844D02*
X10217D01*
X1024Y08867*
X10223Y08936D02*
X1024Y08919D01*
X101807Y08936D02*
X10223D01*
X100958Y088814D02*
X10097Y088826D01*
Y0892*
X10113Y08936*
X101413*
X100594Y088814D02*
X100958D01*
X100555Y088775D02*
X100594Y088814D01*
X10008Y088775D02*
X100555D01*
X09274Y071353D02*
X092748Y071362D01*
X101704Y069832D02*
Y070056D01*
X101635Y070125D02*
X101704Y070056D01*
X101635Y070125D02*
Y07044D01*
X10234Y069587D02*
Y07014D01*
X097585Y071015D02*
X0977Y0709D01*
X094055Y071755D02*
X09435Y07146D01*
X09824Y0709D02*
X098483Y071143D01*
X09237Y08696D02*
X09294D01*
X09314Y08716*
Y0873*
X09282Y08944D02*
X093D01*
X09321Y081386D02*
X093706D01*
X09311Y081486D02*
Y08173D01*
Y081486D02*
X09321Y081386D01*
X091065Y090145D02*
X092115D01*
X09106Y09015D02*
X091065Y090145D01*
X09071Y0898D02*
X09106Y09015D01*
X09071Y0895D02*
Y0898D01*
G54D26*
X09254Y071353D02*
X09274D01*
G54D27*
X091663Y092337D03*
X097377Y090143D03*
G54D28*
X09135Y08028D03*
X09134Y07297D03*
G54D29*
X09035Y08028D03*
X09135Y08128D03*
X09035D03*
X09135Y08228D03*
X09035D03*
X09135Y08328D03*
X09035D03*
X09135Y08428D03*
X09035D03*
X097981Y067706D03*
X09892Y068048D03*
X096608Y066686D03*
X095316Y067262D03*
X095675Y066328D03*
X094383Y066903D03*
X094741Y06597D03*
X093449Y066545D03*
X093808Y065611D03*
X092516Y066187D03*
X092874Y065253D03*
X09034Y07697D03*
X09134D03*
X09034Y07597D03*
X09134D03*
X09034Y07497D03*
X09134D03*
X09034Y07397D03*
X09134D03*
X09034Y07297D03*
G54D30*
X09986Y06839D03*
G54D31*
X09625Y06762D03*
G54D32*
X09484Y07597D03*
X09502Y08681D03*
G54D33*
X093Y08944D03*
X09394Y09342D03*
X09441Y09308D03*
X09492Y09284D03*
X09313Y09363D03*
X09212Y08393D03*
X09315Y0873D03*
X0924Y07093D03*
X09303Y08349D03*
X094665Y071145D03*
X09403Y06961D03*
X094035Y071145D03*
X094665Y071775D03*
X094035D03*
X09355Y06881D03*
X09277Y07269D03*
X09853Y07267D03*
X09398Y08814D03*
X09286Y07697D03*
X10201Y06849D03*
X09761Y07247D03*
X0924Y08325D03*
X09271Y08393D03*
X09277Y0751D03*
X09675Y07121D03*
X09467Y08287D03*
X09156Y08522D03*
X09288Y07051D03*
X09921Y06953D03*
X1024Y08889D03*
X09146Y08949D03*
X093868Y06827D03*
X09266Y07341D03*
X09538Y06947D03*
X09494Y06922D03*
X09503Y0734D03*
X09544Y07307D03*
X09792Y07088D03*
X0957Y0702D03*
X09585Y07342D03*
X09624Y07303D03*
X09657Y07259D03*
X09634Y07175D03*
X09604Y07071D03*
X10038Y07048D03*
X09311Y08173D03*
X09071Y0895D03*
X09654Y0887D03*
X0955Y08889D03*
X09293Y08522D03*
X09324Y07291D03*
M02*