/*
*  Auto-Generated On: 07/12/2013 10:22
*  Author: Lauren Schmidt
*/

#if (defined(RONE_V9) || defined(RONE_V12))
#include "roneos.h"

const char MIDIFile_Starwars[] = {
	0x4d, 0x54, 0x68, 0x64, 0x00, 0x00, 0x00, 0x06, 0x00, 0x01, 
	0x00, 0x0d, 0x00, 0xf0, 0x4d, 0x54, 0x72, 0x6b, 0x00, 0x00, 
	0x02, 0x2f, 0x00, 0xff, 0x03, 0x08, 0x75, 0x6e, 0x74, 0x69, 
	0x74, 0x6c, 0x65, 0x64, 0x00, 0xff, 0x58, 0x04, 0x04, 0x02, 
	0x18, 0x08, 0x00, 0xff, 0x59, 0x02, 0x00, 0x00, 0x00, 0xff, 
	0x51, 0x03, 0x08, 0xe3, 0x7c, 0x00, 0xff, 0x7f, 0x0d, 0x05, 
	0x0f, 0x1c, 0x32, 0x30, 0x30, 0x34, 0x2e, 0x30, 0x39, 0x2e, 
	0x30, 0x35, 0x00, 0xff, 0x7f, 0x08, 0x05, 0x0f, 0x12, 0x00, 
	0x00, 0x7f, 0x7f, 0x00, 0x9c, 0x10, 0xff, 0x51, 0x03, 0x06, 
	0xd5, 0x11, 0x83, 0x60, 0xff, 0x51, 0x03, 0x08, 0xcd, 0x9b, 
	0xe7, 0x10, 0xff, 0x51, 0x03, 0x08, 0xcd, 0x9b, 0x81, 0x2a, 
	0xff, 0x51, 0x03, 0x08, 0xcd, 0x9b, 0x0a, 0xff, 0x51, 0x03, 
	0x08, 0xb8, 0x25, 0x81, 0x2a, 0xff, 0x51, 0x03, 0x08, 0xa3, 
	0x16, 0x0a, 0xff, 0x51, 0x03, 0x08, 0x8e, 0x6c, 0x81, 0x2a, 
	0xff, 0x51, 0x03, 0x08, 0x7a, 0x24, 0x0a, 0xff, 0x51, 0x03, 
	0x08, 0x66, 0x3b, 0x81, 0x2a, 0xff, 0x51, 0x03, 0x08, 0x66, 
	0x3b, 0x0a, 0xff, 0x51, 0x03, 0x08, 0x3f, 0x7d, 0x83, 0x56, 
	0xff, 0x51, 0x03, 0x08, 0x3f, 0x7d, 0x0a, 0xff, 0x51, 0x03, 
	0x07, 0xd3, 0x35, 0x81, 0x70, 0xff, 0x51, 0x03, 0x07, 0xb1, 
	0x8a, 0x83, 0x24, 0xff, 0x51, 0x03, 0x07, 0xb1, 0x8a, 0x0a, 
	0xff, 0x51, 0x03, 0x07, 0x90, 0xfc, 0xc3, 0x72, 0xff, 0x51, 
	0x03, 0x08, 0xcd, 0x9b, 0xec, 0x60, 0xff, 0x51, 0x03, 0x09, 
	0x89, 0x68, 0xbc, 0x14, 0xff, 0x51, 0x03, 0x09, 0xa3, 0x1b, 
	0x0a, 0xff, 0x51, 0x03, 0x09, 0xa3, 0x1b, 0x81, 0x3e, 0xff, 
	0x51, 0x03, 0x09, 0xbd, 0x5a, 0x0a, 0xff, 0x51, 0x03, 0x09, 
	0xd8, 0x29, 0x81, 0x3e, 0xff, 0x51, 0x03, 0x09, 0xf3, 0x8e, 
	0x0a, 0xff, 0x51, 0x03, 0x0a, 0x0f, 0x8d, 0x81, 0x34, 0xff, 
	0x51, 0x03, 0x0a, 0x49, 0x6d, 0x0a, 0xff, 0x51, 0x03, 0x0a, 
	0x49, 0x6d, 0x81, 0x2a, 0xff, 0x51, 0x03, 0x0a, 0x85, 0xf7, 
	0x0a, 0xff, 0x51, 0x03, 0x0a, 0x85, 0xf7, 0x81, 0x20, 0xff, 
	0x51, 0x03, 0x0a, 0xa5, 0x4a, 0x0a, 0xff, 0x51, 0x03, 0x0a, 
	0xc5, 0x5a, 0x81, 0x16, 0xff, 0x51, 0x03, 0x0a, 0xc5, 0x5a, 
	0x0a, 0xff, 0x51, 0x03, 0x0a, 0xe6, 0x2e, 0x81, 0x16, 0xff, 
	0x51, 0x03, 0x0b, 0x07, 0xcc, 0x0a, 0xff, 0x51, 0x03, 0x0b, 
	0x2a, 0x3b, 0x81, 0x0c, 0xff, 0x51, 0x03, 0x0b, 0x4d, 0x85, 
	0x0a, 0xff, 0x51, 0x03, 0x0b, 0x71, 0xb0, 0x81, 0x02, 0xff, 
	0x51, 0x03, 0x0b, 0x71, 0xb0, 0x0a, 0xff, 0x51, 0x03, 0x0b, 
	0x96, 0xc6, 0x81, 0x02, 0xff, 0x51, 0x03, 0x0b, 0xbc, 0xcf, 
	0x0a, 0xff, 0x51, 0x03, 0x0b, 0xe3, 0xd5, 0x81, 0x02, 0xff, 
	0x51, 0x03, 0x0c, 0x0b, 0xe2, 0x0a, 0xff, 0x51, 0x03, 0x0c, 
	0x0b, 0xe2, 0x6e, 0xff, 0x51, 0x03, 0x0c, 0x35, 0x00, 0x0a, 
	0xff, 0x51, 0x03, 0x0c, 0x5f, 0x3b, 0x78, 0xff, 0x51, 0x03, 
	0x0c, 0x8a, 0x9e, 0x0a, 0xff, 0x51, 0x03, 0x0c, 0x8a, 0x9e, 
	0x6e, 0xff, 0x51, 0x03, 0x0c, 0xe5, 0x0e, 0x0a, 0xff, 0x51, 
	0x03, 0x0c, 0xe5, 0x0e, 0x64, 0xff, 0x51, 0x03, 0x0c, 0xe5, 
	0x0e, 0x0a, 0xff, 0x51, 0x03, 0x0d, 0x14, 0x37, 0x50, 0xff, 
	0x51, 0x03, 0x08, 0x2c, 0xa2, 0x0a, 0xff, 0x51, 0x03, 0x06, 
	0xef, 0x91, 0x81, 0x94, 0x74, 0xff, 0x51, 0x03, 0x06, 0xef, 
	0x91, 0x0a, 0xff, 0x51, 0x03, 0x06, 0xd5, 0x11, 0x82, 0x54, 
	0xff, 0x51, 0x03, 0x06, 0xbb, 0x58, 0x0a, 0xff, 0x51, 0x03, 
	0x06, 0xbb, 0x58, 0x46, 0xff, 0x51, 0x03, 0x06, 0xbb, 0x58, 
	0x0a, 0xff, 0x51, 0x03, 0x06, 0xbb, 0x58, 0x81, 0x2a, 0xff, 
	0x51, 0x03, 0x06, 0xae, 0xc4, 0x0a, 0xff, 0x51, 0x03, 0x06, 
	0xae, 0xc4, 0xdb, 0x66, 0xff, 0x51, 0x03, 0x06, 0xfd, 0x1f, 
	0x0a, 0xff, 0x51, 0x03, 0x07, 0x0a, 0xe2, 0x96, 0x36, 0xff, 
	0x51, 0x03, 0x0b, 0x96, 0xc6, 0x0a, 0xff, 0x51, 0x03, 0x0c, 
	0xb7, 0x35, 0x83, 0x56, 0xff, 0x51, 0x03, 0x08, 0x7a, 0x24, 
	0x0a, 0xff, 0x51, 0x03, 0x07, 0x71, 0x7d, 0x00, 0xff, 0x2f, 
	0x00, 0x4d, 0x54, 0x72, 0x6b, 0x00, 0x00, 0x00, 0xe2, 0x00, 
	0xff, 0x03, 0x07, 0x54, 0x72, 0x61, 0x63, 0x6b, 0x20, 0x31, 
	0x00, 0xc1, 0x46, 0x00, 0xb1, 0x07, 0x68, 0x00, 0xff, 0x7f, 
	0x05, 0x05, 0x0f, 0x09, 0x40, 0x48, 0x00, 0xff, 0x7f, 0x0f, 
	0x05, 0x0f, 0x06, 0x47, 0x65, 0x6e, 0x65, 0x72, 0x61, 0x6c, 
	0x20, 0x4d, 0x49, 0x44, 0x49, 0x00, 0xb1, 0x12, 0x00, 0x0a, 
	0x12, 0x00, 0x87, 0x36, 0x91, 0x52, 0x46, 0x00, 0x46, 0x3e, 
	0x82, 0x5b, 0x52, 0x00, 0x03, 0x46, 0x00, 0x8a, 0x2d, 0x44, 
	0x42, 0x02, 0x3f, 0x46, 0x17, 0x44, 0x00, 0x05, 0x3f, 0x00, 
	0x2e, 0x3f, 0x46, 0x00, 0x44, 0x3a, 0x15, 0x44, 0x00, 0x01, 
	0x3f, 0x00, 0x3b, 0x3f, 0x42, 0x01, 0x44, 0x3e, 0x13, 0x44, 
	0x00, 0x01, 0x3f, 0x00, 0x3f, 0x41, 0x42, 0x01, 0x3f, 0x4a, 
	0x81, 0x3a, 0x41, 0x00, 0x07, 0x3f, 0x00, 0x35, 0x3f, 0x46, 
	0x00, 0x41, 0x42, 0x17, 0x41, 0x00, 0x01, 0x3f, 0x00, 0x37, 
	0x3f, 0x46, 0x03, 0x41, 0x3e, 0x12, 0x3f, 0x00, 0x03, 0x41, 
	0x00, 0x38, 0x41, 0x42, 0x00, 0x3f, 0x46, 0x18, 0x41, 0x00, 
	0x02, 0x3f, 0x00, 0x3e, 0x41, 0x46, 0x02, 0x3f, 0x4a, 0x13, 
	0x41, 0x00, 0x0a, 0x3f, 0x00, 0x82, 0x13, 0x45, 0x36, 0x29, 
	0x46, 0x32, 0x03, 0x45, 0x00, 0x2b, 0x46, 0x00, 0x07, 0x48, 
	0x32, 0x2a, 0x48, 0x00, 0x01, 0x49, 0x32, 0x2f, 0x4b, 0x32, 
	0x05, 0x49, 0x00, 0x28, 0x4b, 0x00, 0x02, 0x4d, 0x34, 0x32, 
	0x4d, 0x00, 0x03, 0x4f, 0x34, 0x2b, 0x4f, 0x00, 0x03, 0x51, 
	0x34, 0x3c, 0x52, 0x30, 0x02, 0x51, 0x00, 0x84, 0x39, 0x52, 
	0x00, 0x00, 0xff, 0x2f, 0x00, 0x4d, 0x54, 0x72, 0x6b, 0x00, 
	0x00, 0x00, 0xb6, 0x00, 0xff, 0x03, 0x07, 0x54, 0x72, 0x61, 
	0x63, 0x6b, 0x20, 0x32, 0x00, 0xc0, 0x49, 0x00, 0xb0, 0x07, 
	0x6c, 0x00, 0xff, 0x7f, 0x05, 0x05, 0x0f, 0x09, 0x00, 0x40, 
	0x00, 0xff, 0x7f, 0x0f, 0x05, 0x0f, 0x06, 0x47, 0x65, 0x6e, 
	0x65, 0x72, 0x61, 0x6c, 0x20, 0x4d, 0x49, 0x44, 0x49, 0x00, 
	0xb0, 0x12, 0x00, 0x02, 0x12, 0x00, 0x83, 0x82, 0x38, 0x90, 
	0x51, 0x39, 0x81, 0x01, 0x50, 0x30, 0x05, 0x51, 0x00, 0x6f, 
	0x51, 0x2e, 0x04, 0x50, 0x00, 0x81, 0x04, 0x50, 0x37, 0x0a, 
	0x51, 0x00, 0x6e, 0x51, 0x35, 0x01, 0x50, 0x00, 0x70, 0x50, 
	0x36, 0x08, 0x51, 0x00, 0x76, 0x50, 0x00, 0x00, 0x51, 0x35, 
	0x75, 0x4d, 0x38, 0x0d, 0x51, 0x00, 0x74, 0x50, 0x38, 0x01, 
	0x4d, 0x00, 0x73, 0x4d, 0x30, 0x02, 0x50, 0x00, 0x75, 0x50, 
	0x3b, 0x03, 0x4d, 0x00, 0x73, 0x50, 0x00, 0x02, 0x4d, 0x38, 
	0x7c, 0x50, 0x43, 0x01, 0x4d, 0x00, 0x71, 0x50, 0x00, 0x00, 
	0x4d, 0x35, 0x7b, 0x50, 0x3b, 0x03, 0x4d, 0x00, 0x78, 0x50, 
	0x00, 0x01, 0x4d, 0x30, 0x7e, 0x4d, 0x00, 0x02, 0x50, 0x3b, 
	0x6b, 0x50, 0x00, 0x03, 0x4d, 0x2d, 0x78, 0x4d, 0x00, 0x00, 
	0x51, 0x38, 0x76, 0x51, 0x00, 0x03, 0x4d, 0x35, 0x7c, 0x4d, 
	0x00, 0x00, 0xff, 0x2f, 0x00, 0x4d, 0x54, 0x72, 0x6b, 0x00, 
	0x00, 0x06, 0x8a, 0x00, 0xff, 0x03, 0x07, 0x54, 0x72, 0x61, 
	0x63, 0x6b, 0x20, 0x33, 0x00, 0xc2, 0x3c, 0x00, 0xb2, 0x07, 
	0x7e, 0x00, 0xff, 0x7f, 0x05, 0x05, 0x0f, 0x09, 0x00, 0x40, 
	0x00, 0xff, 0x7f, 0x0f, 0x05, 0x0f, 0x06, 0x47, 0x65, 0x6e, 
	0x65, 0x72, 0x61, 0x6c, 0x20, 0x4d, 0x49, 0x44, 0x49, 0x00, 
	0xb2, 0x12, 0x00, 0x0c, 0x12, 0x40, 0x89, 0x29, 0x92, 0x3a, 
	0x72, 0x82, 0x47, 0x3a, 0x00, 0x21, 0x3a, 0x72, 0x2d, 0x3a, 
	0x00, 0x4b, 0x3a, 0x72, 0x32, 0x3a, 0x00, 0x1e, 0x3a, 0x72, 
	0x23, 0x3a, 0x00, 0x2d, 0x3a, 0x72, 0x21, 0x3a, 0x00, 0x2f, 
	0x3a, 0x72, 0x82, 0x27, 0x3a, 0x00, 0x4b, 0x41, 0x72, 0x1e, 
	0x41, 0x00, 0x53, 0x46, 0x72, 0x02, 0x41, 0x72, 0x81, 0x48, 
	0x41, 0x00, 0x1f, 0x3f, 0x72, 0x1d, 0x46, 0x00, 0x06, 0x3f, 
	0x00, 0x31, 0x44, 0x72, 0x01, 0x3f, 0x72, 0x1a, 0x44, 0x00, 
	0x04, 0x3f, 0x00, 0x2c, 0x44, 0x72, 0x05, 0x3f, 0x72, 0x1a, 
	0x44, 0x00, 0x01, 0x3f, 0x00, 0x32, 0x46, 0x72, 0x01, 0x3f, 
	0x72, 0x22, 0x46, 0x00, 0x32, 0x46, 0x72, 0x1e, 0x46, 0x00, 
	0x29, 0x46, 0x72, 0x25, 0x46, 0x00, 0x0d, 0x3f, 0x00, 0x27, 
	0x46, 0x72, 0x04, 0x3f, 0x72, 0x1f, 0x3f, 0x00, 0x33, 0x3f, 
	0x72, 0x20, 0x3f, 0x00, 0x2d, 0x3f, 0x72, 0x1c, 0x3f, 0x00, 
	0x32, 0x3f, 0x72, 0x81, 0x18, 0x3f, 0x00, 0x14, 0x46, 0x00, 
	0x9a, 0x5c, 0x44, 0x72, 0x15, 0x48, 0x72, 0x10, 0x44, 0x00, 
	0x12, 0x48, 0x00, 0x26, 0x47, 0x72, 0x02, 0x43, 0x72, 0x1e, 
	0x47, 0x00, 0x06, 0x43, 0x00, 0x28, 0x44, 0x72, 0x02, 0x48, 
	0x72, 0x22, 0x48, 0x00, 0x03, 0x44, 0x00, 0x28, 0x45, 0x72, 
	0x05, 0x41, 0x72, 0x83, 0x29, 0x41, 0x00, 0x00, 0x45, 0x00, 
	0x82, 0x1f, 0x32, 0x57, 0x81, 0x01, 0x32, 0x00, 0x6e, 0x32, 
	0x57, 0x6d, 0x32, 0x00, 0x7a, 0x32, 0x57, 0x67, 0x32, 0x00, 
	0x58, 0x32, 0x57, 0x11, 0x32, 0x00, 0x1e, 0x32, 0x57, 0x1f, 
	0x32, 0x00, 0x3c, 0x32, 0x57, 0x1b, 0x32, 0x00, 0x2c, 0x32, 
	0x57, 0x21, 0x32, 0x00, 0x33, 0x33, 0x57, 0x81, 0x34, 0x33, 
	0x00, 0x2e, 0x35, 0x57, 0x7d, 0x35, 0x00, 0x1e, 0x37, 0x57, 
	0x37, 0x37, 0x00, 0x37, 0x37, 0x57, 0x81, 0x2d, 0x37, 0x00, 
	0x32, 0x35, 0x57, 0x81, 0x25, 0x35, 0x00, 0x51, 0x33, 0x57, 
	0x81, 0x30, 0x33, 0x00, 0x3f, 0x33, 0x57, 0x00, 0x3f, 0x57, 
	0x19, 0x33, 0x00, 0x01, 0x3f, 0x00, 0x38, 0x33, 0x57, 0x00, 
	0x3f, 0x57, 0x19, 0x33, 0x00, 0x01, 0x3f, 0x00, 0x31, 0x33, 
	0x57, 0x00, 0x3f, 0x57, 0x1d, 0x3f, 0x00, 0x00, 0x33, 0x00, 
	0x37, 0x39, 0x57, 0x00, 0x3a, 0x57, 0x01, 0x3e, 0x57, 0x81, 
	0x38, 0x3a, 0x00, 0x04, 0x3e, 0x00, 0x0c, 0x39, 0x00, 0x23, 
	0x3e, 0x57, 0x03, 0x3a, 0x57, 0x19, 0x3e, 0x00, 0x06, 0x3a, 
	0x00, 0x29, 0x3e, 0x57, 0x03, 0x3a, 0x57, 0x1c, 0x3a, 0x00, 
	0x00, 0x3e, 0x00, 0x30, 0x3e, 0x57, 0x04, 0x3a, 0x57, 0x19, 
	0x3e, 0x00, 0x0b, 0x3a, 0x00, 0x2e, 0x48, 0x57, 0x00, 0x44, 
	0x57, 0x1e, 0x48, 0x00, 0x09, 0x44, 0x00, 0x2d, 0x43, 0x57, 
	0x00, 0x47, 0x57, 0x1d, 0x47, 0x00, 0x05, 0x43, 0x00, 0x2d, 
	0x44, 0x57, 0x02, 0x48, 0x57, 0x21, 0x48, 0x00, 0x02, 0x44, 
	0x00, 0x2d, 0x45, 0x57, 0x00, 0x41, 0x57, 0x83, 0x19, 0x45, 
	0x00, 0x09, 0x41, 0x00, 0x82, 0x2e, 0x37, 0x31, 0x03, 0x3f, 
	0x26, 0x81, 0x48, 0x3f, 0x00, 0x05, 0x37, 0x00, 0x23, 0x37, 
	0x33, 0x00, 0x3f, 0x32, 0x83, 0x18, 0x3f, 0x00, 0x02, 0x37, 
	0x00, 0x37, 0x37, 0x32, 0x02, 0x3f, 0x36, 0x81, 0x49, 0x3f, 
	0x00, 0x07, 0x37, 0x00, 0x20, 0x3f, 0x38, 0x00, 0x37, 0x36, 
	0x82, 0x4f, 0x37, 0x00, 0x08, 0x3f, 0x00, 0x1e, 0x37, 0x41, 
	0x55, 0x37, 0x00, 0x1b, 0x39, 0x3f, 0x00, 0x41, 0x42, 0x82, 
	0x66, 0x39, 0x00, 0x02, 0x41, 0x00, 0x0e, 0x39, 0x44, 0x40, 
	0x39, 0x00, 0x2d, 0x3f, 0x47, 0x02, 0x37, 0x47, 0x6c, 0x37, 
	0x00, 0x0a, 0x3f, 0x00, 0x76, 0x3f, 0x4b, 0x02, 0x37, 0x4b, 
	0x83, 0x27, 0x37, 0x00, 0x0e, 0x3f, 0x00, 0x24, 0x3f, 0x4f, 
	0x03, 0x37, 0x51, 0x81, 0x42, 0x37, 0x00, 0x03, 0x3f, 0x00, 
	0x2c, 0x38, 0x53, 0x01, 0x3d, 0x53, 0x81, 0x4f, 0x38, 0x00, 
	0x08, 0x3d, 0x00, 0x12, 0x3c, 0x56, 0x04, 0x39, 0x56, 0x81, 
	0x52, 0x39, 0x00, 0x01, 0x3c, 0x00, 0x13, 0x37, 0x58, 0x02, 
	0x3f, 0x58, 0x81, 0x75, 0x3c, 0x5c, 0x01, 0x39, 0x5c, 0x04, 
	0x3f, 0x00, 0x03, 0x37, 0x00, 0x81, 0x43, 0x39, 0x00, 0x0a, 
	0x3c, 0x00, 0x29, 0x37, 0x5f, 0x04, 0x3f, 0x5f, 0x81, 0x61, 
	0x37, 0x00, 0x03, 0x39, 0x62, 0x6c, 0x3a, 0x63, 0x0a, 0x39, 
	0x00, 0x72, 0x3b, 0x64, 0x05, 0x3a, 0x00, 0x55, 0x3f, 0x00, 
	0x0f, 0x3e, 0x65, 0x73, 0x3e, 0x00, 0x14, 0x3c, 0x67, 0x05, 
	0x3b, 0x00, 0x57, 0x3c, 0x00, 0x03, 0x3a, 0x68, 0x02, 0x3e, 
	0x68, 0x73, 0x3e, 0x00, 0x05, 0x3a, 0x00, 0x0b, 0x3f, 0x68, 
	0x02, 0x3a, 0x68, 0x81, 0x68, 0x35, 0x68, 0x01, 0x41, 0x68, 
	0x07, 0x3f, 0x00, 0x81, 0x48, 0x3a, 0x00, 0x29, 0x3c, 0x68, 
	0x81, 0x51, 0x41, 0x00, 0x0a, 0x3c, 0x00, 0x0a, 0x35, 0x00, 
	0x25, 0x41, 0x67, 0x67, 0x41, 0x00, 0x4b, 0x41, 0x67, 0x28, 
	0x41, 0x00, 0x07, 0x46, 0x67, 0x17, 0x42, 0x67, 0x81, 0x0c, 
	0x42, 0x00, 0x20, 0x41, 0x67, 0x08, 0x44, 0x67, 0x1c, 0x41, 
	0x00, 0x07, 0x44, 0x00, 0x15, 0x42, 0x67, 0x04, 0x3f, 0x67, 
	0x81, 0x0e, 0x42, 0x00, 0x04, 0x3f, 0x00, 0x16, 0x3d, 0x67, 
	0x00, 0x41, 0x67, 0x22, 0x3d, 0x00, 0x06, 0x41, 0x00, 0x1e, 
	0x3f, 0x67, 0x02, 0x3c, 0x67, 0x7e, 0x3f, 0x00, 0x06, 0x3c, 
	0x00, 0x1e, 0x3a, 0x67, 0x12, 0x3d, 0x67, 0x10, 0x3a, 0x00, 
	0x14, 0x3d, 0x00, 0x0a, 0x38, 0x67, 0x0a, 0x3c, 0x67, 0x59, 
	0x3c, 0x00, 0x00, 0x38, 0x00, 0x1e, 0x46, 0x00, 0x29, 0x36, 
	0x67, 0x06, 0x3a, 0x67, 0x18, 0x3a, 0x00, 0x0a, 0x36, 0x00, 
	0xb2, 0x48, 0x3c, 0x79, 0x19, 0x3c, 0x00, 0x1d, 0x3c, 0x70, 
	0x81, 0x79, 0x39, 0x7f, 0x01, 0x3c, 0x00, 0x3c, 0x39, 0x00, 
	0x77, 0x3c, 0x70, 0x18, 0x3c, 0x00, 0x24, 0x3c, 0x76, 0x81, 
	0x67, 0x39, 0x7e, 0x06, 0x3c, 0x00, 0x3f, 0x39, 0x00, 0x61, 
	0x3f, 0x70, 0x22, 0x3f, 0x00, 0x18, 0x3f, 0x60, 0x81, 0x7b, 
	0x3e, 0x6b, 0x0f, 0x3f, 0x00, 0x46, 0x3e, 0x00, 0x28, 0x3f, 
	0x65, 0x32, 0x3e, 0x66, 0x14, 0x3f, 0x00, 0x27, 0x3c, 0x79, 
	0x06, 0x3e, 0x00, 0x37, 0x3c, 0x00, 0x3f, 0x39, 0x7c, 0x81, 
	0x3e, 0x39, 0x00, 0x88, 0x75, 0x3e, 0x2b, 0x05, 0x37, 0x7e, 
	0x85, 0x31, 0x3e, 0x00, 0x2e, 0x37, 0x00, 0xa4, 0x33, 0x3a, 
	0x6c, 0x02, 0x3e, 0x7f, 0x18, 0x3a, 0x00, 0x02, 0x3e, 0x00, 
	0x0c, 0x3a, 0x67, 0x02, 0x3e, 0x7f, 0x19, 0x3a, 0x00, 0x03, 
	0x3e, 0x00, 0x0a, 0x3a, 0x72, 0x02, 0x3e, 0x7f, 0x18, 0x3a, 
	0x00, 0x02, 0x3e, 0x00, 0x0c, 0x3b, 0x6c, 0x01, 0x3f, 0x7f, 
	0x19, 0x3b, 0x00, 0x01, 0x3f, 0x00, 0x0d, 0x3b, 0x72, 0x02, 
	0x3f, 0x7f, 0x17, 0x3b, 0x00, 0x02, 0x3f, 0x00, 0x0b, 0x3b, 
	0x7f, 0x02, 0x3f, 0x7f, 0x1a, 0x3b, 0x00, 0x01, 0x3f, 0x00, 
	0x0d, 0x41, 0x7f, 0x00, 0x3d, 0x6c, 0x19, 0x3d, 0x00, 0x00, 
	0x41, 0x00, 0x0d, 0x3d, 0x6c, 0x00, 0x41, 0x7f, 0x1b, 0x41, 
	0x00, 0x00, 0x3d, 0x00, 0x0c, 0x41, 0x7f, 0x03, 0x3d, 0x6c, 
	0x14, 0x41, 0x00, 0x02, 0x3d, 0x00, 0xbd, 0x0c, 0x3a, 0x5d, 
	0x00, 0x3e, 0x7f, 0x15, 0x3a, 0x00, 0x05, 0x3e, 0x00, 0x0c, 
	0x3a, 0x6d, 0x02, 0x3e, 0x7f, 0x19, 0x3a, 0x00, 0x03, 0x3e, 
	0x00, 0x0a, 0x3a, 0x70, 0x02, 0x3e, 0x7f, 0x18, 0x3a, 0x00, 
	0x02, 0x3e, 0x00, 0x0c, 0x3b, 0x72, 0x01, 0x3f, 0x7f, 0x19, 
	0x3b, 0x00, 0x01, 0x3f, 0x00, 0x0d, 0x3b, 0x75, 0x02, 0x3f, 
	0x7f, 0x17, 0x3b, 0x00, 0x02, 0x3f, 0x00, 0x0b, 0x3b, 0x77, 
	0x02, 0x3f, 0x7f, 0x1a, 0x3b, 0x00, 0x01, 0x3f, 0x00, 0x0d, 
	0x41, 0x7f, 0x00, 0x3d, 0x79, 0x19, 0x3d, 0x00, 0x00, 0x41, 
	0x00, 0x0d, 0x3d, 0x7b, 0x02, 0x41, 0x7f, 0x19, 0x3d, 0x00, 
	0x01, 0x41, 0x00, 0x0e, 0x3d, 0x7e, 0x00, 0x41, 0x7f, 0x16, 
	0x41, 0x00, 0x00, 0x3d, 0x00, 0xd6, 0x5f, 0x34, 0x58, 0x83, 
	0x57, 0x39, 0x63, 0x0e, 0x34, 0x00, 0x87, 0x0b, 0x3b, 0x70, 
	0x08, 0x39, 0x00, 0x83, 0x6a, 0x40, 0x4c, 0x81, 0x77, 0x3c, 
	0x63, 0x10, 0x3b, 0x00, 0x53, 0x3e, 0x58, 0x02, 0x3c, 0x00, 
	0x71, 0x3e, 0x00, 0x1e, 0x45, 0x55, 0x18, 0x40, 0x00, 0x87, 
	0x0c, 0x47, 0x48, 0x1b, 0x45, 0x00, 0x83, 0x49, 0x34, 0x7f, 
	0x82, 0x0a, 0x48, 0x44, 0x0d, 0x47, 0x00, 0x61, 0x48, 0x00, 
	0x0e, 0x4a, 0x53, 0x3a, 0x39, 0x6c, 0x02, 0x34, 0x00, 0x5a, 
	0x4a, 0x00, 0x03, 0x48, 0x43, 0x85, 0x07, 0x3b, 0x57, 0x13, 
	0x39, 0x00, 0x05, 0x48, 0x00, 0x07, 0x47, 0x49, 0x81, 0x6a, 
	0x3c, 0x64, 0x09, 0x3b, 0x00, 0x06, 0x47, 0x00, 0x00, 0x45, 
	0x3f, 0x81, 0x50, 0x34, 0x64, 0x02, 0x3c, 0x00, 0x81, 0x7d, 
	0x3c, 0x57, 0x02, 0x34, 0x00, 0x08, 0x43, 0x27, 0x21, 0x45, 
	0x00, 0x71, 0x39, 0x64, 0x0a, 0x3c, 0x00, 0x81, 0x17, 0x40, 
	0x64, 0x03, 0x39, 0x00, 0x81, 0x1e, 0x40, 0x00, 0x04, 0x43, 
	0x00, 0x9a, 0x19, 0x45, 0x79, 0x81, 0x3e, 0x45, 0x00, 0x81, 
	0x34, 0x45, 0x56, 0x38, 0x45, 0x00, 0x8b, 0x45, 0x41, 0x5b, 
	0x82, 0x33, 0x41, 0x00, 0x29, 0x46, 0x5b, 0x5a, 0x46, 0x00, 
	0x31, 0x45, 0x65, 0x83, 0x4d, 0x45, 0x00, 0x16, 0x41, 0x65, 
	0x82, 0x59, 0x41, 0x00, 0x20, 0x46, 0x6f, 0x47, 0x46, 0x00, 
	0x27, 0x45, 0x5b, 0x82, 0x72, 0x45, 0x00, 0x6c, 0x45, 0x78, 
	0x81, 0x31, 0x45, 0x00, 0x81, 0x37, 0x45, 0x6d, 0x39, 0x45, 
	0x00, 0x8b, 0x5f, 0x42, 0x60, 0x83, 0x4e, 0x42, 0x00, 0x83, 
	0x43, 0xb2, 0x12, 0x3f, 0x87, 0x68, 0x92, 0x3c, 0x60, 0x1f, 
	0x3c, 0x00, 0x31, 0x3a, 0x69, 0x22, 0x3a, 0x00, 0x2e, 0x39, 
	0x50, 0x27, 0x39, 0x00, 0x1f, 0x43, 0x60, 0x83, 0x50, 0x43, 
	0x00, 0x1a, 0x3e, 0x62, 0x85, 0x34, 0x3e, 0x00, 0x1c, 0x3c, 
	0x62, 0x42, 0x3c, 0x00, 0x0e, 0x3a, 0x5c, 0x47, 0x3a, 0x00, 
	0x09, 0x39, 0x53, 0x45, 0x39, 0x00, 0x0b, 0x43, 0x5c, 0x83, 
	0x60, 0x3e, 0x62, 0x04, 0x43, 0x00, 0x85, 0x4c, 0x3c, 0x59, 
	0x0a, 0x3e, 0x00, 0x85, 0x00, 0x3c, 0x00, 0x46, 0x35, 0x74, 
	0x4b, 0x35, 0x00, 0x81, 0x25, 0x35, 0x65, 0x83, 0x1b, 0x35, 
	0x00, 0x45, 0x37, 0x6a, 0x5b, 0x37, 0x00, 0x81, 0x15, 0x35, 
	0x69, 0x56, 0x35, 0x00, 0x81, 0x1a, 0x35, 0x65, 0x83, 0x19, 
	0x35, 0x00, 0x47, 0x37, 0x63, 0x81, 0x12, 0x37, 0x00, 0x5e, 
	0x35, 0x6d, 0x69, 0x35, 0x00, 0x81, 0x07, 0x35, 0x6a, 0x82, 
	0x71, 0x35, 0x00, 0x6f, 0x33, 0x6a, 0x81, 0x02, 0x33, 0x00, 
	0x6e, 0x35, 0x6d, 0x63, 0x35, 0x00, 0x81, 0x0d, 0x35, 0x6e, 
	0x83, 0x23, 0x35, 0x00, 0x3d, 0x33, 0x6f, 0x79, 0x33, 0x00, 
	0xbd, 0x41, 0x44, 0x7f, 0x0c, 0x3c, 0x7f, 0x2d, 0x44, 0x00, 
	0x04, 0x3c, 0x00, 0x14, 0x46, 0x7f, 0x01, 0x3f, 0x7f, 0x32, 
	0x46, 0x00, 0x04, 0x3f, 0x00, 0x1b, 0x44, 0x7f, 0x05, 0x4d, 
	0x7f, 0x4e, 0x44, 0x00, 0x33, 0x4d, 0x00, 0x1c, 0x44, 0x7f, 
	0x07, 0x3c, 0x7f, 0x0b, 0x44, 0x00, 0x05, 0x46, 0x7f, 0x07, 
	0x3f, 0x7f, 0x05, 0x3c, 0x00, 0x1e, 0x4d, 0x7f, 0x03, 0x46, 
	0x00, 0x11, 0x44, 0x7f, 0x14, 0x3f, 0x00, 0x81, 0x6c, 0x44, 
	0x00, 0x81, 0x3e, 0x4d, 0x00, 0x89, 0x4e, 0x43, 0x7f, 0x81, 
	0x2a, 0x43, 0x00, 0x46, 0x4a, 0x7f, 0x81, 0x34, 0x4a, 0x00, 
	0x3c, 0x48, 0x7f, 0x25, 0x48, 0x00, 0x2b, 0x47, 0x7f, 0x2f, 
	0x47, 0x00, 0x21, 0x45, 0x7f, 0x2d, 0x45, 0x00, 0x91, 0x13, 
	0x3e, 0x7f, 0x13, 0x3e, 0x00, 0x3d, 0x3e, 0x7f, 0x15, 0x3e, 
	0x00, 0x3b, 0x3e, 0x7f, 0x18, 0x3e, 0x00, 0x38, 0x3e, 0x7f, 
	0x72, 0x3e, 0x00, 0x00, 0xff, 0x2f, 0x00, 0x4d, 0x54, 0x72, 
	0x6b, 0x00, 0x00, 0x0a, 0x86, 0x00, 0xff, 0x03, 0x07, 0x54, 
	0x72, 0x61, 0x63, 0x6b, 0x20, 0x34, 0x00, 0xc3, 0x38, 0x00, 
	0xb3, 0x07, 0x00, 0x00, 0xff, 0x7f, 0x05, 0x05, 0x0f, 0x09, 
	0x00, 0x40, 0x00, 0xff, 0x7f, 0x0f, 0x05, 0x0f, 0x06, 0x47, 
	0x65, 0x6e, 0x65, 0x72, 0x61, 0x6c, 0x20, 0x4d, 0x49, 0x44, 
	0x49, 0x00, 0xb3, 0x07, 0x7e, 0x0f, 0x12, 0x40, 0x8f, 0x60, 
	0x93, 0x46, 0x72, 0x14, 0x46, 0x00, 0x09, 0x46, 0x72, 0x14, 
	0x46, 0x00, 0x0a, 0x46, 0x72, 0x12, 0x46, 0x00, 0x0c, 0x46, 
	0x72, 0x1a, 0x46, 0x00, 0x06, 0x46, 0x72, 0x26, 0x46, 0x00, 
	0x28, 0x41, 0x72, 0x1b, 0x41, 0x00, 0x31, 0x4b, 0x72, 0x1a, 
	0x4b, 0x00, 0x3c, 0x4d, 0x72, 0x1f, 0x4d, 0x00, 0x31, 0x4b, 
	0x72, 0x1c, 0x4b, 0x00, 0x30, 0x46, 0x72, 0x22, 0x46, 0x00, 
	0x35, 0x46, 0x72, 0x21, 0x46, 0x00, 0x2b, 0x41, 0x72, 0x1f, 
	0x41, 0x00, 0x31, 0x4b, 0x72, 0x18, 0x4b, 0x00, 0x3d, 0x4d, 
	0x72, 0x1d, 0x4d, 0x00, 0x33, 0x4b, 0x72, 0x18, 0x4b, 0x00, 
	0x33, 0x46, 0x72, 0x1b, 0x46, 0x00, 0x39, 0x46, 0x72, 0x1e, 
	0x46, 0x00, 0x32, 0x41, 0x72, 0x20, 0x41, 0x00, 0x31, 0x4b, 
	0x72, 0x1d, 0x4b, 0x00, 0x37, 0x4d, 0x72, 0x1c, 0x4d, 0x00, 
	0x3f, 0x46, 0x72, 0x1a, 0x46, 0x00, 0x05, 0x46, 0x72, 0x26, 
	0x46, 0x00, 0x19, 0x46, 0x72, 0x25, 0x46, 0x00, 0x4e, 0x41, 
	0x71, 0x02, 0x39, 0x71, 0x0d, 0x41, 0x00, 0x00, 0x41, 0x71, 
	0x0f, 0x41, 0x00, 0x2d, 0x39, 0x00, 0x34, 0x41, 0x71, 0x17, 
	0x41, 0x00, 0x00, 0x41, 0x71, 0x16, 0x41, 0x00, 0x0a, 0xb3, 
	0x07, 0x7c, 0x49, 0x93, 0x41, 0x71, 0x16, 0x41, 0x00, 0x00, 
	0x41, 0x71, 0x17, 0x41, 0x00, 0x7d, 0x46, 0x71, 0x83, 0x33, 
	0x46, 0x00, 0x2d, 0x4d, 0x71, 0x83, 0x21, 0x4d, 0x00, 0x3c, 
	0x4b, 0x71, 0x22, 0x4b, 0x00, 0x24, 0x4a, 0x71, 0x1c, 0x4a, 
	0x00, 0x34, 0x48, 0x71, 0x22, 0x48, 0x00, 0x3b, 0x52, 0x71, 
	0x83, 0x24, 0x52, 0x00, 0x3a, 0x4d, 0x71, 0x81, 0x31, 0x4d, 
	0x00, 0x34, 0x4b, 0x71, 0x24, 0x4b, 0x00, 0x22, 0x4a, 0x71, 
	0x1c, 0x4a, 0x00, 0x37, 0x48, 0x71, 0x23, 0x48, 0x00, 0x3c, 
	0x52, 0x71, 0x83, 0x38, 0x52, 0x00, 0x32, 0x4d, 0x71, 0x81, 
	0x0c, 0x4d, 0x00, 0x60, 0x4b, 0x72, 0x1d, 0x4b, 0x00, 0x29, 
	0x4a, 0x72, 0x1e, 0x4a, 0x00, 0x32, 0x4b, 0x72, 0x1d, 0x4b, 
	0x00, 0x35, 0x48, 0x72, 0x83, 0x76, 0x48, 0x00, 0x5d, 0x41, 
	0x72, 0x17, 0x41, 0x00, 0x0f, 0x41, 0x72, 0x1e, 0x41, 0x00, 
	0x0a, 0x41, 0x72, 0x1e, 0x41, 0x00, 0x10, 0x46, 0x72, 0x83, 
	0x40, 0x46, 0x00, 0x25, 0x4d, 0x72, 0x83, 0x4c, 0x4d, 0x00, 
	0x14, 0x4b, 0x72, 0x1a, 0x4b, 0x00, 0x30, 0x4a, 0x72, 0x1a, 
	0x4a, 0x00, 0x35, 0x48, 0x72, 0x1e, 0x48, 0x00, 0x3a, 0x52, 
	0x72, 0x83, 0x44, 0x52, 0x00, 0x1c, 0x4d, 0x72, 0x81, 0x45, 
	0x4d, 0x00, 0x29, 0x4b, 0x72, 0x27, 0x4b, 0x00, 0x29, 0x4a, 
	0x72, 0x1b, 0x4a, 0x00, 0x2f, 0x48, 0x72, 0x1e, 0x48, 0x00, 
	0x37, 0x52, 0x72, 0x83, 0x58, 0x52, 0x00, 0x08, 0x4d, 0x72, 
	0x81, 0x5c, 0x4d, 0x00, 0x1a, 0x4b, 0x72, 0x1d, 0x4b, 0x00, 
	0x32, 0x4a, 0x72, 0x14, 0x4a, 0x00, 0x39, 0x4b, 0x72, 0x1c, 
	0x4b, 0x00, 0x32, 0x48, 0x72, 0x83, 0x3a, 0x48, 0x00, 0xad, 
	0x13, 0x4d, 0x72, 0x81, 0x18, 0x4d, 0x00, 0x26, 0x4d, 0x67, 
	0x28, 0x4d, 0x00, 0x1e, 0x52, 0x67, 0x01, 0x4e, 0x67, 0x2d, 
	0x4e, 0x00, 0x4b, 0x52, 0x00, 0x33, 0x4d, 0x67, 0x00, 0x50, 
	0x67, 0x1d, 0x50, 0x00, 0x09, 0x4d, 0x00, 0x1d, 0x4e, 0x67, 
	0x03, 0x4b, 0x67, 0x27, 0x4b, 0x00, 0x4f, 0x4e, 0x00, 0x3b, 
	0x4d, 0x67, 0x03, 0x49, 0x67, 0x1c, 0x49, 0x00, 0x06, 0x4d, 
	0x00, 0x1e, 0x4b, 0x67, 0x03, 0x48, 0x67, 0x3c, 0x48, 0x00, 
	0x3a, 0x4b, 0x00, 0x39, 0x49, 0x67, 0x01, 0x46, 0x67, 0x1b, 
	0x49, 0x00, 0x02, 0x46, 0x00, 0x1e, 0x48, 0x67, 0x06, 0x44, 
	0x67, 0x3d, 0x44, 0x00, 0x37, 0x48, 0x00, 0x2e, 0x46, 0x67, 
	0x1c, 0x46, 0x00, 0x3d, 0x4d, 0x6f, 0x83, 0x59, 0x4d, 0x00, 
	0x86, 0x75, 0x43, 0x7f, 0x00, 0x3f, 0x7f, 0x00, 0x46, 0x7f, 
	0x1c, 0x46, 0x00, 0x04, 0x43, 0x00, 0x03, 0x3f, 0x00, 0x19, 
	0x43, 0x7f, 0x00, 0x46, 0x7f, 0x00, 0x3f, 0x7f, 0x81, 0x59, 
	0x46, 0x00, 0x09, 0x43, 0x00, 0x02, 0x3f, 0x00, 0x0c, 0x3c, 
	0x70, 0x00, 0x43, 0x75, 0x00, 0x40, 0x7f, 0x3f, 0x40, 0x00, 
	0x2b, 0x43, 0x00, 0x04, 0x3c, 0x00, 0x46, 0x46, 0x7f, 0x00, 
	0x43, 0x7f, 0x00, 0x3f, 0x7f, 0x20, 0x46, 0x00, 0x05, 0x43, 
	0x00, 0x03, 0x3f, 0x00, 0x14, 0x46, 0x7f, 0x00, 0x3f, 0x7b, 
	0x00, 0x43, 0x7f, 0x81, 0x5f, 0x43, 0x00, 0x11, 0x3c, 0x74, 
	0x00, 0x43, 0x7f, 0x00, 0x40, 0x7f, 0x02, 0x3f, 0x00, 0x0f, 
	0x46, 0x00, 0x37, 0x40, 0x00, 0x08, 0x43, 0x00, 0x14, 0x3c, 
	0x00, 0x50, 0x46, 0x7f, 0x00, 0x42, 0x7f, 0x00, 0x49, 0x7f, 
	0x1a, 0x49, 0x00, 0x06, 0x46, 0x00, 0x0b, 0x42, 0x00, 0x11, 
	0x49, 0x7f, 0x00, 0x42, 0x74, 0x00, 0x46, 0x7f, 0x81, 0x43, 
	0x46, 0x00, 0x2d, 0x45, 0x7f, 0x00, 0x48, 0x7f, 0x00, 0x41, 
	0x7f, 0x01, 0x42, 0x00, 0x09, 0x49, 0x00, 0x38, 0x45, 0x00, 
	0x06, 0x48, 0x00, 0x09, 0x41, 0x00, 0x27, 0x49, 0x7e, 0x00, 
	0x42, 0x75, 0x00, 0x46, 0x7f, 0x2b, 0x46, 0x00, 0x0e, 0x49, 
	0x00, 0x03, 0x45, 0x7f, 0x00, 0x41, 0x6e, 0x00, 0x48, 0x7b, 
	0x03, 0x42, 0x00, 0x34, 0x45, 0x00, 0x05, 0x43, 0x7f, 0x00, 
	0x3f, 0x7f, 0x00, 0x46, 0x74, 0x02, 0x48, 0x00, 0x0d, 0x41, 
	0x00, 0x16, 0x3f, 0x00, 0x00, 0x43, 0x00, 0x00, 0x46, 0x00, 
	0x9b, 0x2c, 0x41, 0x7f, 0x04, 0x48, 0x7f, 0x06, 0x45, 0x7b, 
	0x1c, 0x48, 0x00, 0x03, 0x45, 0x00, 0x03, 0x41, 0x00, 0x1d, 
	0x41, 0x74, 0x02, 0x48, 0x74, 0x03, 0x45, 0x7c, 0x81, 0x61, 
	0x48, 0x00, 0x0f, 0x45, 0x00, 0x02, 0x45, 0x7c, 0x00, 0x3e, 
	0x7f, 0x03, 0x41, 0x00, 0x0a, 0x42, 0x7f, 0x41, 0x42, 0x00, 
	0x08, 0x45, 0x00, 0x07, 0x3e, 0x00, 0x5a, 0x45, 0x7f, 0x00, 
	0x48, 0x7f, 0x07, 0x41, 0x51, 0x13, 0x41, 0x00, 0x00, 0x48, 
	0x00, 0x01, 0x45, 0x00, 0x14, 0x41, 0x6b, 0x0e, 0x48, 0x7f, 
	0x05, 0x45, 0x7f, 0x81, 0x56, 0x45, 0x00, 0x00, 0x45, 0x7c, 
	0x03, 0x3e, 0x79, 0x03, 0x45, 0x00, 0x01, 0x48, 0x00, 0x0a, 
	0x41, 0x00, 0x00, 0x42, 0x79, 0x40, 0x42, 0x00, 0x0e, 0x3e, 
	0x00, 0x56, 0x48, 0x7e, 0x09, 0x4b, 0x74, 0x02, 0x44, 0x7f, 
	0x14, 0x48, 0x00, 0x09, 0x4b, 0x00, 0x02, 0x44, 0x00, 0x17, 
	0x48, 0x74, 0x04, 0x44, 0x75, 0x02, 0x4b, 0x70, 0x81, 0x5c, 
	0x48, 0x00, 0x08, 0x47, 0x7e, 0x06, 0x43, 0x7b, 0x00, 0x4a, 
	0x74, 0x0c, 0x44, 0x00, 0x09, 0x4b, 0x00, 0x27, 0x4a, 0x00, 
	0x00, 0x47, 0x00, 0x01, 0x43, 0x00, 0x3b, 0x4b, 0x6d, 0x01, 
	0x48, 0x7b, 0x03, 0x44, 0x79, 0x1a, 0x48, 0x00, 0x15, 0x44, 
	0x00, 0x00, 0x47, 0x5d, 0x04, 0x43, 0x6e, 0x09, 0x4a, 0x5a, 
	0x0f, 0x4b, 0x00, 0x14, 0x47, 0x00, 0x02, 0x43, 0x00, 0x0a, 
	0x41, 0x7f, 0x06, 0x48, 0x7f, 0x00, 0x45, 0x7f, 0x0c, 0x4a, 
	0x00, 0x17, 0x41, 0x00, 0x03, 0x45, 0x00, 0x22, 0x48, 0x00, 
	0x89, 0x58, 0x4c, 0x62, 0x30, 0x4c, 0x00, 0x02, 0x4d, 0x65, 
	0x21, 0x4d, 0x00, 0x0e, 0x4e, 0x6f, 0x24, 0x4f, 0x7d, 0x11, 
	0x4e, 0x00, 0x7b, 0x4f, 0x00, 0x8d, 0x71, 0x43, 0x75, 0x81, 
	0x34, 0x43, 0x00, 0x56, 0x43, 0x7b, 0x81, 0x24, 0x43, 0x00, 
	0x55, 0x43, 0x7b, 0x81, 0x11, 0x43, 0x00, 0x4d, 0x3f, 0x7b, 
	0x7b, 0x3f, 0x00, 0x32, 0x46, 0x7b, 0x25, 0x46, 0x00, 0x1c, 
	0x43, 0x7b, 0x81, 0x40, 0x43, 0x00, 0x35, 0x3f, 0x7b, 0x69, 
	0x3f, 0x00, 0x4e, 0x46, 0x7b, 0x25, 0x46, 0x00, 0x1a, 0x43, 
	0x7b, 0x82, 0x3b, 0x43, 0x00, 0x81, 0x21, 0x4a, 0x7b, 0x81, 
	0x24, 0x4a, 0x00, 0x4b, 0x4a, 0x7b, 0x81, 0x20, 0x4a, 0x00, 
	0x54, 0x4a, 0x7b, 0x81, 0x20, 0x4a, 0x00, 0x51, 0x4b, 0x7b, 
	0x6a, 0x4b, 0x00, 0x44, 0x46, 0x7b, 0x20, 0x46, 0x00, 0x1e, 
	0x42, 0x7b, 0x81, 0x17, 0x42, 0x00, 0x53, 0x3f, 0x7b, 0x81, 
	0x02, 0x3f, 0x00, 0x32, 0x46, 0x7b, 0x29, 0x46, 0x00, 0x19, 
	0x43, 0x7b, 0x82, 0x26, 0x43, 0x00, 0x81, 0x42, 0x4f, 0x7b, 
	0x81, 0x11, 0x4f, 0x00, 0x51, 0x43, 0x7b, 0x59, 0x43, 0x00, 
	0x6b, 0x43, 0x7b, 0x26, 0x43, 0x00, 0x12, 0x4f, 0x7b, 0x81, 
	0x24, 0x4f, 0x00, 0x4b, 0x4e, 0x7b, 0x7d, 0x4e, 0x00, 0x3c, 
	0x4d, 0x7b, 0x29, 0x4d, 0x00, 0x0c, 0x4c, 0x7b, 0x2d, 0x4c, 
	0x00, 0x0c, 0x4b, 0x7b, 0x24, 0x4b, 0x00, 0x0c, 0x4c, 0x7b, 
	0x4e, 0x4c, 0x00, 0x81, 0x2a, 0x44, 0x7b, 0x2d, 0x44, 0x00, 
	0x52, 0x49, 0x7b, 0x81, 0x34, 0x49, 0x00, 0x39, 0x48, 0x7b, 
	0x81, 0x16, 0x48, 0x00, 0x21, 0x47, 0x7b, 0x2a, 0x47, 0x00, 
	0x14, 0x46, 0x7b, 0x2d, 0x46, 0x00, 0x0d, 0x45, 0x7b, 0x29, 
	0x45, 0x00, 0x16, 0x46, 0x7b, 0x22, 0x46, 0x00, 0x81, 0x4e, 
	0x3f, 0x7b, 0x2c, 0x3f, 0x00, 0x47, 0x42, 0x7b, 0x81, 0x29, 
	0x42, 0x00, 0x45, 0x3f, 0x7b, 0x81, 0x17, 0x3f, 0x00, 0x22, 
	0x42, 0x7b, 0x22, 0x42, 0x00, 0x1b, 0x46, 0x7b, 0x81, 0x26, 
	0x46, 0x00, 0x4d, 0x43, 0x7b, 0x78, 0x43, 0x00, 0x37, 0x46, 
	0x7b, 0x23, 0x46, 0x00, 0x1b, 0x4a, 0x7b, 0x82, 0x52, 0x4a, 
	0x00, 0x81, 0x11, 0x4f, 0x7b, 0x81, 0x11, 0x4f, 0x00, 0x51, 
	0x43, 0x7b, 0x59, 0x43, 0x00, 0x6b, 0x43, 0x7b, 0x26, 0x43, 
	0x00, 0x12, 0x4f, 0x7b, 0x81, 0x24, 0x4f, 0x00, 0x4b, 0x4e, 
	0x7b, 0x7d, 0x4e, 0x00, 0x3c, 0x4d, 0x7b, 0x29, 0x4d, 0x00, 
	0x0c, 0x4c, 0x7b, 0x2d, 0x4c, 0x00, 0x0c, 0x4b, 0x7b, 0x24, 
	0x4b, 0x00, 0x0c, 0x4c, 0x7b, 0x4e, 0x4c, 0x00, 0x81, 0x2a, 
	0x44, 0x7b, 0x2d, 0x44, 0x00, 0x52, 0x49, 0x7b, 0x81, 0x34, 
	0x49, 0x00, 0x39, 0x48, 0x7b, 0x81, 0x16, 0x48, 0x00, 0x21, 
	0x47, 0x7b, 0x2a, 0x47, 0x00, 0x14, 0x46, 0x7b, 0x2d, 0x46, 
	0x00, 0x0d, 0x45, 0x7b, 0x29, 0x45, 0x00, 0x16, 0x46, 0x7b, 
	0x22, 0x46, 0x00, 0x81, 0x4e, 0x3f, 0x7b, 0x2c, 0x3f, 0x00, 
	0x47, 0x42, 0x7b, 0x81, 0x29, 0x42, 0x00, 0x45, 0x3f, 0x7b, 
	0x81, 0x17, 0x3f, 0x00, 0x22, 0x46, 0x7b, 0x22, 0x46, 0x00, 
	0x1b, 0x43, 0x7b, 0x81, 0x26, 0x43, 0x00, 0x4d, 0x3f, 0x7b, 
	0x78, 0x3f, 0x00, 0x37, 0x46, 0x7b, 0x23, 0x46, 0x00, 0x1b, 
	0x43, 0x7b, 0x82, 0x52, 0x43, 0x00, 0x93, 0x68, 0x3e, 0x7a, 
	0x81, 0x03, 0x3e, 0x00, 0x82, 0x63, 0x3e, 0x7f, 0x6c, 0x3e, 
	0x00, 0x82, 0x75, 0x3e, 0x7f, 0x62, 0x3e, 0x00, 0x8f, 0x0e, 
	0x3c, 0x6d, 0x00, 0x40, 0x6a, 0x01, 0x44, 0x70, 0x10, 0x44, 
	0x00, 0x03, 0x40, 0x00, 0x02, 0x3c, 0x00, 0x17, 0x3c, 0x65, 
	0x00, 0x44, 0x70, 0x00, 0x40, 0x56, 0x0f, 0x44, 0x00, 0x02, 
	0x40, 0x00, 0x03, 0x3c, 0x00, 0x0d, 0x40, 0x5b, 0x00, 0x44, 
	0x56, 0x03, 0x3c, 0x5b, 0x11, 0x44, 0x00, 0x02, 0x40, 0x00, 
	0x02, 0x3c, 0x00, 0x13, 0x41, 0x46, 0x01, 0x45, 0x4e, 0x01, 
	0x3d, 0x70, 0x0f, 0x41, 0x00, 0x03, 0x45, 0x00, 0x01, 0x3d, 
	0x00, 0x12, 0x45, 0x4b, 0x00, 0x41, 0x4b, 0x02, 0x3d, 0x6d, 
	0x0f, 0x45, 0x00, 0x01, 0x3d, 0x00, 0x02, 0x41, 0x00, 0x11, 
	0x45, 0x4e, 0x00, 0x41, 0x4e, 0x00, 0x3d, 0x79, 0x13, 0x45, 
	0x00, 0x01, 0x41, 0x00, 0x01, 0x3d, 0x00, 0x1b, 0x3a, 0x65, 
	0x01, 0x42, 0x7c, 0x01, 0x3e, 0x63, 0x0f, 0x42, 0x00, 0x03, 
	0x3a, 0x00, 0x01, 0x3e, 0x00, 0x10, 0x3e, 0x41, 0x00, 0x42, 
	0x6a, 0x03, 0x3a, 0x79, 0x0d, 0x42, 0x00, 0x02, 0x3e, 0x00, 
	0x02, 0x3a, 0x00, 0x0f, 0x3e, 0x4b, 0x01, 0x42, 0x77, 0x03, 
	0x3a, 0x69, 0x15, 0x42, 0x00, 0x03, 0x3a, 0x00, 0x00, 0x3e, 
	0x00, 0x81, 0x09, 0x40, 0x60, 0x00, 0x44, 0x7f, 0x01, 0x3c, 
	0x60, 0x11, 0x44, 0x00, 0x02, 0x40, 0x00, 0x01, 0x3c, 0x00, 
	0x16, 0x44, 0x5f, 0x00, 0x40, 0x60, 0x00, 0x3c, 0x65, 0x0f, 
	0x44, 0x00, 0x02, 0x3c, 0x00, 0x01, 0x40, 0x00, 0x0e, 0x40, 
	0x60, 0x00, 0x44, 0x60, 0x03, 0x3c, 0x50, 0x10, 0x44, 0x00, 
	0x02, 0x40, 0x00, 0x02, 0x3c, 0x00, 0x17, 0x41, 0x5b, 0x00, 
	0x3d, 0x7f, 0x02, 0x45, 0x5e, 0x0f, 0x45, 0x00, 0x01, 0x41, 
	0x00, 0x02, 0x3d, 0x00, 0x13, 0x45, 0x56, 0x00, 0x41, 0x50, 
	0x03, 0x3d, 0x6d, 0x0d, 0x45, 0x00, 0x02, 0x41, 0x00, 0x01, 
	0x3d, 0x00, 0x11, 0x41, 0x50, 0x02, 0x45, 0x60, 0x00, 0x3d, 
	0x79, 0x11, 0x45, 0x00, 0x03, 0x3d, 0x00, 0x00, 0x41, 0x00, 
	0x1c, 0x3e, 0x65, 0x00, 0x42, 0x7f, 0x03, 0x3a, 0x7f, 0x0f, 
	0x42, 0x00, 0x05, 0x3a, 0x00, 0x00, 0x3e, 0x00, 0x0f, 0x42, 
	0x7c, 0x01, 0x3e, 0x50, 0x01, 0x3a, 0x65, 0x0f, 0x42, 0x00, 
	0x03, 0x3e, 0x00, 0x05, 0x3a, 0x00, 0x06, 0x3e, 0x4b, 0x01, 
	0x42, 0x77, 0x03, 0x3a, 0x69, 0x15, 0x42, 0x00, 0x03, 0x3a, 
	0x00, 0x00, 0x3e, 0x00, 0x81, 0x07, 0x40, 0x6d, 0x00, 0x44, 
	0x6a, 0x01, 0x48, 0x70, 0x10, 0x48, 0x00, 0x03, 0x44, 0x00, 
	0x02, 0x40, 0x00, 0x17, 0x40, 0x65, 0x00, 0x48, 0x70, 0x00, 
	0x44, 0x56, 0x0f, 0x48, 0x00, 0x02, 0x44, 0x00, 0x03, 0x40, 
	0x00, 0x0d, 0x44, 0x5b, 0x00, 0x48, 0x56, 0x03, 0x40, 0x5b, 
	0x11, 0x48, 0x00, 0x02, 0x44, 0x00, 0x02, 0x40, 0x00, 0x13, 
	0x45, 0x46, 0x01, 0x49, 0x4e, 0x01, 0x41, 0x70, 0x0f, 0x45, 
	0x00, 0x03, 0x49, 0x00, 0x01, 0x41, 0x00, 0x12, 0x49, 0x4b, 
	0x00, 0x45, 0x4b, 0x02, 0x41, 0x6d, 0x0f, 0x49, 0x00, 0x01, 
	0x41, 0x00, 0x02, 0x45, 0x00, 0x11, 0x49, 0x4e, 0x00, 0x45, 
	0x4e, 0x00, 0x41, 0x79, 0x13, 0x49, 0x00, 0x01, 0x45, 0x00, 
	0x01, 0x41, 0x00, 0x1b, 0x3e, 0x65, 0x01, 0x46, 0x7c, 0x01, 
	0x42, 0x63, 0x0f, 0x46, 0x00, 0x03, 0x3e, 0x00, 0x01, 0x42, 
	0x00, 0x10, 0x42, 0x41, 0x00, 0x46, 0x6a, 0x03, 0x3e, 0x79, 
	0x0d, 0x46, 0x00, 0x02, 0x42, 0x00, 0x02, 0x3e, 0x00, 0x0f, 
	0x42, 0x4b, 0x01, 0x46, 0x77, 0x03, 0x3e, 0x69, 0x15, 0x46, 
	0x00, 0x03, 0x3e, 0x00, 0x00, 0x42, 0x00, 0x81, 0x09, 0x44, 
	0x60, 0x00, 0x48, 0x7f, 0x01, 0x40, 0x60, 0x14, 0x48, 0x00, 
	0x03, 0x44, 0x00, 0x01, 0x40, 0x00, 0x12, 0x48, 0x5f, 0x00, 
	0x44, 0x60, 0x00, 0x40, 0x65, 0x11, 0x48, 0x00, 0x04, 0x40, 
	0x00, 0x01, 0x44, 0x00, 0x0a, 0x44, 0x60, 0x00, 0x48, 0x60, 
	0x03, 0x40, 0x50, 0x14, 0x48, 0x00, 0x02, 0x44, 0x00, 0x03, 
	0x40, 0x00, 0x12, 0x45, 0x5b, 0x00, 0x41, 0x7f, 0x02, 0x49, 
	0x5e, 0x12, 0x49, 0x00, 0x02, 0x45, 0x00, 0x02, 0x41, 0x00, 
	0x0f, 0x49, 0x56, 0x00, 0x45, 0x50, 0x03, 0x41, 0x6d, 0x11, 
	0x49, 0x00, 0x01, 0x41, 0x00, 0x00, 0x45, 0x00, 0x0f, 0x45, 
	0x50, 0x02, 0x49, 0x60, 0x00, 0x41, 0x79, 0x14, 0x49, 0x00, 
	0x03, 0x45, 0x00, 0x02, 0x41, 0x00, 0x17, 0x42, 0x65, 0x00, 
	0x46, 0x7f, 0x03, 0x3e, 0x7f, 0x13, 0x46, 0x00, 0x05, 0x3e, 
	0x00, 0x00, 0x42, 0x00, 0x0b, 0x46, 0x7c, 0x01, 0x42, 0x50, 
	0x01, 0x3e, 0x65, 0x13, 0x46, 0x00, 0x03, 0x42, 0x00, 0x06, 
	0x3e, 0x00, 0x05, 0x42, 0x60, 0x00, 0x46, 0x72, 0x02, 0x3e, 
	0x7f, 0x18, 0x46, 0x00, 0x03, 0x3e, 0x00, 0x01, 0x42, 0x00, 
	0x1b, 0x43, 0x70, 0x00, 0x48, 0x77, 0x02, 0x3c, 0x6d, 0x62, 
	0x48, 0x00, 0x00, 0x43, 0x00, 0x02, 0x3c, 0x00, 0x81, 0x00, 
	0x43, 0x7f, 0x00, 0x3c, 0x72, 0x03, 0x48, 0x72, 0x2f, 0x48, 
	0x00, 0x02, 0x43, 0x00, 0x06, 0x3c, 0x00, 0x43, 0x48, 0x79, 
	0x02, 0x43, 0x69, 0x02, 0x3c, 0x7a, 0x60, 0x48, 0x00, 0x02, 
	0x43, 0x00, 0x02, 0x3c, 0x00, 0x81, 0x01, 0x43, 0x7c, 0x01, 
	0x48, 0x7f, 0x03, 0x3c, 0x70, 0x60, 0x43, 0x00, 0x01, 0x48, 
	0x00, 0x03, 0x3c, 0x00, 0x81, 0x04, 0x3c, 0x7f, 0x00, 0x43, 
	0x7f, 0x00, 0x48, 0x7f, 0x64, 0x48, 0x00, 0x00, 0x43, 0x00, 
	0x00, 0x3c, 0x00, 0xe5, 0x51, 0x4a, 0x61, 0x61, 0x4a, 0x00, 
	0x81, 0x0f, 0x51, 0x5f, 0x50, 0x51, 0x00, 0x81, 0x0e, 0x4f, 
	0x51, 0x3a, 0x4f, 0x00, 0x1a, 0x4e, 0x49, 0x3b, 0x4e, 0x00, 
	0x10, 0x4c, 0x54, 0x32, 0x4c, 0x00, 0x22, 0x56, 0x6b, 0x5f, 
	0x56, 0x00, 0x81, 0x24, 0x51, 0x58, 0x84, 0x51, 0x51, 0x00, 
	0x84, 0x33, 0x43, 0x75, 0x18, 0x43, 0x00, 0x2d, 0x42, 0x64, 
	0x2a, 0x42, 0x00, 0x18, 0x40, 0x6e, 0x1d, 0x40, 0x00, 0x52, 
	0x45, 0x77, 0x3f, 0x45, 0x00, 0x81, 0x2c, 0x43, 0x75, 0x17, 
	0x43, 0x00, 0x33, 0x42, 0x61, 0x29, 0x42, 0x00, 0x1e, 0x40, 
	0x67, 0x17, 0x40, 0x00, 0x52, 0x4a, 0x60, 0x58, 0x4a, 0x00, 
	0x81, 0x2b, 0x45, 0x75, 0x47, 0x45, 0x00, 0x6f, 0x4a, 0x46, 
	0x0a, 0x45, 0x66, 0x16, 0x4a, 0x00, 0x0b, 0x51, 0x60, 0x22, 
	0x45, 0x00, 0x0d, 0x4a, 0x6a, 0x16, 0x51, 0x00, 0x0f, 0x4a, 
	0x00, 0x81, 0x07, 0x4a, 0x3e, 0x02, 0x45, 0x5c, 0x1d, 0x45, 
	0x00, 0x00, 0x4a, 0x00, 0x00, 0x51, 0x5f, 0x10, 0x4a, 0x6e, 
	0x40, 0x4a, 0x00, 0x00, 0x51, 0x00, 0x6e, 0x45, 0x3f, 0x20, 
	0x45, 0x00, 0x08, 0x4f, 0x50, 0x07, 0x4a, 0x5e, 0x3e, 0x4a, 
	0x00, 0x0a, 0x4e, 0x58, 0x08, 0x4f, 0x00, 0x25, 0x4e, 0x00, 
	0x12, 0x4c, 0x58, 0x32, 0x4c, 0x00, 0x36, 0x56, 0x6e, 0x7e, 
	0x56, 0x00, 0x81, 0x0a, 0x51, 0x50, 0x81, 0x42, 0x4a, 0x38, 
	0x1e, 0x4a, 0x00, 0x42, 0x45, 0x72, 0x22, 0x45, 0x00, 0x25, 
	0x4a, 0x70, 0x1f, 0x4a, 0x00, 0x31, 0x4c, 0x69, 0x81, 0x24, 
	0x4c, 0x00, 0x50, 0x4a, 0x7f, 0x1f, 0x4a, 0x00, 0x47, 0x45, 
	0x5f, 0x2c, 0x45, 0x00, 0x12, 0x4a, 0x71, 0x23, 0x4a, 0x00, 
	0x2d, 0x53, 0x6d, 0x05, 0x51, 0x00, 0x00, 0x4e, 0x7b, 0x86, 
	0x4d, 0x4e, 0x00, 0x00, 0x53, 0x00, 0xa8, 0x15, 0x3a, 0x79, 
	0x4d, 0x3a, 0x00, 0x81, 0x23, 0x3a, 0x67, 0x83, 0x15, 0x3a, 
	0x00, 0x4b, 0x3a, 0x6e, 0x47, 0x3a, 0x00, 0x81, 0x29, 0x3a, 
	0x6f, 0x4d, 0x3a, 0x00, 0x81, 0x23, 0x3a, 0x6e, 0x83, 0x23, 
	0x3a, 0x00, 0x3d, 0x3a, 0x71, 0x56, 0x3a, 0x00, 0x81, 0x1a, 
	0x3a, 0x6f, 0x56, 0x3a, 0x00, 0x81, 0x1a, 0x3a, 0x6d, 0x83, 
	0x17, 0x3a, 0x00, 0x49, 0x3a, 0x70, 0x5b, 0x3a, 0x00, 0x81, 
	0x15, 0x3a, 0x6e, 0x52, 0x3a, 0x00, 0x81, 0x1e, 0x3a, 0x6a, 
	0x82, 0x7c, 0x3a, 0x00, 0x64, 0x3a, 0x6f, 0x66, 0x3a, 0x00, 
	0xb7, 0x40, 0x4b, 0x7f, 0x7c, 0x4b, 0x00, 0x6d, 0x46, 0x7f, 
	0x81, 0x2b, 0x46, 0x00, 0x39, 0x44, 0x7f, 0x35, 0x44, 0x00, 
	0x15, 0x43, 0x7f, 0x30, 0x43, 0x00, 0x20, 0x41, 0x7f, 0x27, 
	0x41, 0x00, 0x4c, 0x48, 0x7f, 0x85, 0x40, 0x4a, 0x7f, 0x0a, 
	0x48, 0x00, 0x81, 0x02, 0x4a, 0x00, 0x29, 0x51, 0x7f, 0x1e, 
	0x51, 0x00, 0x24, 0x51, 0x7f, 0x83, 0x6d, 0x51, 0x00, 0x98, 
	0x30, 0x54, 0x7f, 0x22, 0x54, 0x00, 0x34, 0x53, 0x7f, 0x1e, 
	0x53, 0x00, 0x1e, 0x51, 0x7f, 0x22, 0x51, 0x00, 0x2d, 0x56, 
	0x7f, 0x0f, 0x5d, 0x64, 0x81, 0x48, 0x56, 0x00, 0x0a, 0x5d, 
	0x00, 0x0a, 0x4a, 0x7f, 0x15, 0x4a, 0x00, 0x3b, 0x4a, 0x7f, 
	0x22, 0x4a, 0x00, 0x2e, 0x4a, 0x7f, 0x1d, 0x4a, 0x00, 0x33, 
	0x4a, 0x7f, 0x45, 0x4a, 0x00, 0x00, 0xff, 0x2f, 0x00, 0x4d, 
	0x54, 0x72, 0x6b, 0x00, 0x00, 0x10, 0xbd, 0x00, 0xff, 0x03, 
	0x07, 0x54, 0x72, 0x61, 0x63, 0x6b, 0x20, 0x35, 0x00, 0xc4, 
	0x39, 0x00, 0xb4, 0x07, 0x7d, 0x00, 0xff, 0x7f, 0x05, 0x05, 
	0x0f, 0x09, 0x00, 0x40, 0x00, 0xff, 0x7f, 0x0f, 0x05, 0x0f, 
	0x06, 0x47, 0x65, 0x6e, 0x65, 0x72, 0x61, 0x6c, 0x20, 0x4d, 
	0x49, 0x44, 0x49, 0x00, 0xb4, 0x12, 0x00, 0x11, 0x12, 0x40, 
	0x87, 0x2f, 0x94, 0x3a, 0x72, 0x82, 0x46, 0x3a, 0x00, 0x22, 
	0x3a, 0x72, 0x1e, 0x3a, 0x00, 0x02, 0x3a, 0x72, 0x1a, 0x3a, 
	0x00, 0x07, 0x3a, 0x72, 0x1a, 0x3a, 0x00, 0x06, 0x3a, 0x72, 
	0x19, 0x3a, 0x00, 0x03, 0x3a, 0x72, 0x82, 0x23, 0x3a, 0x00, 
	0x40, 0x3a, 0x72, 0x1e, 0x3a, 0x00, 0x02, 0x3a, 0x72, 0x1a, 
	0x3a, 0x00, 0x07, 0x3a, 0x72, 0x1a, 0x3a, 0x00, 0x06, 0x3a, 
	0x72, 0x19, 0x3a, 0x00, 0x03, 0x3a, 0x72, 0x29, 0x3a, 0x00, 
	0x22, 0x35, 0x72, 0x26, 0x35, 0x00, 0x2a, 0x3a, 0x72, 0x25, 
	0x3a, 0x00, 0x28, 0x41, 0x72, 0x21, 0x41, 0x00, 0x2f, 0x3f, 
	0x72, 0x21, 0x3f, 0x00, 0x28, 0x3a, 0x72, 0x20, 0x3a, 0x00, 
	0x32, 0x3a, 0x72, 0x24, 0x3a, 0x00, 0x28, 0x35, 0x72, 0x27, 
	0x35, 0x00, 0x2d, 0x3f, 0x72, 0x22, 0x3f, 0x00, 0x31, 0x41, 
	0x72, 0x1f, 0x41, 0x00, 0x33, 0x3a, 0x72, 0x13, 0x3a, 0x00, 
	0x14, 0x3a, 0x72, 0x15, 0x3a, 0x00, 0x0e, 0x3a, 0x72, 0x1d, 
	0x3a, 0x00, 0x37, 0x3f, 0x72, 0x12, 0x33, 0x72, 0x12, 0x3f, 
	0x00, 0x18, 0x33, 0x00, 0x12, 0x3a, 0x72, 0x0c, 0x2e, 0x72, 
	0x1e, 0x3a, 0x00, 0x19, 0x2e, 0x00, 0x0c, 0x41, 0x72, 0x0d, 
	0x35, 0x72, 0x12, 0x41, 0x00, 0x11, 0x35, 0x00, 0x28, 0x44, 
	0x72, 0x14, 0x38, 0x72, 0x83, 0x3a, 0x44, 0x00, 0x1c, 0x38, 
	0x00, 0x41, 0x3a, 0x6b, 0x02, 0x35, 0x6b, 0x49, 0x35, 0x00, 
	0x07, 0x3a, 0x00, 0x3a, 0x35, 0x6b, 0x05, 0x3a, 0x6b, 0x35, 
	0x35, 0x00, 0x0c, 0x3a, 0x00, 0x34, 0x35, 0x6b, 0x03, 0x3a, 
	0x6b, 0x53, 0x35, 0x00, 0x02, 0x3a, 0x00, 0x81, 0x5a, 0x3a, 
	0x6b, 0x04, 0x35, 0x6b, 0x10, 0x35, 0x00, 0x04, 0x3a, 0x00, 
	0x0f, 0x3a, 0x6b, 0x03, 0x35, 0x6b, 0x0d, 0x3a, 0x00, 0x02, 
	0x35, 0x00, 0x14, 0x3a, 0x6b, 0x00, 0x35, 0x6b, 0x82, 0x2c, 
	0x35, 0x00, 0x05, 0x3a, 0x00, 0x38, 0x3a, 0x6b, 0x04, 0x35, 
	0x6b, 0x10, 0x3a, 0x00, 0x05, 0x35, 0x00, 0x0e, 0x35, 0x6b, 
	0x01, 0x3a, 0x6b, 0x10, 0x3a, 0x00, 0x01, 0x35, 0x00, 0x11, 
	0x3a, 0x6b, 0x02, 0x35, 0x6b, 0x0e, 0x3a, 0x00, 0x04, 0x35, 
	0x00, 0x1f, 0x35, 0x6b, 0x02, 0x3a, 0x6b, 0x25, 0x35, 0x00, 
	0x08, 0x3a, 0x00, 0x43, 0x3a, 0x6b, 0x01, 0x38, 0x6b, 0x27, 
	0x38, 0x00, 0x0a, 0x3a, 0x00, 0x81, 0x3e, 0x3a, 0x6b, 0x00, 
	0x38, 0x6b, 0x32, 0x38, 0x00, 0x0a, 0x3a, 0x00, 0x81, 0x31, 
	0x3f, 0x6b, 0x01, 0x3a, 0x6b, 0x34, 0x3a, 0x00, 0x08, 0x3f, 
	0x00, 0x41, 0x3a, 0x6b, 0x03, 0x3f, 0x6b, 0x20, 0x3f, 0x00, 
	0x08, 0x3a, 0x00, 0x47, 0x3a, 0x6b, 0x03, 0x3f, 0x6b, 0x11, 
	0x3f, 0x00, 0x01, 0x3a, 0x00, 0x13, 0x3a, 0x6b, 0x03, 0x3f, 
	0x6b, 0x11, 0x3f, 0x00, 0x00, 0x3a, 0x00, 0x13, 0x3a, 0x6b, 
	0x02, 0x3f, 0x6b, 0x14, 0x3f, 0x00, 0x04, 0x3a, 0x00, 0x12, 
	0x3a, 0x6b, 0x00, 0x35, 0x6b, 0x20, 0x3a, 0x00, 0x05, 0x35, 
	0x00, 0x2b, 0x3a, 0x6b, 0x01, 0x35, 0x6b, 0x1e, 0x3a, 0x00, 
	0x06, 0x35, 0x00, 0x2b, 0x3a, 0x6b, 0x00, 0x35, 0x6b, 0x29, 
	0x35, 0x00, 0x00, 0x3a, 0x00, 0x81, 0x1f, 0x3a, 0x6b, 0x01, 
	0x35, 0x6b, 0x33, 0x35, 0x00, 0x08, 0x3a, 0x00, 0x81, 0x31, 
	0x3f, 0x6b, 0x01, 0x3a, 0x6b, 0x34, 0x3a, 0x00, 0x08, 0x3f, 
	0x00, 0x41, 0x3a, 0x6b, 0x03, 0x3f, 0x6b, 0x20, 0x3f, 0x00, 
	0x08, 0x3a, 0x00, 0x47, 0x3a, 0x6b, 0x03, 0x3f, 0x6b, 0x11, 
	0x3f, 0x00, 0x01, 0x3a, 0x00, 0x13, 0x3a, 0x6b, 0x03, 0x3f, 
	0x6b, 0x11, 0x3f, 0x00, 0x00, 0x3a, 0x00, 0x09, 0x3a, 0x6b, 
	0x0c, 0x3f, 0x6b, 0x14, 0x3f, 0x00, 0x02, 0x3a, 0x00, 0x14, 
	0x3a, 0x6b, 0x00, 0x35, 0x6b, 0x20, 0x3a, 0x00, 0x05, 0x35, 
	0x00, 0x2b, 0x3a, 0x6b, 0x01, 0x35, 0x6b, 0x1e, 0x3a, 0x00, 
	0x06, 0x35, 0x00, 0x2b, 0x3a, 0x6b, 0x00, 0x35, 0x6b, 0x29, 
	0x35, 0x00, 0x00, 0x3a, 0x00, 0x87, 0x6c, 0x3a, 0x61, 0x81, 
	0x39, 0x3a, 0x00, 0x32, 0x3a, 0x61, 0x81, 0x27, 0x3a, 0x00, 
	0x47, 0x3a, 0x61, 0x81, 0x1a, 0x3a, 0x00, 0x23, 0x3a, 0x61, 
	0x13, 0x3a, 0x00, 0x1b, 0x3a, 0x61, 0x20, 0x3a, 0x00, 0x41, 
	0x3a, 0x61, 0x19, 0x3a, 0x00, 0x2e, 0x3a, 0x61, 0x1b, 0x3a, 
	0x00, 0x39, 0x3f, 0x61, 0x81, 0x2f, 0x3f, 0x00, 0x34, 0x3f, 
	0x61, 0x74, 0x3f, 0x00, 0x28, 0x3f, 0x61, 0x2c, 0x3f, 0x00, 
	0x3b, 0x3f, 0x61, 0x81, 0x2a, 0x3f, 0x00, 0x31, 0x3e, 0x61, 
	0x03, 0x3a, 0x61, 0x81, 0x20, 0x3e, 0x00, 0x0a, 0x3a, 0x00, 
	0x4d, 0x3f, 0x61, 0x00, 0x3a, 0x61, 0x81, 0x31, 0x3f, 0x00, 
	0x03, 0x3a, 0x00, 0x3c, 0x3a, 0x61, 0x00, 0x3f, 0x61, 0x12, 
	0x3a, 0x00, 0x08, 0x3f, 0x00, 0x38, 0x3a, 0x61, 0x00, 0x3f, 
	0x61, 0x1a, 0x3f, 0x00, 0x00, 0x3a, 0x00, 0x31, 0x3a, 0x61, 
	0x00, 0x3f, 0x61, 0x1c, 0x3a, 0x00, 0x01, 0x3f, 0x00, 0x37, 
	0x3a, 0x61, 0x01, 0x3e, 0x61, 0x81, 0x38, 0x3a, 0x00, 0x04, 
	0x3e, 0x00, 0x2f, 0x3e, 0x61, 0x03, 0x3a, 0x61, 0x19, 0x3e, 
	0x00, 0x06, 0x3a, 0x00, 0x29, 0x3e, 0x61, 0x03, 0x3a, 0x61, 
	0x1c, 0x3a, 0x00, 0x00, 0x3e, 0x00, 0x30, 0x3e, 0x61, 0x04, 
	0x3a, 0x61, 0x19, 0x3e, 0x00, 0x0b, 0x3a, 0x00, 0x2e, 0x3c, 
	0x61, 0x00, 0x3f, 0x61, 0x1e, 0x3f, 0x00, 0x09, 0x3c, 0x00, 
	0x2d, 0x3b, 0x61, 0x00, 0x3e, 0x61, 0x1d, 0x3e, 0x00, 0x05, 
	0x3b, 0x00, 0x2d, 0x3c, 0x61, 0x02, 0x3f, 0x61, 0x21, 0x3f, 
	0x00, 0x02, 0x3c, 0x00, 0x2d, 0x39, 0x61, 0x00, 0x3c, 0x61, 
	0x83, 0x43, 0x3c, 0x00, 0x00, 0x39, 0x00, 0xb6, 0x4b, 0x41, 
	0x7f, 0x00, 0x3c, 0x7f, 0x3c, 0x3c, 0x00, 0x83, 0x06, 0x41, 
	0x00, 0x1e, 0x35, 0x7f, 0x1e, 0x35, 0x00, 0x1e, 0x35, 0x7e, 
	0x23, 0x35, 0x00, 0x19, 0x35, 0x7f, 0x1e, 0x35, 0x00, 0x1e, 
	0x35, 0x7f, 0x23, 0x35, 0x00, 0x19, 0x35, 0x7f, 0x26, 0x35, 
	0x00, 0x83, 0x3a, 0x35, 0x7f, 0x20, 0x35, 0x00, 0x1c, 0x35, 
	0x7a, 0x19, 0x35, 0x00, 0x23, 0x35, 0x7f, 0x21, 0x35, 0x00, 
	0x1b, 0x35, 0x7f, 0x24, 0x35, 0x00, 0x18, 0x35, 0x7f, 0x26, 
	0x35, 0x00, 0x83, 0x3a, 0x35, 0x7f, 0x20, 0x35, 0x00, 0x1c, 
	0x35, 0x7b, 0x1b, 0x35, 0x00, 0x21, 0x35, 0x7f, 0x1b, 0x35, 
	0x00, 0x21, 0x35, 0x7b, 0x26, 0x35, 0x00, 0x16, 0x35, 0x7f, 
	0x32, 0x35, 0x00, 0x83, 0x2e, 0x35, 0x7f, 0x20, 0x35, 0x00, 
	0x1c, 0x35, 0x7f, 0x24, 0x35, 0x00, 0x18, 0x35, 0x7f, 0x11, 
	0x35, 0x00, 0x2b, 0x35, 0x7f, 0x23, 0x35, 0x00, 0x19, 0x35, 
	0x7f, 0x2b, 0x35, 0x00, 0x83, 0x35, 0x35, 0x7f, 0x1e, 0x35, 
	0x00, 0x1e, 0x35, 0x7f, 0x21, 0x35, 0x00, 0x1b, 0x35, 0x7f, 
	0x14, 0x35, 0x00, 0x28, 0x35, 0x7f, 0x26, 0x35, 0x00, 0x16, 
	0x35, 0x7f, 0x2d, 0x35, 0x00, 0x83, 0x33, 0x35, 0x7f, 0x24, 
	0x35, 0x00, 0x18, 0x35, 0x74, 0x26, 0x35, 0x00, 0x16, 0x35, 
	0x7f, 0x0f, 0x35, 0x00, 0x2d, 0x35, 0x73, 0x21, 0x35, 0x00, 
	0x1b, 0x35, 0x7f, 0x2f, 0x35, 0x00, 0x83, 0x31, 0x35, 0x7f, 
	0x21, 0x35, 0x00, 0x1b, 0x35, 0x7f, 0x24, 0x35, 0x00, 0x18, 
	0x35, 0x7f, 0x19, 0x35, 0x00, 0x23, 0x35, 0x7f, 0x21, 0x35, 
	0x00, 0x1b, 0x35, 0x7f, 0x3c, 0x35, 0x00, 0x78, 0x35, 0x7f, 
	0x28, 0x35, 0x00, 0x14, 0x38, 0x7f, 0x25, 0x38, 0x00, 0x17, 
	0x38, 0x74, 0x20, 0x38, 0x00, 0x1c, 0x38, 0x7f, 0x23, 0x38, 
	0x00, 0x19, 0x38, 0x7f, 0x23, 0x38, 0x00, 0x92, 0x3e, 0x48, 
	0x7f, 0x09, 0x4b, 0x7f, 0x02, 0x44, 0x7f, 0x14, 0x48, 0x00, 
	0x09, 0x4b, 0x00, 0x02, 0x44, 0x00, 0x0d, 0x48, 0x7f, 0x0e, 
	0x44, 0x7f, 0x02, 0x4b, 0x7e, 0x81, 0x52, 0x48, 0x00, 0x12, 
	0x47, 0x7f, 0x06, 0x43, 0x7f, 0x00, 0x4a, 0x7f, 0x0c, 0x44, 
	0x00, 0x09, 0x4b, 0x00, 0x27, 0x4a, 0x00, 0x00, 0x47, 0x00, 
	0x01, 0x43, 0x00, 0x31, 0x4b, 0x7f, 0x0b, 0x48, 0x7f, 0x03, 
	0x44, 0x7f, 0x2d, 0x48, 0x00, 0x02, 0x47, 0x7f, 0x04, 0x43, 
	0x7f, 0x09, 0x4a, 0x7f, 0x07, 0x44, 0x00, 0x10, 0x4b, 0x00, 
	0x18, 0x41, 0x7f, 0x06, 0x47, 0x00, 0x00, 0x45, 0x7f, 0x00, 
	0x48, 0x7f, 0x03, 0x43, 0x00, 0x09, 0x4a, 0x00, 0x17, 0x41, 
	0x00, 0x03, 0x45, 0x00, 0x02, 0x48, 0x00, 0x3c, 0x45, 0x7f, 
	0x08, 0x3e, 0x7f, 0x86, 0x0b, 0x3e, 0x00, 0x14, 0x45, 0x00, 
	0x88, 0x08, 0x37, 0x7b, 0x17, 0x37, 0x00, 0x81, 0x5a, 0x37, 
	0x7b, 0x12, 0x37, 0x00, 0x65, 0x37, 0x7b, 0x14, 0x37, 0x00, 
	0x14, 0x37, 0x7b, 0x13, 0x37, 0x00, 0x15, 0x37, 0x7b, 0x17, 
	0x37, 0x00, 0x11, 0x37, 0x7b, 0x14, 0x37, 0x00, 0x6c, 0x37, 
	0x7b, 0x16, 0x37, 0x00, 0x13, 0x37, 0x7b, 0x15, 0x37, 0x00, 
	0x0e, 0x37, 0x7b, 0x19, 0x37, 0x00, 0x0f, 0x33, 0x7b, 0x15, 
	0x33, 0x00, 0x10, 0x33, 0x7b, 0x1b, 0x33, 0x00, 0x0a, 0x33, 
	0x7b, 0x16, 0x33, 0x00, 0x13, 0x33, 0x7b, 0x19, 0x33, 0x00, 
	0x65, 0x43, 0x7f, 0x81, 0x07, 0x43, 0x00, 0x62, 0x43, 0x7b, 
	0x02, 0x37, 0x7b, 0x18, 0x37, 0x00, 0x64, 0x37, 0x7b, 0x15, 
	0x37, 0x00, 0x00, 0x43, 0x00, 0x13, 0x37, 0x7b, 0x15, 0x37, 
	0x00, 0x12, 0x37, 0x7b, 0x17, 0x37, 0x00, 0x0f, 0x37, 0x7b, 
	0x0a, 0x43, 0x7b, 0x0c, 0x37, 0x00, 0x61, 0x37, 0x7b, 0x17, 
	0x37, 0x00, 0x11, 0x43, 0x00, 0x01, 0x37, 0x7b, 0x17, 0x37, 
	0x00, 0x0f, 0x37, 0x7b, 0x19, 0x37, 0x00, 0x10, 0x33, 0x7b, 
	0x04, 0x3f, 0x7b, 0x10, 0x33, 0x00, 0x10, 0x33, 0x7b, 0x1d, 
	0x33, 0x00, 0x0b, 0x33, 0x7b, 0x17, 0x33, 0x00, 0x13, 0x33, 
	0x7b, 0x02, 0x3f, 0x00, 0x18, 0x33, 0x00, 0x25, 0x46, 0x7b, 
	0x21, 0x46, 0x00, 0x1d, 0x43, 0x7b, 0x01, 0x37, 0x7b, 0x19, 
	0x37, 0x00, 0x81, 0x0e, 0x43, 0x00, 0x43, 0x37, 0x7b, 0x02, 
	0x3f, 0x7b, 0x14, 0x37, 0x00, 0x62, 0x3f, 0x00, 0x01, 0x37, 
	0x7b, 0x16, 0x37, 0x00, 0x12, 0x37, 0x7b, 0x16, 0x37, 0x00, 
	0x05, 0x46, 0x7b, 0x0d, 0x37, 0x7b, 0x15, 0x46, 0x00, 0x03, 
	0x37, 0x00, 0x0f, 0x37, 0x7b, 0x05, 0x43, 0x7b, 0x11, 0x37, 
	0x00, 0x5f, 0x37, 0x7b, 0x18, 0x37, 0x00, 0x10, 0x37, 0x7b, 
	0x17, 0x37, 0x00, 0x14, 0x37, 0x7b, 0x17, 0x37, 0x00, 0x11, 
	0x33, 0x7b, 0x16, 0x33, 0x00, 0x12, 0x33, 0x7b, 0x1a, 0x33, 
	0x00, 0x04, 0x43, 0x00, 0x07, 0x33, 0x7b, 0x17, 0x33, 0x00, 
	0x14, 0x33, 0x7b, 0x17, 0x33, 0x00, 0x63, 0x4a, 0x7b, 0x03, 
	0x37, 0x7b, 0x16, 0x37, 0x00, 0x81, 0x00, 0x4a, 0x00, 0x58, 
	0x4a, 0x7b, 0x03, 0x37, 0x7b, 0x16, 0x37, 0x00, 0x63, 0x37, 
	0x7b, 0x14, 0x37, 0x00, 0x08, 0x4a, 0x00, 0x0a, 0x37, 0x7b, 
	0x16, 0x37, 0x00, 0x12, 0x37, 0x7b, 0x19, 0x37, 0x00, 0x0a, 
	0x4a, 0x7b, 0x03, 0x37, 0x7b, 0x17, 0x37, 0x00, 0x64, 0x37, 
	0x7b, 0x15, 0x37, 0x00, 0x0a, 0x4a, 0x00, 0x08, 0x37, 0x7b, 
	0x14, 0x37, 0x00, 0x14, 0x37, 0x7b, 0x19, 0x37, 0x00, 0x0d, 
	0x33, 0x7b, 0x05, 0x4b, 0x7b, 0x11, 0x33, 0x00, 0x12, 0x33, 
	0x7b, 0x18, 0x33, 0x00, 0x0f, 0x33, 0x7b, 0x17, 0x33, 0x00, 
	0x08, 0x4b, 0x00, 0x0c, 0x33, 0x7b, 0x1a, 0x33, 0x00, 0x1f, 
	0x46, 0x7b, 0x27, 0x46, 0x00, 0x10, 0x3f, 0x7b, 0x0d, 0x42, 
	0x7b, 0x0f, 0x3f, 0x00, 0x81, 0x19, 0x42, 0x00, 0x3e, 0x3c, 
	0x7b, 0x03, 0x3f, 0x7b, 0x19, 0x3c, 0x00, 0x4d, 0x3f, 0x00, 
	0x11, 0x3c, 0x7b, 0x1d, 0x3c, 0x00, 0x0b, 0x3c, 0x7b, 0x0f, 
	0x46, 0x7b, 0x0d, 0x3c, 0x00, 0x0c, 0x3c, 0x7b, 0x0a, 0x46, 
	0x00, 0x12, 0x3c, 0x00, 0x0a, 0x37, 0x7b, 0x03, 0x43, 0x7b, 
	0x12, 0x37, 0x00, 0x81, 0x0d, 0x37, 0x7b, 0x17, 0x37, 0x00, 
	0x10, 0x37, 0x7b, 0x1b, 0x37, 0x00, 0x0e, 0x37, 0x7b, 0x17, 
	0x37, 0x00, 0x10, 0x37, 0x7b, 0x10, 0x43, 0x00, 0x0b, 0x37, 
	0x00, 0x0c, 0x37, 0x7b, 0x19, 0x37, 0x00, 0x0f, 0x37, 0x7b, 
	0x1b, 0x37, 0x00, 0x5d, 0x37, 0x7b, 0x00, 0x4f, 0x7b, 0x17, 
	0x37, 0x00, 0x81, 0x22, 0x4f, 0x00, 0x39, 0x37, 0x7b, 0x00, 
	0x43, 0x7b, 0x18, 0x37, 0x00, 0x61, 0x43, 0x00, 0x03, 0x37, 
	0x7b, 0x15, 0x37, 0x00, 0x13, 0x37, 0x7b, 0x15, 0x37, 0x00, 
	0x03, 0x43, 0x7b, 0x0f, 0x37, 0x7b, 0x17, 0x37, 0x00, 0x08, 
	0x43, 0x00, 0x07, 0x37, 0x7b, 0x07, 0x4f, 0x7b, 0x0f, 0x37, 
	0x00, 0x61, 0x37, 0x7b, 0x17, 0x37, 0x00, 0x11, 0x4f, 0x00, 
	0x01, 0x37, 0x7b, 0x17, 0x37, 0x00, 0x0f, 0x37, 0x7b, 0x19, 
	0x37, 0x00, 0x02, 0x4e, 0x7b, 0x0e, 0x33, 0x7b, 0x14, 0x33, 
	0x00, 0x10, 0x33, 0x7b, 0x1d, 0x33, 0x00, 0x0b, 0x33, 0x7b, 
	0x17, 0x33, 0x00, 0x13, 0x4e, 0x00, 0x00, 0x33, 0x7b, 0x1a, 
	0x33, 0x00, 0x27, 0x4d, 0x7b, 0x28, 0x4d, 0x00, 0x0c, 0x4c, 
	0x7b, 0x01, 0x3d, 0x7b, 0x19, 0x3d, 0x00, 0x1e, 0x4c, 0x00, 
	0x17, 0x4b, 0x7b, 0x28, 0x4b, 0x00, 0x04, 0x4c, 0x7b, 0x37, 
	0x4c, 0x00, 0x3c, 0x3d, 0x7b, 0x16, 0x3d, 0x00, 0x68, 0x3d, 
	0x7b, 0x06, 0x44, 0x7b, 0x10, 0x3d, 0x00, 0x12, 0x3d, 0x7b, 
	0x0c, 0x44, 0x00, 0x0a, 0x3d, 0x00, 0x12, 0x3d, 0x7b, 0x18, 
	0x3d, 0x00, 0x0f, 0x3d, 0x7b, 0x07, 0x49, 0x7b, 0x0f, 0x3d, 
	0x00, 0x5f, 0x3d, 0x7b, 0x18, 0x3d, 0x00, 0x10, 0x3d, 0x7b, 
	0x0a, 0x49, 0x00, 0x0d, 0x3d, 0x00, 0x14, 0x3d, 0x7b, 0x17, 
	0x3d, 0x00, 0x11, 0x3d, 0x7b, 0x07, 0x48, 0x7b, 0x0f, 0x3d, 
	0x00, 0x12, 0x3d, 0x7b, 0x1a, 0x3d, 0x00, 0x0b, 0x3d, 0x7b, 
	0x17, 0x3d, 0x00, 0x14, 0x3d, 0x7b, 0x14, 0x48, 0x00, 0x03, 
	0x3d, 0x00, 0x2c, 0x47, 0x7b, 0x2d, 0x47, 0x00, 0x06, 0x3f, 
	0x7b, 0x0d, 0x46, 0x7b, 0x0c, 0x3f, 0x00, 0x22, 0x46, 0x00, 
	0x08, 0x45, 0x7b, 0x24, 0x45, 0x00, 0x19, 0x46, 0x7b, 0x34, 
	0x46, 0x00, 0x39, 0x3f, 0x7b, 0x16, 0x3f, 0x00, 0x68, 0x3f, 
	0x7b, 0x09, 0x3f, 0x00, 0x00, 0x3f, 0x7b, 0x08, 0x3f, 0x00, 
	0x17, 0x3f, 0x7b, 0x0a, 0x3f, 0x00, 0x1b, 0x3f, 0x7b, 0x18, 
	0x3f, 0x00, 0x12, 0x3e, 0x7b, 0x0a, 0x42, 0x7b, 0x29, 0x3e, 
	0x00, 0x68, 0x42, 0x00, 0x55, 0x3c, 0x7b, 0x0f, 0x3f, 0x7b, 
	0x07, 0x3c, 0x00, 0x12, 0x3c, 0x7b, 0x1a, 0x3c, 0x00, 0x0b, 
	0x3c, 0x7b, 0x17, 0x3c, 0x00, 0x14, 0x3c, 0x7b, 0x17, 0x3c, 
	0x00, 0x09, 0x3f, 0x00, 0x29, 0x42, 0x7b, 0x20, 0x42, 0x00, 
	0x11, 0x37, 0x7b, 0x12, 0x46, 0x7b, 0x06, 0x37, 0x00, 0x81, 
	0x1c, 0x46, 0x00, 0x3a, 0x3f, 0x7b, 0x0a, 0x43, 0x7b, 0x0c, 
	0x3f, 0x00, 0x12, 0x3f, 0x7b, 0x1a, 0x3f, 0x00, 0x0b, 0x3f, 
	0x7b, 0x17, 0x3f, 0x00, 0x14, 0x3f, 0x7b, 0x17, 0x3f, 0x00, 
	0x02, 0x43, 0x00, 0x2d, 0x46, 0x7b, 0x20, 0x46, 0x00, 0x18, 
	0x37, 0x7b, 0x09, 0x4a, 0x7b, 0x0c, 0x37, 0x00, 0x5f, 0x37, 
	0x7b, 0x17, 0x37, 0x00, 0x12, 0x37, 0x7b, 0x17, 0x37, 0x00, 
	0x10, 0x37, 0x7b, 0x19, 0x37, 0x00, 0x0f, 0x37, 0x7b, 0x14, 
	0x37, 0x00, 0x13, 0x37, 0x7b, 0x1a, 0x37, 0x00, 0x0a, 0x4a, 
	0x00, 0x04, 0x37, 0x7b, 0x16, 0x37, 0x00, 0x13, 0x37, 0x7b, 
	0x14, 0x37, 0x00, 0x13, 0x37, 0x7b, 0x1a, 0x37, 0x00, 0x0e, 
	0x37, 0x7b, 0x16, 0x37, 0x00, 0x11, 0x3f, 0x7b, 0x00, 0x4f, 
	0x7b, 0x17, 0x3f, 0x00, 0x81, 0x22, 0x4f, 0x00, 0x39, 0x3f, 
	0x7b, 0x00, 0x43, 0x7b, 0x18, 0x3f, 0x00, 0x61, 0x43, 0x00, 
	0x03, 0x3f, 0x7b, 0x15, 0x3f, 0x00, 0x13, 0x3f, 0x7b, 0x15, 
	0x3f, 0x00, 0x03, 0x43, 0x7b, 0x0f, 0x3f, 0x7b, 0x17, 0x3f, 
	0x00, 0x08, 0x43, 0x00, 0x07, 0x37, 0x7b, 0x07, 0x4f, 0x7b, 
	0x0f, 0x37, 0x00, 0x61, 0x37, 0x7b, 0x17, 0x37, 0x00, 0x11, 
	0x4f, 0x00, 0x01, 0x37, 0x7b, 0x17, 0x37, 0x00, 0x0f, 0x37, 
	0x7b, 0x19, 0x37, 0x00, 0x02, 0x4e, 0x7b, 0x0e, 0x33, 0x7b, 
	0x14, 0x33, 0x00, 0x10, 0x33, 0x7b, 0x1d, 0x33, 0x00, 0x0b, 
	0x33, 0x7b, 0x17, 0x33, 0x00, 0x13, 0x4e, 0x00, 0x00, 0x33, 
	0x7b, 0x1a, 0x33, 0x00, 0x27, 0x4d, 0x7b, 0x28, 0x4d, 0x00, 
	0x0c, 0x4c, 0x7b, 0x01, 0x3d, 0x7b, 0x19, 0x3d, 0x00, 0x1e, 
	0x4c, 0x00, 0x17, 0x4b, 0x7b, 0x28, 0x4b, 0x00, 0x04, 0x4c, 
	0x7b, 0x37, 0x4c, 0x00, 0x3c, 0x3d, 0x7b, 0x16, 0x3d, 0x00, 
	0x68, 0x3d, 0x7b, 0x06, 0x44, 0x7b, 0x10, 0x3d, 0x00, 0x12, 
	0x3d, 0x7b, 0x0c, 0x44, 0x00, 0x0a, 0x3d, 0x00, 0x12, 0x3d, 
	0x7b, 0x18, 0x3d, 0x00, 0x0f, 0x3d, 0x7b, 0x07, 0x49, 0x7b, 
	0x03, 0x44, 0x7b, 0x0c, 0x3d, 0x00, 0x5f, 0x3d, 0x7b, 0x18, 
	0x3d, 0x00, 0x10, 0x3d, 0x7b, 0x0a, 0x49, 0x00, 0x04, 0x44, 
	0x00, 0x09, 0x3d, 0x00, 0x14, 0x3d, 0x7b, 0x17, 0x3d, 0x00, 
	0x11, 0x3d, 0x7b, 0x07, 0x48, 0x7b, 0x03, 0x44, 0x7b, 0x0c, 
	0x3d, 0x00, 0x12, 0x3d, 0x7b, 0x1a, 0x3d, 0x00, 0x0b, 0x3d, 
	0x7b, 0x17, 0x3d, 0x00, 0x11, 0x44, 0x00, 0x03, 0x3d, 0x7b, 
	0x14, 0x48, 0x00, 0x03, 0x3d, 0x00, 0x2c, 0x47, 0x7b, 0x00, 
	0x44, 0x7b, 0x22, 0x47, 0x00, 0x02, 0x44, 0x00, 0x0f, 0x3f, 
	0x7b, 0x08, 0x46, 0x7b, 0x02, 0x42, 0x7b, 0x0f, 0x3f, 0x00, 
	0x1b, 0x42, 0x00, 0x02, 0x46, 0x00, 0x0b, 0x41, 0x7b, 0x00, 
	0x45, 0x7b, 0x25, 0x45, 0x00, 0x03, 0x41, 0x00, 0x14, 0x46, 
	0x7b, 0x03, 0x42, 0x7b, 0x2e, 0x42, 0x00, 0x04, 0x46, 0x00, 
	0x3b, 0x3f, 0x7b, 0x16, 0x3f, 0x00, 0x68, 0x3f, 0x7b, 0x09, 
	0x3f, 0x00, 0x00, 0x3f, 0x7b, 0x08, 0x3f, 0x00, 0x17, 0x3f, 
	0x7b, 0x0a, 0x3f, 0x00, 0x1e, 0x3f, 0x7b, 0x18, 0x3f, 0x00, 
	0x0f, 0x3f, 0x7b, 0x0a, 0x42, 0x7b, 0x0c, 0x3f, 0x00, 0x81, 
	0x05, 0x42, 0x00, 0x55, 0x3c, 0x7b, 0x02, 0x42, 0x7b, 0x05, 
	0x46, 0x7b, 0x00, 0x3f, 0x7b, 0x0f, 0x3c, 0x00, 0x12, 0x3c, 
	0x7b, 0x1a, 0x3c, 0x00, 0x0b, 0x3c, 0x7b, 0x17, 0x3c, 0x00, 
	0x14, 0x3c, 0x7b, 0x17, 0x3c, 0x00, 0x02, 0x3f, 0x00, 0x0b, 
	0x42, 0x00, 0x0a, 0x46, 0x00, 0x1a, 0x46, 0x7b, 0x1f, 0x46, 
	0x00, 0x13, 0x37, 0x7b, 0x06, 0x43, 0x7b, 0x12, 0x37, 0x00, 
	0x81, 0x10, 0x43, 0x00, 0x46, 0x42, 0x7b, 0x00, 0x3f, 0x7b, 
	0x01, 0x46, 0x7b, 0x02, 0x3f, 0x00, 0x00, 0x3f, 0x7b, 0x04, 
	0x3f, 0x00, 0x21, 0x3f, 0x7b, 0x1a, 0x3f, 0x00, 0x0b, 0x3f, 
	0x7b, 0x17, 0x3f, 0x00, 0x14, 0x3f, 0x7b, 0x12, 0x3f, 0x00, 
	0x03, 0x42, 0x00, 0x01, 0x46, 0x00, 0x35, 0x46, 0x7b, 0x20, 
	0x46, 0x00, 0x13, 0x37, 0x7b, 0x01, 0x43, 0x7b, 0x14, 0x37, 
	0x00, 0x5f, 0x37, 0x7b, 0x17, 0x37, 0x00, 0x11, 0x37, 0x7b, 
	0x17, 0x37, 0x00, 0x11, 0x37, 0x7b, 0x19, 0x37, 0x00, 0x0f, 
	0x37, 0x7b, 0x14, 0x37, 0x00, 0x13, 0x37, 0x6a, 0x1a, 0x37, 
	0x00, 0x04, 0x43, 0x00, 0x0a, 0x37, 0x6a, 0x16, 0x37, 0x00, 
	0x13, 0x37, 0x6a, 0x1a, 0x37, 0x00, 0x81, 0x7e, 0x37, 0x6a, 
	0x17, 0x37, 0x00, 0x10, 0x37, 0x6a, 0x1b, 0x37, 0x00, 0x0e, 
	0x37, 0x6a, 0x17, 0x37, 0x00, 0x10, 0x37, 0x6a, 0x1b, 0x37, 
	0x00, 0x0c, 0x37, 0x6a, 0x19, 0x37, 0x00, 0x0f, 0x37, 0x6a, 
	0x1b, 0x37, 0x00, 0x8f, 0x60, 0x32, 0x7f, 0x04, 0x3e, 0x72, 
	0x6d, 0x3e, 0x00, 0x04, 0x32, 0x00, 0x82, 0x6f, 0x32, 0x77, 
	0x01, 0x3e, 0x67, 0x5c, 0x3e, 0x00, 0x07, 0x32, 0x00, 0x82, 
	0x7c, 0x32, 0x7f, 0x00, 0x3e, 0x72, 0x5d, 0x3e, 0x00, 0x02, 
	0x32, 0x00, 0x8f, 0x17, 0x3c, 0x6d, 0x00, 0x40, 0x6a, 0x01, 
	0x44, 0x70, 0x10, 0x44, 0x00, 0x03, 0x40, 0x00, 0x02, 0x3c, 
	0x00, 0x17, 0x3c, 0x65, 0x00, 0x44, 0x70, 0x00, 0x40, 0x56, 
	0x0f, 0x44, 0x00, 0x02, 0x40, 0x00, 0x03, 0x3c, 0x00, 0x0d, 
	0x40, 0x5b, 0x00, 0x44, 0x56, 0x03, 0x3c, 0x5b, 0x11, 0x44, 
	0x00, 0x02, 0x40, 0x00, 0x02, 0x3c, 0x00, 0x13, 0x41, 0x46, 
	0x01, 0x45, 0x4e, 0x01, 0x3d, 0x70, 0x0f, 0x41, 0x00, 0x03, 
	0x45, 0x00, 0x01, 0x3d, 0x00, 0x12, 0x45, 0x4b, 0x00, 0x41, 
	0x4b, 0x02, 0x3d, 0x6d, 0x0f, 0x45, 0x00, 0x01, 0x3d, 0x00, 
	0x02, 0x41, 0x00, 0x11, 0x45, 0x4e, 0x00, 0x41, 0x4e, 0x00, 
	0x3d, 0x79, 0x13, 0x45, 0x00, 0x01, 0x41, 0x00, 0x01, 0x3d, 
	0x00, 0x1b, 0x3a, 0x65, 0x01, 0x42, 0x7c, 0x01, 0x3e, 0x63, 
	0x0f, 0x42, 0x00, 0x03, 0x3a, 0x00, 0x01, 0x3e, 0x00, 0x10, 
	0x3e, 0x41, 0x00, 0x42, 0x6a, 0x03, 0x3a, 0x79, 0x0d, 0x42, 
	0x00, 0x02, 0x3e, 0x00, 0x02, 0x3a, 0x00, 0x0f, 0x3e, 0x4b, 
	0x01, 0x42, 0x77, 0x03, 0x3a, 0x69, 0x15, 0x42, 0x00, 0x03, 
	0x3a, 0x00, 0x00, 0x3e, 0x00, 0x81, 0x09, 0x40, 0x60, 0x00, 
	0x44, 0x7f, 0x01, 0x3c, 0x60, 0x11, 0x44, 0x00, 0x02, 0x40, 
	0x00, 0x01, 0x3c, 0x00, 0x16, 0x44, 0x5f, 0x00, 0x40, 0x60, 
	0x00, 0x3c, 0x65, 0x0f, 0x44, 0x00, 0x02, 0x3c, 0x00, 0x01, 
	0x40, 0x00, 0x0e, 0x40, 0x60, 0x00, 0x44, 0x60, 0x03, 0x3c, 
	0x50, 0x10, 0x44, 0x00, 0x02, 0x40, 0x00, 0x02, 0x3c, 0x00, 
	0x17, 0x41, 0x5b, 0x00, 0x3d, 0x7f, 0x02, 0x45, 0x5e, 0x0f, 
	0x45, 0x00, 0x01, 0x41, 0x00, 0x02, 0x3d, 0x00, 0x13, 0x45, 
	0x56, 0x00, 0x41, 0x50, 0x03, 0x3d, 0x6d, 0x0d, 0x45, 0x00, 
	0x02, 0x41, 0x00, 0x01, 0x3d, 0x00, 0x11, 0x41, 0x50, 0x02, 
	0x45, 0x60, 0x00, 0x3d, 0x79, 0x11, 0x45, 0x00, 0x03, 0x3d, 
	0x00, 0x00, 0x41, 0x00, 0x1c, 0x3e, 0x65, 0x00, 0x42, 0x7f, 
	0x03, 0x3a, 0x7f, 0x0f, 0x42, 0x00, 0x05, 0x3a, 0x00, 0x00, 
	0x3e, 0x00, 0x0f, 0x42, 0x7c, 0x01, 0x3e, 0x50, 0x01, 0x3a, 
	0x65, 0x0f, 0x42, 0x00, 0x03, 0x3e, 0x00, 0x05, 0x3a, 0x00, 
	0x81, 0x29, 0x3c, 0x6d, 0x00, 0x40, 0x6a, 0x01, 0x44, 0x70, 
	0x10, 0x44, 0x00, 0x03, 0x40, 0x00, 0x02, 0x3c, 0x00, 0x17, 
	0x3c, 0x65, 0x00, 0x44, 0x70, 0x00, 0x40, 0x56, 0x0f, 0x44, 
	0x00, 0x02, 0x40, 0x00, 0x03, 0x3c, 0x00, 0x0d, 0x40, 0x5b, 
	0x00, 0x44, 0x56, 0x03, 0x3c, 0x5b, 0x11, 0x44, 0x00, 0x02, 
	0x40, 0x00, 0x02, 0x3c, 0x00, 0x13, 0x41, 0x46, 0x01, 0x45, 
	0x4e, 0x01, 0x3d, 0x70, 0x0f, 0x41, 0x00, 0x03, 0x45, 0x00, 
	0x01, 0x3d, 0x00, 0x12, 0x45, 0x4b, 0x00, 0x41, 0x4b, 0x02, 
	0x3d, 0x6d, 0x0f, 0x45, 0x00, 0x01, 0x3d, 0x00, 0x02, 0x41, 
	0x00, 0x11, 0x45, 0x4e, 0x00, 0x41, 0x4e, 0x00, 0x3d, 0x79, 
	0x13, 0x45, 0x00, 0x01, 0x41, 0x00, 0x01, 0x3d, 0x00, 0x1b, 
	0x3a, 0x65, 0x01, 0x42, 0x7c, 0x01, 0x3e, 0x63, 0x0f, 0x42, 
	0x00, 0x03, 0x3a, 0x00, 0x01, 0x3e, 0x00, 0x10, 0x3e, 0x41, 
	0x00, 0x42, 0x6a, 0x03, 0x3a, 0x79, 0x0d, 0x42, 0x00, 0x02, 
	0x3e, 0x00, 0x02, 0x3a, 0x00, 0x0f, 0x3e, 0x4b, 0x01, 0x42, 
	0x77, 0x03, 0x3a, 0x69, 0x15, 0x42, 0x00, 0x03, 0x3a, 0x00, 
	0x00, 0x3e, 0x00, 0x81, 0x09, 0x40, 0x60, 0x00, 0x44, 0x7f, 
	0x01, 0x3c, 0x60, 0x11, 0x44, 0x00, 0x02, 0x40, 0x00, 0x01, 
	0x3c, 0x00, 0x16, 0x44, 0x5f, 0x00, 0x40, 0x60, 0x00, 0x3c, 
	0x65, 0x0f, 0x44, 0x00, 0x02, 0x3c, 0x00, 0x01, 0x40, 0x00, 
	0x0e, 0x40, 0x60, 0x00, 0x44, 0x60, 0x03, 0x3c, 0x50, 0x10, 
	0x44, 0x00, 0x02, 0x40, 0x00, 0x02, 0x3c, 0x00, 0x17, 0x41, 
	0x5b, 0x00, 0x3d, 0x7f, 0x02, 0x45, 0x5e, 0x0f, 0x45, 0x00, 
	0x01, 0x41, 0x00, 0x02, 0x3d, 0x00, 0x13, 0x45, 0x56, 0x00, 
	0x41, 0x50, 0x03, 0x3d, 0x6d, 0x0d, 0x45, 0x00, 0x02, 0x41, 
	0x00, 0x01, 0x3d, 0x00, 0x11, 0x41, 0x50, 0x02, 0x45, 0x60, 
	0x00, 0x3d, 0x79, 0x11, 0x45, 0x00, 0x03, 0x3d, 0x00, 0x00, 
	0x41, 0x00, 0x1c, 0x3e, 0x65, 0x00, 0x42, 0x7f, 0x03, 0x3a, 
	0x7f, 0x0f, 0x42, 0x00, 0x05, 0x3a, 0x00, 0x00, 0x3e, 0x00, 
	0x0f, 0x42, 0x7c, 0x01, 0x3e, 0x50, 0x01, 0x3a, 0x65, 0x0f, 
	0x42, 0x00, 0x03, 0x3e, 0x00, 0x05, 0x3a, 0x00, 0x0a, 0x3e, 
	0x60, 0x00, 0x42, 0x72, 0x02, 0x3a, 0x7f, 0x13, 0x42, 0x00, 
	0x03, 0x3a, 0x00, 0x01, 0x3e, 0x00, 0x16, 0x36, 0x79, 0x07, 
	0x31, 0x7c, 0x00, 0x2a, 0x75, 0x5d, 0x36, 0x00, 0x07, 0x2a, 
	0x00, 0x00, 0x31, 0x00, 0x81, 0x0c, 0x36, 0x7f, 0x01, 0x31, 
	0x7f, 0x02, 0x2a, 0x6a, 0x32, 0x2a, 0x00, 0x00, 0x31, 0x00, 
	0x04, 0x36, 0x00, 0x37, 0x36, 0x7f, 0x00, 0x31, 0x7f, 0x03, 
	0x2a, 0x6a, 0x61, 0x31, 0x00, 0x00, 0x36, 0x00, 0x03, 0x2a, 
	0x00, 0x81, 0x0c, 0x36, 0x7f, 0x03, 0x31, 0x7f, 0x02, 0x2a, 
	0x6a, 0x5f, 0x36, 0x00, 0x03, 0x31, 0x00, 0x02, 0x2a, 0x00, 
	0x7f, 0x36, 0x7f, 0x01, 0x31, 0x7f, 0x04, 0x2a, 0x7f, 0x5f, 
	0x36, 0x00, 0x01, 0x31, 0x00, 0x04, 0x2a, 0x00, 0x82, 0x71, 
	0x44, 0x3e, 0x02, 0x41, 0x56, 0x05, 0x3d, 0x3a, 0x2d, 0x44, 
	0x00, 0x04, 0x41, 0x00, 0x03, 0x3d, 0x00, 0x3a, 0x41, 0x44, 
	0x02, 0x3d, 0x3d, 0x00, 0x44, 0x32, 0x82, 0x3d, 0x44, 0x00, 
	0x00, 0x3d, 0x00, 0x03, 0x41, 0x00, 0x21, 0x41, 0x77, 0x03, 
	0x44, 0x4c, 0x04, 0x3d, 0x53, 0x20, 0x44, 0x00, 0x04, 0x3d, 
	0x00, 0x05, 0x41, 0x00, 0x56, 0x41, 0x58, 0x06, 0x45, 0x5f, 
	0x09, 0x3d, 0x4a, 0x3c, 0x45, 0x00, 0x08, 0x3d, 0x00, 0x01, 
	0x41, 0x00, 0x4f, 0x41, 0x72, 0x00, 0x3d, 0x6d, 0x02, 0x45, 
	0x64, 0x14, 0x45, 0x00, 0x04, 0x41, 0x00, 0x09, 0x3d, 0x00, 
	0x20, 0x44, 0x52, 0x01, 0x3d, 0x3e, 0x02, 0x41, 0x61, 0x86, 
	0x05, 0x41, 0x00, 0x55, 0x44, 0x00, 0x09, 0x3d, 0x00, 0xc2, 
	0x3c, 0x3e, 0x75, 0x81, 0x53, 0x3e, 0x00, 0x82, 0x05, 0x45, 
	0x72, 0x82, 0x41, 0x45, 0x00, 0x81, 0x1a, 0x43, 0x75, 0x79, 
	0x43, 0x00, 0x39, 0x42, 0x6e, 0x3f, 0x42, 0x00, 0x5c, 0x40, 
	0x70, 0x3e, 0x40, 0x00, 0x59, 0x4a, 0x75, 0x83, 0x0c, 0x4a, 
	0x00, 0x9e, 0x3f, 0x45, 0x66, 0x02, 0x4a, 0x2f, 0x22, 0x51, 
	0x6d, 0x0b, 0x4a, 0x00, 0x00, 0x45, 0x00, 0x41, 0x51, 0x00, 
	0x7b, 0x4a, 0x5c, 0x11, 0x45, 0x58, 0x0e, 0x51, 0x6f, 0x13, 
	0x45, 0x00, 0x02, 0x4a, 0x00, 0x0f, 0x4a, 0x4a, 0x21, 0x51, 
	0x00, 0x0a, 0x4a, 0x00, 0x81, 0x02, 0x4f, 0x49, 0x0f, 0x4a, 
	0x61, 0x15, 0x47, 0x2c, 0x13, 0x4a, 0x00, 0x0a, 0x47, 0x00, 
	0x25, 0x4f, 0x00, 0x0e, 0x4e, 0x5c, 0x2c, 0x47, 0x58, 0x0b, 
	0x4e, 0x00, 0x13, 0x47, 0x00, 0x00, 0x4c, 0x6a, 0x28, 0x4c, 
	0x00, 0x26, 0x4a, 0x58, 0x03, 0x56, 0x7f, 0x1d, 0x4a, 0x00, 
	0x32, 0x56, 0x00, 0x86, 0x7b, 0x3e, 0x50, 0x42, 0x3e, 0x00, 
	0x30, 0x40, 0x6e, 0x3c, 0x40, 0x00, 0x30, 0x3e, 0x3b, 0x07, 
	0x42, 0x72, 0x14, 0x4a, 0x7f, 0x00, 0x45, 0x66, 0x2a, 0x3e, 
	0x00, 0x12, 0x45, 0x00, 0x00, 0x4a, 0x00, 0x03, 0x42, 0x00, 
	0x81, 0x1a, 0x3b, 0x79, 0x0a, 0x4a, 0x7f, 0x03, 0x45, 0x74, 
	0x07, 0x3e, 0x54, 0x28, 0x3e, 0x00, 0x00, 0x4a, 0x00, 0x05, 
	0x45, 0x00, 0x04, 0x3b, 0x00, 0x81, 0x33, 0x45, 0x7a, 0x02, 
	0x4a, 0x7f, 0x00, 0x3e, 0x6f, 0x0a, 0x3b, 0x72, 0x21, 0x3e, 
	0x00, 0x05, 0x45, 0x00, 0x00, 0x4a, 0x00, 0x79, 0x45, 0x78, 
	0x04, 0x4a, 0x74, 0x02, 0x51, 0x56, 0x1a, 0x45, 0x00, 0x03, 
	0x51, 0x00, 0x00, 0x4a, 0x00, 0x2d, 0x45, 0x7f, 0x00, 0x4a, 
	0x75, 0x02, 0x51, 0x66, 0x1d, 0x4a, 0x00, 0x00, 0x45, 0x00, 
	0x08, 0x51, 0x00, 0x20, 0x45, 0x7c, 0x08, 0x51, 0x61, 0x05, 
	0x4a, 0x75, 0x15, 0x45, 0x00, 0x09, 0x4a, 0x00, 0x00, 0x51, 
	0x00, 0x1f, 0x51, 0x6a, 0x00, 0x45, 0x75, 0x05, 0x4a, 0x7f, 
	0x22, 0x45, 0x00, 0x00, 0x3b, 0x00, 0x06, 0x51, 0x00, 0x00, 
	0x4a, 0x00, 0x19, 0x43, 0x61, 0x0c, 0x4f, 0x7f, 0x00, 0x56, 
	0x7f, 0x14, 0x43, 0x00, 0x00, 0x43, 0x7f, 0x21, 0x43, 0x00, 
	0x42, 0x4f, 0x00, 0x05, 0x56, 0x00, 0x84, 0x48, 0x4a, 0x7f, 
	0x85, 0x46, 0x4a, 0x00, 0x0a, 0x48, 0x79, 0x3d, 0x48, 0x00, 
	0x13, 0x46, 0x7f, 0x40, 0x46, 0x00, 0x10, 0x45, 0x64, 0x45, 
	0x45, 0x00, 0x0b, 0x4f, 0x78, 0x83, 0x50, 0x4f, 0x00, 0x10, 
	0x4a, 0x7a, 0x85, 0x34, 0x4a, 0x00, 0x1c, 0x48, 0x7a, 0x2e, 
	0x48, 0x00, 0x22, 0x46, 0x72, 0x33, 0x46, 0x00, 0x1d, 0x45, 
	0x68, 0x31, 0x45, 0x00, 0x1f, 0x4f, 0x72, 0x83, 0x60, 0x4a, 
	0x7a, 0x04, 0x4f, 0x00, 0x85, 0x4c, 0x48, 0x6c, 0x0a, 0x4a, 
	0x00, 0x85, 0x00, 0x48, 0x00, 0x46, 0x32, 0x7a, 0x54, 0x32, 
	0x00, 0x81, 0x1c, 0x32, 0x6a, 0x83, 0x12, 0x32, 0x00, 0x4e, 
	0x33, 0x6a, 0x7f, 0x33, 0x00, 0x71, 0x32, 0x70, 0x59, 0x32, 
	0x00, 0x81, 0x17, 0x32, 0x6d, 0x83, 0x0b, 0x32, 0x00, 0x55, 
	0x33, 0x6e, 0x77, 0x33, 0x00, 0x79, 0x30, 0x6a, 0x5e, 0x30, 
	0x00, 0x81, 0x12, 0x30, 0x69, 0x82, 0x72, 0x30, 0x00, 0x6e, 
	0x30, 0x66, 0x81, 0x04, 0x30, 0x00, 0x6c, 0x30, 0x6a, 0x7f, 
	0x30, 0x00, 0x71, 0x30, 0x65, 0x83, 0x10, 0x30, 0x00, 0x50, 
	0x30, 0x6b, 0x74, 0x30, 0x00, 0xaf, 0x6e, 0x3a, 0x7f, 0x81, 
	0x00, 0x3a, 0x00, 0x68, 0x41, 0x7f, 0x82, 0x0b, 0x41, 0x00, 
	0x3c, 0x3f, 0x7f, 0x1f, 0x3f, 0x00, 0x1d, 0x41, 0x7f, 0x23, 
	0x41, 0x00, 0x2e, 0x43, 0x7f, 0x7b, 0x43, 0x00, 0x74, 0x3f, 
	0x7f, 0x81, 0x20, 0x3f, 0x00, 0x4e, 0x3f, 0x7f, 0x23, 0x3f, 
	0x00, 0x28, 0x3e, 0x7f, 0x1a, 0x3e, 0x00, 0x2c, 0x3f, 0x7f, 
	0x29, 0x3f, 0x00, 0x11, 0x3f, 0x7f, 0x0e, 0x3f, 0x00, 0x0f, 
	0x3f, 0x7f, 0x14, 0x3f, 0x00, 0x0d, 0x3f, 0x7f, 0x21, 0x3f, 
	0x00, 0x25, 0x3f, 0x7f, 0x16, 0x3f, 0x00, 0x2e, 0x3f, 0x7f, 
	0x18, 0x3f, 0x00, 0x4b, 0x44, 0x7f, 0x82, 0x3f, 0x44, 0x00, 
	0x50, 0x3e, 0x7f, 0x1f, 0x3e, 0x00, 0x31, 0x44, 0x7f, 0x24, 
	0x44, 0x00, 0x2c, 0x48, 0x7f, 0x27, 0x48, 0x00, 0x29, 0x3f, 
	0x7f, 0x28, 0x3f, 0x00, 0x2a, 0x4a, 0x7f, 0x85, 0x4b, 0x4a, 
	0x00, 0x04, 0x3e, 0x7f, 0x81, 0x34, 0x3e, 0x00, 0x40, 0x45, 
	0x7f, 0x81, 0x34, 0x45, 0x00, 0x38, 0x43, 0x7f, 0x2b, 0x43, 
	0x00, 0x25, 0x42, 0x7f, 0x2d, 0x42, 0x00, 0x23, 0x40, 0x7f, 
	0x21, 0x40, 0x00, 0x8b, 0x4e, 0x4c, 0x7f, 0x32, 0x4c, 0x00, 
	0x1e, 0x4a, 0x7f, 0x39, 0x4a, 0x00, 0x17, 0x48, 0x7f, 0x46, 
	0x48, 0x00, 0x14, 0x4d, 0x7f, 0x85, 0x14, 0x4d, 0x00, 0x3c, 
	0x48, 0x7f, 0x2c, 0x48, 0x00, 0x2a, 0x47, 0x7f, 0x28, 0x47, 
	0x00, 0x28, 0x45, 0x7f, 0x2c, 0x45, 0x00, 0x37, 0x4a, 0x7f, 
	0x81, 0x4d, 0x4a, 0x00, 0x01, 0x32, 0x7f, 0x19, 0x32, 0x00, 
	0x37, 0x32, 0x7f, 0x22, 0x32, 0x00, 0x2e, 0x32, 0x7f, 0x27, 
	0x32, 0x00, 0x29, 0x32, 0x7f, 0x4e, 0x32, 0x00, 0x00, 0xff, 
	0x2f, 0x00, 0x4d, 0x54, 0x72, 0x6b, 0x00, 0x00, 0x06, 0xbb, 
	0x00, 0xff, 0x03, 0x07, 0x54, 0x72, 0x61, 0x63, 0x6b, 0x20, 
	0x36, 0x00, 0xc6, 0x2e, 0x00, 0xb6, 0x07, 0x66, 0x00, 0xff, 
	0x7f, 0x05, 0x05, 0x0f, 0x09, 0x00, 0x40, 0x00, 0xff, 0x7f, 
	0x0f, 0x05, 0x0f, 0x06, 0x47, 0x65, 0x6e, 0x65, 0x72, 0x61, 
	0x6c, 0x20, 0x4d, 0x49, 0x44, 0x49, 0x00, 0xb6, 0x12, 0x00, 
	0x16, 0x12, 0x40, 0xa7, 0x21, 0x96, 0x46, 0x44, 0x18, 0x46, 
	0x00, 0x15, 0x4b, 0x38, 0x18, 0x4b, 0x00, 0x0c, 0x4d, 0x38, 
	0x18, 0x4d, 0x00, 0x0d, 0x52, 0x3d, 0x17, 0x52, 0x00, 0x14, 
	0x4d, 0x36, 0x18, 0x4d, 0x00, 0x0f, 0x4b, 0x3d, 0x19, 0x4b, 
	0x00, 0x14, 0x46, 0x40, 0x18, 0x46, 0x00, 0x10, 0x4b, 0x3d, 
	0x18, 0x4b, 0x00, 0x0e, 0x4d, 0x3d, 0x17, 0x4d, 0x00, 0x11, 
	0x52, 0x38, 0x19, 0x52, 0x00, 0x0f, 0x4d, 0x36, 0x17, 0x4d, 
	0x00, 0x0f, 0x4b, 0x38, 0x18, 0x4b, 0x00, 0x10, 0x46, 0x44, 
	0x18, 0x46, 0x00, 0x0f, 0x48, 0x3d, 0x18, 0x48, 0x00, 0x0f, 
	0x4d, 0x3d, 0x18, 0x4d, 0x00, 0x12, 0x52, 0x3d, 0x18, 0x52, 
	0x00, 0x0d, 0x4d, 0x3d, 0x17, 0x4d, 0x00, 0x0d, 0x48, 0x40, 
	0x18, 0x48, 0x00, 0x12, 0x46, 0x44, 0x18, 0x46, 0x00, 0x0f, 
	0x48, 0x3d, 0x19, 0x48, 0x00, 0x0d, 0x4d, 0x36, 0x17, 0x4d, 
	0x00, 0x11, 0x52, 0x3d, 0x19, 0x52, 0x00, 0x0f, 0x4d, 0x36, 
	0x17, 0x4d, 0x00, 0x0f, 0x48, 0x40, 0x18, 0x48, 0x00, 0x0f, 
	0x46, 0x44, 0x19, 0x46, 0x00, 0x10, 0x4b, 0x38, 0x18, 0x4b, 
	0x00, 0x0f, 0x4d, 0x33, 0x19, 0x4d, 0x00, 0x0f, 0x52, 0x3d, 
	0x18, 0x52, 0x00, 0x0f, 0x4d, 0x36, 0x18, 0x4d, 0x00, 0x0d, 
	0x4b, 0x3d, 0x18, 0x4b, 0x00, 0x0f, 0x46, 0x40, 0x14, 0x46, 
	0x00, 0x18, 0x4b, 0x38, 0x18, 0x4b, 0x00, 0x0b, 0x4d, 0x38, 
	0x18, 0x4d, 0x00, 0x12, 0x52, 0x3d, 0x18, 0x52, 0x00, 0x10, 
	0x4d, 0x34, 0x18, 0x4d, 0x00, 0x10, 0x4b, 0x34, 0x18, 0x4b, 
	0x00, 0x12, 0x46, 0x40, 0x17, 0x46, 0x00, 0x11, 0x48, 0x40, 
	0x19, 0x48, 0x00, 0x0d, 0x4d, 0x3d, 0x18, 0x4d, 0x00, 0x13, 
	0x52, 0x3d, 0x18, 0x52, 0x00, 0x11, 0x4d, 0x3d, 0x18, 0x4d, 
	0x00, 0x0e, 0x48, 0x44, 0x17, 0x48, 0x00, 0x0f, 0x46, 0x44, 
	0x17, 0x46, 0x00, 0x11, 0x48, 0x3d, 0x18, 0x48, 0x00, 0x0f, 
	0x4d, 0x38, 0x18, 0x4d, 0x00, 0x0f, 0x52, 0x38, 0x18, 0x52, 
	0x00, 0x11, 0x4d, 0x36, 0x18, 0x4d, 0x00, 0x0f, 0x48, 0x40, 
	0x18, 0x48, 0x00, 0x24, 0x46, 0x44, 0x18, 0x46, 0x00, 0xa5, 
	0x22, 0x41, 0x31, 0x1b, 0x41, 0x00, 0x08, 0x43, 0x31, 0x1b, 
	0x43, 0x00, 0x06, 0x46, 0x31, 0x1c, 0x46, 0x00, 0x0b, 0x4b, 
	0x2a, 0x1c, 0x4b, 0x00, 0x06, 0x4d, 0x2d, 0x1b, 0x4d, 0x00, 
	0x09, 0x52, 0x2d, 0x1c, 0x52, 0x00, 0x11, 0x41, 0x31, 0x1c, 
	0x41, 0x00, 0x07, 0x43, 0x31, 0x1c, 0x43, 0x00, 0x0a, 0x46, 
	0x31, 0x1b, 0x46, 0x00, 0x0e, 0x4b, 0x29, 0x1b, 0x4b, 0x00, 
	0x09, 0x4d, 0x2d, 0x1c, 0x4d, 0x00, 0x07, 0x52, 0x2d, 0x1c, 
	0x52, 0x00, 0x10, 0x41, 0x31, 0x1b, 0x41, 0x00, 0x0d, 0x43, 
	0x2d, 0x1b, 0x43, 0x00, 0x0e, 0x46, 0x31, 0x1c, 0x46, 0x00, 
	0x11, 0x4b, 0x2d, 0x1c, 0x4b, 0x00, 0x0c, 0x4d, 0x2b, 0x1c, 
	0x4d, 0x00, 0x0a, 0x52, 0x2d, 0x1b, 0x52, 0x00, 0x17, 0x41, 
	0x2d, 0x1b, 0x41, 0x00, 0x0b, 0x43, 0x31, 0x1c, 0x43, 0x00, 
	0x0a, 0x46, 0x35, 0x1b, 0x46, 0x00, 0x13, 0x4b, 0x2a, 0x1c, 
	0x4b, 0x00, 0x03, 0x4d, 0x2d, 0x1c, 0x4d, 0x00, 0x09, 0x52, 
	0x2d, 0x1b, 0x52, 0x00, 0x14, 0x41, 0x31, 0x1c, 0x41, 0x00, 
	0x07, 0x43, 0x31, 0x1c, 0x43, 0x00, 0x0b, 0x46, 0x31, 0x1b, 
	0x46, 0x00, 0x13, 0x4b, 0x2d, 0x1c, 0x4b, 0x00, 0x0b, 0x4d, 
	0x2b, 0x1b, 0x4d, 0x00, 0x07, 0x52, 0x2d, 0x1b, 0x52, 0x00, 
	0x13, 0x41, 0x31, 0x1b, 0x41, 0x00, 0x09, 0x43, 0x2d, 0x1c, 
	0x43, 0x00, 0x0f, 0x46, 0x31, 0x1b, 0x46, 0x00, 0x10, 0x4b, 
	0x2b, 0x1c, 0x4b, 0x00, 0x06, 0x4d, 0x31, 0x1c, 0x4d, 0x00, 
	0x0a, 0x52, 0x31, 0x1b, 0x52, 0x00, 0x84, 0x06, 0x41, 0x31, 
	0x1b, 0x41, 0x00, 0x08, 0x43, 0x31, 0x1b, 0x43, 0x00, 0x06, 
	0x46, 0x31, 0x1c, 0x46, 0x00, 0x0b, 0x4b, 0x2a, 0x1c, 0x4b, 
	0x00, 0x06, 0x4d, 0x2d, 0x1b, 0x4d, 0x00, 0x09, 0x52, 0x2d, 
	0x1c, 0x52, 0x00, 0x11, 0x41, 0x31, 0x1c, 0x41, 0x00, 0x07, 
	0x43, 0x31, 0x1c, 0x43, 0x00, 0x0a, 0x46, 0x31, 0x1b, 0x46, 
	0x00, 0x0e, 0x4b, 0x29, 0x1b, 0x4b, 0x00, 0x09, 0x4d, 0x2d, 
	0x1c, 0x4d, 0x00, 0x07, 0x52, 0x2d, 0x1c, 0x52, 0x00, 0x10, 
	0x41, 0x31, 0x1b, 0x41, 0x00, 0x0d, 0x43, 0x2d, 0x1b, 0x43, 
	0x00, 0x0e, 0x46, 0x31, 0x1c, 0x46, 0x00, 0x11, 0x4b, 0x2d, 
	0x1c, 0x4b, 0x00, 0x0c, 0x4d, 0x2b, 0x1c, 0x4d, 0x00, 0x0a, 
	0x52, 0x2d, 0x1b, 0x52, 0x00, 0x17, 0x41, 0x2d, 0x1b, 0x41, 
	0x00, 0x0b, 0x43, 0x31, 0x1c, 0x43, 0x00, 0x0a, 0x46, 0x35, 
	0x1b, 0x46, 0x00, 0x13, 0x4b, 0x2a, 0x1c, 0x4b, 0x00, 0x03, 
	0x4d, 0x2d, 0x1c, 0x4d, 0x00, 0x09, 0x52, 0x2d, 0x1b, 0x52, 
	0x00, 0x14, 0x41, 0x31, 0x1c, 0x41, 0x00, 0x07, 0x44, 0x31, 
	0x1c, 0x44, 0x00, 0x0b, 0x48, 0x31, 0x1b, 0x48, 0x00, 0x13, 
	0x49, 0x2d, 0x1c, 0x49, 0x00, 0x0b, 0x4d, 0x2b, 0x1b, 0x4d, 
	0x00, 0x07, 0x50, 0x2d, 0x1b, 0x50, 0x00, 0x13, 0x41, 0x31, 
	0x1b, 0x41, 0x00, 0x09, 0x48, 0x2d, 0x1c, 0x48, 0x00, 0x0f, 
	0x4d, 0x31, 0x1b, 0x4d, 0x00, 0x10, 0x59, 0x2b, 0x1c, 0x59, 
	0x00, 0x06, 0x54, 0x31, 0x1c, 0x54, 0x00, 0x0a, 0x4d, 0x31, 
	0x1b, 0x4d, 0x00, 0x9a, 0x43, 0x59, 0x4a, 0x81, 0x4b, 0x59, 
	0x00, 0x81, 0xa7, 0x28, 0xb6, 0x12, 0x41, 0x8d, 0x20, 0x96, 
	0x3c, 0x38, 0x01, 0x30, 0x35, 0x5e, 0x30, 0x00, 0x06, 0x3c, 
	0x00, 0x8e, 0x1b, 0x3e, 0x38, 0x01, 0x32, 0x35, 0x5e, 0x32, 
	0x00, 0x06, 0x3e, 0x00, 0x93, 0x20, 0x34, 0x3b, 0x09, 0x35, 
	0x10, 0x24, 0x34, 0x00, 0x05, 0x37, 0x14, 0x14, 0x35, 0x00, 
	0x06, 0x39, 0x2b, 0x0f, 0x37, 0x00, 0x08, 0x3b, 0x25, 0x0b, 
	0x39, 0x00, 0x0e, 0x3c, 0x2e, 0x0a, 0x3b, 0x00, 0x06, 0x3e, 
	0x30, 0x09, 0x3c, 0x00, 0x09, 0x40, 0x34, 0x08, 0x3e, 0x00, 
	0x08, 0x41, 0x37, 0x07, 0x40, 0x00, 0x0a, 0x43, 0x2b, 0x08, 
	0x41, 0x00, 0x07, 0x45, 0x30, 0x0a, 0x43, 0x00, 0x08, 0x47, 
	0x28, 0x0b, 0x45, 0x00, 0x0d, 0x48, 0x28, 0x08, 0x47, 0x00, 
	0x0e, 0x4a, 0x2e, 0x08, 0x48, 0x00, 0x11, 0x4c, 0x44, 0x08, 
	0x4a, 0x00, 0x29, 0x4c, 0x00, 0x96, 0x1d, 0x55, 0x3b, 0x59, 
	0x55, 0x00, 0x01, 0x51, 0x35, 0x51, 0x51, 0x00, 0x03, 0x4d, 
	0x28, 0x4b, 0x4d, 0x00, 0x07, 0x55, 0x40, 0x4e, 0x55, 0x00, 
	0x01, 0x51, 0x32, 0x50, 0x51, 0x00, 0x01, 0x4d, 0x38, 0x47, 
	0x4d, 0x00, 0x05, 0x55, 0x43, 0x52, 0x51, 0x3b, 0x02, 0x55, 
	0x00, 0x47, 0x51, 0x00, 0x00, 0x4d, 0x45, 0x4e, 0x4d, 0x00, 
	0x00, 0x55, 0x47, 0x54, 0x51, 0x40, 0x05, 0x55, 0x00, 0x46, 
	0x51, 0x00, 0x01, 0x4d, 0x40, 0x52, 0x4d, 0x00, 0x02, 0x55, 
	0x4b, 0x4d, 0x55, 0x00, 0x00, 0x51, 0x3e, 0x49, 0x4d, 0x43, 
	0x01, 0x51, 0x00, 0x4c, 0x4d, 0x00, 0x05, 0x55, 0x44, 0x4b, 
	0x51, 0x45, 0x05, 0x55, 0x00, 0x4b, 0x51, 0x00, 0x01, 0x4d, 
	0x47, 0x4b, 0x4d, 0x00, 0x03, 0x55, 0x49, 0x4d, 0x55, 0x00, 
	0x00, 0x51, 0x54, 0x4d, 0x51, 0x00, 0x00, 0x4d, 0x4b, 0x51, 
	0x51, 0x45, 0x04, 0x4d, 0x00, 0x4d, 0x4d, 0x45, 0x05, 0x51, 
	0x00, 0x4a, 0x49, 0x4b, 0x02, 0x4d, 0x00, 0x57, 0x51, 0x4b, 
	0x03, 0x49, 0x00, 0x4d, 0x4d, 0x45, 0x05, 0x51, 0x00, 0x41, 
	0x49, 0x41, 0x05, 0x4d, 0x00, 0x4d, 0x4d, 0x41, 0x0d, 0x49, 
	0x00, 0x42, 0x49, 0x45, 0x02, 0x4d, 0x00, 0x4b, 0x45, 0x41, 
	0x05, 0x49, 0x00, 0x63, 0x40, 0x2b, 0x08, 0x45, 0x00, 0x64, 
	0x40, 0x00, 0x05, 0x45, 0x50, 0x55, 0x47, 0x60, 0x19, 0x45, 
	0x00, 0x23, 0x4c, 0x49, 0x23, 0x47, 0x00, 0x1c, 0x4c, 0x00, 
	0x08, 0x53, 0x51, 0x3d, 0x54, 0x42, 0x3a, 0x53, 0x00, 0x0b, 
	0x58, 0x48, 0x1f, 0x54, 0x00, 0x5d, 0x58, 0x00, 0x81, 0x80, 
	0x34, 0xb6, 0x12, 0x3f, 0xcc, 0x70, 0x12, 0x40, 0x0b, 0x96, 
	0x4b, 0x72, 0x17, 0x4b, 0x00, 0x6e, 0x4c, 0x34, 0x16, 0x4c, 
	0x00, 0x5b, 0x4e, 0x63, 0x21, 0x4e, 0x00, 0x4a, 0x50, 0x55, 
	0x19, 0x50, 0x00, 0x61, 0x4b, 0x72, 0x1e, 0x4b, 0x00, 0x58, 
	0x4c, 0x67, 0x26, 0x4c, 0x00, 0x67, 0x4e, 0x72, 0x20, 0x4e, 
	0x00, 0x81, 0x50, 0x4e, 0x72, 0x15, 0x4e, 0x00, 0x81, 0x50, 
	0x4b, 0x72, 0x1e, 0x4b, 0x00, 0x5b, 0x4c, 0x69, 0x15, 0x4c, 
	0x00, 0x0b, 0x4c, 0x06, 0x17, 0x4c, 0x00, 0x45, 0x4e, 0x6d, 
	0x20, 0x4e, 0x00, 0x56, 0x50, 0x60, 0x18, 0x50, 0x00, 0x62, 
	0x4b, 0x72, 0x20, 0x4b, 0x00, 0x53, 0x4c, 0x67, 0x16, 0x4c, 
	0x00, 0x71, 0x4e, 0x72, 0x1b, 0x4e, 0x00, 0x81, 0x50, 0x4e, 
	0x72, 0x16, 0x4e, 0x00, 0x81, 0x5a, 0x4b, 0x72, 0x1b, 0x4b, 
	0x00, 0x58, 0x4c, 0x72, 0x2d, 0x4c, 0x00, 0x60, 0x2a, 0x52, 
	0x10, 0x2a, 0x00, 0x21, 0x2c, 0x5e, 0x10, 0x2c, 0x00, 0x16, 
	0x2e, 0x5e, 0x11, 0x2e, 0x00, 0x0d, 0x2f, 0x5e, 0x11, 0x2f, 
	0x00, 0x16, 0x31, 0x5e, 0x10, 0x31, 0x00, 0x17, 0x33, 0x5e, 
	0x10, 0x33, 0x00, 0x1e, 0x34, 0x5e, 0x10, 0x34, 0x00, 0x1c, 
	0x36, 0x5e, 0x10, 0x36, 0x00, 0x8c, 0x66, 0x46, 0x5e, 0x19, 
	0x46, 0x00, 0x25, 0x4d, 0x41, 0x29, 0x4d, 0x00, 0x4f, 0x52, 
	0x5e, 0x17, 0x52, 0x00, 0x60, 0x4d, 0x5a, 0x16, 0x4d, 0x00, 
	0x62, 0x46, 0x5e, 0x1b, 0x46, 0x00, 0x5d, 0x4d, 0x5e, 0x23, 
	0x4d, 0x00, 0x55, 0x52, 0x5e, 0x18, 0x52, 0x00, 0x61, 0x4d, 
	0x5b, 0x14, 0x4d, 0x00, 0x63, 0x48, 0x5e, 0x27, 0x48, 0x00, 
	0x51, 0x4d, 0x5e, 0x2a, 0x4d, 0x00, 0x4e, 0x52, 0x5e, 0x14, 
	0x52, 0x00, 0x64, 0x4d, 0x5e, 0x2c, 0x4d, 0x00, 0x4d, 0x48, 
	0x5e, 0x32, 0x48, 0x00, 0x46, 0x4d, 0x54, 0x26, 0x4d, 0x00, 
	0x52, 0x52, 0x5e, 0x14, 0x52, 0x00, 0x64, 0x4d, 0x59, 0x14, 
	0x4d, 0x00, 0x64, 0x4b, 0x7b, 0x23, 0x4b, 0x00, 0x54, 0x50, 
	0x7b, 0x2c, 0x50, 0x00, 0x4d, 0x57, 0x7b, 0x14, 0x57, 0x00, 
	0x64, 0x50, 0x74, 0x1e, 0x50, 0x00, 0x5a, 0x4b, 0x7b, 0x1e, 
	0x4b, 0x00, 0x5a, 0x50, 0x7b, 0x21, 0x50, 0x00, 0x57, 0x57, 
	0x7b, 0x15, 0x57, 0x00, 0x81, 0x5a, 0x32, 0x5c, 0x10, 0x32, 
	0x00, 0x00, 0x34, 0x5c, 0x08, 0x34, 0x00, 0x02, 0x36, 0x5c, 
	0x06, 0x36, 0x00, 0x07, 0x37, 0x5c, 0x07, 0x37, 0x00, 0x05, 
	0x39, 0x5c, 0x05, 0x39, 0x00, 0x05, 0x3b, 0x5c, 0x08, 0x3b, 
	0x00, 0x02, 0x3d, 0x5c, 0x06, 0x3d, 0x00, 0x05, 0x3e, 0x5c, 
	0x07, 0x3e, 0x00, 0x03, 0x40, 0x5c, 0x07, 0x40, 0x00, 0x03, 
	0x42, 0x5c, 0x07, 0x42, 0x00, 0x03, 0x43, 0x5c, 0x07, 0x43, 
	0x00, 0x02, 0x45, 0x5c, 0x0b, 0x45, 0x00, 0x0f, 0x43, 0x56, 
	0x07, 0x43, 0x00, 0x0c, 0x42, 0x4c, 0x06, 0x42, 0x00, 0x08, 
	0x40, 0x5c, 0x06, 0x40, 0x00, 0x0d, 0x3e, 0x5c, 0x07, 0x3e, 
	0x00, 0x22, 0x32, 0x5c, 0x10, 0x32, 0x00, 0x00, 0x34, 0x5c, 
	0x08, 0x34, 0x00, 0x02, 0x36, 0x5c, 0x06, 0x36, 0x00, 0x07, 
	0x37, 0x5c, 0x07, 0x37, 0x00, 0x05, 0x39, 0x5c, 0x05, 0x39, 
	0x00, 0x05, 0x3b, 0x5c, 0x08, 0x3b, 0x00, 0x02, 0x3d, 0x5c, 
	0x06, 0x3d, 0x00, 0x05, 0x3e, 0x5c, 0x07, 0x3e, 0x00, 0x03, 
	0x40, 0x5c, 0x07, 0x40, 0x00, 0x03, 0x42, 0x5c, 0x07, 0x42, 
	0x00, 0x03, 0x43, 0x5c, 0x07, 0x43, 0x00, 0x02, 0x45, 0x5c, 
	0x0b, 0x45, 0x00, 0x0f, 0x43, 0x56, 0x07, 0x43, 0x00, 0x0c, 
	0x42, 0x4d, 0x06, 0x42, 0x00, 0x08, 0x40, 0x5c, 0x06, 0x40, 
	0x00, 0x26, 0x39, 0x5c, 0x0c, 0x39, 0x00, 0x00, 0x3b, 0x5c, 
	0x0e, 0x3b, 0x00, 0x01, 0x3d, 0x5c, 0x0d, 0x3d, 0x00, 0x06, 
	0x3e, 0x5c, 0x0e, 0x3e, 0x00, 0x0a, 0x40, 0x5c, 0x0d, 0x40, 
	0x00, 0x11, 0x42, 0x5c, 0x0c, 0x42, 0x00, 0x0e, 0x43, 0x5c, 
	0x0e, 0x43, 0x00, 0x08, 0x45, 0x5c, 0x0e, 0x45, 0x00, 0x09, 
	0x47, 0x5c, 0x0e, 0x47, 0x00, 0x05, 0x49, 0x5c, 0x0d, 0x49, 
	0x00, 0x07, 0x4a, 0x5c, 0x0c, 0x4a, 0x00, 0x03, 0x4c, 0x5c, 
	0x0c, 0x4c, 0x00, 0x05, 0x51, 0x5c, 0x0d, 0x51, 0x00, 0x00, 
	0xff, 0x2f, 0x00, 0x4d, 0x54, 0x72, 0x6b, 0x00, 0x00, 0x01, 
	0x64, 0x00, 0xff, 0x03, 0x07, 0x54, 0x72, 0x61, 0x63, 0x6b, 
	0x20, 0x37, 0x00, 0xc7, 0x01, 0x00, 0xb7, 0x07, 0x6e, 0x00, 
	0xff, 0x7f, 0x05, 0x05, 0x0f, 0x09, 0x00, 0x40, 0x00, 0xff, 
	0x7f, 0x0f, 0x05, 0x0f, 0x06, 0x47, 0x65, 0x6e, 0x65, 0x72, 
	0x61, 0x6c, 0x20, 0x4d, 0x49, 0x44, 0x49, 0x00, 0xb7, 0x12, 
	0x00, 0x16, 0x12, 0x3f, 0xd2, 0x2a, 0x12, 0x40, 0x89, 0x35, 
	0x97, 0x4b, 0x47, 0x32, 0x4b, 0x00, 0x14, 0x46, 0x42, 0x32, 
	0x46, 0x00, 0x1b, 0x41, 0x44, 0x32, 0x41, 0x00, 0x1f, 0x43, 
	0x44, 0x32, 0x43, 0x00, 0x1d, 0x48, 0x4b, 0x32, 0x48, 0x00, 
	0x1d, 0x4d, 0x4b, 0x32, 0x4d, 0x00, 0x1f, 0x4f, 0x4b, 0x32, 
	0x4f, 0x00, 0x21, 0x4b, 0x47, 0x32, 0x4b, 0x00, 0x1c, 0x46, 
	0x47, 0x32, 0x46, 0x00, 0x1d, 0x45, 0x4b, 0x32, 0x45, 0x00, 
	0x1e, 0x46, 0x42, 0x32, 0x46, 0x00, 0x1e, 0x4d, 0x47, 0x32, 
	0x4d, 0x00, 0x22, 0x52, 0x50, 0x32, 0x52, 0x00, 0x1e, 0x4d, 
	0x4d, 0x32, 0x4d, 0x00, 0x1e, 0x48, 0x50, 0x32, 0x48, 0x00, 
	0x1e, 0x4d, 0x56, 0x32, 0x4d, 0x00, 0x1d, 0x52, 0x44, 0x32, 
	0x52, 0x00, 0x1c, 0x57, 0x47, 0x32, 0x57, 0x00, 0x21, 0x54, 
	0x50, 0x32, 0x54, 0x00, 0x1d, 0x4d, 0x4b, 0x32, 0x4d, 0x00, 
	0x1e, 0x48, 0x4d, 0x32, 0x48, 0x00, 0x1e, 0x4d, 0x4b, 0x32, 
	0x4d, 0x00, 0x1e, 0x54, 0x4d, 0x32, 0x54, 0x00, 0x1e, 0x59, 
	0x47, 0x32, 0x59, 0x00, 0x1f, 0x57, 0x56, 0x32, 0x57, 0x00, 
	0x1d, 0x52, 0x4d, 0x32, 0x52, 0x00, 0x1b, 0x4d, 0x4d, 0x32, 
	0x4d, 0x00, 0x21, 0x48, 0x4d, 0x32, 0x48, 0x00, 0x1b, 0x4d, 
	0x4d, 0x32, 0x4d, 0x00, 0x1e, 0x52, 0x44, 0x32, 0x52, 0x00, 
	0x1e, 0x57, 0x4d, 0x32, 0x57, 0x00, 0x1f, 0x52, 0x3c, 0x32, 
	0x52, 0x00, 0x20, 0x4d, 0x4b, 0x32, 0x4d, 0x00, 0x20, 0x4b, 
	0x56, 0x32, 0x4b, 0x00, 0x1c, 0x4d, 0x50, 0x32, 0x4d, 0x00, 
	0x1e, 0x52, 0x44, 0x32, 0x52, 0x00, 0x20, 0x59, 0x56, 0x32, 
	0x59, 0x00, 0x1e, 0x54, 0x47, 0x32, 0x54, 0x00, 0x1c, 0x4d, 
	0x47, 0x32, 0x4d, 0x00, 0x1e, 0x48, 0x56, 0x32, 0x48, 0x00, 
	0x1c, 0x4d, 0x4d, 0x32, 0x4d, 0x00, 0x1c, 0x54, 0x4d, 0x32, 
	0x54, 0x00, 0x1f, 0x59, 0x56, 0x32, 0x59, 0x00, 0x1d, 0x52, 
	0x4b, 0x32, 0x52, 0x00, 0x1d, 0x4b, 0x56, 0x32, 0x4b, 0x00, 
	0x20, 0x54, 0x50, 0x32, 0x54, 0x00, 0x1c, 0x4d, 0x4d, 0x32, 
	0x4d, 0x00, 0x1e, 0x48, 0x56, 0x32, 0x48, 0x00, 0x94, 0x78, 
	0xb7, 0x12, 0x00, 0x00, 0xff, 0x2f, 0x00, 0x4d, 0x54, 0x72, 
	0x6b, 0x00, 0x00, 0x1d, 0x36, 0x00, 0xff, 0x03, 0x07, 0x54, 
	0x72, 0x61, 0x63, 0x6b, 0x20, 0x38, 0x00, 0xc8, 0x30, 0x00, 
	0xb8, 0x07, 0x7d, 0x00, 0xff, 0x7f, 0x05, 0x05, 0x0f, 0x09, 
	0x00, 0x40, 0x00, 0xff, 0x7f, 0x0f, 0x05, 0x0f, 0x06, 0x47, 
	0x65, 0x6e, 0x65, 0x72, 0x61, 0x6c, 0x20, 0x4d, 0x49, 0x44, 
	0x49, 0x00, 0xb8, 0x12, 0x00, 0x1b, 0x12, 0x40, 0x87, 0x2f, 
	0x98, 0x35, 0x6c, 0x00, 0x3e, 0x43, 0x82, 0x04, 0x35, 0x00, 
	0x85, 0x1e, 0x3e, 0x00, 0x8d, 0x52, 0x51, 0x3c, 0x29, 0x52, 
	0x3f, 0x05, 0x51, 0x00, 0x30, 0x52, 0x00, 0x00, 0x54, 0x44, 
	0x2b, 0x55, 0x49, 0x02, 0x54, 0x00, 0x2d, 0x57, 0x4d, 0x07, 
	0x55, 0x00, 0x28, 0x59, 0x51, 0x05, 0x57, 0x00, 0x30, 0x59, 
	0x00, 0x00, 0x5b, 0x56, 0x2e, 0x5d, 0x5b, 0x06, 0x5b, 0x00, 
	0x3b, 0x5d, 0x00, 0x98, 0x63, 0x3c, 0x72, 0x19, 0x3c, 0x00, 
	0x08, 0x3b, 0x72, 0x25, 0x3b, 0x00, 0x03, 0x3c, 0x72, 0x20, 
	0x3c, 0x00, 0x04, 0x3e, 0x72, 0x27, 0x3f, 0x72, 0x02, 0x3e, 
	0x00, 0x19, 0x3f, 0x00, 0x08, 0x40, 0x72, 0x24, 0x40, 0x00, 
	0x06, 0x41, 0x72, 0x1e, 0x41, 0x00, 0x08, 0x40, 0x72, 0x25, 
	0x40, 0x00, 0x03, 0x41, 0x72, 0x25, 0x41, 0x00, 0x04, 0x43, 
	0x72, 0x1e, 0x43, 0x00, 0x09, 0x45, 0x72, 0x1e, 0x45, 0x00, 
	0x07, 0x46, 0x72, 0x1e, 0x46, 0x00, 0x10, 0x48, 0x72, 0x20, 
	0x48, 0x00, 0x0a, 0x4a, 0x5d, 0x20, 0x4b, 0x5d, 0x0d, 0x4a, 
	0x00, 0x19, 0x4d, 0x5d, 0x05, 0x4b, 0x00, 0x23, 0x4f, 0x5d, 
	0x0a, 0x4d, 0x00, 0x1a, 0x51, 0x5d, 0x0b, 0x4f, 0x00, 0x2b, 
	0x52, 0x5d, 0x06, 0x51, 0x00, 0x20, 0x52, 0x00, 0x2f, 0x52, 
	0x5d, 0x23, 0x51, 0x5d, 0x11, 0x52, 0x00, 0x18, 0x52, 0x5d, 
	0x07, 0x51, 0x00, 0x1b, 0x51, 0x5d, 0x08, 0x52, 0x00, 0x1b, 
	0x52, 0x5d, 0x10, 0x51, 0x00, 0x1b, 0x52, 0x00, 0x27, 0x52, 
	0x5d, 0x21, 0x51, 0x5d, 0x0c, 0x52, 0x00, 0x18, 0x52, 0x5d, 
	0x0e, 0x51, 0x00, 0x15, 0x51, 0x5d, 0x0a, 0x52, 0x00, 0x20, 
	0x52, 0x5d, 0x07, 0x51, 0x00, 0x24, 0x52, 0x00, 0x31, 0x52, 
	0x5d, 0x26, 0x51, 0x5d, 0x0d, 0x52, 0x00, 0x1d, 0x52, 0x5d, 
	0x08, 0x51, 0x00, 0x1e, 0x51, 0x5d, 0x08, 0x52, 0x00, 0x20, 
	0x52, 0x5d, 0x0c, 0x51, 0x00, 0x1b, 0x52, 0x00, 0x2c, 0x52, 
	0x5d, 0x23, 0x51, 0x5d, 0x10, 0x52, 0x00, 0x1c, 0x52, 0x5d, 
	0x07, 0x51, 0x00, 0x1c, 0x51, 0x5d, 0x0c, 0x52, 0x00, 0x21, 
	0x52, 0x5d, 0x06, 0x51, 0x00, 0x24, 0x52, 0x00, 0x30, 0x52, 
	0x5d, 0x1b, 0x51, 0x5d, 0x0f, 0x52, 0x00, 0x1e, 0x52, 0x5d, 
	0x0a, 0x51, 0x00, 0x17, 0x51, 0x5d, 0x0c, 0x52, 0x00, 0x1e, 
	0x52, 0x5d, 0x0d, 0x51, 0x00, 0x1b, 0x52, 0x00, 0x2c, 0x52, 
	0x5d, 0x22, 0x51, 0x5d, 0x0f, 0x52, 0x00, 0x1c, 0x52, 0x5d, 
	0x0a, 0x51, 0x00, 0x1b, 0x51, 0x5d, 0x0c, 0x52, 0x00, 0x1e, 
	0x52, 0x5d, 0x08, 0x51, 0x00, 0x1f, 0x52, 0x00, 0x2e, 0x52, 
	0x5d, 0x23, 0x51, 0x5d, 0x0e, 0x52, 0x00, 0x1f, 0x52, 0x5d, 
	0x0a, 0x51, 0x00, 0x1d, 0x51, 0x5d, 0x09, 0x52, 0x00, 0x26, 
	0x52, 0x5d, 0x02, 0x51, 0x00, 0x25, 0x52, 0x00, 0x32, 0x52, 
	0x5d, 0x22, 0x51, 0x5d, 0x0e, 0x52, 0x00, 0x1b, 0x52, 0x5d, 
	0x0d, 0x51, 0x00, 0x19, 0x51, 0x5d, 0x0a, 0x52, 0x00, 0x1c, 
	0x52, 0x5d, 0x0d, 0x51, 0x00, 0x1d, 0x52, 0x00, 0x28, 0x52, 
	0x5d, 0x1a, 0x51, 0x5d, 0x0f, 0x52, 0x00, 0x1e, 0x52, 0x5d, 
	0x0e, 0x51, 0x00, 0x19, 0x51, 0x5d, 0x0a, 0x52, 0x00, 0x25, 
	0x51, 0x00, 0x00, 0x52, 0x5d, 0x26, 0x52, 0x00, 0x30, 0x52, 
	0x5d, 0x22, 0x51, 0x5d, 0x0d, 0x52, 0x00, 0x1e, 0x52, 0x5d, 
	0x0c, 0x51, 0x00, 0x1d, 0x51, 0x5d, 0x0e, 0x52, 0x00, 0x1b, 
	0x52, 0x5d, 0x03, 0x51, 0x00, 0x25, 0x52, 0x00, 0x28, 0x52, 
	0x5d, 0x19, 0x51, 0x5d, 0x0e, 0x52, 0x00, 0x1e, 0x52, 0x5d, 
	0x0f, 0x51, 0x00, 0x18, 0x51, 0x5d, 0x0c, 0x52, 0x00, 0x21, 
	0x52, 0x5d, 0x05, 0x51, 0x00, 0x20, 0x52, 0x00, 0x2c, 0x52, 
	0x5d, 0x23, 0x51, 0x5d, 0x0c, 0x52, 0x00, 0x21, 0x52, 0x5d, 
	0x0a, 0x51, 0x00, 0x1a, 0x51, 0x5d, 0x12, 0x52, 0x00, 0x1c, 
	0x51, 0x00, 0x07, 0x50, 0x5d, 0x20, 0x50, 0x00, 0x26, 0x4f, 
	0x5d, 0x28, 0x4f, 0x00, 0x1f, 0x50, 0x5d, 0x28, 0x50, 0x00, 
	0x24, 0x4d, 0x5d, 0x82, 0x5f, 0x4d, 0x00, 0x81, 0x02, 0x4d, 
	0x61, 0x81, 0x27, 0x4d, 0x00, 0x14, 0x4d, 0x61, 0x48, 0x4d, 
	0x00, 0x00, 0x4f, 0x61, 0x82, 0x4a, 0x4f, 0x00, 0x00, 0x4f, 
	0x61, 0x73, 0x57, 0x61, 0x81, 0x02, 0x56, 0x61, 0x05, 0x57, 
	0x00, 0x50, 0x4f, 0x00, 0x12, 0x56, 0x00, 0x05, 0x54, 0x61, 
	0x7b, 0x52, 0x60, 0x07, 0x54, 0x00, 0x73, 0x52, 0x00, 0x0b, 
	0x52, 0x5e, 0x4a, 0x54, 0x5e, 0x17, 0x52, 0x00, 0x2f, 0x54, 
	0x00, 0x02, 0x56, 0x5e, 0x5d, 0x56, 0x00, 0x02, 0x54, 0x60, 
	0x81, 0x2b, 0x54, 0x00, 0x07, 0x4f, 0x61, 0x46, 0x4f, 0x00, 
	0x02, 0x51, 0x61, 0x81, 0x61, 0x51, 0x00, 0x0b, 0x4d, 0x61, 
	0x81, 0x0c, 0x4d, 0x00, 0x27, 0x4d, 0x61, 0x40, 0x4f, 0x61, 
	0x13, 0x4d, 0x00, 0x82, 0x3d, 0x4f, 0x00, 0x14, 0x4f, 0x61, 
	0x31, 0x57, 0x4a, 0x06, 0x4f, 0x00, 0x32, 0x57, 0x00, 0x09, 
	0x57, 0x61, 0x6f, 0x57, 0x00, 0x01, 0x56, 0x61, 0x70, 0x56, 
	0x00, 0x00, 0x54, 0x61, 0x7a, 0x54, 0x00, 0x03, 0x52, 0x60, 
	0x37, 0x59, 0x56, 0x19, 0x52, 0x00, 0x10, 0x59, 0x00, 0x0b, 
	0x59, 0x61, 0x81, 0x4d, 0x59, 0x00, 0x01, 0x54, 0x56, 0x2a, 
	0x54, 0x00, 0x08, 0x54, 0x61, 0x85, 0x13, 0x54, 0x00, 0x12, 
	0x4d, 0x61, 0x3f, 0x4f, 0x61, 0x09, 0x4d, 0x00, 0x82, 0x46, 
	0x4f, 0x00, 0x04, 0x4f, 0x61, 0x73, 0x57, 0x61, 0x09, 0x4f, 
	0x00, 0x79, 0x56, 0x61, 0x05, 0x57, 0x00, 0x62, 0x56, 0x00, 
	0x05, 0x54, 0x61, 0x7b, 0x52, 0x60, 0x07, 0x54, 0x00, 0x73, 
	0x52, 0x00, 0x0b, 0x52, 0x5e, 0x4a, 0x54, 0x5e, 0x17, 0x52, 
	0x00, 0x2f, 0x54, 0x00, 0x02, 0x56, 0x5e, 0x5d, 0x56, 0x00, 
	0x02, 0x54, 0x60, 0x81, 0x2b, 0x54, 0x00, 0x07, 0x4f, 0x61, 
	0x38, 0x4f, 0x00, 0x10, 0x51, 0x61, 0x81, 0x61, 0x51, 0x00, 
	0x1e, 0x59, 0x56, 0x81, 0x08, 0x59, 0x00, 0x2a, 0x59, 0x58, 
	0x28, 0x59, 0x00, 0x05, 0x5e, 0x5b, 0x05, 0x5a, 0x5b, 0x66, 
	0x5a, 0x00, 0x0d, 0x5e, 0x00, 0x4d, 0x59, 0x5a, 0x08, 0x5c, 
	0x5e, 0x1c, 0x59, 0x00, 0x07, 0x5c, 0x00, 0x01, 0x5a, 0x5f, 
	0x04, 0x57, 0x5f, 0x69, 0x5a, 0x00, 0x03, 0x57, 0x00, 0x50, 
	0x55, 0x61, 0x00, 0x59, 0x61, 0x22, 0x55, 0x00, 0x06, 0x59, 
	0x00, 0x14, 0x57, 0x63, 0x0c, 0x54, 0x63, 0x4e, 0x57, 0x00, 
	0x11, 0x54, 0x00, 0x43, 0x52, 0x65, 0x12, 0x55, 0x66, 0x10, 
	0x52, 0x00, 0x14, 0x55, 0x00, 0x0a, 0x50, 0x66, 0x0a, 0x54, 
	0x66, 0x59, 0x50, 0x00, 0x0a, 0x54, 0x00, 0x39, 0x52, 0x6a, 
	0x04, 0x4e, 0x6a, 0x14, 0x52, 0x00, 0x14, 0x4e, 0x00, 0x22, 
	0x59, 0x4d, 0x81, 0x2f, 0x41, 0x64, 0x2d, 0x41, 0x00, 0x0f, 
	0x41, 0x72, 0x2d, 0x41, 0x00, 0x81, 0x07, 0x41, 0x55, 0x2d, 
	0x41, 0x00, 0x0f, 0x41, 0x72, 0x2d, 0x41, 0x00, 0x0f, 0x41, 
	0x55, 0x2d, 0x41, 0x00, 0x0f, 0x41, 0x55, 0x2d, 0x41, 0x00, 
	0x0f, 0x41, 0x55, 0x2d, 0x41, 0x00, 0x0a, 0x59, 0x00, 0x05, 
	0x41, 0x72, 0x2d, 0x41, 0x00, 0x81, 0x07, 0x41, 0x55, 0x2d, 
	0x41, 0x00, 0x0f, 0x41, 0x72, 0x2d, 0x41, 0x00, 0x81, 0x07, 
	0x41, 0x55, 0x2d, 0x41, 0x00, 0x0f, 0x41, 0x72, 0x2d, 0x41, 
	0x00, 0x0f, 0x41, 0x55, 0x2d, 0x41, 0x00, 0x0f, 0x41, 0x55, 
	0x2d, 0x41, 0x00, 0x0f, 0x41, 0x55, 0x2d, 0x41, 0x00, 0x0f, 
	0x41, 0x72, 0x2d, 0x41, 0x00, 0x81, 0x07, 0x41, 0x55, 0x2d, 
	0x41, 0x00, 0x0f, 0x41, 0x7f, 0x2d, 0x41, 0x00, 0x81, 0x07, 
	0x41, 0x60, 0x2d, 0x41, 0x00, 0x0f, 0x41, 0x7f, 0x2d, 0x41, 
	0x00, 0x0f, 0x41, 0x60, 0x2d, 0x41, 0x00, 0x0f, 0x41, 0x60, 
	0x2d, 0x41, 0x00, 0x0f, 0x41, 0x60, 0x2d, 0x41, 0x00, 0x0f, 
	0x41, 0x7f, 0x2d, 0x41, 0x00, 0x81, 0x07, 0x41, 0x60, 0x2d, 
	0x41, 0x00, 0x0f, 0x41, 0x7f, 0x2d, 0x41, 0x00, 0x81, 0x07, 
	0x41, 0x60, 0x2d, 0x41, 0x00, 0x0f, 0x41, 0x7f, 0x2d, 0x41, 
	0x00, 0x0f, 0x41, 0x60, 0x2d, 0x41, 0x00, 0x0f, 0x41, 0x60, 
	0x2d, 0x41, 0x00, 0x0f, 0x41, 0x60, 0x2d, 0x41, 0x00, 0x0f, 
	0x41, 0x7f, 0x2d, 0x41, 0x00, 0x81, 0x07, 0x41, 0x60, 0x2d, 
	0x41, 0x00, 0x0f, 0x41, 0x7f, 0x2d, 0x41, 0x00, 0x81, 0x07, 
	0x41, 0x60, 0x2d, 0x41, 0x00, 0x0f, 0x3d, 0x7f, 0x0f, 0x3d, 
	0x00, 0x00, 0x3d, 0x6f, 0x0f, 0x3d, 0x00, 0x1e, 0x3d, 0x60, 
	0x0c, 0x3d, 0x00, 0x00, 0x3d, 0x63, 0x0d, 0x3d, 0x00, 0x23, 
	0x3d, 0x60, 0x0c, 0x3d, 0x00, 0x00, 0x3d, 0x6f, 0x0d, 0x3d, 
	0x00, 0x23, 0x3d, 0x60, 0x06, 0x3d, 0x00, 0x00, 0x3d, 0x53, 
	0x06, 0x3d, 0x00, 0x30, 0x41, 0x7f, 0x37, 0x41, 0x00, 0x7d, 
	0x41, 0x6e, 0x37, 0x41, 0x00, 0x05, 0x41, 0x7f, 0x37, 0x41, 
	0x00, 0x7d, 0x41, 0x6e, 0x37, 0x41, 0x00, 0x41, 0x3d, 0x6e, 
	0x37, 0x3d, 0x00, 0x05, 0x3d, 0x6e, 0x37, 0x3d, 0x00, 0x05, 
	0x3d, 0x6e, 0x37, 0x3d, 0x00, 0x05, 0x41, 0x7f, 0x37, 0x41, 
	0x00, 0x7d, 0x41, 0x6e, 0x37, 0x41, 0x00, 0x05, 0x41, 0x7f, 
	0x37, 0x41, 0x00, 0x7d, 0x41, 0x6e, 0x37, 0x41, 0x00, 0x05, 
	0x3d, 0x7f, 0x37, 0x3d, 0x00, 0x05, 0x3d, 0x6e, 0x37, 0x3d, 
	0x00, 0x05, 0x3d, 0x6e, 0x37, 0x3d, 0x00, 0x05, 0x3d, 0x6e, 
	0x37, 0x3d, 0x00, 0x05, 0x41, 0x7f, 0x37, 0x41, 0x00, 0x05, 
	0x41, 0x6e, 0x37, 0x41, 0x00, 0x05, 0x41, 0x6e, 0x37, 0x41, 
	0x00, 0x05, 0x41, 0x6e, 0x37, 0x41, 0x00, 0x05, 0x3c, 0x7f, 
	0x37, 0x3c, 0x00, 0x05, 0x3c, 0x6e, 0x37, 0x3c, 0x00, 0x05, 
	0x3c, 0x6e, 0x37, 0x3c, 0x00, 0x05, 0x3c, 0x6e, 0x37, 0x3c, 
	0x00, 0x81, 0x39, 0x43, 0x65, 0x2d, 0x43, 0x00, 0x0f, 0x43, 
	0x7f, 0x2d, 0x43, 0x00, 0x81, 0x07, 0x43, 0x65, 0x2d, 0x43, 
	0x00, 0x0f, 0x43, 0x7f, 0x2d, 0x43, 0x00, 0x81, 0x07, 0x43, 
	0x65, 0x2d, 0x43, 0x00, 0x0f, 0x43, 0x7f, 0x2d, 0x43, 0x00, 
	0x0f, 0x43, 0x65, 0x2d, 0x43, 0x00, 0x0f, 0x43, 0x65, 0x2d, 
	0x43, 0x00, 0x0f, 0x43, 0x65, 0x2d, 0x43, 0x00, 0x0f, 0x43, 
	0x7f, 0x2d, 0x43, 0x00, 0x81, 0x07, 0x43, 0x65, 0x2d, 0x43, 
	0x00, 0x0f, 0x43, 0x7f, 0x2d, 0x43, 0x00, 0x81, 0x07, 0x43, 
	0x65, 0x2d, 0x43, 0x00, 0x0f, 0x43, 0x7f, 0x2d, 0x43, 0x00, 
	0x0f, 0x43, 0x65, 0x2d, 0x43, 0x00, 0x0f, 0x43, 0x65, 0x2d, 
	0x43, 0x00, 0x0f, 0x43, 0x65, 0x2d, 0x43, 0x00, 0x0f, 0x43, 
	0x7f, 0x0d, 0x56, 0x3c, 0x20, 0x43, 0x00, 0x1e, 0x57, 0x3d, 
	0x0a, 0x56, 0x00, 0x25, 0x56, 0x3d, 0x0f, 0x57, 0x00, 0x31, 
	0x57, 0x3e, 0x0a, 0x56, 0x00, 0x2d, 0x56, 0x3f, 0x0b, 0x57, 
	0x00, 0x35, 0x57, 0x41, 0x05, 0x56, 0x00, 0x34, 0x56, 0x42, 
	0x08, 0x57, 0x00, 0x37, 0x57, 0x43, 0x03, 0x56, 0x00, 0x3a, 
	0x56, 0x44, 0x05, 0x57, 0x00, 0x34, 0x57, 0x45, 0x02, 0x56, 
	0x00, 0x3e, 0x56, 0x46, 0x03, 0x57, 0x00, 0x37, 0x56, 0x00, 
	0x02, 0x57, 0x47, 0x36, 0x56, 0x48, 0x0a, 0x57, 0x00, 0x2d, 
	0x57, 0x49, 0x06, 0x56, 0x00, 0x37, 0x56, 0x4a, 0x0a, 0x57, 
	0x00, 0x2d, 0x57, 0x4b, 0x0d, 0x56, 0x00, 0x29, 0x56, 0x4c, 
	0x0a, 0x57, 0x00, 0x2d, 0x57, 0x4d, 0x09, 0x56, 0x00, 0x34, 
	0x56, 0x4e, 0x08, 0x57, 0x00, 0x32, 0x57, 0x4f, 0x07, 0x56, 
	0x00, 0x35, 0x56, 0x50, 0x0b, 0x57, 0x00, 0x2f, 0x57, 0x51, 
	0x03, 0x56, 0x00, 0x33, 0x56, 0x52, 0x0d, 0x57, 0x00, 0x32, 
	0x57, 0x53, 0x05, 0x56, 0x00, 0x2f, 0x56, 0x54, 0x14, 0x57, 
	0x00, 0x2c, 0x57, 0x55, 0x0a, 0x56, 0x00, 0x2f, 0x56, 0x56, 
	0x12, 0x57, 0x00, 0x2e, 0x57, 0x57, 0x08, 0x56, 0x00, 0x2d, 
	0x56, 0x58, 0x14, 0x57, 0x00, 0x26, 0x57, 0x59, 0x0f, 0x56, 
	0x00, 0x21, 0x56, 0x5a, 0x14, 0x57, 0x00, 0x13, 0x54, 0x5f, 
	0x14, 0x56, 0x00, 0x23, 0x55, 0x62, 0x01, 0x54, 0x00, 0x32, 
	0x55, 0x00, 0x06, 0x56, 0x66, 0x40, 0x56, 0x00, 0x01, 0x57, 
	0x6a, 0x31, 0x57, 0x00, 0x0a, 0x58, 0x6e, 0x32, 0x59, 0x71, 
	0x01, 0x58, 0x00, 0x23, 0x59, 0x00, 0x05, 0x5a, 0x74, 0x2e, 
	0x5b, 0x77, 0x09, 0x5a, 0x00, 0x81, 0x46, 0x5b, 0x00, 0x81, 
	0x2f, 0x37, 0x7f, 0x0f, 0x37, 0x00, 0x17, 0x37, 0x7f, 0x11, 
	0x37, 0x00, 0x15, 0x37, 0x7f, 0x13, 0x37, 0x00, 0x12, 0x37, 
	0x7f, 0x14, 0x37, 0x00, 0x6d, 0x37, 0x7f, 0x13, 0x37, 0x00, 
	0x14, 0x37, 0x7f, 0x14, 0x37, 0x00, 0x11, 0x37, 0x7f, 0x16, 
	0x37, 0x00, 0x11, 0x3f, 0x7f, 0x14, 0x3f, 0x00, 0x12, 0x3f, 
	0x7f, 0x15, 0x3f, 0x00, 0x13, 0x3f, 0x7f, 0x16, 0x3f, 0x00, 
	0x12, 0x3f, 0x7f, 0x11, 0x3f, 0x00, 0x68, 0x37, 0x7f, 0x14, 
	0x37, 0x00, 0x81, 0x5d, 0x37, 0x7f, 0x0f, 0x37, 0x00, 0x6c, 
	0x37, 0x7f, 0x10, 0x37, 0x00, 0x16, 0x37, 0x7f, 0x18, 0x37, 
	0x00, 0x10, 0x37, 0x7f, 0x13, 0x37, 0x00, 0x14, 0x37, 0x7f, 
	0x17, 0x37, 0x00, 0x64, 0x37, 0x7f, 0x12, 0x37, 0x00, 0x16, 
	0x37, 0x7f, 0x17, 0x37, 0x00, 0x11, 0x37, 0x7f, 0x15, 0x37, 
	0x00, 0x10, 0x3f, 0x7f, 0x14, 0x3f, 0x00, 0x14, 0x3f, 0x7f, 
	0x17, 0x3f, 0x00, 0x0f, 0x3f, 0x7f, 0x15, 0x3f, 0x00, 0x15, 
	0x3f, 0x7f, 0x14, 0x3f, 0x00, 0x65, 0x37, 0x7f, 0x13, 0x37, 
	0x00, 0x81, 0x5a, 0x37, 0x7f, 0x16, 0x37, 0x00, 0x6e, 0x37, 
	0x7f, 0x13, 0x37, 0x00, 0x13, 0x37, 0x7f, 0x16, 0x37, 0x00, 
	0x10, 0x37, 0x7f, 0x18, 0x37, 0x00, 0x09, 0x37, 0x7f, 0x1a, 
	0x37, 0x00, 0x63, 0x37, 0x7f, 0x14, 0x37, 0x00, 0x13, 0x37, 
	0x7f, 0x16, 0x37, 0x00, 0x12, 0x37, 0x7f, 0x15, 0x37, 0x00, 
	0x0e, 0x3f, 0x7f, 0x02, 0x37, 0x7f, 0x17, 0x37, 0x00, 0x01, 
	0x3f, 0x00, 0x0f, 0x37, 0x7f, 0x02, 0x3f, 0x7f, 0x14, 0x37, 
	0x00, 0x02, 0x3f, 0x00, 0x0b, 0x37, 0x7f, 0x06, 0x3f, 0x7f, 
	0x0e, 0x37, 0x00, 0x09, 0x3f, 0x00, 0x0d, 0x37, 0x7f, 0x02, 
	0x3f, 0x7f, 0x12, 0x37, 0x00, 0x09, 0x3f, 0x00, 0x67, 0x37, 
	0x7f, 0x11, 0x37, 0x00, 0x81, 0x5c, 0x37, 0x7f, 0x12, 0x37, 
	0x00, 0x6a, 0x37, 0x7f, 0x13, 0x37, 0x00, 0x0f, 0x37, 0x7f, 
	0x15, 0x37, 0x00, 0x13, 0x37, 0x7f, 0x16, 0x37, 0x00, 0x08, 
	0x37, 0x7f, 0x17, 0x37, 0x00, 0x6e, 0x37, 0x7f, 0x13, 0x37, 
	0x00, 0x14, 0x37, 0x7f, 0x17, 0x37, 0x00, 0x0c, 0x37, 0x7f, 
	0x19, 0x37, 0x00, 0x0a, 0x37, 0x7f, 0x01, 0x3a, 0x7f, 0x17, 
	0x3a, 0x00, 0x00, 0x37, 0x00, 0x13, 0x3a, 0x7f, 0x00, 0x37, 
	0x7f, 0x16, 0x3a, 0x00, 0x01, 0x37, 0x00, 0x08, 0x37, 0x7f, 
	0x06, 0x3a, 0x7f, 0x10, 0x37, 0x00, 0x09, 0x3a, 0x00, 0x0d, 
	0x3a, 0x7f, 0x01, 0x37, 0x7f, 0x14, 0x37, 0x00, 0x06, 0x3a, 
	0x00, 0x65, 0x37, 0x7f, 0x14, 0x37, 0x00, 0x81, 0x5c, 0x37, 
	0x7f, 0x16, 0x37, 0x00, 0x6e, 0x37, 0x7f, 0x12, 0x37, 0x00, 
	0x14, 0x37, 0x7f, 0x17, 0x37, 0x00, 0x13, 0x37, 0x7f, 0x12, 
	0x37, 0x00, 0x0d, 0x37, 0x7f, 0x16, 0x37, 0x00, 0x5f, 0x37, 
	0x7f, 0x13, 0x37, 0x00, 0x14, 0x37, 0x7f, 0x19, 0x37, 0x00, 
	0x0f, 0x37, 0x7f, 0x18, 0x37, 0x00, 0x0f, 0x42, 0x7f, 0x00, 
	0x3a, 0x7f, 0x16, 0x42, 0x00, 0x03, 0x3a, 0x00, 0x0e, 0x42, 
	0x7f, 0x01, 0x3a, 0x7f, 0x18, 0x42, 0x00, 0x01, 0x3a, 0x00, 
	0x0e, 0x42, 0x7f, 0x02, 0x3a, 0x7f, 0x13, 0x42, 0x00, 0x06, 
	0x3a, 0x00, 0x0d, 0x42, 0x7f, 0x01, 0x3a, 0x7f, 0x14, 0x42, 
	0x00, 0x01, 0x3a, 0x00, 0x68, 0x3f, 0x7f, 0x01, 0x3a, 0x7f, 
	0x14, 0x3f, 0x00, 0x15, 0x3a, 0x00, 0x81, 0x40, 0x3f, 0x7f, 
	0x05, 0x3f, 0x00, 0x00, 0x3f, 0x7f, 0x05, 0x3f, 0x00, 0x81, 
	0x00, 0x3f, 0x7f, 0x14, 0x3f, 0x00, 0x0f, 0x3f, 0x7f, 0x19, 
	0x3f, 0x00, 0x0c, 0x3f, 0x7f, 0x0d, 0x3f, 0x00, 0x16, 0x37, 
	0x7f, 0x17, 0x37, 0x00, 0x5d, 0x3a, 0x7f, 0x01, 0x3e, 0x7f, 
	0x13, 0x3e, 0x00, 0x05, 0x3a, 0x00, 0x0e, 0x3e, 0x7f, 0x00, 
	0x3a, 0x7f, 0x1b, 0x3a, 0x00, 0x00, 0x3e, 0x00, 0x0d, 0x3e, 
	0x7f, 0x00, 0x3a, 0x7f, 0x1a, 0x3a, 0x00, 0x00, 0x3e, 0x00, 
	0x0e, 0x3f, 0x7f, 0x00, 0x3b, 0x7f, 0x1a, 0x3b, 0x00, 0x00, 
	0x3f, 0x00, 0x0e, 0x3f, 0x7f, 0x00, 0x3b, 0x7f, 0x19, 0x3b, 
	0x00, 0x00, 0x3f, 0x00, 0x0f, 0x3b, 0x7f, 0x00, 0x3f, 0x7f, 
	0x1b, 0x3f, 0x00, 0x00, 0x3b, 0x00, 0x0d, 0x3d, 0x7f, 0x00, 
	0x41, 0x7f, 0x19, 0x41, 0x00, 0x0f, 0x3d, 0x00, 0x00, 0x41, 
	0x7f, 0x00, 0x3d, 0x7f, 0x1a, 0x3d, 0x00, 0x00, 0x41, 0x00, 
	0x0e, 0x41, 0x7f, 0x00, 0x3d, 0x7f, 0x16, 0x3d, 0x00, 0x00, 
	0x41, 0x00, 0x15, 0x43, 0x7f, 0x13, 0x43, 0x00, 0x81, 0x5a, 
	0x43, 0x7f, 0x16, 0x43, 0x00, 0x6e, 0x43, 0x7f, 0x13, 0x43, 
	0x00, 0x13, 0x43, 0x7f, 0x16, 0x43, 0x00, 0x10, 0x43, 0x7f, 
	0x18, 0x43, 0x00, 0x09, 0x43, 0x7f, 0x1a, 0x43, 0x00, 0x63, 
	0x43, 0x7f, 0x14, 0x43, 0x00, 0x13, 0x43, 0x7f, 0x16, 0x43, 
	0x00, 0x12, 0x43, 0x7f, 0x15, 0x43, 0x00, 0x0e, 0x3f, 0x7f, 
	0x02, 0x43, 0x7f, 0x17, 0x43, 0x00, 0x01, 0x3f, 0x00, 0x0f, 
	0x43, 0x7f, 0x02, 0x3f, 0x7f, 0x14, 0x43, 0x00, 0x02, 0x3f, 
	0x00, 0x0b, 0x43, 0x7f, 0x06, 0x3f, 0x7f, 0x0e, 0x43, 0x00, 
	0x09, 0x3f, 0x00, 0x0d, 0x43, 0x7f, 0x02, 0x3f, 0x7f, 0x12, 
	0x43, 0x00, 0x09, 0x3f, 0x00, 0x62, 0x40, 0x7f, 0x00, 0x44, 
	0x7f, 0x11, 0x44, 0x00, 0x00, 0x40, 0x00, 0x81, 0x61, 0x44, 
	0x7f, 0x00, 0x40, 0x7f, 0x12, 0x40, 0x00, 0x00, 0x44, 0x00, 
	0x6c, 0x44, 0x7f, 0x00, 0x40, 0x7f, 0x13, 0x40, 0x00, 0x00, 
	0x44, 0x00, 0x0f, 0x44, 0x7f, 0x00, 0x40, 0x7f, 0x15, 0x40, 
	0x00, 0x00, 0x44, 0x00, 0x13, 0x44, 0x7f, 0x00, 0x40, 0x7f, 
	0x17, 0x40, 0x00, 0x00, 0x44, 0x00, 0x07, 0x44, 0x7f, 0x00, 
	0x40, 0x7f, 0x18, 0x40, 0x00, 0x00, 0x44, 0x00, 0x6e, 0x44, 
	0x7f, 0x00, 0x40, 0x7f, 0x13, 0x40, 0x00, 0x00, 0x44, 0x00, 
	0x14, 0x44, 0x7f, 0x00, 0x40, 0x7f, 0x16, 0x40, 0x00, 0x00, 
	0x44, 0x00, 0x0d, 0x44, 0x7f, 0x00, 0x40, 0x7f, 0x19, 0x40, 
	0x00, 0x00, 0x44, 0x00, 0x0a, 0x40, 0x7f, 0x00, 0x44, 0x7f, 
	0x17, 0x44, 0x00, 0x00, 0x40, 0x00, 0x13, 0x44, 0x7f, 0x00, 
	0x40, 0x7f, 0x18, 0x40, 0x00, 0x00, 0x44, 0x00, 0x07, 0x44, 
	0x7f, 0x00, 0x40, 0x7f, 0x17, 0x40, 0x00, 0x00, 0x44, 0x00, 
	0x16, 0x44, 0x7f, 0x00, 0x40, 0x7f, 0x14, 0x40, 0x00, 0x00, 
	0x44, 0x00, 0x6c, 0x42, 0x7f, 0x00, 0x3f, 0x7f, 0x16, 0x3f, 
	0x00, 0x00, 0x42, 0x00, 0x81, 0x4f, 0x42, 0x7f, 0x00, 0x3f, 
	0x7f, 0x16, 0x3f, 0x00, 0x00, 0x42, 0x00, 0x68, 0x42, 0x7f, 
	0x00, 0x3f, 0x7f, 0x16, 0x3f, 0x00, 0x00, 0x42, 0x00, 0x12, 
	0x42, 0x7f, 0x00, 0x3f, 0x7f, 0x16, 0x3f, 0x00, 0x00, 0x42, 
	0x00, 0x12, 0x42, 0x7f, 0x00, 0x3f, 0x7f, 0x18, 0x3f, 0x00, 
	0x00, 0x42, 0x00, 0x0f, 0x42, 0x7f, 0x00, 0x3f, 0x7f, 0x16, 
	0x3f, 0x00, 0x00, 0x42, 0x00, 0x81, 0x5a, 0x42, 0x7f, 0x00, 
	0x3f, 0x7f, 0x16, 0x3f, 0x00, 0x00, 0x42, 0x00, 0x12, 0x42, 
	0x7f, 0x00, 0x3f, 0x7f, 0x1a, 0x3f, 0x00, 0x00, 0x42, 0x00, 
	0x0b, 0x42, 0x7f, 0x00, 0x3f, 0x7f, 0x17, 0x3f, 0x00, 0x00, 
	0x42, 0x00, 0x14, 0x42, 0x7f, 0x00, 0x3f, 0x7f, 0x17, 0x3f, 
	0x00, 0x00, 0x42, 0x00, 0x63, 0x43, 0x7f, 0x18, 0x43, 0x00, 
	0x81, 0x56, 0x43, 0x7f, 0x00, 0x3f, 0x7f, 0x16, 0x3f, 0x00, 
	0x00, 0x43, 0x00, 0x12, 0x43, 0x7f, 0x00, 0x3f, 0x7f, 0x1a, 
	0x3f, 0x00, 0x00, 0x43, 0x00, 0x0b, 0x43, 0x7f, 0x00, 0x3f, 
	0x7f, 0x17, 0x3f, 0x00, 0x00, 0x43, 0x00, 0x14, 0x43, 0x7f, 
	0x00, 0x3f, 0x7f, 0x17, 0x3f, 0x00, 0x00, 0x43, 0x00, 0x67, 
	0x43, 0x7f, 0x15, 0x43, 0x00, 0x5f, 0x43, 0x7f, 0x17, 0x43, 
	0x00, 0x12, 0x43, 0x7f, 0x17, 0x43, 0x00, 0x10, 0x43, 0x7f, 
	0x15, 0x43, 0x00, 0x13, 0x43, 0x7f, 0x14, 0x43, 0x00, 0x13, 
	0x43, 0x7f, 0x1a, 0x43, 0x00, 0x0e, 0x43, 0x7f, 0x16, 0x43, 
	0x00, 0x13, 0x43, 0x7f, 0x14, 0x43, 0x00, 0x13, 0x43, 0x7f, 
	0x1a, 0x43, 0x00, 0x0e, 0x43, 0x7f, 0x16, 0x43, 0x00, 0x14, 
	0x43, 0x7f, 0x13, 0x43, 0x00, 0x81, 0x5a, 0x43, 0x7f, 0x16, 
	0x43, 0x00, 0x6e, 0x43, 0x7f, 0x13, 0x43, 0x00, 0x13, 0x43, 
	0x7f, 0x16, 0x43, 0x00, 0x10, 0x43, 0x7f, 0x18, 0x43, 0x00, 
	0x09, 0x43, 0x7f, 0x1a, 0x43, 0x00, 0x63, 0x43, 0x7f, 0x14, 
	0x43, 0x00, 0x13, 0x43, 0x7f, 0x16, 0x43, 0x00, 0x12, 0x43, 
	0x7f, 0x15, 0x43, 0x00, 0x0e, 0x3f, 0x7f, 0x02, 0x43, 0x7f, 
	0x17, 0x43, 0x00, 0x01, 0x3f, 0x00, 0x0f, 0x43, 0x7f, 0x02, 
	0x3f, 0x7f, 0x14, 0x43, 0x00, 0x02, 0x3f, 0x00, 0x0b, 0x43, 
	0x7f, 0x06, 0x3f, 0x7f, 0x0e, 0x43, 0x00, 0x09, 0x3f, 0x00, 
	0x0d, 0x43, 0x7f, 0x02, 0x3f, 0x7f, 0x12, 0x43, 0x00, 0x09, 
	0x3f, 0x00, 0x62, 0x40, 0x7f, 0x00, 0x44, 0x7f, 0x11, 0x44, 
	0x00, 0x00, 0x40, 0x00, 0x81, 0x61, 0x44, 0x7f, 0x00, 0x40, 
	0x7f, 0x12, 0x40, 0x00, 0x00, 0x44, 0x00, 0x66, 0x40, 0x7f, 
	0x06, 0x44, 0x7f, 0x0c, 0x40, 0x00, 0x07, 0x44, 0x00, 0x0d, 
	0x40, 0x7f, 0x02, 0x44, 0x7f, 0x12, 0x40, 0x00, 0x03, 0x44, 
	0x00, 0x0f, 0x40, 0x7f, 0x04, 0x44, 0x7f, 0x13, 0x40, 0x00, 
	0x04, 0x44, 0x00, 0x07, 0x44, 0x7f, 0x03, 0x40, 0x7f, 0x15, 
	0x44, 0x00, 0x02, 0x40, 0x00, 0x67, 0x40, 0x7f, 0x05, 0x44, 
	0x7f, 0x0e, 0x40, 0x00, 0x05, 0x44, 0x00, 0x10, 0x40, 0x7f, 
	0x04, 0x44, 0x7f, 0x11, 0x40, 0x00, 0x05, 0x44, 0x00, 0x0b, 
	0x40, 0x7f, 0x02, 0x44, 0x7f, 0x16, 0x40, 0x00, 0x03, 0x44, 
	0x00, 0x0a, 0x40, 0x7f, 0x00, 0x44, 0x7f, 0x17, 0x44, 0x00, 
	0x00, 0x40, 0x00, 0x13, 0x44, 0x7f, 0x00, 0x40, 0x7f, 0x18, 
	0x40, 0x00, 0x00, 0x44, 0x00, 0x07, 0x44, 0x7f, 0x04, 0x40, 
	0x7f, 0x13, 0x44, 0x00, 0x04, 0x40, 0x00, 0x12, 0x44, 0x7f, 
	0x02, 0x40, 0x7f, 0x12, 0x44, 0x00, 0x02, 0x40, 0x00, 0x6a, 
	0x42, 0x7f, 0x00, 0x3f, 0x7f, 0x16, 0x3f, 0x00, 0x00, 0x42, 
	0x00, 0x81, 0x4f, 0x42, 0x7f, 0x00, 0x3f, 0x7f, 0x16, 0x3f, 
	0x00, 0x00, 0x42, 0x00, 0x68, 0x42, 0x7f, 0x00, 0x3f, 0x7f, 
	0x16, 0x3f, 0x00, 0x00, 0x42, 0x00, 0x12, 0x42, 0x7f, 0x00, 
	0x3f, 0x7f, 0x16, 0x3f, 0x00, 0x00, 0x42, 0x00, 0x12, 0x42, 
	0x7f, 0x00, 0x3f, 0x7f, 0x18, 0x3f, 0x00, 0x00, 0x42, 0x00, 
	0x0f, 0x42, 0x7f, 0x00, 0x3f, 0x7f, 0x16, 0x3f, 0x00, 0x00, 
	0x42, 0x00, 0x81, 0x5a, 0x42, 0x7f, 0x00, 0x3f, 0x7f, 0x16, 
	0x3f, 0x00, 0x00, 0x42, 0x00, 0x12, 0x42, 0x7f, 0x00, 0x3f, 
	0x7f, 0x1a, 0x3f, 0x00, 0x00, 0x42, 0x00, 0x0b, 0x42, 0x7f, 
	0x00, 0x3f, 0x7f, 0x17, 0x3f, 0x00, 0x00, 0x42, 0x00, 0x14, 
	0x42, 0x7f, 0x00, 0x3f, 0x7f, 0x17, 0x3f, 0x00, 0x00, 0x42, 
	0x00, 0x63, 0x43, 0x7f, 0x18, 0x43, 0x00, 0x81, 0x56, 0x42, 
	0x7f, 0x00, 0x3f, 0x7f, 0x16, 0x3f, 0x00, 0x00, 0x42, 0x00, 
	0x12, 0x42, 0x7f, 0x00, 0x3f, 0x7f, 0x1a, 0x3f, 0x00, 0x00, 
	0x42, 0x00, 0x0b, 0x42, 0x7f, 0x00, 0x3f, 0x7f, 0x17, 0x3f, 
	0x00, 0x00, 0x42, 0x00, 0x14, 0x42, 0x7f, 0x00, 0x3f, 0x7f, 
	0x17, 0x3f, 0x00, 0x00, 0x42, 0x00, 0x67, 0x43, 0x7f, 0x15, 
	0x43, 0x00, 0x5f, 0x43, 0x7f, 0x17, 0x43, 0x00, 0x11, 0x43, 
	0x7f, 0x17, 0x43, 0x00, 0x11, 0x43, 0x7f, 0x15, 0x43, 0x00, 
	0x13, 0x43, 0x7f, 0x14, 0x43, 0x00, 0x13, 0x43, 0x7f, 0x1a, 
	0x43, 0x00, 0x0e, 0x43, 0x7f, 0x16, 0x43, 0x00, 0x13, 0x43, 
	0x7f, 0x1a, 0x43, 0x00, 0x81, 0x55, 0x3a, 0x7f, 0x01, 0x3e, 
	0x7f, 0x13, 0x3e, 0x00, 0x05, 0x3a, 0x00, 0x0e, 0x3e, 0x7f, 
	0x00, 0x3a, 0x7f, 0x1b, 0x3a, 0x00, 0x00, 0x3e, 0x00, 0x0d, 
	0x3e, 0x7f, 0x00, 0x3a, 0x7f, 0x1a, 0x3a, 0x00, 0x00, 0x3e, 
	0x00, 0x0e, 0x3f, 0x7f, 0x00, 0x3b, 0x7f, 0x1a, 0x3b, 0x00, 
	0x00, 0x3f, 0x00, 0x0e, 0x3f, 0x7f, 0x00, 0x3b, 0x7f, 0x19, 
	0x3b, 0x00, 0x00, 0x3f, 0x00, 0x0d, 0x3f, 0x7f, 0x02, 0x3b, 
	0x7f, 0x1a, 0x3f, 0x00, 0x01, 0x3b, 0x00, 0x0d, 0x41, 0x7f, 
	0x00, 0x3d, 0x7f, 0x17, 0x41, 0x00, 0x02, 0x3d, 0x00, 0x0c, 
	0x41, 0x7f, 0x03, 0x3d, 0x7f, 0x17, 0x41, 0x00, 0x03, 0x3d, 
	0x00, 0x0b, 0x41, 0x7f, 0x03, 0x3d, 0x7f, 0x14, 0x41, 0x00, 
	0x02, 0x3d, 0x00, 0x8f, 0x0d, 0x3e, 0x7f, 0x4d, 0x3e, 0x00, 
	0x83, 0x1e, 0x3e, 0x7f, 0x4a, 0x3e, 0x00, 0x83, 0x18, 0x3e, 
	0x7f, 0x3e, 0x3e, 0x00, 0x86, 0x7c, 0x47, 0x4d, 0x03, 0x44, 
	0x58, 0x23, 0x48, 0x4d, 0x05, 0x47, 0x00, 0x03, 0x43, 0x3f, 
	0x02, 0x44, 0x00, 0x1c, 0x4a, 0x45, 0x08, 0x48, 0x00, 0x02, 
	0x40, 0x4d, 0x0a, 0x43, 0x00, 0x18, 0x4d, 0x3b, 0x04, 0x40, 
	0x00, 0x01, 0x3c, 0x58, 0x01, 0x4a, 0x00, 0x1c, 0x4d, 0x00, 
	0x05, 0x4c, 0x3b, 0x01, 0x3c, 0x00, 0x05, 0x3b, 0x4a, 0x1e, 
	0x3b, 0x00, 0x00, 0x3c, 0x3f, 0x01, 0x4c, 0x00, 0x00, 0x4d, 
	0x3f, 0x2a, 0x40, 0x4d, 0x00, 0x48, 0x4d, 0x01, 0x3c, 0x00, 
	0x04, 0x4d, 0x00, 0x20, 0x48, 0x00, 0x00, 0x3f, 0x45, 0x01, 
	0x40, 0x00, 0x00, 0x47, 0x4a, 0x20, 0x40, 0x45, 0x01, 0x3f, 
	0x00, 0x07, 0x48, 0x4d, 0x0a, 0x47, 0x00, 0x1b, 0x40, 0x00, 
	0x01, 0x44, 0x58, 0x04, 0x4c, 0x3b, 0x07, 0x48, 0x00, 0x15, 
	0x4c, 0x00, 0x04, 0x43, 0x45, 0x04, 0x44, 0x00, 0x02, 0x4b, 
	0x37, 0x20, 0x44, 0x58, 0x05, 0x43, 0x00, 0x03, 0x4c, 0x4a, 
	0x02, 0x4b, 0x00, 0x1b, 0x44, 0x00, 0x05, 0x4c, 0x00, 0x0a, 
	0x45, 0x63, 0x01, 0x4d, 0x4d, 0x23, 0x45, 0x00, 0x02, 0x4c, 
	0x4d, 0x00, 0x44, 0x45, 0x03, 0x4d, 0x00, 0x22, 0x4d, 0x4a, 
	0x01, 0x45, 0x4a, 0x03, 0x4c, 0x00, 0x05, 0x44, 0x00, 0x24, 
	0x4d, 0x00, 0x01, 0x50, 0x4a, 0x00, 0x47, 0x4d, 0x07, 0x45, 
	0x00, 0x1b, 0x45, 0x45, 0x01, 0x47, 0x00, 0x03, 0x4f, 0x4a, 
	0x04, 0x50, 0x00, 0x1e, 0x47, 0x4d, 0x05, 0x50, 0x45, 0x02, 
	0x4f, 0x00, 0x03, 0x45, 0x00, 0x1e, 0x47, 0x00, 0x03, 0x50, 
	0x00, 0x00, 0x53, 0x58, 0x07, 0x3b, 0x63, 0x21, 0x52, 0x45, 
	0x02, 0x53, 0x00, 0x02, 0x3c, 0x4d, 0x0a, 0x3b, 0x00, 0x17, 
	0x53, 0x58, 0x06, 0x40, 0x4a, 0x01, 0x3c, 0x00, 0x00, 0x52, 
	0x00, 0x1c, 0x53, 0x00, 0x03, 0x40, 0x00, 0x05, 0x41, 0x4a, 
	0x03, 0x47, 0x63, 0x24, 0x48, 0x4d, 0x00, 0x44, 0x4d, 0x08, 
	0x41, 0x00, 0x01, 0x47, 0x00, 0x1d, 0x47, 0x4d, 0x01, 0x44, 
	0x00, 0x00, 0x4c, 0x4a, 0x01, 0x48, 0x00, 0x26, 0x47, 0x00, 
	0x02, 0x4c, 0x00, 0x83, 0x5e, 0x39, 0x6c, 0x03, 0x41, 0x77, 
	0x3e, 0x39, 0x00, 0x02, 0x41, 0x00, 0x83, 0x24, 0x39, 0x77, 
	0x03, 0x41, 0x77, 0x3c, 0x39, 0x00, 0x0f, 0x41, 0x00, 0x83, 
	0x0b, 0x39, 0x7f, 0x02, 0x41, 0x7f, 0x3f, 0x39, 0x00, 0x06, 
	0x41, 0x00, 0x8a, 0x5f, 0x44, 0x37, 0x25, 0x48, 0x3d, 0x05, 
	0x44, 0x00, 0x21, 0x48, 0x00, 0x02, 0x49, 0x37, 0x28, 0x49, 
	0x00, 0x02, 0x4d, 0x37, 0x29, 0x49, 0x37, 0x0c, 0x4d, 0x00, 
	0x19, 0x48, 0x37, 0x02, 0x49, 0x00, 0x29, 0x48, 0x00, 0x00, 
	0x44, 0x37, 0x25, 0x44, 0x00, 0x02, 0x48, 0x3d, 0x23, 0x49, 
	0x37, 0x0a, 0x48, 0x00, 0x23, 0x4d, 0x37, 0x01, 0x49, 0x00, 
	0x23, 0x49, 0x37, 0x07, 0x4d, 0x00, 0x20, 0x48, 0x37, 0x03, 
	0x49, 0x00, 0x23, 0x48, 0x00, 0x04, 0x44, 0x3f, 0x1e, 0x5c, 
	0x40, 0x08, 0x48, 0x3d, 0x01, 0x44, 0x00, 0x27, 0x49, 0x37, 
	0x03, 0x48, 0x00, 0x26, 0x4d, 0x37, 0x02, 0x49, 0x00, 0x25, 
	0x49, 0x37, 0x02, 0x4d, 0x00, 0x23, 0x49, 0x00, 0x05, 0x48, 
	0x37, 0x2c, 0x44, 0x37, 0x05, 0x48, 0x00, 0x1f, 0x48, 0x37, 
	0x06, 0x44, 0x00, 0x20, 0x49, 0x37, 0x0c, 0x48, 0x00, 0x1a, 
	0x49, 0x00, 0x03, 0x4d, 0x37, 0x27, 0x49, 0x37, 0x0d, 0x4d, 
	0x00, 0x1b, 0x48, 0x37, 0x08, 0x49, 0x00, 0x21, 0x48, 0x00, 
	0x05, 0x44, 0x37, 0x0a, 0x59, 0x40, 0x1b, 0x45, 0x3d, 0x05, 
	0x44, 0x00, 0x0a, 0x5c, 0x00, 0x17, 0x45, 0x00, 0x02, 0x49, 
	0x37, 0x28, 0x49, 0x00, 0x02, 0x4d, 0x37, 0x29, 0x49, 0x37, 
	0x0c, 0x4d, 0x00, 0x19, 0x45, 0x37, 0x02, 0x49, 0x00, 0x29, 
	0x45, 0x00, 0x00, 0x44, 0x37, 0x25, 0x44, 0x00, 0x02, 0x45, 
	0x3d, 0x23, 0x49, 0x37, 0x0a, 0x45, 0x00, 0x23, 0x4d, 0x37, 
	0x01, 0x49, 0x00, 0x23, 0x49, 0x37, 0x07, 0x4d, 0x00, 0x20, 
	0x45, 0x37, 0x03, 0x49, 0x00, 0x1b, 0x5b, 0x40, 0x05, 0x59, 
	0x00, 0x03, 0x45, 0x00, 0x04, 0x44, 0x3f, 0x26, 0x45, 0x3d, 
	0x01, 0x44, 0x00, 0x27, 0x49, 0x37, 0x03, 0x45, 0x00, 0x26, 
	0x4d, 0x37, 0x02, 0x49, 0x00, 0x25, 0x49, 0x37, 0x02, 0x4d, 
	0x00, 0x23, 0x49, 0x00, 0x05, 0x45, 0x37, 0x2c, 0x44, 0x37, 
	0x05, 0x45, 0x00, 0x1f, 0x45, 0x37, 0x06, 0x44, 0x00, 0x20, 
	0x49, 0x37, 0x0c, 0x45, 0x00, 0x1a, 0x49, 0x00, 0x03, 0x4d, 
	0x37, 0x27, 0x49, 0x37, 0x0d, 0x4d, 0x00, 0x1b, 0x45, 0x37, 
	0x08, 0x49, 0x00, 0x07, 0x5b, 0x00, 0x1a, 0x45, 0x00, 0x02, 
	0x4d, 0x37, 0x28, 0x49, 0x37, 0x11, 0x4d, 0x00, 0x16, 0x45, 
	0x37, 0x04, 0x49, 0x00, 0x1f, 0x45, 0x00, 0x08, 0x49, 0x37, 
	0x29, 0x45, 0x3d, 0x0f, 0x49, 0x00, 0x18, 0x41, 0x37, 0x01, 
	0x45, 0x00, 0x2a, 0x49, 0x37, 0x08, 0x41, 0x00, 0x20, 0x45, 
	0x37, 0x12, 0x49, 0x00, 0x14, 0x45, 0x00, 0x01, 0x41, 0x37, 
	0x2d, 0x45, 0x44, 0x01, 0x41, 0x00, 0x35, 0x41, 0x37, 0x01, 
	0x45, 0x00, 0x37, 0x41, 0x00, 0x01, 0x49, 0x37, 0x39, 0x49, 
	0x00, 0x64, 0x47, 0x37, 0x81, 0x1b, 0x47, 0x00, 0x19, 0x40, 
	0x37, 0x81, 0x18, 0x48, 0x4a, 0x17, 0x40, 0x00, 0x81, 0x03, 
	0x48, 0x00, 0x04, 0x47, 0x37, 0x81, 0x31, 0x47, 0x00, 0x09, 
	0x40, 0x37, 0x81, 0x01, 0x48, 0x45, 0x38, 0x40, 0x00, 0x59, 
	0x48, 0x00, 0x0c, 0x47, 0x3b, 0x7e, 0x3c, 0x37, 0x2c, 0x47, 
	0x00, 0x0b, 0x40, 0x37, 0x81, 0x0b, 0x48, 0x4d, 0x04, 0x40, 
	0x00, 0x23, 0x3c, 0x00, 0x43, 0x47, 0x3b, 0x3e, 0x48, 0x00, 
	0x43, 0x47, 0x00, 0x00, 0x45, 0x3f, 0x31, 0x3c, 0x38, 0x45, 
	0x40, 0x3f, 0x1b, 0x45, 0x00, 0x65, 0x48, 0x45, 0x19, 0x40, 
	0x00, 0x08, 0x3c, 0x00, 0x5e, 0x47, 0x37, 0x2e, 0x48, 0x00, 
	0x43, 0x3c, 0x3f, 0x02, 0x45, 0x37, 0x02, 0x47, 0x00, 0x7c, 
	0x40, 0x3f, 0x1e, 0x45, 0x00, 0x5b, 0x48, 0x4a, 0x0d, 0x3c, 
	0x00, 0x0b, 0x40, 0x00, 0x5e, 0x47, 0x3b, 0x23, 0x48, 0x00, 
	0x49, 0x47, 0x00, 0x02, 0x45, 0x3f, 0x0f, 0x3c, 0x45, 0x6b, 
	0x40, 0x45, 0x24, 0x45, 0x00, 0x58, 0x48, 0x4d, 0x13, 0x3c, 
	0x00, 0x10, 0x40, 0x00, 0x50, 0x47, 0x37, 0x2e, 0x48, 0x00, 
	0x41, 0x47, 0x00, 0x06, 0x45, 0x37, 0x0e, 0x3c, 0x3f, 0x68, 
	0x40, 0x4a, 0x24, 0x45, 0x00, 0x58, 0x48, 0x4d, 0x10, 0x40, 
	0x00, 0x02, 0x3c, 0x00, 0x68, 0x47, 0x3b, 0x1f, 0x48, 0x00, 
	0x52, 0x45, 0x37, 0x0d, 0x3c, 0x37, 0x03, 0x47, 0x00, 0x6e, 
	0x40, 0x3f, 0x2c, 0x45, 0x00, 0x4c, 0x48, 0x4d, 0x14, 0x3c, 
	0x00, 0x09, 0x40, 0x00, 0x5c, 0x47, 0x3b, 0x19, 0x48, 0x00, 
	0x59, 0x45, 0x3f, 0x04, 0x47, 0x00, 0x06, 0x3c, 0x37, 0x72, 
	0x40, 0x3f, 0x23, 0x45, 0x00, 0x56, 0x48, 0x45, 0x0c, 0x40, 
	0x00, 0x0c, 0x3c, 0x00, 0x60, 0x47, 0x37, 0x1f, 0x48, 0x00, 
	0x41, 0x3c, 0x37, 0x13, 0x45, 0x37, 0x09, 0x47, 0x00, 0x70, 
	0x40, 0x3b, 0x1c, 0x45, 0x00, 0x5f, 0x48, 0x45, 0x12, 0x3c, 
	0x00, 0x02, 0x40, 0x00, 0x66, 0x47, 0x3b, 0x22, 0x48, 0x00, 
	0x48, 0x3c, 0x37, 0x0d, 0x45, 0x37, 0x05, 0x47, 0x00, 0x75, 
	0x40, 0x3b, 0x20, 0x45, 0x00, 0x4d, 0x3c, 0x00, 0x0b, 0x48, 
	0x4a, 0x11, 0x40, 0x00, 0x65, 0x47, 0x3f, 0x22, 0x48, 0x00, 
	0x49, 0x3c, 0x3f, 0x08, 0x45, 0x3b, 0x02, 0x47, 0x00, 0x75, 
	0x40, 0x3f, 0x23, 0x45, 0x00, 0x5a, 0x48, 0x45, 0x14, 0x40, 
	0x00, 0x64, 0x47, 0x3b, 0x34, 0x48, 0x00, 0x36, 0x3e, 0x55, 
	0x0b, 0x47, 0x00, 0x00, 0x3c, 0x00, 0x00, 0x45, 0x37, 0x78, 
	0x40, 0x37, 0x1e, 0x45, 0x00, 0x5f, 0x48, 0x4a, 0x03, 0x40, 
	0x00, 0x00, 0x40, 0x3d, 0x03, 0x40, 0x00, 0x08, 0x3e, 0x00, 
	0x68, 0x47, 0x3b, 0x0d, 0x48, 0x00, 0x66, 0x45, 0x37, 0x0b, 
	0x34, 0x4d, 0x0a, 0x47, 0x00, 0x63, 0x40, 0x4a, 0x28, 0x45, 
	0x00, 0x52, 0x48, 0x45, 0x19, 0x40, 0x00, 0x60, 0x47, 0x3f, 
	0x1e, 0x48, 0x00, 0x57, 0x45, 0x37, 0x01, 0x47, 0x00, 0x0c, 
	0x34, 0x00, 0x00, 0x37, 0x4d, 0x66, 0x40, 0x45, 0x1b, 0x45, 
	0x00, 0x69, 0x4a, 0x45, 0x08, 0x37, 0x00, 0x10, 0x40, 0x00, 
	0x5b, 0x46, 0x3b, 0x23, 0x4a, 0x00, 0x54, 0x45, 0x37, 0x28, 
	0x46, 0x00, 0x55, 0x42, 0x37, 0x1f, 0x45, 0x00, 0x54, 0x42, 
	0x00, 0x05, 0x4a, 0x4a, 0x79, 0x46, 0x3f, 0x0f, 0x4a, 0x00, 
	0x69, 0x45, 0x3f, 0x04, 0x46, 0x00, 0x70, 0x42, 0x37, 0x11, 
	0x45, 0x00, 0x6b, 0x4a, 0x45, 0x03, 0x42, 0x00, 0x75, 0x46, 
	0x37, 0x19, 0x4a, 0x00, 0x5e, 0x45, 0x45, 0x19, 0x46, 0x00, 
	0x5e, 0x42, 0x3b, 0x02, 0x45, 0x00, 0x77, 0x4a, 0x3f, 0x15, 
	0x42, 0x00, 0x63, 0x46, 0x37, 0x24, 0x4a, 0x00, 0x54, 0x45, 
	0x3b, 0x2d, 0x46, 0x00, 0x4a, 0x42, 0x3b, 0x0a, 0x45, 0x00, 
	0x70, 0x4a, 0x37, 0x3a, 0x42, 0x00, 0x3e, 0x46, 0x37, 0x1f, 
	0x4a, 0x00, 0x5a, 0x45, 0x37, 0x21, 0x46, 0x00, 0x55, 0x42, 
	0x3f, 0x06, 0x45, 0x00, 0x72, 0x4a, 0x45, 0x1b, 0x42, 0x00, 
	0x5d, 0x46, 0x3b, 0x2c, 0x4a, 0x00, 0x47, 0x46, 0x00, 0x07, 
	0x45, 0x37, 0x77, 0x42, 0x3b, 0x0d, 0x45, 0x00, 0x55, 0x42, 
	0x00, 0x1a, 0x4a, 0x37, 0x7c, 0x46, 0x37, 0x15, 0x4a, 0x00, 
	0x63, 0x45, 0x45, 0x34, 0x46, 0x00, 0x44, 0x3e, 0x3b, 0x1f, 
	0x45, 0x00, 0x59, 0x4a, 0x3b, 0x24, 0x3e, 0x00, 0x54, 0x46, 
	0x3f, 0x29, 0x4a, 0x00, 0x4f, 0x45, 0x3f, 0x1a, 0x46, 0x00, 
	0x56, 0x45, 0x00, 0x00, 0x3e, 0x3b, 0x79, 0x4a, 0x4a, 0x1e, 
	0x3e, 0x00, 0x5e, 0x46, 0x3f, 0x1e, 0x4a, 0x00, 0x55, 0x45, 
	0x3f, 0x0e, 0x46, 0x00, 0x68, 0x3e, 0x37, 0x2f, 0x45, 0x00, 
	0x4a, 0x4a, 0x3f, 0x20, 0x3e, 0x00, 0x54, 0x46, 0x37, 0x3b, 
	0x4a, 0x00, 0x40, 0x45, 0x3b, 0x1f, 0x46, 0x00, 0x5b, 0x3e, 
	0x37, 0x12, 0x45, 0x00, 0x42, 0x3e, 0x00, 0x24, 0x4d, 0x3b, 
	0x17, 0x39, 0x37, 0x60, 0x46, 0x3f, 0x0e, 0x4d, 0x00, 0x67, 
	0x46, 0x00, 0x0e, 0x42, 0x37, 0x44, 0x39, 0x00, 0x16, 0x42, 
	0x00, 0x06, 0x41, 0x3b, 0x81, 0x04, 0x4d, 0x3f, 0x0b, 0x41, 
	0x00, 0x01, 0x39, 0x45, 0x6c, 0x46, 0x3f, 0x0d, 0x4d, 0x00, 
	0x63, 0x42, 0x37, 0x06, 0x46, 0x00, 0x3b, 0x39, 0x00, 0x30, 
	0x41, 0x45, 0x08, 0x42, 0x00, 0x76, 0x4d, 0x4d, 0x0b, 0x41, 
	0x00, 0x0a, 0x39, 0x3f, 0x5e, 0x46, 0x45, 0x1b, 0x4d, 0x00, 
	0x58, 0x42, 0x4d, 0x10, 0x46, 0x00, 0x36, 0x39, 0x00, 0x2a, 
	0x41, 0x6f, 0x03, 0x42, 0x00, 0x81, 0x01, 0x4d, 0x58, 0x05, 
	0x41, 0x00, 0x1a, 0x39, 0x4d, 0x56, 0x46, 0x4a, 0x24, 0x4d, 
	0x00, 0x58, 0x42, 0x4a, 0x0b, 0x46, 0x00, 0x31, 0x39, 0x00, 
	0x47, 0x41, 0x4d, 0x09, 0x42, 0x00, 0x50, 0x41, 0x00, 0x20, 
	0x4a, 0x4a, 0x16, 0x39, 0x51, 0x5a, 0x46, 0x45, 0x11, 0x4a, 
	0x00, 0x6e, 0x45, 0x45, 0x23, 0x46, 0x00, 0x1d, 0x39, 0x00, 
	0x38, 0x3e, 0x45, 0x19, 0x45, 0x00, 0x6d, 0x4a, 0x45, 0x05, 
	0x39, 0x4a, 0x09, 0x3e, 0x00, 0x65, 0x46, 0x3f, 0x1b, 0x4a, 
	0x00, 0x50, 0x45, 0x4a, 0x21, 0x46, 0x00, 0x0b, 0x39, 0x00, 
	0x4c, 0x3e, 0x45, 0x1e, 0x45, 0x00, 0x61, 0x4a, 0x4d, 0x0d, 
	0x39, 0x4d, 0x09, 0x3e, 0x00, 0x55, 0x46, 0x4a, 0x21, 0x4a, 
	0x00, 0x4c, 0x45, 0x3f, 0x1e, 0x46, 0x00, 0x13, 0x39, 0x00, 
	0x50, 0x3e, 0x37, 0x1e, 0x45, 0x00, 0x5b, 0x4a, 0x4d, 0x18, 
	0x3e, 0x00, 0x05, 0x39, 0x60, 0x58, 0x46, 0x45, 0x27, 0x4a, 
	0x00, 0x4a, 0x45, 0x3f, 0x1b, 0x46, 0x00, 0x2d, 0x39, 0x00, 
	0x34, 0x3e, 0x45, 0x10, 0x45, 0x00, 0x5a, 0x3e, 0x00, 0x22, 
	0x47, 0x4d, 0x0a, 0x39, 0x3f, 0x69, 0x43, 0x3f, 0x16, 0x47, 
	0x00, 0x63, 0x42, 0x4a, 0x10, 0x43, 0x00, 0x35, 0x39, 0x00, 
	0x37, 0x3b, 0x45, 0x15, 0x42, 0x00, 0x60, 0x47, 0x4d, 0x05, 
	0x3b, 0x00, 0x01, 0x39, 0x44, 0x68, 0x43, 0x4a, 0x10, 0x47, 
	0x00, 0x63, 0x42, 0x37, 0x10, 0x43, 0x00, 0x3e, 0x39, 0x00, 
	0x2a, 0x3b, 0x4a, 0x21, 0x42, 0x00, 0x5b, 0x3b, 0x00, 0x02, 
	0x47, 0x58, 0x07, 0x39, 0x37, 0x42, 0x3e, 0x36, 0x37, 0x3e, 
	0x00, 0x05, 0x3d, 0x49, 0x37, 0x3d, 0x00, 0x05, 0x3a, 0x49, 
	0x0e, 0x47, 0x00, 0x29, 0x3a, 0x00, 0x05, 0x39, 0x00, 0x00, 
	0x39, 0x5b, 0x1e, 0x39, 0x00, 0x1e, 0x3a, 0x49, 0x37, 0x3a, 
	0x00, 0x05, 0x3d, 0x49, 0x37, 0x3d, 0x00, 0x05, 0x3e, 0x4a, 
	0x37, 0x3e, 0x00, 0x05, 0x39, 0x5c, 0x06, 0x39, 0x00, 0x36, 
	0x3a, 0x4a, 0x37, 0x3a, 0x00, 0x05, 0x3d, 0x4a, 0x37, 0x3d, 
	0x00, 0x05, 0x3e, 0x4a, 0x37, 0x3e, 0x00, 0x41, 0x3e, 0x36, 
	0x37, 0x3e, 0x00, 0x05, 0x3d, 0x4b, 0x37, 0x3d, 0x00, 0x05, 
	0x3a, 0x4b, 0x37, 0x3a, 0x00, 0x05, 0x39, 0x5d, 0x37, 0x39, 
	0x00, 0x05, 0x3a, 0x4b, 0x37, 0x3a, 0x00, 0x05, 0x3d, 0x4b, 
	0x37, 0x3d, 0x00, 0x05, 0x3e, 0x4b, 0x37, 0x3e, 0x00, 0x05, 
	0x40, 0x5e, 0x37, 0x40, 0x00, 0x05, 0x42, 0x4c, 0x37, 0x42, 
	0x00, 0x05, 0x43, 0x4c, 0x37, 0x43, 0x00, 0x05, 0x45, 0x4c, 
	0x37, 0x45, 0x00, 0x81, 0x39, 0x3e, 0x39, 0x37, 0x3e, 0x00, 
	0x05, 0x3e, 0x60, 0x37, 0x3e, 0x00, 0x05, 0x40, 0x4d, 0x37, 
	0x40, 0x00, 0x05, 0x42, 0x4d, 0x37, 0x42, 0x00, 0x05, 0x43, 
	0x39, 0x37, 0x43, 0x00, 0x05, 0x43, 0x60, 0x37, 0x43, 0x00, 
	0x05, 0x45, 0x4e, 0x37, 0x45, 0x00, 0x05, 0x46, 0x4e, 0x37, 
	0x46, 0x00, 0x05, 0x48, 0x4e, 0x37, 0x48, 0x00, 0x41, 0x49, 
	0x3a, 0x37, 0x49, 0x00, 0x05, 0x48, 0x4f, 0x37, 0x48, 0x00, 
	0x05, 0x46, 0x4f, 0x37, 0x46, 0x00, 0x05, 0x3e, 0x63, 0x37, 
	0x3e, 0x00, 0x7d, 0x45, 0x3b, 0x37, 0x45, 0x00, 0x05, 0x49, 
	0x63, 0x37, 0x49, 0x00, 0x05, 0x48, 0x50, 0x37, 0x48, 0x00, 
	0x05, 0x46, 0x51, 0x37, 0x46, 0x00, 0x05, 0x3e, 0x51, 0x37, 
	0x3e, 0x00, 0x81, 0x39, 0x3e, 0x3c, 0x37, 0x3e, 0x00, 0x05, 
	0x3e, 0x65, 0x37, 0x3e, 0x00, 0x05, 0x40, 0x53, 0x37, 0x40, 
	0x00, 0x05, 0x42, 0x53, 0x37, 0x42, 0x00, 0x05, 0x43, 0x53, 
	0x37, 0x43, 0x00, 0x05, 0x45, 0x66, 0x37, 0x45, 0x00, 0x05, 
	0x46, 0x53, 0x37, 0x46, 0x00, 0x05, 0x48, 0x53, 0x37, 0x48, 
	0x00, 0x05, 0x49, 0x53, 0x37, 0x49, 0x00, 0x41, 0x49, 0x3e, 
	0x37, 0x49, 0x00, 0x05, 0x48, 0x53, 0x37, 0x48, 0x00, 0x05, 
	0x46, 0x68, 0x37, 0x46, 0x00, 0x41, 0x49, 0x3e, 0x37, 0x49, 
	0x00, 0x05, 0x48, 0x55, 0x37, 0x48, 0x00, 0x05, 0x46, 0x55, 
	0x37, 0x46, 0x00, 0x05, 0x3e, 0x69, 0x37, 0x3e, 0x00, 0x7d, 
	0x3e, 0x3e, 0x37, 0x3e, 0x00, 0x05, 0x43, 0x6a, 0x37, 0x43, 
	0x00, 0x05, 0x45, 0x56, 0x37, 0x45, 0x00, 0x05, 0x46, 0x56, 
	0x37, 0x46, 0x00, 0x05, 0x48, 0x56, 0x37, 0x48, 0x00, 0x7d, 
	0x43, 0x6b, 0x37, 0x43, 0x00, 0x05, 0x45, 0x57, 0x37, 0x45, 
	0x00, 0x05, 0x46, 0x76, 0x37, 0x46, 0x00, 0x05, 0x48, 0x57, 
	0x37, 0x48, 0x00, 0x05, 0x49, 0x57, 0x37, 0x49, 0x00, 0x05, 
	0x4b, 0x57, 0x36, 0x46, 0x77, 0x01, 0x4b, 0x00, 0x36, 0x46, 
	0x00, 0x0b, 0x45, 0x77, 0x37, 0x45, 0x00, 0x05, 0x43, 0x69, 
	0x37, 0x43, 0x00, 0x05, 0x41, 0x6a, 0x37, 0x41, 0x00, 0x05, 
	0x46, 0x6a, 0x37, 0x46, 0x00, 0x05, 0x45, 0x6a, 0x37, 0x45, 
	0x00, 0x05, 0x43, 0x6a, 0x37, 0x43, 0x00, 0x05, 0x41, 0x6a, 
	0x37, 0x41, 0x00, 0x05, 0x46, 0x6a, 0x37, 0x46, 0x00, 0x05, 
	0x45, 0x6a, 0x37, 0x45, 0x00, 0x05, 0x43, 0x6a, 0x37, 0x43, 
	0x00, 0x05, 0x41, 0x6a, 0x37, 0x41, 0x00, 0x05, 0x4b, 0x6a, 
	0x37, 0x4b, 0x00, 0x05, 0x4a, 0x6a, 0x37, 0x4a, 0x00, 0x05, 
	0x48, 0x6a, 0x37, 0x48, 0x00, 0x05, 0x46, 0x6a, 0x37, 0x46, 
	0x00, 0x05, 0x46, 0x6c, 0x37, 0x46, 0x00, 0x05, 0x45, 0x6c, 
	0x37, 0x45, 0x00, 0x05, 0x43, 0x6c, 0x37, 0x43, 0x00, 0x05, 
	0x41, 0x6c, 0x37, 0x41, 0x00, 0x05, 0x46, 0x6c, 0x37, 0x46, 
	0x00, 0x05, 0x45, 0x6c, 0x37, 0x45, 0x00, 0x05, 0x43, 0x6c, 
	0x37, 0x43, 0x00, 0x05, 0x41, 0x6c, 0x37, 0x41, 0x00, 0x05, 
	0x46, 0x6c, 0x37, 0x46, 0x00, 0x05, 0x45, 0x6c, 0x37, 0x45, 
	0x00, 0x05, 0x43, 0x6c, 0x37, 0x43, 0x00, 0x05, 0x41, 0x6c, 
	0x37, 0x41, 0x00, 0x05, 0x4b, 0x6d, 0x37, 0x4b, 0x00, 0x05, 
	0x4a, 0x6d, 0x37, 0x4a, 0x00, 0x05, 0x48, 0x6d, 0x37, 0x48, 
	0x00, 0x05, 0x46, 0x6d, 0x37, 0x46, 0x00, 0x05, 0x46, 0x6d, 
	0x37, 0x46, 0x00, 0x05, 0x45, 0x6d, 0x37, 0x45, 0x00, 0x05, 
	0x43, 0x6d, 0x37, 0x43, 0x00, 0x05, 0x41, 0x6d, 0x37, 0x41, 
	0x00, 0x05, 0x46, 0x6d, 0x37, 0x46, 0x00, 0x05, 0x45, 0x6d, 
	0x37, 0x45, 0x00, 0x05, 0x43, 0x6d, 0x37, 0x43, 0x00, 0x05, 
	0x41, 0x6d, 0x37, 0x41, 0x00, 0x05, 0x46, 0x6d, 0x37, 0x46, 
	0x00, 0x05, 0x45, 0x6e, 0x37, 0x45, 0x00, 0x05, 0x43, 0x6e, 
	0x37, 0x43, 0x00, 0x05, 0x41, 0x6e, 0x37, 0x41, 0x00, 0x05, 
	0x4b, 0x6e, 0x37, 0x4b, 0x00, 0x05, 0x4a, 0x6e, 0x37, 0x4a, 
	0x00, 0x05, 0x48, 0x6e, 0x37, 0x48, 0x00, 0x05, 0x46, 0x6e, 
	0x37, 0x46, 0x00, 0x05, 0x46, 0x6e, 0x37, 0x46, 0x00, 0x05, 
	0x45, 0x6e, 0x37, 0x45, 0x00, 0x05, 0x43, 0x6e, 0x37, 0x43, 
	0x00, 0x05, 0x41, 0x6e, 0x37, 0x41, 0x00, 0x05, 0x46, 0x6e, 
	0x37, 0x46, 0x00, 0x05, 0x45, 0x6f, 0x37, 0x45, 0x00, 0x05, 
	0x43, 0x6f, 0x37, 0x43, 0x00, 0x05, 0x41, 0x6f, 0x37, 0x41, 
	0x00, 0x05, 0x46, 0x6f, 0x37, 0x46, 0x00, 0x05, 0x45, 0x6f, 
	0x37, 0x45, 0x00, 0x05, 0x43, 0x6f, 0x37, 0x43, 0x00, 0x05, 
	0x41, 0x6f, 0x37, 0x41, 0x00, 0x05, 0x4b, 0x6f, 0x37, 0x4b, 
	0x00, 0x05, 0x4a, 0x58, 0x37, 0x4a, 0x00, 0x05, 0x48, 0x58, 
	0x37, 0x48, 0x00, 0x05, 0x46, 0x58, 0x37, 0x46, 0x00, 0x0a, 
	0x39, 0x58, 0x37, 0x39, 0x00, 0x00, 0x3a, 0x59, 0x37, 0x3a, 
	0x00, 0x0f, 0x3b, 0x59, 0x37, 0x3b, 0x00, 0x05, 0x3d, 0x5b, 
	0x32, 0x3b, 0x5b, 0x05, 0x3d, 0x00, 0x32, 0x3b, 0x00, 0x05, 
	0x3a, 0x5b, 0x37, 0x3a, 0x00, 0x05, 0x38, 0x5b, 0x37, 0x38, 
	0x00, 0x05, 0x36, 0x5b, 0x37, 0x36, 0x00, 0x05, 0x3b, 0x5b, 
	0x37, 0x3b, 0x00, 0x05, 0x3d, 0x5d, 0x37, 0x3d, 0x00, 0x05, 
	0x3f, 0x5d, 0x37, 0x3f, 0x00, 0x05, 0x42, 0x5d, 0x37, 0x42, 
	0x00, 0x05, 0x40, 0x5d, 0x37, 0x40, 0x00, 0x05, 0x3f, 0x5d, 
	0x37, 0x3f, 0x00, 0x05, 0x3d, 0x5d, 0x37, 0x3d, 0x00, 0x05, 
	0x3b, 0x5f, 0x37, 0x3b, 0x00, 0x10, 0x53, 0x46, 0x09, 0x3d, 
	0x5f, 0x32, 0x3f, 0x5f, 0x05, 0x3d, 0x00, 0x32, 0x3f, 0x00, 
	0x05, 0x40, 0x5f, 0x02, 0x53, 0x00, 0x25, 0x55, 0x46, 0x10, 
	0x40, 0x00, 0x05, 0x44, 0x5f, 0x0e, 0x57, 0x46, 0x08, 0x55, 
	0x00, 0x09, 0x58, 0x46, 0x0e, 0x57, 0x00, 0x0a, 0x44, 0x00, 
	0x04, 0x5a, 0x48, 0x01, 0x42, 0x61, 0x09, 0x58, 0x00, 0x19, 
	0x5a, 0x00, 0x15, 0x42, 0x00, 0x05, 0x3f, 0x61, 0x37, 0x3f, 
	0x00, 0x05, 0x3d, 0x61, 0x37, 0x3d, 0x00, 0x05, 0x3f, 0x61, 
	0x37, 0x3f, 0x00, 0x05, 0x40, 0x61, 0x37, 0x40, 0x00, 0x05, 
	0x46, 0x61, 0x37, 0x46, 0x00, 0x05, 0x49, 0x63, 0x37, 0x49, 
	0x00, 0x05, 0x47, 0x63, 0x37, 0x47, 0x00, 0x05, 0x46, 0x63, 
	0x37, 0x46, 0x00, 0x05, 0x44, 0x63, 0x37, 0x44, 0x00, 0x05, 
	0x42, 0x63, 0x37, 0x42, 0x00, 0x05, 0x40, 0x63, 0x37, 0x40, 
	0x00, 0x05, 0x47, 0x65, 0x00, 0x3f, 0x65, 0x32, 0x46, 0x65, 
	0x05, 0x3f, 0x00, 0x00, 0x47, 0x00, 0x05, 0x42, 0x65, 0x2d, 
	0x46, 0x00, 0x05, 0x44, 0x65, 0x05, 0x42, 0x00, 0x05, 0x40, 
	0x65, 0x2d, 0x44, 0x00, 0x05, 0x42, 0x65, 0x05, 0x40, 0x00, 
	0x05, 0x3f, 0x65, 0x2d, 0x42, 0x00, 0x00, 0x4c, 0x65, 0x05, 
	0x47, 0x65, 0x05, 0x3f, 0x00, 0x01, 0x4e, 0x65, 0x04, 0x3d, 
	0x65, 0x0c, 0x4c, 0x00, 0x11, 0x4e, 0x00, 0x10, 0x47, 0x00, 
	0x05, 0x46, 0x65, 0x05, 0x3d, 0x00, 0x05, 0x3b, 0x65, 0x2d, 
	0x46, 0x00, 0x05, 0x44, 0x68, 0x05, 0x3b, 0x00, 0x05, 0x3a, 
	0x68, 0x2d, 0x44, 0x00, 0x05, 0x42, 0x66, 0x05, 0x3a, 0x00, 
	0x05, 0x38, 0x68, 0x2d, 0x42, 0x00, 0x05, 0x47, 0x68, 0x05, 
	0x38, 0x00, 0x05, 0x3f, 0x68, 0x2d, 0x47, 0x00, 0x05, 0x46, 
	0x55, 0x00, 0x3d, 0x68, 0x05, 0x3f, 0x00, 0x32, 0x3d, 0x00, 
	0x00, 0x46, 0x00, 0x05, 0x44, 0x55, 0x00, 0x3b, 0x68, 0x37, 
	0x3b, 0x00, 0x00, 0x44, 0x00, 0x05, 0x42, 0x55, 0x00, 0x3a, 
	0x68, 0x37, 0x3a, 0x00, 0x00, 0x42, 0x00, 0x05, 0x4c, 0x6a, 
	0x0a, 0x44, 0x6a, 0x2d, 0x4c, 0x00, 0x05, 0x4b, 0x57, 0x00, 
	0x42, 0x6a, 0x05, 0x44, 0x00, 0x32, 0x42, 0x00, 0x00, 0x4b, 
	0x00, 0x05, 0x49, 0x57, 0x00, 0x40, 0x6a, 0x37, 0x40, 0x00, 
	0x00, 0x49, 0x00, 0x05, 0x47, 0x57, 0x0a, 0x42, 0x6a, 0x28, 
	0x3f, 0x6a, 0x05, 0x47, 0x00, 0x05, 0x47, 0x6a, 0x05, 0x42, 
	0x00, 0x28, 0x3f, 0x00, 0x0a, 0x47, 0x00, 0x05, 0x46, 0x57, 
	0x00, 0x3d, 0x6a, 0x37, 0x3d, 0x00, 0x00, 0x46, 0x00, 0x05, 
	0x44, 0x59, 0x00, 0x3b, 0x6c, 0x37, 0x3b, 0x00, 0x00, 0x44, 
	0x00, 0x05, 0x42, 0x59, 0x00, 0x3a, 0x6c, 0x20, 0x4e, 0x6c, 
	0x0e, 0x50, 0x6c, 0x09, 0x4e, 0x00, 0x00, 0x42, 0x00, 0x00, 
	0x3a, 0x00, 0x02, 0x52, 0x6c, 0x03, 0x47, 0x6c, 0x09, 0x50, 
	0x00, 0x01, 0x3f, 0x6c, 0x02, 0x53, 0x6c, 0x0d, 0x52, 0x00, 
	0x18, 0x53, 0x00, 0x06, 0x47, 0x00, 0x05, 0x46, 0x59, 0x00, 
	0x3d, 0x6c, 0x05, 0x3f, 0x00, 0x32, 0x3d, 0x00, 0x00, 0x46, 
	0x00, 0x05, 0x44, 0x59, 0x00, 0x3b, 0x6c, 0x37, 0x3b, 0x00, 
	0x00, 0x44, 0x00, 0x05, 0x42, 0x59, 0x00, 0x3a, 0x6c, 0x37, 
	0x3a, 0x00, 0x00, 0x42, 0x00, 0x05, 0x47, 0x6e, 0x00, 0x3f, 
	0x6e, 0x37, 0x3f, 0x00, 0x00, 0x47, 0x00, 0x05, 0x46, 0x5b, 
	0x00, 0x3d, 0x6e, 0x37, 0x3d, 0x00, 0x00, 0x46, 0x00, 0x05, 
	0x44, 0x5b, 0x00, 0x3b, 0x6e, 0x37, 0x3b, 0x00, 0x00, 0x44, 
	0x00, 0x05, 0x42, 0x5b, 0x00, 0x4e, 0x6e, 0x00, 0x3a, 0x6e, 
	0x13, 0x50, 0x6e, 0x03, 0x4e, 0x00, 0x19, 0x52, 0x6e, 0x03, 
	0x50, 0x00, 0x05, 0x42, 0x00, 0x00, 0x3a, 0x00, 0x05, 0x4c, 
	0x6e, 0x00, 0x44, 0x6e, 0x0a, 0x53, 0x6e, 0x05, 0x52, 0x00, 
	0x1d, 0x53, 0x00, 0x0b, 0x44, 0x00, 0x00, 0x4c, 0x00, 0x05, 
	0x4b, 0x5b, 0x00, 0x42, 0x6e, 0x37, 0x42, 0x00, 0x00, 0x4b, 
	0x00, 0x05, 0x49, 0x6a, 0x00, 0x40, 0x7f, 0x37, 0x40, 0x00, 
	0x00, 0x49, 0x00, 0x05, 0x47, 0x6a, 0x0a, 0x3f, 0x7f, 0x2d, 
	0x47, 0x00, 0x0a, 0x3f, 0x00, 0x05, 0x3f, 0x7b, 0x37, 0x3d, 
	0x75, 0x0b, 0x3f, 0x00, 0x32, 0x3b, 0x6f, 0x0a, 0x3d, 0x00, 
	0x2c, 0x3b, 0x00, 0x09, 0x3a, 0x6f, 0x3d, 0x3a, 0x00, 0x02, 
	0x3f, 0x7b, 0x3b, 0x3d, 0x76, 0x06, 0x3f, 0x00, 0x39, 0x3b, 
	0x70, 0x08, 0x3d, 0x00, 0x32, 0x3b, 0x00, 0x03, 0x3a, 0x70, 
	0x36, 0x4b, 0x78, 0x08, 0x3a, 0x00, 0x32, 0x49, 0x77, 0x07, 
	0x4b, 0x00, 0x37, 0x47, 0x71, 0x15, 0x49, 0x00, 0x1f, 0x47, 
	0x00, 0x09, 0x46, 0x71, 0x41, 0x46, 0x00, 0x06, 0x57, 0x76, 
	0x3a, 0x55, 0x76, 0x05, 0x57, 0x00, 0x37, 0x53, 0x72, 0x15, 
	0x55, 0x00, 0x1d, 0x52, 0x72, 0x0f, 0x53, 0x00, 0x33, 0x57, 
	0x74, 0x01, 0x52, 0x00, 0x3c, 0x55, 0x79, 0x03, 0x57, 0x00, 
	0x32, 0x53, 0x7d, 0x08, 0x55, 0x00, 0x30, 0x53, 0x00, 0x01, 
	0x52, 0x7d, 0x40, 0x52, 0x00, 0x09, 0x50, 0x7d, 0x39, 0x4e, 
	0x7f, 0x04, 0x50, 0x00, 0x37, 0x4e, 0x00, 0x00, 0x4c, 0x7f, 
	0x36, 0x4c, 0x00, 0x05, 0x4b, 0x7f, 0x33, 0x4b, 0x00, 0x0a, 
	0x49, 0x7f, 0x38, 0x49, 0x00, 0x03, 0x47, 0x7f, 0x19, 0x46, 
	0x7f, 0x1b, 0x47, 0x00, 0x13, 0x44, 0x7f, 0x09, 0x46, 0x00, 
	0x1f, 0x42, 0x7f, 0x18, 0x44, 0x00, 0x12, 0x40, 0x7f, 0x0c, 
	0x42, 0x00, 0x19, 0x3f, 0x7f, 0x0f, 0x40, 0x00, 0x11, 0x3d, 
	0x7f, 0x13, 0x3f, 0x00, 0x13, 0x3b, 0x7f, 0x10, 0x3d, 0x00, 
	0x14, 0x3a, 0x7f, 0x04, 0x3b, 0x00, 0x1f, 0x38, 0x7f, 0x13, 
	0x3a, 0x00, 0x17, 0x36, 0x7f, 0x02, 0x38, 0x00, 0x25, 0x41, 
	0x6c, 0x09, 0x36, 0x00, 0x06, 0x35, 0x7f, 0x14, 0x41, 0x00, 
	0x05, 0x46, 0x6d, 0x27, 0x46, 0x00, 0x00, 0x4d, 0x6d, 0x14, 
	0x4d, 0x00, 0x14, 0x4d, 0x66, 0x28, 0x46, 0x66, 0x04, 0x4d, 
	0x00, 0x1a, 0x46, 0x00, 0x0a, 0x41, 0x66, 0x1d, 0x41, 0x00, 
	0x0b, 0x41, 0x66, 0x1f, 0x41, 0x00, 0x09, 0x46, 0x66, 0x23, 
	0x46, 0x00, 0x05, 0x4d, 0x6f, 0x1b, 0x4d, 0x00, 0x0d, 0x4d, 
	0x70, 0x28, 0x46, 0x70, 0x02, 0x4d, 0x00, 0x20, 0x46, 0x00, 
	0x06, 0x41, 0x70, 0x16, 0x41, 0x00, 0x12, 0x41, 0x70, 0x22, 
	0x41, 0x00, 0x02, 0x35, 0x00, 0x04, 0x46, 0x70, 0x24, 0x46, 
	0x00, 0x04, 0x4d, 0x70, 0x18, 0x4d, 0x00, 0x10, 0x4d, 0x70, 
	0x28, 0x46, 0x70, 0x01, 0x4d, 0x00, 0x21, 0x46, 0x00, 0x06, 
	0x41, 0x71, 0x1a, 0x41, 0x00, 0x0e, 0x41, 0x71, 0x28, 0x46, 
	0x71, 0x01, 0x41, 0x00, 0x23, 0x46, 0x00, 0x04, 0x4d, 0x71, 
	0x15, 0x4d, 0x00, 0x13, 0x4d, 0x72, 0x28, 0x46, 0x72, 0x09, 
	0x4d, 0x00, 0x16, 0x41, 0x72, 0x04, 0x46, 0x00, 0x10, 0x41, 
	0x00, 0x27, 0x41, 0x72, 0x1e, 0x46, 0x72, 0x09, 0x41, 0x00, 
	0x1f, 0x4b, 0x74, 0x02, 0x46, 0x00, 0x16, 0x4b, 0x00, 0x10, 
	0x4b, 0x74, 0x28, 0x46, 0x74, 0x05, 0x4b, 0x00, 0x18, 0x46, 
	0x00, 0x02, 0x41, 0x74, 0x15, 0x41, 0x00, 0x1c, 0x41, 0x74, 
	0x1e, 0x46, 0x74, 0x07, 0x41, 0x00, 0x19, 0x46, 0x00, 0x09, 
	0x4b, 0x74, 0x15, 0x4b, 0x00, 0x21, 0x4b, 0x75, 0x23, 0x46, 
	0x75, 0x06, 0x4b, 0x00, 0x1c, 0x46, 0x00, 0x02, 0x41, 0x75, 
	0x17, 0x41, 0x00, 0x15, 0x41, 0x75, 0x24, 0x41, 0x00, 0x04, 
	0x46, 0x76, 0x1f, 0x46, 0x00, 0x08, 0x4b, 0x76, 0x15, 0x4b, 
	0x00, 0x14, 0x4b, 0x76, 0x28, 0x46, 0x76, 0x01, 0x4b, 0x00, 
	0x21, 0x46, 0x00, 0x07, 0x41, 0x76, 0x15, 0x41, 0x00, 0x17, 
	0x41, 0x77, 0x19, 0x46, 0x77, 0x15, 0x41, 0x00, 0x0a, 0x46, 
	0x00, 0x0f, 0x4b, 0x77, 0x17, 0x4b, 0x00, 0x15, 0x4b, 0x77, 
	0x28, 0x46, 0x77, 0x06, 0x4b, 0x00, 0x14, 0x41, 0x77, 0x0d, 
	0x46, 0x00, 0x07, 0x41, 0x00, 0x22, 0x3f, 0x77, 0x28, 0x46, 
	0x78, 0x18, 0x3f, 0x00, 0x07, 0x46, 0x00, 0x09, 0x4b, 0x78, 
	0x15, 0x4b, 0x00, 0x13, 0x4b, 0x78, 0x28, 0x46, 0x78, 0x05, 
	0x4b, 0x00, 0x23, 0x46, 0x00, 0x00, 0x3f, 0x79, 0x13, 0x3f, 
	0x00, 0x15, 0x3f, 0x79, 0x23, 0x3f, 0x00, 0x05, 0x44, 0x79, 
	0x28, 0x4b, 0x79, 0x04, 0x44, 0x00, 0x0f, 0x4b, 0x00, 0x15, 
	0x4b, 0x7a, 0x28, 0x44, 0x7a, 0x01, 0x4b, 0x00, 0x27, 0x3f, 
	0x7b, 0x01, 0x44, 0x00, 0x15, 0x3f, 0x00, 0x0c, 0x48, 0x57, 
	0x06, 0x3f, 0x7b, 0x28, 0x48, 0x00, 0x00, 0x41, 0x7b, 0x01, 
	0x3f, 0x00, 0x01, 0x4a, 0x5b, 0x23, 0x41, 0x00, 0x03, 0x43, 
	0x7a, 0x04, 0x4a, 0x00, 0x00, 0x4b, 0x61, 0x06, 0x43, 0x00, 
	0x1e, 0x4b, 0x00, 0x00, 0x44, 0x79, 0x04, 0x4d, 0x65, 0x20, 
	0x4d, 0x00, 0x04, 0x4f, 0x68, 0x00, 0x46, 0x78, 0x05, 0x44, 
	0x00, 0x1f, 0x4f, 0x00, 0x01, 0x51, 0x6c, 0x03, 0x46, 0x00, 
	0x00, 0x48, 0x78, 0x1d, 0x48, 0x00, 0x06, 0x51, 0x00, 0x05, 
	0x49, 0x78, 0x01, 0x52, 0x6f, 0x26, 0x49, 0x00, 0x01, 0x52, 
	0x00, 0x00, 0x4b, 0x74, 0x04, 0x54, 0x75, 0x24, 0x4b, 0x00, 
	0x00, 0x4d, 0x72, 0x01, 0x54, 0x00, 0x01, 0x56, 0x79, 0x14, 
	0x4d, 0x00, 0x12, 0x56, 0x00, 0x00, 0x57, 0x7d, 0x00, 0x4f, 
	0x72, 0x1f, 0x57, 0x00, 0x05, 0x59, 0x7f, 0x05, 0x50, 0x6e, 
	0x01, 0x4f, 0x00, 0x1b, 0x59, 0x00, 0x02, 0x50, 0x00, 0x04, 
	0x5b, 0x7f, 0x05, 0x51, 0x55, 0x11, 0x5b, 0x00, 0x26, 0x51, 
	0x00, 0x87, 0x3b, 0x4a, 0x6a, 0x00, 0x43, 0x5f, 0x0a, 0x45, 
	0x5f, 0x87, 0x22, 0x43, 0x00, 0x00, 0x4a, 0x00, 0x0a, 0x45, 
	0x00, 0x0a, 0x48, 0x64, 0x00, 0x4f, 0x73, 0x14, 0x4a, 0x64, 
	0x87, 0x18, 0x4f, 0x00, 0x00, 0x48, 0x00, 0x14, 0x4a, 0x00, 
	0x00, 0x4d, 0x67, 0x00, 0x4f, 0x68, 0x00, 0x54, 0x72, 0x86, 
	0x17, 0x51, 0x7b, 0x27, 0x53, 0x7b, 0x15, 0x51, 0x00, 0x13, 
	0x54, 0x00, 0x00, 0x54, 0x7b, 0x1e, 0x53, 0x00, 0x0b, 0x55, 
	0x7b, 0x1d, 0x54, 0x00, 0x0a, 0x4d, 0x00, 0x00, 0x4f, 0x00, 
	0x00, 0x56, 0x7b, 0x00, 0x51, 0x7b, 0x01, 0x4a, 0x7b, 0x1e, 
	0x55, 0x00, 0x7c, 0x56, 0x00, 0x00, 0x51, 0x00, 0x01, 0x4a, 
	0x00, 0x55, 0x32, 0x7c, 0x00, 0x26, 0x7c, 0x1a, 0x26, 0x00, 
	0x00, 0x32, 0x00, 0x36, 0x26, 0x7c, 0x00, 0x32, 0x7c, 0x1a, 
	0x32, 0x00, 0x05, 0x26, 0x00, 0x31, 0x32, 0x7c, 0x00, 0x26, 
	0x7c, 0x1d, 0x26, 0x00, 0x05, 0x32, 0x00, 0x2e, 0x32, 0x7c, 
	0x00, 0x26, 0x7c, 0x59, 0x26, 0x00, 0x05, 0x32, 0x00, 0x00, 
	0xff, 0x2f, 0x00, 0x4d, 0x54, 0x72, 0x6b, 0x00, 0x00, 0x15, 
	0xc6, 0x00, 0xff, 0x03, 0x07, 0x54, 0x72, 0x61, 0x63, 0x6b, 
	0x20, 0x39, 0x00, 0xca, 0x30, 0x00, 0xba, 0x07, 0x6c, 0x00, 
	0xff, 0x7f, 0x05, 0x05, 0x0f, 0x09, 0x00, 0x40, 0x00, 0xff, 
	0x7f, 0x0f, 0x05, 0x0f, 0x06, 0x47, 0x65, 0x6e, 0x65, 0x72, 
	0x61, 0x6c, 0x20, 0x4d, 0x49, 0x44, 0x49, 0x00, 0xba, 0x12, 
	0x00, 0x1e, 0x12, 0x40, 0x87, 0x22, 0x9a, 0x3e, 0x72, 0x00, 
	0x22, 0x72, 0x00, 0x2e, 0x72, 0x00, 0x46, 0x72, 0x82, 0x2d, 
	0x3e, 0x00, 0x59, 0x46, 0x00, 0x0f, 0x2e, 0x00, 0x38, 0x22, 
	0x00, 0x95, 0x72, 0x29, 0x63, 0x00, 0x22, 0x63, 0x09, 0x22, 
	0x00, 0x04, 0x29, 0x00, 0x19, 0x22, 0x63, 0x00, 0x29, 0x63, 
	0x05, 0x29, 0x00, 0x04, 0x22, 0x00, 0x1c, 0x29, 0x63, 0x00, 
	0x22, 0x63, 0x82, 0x21, 0x22, 0x00, 0x05, 0x29, 0x00, 0x58, 
	0x29, 0x63, 0x01, 0x32, 0x63, 0x04, 0x22, 0x63, 0x00, 0x3a, 
	0x6b, 0x0f, 0x29, 0x00, 0x02, 0x3a, 0x00, 0x00, 0x22, 0x00, 
	0x01, 0x32, 0x00, 0x11, 0x3a, 0x6b, 0x00, 0x32, 0x63, 0x00, 
	0x22, 0x63, 0x00, 0x29, 0x63, 0x10, 0x29, 0x00, 0x01, 0x22, 
	0x00, 0x00, 0x3a, 0x00, 0x03, 0x32, 0x00, 0x0c, 0x32, 0x63, 
	0x01, 0x29, 0x63, 0x02, 0x22, 0x63, 0x00, 0x3a, 0x6b, 0x0f, 
	0x29, 0x00, 0x06, 0x3a, 0x00, 0x00, 0x22, 0x00, 0x14, 0x32, 
	0x00, 0x0a, 0x3a, 0x6b, 0x00, 0x22, 0x63, 0x01, 0x29, 0x63, 
	0x01, 0x32, 0x63, 0x2c, 0x29, 0x00, 0x00, 0x3a, 0x00, 0x00, 
	0x22, 0x00, 0x05, 0x32, 0x00, 0x3f, 0x29, 0x63, 0x00, 0x1d, 
	0x63, 0x00, 0x38, 0x63, 0x02, 0x3a, 0x6b, 0x26, 0x38, 0x00, 
	0x06, 0x29, 0x00, 0x00, 0x1d, 0x00, 0x02, 0x3a, 0x00, 0x81, 
	0x41, 0x1d, 0x63, 0x01, 0x38, 0x63, 0x00, 0x35, 0x63, 0x40, 
	0x38, 0x00, 0x0b, 0x1d, 0x00, 0x04, 0x35, 0x00, 0x81, 0x1f, 
	0x1d, 0x63, 0x01, 0x38, 0x63, 0x01, 0x3a, 0x63, 0x31, 0x3a, 
	0x00, 0x15, 0x1d, 0x00, 0x01, 0x38, 0x00, 0x35, 0x3a, 0x6b, 
	0x02, 0x3f, 0x6b, 0x00, 0x1d, 0x63, 0x00, 0x38, 0x63, 0x21, 
	0x38, 0x00, 0x00, 0x3f, 0x00, 0x07, 0x3a, 0x00, 0x0d, 0x1d, 
	0x00, 0x38, 0x1d, 0x63, 0x03, 0x3a, 0x6b, 0x02, 0x3f, 0x6b, 
	0x00, 0x38, 0x63, 0x12, 0x38, 0x00, 0x00, 0x3f, 0x00, 0x01, 
	0x3a, 0x00, 0x02, 0x1d, 0x00, 0x11, 0x3a, 0x6b, 0x02, 0x3f, 
	0x6b, 0x00, 0x1d, 0x63, 0x00, 0x38, 0x63, 0x12, 0x38, 0x00, 
	0x00, 0x3a, 0x00, 0x00, 0x3f, 0x00, 0x01, 0x1d, 0x00, 0x11, 
	0x3a, 0x6b, 0x02, 0x1d, 0x63, 0x01, 0x38, 0x63, 0x00, 0x3f, 
	0x6b, 0x14, 0x3f, 0x00, 0x04, 0x3a, 0x00, 0x00, 0x1d, 0x00, 
	0x0f, 0x38, 0x00, 0x02, 0x3a, 0x6b, 0x00, 0x35, 0x6b, 0x00, 
	0x22, 0x63, 0x00, 0x2e, 0x63, 0x00, 0x32, 0x63, 0x21, 0x32, 
	0x00, 0x00, 0x3a, 0x00, 0x02, 0x22, 0x00, 0x03, 0x35, 0x00, 
	0x00, 0x2e, 0x00, 0x2a, 0x32, 0x63, 0x00, 0x3a, 0x6b, 0x01, 
	0x35, 0x6b, 0x00, 0x22, 0x63, 0x00, 0x2e, 0x63, 0x1e, 0x3a, 
	0x00, 0x00, 0x32, 0x00, 0x07, 0x22, 0x00, 0x00, 0x35, 0x00, 
	0x00, 0x2e, 0x00, 0x2a, 0x32, 0x63, 0x00, 0x3a, 0x6b, 0x00, 
	0x35, 0x6b, 0x00, 0x2e, 0x63, 0x01, 0x22, 0x63, 0x28, 0x2e, 
	0x00, 0x00, 0x35, 0x00, 0x00, 0x32, 0x00, 0x00, 0x3a, 0x00, 
	0x03, 0x22, 0x00, 0x81, 0x1a, 0x3a, 0x63, 0x01, 0x1d, 0x63, 
	0x01, 0x38, 0x63, 0x00, 0x33, 0x63, 0x40, 0x38, 0x00, 0x06, 
	0x3a, 0x00, 0x03, 0x33, 0x00, 0x02, 0x1d, 0x00, 0x81, 0x23, 
	0x1d, 0x63, 0x01, 0x38, 0x63, 0x01, 0x33, 0x63, 0x00, 0x3a, 
	0x63, 0x31, 0x3a, 0x00, 0x11, 0x33, 0x00, 0x04, 0x1d, 0x00, 
	0x01, 0x38, 0x00, 0x35, 0x33, 0x63, 0x00, 0x3a, 0x6b, 0x02, 
	0x3f, 0x6b, 0x00, 0x1d, 0x63, 0x00, 0x38, 0x63, 0x21, 0x38, 
	0x00, 0x00, 0x3f, 0x00, 0x07, 0x33, 0x00, 0x00, 0x3a, 0x00, 
	0x0d, 0x1d, 0x00, 0x38, 0x1d, 0x63, 0x03, 0x33, 0x63, 0x00, 
	0x3a, 0x6b, 0x02, 0x3f, 0x6b, 0x00, 0x38, 0x63, 0x12, 0x38, 
	0x00, 0x00, 0x3f, 0x00, 0x01, 0x3a, 0x00, 0x00, 0x33, 0x00, 
	0x02, 0x1d, 0x00, 0x11, 0x33, 0x63, 0x00, 0x3a, 0x6b, 0x02, 
	0x3f, 0x6b, 0x00, 0x1d, 0x63, 0x00, 0x38, 0x63, 0x12, 0x38, 
	0x00, 0x00, 0x33, 0x00, 0x00, 0x3f, 0x00, 0x00, 0x3a, 0x00, 
	0x01, 0x1d, 0x00, 0x11, 0x33, 0x63, 0x00, 0x3a, 0x6b, 0x02, 
	0x1d, 0x63, 0x01, 0x38, 0x63, 0x00, 0x3f, 0x6b, 0x14, 0x3f, 
	0x00, 0x00, 0x38, 0x00, 0x04, 0x33, 0x00, 0x00, 0x3a, 0x00, 
	0x00, 0x1d, 0x00, 0x11, 0x3a, 0x6b, 0x00, 0x35, 0x6b, 0x00, 
	0x22, 0x63, 0x00, 0x2e, 0x63, 0x00, 0x33, 0x63, 0x21, 0x33, 
	0x00, 0x00, 0x3a, 0x00, 0x02, 0x22, 0x00, 0x03, 0x35, 0x00, 
	0x00, 0x2e, 0x00, 0x2a, 0x32, 0x63, 0x00, 0x3a, 0x6b, 0x01, 
	0x35, 0x6b, 0x00, 0x22, 0x63, 0x00, 0x2e, 0x63, 0x1e, 0x3a, 
	0x00, 0x00, 0x32, 0x00, 0x07, 0x22, 0x00, 0x00, 0x35, 0x00, 
	0x00, 0x2e, 0x00, 0x2a, 0x32, 0x63, 0x00, 0x3a, 0x6b, 0x00, 
	0x35, 0x6b, 0x00, 0x2e, 0x63, 0x01, 0x22, 0x63, 0x28, 0x2e, 
	0x00, 0x00, 0x35, 0x00, 0x00, 0x32, 0x00, 0x00, 0x3a, 0x00, 
	0x03, 0x22, 0x00, 0x82, 0x19, 0x29, 0x69, 0x35, 0x29, 0x00, 
	0x82, 0x25, 0x29, 0x69, 0x1c, 0x29, 0x00, 0x0c, 0x29, 0x69, 
	0x18, 0x29, 0x00, 0x0a, 0x29, 0x5a, 0x19, 0x29, 0x00, 0x19, 
	0x29, 0x69, 0x3c, 0x29, 0x00, 0x37, 0x29, 0x5f, 0x36, 0x29, 
	0x00, 0x47, 0x2e, 0x5f, 0x00, 0x22, 0x5f, 0x81, 0x52, 0x22, 
	0x00, 0x00, 0x2e, 0x00, 0x19, 0x2d, 0x5f, 0x00, 0x21, 0x5f, 
	0x81, 0x43, 0x21, 0x00, 0x00, 0x2d, 0x00, 0x30, 0x2d, 0x5f, 
	0x00, 0x21, 0x5f, 0x81, 0x0a, 0x21, 0x00, 0x00, 0x2d, 0x00, 
	0x00, 0x2d, 0x5f, 0x00, 0x21, 0x5f, 0x0e, 0x21, 0x00, 0x00, 
	0x2d, 0x00, 0x5b, 0x2e, 0x5f, 0x00, 0x22, 0x5f, 0x26, 0x22, 
	0x00, 0x00, 0x2e, 0x00, 0x29, 0x2e, 0x5f, 0x00, 0x22, 0x5f, 
	0x24, 0x22, 0x00, 0x00, 0x2e, 0x00, 0x1e, 0x2d, 0x5f, 0x00, 
	0x21, 0x5f, 0x2d, 0x21, 0x00, 0x00, 0x2d, 0x00, 0x31, 0x2b, 
	0x5f, 0x00, 0x1f, 0x5f, 0x81, 0x58, 0x1f, 0x00, 0x00, 0x2b, 
	0x00, 0x1c, 0x2b, 0x5f, 0x00, 0x1f, 0x5f, 0x81, 0x22, 0x1f, 
	0x00, 0x00, 0x2b, 0x00, 0x03, 0x33, 0x5f, 0x00, 0x27, 0x5f, 
	0x2c, 0x27, 0x00, 0x00, 0x33, 0x00, 0x21, 0x33, 0x5f, 0x00, 
	0x27, 0x5f, 0x28, 0x27, 0x00, 0x00, 0x33, 0x00, 0x2b, 0x32, 
	0x5f, 0x00, 0x26, 0x5f, 0x27, 0x26, 0x00, 0x00, 0x32, 0x00, 
	0x29, 0x30, 0x5f, 0x00, 0x24, 0x5f, 0x27, 0x24, 0x00, 0x00, 
	0x30, 0x00, 0x32, 0x2e, 0x5f, 0x00, 0x22, 0x5f, 0x29, 0x22, 
	0x00, 0x00, 0x2e, 0x00, 0x22, 0x2d, 0x5f, 0x00, 0x21, 0x5f, 
	0x25, 0x21, 0x00, 0x00, 0x2d, 0x00, 0x27, 0x2b, 0x5f, 0x00, 
	0x1f, 0x5f, 0x2c, 0x1f, 0x00, 0x00, 0x2b, 0x00, 0x2d, 0x29, 
	0x5f, 0x00, 0x1d, 0x5f, 0x81, 0x2a, 0x1d, 0x00, 0x00, 0x29, 
	0x00, 0x3a, 0x2b, 0x5f, 0x00, 0x1f, 0x5f, 0x36, 0x1f, 0x00, 
	0x00, 0x2b, 0x00, 0x38, 0x2d, 0x5f, 0x00, 0x21, 0x5f, 0x36, 
	0x21, 0x00, 0x00, 0x2d, 0x00, 0x3d, 0x2e, 0x5f, 0x00, 0x22, 
	0x5f, 0x2c, 0x22, 0x00, 0x00, 0x2e, 0x00, 0x26, 0x2d, 0x5f, 
	0x00, 0x21, 0x5f, 0x21, 0x21, 0x00, 0x00, 0x2d, 0x00, 0x2c, 
	0x2b, 0x5f, 0x00, 0x1f, 0x5f, 0x2d, 0x1f, 0x00, 0x00, 0x2b, 
	0x00, 0x2b, 0x29, 0x5f, 0x00, 0x1d, 0x5f, 0x38, 0x1d, 0x00, 
	0x00, 0x29, 0x00, 0x43, 0x2e, 0x5f, 0x00, 0x22, 0x5f, 0x45, 
	0x22, 0x00, 0x00, 0x2e, 0x00, 0x30, 0x35, 0x5f, 0x02, 0x29, 
	0x5f, 0x01, 0x38, 0x5f, 0x28, 0x38, 0x00, 0x20, 0x37, 0x5f, 
	0x23, 0x37, 0x00, 0x2f, 0x38, 0x5f, 0x12, 0x35, 0x00, 0x0d, 
	0x29, 0x00, 0x03, 0x38, 0x00, 0x25, 0x1d, 0x5f, 0x02, 0x29, 
	0x5f, 0x03, 0x35, 0x5f, 0x21, 0x29, 0x00, 0x02, 0x1d, 0x00, 
	0x20, 0x1d, 0x5f, 0x05, 0x29, 0x5f, 0x21, 0x1d, 0x00, 0x04, 
	0x29, 0x00, 0x21, 0x1d, 0x5f, 0x05, 0x29, 0x5f, 0x23, 0x1d, 
	0x00, 0x0a, 0x29, 0x00, 0x2b, 0x1d, 0x5f, 0x04, 0x29, 0x5f, 
	0x81, 0x4e, 0x1d, 0x00, 0x02, 0x29, 0x00, 0x1c, 0x41, 0x5c, 
	0x11, 0x1d, 0x57, 0x1e, 0x35, 0x00, 0x32, 0x1d, 0x00, 0x46, 
	0x41, 0x00, 0x14, 0x41, 0x5c, 0x48, 0x41, 0x00, 0x00, 0x43, 
	0x5c, 0x81, 0x57, 0x1d, 0x59, 0x73, 0x43, 0x00, 0x00, 0x43, 
	0x5c, 0x73, 0x4b, 0x5c, 0x6a, 0x1d, 0x00, 0x18, 0x4a, 0x5c, 
	0x05, 0x4b, 0x00, 0x50, 0x43, 0x00, 0x12, 0x4a, 0x00, 0x05, 
	0x48, 0x5c, 0x01, 0x1d, 0x59, 0x7a, 0x46, 0x5b, 0x07, 0x48, 
	0x00, 0x73, 0x46, 0x00, 0x0b, 0x46, 0x59, 0x4a, 0x48, 0x59, 
	0x17, 0x46, 0x00, 0x0c, 0x1d, 0x00, 0x23, 0x48, 0x00, 0x02, 
	0x4a, 0x59, 0x5d, 0x4a, 0x00, 0x02, 0x48, 0x5b, 0x05, 0x1d, 
	0x59, 0x81, 0x26, 0x48, 0x00, 0x07, 0x43, 0x5c, 0x46, 0x43, 
	0x00, 0x02, 0x45, 0x5c, 0x5f, 0x1d, 0x00, 0x81, 0x02, 0x45, 
	0x00, 0x06, 0x1d, 0x59, 0x05, 0x41, 0x5c, 0x81, 0x0c, 0x41, 
	0x00, 0x27, 0x41, 0x5c, 0x40, 0x43, 0x5c, 0x13, 0x41, 0x00, 
	0x32, 0x1d, 0x00, 0x81, 0x18, 0x1d, 0x59, 0x73, 0x43, 0x00, 
	0x14, 0x43, 0x5c, 0x31, 0x4b, 0x45, 0x06, 0x43, 0x00, 0x32, 
	0x4b, 0x00, 0x09, 0x4b, 0x5c, 0x6d, 0x1d, 0x00, 0x02, 0x4b, 
	0x00, 0x01, 0x4a, 0x5c, 0x70, 0x4a, 0x00, 0x00, 0x48, 0x5c, 
	0x10, 0x1d, 0x59, 0x6a, 0x48, 0x00, 0x03, 0x46, 0x5b, 0x37, 
	0x4d, 0x51, 0x19, 0x46, 0x00, 0x10, 0x4d, 0x00, 0x0b, 0x4d, 
	0x5c, 0x0d, 0x1d, 0x00, 0x16, 0x25, 0x59, 0x81, 0x2a, 0x4d, 
	0x00, 0x01, 0x48, 0x52, 0x2a, 0x48, 0x00, 0x02, 0x25, 0x00, 
	0x06, 0x48, 0x5c, 0x13, 0x1d, 0x59, 0x83, 0x04, 0x1d, 0x00, 
	0x50, 0x29, 0x59, 0x81, 0x2c, 0x48, 0x00, 0x12, 0x41, 0x5c, 
	0x20, 0x29, 0x00, 0x14, 0x27, 0x59, 0x0b, 0x43, 0x5c, 0x09, 
	0x41, 0x00, 0x82, 0x46, 0x43, 0x00, 0x04, 0x43, 0x5c, 0x62, 
	0x27, 0x00, 0x11, 0x4b, 0x5c, 0x09, 0x43, 0x00, 0x09, 0x24, 
	0x72, 0x70, 0x4a, 0x5c, 0x05, 0x4b, 0x00, 0x62, 0x4a, 0x00, 
	0x05, 0x48, 0x5c, 0x16, 0x3c, 0x72, 0x65, 0x46, 0x5b, 0x03, 
	0x3c, 0x00, 0x04, 0x48, 0x00, 0x00, 0x3e, 0x72, 0x73, 0x46, 
	0x00, 0x02, 0x30, 0x72, 0x03, 0x24, 0x00, 0x06, 0x46, 0x59, 
	0x02, 0x3f, 0x72, 0x08, 0x3e, 0x00, 0x40, 0x48, 0x59, 0x17, 
	0x46, 0x00, 0x2f, 0x48, 0x00, 0x02, 0x4a, 0x59, 0x5d, 0x4a, 
	0x00, 0x02, 0x48, 0x5b, 0x01, 0x35, 0x72, 0x03, 0x30, 0x00, 
	0x81, 0x27, 0x48, 0x00, 0x07, 0x43, 0x5c, 0x38, 0x43, 0x00, 
	0x10, 0x45, 0x5c, 0x81, 0x39, 0x3f, 0x00, 0x15, 0x35, 0x00, 
	0x13, 0x45, 0x00, 0x14, 0x29, 0x72, 0x08, 0x35, 0x72, 0x79, 
	0x29, 0x00, 0x01, 0x35, 0x00, 0x35, 0x29, 0x72, 0x01, 0x35, 
	0x72, 0x34, 0x35, 0x00, 0x00, 0x29, 0x00, 0x04, 0x24, 0x72, 
	0x0a, 0x30, 0x72, 0x81, 0x0f, 0x24, 0x00, 0x03, 0x30, 0x00, 
	0x1b, 0x26, 0x72, 0x03, 0x32, 0x72, 0x23, 0x26, 0x00, 0x0f, 
	0x32, 0x00, 0x08, 0x27, 0x72, 0x02, 0x33, 0x72, 0x81, 0x06, 
	0x33, 0x00, 0x03, 0x27, 0x00, 0x2d, 0x35, 0x72, 0x06, 0x29, 
	0x72, 0x22, 0x29, 0x00, 0x06, 0x35, 0x00, 0x0c, 0x36, 0x72, 
	0x03, 0x2a, 0x72, 0x81, 0x0d, 0x36, 0x00, 0x09, 0x2a, 0x00, 
	0x2c, 0x2c, 0x72, 0x01, 0x38, 0x72, 0x1a, 0x2c, 0x00, 0x08, 
	0x38, 0x00, 0x14, 0x2e, 0x72, 0x02, 0x3a, 0x72, 0x81, 0x07, 
	0x2e, 0x00, 0x08, 0x3a, 0x00, 0x50, 0x35, 0x7f, 0x83, 0x01, 
	0x35, 0x00, 0x23, 0x35, 0x62, 0x14, 0xba, 0x07, 0x4c, 0x00, 
	0x12, 0x41, 0x23, 0x9a, 0x35, 0x00, 0x05, 0x35, 0x7c, 0x37, 
	0x35, 0x00, 0x05, 0x35, 0x62, 0x37, 0x35, 0x00, 0x05, 0x35, 
	0x62, 0x37, 0x35, 0x00, 0x05, 0x35, 0x62, 0x37, 0x35, 0x00, 
	0x05, 0x35, 0x7c, 0x37, 0x35, 0x00, 0x7d, 0x35, 0x62, 0x37, 
	0x35, 0x00, 0x05, 0x35, 0x7c, 0x37, 0x35, 0x00, 0x7d, 0x35, 
	0x62, 0x37, 0x35, 0x00, 0x05, 0x35, 0x7c, 0x37, 0x35, 0x00, 
	0x05, 0x35, 0x62, 0x37, 0x35, 0x00, 0x05, 0x35, 0x62, 0x37, 
	0x35, 0x00, 0x05, 0x35, 0x62, 0x37, 0x35, 0x00, 0x05, 0x35, 
	0x7c, 0x37, 0x35, 0x00, 0x7d, 0x35, 0x62, 0x37, 0x35, 0x00, 
	0x05, 0x35, 0x7f, 0x37, 0x35, 0x00, 0x7d, 0x35, 0x6e, 0x37, 
	0x35, 0x00, 0x05, 0x35, 0x7f, 0x37, 0x35, 0x00, 0x05, 0x35, 
	0x6e, 0x37, 0x35, 0x00, 0x05, 0x35, 0x6e, 0x37, 0x35, 0x00, 
	0x05, 0x35, 0x6e, 0x37, 0x35, 0x00, 0x05, 0x35, 0x7f, 0x37, 
	0x35, 0x00, 0x7d, 0x35, 0x6e, 0x37, 0x35, 0x00, 0x05, 0x35, 
	0x7f, 0x37, 0x35, 0x00, 0x7d, 0x35, 0x6e, 0x37, 0x35, 0x00, 
	0x05, 0x35, 0x7f, 0x37, 0x35, 0x00, 0x05, 0x35, 0x6e, 0x37, 
	0x35, 0x00, 0x05, 0x35, 0x6e, 0x37, 0x35, 0x00, 0x05, 0x35, 
	0x6e, 0x37, 0x35, 0x00, 0x05, 0x35, 0x7f, 0x37, 0x35, 0x00, 
	0x7d, 0x35, 0x6e, 0x37, 0x35, 0x00, 0x05, 0x35, 0x7f, 0x37, 
	0x35, 0x00, 0x7d, 0x35, 0x6e, 0x37, 0x35, 0x00, 0x05, 0x31, 
	0x7f, 0x37, 0x31, 0x00, 0x05, 0x31, 0x6e, 0x37, 0x31, 0x00, 
	0x05, 0x31, 0x6e, 0x37, 0x31, 0x00, 0x05, 0x31, 0x6e, 0x37, 
	0x31, 0x00, 0x05, 0x35, 0x7f, 0x37, 0x35, 0x00, 0x7d, 0x35, 
	0x6e, 0x37, 0x35, 0x00, 0x05, 0x35, 0x7f, 0x37, 0x35, 0x00, 
	0x7d, 0x35, 0x6e, 0x37, 0x35, 0x00, 0x05, 0x31, 0x7f, 0x37, 
	0x31, 0x00, 0x05, 0x31, 0x6e, 0x37, 0x31, 0x00, 0x05, 0x31, 
	0x6e, 0x37, 0x31, 0x00, 0x05, 0x31, 0x6e, 0x37, 0x31, 0x00, 
	0x05, 0x35, 0x7f, 0x37, 0x35, 0x00, 0x7d, 0x35, 0x6e, 0x37, 
	0x35, 0x00, 0x05, 0x35, 0x7f, 0x37, 0x35, 0x00, 0x7d, 0x35, 
	0x6e, 0x37, 0x35, 0x00, 0x05, 0x31, 0x7f, 0x37, 0x31, 0x00, 
	0x05, 0x31, 0x6e, 0x37, 0x31, 0x00, 0x05, 0x31, 0x6e, 0x37, 
	0x31, 0x00, 0x05, 0x31, 0x6e, 0x37, 0x31, 0x00, 0x05, 0x35, 
	0x7f, 0x37, 0x35, 0x00, 0x05, 0x35, 0x6e, 0x37, 0x35, 0x00, 
	0x05, 0x35, 0x6e, 0x37, 0x35, 0x00, 0x05, 0x35, 0x6e, 0x37, 
	0x35, 0x00, 0x05, 0x30, 0x7f, 0x37, 0x30, 0x00, 0x05, 0x30, 
	0x6e, 0x37, 0x30, 0x00, 0x05, 0x30, 0x6e, 0x37, 0x30, 0x00, 
	0x05, 0x30, 0x6e, 0x37, 0x30, 0x00, 0x81, 0x39, 0x37, 0x6e, 
	0x37, 0x37, 0x00, 0x05, 0x37, 0x7f, 0x37, 0x37, 0x00, 0x7d, 
	0x37, 0x6e, 0x37, 0x37, 0x00, 0x05, 0x37, 0x7f, 0x37, 0x37, 
	0x00, 0x7d, 0x37, 0x6e, 0x14, 0xba, 0x12, 0x41, 0x23, 0x9a, 
	0x37, 0x00, 0x05, 0x37, 0x7f, 0x37, 0x37, 0x00, 0x05, 0x37, 
	0x6e, 0x37, 0x37, 0x00, 0x05, 0x37, 0x6e, 0x37, 0x37, 0x00, 
	0x05, 0x37, 0x6e, 0x37, 0x37, 0x00, 0x05, 0x37, 0x7f, 0x37, 
	0x37, 0x00, 0x7d, 0x37, 0x6e, 0x37, 0x37, 0x00, 0x05, 0x37, 
	0x7f, 0x37, 0x37, 0x00, 0x7d, 0x37, 0x6e, 0x37, 0x37, 0x00, 
	0x05, 0x37, 0x7f, 0x37, 0x37, 0x00, 0x05, 0x37, 0x6e, 0x37, 
	0x37, 0x00, 0x05, 0x37, 0x6e, 0x37, 0x37, 0x00, 0x05, 0x37, 
	0x6e, 0x37, 0x37, 0x00, 0x05, 0x37, 0x7f, 0x37, 0x37, 0x00, 
	0x7d, 0x37, 0x6e, 0x37, 0x37, 0x00, 0x05, 0x37, 0x7f, 0x37, 
	0x37, 0x00, 0x7d, 0x37, 0x6e, 0x37, 0x37, 0x00, 0x05, 0x37, 
	0x7f, 0x37, 0x37, 0x00, 0x05, 0x37, 0x6e, 0x37, 0x37, 0x00, 
	0x05, 0x37, 0x6e, 0x37, 0x37, 0x00, 0x05, 0x37, 0x6e, 0x37, 
	0x37, 0x00, 0x05, 0x37, 0x7f, 0x37, 0x37, 0x00, 0x7d, 0x37, 
	0x6e, 0x37, 0x37, 0x00, 0x05, 0x37, 0x7f, 0x37, 0x37, 0x00, 
	0x7d, 0x37, 0x6e, 0x37, 0x37, 0x00, 0x05, 0x33, 0x7f, 0x37, 
	0x33, 0x00, 0x05, 0x33, 0x6e, 0x37, 0x33, 0x00, 0x05, 0x33, 
	0x6e, 0x37, 0x33, 0x00, 0x05, 0x33, 0x6e, 0x37, 0x33, 0x00, 
	0x05, 0x37, 0x7f, 0x37, 0x37, 0x00, 0x7d, 0x37, 0x6e, 0x37, 
	0x37, 0x00, 0x05, 0x37, 0x7f, 0x37, 0x37, 0x00, 0x81, 0x39, 
	0x33, 0x7f, 0x37, 0x33, 0x00, 0x05, 0x33, 0x6e, 0x37, 0x33, 
	0x00, 0x05, 0x33, 0x6e, 0x37, 0x33, 0x00, 0x05, 0x33, 0x6e, 
	0x37, 0x33, 0x00, 0x1b, 0x2b, 0x7f, 0x77, 0x2b, 0x00, 0x77, 
	0x2b, 0x7f, 0x00, 0x1f, 0x7f, 0x14, 0x1f, 0x00, 0x00, 0x2b, 
	0x00, 0x61, 0x1f, 0x7f, 0x00, 0x2b, 0x7f, 0x14, 0x2b, 0x00, 
	0x00, 0x1f, 0x00, 0x13, 0x2b, 0x7f, 0x00, 0x1f, 0x7f, 0x14, 
	0x1f, 0x00, 0x00, 0x2b, 0x00, 0x13, 0x1f, 0x7f, 0x00, 0x2b, 
	0x7f, 0x11, 0x2b, 0x00, 0x00, 0x1f, 0x00, 0x1d, 0x2b, 0x7f, 
	0x00, 0x1f, 0x7f, 0x24, 0x1f, 0x00, 0x00, 0x2b, 0x00, 0x53, 
	0x1f, 0x7f, 0x00, 0x2b, 0x7f, 0x16, 0x2b, 0x00, 0x00, 0x1f, 
	0x00, 0x13, 0x2b, 0x7f, 0x00, 0x1f, 0x7f, 0x14, 0x1f, 0x00, 
	0x00, 0x2b, 0x00, 0x13, 0x1f, 0x7f, 0x00, 0x2b, 0x7f, 0x15, 
	0x2b, 0x00, 0x00, 0x1f, 0x00, 0x11, 0x27, 0x7f, 0x00, 0x1b, 
	0x7f, 0x04, 0x3a, 0x7f, 0x12, 0x1b, 0x00, 0x00, 0x27, 0x00, 
	0x08, 0x3a, 0x00, 0x09, 0x27, 0x7f, 0x00, 0x1b, 0x7f, 0x06, 
	0x3a, 0x7f, 0x11, 0x1b, 0x00, 0x00, 0x27, 0x00, 0x05, 0x3a, 
	0x00, 0x0a, 0x27, 0x7f, 0x00, 0x1b, 0x7f, 0x0a, 0x3a, 0x7f, 
	0x0a, 0x1b, 0x00, 0x00, 0x27, 0x00, 0x0a, 0x3a, 0x00, 0x0c, 
	0x27, 0x7f, 0x00, 0x1b, 0x7f, 0x05, 0x3a, 0x7f, 0x17, 0x3a, 
	0x00, 0x01, 0x1b, 0x00, 0x00, 0x27, 0x00, 0x60, 0x2b, 0x7f, 
	0x00, 0x1f, 0x7f, 0x17, 0x1f, 0x00, 0x00, 0x2b, 0x00, 0x81, 
	0x5a, 0x1f, 0x7f, 0x00, 0x2b, 0x7f, 0x12, 0x2b, 0x00, 0x00, 
	0x1f, 0x00, 0x65, 0x2b, 0x7f, 0x00, 0x1f, 0x7f, 0x14, 0x1f, 
	0x00, 0x00, 0x2b, 0x00, 0x14, 0x1f, 0x7f, 0x00, 0x2b, 0x7f, 
	0x13, 0x2b, 0x00, 0x00, 0x1f, 0x00, 0x15, 0x2b, 0x7f, 0x00, 
	0x1f, 0x7f, 0x17, 0x1f, 0x00, 0x00, 0x2b, 0x00, 0x11, 0x1f, 
	0x7f, 0x00, 0x2b, 0x7f, 0x14, 0x2b, 0x00, 0x00, 0x1f, 0x00, 
	0x6c, 0x2b, 0x7f, 0x00, 0x1f, 0x7f, 0x16, 0x1f, 0x00, 0x00, 
	0x2b, 0x00, 0x13, 0x1f, 0x7f, 0x00, 0x2b, 0x7f, 0x15, 0x2b, 
	0x00, 0x00, 0x1f, 0x00, 0x0e, 0x2b, 0x7f, 0x00, 0x1f, 0x7f, 
	0x19, 0x1f, 0x00, 0x00, 0x2b, 0x00, 0x0b, 0x3a, 0x7f, 0x04, 
	0x27, 0x7f, 0x00, 0x1b, 0x7f, 0x15, 0x1b, 0x00, 0x00, 0x27, 
	0x00, 0x00, 0x3a, 0x00, 0x10, 0x3a, 0x7f, 0x00, 0x27, 0x7f, 
	0x00, 0x1b, 0x7f, 0x16, 0x3a, 0x00, 0x05, 0x1b, 0x00, 0x00, 
	0x27, 0x00, 0x0a, 0x1b, 0x7f, 0x00, 0x27, 0x7f, 0x03, 0x3a, 
	0x7f, 0x13, 0x27, 0x00, 0x00, 0x1b, 0x00, 0x04, 0x3a, 0x00, 
	0x0f, 0x3a, 0x7f, 0x00, 0x27, 0x7f, 0x00, 0x1b, 0x7f, 0x19, 
	0x1b, 0x00, 0x00, 0x27, 0x00, 0x04, 0x3a, 0x00, 0x82, 0x4c, 
	0x1f, 0x7f, 0x00, 0x2b, 0x7f, 0x18, 0x2b, 0x00, 0x00, 0x1f, 
	0x00, 0x64, 0x2b, 0x7f, 0x00, 0x1f, 0x7f, 0x15, 0x1f, 0x00, 
	0x00, 0x2b, 0x00, 0x13, 0x1f, 0x7f, 0x00, 0x2b, 0x7f, 0x15, 
	0x2b, 0x00, 0x00, 0x1f, 0x00, 0x12, 0x2b, 0x7f, 0x00, 0x1f, 
	0x7f, 0x17, 0x1f, 0x00, 0x00, 0x2b, 0x00, 0x0f, 0x1f, 0x7f, 
	0x00, 0x2b, 0x7f, 0x16, 0x2b, 0x00, 0x00, 0x1f, 0x00, 0x61, 
	0x2b, 0x7f, 0x00, 0x1f, 0x7f, 0x17, 0x1f, 0x00, 0x00, 0x2b, 
	0x00, 0x12, 0x1f, 0x7f, 0x00, 0x2b, 0x7f, 0x17, 0x2b, 0x00, 
	0x00, 0x1f, 0x00, 0x0f, 0x2b, 0x7f, 0x00, 0x1f, 0x7f, 0x19, 
	0x1f, 0x00, 0x00, 0x2b, 0x00, 0x10, 0x27, 0x7f, 0x00, 0x1b, 
	0x7f, 0x14, 0x1b, 0x00, 0x00, 0x27, 0x00, 0x10, 0x1b, 0x7f, 
	0x00, 0x27, 0x7f, 0x1d, 0x27, 0x00, 0x00, 0x1b, 0x00, 0x0b, 
	0x27, 0x7f, 0x00, 0x1b, 0x7f, 0x17, 0x1b, 0x00, 0x00, 0x27, 
	0x00, 0x13, 0x27, 0x7f, 0x00, 0x1b, 0x7f, 0x1a, 0x1b, 0x00, 
	0x00, 0x27, 0x00, 0x64, 0x1f, 0x7f, 0x00, 0x2b, 0x7f, 0x19, 
	0x2b, 0x00, 0x00, 0x1f, 0x00, 0x81, 0x51, 0x2b, 0x7f, 0x00, 
	0x1f, 0x7f, 0x16, 0x1f, 0x00, 0x00, 0x2b, 0x00, 0x63, 0x1f, 
	0x7f, 0x00, 0x2b, 0x7f, 0x16, 0x2b, 0x00, 0x00, 0x1f, 0x00, 
	0x12, 0x2b, 0x7f, 0x00, 0x1f, 0x7f, 0x16, 0x1f, 0x00, 0x00, 
	0x2b, 0x00, 0x12, 0x1f, 0x7f, 0x00, 0x2b, 0x7f, 0x18, 0x2b, 
	0x00, 0x00, 0x1f, 0x00, 0x0f, 0x2b, 0x7f, 0x00, 0x1f, 0x7f, 
	0x16, 0x1f, 0x00, 0x00, 0x2b, 0x00, 0x5f, 0x1f, 0x7f, 0x00, 
	0x2b, 0x7f, 0x18, 0x2b, 0x00, 0x00, 0x1f, 0x00, 0x10, 0x2b, 
	0x7f, 0x00, 0x1f, 0x7f, 0x17, 0x1f, 0x00, 0x00, 0x2b, 0x00, 
	0x14, 0x1f, 0x7f, 0x00, 0x2b, 0x7f, 0x17, 0x2b, 0x00, 0x00, 
	0x1f, 0x00, 0x11, 0x27, 0x7f, 0x00, 0x1b, 0x7f, 0x16, 0x1b, 
	0x00, 0x00, 0x27, 0x00, 0x12, 0x27, 0x7f, 0x00, 0x1b, 0x7f, 
	0x1a, 0x1b, 0x00, 0x00, 0x27, 0x00, 0x0b, 0x27, 0x7f, 0x00, 
	0x1b, 0x7f, 0x17, 0x1b, 0x00, 0x00, 0x27, 0x00, 0x14, 0x27, 
	0x7f, 0x00, 0x1b, 0x7f, 0x17, 0x1b, 0x00, 0x00, 0x27, 0x00, 
	0x66, 0x1f, 0x7f, 0x00, 0x2b, 0x7f, 0x16, 0x2b, 0x00, 0x00, 
	0x1f, 0x00, 0x81, 0x5b, 0x2b, 0x7f, 0x00, 0x1f, 0x7f, 0x16, 
	0x1f, 0x00, 0x00, 0x2b, 0x00, 0x63, 0x1f, 0x7f, 0x00, 0x2b, 
	0x7f, 0x14, 0x2b, 0x00, 0x00, 0x1f, 0x00, 0x12, 0x2b, 0x7f, 
	0x00, 0x1f, 0x7f, 0x16, 0x1f, 0x00, 0x00, 0x2b, 0x00, 0x12, 
	0x1f, 0x7f, 0x00, 0x2b, 0x7f, 0x19, 0x2b, 0x00, 0x00, 0x1f, 
	0x00, 0x0d, 0x2b, 0x7f, 0x00, 0x1f, 0x7f, 0x17, 0x1f, 0x00, 
	0x00, 0x2b, 0x00, 0x64, 0x1f, 0x7f, 0x00, 0x2b, 0x7f, 0x15, 
	0x2b, 0x00, 0x00, 0x1f, 0x00, 0x12, 0x2b, 0x7f, 0x00, 0x1f, 
	0x7f, 0x14, 0x1f, 0x00, 0x00, 0x2b, 0x00, 0x14, 0x1f, 0x7f, 
	0x00, 0x2b, 0x7f, 0x19, 0x2b, 0x00, 0x00, 0x1f, 0x00, 0x0c, 
	0x3a, 0x7f, 0x01, 0x27, 0x7f, 0x00, 0x1b, 0x7f, 0x16, 0x1b, 
	0x00, 0x00, 0x27, 0x00, 0x01, 0x3a, 0x00, 0x0f, 0x3a, 0x7f, 
	0x02, 0x27, 0x7f, 0x00, 0x1b, 0x7f, 0x16, 0x3a, 0x00, 0x02, 
	0x1b, 0x00, 0x00, 0x27, 0x00, 0x0f, 0x3a, 0x7f, 0x00, 0x27, 
	0x7f, 0x00, 0x1b, 0x7f, 0x17, 0x1b, 0x00, 0x00, 0x27, 0x00, 
	0x03, 0x3a, 0x00, 0x0c, 0x3a, 0x7f, 0x05, 0x27, 0x7f, 0x00, 
	0x1b, 0x7f, 0x19, 0x3a, 0x00, 0x01, 0x1b, 0x00, 0x00, 0x27, 
	0x00, 0x56, 0x27, 0x7f, 0x00, 0x33, 0x7f, 0x1c, 0x33, 0x00, 
	0x05, 0x27, 0x00, 0x81, 0x52, 0x30, 0x7f, 0x00, 0x24, 0x7f, 
	0x1c, 0x30, 0x00, 0x04, 0x24, 0x00, 0x5a, 0x30, 0x7f, 0x00, 
	0x24, 0x7f, 0x1d, 0x30, 0x00, 0x04, 0x24, 0x00, 0x07, 0x24, 
	0x7f, 0x00, 0x30, 0x7f, 0x1c, 0x30, 0x00, 0x02, 0x24, 0x00, 
	0x0a, 0x30, 0x7f, 0x00, 0x24, 0x7f, 0x1c, 0x30, 0x00, 0x03, 
	0x24, 0x00, 0x07, 0x1f, 0x7f, 0x00, 0x2b, 0x7f, 0x15, 0x2b, 
	0x00, 0x00, 0x1f, 0x00, 0x81, 0x0d, 0x2b, 0x7f, 0x00, 0x1f, 
	0x7f, 0x17, 0x1f, 0x00, 0x00, 0x2b, 0x00, 0x10, 0x2b, 0x7f, 
	0x00, 0x1f, 0x7f, 0x1b, 0x1f, 0x00, 0x00, 0x2b, 0x00, 0x0e, 
	0x2b, 0x7f, 0x00, 0x1f, 0x7f, 0x04, 0x32, 0x7f, 0x13, 0x1f, 
	0x00, 0x00, 0x2b, 0x00, 0x02, 0x32, 0x00, 0x0e, 0x2b, 0x7f, 
	0x00, 0x1f, 0x7f, 0x05, 0x32, 0x7f, 0x16, 0x1f, 0x00, 0x00, 
	0x2b, 0x00, 0x04, 0x32, 0x00, 0x08, 0x2b, 0x7f, 0x00, 0x1f, 
	0x7f, 0x07, 0x32, 0x7f, 0x12, 0x1f, 0x00, 0x00, 0x2b, 0x00, 
	0x05, 0x32, 0x00, 0x0a, 0x2b, 0x7f, 0x00, 0x1f, 0x7f, 0x05, 
	0x32, 0x7f, 0x16, 0x1f, 0x00, 0x00, 0x2b, 0x00, 0x05, 0x32, 
	0x00, 0x58, 0x2b, 0x7f, 0x00, 0x1f, 0x7f, 0x17, 0x1f, 0x00, 
	0x00, 0x2b, 0x00, 0x81, 0x5b, 0x1f, 0x7f, 0x00, 0x2b, 0x7f, 
	0x18, 0x2b, 0x00, 0x00, 0x1f, 0x00, 0x64, 0x2b, 0x7f, 0x00, 
	0x1f, 0x7f, 0x15, 0x1f, 0x00, 0x00, 0x2b, 0x00, 0x13, 0x1f, 
	0x7f, 0x00, 0x2b, 0x7f, 0x15, 0x2b, 0x00, 0x00, 0x1f, 0x00, 
	0x12, 0x2b, 0x7f, 0x00, 0x1f, 0x7f, 0x17, 0x1f, 0x00, 0x00, 
	0x2b, 0x00, 0x0f, 0x1f, 0x7f, 0x00, 0x2b, 0x7f, 0x16, 0x2b, 
	0x00, 0x00, 0x1f, 0x00, 0x61, 0x2b, 0x7f, 0x00, 0x1f, 0x7f, 
	0x17, 0x1f, 0x00, 0x00, 0x2b, 0x00, 0x12, 0x1f, 0x7f, 0x00, 
	0x2b, 0x7f, 0x17, 0x2b, 0x00, 0x00, 0x1f, 0x00, 0x0f, 0x2b, 
	0x7f, 0x00, 0x1f, 0x7f, 0x19, 0x1f, 0x00, 0x00, 0x2b, 0x00, 
	0x10, 0x27, 0x7f, 0x00, 0x1b, 0x7f, 0x14, 0x1b, 0x00, 0x00, 
	0x27, 0x00, 0x10, 0x1b, 0x7f, 0x00, 0x27, 0x7f, 0x1d, 0x27, 
	0x00, 0x00, 0x1b, 0x00, 0x0b, 0x27, 0x7f, 0x00, 0x1b, 0x7f, 
	0x17, 0x1b, 0x00, 0x00, 0x27, 0x00, 0x13, 0x27, 0x7f, 0x00, 
	0x1b, 0x7f, 0x1a, 0x1b, 0x00, 0x00, 0x27, 0x00, 0x5c, 0x31, 
	0x7f, 0x08, 0x25, 0x7f, 0x11, 0x31, 0x00, 0x08, 0x25, 0x00, 
	0x81, 0x4c, 0x31, 0x7f, 0x05, 0x25, 0x7f, 0x11, 0x31, 0x00, 
	0x05, 0x25, 0x00, 0x63, 0x31, 0x7f, 0x00, 0x25, 0x7f, 0x16, 
	0x25, 0x00, 0x00, 0x31, 0x00, 0x12, 0x31, 0x7f, 0x00, 0x25, 
	0x7f, 0x16, 0x25, 0x00, 0x00, 0x31, 0x00, 0x12, 0x31, 0x7f, 
	0x00, 0x25, 0x7f, 0x18, 0x25, 0x00, 0x00, 0x31, 0x00, 0x0f, 
	0x31, 0x7f, 0x00, 0x25, 0x7f, 0x16, 0x25, 0x00, 0x00, 0x31, 
	0x00, 0x5f, 0x25, 0x7f, 0x00, 0x31, 0x7f, 0x18, 0x31, 0x00, 
	0x00, 0x25, 0x00, 0x10, 0x31, 0x7f, 0x00, 0x25, 0x7f, 0x17, 
	0x25, 0x00, 0x00, 0x31, 0x00, 0x14, 0x31, 0x7f, 0x00, 0x25, 
	0x7f, 0x17, 0x25, 0x00, 0x00, 0x31, 0x00, 0x11, 0x31, 0x7f, 
	0x00, 0x25, 0x7f, 0x16, 0x25, 0x00, 0x00, 0x31, 0x00, 0x12, 
	0x31, 0x7f, 0x00, 0x25, 0x7f, 0x1a, 0x25, 0x00, 0x00, 0x31, 
	0x00, 0x0b, 0x31, 0x7f, 0x00, 0x25, 0x7f, 0x17, 0x25, 0x00, 
	0x00, 0x31, 0x00, 0x14, 0x31, 0x7f, 0x00, 0x25, 0x7f, 0x17, 
	0x25, 0x00, 0x00, 0x31, 0x00, 0x5f, 0x33, 0x7f, 0x05, 0x27, 
	0x7f, 0x14, 0x33, 0x00, 0x02, 0x27, 0x00, 0x81, 0x52, 0x33, 
	0x7f, 0x00, 0x27, 0x7f, 0x16, 0x27, 0x00, 0x00, 0x33, 0x00, 
	0x68, 0x27, 0x7f, 0x00, 0x33, 0x7f, 0x16, 0x33, 0x00, 0x00, 
	0x27, 0x00, 0x12, 0x33, 0x7f, 0x00, 0x27, 0x7f, 0x16, 0x27, 
	0x00, 0x00, 0x33, 0x00, 0x0f, 0x33, 0x7f, 0x03, 0x27, 0x7f, 
	0x15, 0x33, 0x00, 0x03, 0x27, 0x00, 0x0f, 0x26, 0x7f, 0x00, 
	0x32, 0x7f, 0x33, 0x32, 0x00, 0x0c, 0x26, 0x00, 0x81, 0x31, 
	0x30, 0x7f, 0x00, 0x24, 0x7f, 0x16, 0x24, 0x00, 0x00, 0x30, 
	0x00, 0x12, 0x24, 0x7f, 0x00, 0x30, 0x7f, 0x1a, 0x30, 0x00, 
	0x00, 0x24, 0x00, 0x0b, 0x30, 0x7f, 0x00, 0x24, 0x7f, 0x17, 
	0x24, 0x00, 0x00, 0x30, 0x00, 0x14, 0x24, 0x7f, 0x00, 0x30, 
	0x7f, 0x17, 0x30, 0x00, 0x00, 0x24, 0x00, 0x63, 0x2b, 0x7f, 
	0x00, 0x1f, 0x7f, 0x18, 0x1f, 0x00, 0x00, 0x2b, 0x00, 0x81, 
	0x56, 0x27, 0x7f, 0x00, 0x33, 0x7f, 0x16, 0x33, 0x00, 0x00, 
	0x27, 0x00, 0x12, 0x33, 0x7f, 0x00, 0x27, 0x7f, 0x1a, 0x27, 
	0x00, 0x00, 0x33, 0x00, 0x0b, 0x27, 0x7f, 0x00, 0x33, 0x7f, 
	0x17, 0x33, 0x00, 0x00, 0x27, 0x00, 0x14, 0x33, 0x7f, 0x02, 
	0x27, 0x7f, 0x15, 0x33, 0x00, 0x03, 0x27, 0x00, 0x64, 0x1f, 
	0x7f, 0x00, 0x2b, 0x7f, 0x15, 0x2b, 0x00, 0x00, 0x1f, 0x00, 
	0x5f, 0x2b, 0x7f, 0x00, 0x1f, 0x7f, 0x17, 0x1f, 0x00, 0x00, 
	0x2b, 0x00, 0x12, 0x1f, 0x7f, 0x00, 0x2b, 0x7f, 0x17, 0x2b, 
	0x00, 0x00, 0x1f, 0x00, 0x10, 0x2b, 0x7f, 0x00, 0x1f, 0x7f, 
	0x19, 0x1f, 0x00, 0x00, 0x2b, 0x00, 0x0f, 0x1f, 0x7f, 0x00, 
	0x2b, 0x7f, 0x14, 0x2b, 0x00, 0x00, 0x1f, 0x00, 0x13, 0x2b, 
	0x7f, 0x00, 0x1f, 0x7f, 0x1a, 0x1f, 0x00, 0x00, 0x2b, 0x00, 
	0x0e, 0x1f, 0x7f, 0x00, 0x2b, 0x7f, 0x16, 0x2b, 0x00, 0x00, 
	0x1f, 0x00, 0x13, 0x2b, 0x7f, 0x00, 0x1f, 0x7f, 0x14, 0x1f, 
	0x00, 0x00, 0x2b, 0x00, 0x13, 0x1f, 0x7f, 0x00, 0x2b, 0x7f, 
	0x1a, 0x2b, 0x00, 0x00, 0x1f, 0x00, 0x0e, 0x2b, 0x7f, 0x00, 
	0x1f, 0x7f, 0x16, 0x1f, 0x00, 0x00, 0x2b, 0x00, 0x11, 0x27, 
	0x7f, 0x00, 0x33, 0x7f, 0x17, 0x33, 0x00, 0x00, 0x27, 0x00, 
	0x81, 0x5b, 0x33, 0x7f, 0x00, 0x27, 0x7f, 0x18, 0x27, 0x00, 
	0x00, 0x33, 0x00, 0x64, 0x27, 0x7f, 0x00, 0x33, 0x7f, 0x15, 
	0x33, 0x00, 0x00, 0x27, 0x00, 0x13, 0x33, 0x7f, 0x00, 0x27, 
	0x7f, 0x15, 0x27, 0x00, 0x00, 0x33, 0x00, 0x12, 0x27, 0x7f, 
	0x00, 0x33, 0x7f, 0x17, 0x33, 0x00, 0x00, 0x27, 0x00, 0x0f, 
	0x2b, 0x7f, 0x00, 0x1f, 0x7f, 0x16, 0x1f, 0x00, 0x00, 0x2b, 
	0x00, 0x61, 0x1f, 0x7f, 0x00, 0x2b, 0x7f, 0x17, 0x2b, 0x00, 
	0x00, 0x1f, 0x00, 0x12, 0x2b, 0x7f, 0x00, 0x1f, 0x7f, 0x17, 
	0x1f, 0x00, 0x00, 0x2b, 0x00, 0x0f, 0x1f, 0x7f, 0x00, 0x2b, 
	0x7f, 0x19, 0x2b, 0x00, 0x00, 0x1f, 0x00, 0x10, 0x27, 0x7f, 
	0x00, 0x1b, 0x7f, 0x14, 0x1b, 0x00, 0x00, 0x27, 0x00, 0x10, 
	0x1b, 0x7f, 0x00, 0x27, 0x7f, 0x1d, 0x27, 0x00, 0x00, 0x1b, 
	0x00, 0x0b, 0x27, 0x7f, 0x00, 0x1b, 0x7f, 0x17, 0x1b, 0x00, 
	0x00, 0x27, 0x00, 0x13, 0x27, 0x7f, 0x00, 0x1b, 0x7f, 0x1a, 
	0x1b, 0x00, 0x00, 0x27, 0x00, 0x5c, 0x31, 0x7f, 0x08, 0x25, 
	0x7f, 0x11, 0x31, 0x00, 0x08, 0x25, 0x00, 0x81, 0x4c, 0x31, 
	0x7f, 0x05, 0x25, 0x7f, 0x11, 0x31, 0x00, 0x05, 0x25, 0x00, 
	0x63, 0x31, 0x7f, 0x00, 0x25, 0x7f, 0x16, 0x25, 0x00, 0x00, 
	0x31, 0x00, 0x12, 0x31, 0x7f, 0x00, 0x25, 0x7f, 0x16, 0x25, 
	0x00, 0x00, 0x31, 0x00, 0x12, 0x31, 0x7f, 0x00, 0x25, 0x7f, 
	0x18, 0x25, 0x00, 0x00, 0x31, 0x00, 0x0f, 0x31, 0x7f, 0x00, 
	0x25, 0x7f, 0x16, 0x25, 0x00, 0x00, 0x31, 0x00, 0x5f, 0x25, 
	0x7f, 0x00, 0x31, 0x7f, 0x18, 0x31, 0x00, 0x00, 0x25, 0x00, 
	0x10, 0x31, 0x7f, 0x00, 0x25, 0x7f, 0x17, 0x25, 0x00, 0x00, 
	0x31, 0x00, 0x14, 0x31, 0x7f, 0x00, 0x25, 0x7f, 0x17, 0x25, 
	0x00, 0x00, 0x31, 0x00, 0x11, 0x31, 0x7f, 0x00, 0x25, 0x7f, 
	0x16, 0x25, 0x00, 0x00, 0x31, 0x00, 0x12, 0x31, 0x7f, 0x00, 
	0x25, 0x7f, 0x1a, 0x25, 0x00, 0x00, 0x31, 0x00, 0x0b, 0x31, 
	0x7f, 0x00, 0x25, 0x7f, 0x17, 0x25, 0x00, 0x00, 0x31, 0x00, 
	0x14, 0x25, 0x7f, 0x00, 0x31, 0x7f, 0x17, 0x31, 0x00, 0x00, 
	0x25, 0x00, 0x5f, 0x33, 0x7f, 0x05, 0x27, 0x7f, 0x14, 0x33, 
	0x00, 0x02, 0x27, 0x00, 0x81, 0x52, 0x33, 0x7f, 0x00, 0x27, 
	0x7f, 0x16, 0x27, 0x00, 0x00, 0x33, 0x00, 0x68, 0x27, 0x7f, 
	0x00, 0x33, 0x7f, 0x16, 0x33, 0x00, 0x00, 0x27, 0x00, 0x12, 
	0x33, 0x7f, 0x00, 0x27, 0x7f, 0x16, 0x27, 0x00, 0x00, 0x33, 
	0x00, 0x12, 0x27, 0x7f, 0x00, 0x33, 0x7f, 0x18, 0x33, 0x00, 
	0x00, 0x27, 0x00, 0x0f, 0x33, 0x7f, 0x00, 0x27, 0x7f, 0x16, 
	0x27, 0x00, 0x00, 0x33, 0x00, 0x81, 0x5a, 0x24, 0x7f, 0x00, 
	0x30, 0x7f, 0x16, 0x30, 0x00, 0x00, 0x24, 0x00, 0x12, 0x30, 
	0x7f, 0x00, 0x24, 0x7f, 0x1a, 0x24, 0x00, 0x00, 0x30, 0x00, 
	0x0b, 0x24, 0x7f, 0x00, 0x30, 0x7f, 0x17, 0x30, 0x00, 0x00, 
	0x24, 0x00, 0x14, 0x30, 0x7f, 0x00, 0x24, 0x7f, 0x17, 0x24, 
	0x00, 0x00, 0x30, 0x00, 0x63, 0x1f, 0x7f, 0x00, 0x2b, 0x7f, 
	0x18, 0x2b, 0x00, 0x00, 0x1f, 0x00, 0x81, 0x56, 0x33, 0x7f, 
	0x00, 0x27, 0x7f, 0x16, 0x27, 0x00, 0x00, 0x33, 0x00, 0x12, 
	0x27, 0x7f, 0x00, 0x33, 0x7f, 0x1a, 0x33, 0x00, 0x00, 0x27, 
	0x00, 0x0b, 0x33, 0x7f, 0x00, 0x27, 0x7f, 0x17, 0x27, 0x00, 
	0x00, 0x33, 0x00, 0x14, 0x27, 0x7f, 0x00, 0x33, 0x7f, 0x17, 
	0x33, 0x00, 0x00, 0x27, 0x00, 0x67, 0x2b, 0x7f, 0x00, 0x1f, 
	0x7f, 0x15, 0x1f, 0x00, 0x00, 0x2b, 0x00, 0x5f, 0x1f, 0x7f, 
	0x00, 0x2b, 0x7f, 0x17, 0x2b, 0x00, 0x00, 0x1f, 0x00, 0x11, 
	0x2b, 0x7f, 0x00, 0x1f, 0x7f, 0x17, 0x1f, 0x00, 0x00, 0x2b, 
	0x00, 0x11, 0x1f, 0x7f, 0x00, 0x2b, 0x7f, 0x19, 0x2b, 0x00, 
	0x00, 0x1f, 0x00, 0x0f, 0x2b, 0x7f, 0x00, 0x1f, 0x7f, 0x14, 
	0x1f, 0x00, 0x00, 0x2b, 0x00, 0x13, 0x1f, 0x7f, 0x00, 0x2b, 
	0x7f, 0x1a, 0x2b, 0x00, 0x00, 0x1f, 0x00, 0x0e, 0x2b, 0x7f, 
	0x00, 0x1f, 0x7f, 0x16, 0x1f, 0x00, 0x00, 0x2b, 0x00, 0x13, 
	0x1f, 0x7f, 0x00, 0x2b, 0x7f, 0x1a, 0x2b, 0x00, 0x00, 0x1f, 
	0x00, 0xb9, 0x0d, 0x19, 0x7f, 0x86, 0x76, 0x19, 0x00, 0x96, 
	0x04, 0x26, 0x37, 0x52, 0x27, 0x39, 0x19, 0x26, 0x00, 0x28, 
	0x27, 0x00, 0x99, 0x7e, 0x39, 0x3f, 0x82, 0x6e, 0x39, 0x00, 
	0x73, 0x39, 0x37, 0x82, 0x76, 0x39, 0x00, 0x72, 0x39, 0x37, 
	0x82, 0x47, 0x39, 0x00, 0x81, 0x0c, 0x30, 0x54, 0x10, 0x39, 
	0x37, 0x82, 0x4a, 0x39, 0x00, 0x81, 0x14, 0x39, 0x45, 0x81, 
	0x51, 0x2f, 0x54, 0x0a, 0x30, 0x00, 0x7e, 0x39, 0x00, 0x81, 
	0x06, 0x39, 0x3f, 0x06, 0x2d, 0x54, 0x02, 0x2f, 0x00, 0x82, 
	0x1b, 0x39, 0x00, 0x81, 0x30, 0x39, 0x3b, 0x82, 0x07, 0x2b, 
	0x58, 0x12, 0x2d, 0x00, 0x4d, 0x39, 0x00, 0x81, 0x02, 0x39, 
	0x3b, 0x0f, 0x2b, 0x00, 0x82, 0x5a, 0x39, 0x00, 0x7e, 0x39, 
	0x37, 0x82, 0x52, 0x39, 0x00, 0x81, 0x0f, 0x39, 0x37, 0x82, 
	0x38, 0x39, 0x00, 0x81, 0x2b, 0x39, 0x37, 0x82, 0x50, 0x39, 
	0x00, 0x81, 0x07, 0x26, 0x58, 0x08, 0x39, 0x37, 0x82, 0x61, 
	0x39, 0x00, 0x7f, 0x2c, 0x54, 0x00, 0x39, 0x37, 0x0d, 0x26, 
	0x00, 0x81, 0x6f, 0x39, 0x00, 0x81, 0x6e, 0x2c, 0x00, 0x06, 
	0x39, 0x3f, 0x82, 0x01, 0x39, 0x00, 0x81, 0x52, 0x39, 0x48, 
	0x81, 0x65, 0x39, 0x00, 0x81, 0x73, 0x39, 0x37, 0x81, 0x6d, 
	0x39, 0x00, 0x81, 0x6b, 0x39, 0x37, 0x82, 0x02, 0x39, 0x00, 
	0xa7, 0x5e, 0x32, 0x53, 0x37, 0x32, 0x00, 0x05, 0x31, 0x6a, 
	0x37, 0x31, 0x00, 0x05, 0x2e, 0x6a, 0x37, 0x2e, 0x00, 0x00, 
	0x1e, 0x79, 0x05, 0x2d, 0x6a, 0x37, 0x2d, 0x00, 0x05, 0x2e, 
	0x6a, 0x09, 0x1e, 0x00, 0x2e, 0x2e, 0x00, 0x00, 0x1c, 0x79, 
	0x05, 0x31, 0x6a, 0x37, 0x31, 0x00, 0x05, 0x32, 0x6b, 0x1f, 
	0x1c, 0x00, 0x18, 0x32, 0x00, 0x05, 0x2d, 0x6b, 0x37, 0x2d, 
	0x00, 0x05, 0x2e, 0x6b, 0x37, 0x2e, 0x00, 0x05, 0x31, 0x6b, 
	0x37, 0x31, 0x00, 0x05, 0x32, 0x6b, 0x37, 0x32, 0x00, 0x41, 
	0x32, 0x55, 0x37, 0x32, 0x00, 0x05, 0x31, 0x6d, 0x37, 0x31, 
	0x00, 0x05, 0x2e, 0x6d, 0x37, 0x2e, 0x00, 0x00, 0x1e, 0x7b, 
	0x05, 0x2d, 0x6d, 0x37, 0x2d, 0x00, 0x05, 0x2e, 0x6d, 0x1d, 
	0x1e, 0x00, 0x1a, 0x2e, 0x00, 0x05, 0x31, 0x6d, 0x37, 0x31, 
	0x00, 0x05, 0x32, 0x6d, 0x37, 0x32, 0x00, 0x00, 0x1c, 0x7c, 
	0x05, 0x34, 0x6e, 0x37, 0x34, 0x00, 0x05, 0x36, 0x6e, 0x11, 
	0x1c, 0x00, 0x26, 0x36, 0x00, 0x05, 0x37, 0x6e, 0x37, 0x37, 
	0x00, 0x05, 0x39, 0x6e, 0x37, 0x39, 0x00, 0x81, 0x39, 0x32, 
	0x58, 0x37, 0x32, 0x00, 0x05, 0x32, 0x71, 0x37, 0x32, 0x00, 
	0x05, 0x34, 0x71, 0x37, 0x34, 0x00, 0x05, 0x36, 0x71, 0x37, 
	0x36, 0x00, 0x05, 0x37, 0x58, 0x37, 0x37, 0x00, 0x00, 0x1e, 
	0x7e, 0x05, 0x37, 0x71, 0x37, 0x37, 0x00, 0x05, 0x39, 0x72, 
	0x0e, 0x1e, 0x00, 0x29, 0x39, 0x00, 0x00, 0x1c, 0x7f, 0x05, 
	0x3a, 0x72, 0x37, 0x3a, 0x00, 0x05, 0x3c, 0x72, 0x09, 0x1c, 
	0x00, 0x2e, 0x3c, 0x00, 0x41, 0x3d, 0x59, 0x37, 0x3d, 0x00, 
	0x05, 0x3c, 0x74, 0x37, 0x3c, 0x00, 0x05, 0x3a, 0x74, 0x37, 
	0x3a, 0x00, 0x00, 0x1e, 0x7f, 0x05, 0x32, 0x74, 0x37, 0x32, 
	0x00, 0x18, 0x1e, 0x00, 0x65, 0x39, 0x5b, 0x37, 0x39, 0x00, 
	0x00, 0x1c, 0x7f, 0x05, 0x3d, 0x74, 0x37, 0x3d, 0x00, 0x05, 
	0x3c, 0x74, 0x1a, 0x1c, 0x00, 0x1d, 0x3c, 0x00, 0x05, 0x3a, 
	0x74, 0x37, 0x3a, 0x00, 0x05, 0x32, 0x74, 0x37, 0x32, 0x00, 
	0x81, 0x39, 0x32, 0x5d, 0x37, 0x32, 0x00, 0x05, 0x32, 0x75, 
	0x37, 0x32, 0x00, 0x05, 0x34, 0x75, 0x37, 0x34, 0x00, 0x00, 
	0x21, 0x7f, 0x05, 0x36, 0x75, 0x37, 0x36, 0x00, 0x05, 0x37, 
	0x75, 0x16, 0x21, 0x00, 0x21, 0x37, 0x00, 0x00, 0x1e, 0x7f, 
	0x05, 0x39, 0x75, 0x37, 0x39, 0x00, 0x05, 0x3a, 0x75, 0x07, 
	0x1e, 0x00, 0x30, 0x3a, 0x00, 0x00, 0x1c, 0x7f, 0x05, 0x3c, 
	0x75, 0x37, 0x3c, 0x00, 0x05, 0x3d, 0x75, 0x0e, 0x1c, 0x00, 
	0x29, 0x3d, 0x00, 0x41, 0x3d, 0x5f, 0x37, 0x3d, 0x00, 0x05, 
	0x3c, 0x76, 0x37, 0x3c, 0x00, 0x05, 0x3a, 0x76, 0x37, 0x3a, 
	0x00, 0x00, 0x1e, 0x7f, 0x41, 0x3d, 0x60, 0x31, 0x1e, 0x00, 
	0x06, 0x3d, 0x00, 0x05, 0x3c, 0x76, 0x37, 0x3c, 0x00, 0x05, 
	0x3a, 0x76, 0x37, 0x3a, 0x00, 0x00, 0x1c, 0x7f, 0x05, 0x32, 
	0x76, 0x37, 0x32, 0x00, 0x1d, 0x1c, 0x00, 0x60, 0x32, 0x61, 
	0x37, 0x32, 0x00, 0x05, 0x37, 0x76, 0x37, 0x37, 0x00, 0x05, 
	0x39, 0x76, 0x37, 0x39, 0x00, 0x00, 0x22, 0x7f, 0x05, 0x3a, 
	0x76, 0x37, 0x3a, 0x00, 0x05, 0x3c, 0x77, 0x0e, 0x22, 0x00, 
	0x29, 0x3c, 0x00, 0x00, 0x21, 0x7f, 0x51, 0x21, 0x00, 0x27, 
	0x1f, 0x7f, 0x05, 0x37, 0x77, 0x37, 0x37, 0x00, 0x05, 0x1f, 
	0x00, 0x00, 0x39, 0x77, 0x37, 0x39, 0x00, 0x00, 0x1e, 0x7f, 
	0x05, 0x3a, 0x77, 0x37, 0x3a, 0x00, 0x05, 0x3c, 0x77, 0x0e, 
	0x1e, 0x00, 0x29, 0x3c, 0x00, 0x00, 0x1c, 0x7f, 0x05, 0x3d, 
	0x77, 0x37, 0x3d, 0x00, 0x05, 0x3f, 0x77, 0x11, 0x1c, 0x00, 
	0x26, 0x3f, 0x00, 0x05, 0x22, 0x7f, 0x85, 0x2e, 0x22, 0x00, 
	0x22, 0x27, 0x70, 0x81, 0x02, 0x27, 0x00, 0x6e, 0x22, 0x70, 
	0x85, 0x46, 0x22, 0x00, 0x0a, 0x27, 0x70, 0x81, 0x1b, 0x27, 
	0x00, 0x55, 0x1f, 0x70, 0x85, 0x4c, 0x1f, 0x00, 0x04, 0x29, 
	0x70, 0x81, 0x15, 0x29, 0x00, 0x5b, 0x1f, 0x70, 0x85, 0x50, 
	0x29, 0x70, 0x14, 0x1f, 0x00, 0x66, 0x29, 0x00, 0x81, 0x00, 
	0x1d, 0x59, 0x00, 0x32, 0x58, 0x81, 0x66, 0x33, 0x5b, 0x00, 
	0x1e, 0x5b, 0x1e, 0x32, 0x00, 0x00, 0x1d, 0x00, 0x85, 0x28, 
	0x33, 0x00, 0x00, 0x1e, 0x00, 0x14, 0x1f, 0x5f, 0x00, 0x34, 
	0x5f, 0x83, 0x56, 0x34, 0x00, 0x00, 0x1f, 0x00, 0x00, 0x33, 
	0x61, 0x00, 0x1e, 0x61, 0x81, 0x70, 0x1f, 0x63, 0x00, 0x34, 
	0x63, 0x0a, 0x1e, 0x00, 0x00, 0x33, 0x00, 0x81, 0x72, 0x2a, 
	0x65, 0x08, 0x1f, 0x00, 0x00, 0x34, 0x00, 0x02, 0x33, 0x5c, 
	0x81, 0x6d, 0x34, 0x56, 0x00, 0x2b, 0x65, 0x0a, 0x2a, 0x00, 
	0x0a, 0x33, 0x00, 0x81, 0x45, 0x33, 0x47, 0x0a, 0x2a, 0x61, 
	0x28, 0x34, 0x00, 0x00, 0x2b, 0x00, 0x81, 0x30, 0x34, 0x6a, 
	0x0a, 0x2b, 0x6a, 0x1b, 0x33, 0x00, 0x0a, 0x2a, 0x00, 0x81, 
	0x3c, 0x33, 0x6a, 0x17, 0x2b, 0x00, 0x07, 0x2a, 0x6a, 0x25, 
	0x34, 0x00, 0x81, 0x37, 0x34, 0x6c, 0x14, 0x2b, 0x6c, 0x03, 
	0x2a, 0x00, 0x2e, 0x33, 0x00, 0x81, 0x26, 0x33, 0x6e, 0x13, 
	0x34, 0x00, 0x01, 0x2a, 0x6e, 0x13, 0x2b, 0x00, 0x81, 0x46, 
	0x34, 0x6e, 0x14, 0x2b, 0x6e, 0x12, 0x33, 0x00, 0x14, 0x2a, 
	0x00, 0x81, 0x2e, 0x34, 0x00, 0x14, 0x2b, 0x00, 0x09, 0x2f, 
	0x5a, 0x81, 0x7f, 0x33, 0x5f, 0x14, 0x2f, 0x00, 0x81, 0x61, 
	0x36, 0x63, 0x0f, 0x33, 0x00, 0x81, 0x5b, 0x38, 0x68, 0x2f, 
	0x36, 0x00, 0x81, 0x43, 0x3a, 0x6e, 0x0e, 0x38, 0x00, 0x83, 
	0x3c, 0x3a, 0x00, 0x06, 0x3d, 0x6d, 0x01, 0x46, 0x5c, 0x31, 
	0x44, 0x5f, 0x0f, 0x46, 0x00, 0x18, 0x42, 0x60, 0x10, 0x44, 
	0x00, 0x10, 0x40, 0x62, 0x06, 0x42, 0x00, 0x18, 0x40, 0x00, 
	0x0a, 0x3f, 0x62, 0x28, 0x3d, 0x00, 0x00, 0x3d, 0x62, 0x01, 
	0x3f, 0x00, 0x25, 0x3d, 0x00, 0x01, 0x3f, 0x70, 0x01, 0x3b, 
	0x62, 0x27, 0x3b, 0x00, 0x01, 0x3a, 0x62, 0x28, 0x38, 0x62, 
	0x0b, 0x3a, 0x00, 0x1d, 0x36, 0x62, 0x0e, 0x38, 0x00, 0x19, 
	0x34, 0x62, 0x02, 0x36, 0x00, 0x26, 0x33, 0x62, 0x05, 0x34, 
	0x00, 0x19, 0x3e, 0x72, 0x0a, 0x3f, 0x00, 0x01, 0x32, 0x62, 
	0x05, 0x33, 0x00, 0x03, 0x22, 0x3d, 0x81, 0x67, 0x3e, 0x00, 
	0x04, 0x3a, 0x67, 0x81, 0x5d, 0x32, 0x00, 0x82, 0x03, 0x3e, 
	0x68, 0x10, 0x3a, 0x00, 0x81, 0x34, 0x22, 0x00, 0x27, 0x3c, 
	0x69, 0x05, 0x3e, 0x00, 0x82, 0x20, 0x3c, 0x00, 0x85, 0x18, 
	0x44, 0x4f, 0x87, 0x3a, 0x44, 0x00, 0x9f, 0x70, 0x26, 0x6a, 
	0x3b, 0x26, 0x00, 0x15, 0x26, 0x6a, 0x37, 0x26, 0x00, 0x1a, 
	0x26, 0x6a, 0x36, 0x26, 0x00, 0x1a, 0x26, 0x6a, 0x7c, 0x26, 
	0x00, 0x00, 0xff, 0x2f, 0x00, 0x4d, 0x54, 0x72, 0x6b, 0x00, 
	0x00, 0x06, 0x16, 0x00, 0xff, 0x03, 0x08, 0x54, 0x72, 0x61, 
	0x63, 0x6b, 0x20, 0x31, 0x30, 0x00, 0xcb, 0x2c, 0x00, 0xbb, 
	0x07, 0x7c, 0x00, 0xff, 0x7f, 0x05, 0x05, 0x0f, 0x09, 0x00, 
	0x40, 0x00, 0xff, 0x7f, 0x0f, 0x05, 0x0f, 0x06, 0x47, 0x65, 
	0x6e, 0x65, 0x72, 0x61, 0x6c, 0x20, 0x4d, 0x49, 0x44, 0x49, 
	0x00, 0xbb, 0x12, 0x00, 0x1e, 0x12, 0x40, 0x82, 0xc3, 0x58, 
	0x9b, 0x2b, 0x7f, 0x00, 0x1f, 0x7f, 0x17, 0x1f, 0x00, 0x00, 
	0x2b, 0x00, 0x10, 0x2b, 0x7f, 0x00, 0x1f, 0x7f, 0x1b, 0x1f, 
	0x00, 0x00, 0x2b, 0x00, 0x0e, 0x2b, 0x7f, 0x00, 0x1f, 0x7f, 
	0x04, 0x32, 0x7f, 0x13, 0x1f, 0x00, 0x00, 0x2b, 0x00, 0x02, 
	0x32, 0x00, 0x0e, 0x2b, 0x7f, 0x00, 0x1f, 0x7f, 0x05, 0x32, 
	0x7f, 0x16, 0x1f, 0x00, 0x00, 0x2b, 0x00, 0x04, 0x32, 0x00, 
	0x08, 0x2b, 0x7f, 0x00, 0x1f, 0x7f, 0x07, 0x32, 0x7f, 0x12, 
	0x1f, 0x00, 0x00, 0x2b, 0x00, 0x05, 0x32, 0x00, 0x0a, 0x2b, 
	0x7f, 0x00, 0x1f, 0x7f, 0x05, 0x32, 0x7f, 0x16, 0x1f, 0x00, 
	0x00, 0x2b, 0x00, 0x05, 0x32, 0x00, 0x62, 0x24, 0x7f, 0x78, 
	0x37, 0x6a, 0x05, 0x33, 0x7f, 0x0a, 0x37, 0x00, 0x05, 0x33, 
	0x00, 0x14, 0x37, 0x5c, 0x05, 0x33, 0x6a, 0x07, 0x37, 0x00, 
	0x00, 0x24, 0x00, 0x03, 0x33, 0x00, 0x11, 0x33, 0x6a, 0x05, 
	0x37, 0x53, 0x14, 0x37, 0x00, 0x05, 0x33, 0x00, 0x0f, 0x2f, 
	0x77, 0x00, 0x38, 0x7f, 0x13, 0x38, 0x00, 0x06, 0x2f, 0x00, 
	0x0f, 0x38, 0x6a, 0x05, 0x2f, 0x6a, 0x0a, 0x38, 0x00, 0x0a, 
	0x2f, 0x00, 0x0d, 0x38, 0x5c, 0x03, 0x2f, 0x6a, 0x13, 0x2f, 
	0x00, 0x05, 0x38, 0x00, 0x0e, 0x35, 0x6a, 0x05, 0x32, 0x77, 
	0x10, 0x35, 0x00, 0x05, 0x32, 0x00, 0x0f, 0x35, 0x53, 0x05, 
	0x32, 0x5c, 0x0f, 0x35, 0x00, 0x03, 0x32, 0x00, 0x0f, 0x35, 
	0x6a, 0x03, 0x32, 0x59, 0x0f, 0x35, 0x00, 0x0d, 0x32, 0x00, 
	0x1d, 0x24, 0x7f, 0x65, 0x37, 0x6a, 0x09, 0x3f, 0x7f, 0x0a, 
	0x37, 0x00, 0x06, 0x3f, 0x00, 0x0b, 0x37, 0x7f, 0x03, 0x24, 
	0x00, 0x0a, 0x3f, 0x6a, 0x07, 0x37, 0x00, 0x05, 0x3f, 0x00, 
	0x0f, 0x37, 0x77, 0x08, 0x3f, 0x6a, 0x0d, 0x37, 0x00, 0x05, 
	0x3f, 0x00, 0x12, 0x33, 0x77, 0x04, 0x3e, 0x6a, 0x0d, 0x33, 
	0x00, 0x05, 0x3e, 0x00, 0x13, 0x33, 0x7f, 0x03, 0x3e, 0x6a, 
	0x0f, 0x33, 0x00, 0x01, 0x3e, 0x00, 0x10, 0x33, 0x7f, 0x05, 
	0x3e, 0x5c, 0x0d, 0x33, 0x00, 0x0c, 0x3e, 0x00, 0x10, 0x3b, 
	0x5c, 0x02, 0x36, 0x7f, 0x12, 0x36, 0x00, 0x02, 0x3b, 0x00, 
	0x14, 0x3b, 0x6a, 0x01, 0x36, 0x5c, 0x10, 0x36, 0x00, 0x03, 
	0x3b, 0x00, 0x0d, 0x36, 0x6a, 0x07, 0x3b, 0x5c, 0x0c, 0x36, 
	0x00, 0x06, 0x3b, 0x00, 0x0f, 0x24, 0x53, 0x7a, 0x43, 0x7f, 
	0x00, 0x3b, 0x7f, 0x11, 0x3b, 0x00, 0x00, 0x43, 0x00, 0x17, 
	0x3b, 0x7f, 0x01, 0x43, 0x5a, 0x0f, 0x3b, 0x00, 0x01, 0x43, 
	0x00, 0x13, 0x43, 0x52, 0x00, 0x3b, 0x5a, 0x10, 0x3b, 0x00, 
	0x08, 0x43, 0x00, 0x0b, 0x26, 0x54, 0x06, 0x24, 0x00, 0x05, 
	0x42, 0x7f, 0x06, 0x3c, 0x7e, 0x0e, 0x42, 0x00, 0x03, 0x3c, 
	0x00, 0x0a, 0x3c, 0x65, 0x08, 0x42, 0x7f, 0x0c, 0x3c, 0x00, 
	0x06, 0x42, 0x00, 0x0c, 0x3c, 0x68, 0x07, 0x42, 0x74, 0x12, 
	0x3c, 0x00, 0x03, 0x42, 0x00, 0x13, 0x36, 0x77, 0x05, 0x3e, 
	0x61, 0x0d, 0x36, 0x00, 0x08, 0x3e, 0x00, 0x0e, 0x36, 0x5a, 
	0x0a, 0x3e, 0x5a, 0x06, 0x36, 0x00, 0x0c, 0x3e, 0x00, 0x08, 
	0x36, 0x7f, 0x0c, 0x3e, 0x4c, 0x07, 0x36, 0x00, 0x06, 0x27, 
	0x59, 0x09, 0x3e, 0x00, 0x06, 0x41, 0x7f, 0x04, 0x39, 0x77, 
	0x10, 0x41, 0x00, 0x01, 0x26, 0x00, 0x01, 0x39, 0x00, 0x0f, 
	0x41, 0x79, 0x03, 0x39, 0x61, 0x10, 0x41, 0x00, 0x04, 0x39, 
	0x00, 0x11, 0x41, 0x61, 0x03, 0x39, 0x68, 0x0c, 0x41, 0x00, 
	0x0f, 0x39, 0x00, 0x0d, 0x3f, 0x7f, 0x02, 0x37, 0x74, 0x0d, 
	0x3f, 0x00, 0x06, 0x37, 0x00, 0x0f, 0x3f, 0x61, 0x04, 0x37, 
	0x65, 0x0b, 0x3f, 0x00, 0x06, 0x37, 0x00, 0x0e, 0x3f, 0x68, 
	0x09, 0x37, 0x7f, 0x0f, 0x3f, 0x00, 0x04, 0x37, 0x00, 0x08, 
	0x29, 0x5c, 0x02, 0x27, 0x00, 0x07, 0x3b, 0x79, 0x05, 0x33, 
	0x7f, 0x0f, 0x3b, 0x00, 0x03, 0x33, 0x00, 0x11, 0x3b, 0x72, 
	0x04, 0x33, 0x7f, 0x10, 0x3b, 0x00, 0x03, 0x33, 0x00, 0x11, 
	0x3b, 0x4c, 0x01, 0x33, 0x77, 0x12, 0x3b, 0x00, 0x01, 0x33, 
	0x00, 0x0f, 0x38, 0x56, 0x0b, 0x2f, 0x79, 0x0c, 0x38, 0x00, 
	0x06, 0x2f, 0x00, 0x13, 0x38, 0x68, 0x02, 0x2f, 0x7f, 0x0a, 
	0x38, 0x00, 0x09, 0x2f, 0x00, 0x0c, 0x38, 0x72, 0x07, 0x2f, 
	0x7f, 0x0a, 0x38, 0x00, 0x0a, 0x2f, 0x00, 0x08, 0x29, 0x00, 
	0x09, 0x32, 0x7f, 0x06, 0x26, 0x7f, 0x0a, 0x2d, 0x77, 0x53, 
	0x32, 0x00, 0x10, 0x26, 0x00, 0x12, 0x39, 0x6a, 0x05, 0x35, 
	0x7f, 0x0a, 0x39, 0x00, 0x05, 0x35, 0x00, 0x03, 0x2d, 0x00, 
	0x11, 0x39, 0x5c, 0x05, 0x35, 0x6a, 0x07, 0x39, 0x00, 0x03, 
	0x35, 0x00, 0x11, 0x35, 0x6a, 0x05, 0x39, 0x53, 0x14, 0x39, 
	0x00, 0x05, 0x35, 0x00, 0x0f, 0x31, 0x77, 0x00, 0x3a, 0x7f, 
	0x13, 0x3a, 0x00, 0x06, 0x31, 0x00, 0x0f, 0x3a, 0x6a, 0x05, 
	0x31, 0x6a, 0x0a, 0x3a, 0x00, 0x0a, 0x31, 0x00, 0x0d, 0x3a, 
	0x5c, 0x03, 0x31, 0x6a, 0x13, 0x31, 0x00, 0x05, 0x3a, 0x00, 
	0x0e, 0x37, 0x6a, 0x05, 0x34, 0x77, 0x10, 0x37, 0x00, 0x05, 
	0x34, 0x00, 0x0f, 0x37, 0x53, 0x05, 0x34, 0x5c, 0x0f, 0x37, 
	0x00, 0x03, 0x34, 0x00, 0x0f, 0x37, 0x6a, 0x03, 0x34, 0x59, 
	0x0f, 0x37, 0x00, 0x0d, 0x34, 0x00, 0x09, 0x26, 0x7f, 0x02, 
	0x32, 0x7f, 0x0f, 0x2d, 0x7f, 0x46, 0x32, 0x00, 0x08, 0x26, 
	0x00, 0x1a, 0x39, 0x6a, 0x09, 0x41, 0x7f, 0x0a, 0x39, 0x00, 
	0x06, 0x41, 0x00, 0x04, 0x2d, 0x00, 0x07, 0x39, 0x7f, 0x0d, 
	0x41, 0x6a, 0x07, 0x39, 0x00, 0x05, 0x41, 0x00, 0x0f, 0x39, 
	0x77, 0x08, 0x41, 0x6a, 0x0d, 0x39, 0x00, 0x05, 0x41, 0x00, 
	0x12, 0x35, 0x77, 0x04, 0x40, 0x6a, 0x0d, 0x35, 0x00, 0x05, 
	0x40, 0x00, 0x13, 0x35, 0x7f, 0x03, 0x40, 0x6a, 0x0f, 0x35, 
	0x00, 0x01, 0x40, 0x00, 0x10, 0x35, 0x7f, 0x05, 0x40, 0x5c, 
	0x0d, 0x35, 0x00, 0x0c, 0x40, 0x00, 0x10, 0x3d, 0x5c, 0x02, 
	0x38, 0x7f, 0x12, 0x38, 0x00, 0x02, 0x3d, 0x00, 0x14, 0x3d, 
	0x6a, 0x01, 0x38, 0x5c, 0x10, 0x38, 0x00, 0x03, 0x3d, 0x00, 
	0x0d, 0x38, 0x6a, 0x07, 0x3d, 0x5c, 0x0c, 0x38, 0x00, 0x06, 
	0x3d, 0x00, 0x0f, 0x32, 0x7f, 0x00, 0x26, 0x7f, 0x5d, 0x32, 
	0x00, 0x06, 0x26, 0x00, 0x17, 0x45, 0x7f, 0x00, 0x3d, 0x7f, 
	0x11, 0x3d, 0x00, 0x00, 0x45, 0x00, 0x17, 0x3d, 0x7f, 0x01, 
	0x45, 0x5a, 0x0f, 0x3d, 0x00, 0x01, 0x45, 0x00, 0x13, 0x45, 
	0x52, 0x00, 0x3d, 0x5a, 0x10, 0x3d, 0x00, 0x08, 0x45, 0x00, 
	0x16, 0x44, 0x7f, 0x06, 0x3e, 0x7e, 0x00, 0x2f, 0x68, 0x0e, 
	0x44, 0x00, 0x03, 0x3e, 0x00, 0x0a, 0x3e, 0x65, 0x08, 0x44, 
	0x7f, 0x0c, 0x3e, 0x00, 0x06, 0x44, 0x00, 0x0c, 0x3e, 0x68, 
	0x07, 0x44, 0x74, 0x12, 0x3e, 0x00, 0x03, 0x44, 0x00, 0x13, 
	0x38, 0x77, 0x05, 0x40, 0x61, 0x0d, 0x38, 0x00, 0x08, 0x40, 
	0x00, 0x0e, 0x38, 0x5a, 0x0a, 0x40, 0x5a, 0x06, 0x38, 0x00, 
	0x0c, 0x40, 0x00, 0x08, 0x38, 0x7f, 0x0c, 0x40, 0x4c, 0x07, 
	0x38, 0x00, 0x0f, 0x40, 0x00, 0x06, 0x43, 0x7f, 0x04, 0x3b, 
	0x77, 0x08, 0x30, 0x5e, 0x08, 0x43, 0x00, 0x02, 0x3b, 0x00, 
	0x05, 0x2f, 0x00, 0x0a, 0x43, 0x79, 0x03, 0x3b, 0x61, 0x10, 
	0x43, 0x00, 0x04, 0x3b, 0x00, 0x11, 0x43, 0x61, 0x03, 0x3b, 
	0x68, 0x0c, 0x43, 0x00, 0x0f, 0x3b, 0x00, 0x0d, 0x41, 0x7f, 
	0x02, 0x39, 0x74, 0x0d, 0x41, 0x00, 0x06, 0x39, 0x00, 0x0f, 
	0x41, 0x61, 0x04, 0x39, 0x65, 0x0b, 0x41, 0x00, 0x06, 0x39, 
	0x00, 0x0e, 0x41, 0x68, 0x09, 0x39, 0x7f, 0x0f, 0x41, 0x00, 
	0x04, 0x39, 0x00, 0x11, 0x3d, 0x79, 0x05, 0x35, 0x7f, 0x0f, 
	0x3d, 0x00, 0x01, 0x31, 0x5a, 0x02, 0x35, 0x00, 0x11, 0x3d, 
	0x72, 0x04, 0x35, 0x7f, 0x01, 0x30, 0x00, 0x0f, 0x3d, 0x00, 
	0x03, 0x35, 0x00, 0x11, 0x3d, 0x4c, 0x01, 0x35, 0x77, 0x12, 
	0x3d, 0x00, 0x01, 0x35, 0x00, 0x0f, 0x3a, 0x56, 0x0b, 0x31, 
	0x00, 0x00, 0x31, 0x79, 0x0c, 0x3a, 0x00, 0x06, 0x31, 0x00, 
	0x13, 0x3a, 0x57, 0x02, 0x31, 0x6d, 0x0a, 0x3a, 0x00, 0x09, 
	0x31, 0x00, 0x0f, 0x3a, 0x5f, 0x09, 0x31, 0x77, 0x07, 0x3a, 
	0x00, 0x0d, 0x31, 0x00, 0x11, 0x34, 0x58, 0x26, 0x35, 0x4d, 
	0x00, 0x2f, 0x4d, 0x0c, 0x34, 0x00, 0x18, 0x2f, 0x00, 0x02, 
	0x37, 0x45, 0x02, 0x29, 0x4a, 0x06, 0x35, 0x00, 0x20, 0x38, 
	0x37, 0x04, 0x37, 0x00, 0x00, 0x28, 0x63, 0x0d, 0x29, 0x00, 
	0x19, 0x37, 0x4a, 0x00, 0x27, 0x4d, 0x05, 0x28, 0x00, 0x03, 
	0x38, 0x00, 0x1e, 0x37, 0x00, 0x00, 0x38, 0x4a, 0x02, 0x27, 
	0x00, 0x00, 0x28, 0x4d, 0x2a, 0x2c, 0x58, 0x00, 0x35, 0x58, 
	0x01, 0x28, 0x00, 0x07, 0x38, 0x00, 0x1a, 0x35, 0x00, 0x02, 
	0x34, 0x4a, 0x09, 0x2b, 0x4d, 0x05, 0x2c, 0x00, 0x1a, 0x35, 
	0x45, 0x02, 0x2c, 0x4d, 0x07, 0x34, 0x00, 0x05, 0x2b, 0x00, 
	0x1a, 0x3c, 0x4d, 0x03, 0x2c, 0x00, 0x00, 0x2f, 0x4d, 0x01, 
	0x35, 0x00, 0x24, 0x3c, 0x00, 0x00, 0x3b, 0x4a, 0x04, 0x2f, 
	0x00, 0x00, 0x2e, 0x63, 0x23, 0x3b, 0x00, 0x01, 0x3c, 0x4d, 
	0x03, 0x2e, 0x00, 0x00, 0x2f, 0x58, 0x22, 0x2f, 0x00, 0x01, 
	0x3c, 0x00, 0x09, 0x34, 0x58, 0x02, 0x3c, 0x58, 0x24, 0x3b, 
	0x45, 0x02, 0x30, 0x4a, 0x03, 0x34, 0x00, 0x07, 0x3c, 0x00, 
	0x1a, 0x2f, 0x4a, 0x01, 0x39, 0x4a, 0x01, 0x30, 0x00, 0x02, 
	0x3b, 0x00, 0x26, 0x35, 0x58, 0x08, 0x2f, 0x00, 0x01, 0x38, 
	0x45, 0x18, 0x39, 0x00, 0x06, 0x34, 0x3f, 0x06, 0x38, 0x00, 
	0x02, 0x3b, 0x4a, 0x01, 0x35, 0x00, 0x1f, 0x30, 0x58, 0x05, 
	0x40, 0x58, 0x01, 0x3b, 0x00, 0x09, 0x34, 0x00, 0x0d, 0x40, 
	0x00, 0x03, 0x30, 0x00, 0x09, 0x29, 0x4a, 0x09, 0x40, 0x58, 
	0x1f, 0x2c, 0x45, 0x04, 0x40, 0x00, 0x04, 0x3c, 0x4a, 0x07, 
	0x29, 0x00, 0x1a, 0x2f, 0x4a, 0x02, 0x3b, 0x4d, 0x01, 0x2c, 
	0x00, 0x04, 0x3c, 0x00, 0x23, 0x3b, 0x00, 0x00, 0x30, 0x4a, 
	0x01, 0x2f, 0x00, 0x02, 0x38, 0x4a, 0x22, 0x30, 0x00, 0x01, 
	0x2f, 0x4d, 0x07, 0x40, 0x4d, 0x07, 0x38, 0x00, 0x1a, 0x30, 
	0x4d, 0x00, 0x44, 0x4d, 0x03, 0x40, 0x00, 0x01, 0x2f, 0x00, 
	0x14, 0x44, 0x00, 0x12, 0x30, 0x00, 0x83, 0x60, 0x35, 0x7f, 
	0x00, 0x3d, 0x77, 0x03, 0x26, 0x7f, 0x00, 0x31, 0x6c, 0x32, 
	0x35, 0x00, 0x04, 0x3d, 0x00, 0x03, 0x31, 0x00, 0x01, 0x26, 
	0x00, 0x83, 0x23, 0x35, 0x7f, 0x00, 0x3d, 0x77, 0x03, 0x31, 
	0x77, 0x04, 0x26, 0x7f, 0x2c, 0x26, 0x00, 0x04, 0x35, 0x00, 
	0x02, 0x3d, 0x00, 0x04, 0x31, 0x00, 0x83, 0x24, 0x35, 0x7f, 
	0x00, 0x3d, 0x77, 0x04, 0x31, 0x77, 0x00, 0x26, 0x7f, 0x0a, 
	0x19, 0x7f, 0x1b, 0x35, 0x00, 0x04, 0x3d, 0x00, 0x09, 0x26, 
	0x00, 0x07, 0x31, 0x00, 0x6a, 0x19, 0x00, 0x00, 0xff, 0x2f, 
	0x00, 0x4d, 0x54, 0x72, 0x6b, 0x00, 0x00, 0x08, 0x64, 0x00, 
	0xff, 0x03, 0x08, 0x54, 0x72, 0x61, 0x63, 0x6b, 0x20, 0x31, 
	0x31, 0x00, 0xc5, 0x2f, 0x00, 0xb5, 0x07, 0x6d, 0x00, 0xff, 
	0x7f, 0x05, 0x05, 0x0f, 0x09, 0x00, 0x40, 0x00, 0xff, 0x7f, 
	0x0f, 0x05, 0x0f, 0x06, 0x47, 0x65, 0x6e, 0x65, 0x72, 0x61, 
	0x6c, 0x20, 0x4d, 0x49, 0x44, 0x49, 0x00, 0xb5, 0x12, 0x00, 
	0x14, 0x12, 0x40, 0x87, 0x2c, 0x95, 0x22, 0x48, 0x00, 0x2e, 
	0x77, 0x85, 0x25, 0x2e, 0x00, 0x00, 0x22, 0x00, 0x8f, 0x7c, 
	0x29, 0x57, 0x42, 0x29, 0x00, 0x3c, 0x29, 0x57, 0x38, 0x29, 
	0x00, 0x40, 0x29, 0x57, 0x40, 0x29, 0x00, 0x81, 0x7c, 0x2e, 
	0x45, 0x16, 0x2e, 0x00, 0x10, 0x2e, 0x47, 0x13, 0x2e, 0x00, 
	0x14, 0x2e, 0x47, 0x82, 0x2c, 0x2e, 0x00, 0x41, 0x2e, 0x3f, 
	0x11, 0x2e, 0x00, 0x12, 0x2e, 0x47, 0x11, 0x2e, 0x00, 0x12, 
	0x2e, 0x47, 0x15, 0x2e, 0x00, 0x1e, 0x2e, 0x47, 0x2e, 0x2e, 
	0x00, 0x46, 0x29, 0x47, 0x2e, 0x29, 0x00, 0x91, 0x03, 0x1d, 
	0x3d, 0x0d, 0x1d, 0x00, 0x03, 0x1d, 0x35, 0x0e, 0x1d, 0x00, 
	0x04, 0x1d, 0x3d, 0x0b, 0x1d, 0x00, 0x08, 0x1d, 0x46, 0x79, 
	0x1d, 0x00, 0x81, 0x70, 0x1d, 0x38, 0x14, 0x1d, 0x00, 0x0a, 
	0x1d, 0x3d, 0x10, 0x1d, 0x00, 0x18, 0x1d, 0x3f, 0x10, 0x1d, 
	0x00, 0x21, 0x1d, 0x37, 0x2b, 0x1d, 0x00, 0x4e, 0x1d, 0x34, 
	0x2e, 0x1d, 0x00, 0x46, 0x22, 0x49, 0x81, 0x52, 0x22, 0x00, 
	0x19, 0x21, 0x47, 0x81, 0x43, 0x21, 0x00, 0x30, 0x21, 0x47, 
	0x81, 0x0a, 0x21, 0x00, 0x00, 0x21, 0x41, 0x0e, 0x21, 0x00, 
	0x5b, 0x22, 0x37, 0x26, 0x22, 0x00, 0x29, 0x22, 0x38, 0x24, 
	0x22, 0x00, 0x1e, 0x21, 0x41, 0x2d, 0x21, 0x00, 0x31, 0x1f, 
	0x49, 0x81, 0x58, 0x1f, 0x00, 0x1c, 0x1f, 0x47, 0x81, 0x22, 
	0x1f, 0x00, 0x8b, 0x68, 0x35, 0x41, 0x02, 0x29, 0x41, 0x81, 
	0x2d, 0x35, 0x00, 0x0d, 0x29, 0x00, 0x28, 0x1d, 0x47, 0x02, 
	0x29, 0x47, 0x24, 0x29, 0x00, 0x02, 0x1d, 0x00, 0x20, 0x1d, 
	0x49, 0x05, 0x29, 0x3e, 0x21, 0x1d, 0x00, 0x04, 0x29, 0x00, 
	0x21, 0x1d, 0x47, 0x05, 0x29, 0x3e, 0x23, 0x1d, 0x00, 0x0a, 
	0x29, 0x00, 0x2b, 0x1d, 0x49, 0x04, 0x29, 0x47, 0x81, 0x4e, 
	0x1d, 0x00, 0x02, 0x29, 0x00, 0xb6, 0x5d, 0x29, 0x76, 0x26, 
	0x29, 0x00, 0x81, 0x0e, 0x29, 0x3e, 0x2f, 0x29, 0x00, 0x0d, 
	0x29, 0x6f, 0x29, 0x29, 0x00, 0x81, 0x0b, 0x29, 0x3e, 0x26, 
	0x29, 0x00, 0x16, 0x29, 0x69, 0x24, 0x29, 0x00, 0x18, 0x29, 
	0x48, 0x26, 0x29, 0x00, 0x16, 0x29, 0x63, 0x20, 0x29, 0x00, 
	0x1c, 0x29, 0x45, 0x2b, 0x29, 0x00, 0x11, 0x29, 0x69, 0x29, 
	0x29, 0x00, 0x81, 0x0b, 0x29, 0x44, 0x2d, 0x29, 0x00, 0x0f, 
	0x29, 0x71, 0x2a, 0x29, 0x00, 0x81, 0x0a, 0x29, 0x49, 0x29, 
	0x29, 0x00, 0x13, 0x29, 0x6c, 0x26, 0x29, 0x00, 0x16, 0x29, 
	0x44, 0x29, 0x29, 0x00, 0x13, 0x29, 0x68, 0x1e, 0x29, 0x00, 
	0x1e, 0x29, 0x44, 0x2b, 0x29, 0x00, 0x11, 0x29, 0x6a, 0x29, 
	0x29, 0x00, 0x81, 0x0b, 0x29, 0x48, 0x29, 0x29, 0x00, 0x13, 
	0x29, 0x6f, 0x2b, 0x29, 0x00, 0x81, 0x09, 0x29, 0x41, 0x2b, 
	0x29, 0x00, 0x11, 0x29, 0x6a, 0x29, 0x29, 0x00, 0x13, 0x29, 
	0x47, 0x21, 0x29, 0x00, 0x1b, 0x29, 0x66, 0x26, 0x29, 0x00, 
	0x16, 0x29, 0x47, 0x24, 0x29, 0x00, 0x18, 0x29, 0x69, 0x2e, 
	0x29, 0x00, 0x81, 0x06, 0x29, 0x4e, 0x2d, 0x29, 0x00, 0x0f, 
	0x29, 0x6f, 0x2b, 0x29, 0x00, 0x81, 0x09, 0x29, 0x49, 0x26, 
	0x29, 0x00, 0x16, 0x29, 0x69, 0x26, 0x29, 0x00, 0x16, 0x29, 
	0x49, 0x2d, 0x29, 0x00, 0x0f, 0x29, 0x5e, 0x1e, 0x29, 0x00, 
	0x1e, 0x29, 0x4d, 0x2f, 0x29, 0x00, 0x0d, 0x29, 0x6b, 0x2e, 
	0x29, 0x00, 0x81, 0x06, 0x29, 0x49, 0x2d, 0x29, 0x00, 0x0f, 
	0x29, 0x6b, 0x2d, 0x29, 0x00, 0x81, 0x07, 0x29, 0x44, 0x2b, 
	0x29, 0x00, 0x11, 0x29, 0x69, 0x29, 0x29, 0x00, 0x13, 0x29, 
	0x47, 0x14, 0x29, 0x00, 0x28, 0x29, 0x66, 0x26, 0x29, 0x00, 
	0x16, 0x29, 0x44, 0x26, 0x29, 0x00, 0x16, 0x29, 0x6f, 0x32, 
	0x29, 0x00, 0x81, 0x02, 0x29, 0x49, 0x30, 0x29, 0x00, 0x0c, 
	0x29, 0x70, 0x2e, 0x29, 0x00, 0x81, 0x06, 0x29, 0x41, 0x26, 
	0x29, 0x00, 0x16, 0x29, 0x6a, 0x2b, 0x29, 0x00, 0x11, 0x29, 
	0x4e, 0x26, 0x29, 0x00, 0x16, 0x29, 0x6b, 0x20, 0x29, 0x00, 
	0x1c, 0x29, 0x4e, 0x34, 0x29, 0x00, 0x08, 0x29, 0x6a, 0x2e, 
	0x29, 0x00, 0x81, 0x06, 0x29, 0x49, 0x29, 0x29, 0x00, 0x13, 
	0x29, 0x6b, 0x2b, 0x29, 0x00, 0x81, 0x09, 0x29, 0x4f, 0x2e, 
	0x29, 0x00, 0x0e, 0x29, 0x70, 0x26, 0x29, 0x00, 0x16, 0x29, 
	0x52, 0x21, 0x29, 0x00, 0x1b, 0x29, 0x6a, 0x24, 0x29, 0x00, 
	0x18, 0x29, 0x5f, 0x2f, 0x29, 0x00, 0x0d, 0x29, 0x57, 0x20, 
	0x29, 0x00, 0x1c, 0x29, 0x4c, 0x28, 0x29, 0x00, 0x14, 0x29, 
	0x56, 0x25, 0x29, 0x00, 0x17, 0x29, 0x4d, 0x25, 0x29, 0x00, 
	0x17, 0x24, 0x58, 0x20, 0x24, 0x00, 0x1c, 0x24, 0x52, 0x23, 
	0x24, 0x00, 0x19, 0x24, 0x5f, 0x1f, 0x24, 0x00, 0x1d, 0x24, 
	0x56, 0x29, 0x24, 0x00, 0x09, 0x2b, 0x77, 0x4b, 0x2b, 0x00, 
	0x73, 0x2b, 0x57, 0x1b, 0x2b, 0x00, 0x21, 0x2b, 0x6c, 0x46, 
	0x2b, 0x00, 0x6e, 0x2b, 0x57, 0x1b, 0x2b, 0x00, 0x21, 0x2b, 
	0x74, 0x3c, 0x2b, 0x00, 0x78, 0x2b, 0x58, 0x1e, 0x2b, 0x00, 
	0x1e, 0x2b, 0x70, 0x28, 0x2b, 0x00, 0x14, 0x2b, 0x58, 0x0c, 
	0x2b, 0x00, 0x30, 0x2b, 0x6b, 0x1f, 0x2b, 0x00, 0x1d, 0x2b, 
	0x60, 0x25, 0x2b, 0x00, 0x17, 0x2b, 0x74, 0x37, 0x2b, 0x00, 
	0x7d, 0x2b, 0x5e, 0x14, 0x2b, 0x00, 0x28, 0x2b, 0x70, 0x2b, 
	0x2b, 0x00, 0x81, 0x09, 0x2b, 0x57, 0x20, 0x2b, 0x00, 0x1c, 
	0x2b, 0x70, 0x23, 0x2b, 0x00, 0x19, 0x2b, 0x56, 0x20, 0x2b, 
	0x00, 0x1c, 0x2b, 0x69, 0x11, 0x2b, 0x00, 0x2b, 0x2b, 0x59, 
	0x2f, 0x2b, 0x00, 0x0d, 0x2b, 0x74, 0x2a, 0x2b, 0x00, 0x81, 
	0x0a, 0x2b, 0x59, 0x25, 0x2b, 0x00, 0x17, 0x2b, 0x70, 0x23, 
	0x2b, 0x00, 0x81, 0x11, 0x2b, 0x50, 0x1a, 0x2b, 0x00, 0x22, 
	0x2b, 0x70, 0x1f, 0x2b, 0x00, 0x1d, 0x2b, 0x50, 0x1c, 0x2b, 
	0x00, 0x20, 0x2b, 0x6b, 0x17, 0x2b, 0x00, 0x25, 0x2b, 0x57, 
	0x2a, 0x2b, 0x00, 0x12, 0x2b, 0x73, 0x34, 0x2b, 0x00, 0x81, 
	0x00, 0x2b, 0x4e, 0x25, 0x2b, 0x00, 0x17, 0x2b, 0x6a, 0x39, 
	0x2b, 0x00, 0x7b, 0x2b, 0x53, 0x29, 0x2b, 0x00, 0x13, 0x2b, 
	0x6c, 0x28, 0x2b, 0x00, 0x14, 0x2b, 0x55, 0x0f, 0x2b, 0x00, 
	0x2d, 0x2b, 0x6c, 0x20, 0x2b, 0x00, 0x1c, 0x2b, 0x56, 0x2a, 
	0x2b, 0x00, 0x12, 0x2b, 0x75, 0x47, 0x2b, 0x00, 0x6d, 0x2b, 
	0x58, 0x28, 0x2b, 0x00, 0x14, 0x2b, 0x6a, 0x37, 0x2b, 0x00, 
	0x7d, 0x2b, 0x58, 0x28, 0x2b, 0x00, 0x14, 0x2b, 0x6c, 0x25, 
	0x2b, 0x00, 0x17, 0x2b, 0x5f, 0x20, 0x2b, 0x00, 0x1c, 0x2b, 
	0x73, 0x1e, 0x2b, 0x00, 0x1e, 0x2b, 0x60, 0x25, 0x2b, 0x00, 
	0x17, 0x2b, 0x70, 0x30, 0x2b, 0x00, 0x85, 0x2d, 0x27, 0x77, 
	0x19, 0x27, 0x00, 0x0f, 0x27, 0x77, 0x19, 0x27, 0x00, 0x13, 
	0x27, 0x77, 0x1e, 0x27, 0x00, 0x08, 0x27, 0x77, 0x19, 0x27, 
	0x00, 0x86, 0x35, 0x27, 0x77, 0x1a, 0x27, 0x00, 0x0e, 0x27, 
	0x77, 0x19, 0x27, 0x00, 0x13, 0x27, 0x77, 0x1e, 0x27, 0x00, 
	0x0b, 0x27, 0x77, 0x19, 0x27, 0x00, 0x86, 0x22, 0x27, 0x77, 
	0x1d, 0x27, 0x00, 0x15, 0x27, 0x77, 0x16, 0x27, 0x00, 0x14, 
	0x27, 0x77, 0x19, 0x27, 0x00, 0x0d, 0x27, 0x77, 0x16, 0x27, 
	0x00, 0x86, 0x2a, 0x27, 0x77, 0x1b, 0x27, 0x00, 0x0e, 0x27, 
	0x77, 0x1a, 0x27, 0x00, 0x14, 0x27, 0x77, 0x19, 0x27, 0x00, 
	0x0f, 0x27, 0x77, 0x13, 0x27, 0x00, 0x86, 0x30, 0x27, 0x77, 
	0x1c, 0x27, 0x00, 0x0b, 0x27, 0x77, 0x16, 0x27, 0x00, 0x18, 
	0x27, 0x77, 0x19, 0x27, 0x00, 0x13, 0x27, 0x77, 0x19, 0x27, 
	0x00, 0x86, 0x29, 0x27, 0x77, 0x1a, 0x27, 0x00, 0x15, 0x27, 
	0x77, 0x15, 0x27, 0x00, 0x1b, 0x27, 0x77, 0x15, 0x27, 0x00, 
	0x0e, 0x27, 0x77, 0x19, 0x27, 0x00, 0x86, 0x32, 0x2b, 0x77, 
	0x1d, 0x2b, 0x00, 0x15, 0x2b, 0x77, 0x16, 0x2b, 0x00, 0x14, 
	0x2b, 0x77, 0x19, 0x2b, 0x00, 0x0d, 0x2b, 0x77, 0x16, 0x2b, 
	0x00, 0x53, 0x31, 0x77, 0x3b, 0x31, 0x00, 0x85, 0x0d, 0x31, 
	0x77, 0x1b, 0x31, 0x00, 0x0e, 0x31, 0x77, 0x1a, 0x31, 0x00, 
	0x14, 0x31, 0x77, 0x19, 0x31, 0x00, 0x0f, 0x31, 0x77, 0x13, 
	0x31, 0x00, 0x86, 0x31, 0x2a, 0x77, 0x1d, 0x2a, 0x00, 0x15, 
	0x2a, 0x77, 0x16, 0x2a, 0x00, 0x14, 0x2a, 0x77, 0x19, 0x2a, 
	0x00, 0x0d, 0x2a, 0x77, 0x16, 0x2a, 0x00, 0x86, 0x34, 0x2b, 
	0x77, 0x1b, 0x2b, 0x00, 0x0e, 0x2b, 0x77, 0x1a, 0x2b, 0x00, 
	0x14, 0x2b, 0x77, 0x19, 0x2b, 0x00, 0x0f, 0x2b, 0x77, 0x1a, 
	0x2b, 0x00, 0x0e, 0x2b, 0x77, 0x1a, 0x2b, 0x00, 0x14, 0x2b, 
	0x77, 0x13, 0x33, 0x77, 0x06, 0x2b, 0x00, 0x32, 0x33, 0x00, 
	0x85, 0x1e, 0x2b, 0x77, 0x1d, 0x2b, 0x00, 0x15, 0x2b, 0x77, 
	0x16, 0x2b, 0x00, 0x14, 0x2b, 0x77, 0x19, 0x2b, 0x00, 0x0d, 
	0x2b, 0x77, 0x16, 0x2b, 0x00, 0x53, 0x31, 0x77, 0x3b, 0x31, 
	0x00, 0x85, 0x12, 0x31, 0x77, 0x1b, 0x31, 0x00, 0x0e, 0x31, 
	0x77, 0x1a, 0x31, 0x00, 0x14, 0x31, 0x77, 0x19, 0x31, 0x00, 
	0x0f, 0x31, 0x77, 0x13, 0x31, 0x00, 0x86, 0x2c, 0x2a, 0x77, 
	0x1d, 0x2a, 0x00, 0x15, 0x2a, 0x77, 0x16, 0x2a, 0x00, 0x14, 
	0x2a, 0x77, 0x19, 0x2a, 0x00, 0x0d, 0x2a, 0x77, 0x16, 0x2a, 
	0x00, 0x86, 0x2d, 0x2b, 0x77, 0x1b, 0x2b, 0x00, 0x0d, 0x2b, 
	0x77, 0x1b, 0x2b, 0x00, 0x25, 0x2b, 0x77, 0x19, 0x2b, 0x00, 
	0x0f, 0x2b, 0x77, 0x13, 0x2b, 0x00, 0x4a, 0x32, 0x77, 0x07, 
	0x32, 0x00, 0x00, 0x32, 0x77, 0x08, 0x32, 0x00, 0x81, 0x5c, 
	0x27, 0x77, 0x1a, 0x27, 0x00, 0x15, 0x27, 0x77, 0x15, 0x27, 
	0x00, 0x1b, 0x27, 0x77, 0x15, 0x27, 0x00, 0x0e, 0x27, 0x77, 
	0x19, 0x27, 0x00, 0x61, 0x2f, 0x77, 0x81, 0x6e, 0x2f, 0x00, 
	0x8d, 0x0d, 0x32, 0x76, 0x64, 0x32, 0x00, 0x83, 0x07, 0x32, 
	0x77, 0x5a, 0x32, 0x00, 0x82, 0x7f, 0x32, 0x77, 0x59, 0x32, 
	0x00, 0x8e, 0x1f, 0x34, 0x77, 0x5c, 0x34, 0x00, 0x1e, 0x2e, 
	0x77, 0x58, 0x2e, 0x00, 0x22, 0x34, 0x77, 0x4e, 0x34, 0x00, 
	0x2d, 0x2e, 0x77, 0x4c, 0x2e, 0x00, 0x27, 0x34, 0x77, 0x49, 
	0x34, 0x00, 0x2f, 0x2e, 0x63, 0x50, 0x2e, 0x00, 0x2b, 0x34, 
	0x77, 0x4b, 0x34, 0x00, 0x2c, 0x2e, 0x77, 0x55, 0x2e, 0x00, 
	0x1f, 0x34, 0x77, 0x5c, 0x34, 0x00, 0x1e, 0x2e, 0x77, 0x58, 
	0x2e, 0x00, 0x22, 0x34, 0x77, 0x4e, 0x34, 0x00, 0x2d, 0x2e, 
	0x77, 0x4c, 0x2e, 0x00, 0x27, 0x34, 0x77, 0x49, 0x34, 0x00, 
	0x2f, 0x2e, 0x63, 0x50, 0x2e, 0x00, 0x2b, 0x34, 0x77, 0x4b, 
	0x34, 0x00, 0x2c, 0x2e, 0x77, 0x55, 0x2e, 0x00, 0x21, 0x34, 
	0x77, 0x46, 0x34, 0x00, 0x2f, 0x2e, 0x77, 0x50, 0x2e, 0x00, 
	0x29, 0x34, 0x77, 0x49, 0x34, 0x00, 0x2e, 0x2e, 0x77, 0x50, 
	0x2e, 0x00, 0x2b, 0x34, 0x77, 0x4b, 0x34, 0x00, 0x29, 0x2e, 
	0x77, 0x4f, 0x2e, 0x00, 0x2d, 0x34, 0x77, 0x4b, 0x34, 0x00, 
	0x29, 0x2e, 0x77, 0x43, 0x2e, 0x00, 0xd1, 0x0b, 0x2d, 0x4f, 
	0x32, 0x2d, 0x00, 0x46, 0x2d, 0x60, 0x32, 0x2d, 0x00, 0x42, 
	0x2d, 0x66, 0x36, 0x2d, 0x00, 0x81, 0x3f, 0x2d, 0x49, 0x34, 
	0x2d, 0x00, 0x81, 0x40, 0x2d, 0x4c, 0x2d, 0x2d, 0x00, 0x97, 
	0x75, 0x2d, 0x49, 0x31, 0x2d, 0x00, 0x44, 0x2d, 0x4f, 0x2f, 
	0x2d, 0x00, 0x4f, 0x2d, 0x55, 0x40, 0x2d, 0x00, 0x81, 0x34, 
	0x2d, 0x55, 0x35, 0x2d, 0x00, 0x81, 0x3e, 0x2d, 0x47, 0x46, 
	0x2d, 0x00, 0x97, 0x62, 0x2d, 0x55, 0x32, 0x2d, 0x00, 0x44, 
	0x2d, 0x4c, 0x2d, 0x2d, 0x00, 0x4a, 0x2d, 0x66, 0x36, 0x2d, 
	0x00, 0x81, 0x40, 0x2d, 0x5a, 0x36, 0x2d, 0x00, 0x81, 0x41, 
	0x2d, 0x60, 0x4b, 0x2d, 0x00, 0x84, 0x7c, 0x2a, 0x55, 0x2e, 
	0x2a, 0x00, 0x4a, 0x28, 0x54, 0x52, 0x28, 0x00, 0x84, 0x06, 
	0x2a, 0x60, 0x29, 0x2a, 0x00, 0x81, 0x47, 0x28, 0x5e, 0x46, 
	0x28, 0x00, 0x85, 0x0a, 0x2a, 0x60, 0x32, 0x2a, 0x00, 0x46, 
	0x28, 0x58, 0x4c, 0x28, 0x00, 0x82, 0x1c, 0x2a, 0x61, 0x32, 
	0x2a, 0x00, 0x81, 0x3e, 0x28, 0x5c, 0x31, 0x28, 0x00, 0x84, 
	0x27, 0x2d, 0x58, 0x32, 0x2d, 0x00, 0x46, 0x2a, 0x63, 0x28, 
	0x2a, 0x00, 0x50, 0x28, 0x63, 0x2e, 0x28, 0x00, 0x82, 0x3a, 
	0x2a, 0x5f, 0x28, 0x2a, 0x00, 0x81, 0x48, 0x28, 0x5e, 0x2f, 
	0x28, 0x00, 0x82, 0x39, 0x2e, 0x5f, 0x29, 0x2e, 0x00, 0x4f, 
	0x2d, 0x5f, 0x29, 0x2d, 0x00, 0x83, 0x37, 0x2e, 0x68, 0x1d, 
	0x2e, 0x00, 0x85, 0x33, 0x33, 0x5d, 0x15, 0x33, 0x00, 0x27, 
	0x33, 0x52, 0x25, 0x33, 0x00, 0x17, 0x33, 0x52, 0x13, 0x33, 
	0x00, 0x65, 0x2e, 0x6c, 0x27, 0x2e, 0x00, 0x85, 0x29, 0x33, 
	0x5f, 0x1f, 0x33, 0x00, 0x1d, 0x33, 0x52, 0x15, 0x33, 0x00, 
	0x27, 0x33, 0x5f, 0x1d, 0x33, 0x00, 0x5b, 0x2b, 0x6c, 0x2d, 
	0x2b, 0x00, 0x85, 0x23, 0x35, 0x57, 0x18, 0x35, 0x00, 0x24, 
	0x35, 0x5c, 0x28, 0x35, 0x00, 0x14, 0x35, 0x61, 0x1a, 0x35, 
	0x00, 0x5e, 0x2b, 0x6d, 0x2d, 0x2b, 0x00, 0x85, 0x23, 0x35, 
	0x59, 0x18, 0x35, 0x00, 0x24, 0x35, 0x53, 0x28, 0x35, 0x00, 
	0x14, 0x35, 0x56, 0x1a, 0x35, 0x00, 0x5e, 0x2f, 0x63, 0x1d, 
	0x2f, 0x00, 0x85, 0x33, 0x34, 0x57, 0x15, 0x34, 0x00, 0x27, 
	0x34, 0x4e, 0x25, 0x34, 0x00, 0x17, 0x34, 0x4e, 0x13, 0x34, 
	0x00, 0x65, 0x2f, 0x65, 0x27, 0x2f, 0x00, 0x85, 0x29, 0x34, 
	0x57, 0x1f, 0x34, 0x00, 0x1d, 0x34, 0x4b, 0x15, 0x34, 0x00, 
	0x27, 0x34, 0x57, 0x1d, 0x34, 0x00, 0x5b, 0x2c, 0x63, 0x2d, 
	0x2c, 0x00, 0x85, 0x23, 0x36, 0x4f, 0x18, 0x36, 0x00, 0x24, 
	0x36, 0x54, 0x28, 0x36, 0x00, 0x14, 0x36, 0x57, 0x1a, 0x36, 
	0x00, 0x5e, 0x2c, 0x63, 0x2d, 0x2c, 0x00, 0x85, 0x23, 0x36, 
	0x4f, 0x18, 0x36, 0x00, 0x24, 0x36, 0x54, 0x28, 0x36, 0x00, 
	0x14, 0x36, 0x57, 0x1a, 0x36, 0x00, 0xa6, 0x15, 0x32, 0x6f, 
	0x17, 0x32, 0x00, 0x87, 0x33, 0x32, 0x71, 0x26, 0x32, 0x00, 
	0x52, 0x2d, 0x71, 0x26, 0x2d, 0x00, 0x52, 0x32, 0x71, 0x2b, 
	0x32, 0x00, 0x4d, 0x2d, 0x71, 0x26, 0x2d, 0x00, 0x52, 0x32, 
	0x71, 0x2b, 0x32, 0x00, 0x4d, 0x2d, 0x71, 0x28, 0x2d, 0x00, 
	0x50, 0x32, 0x71, 0x28, 0x32, 0x00, 0x50, 0x2d, 0x71, 0x23, 
	0x2d, 0x00, 0x55, 0x32, 0x71, 0x28, 0x32, 0x00, 0x50, 0x2d, 
	0x71, 0x23, 0x2d, 0x00, 0x55, 0x32, 0x71, 0x26, 0x32, 0x00, 
	0x52, 0x2d, 0x71, 0x23, 0x2d, 0x00, 0x55, 0x32, 0x71, 0x1e, 
	0x32, 0x00, 0x5a, 0x2d, 0x71, 0x1e, 0x2d, 0x00, 0x5a, 0x32, 
	0x71, 0x28, 0x32, 0x00, 0x50, 0x2d, 0x71, 0x23, 0x2d, 0x00, 
	0x55, 0x32, 0x71, 0x2b, 0x32, 0x00, 0x4d, 0x2d, 0x71, 0x2b, 
	0x2d, 0x00, 0x4d, 0x32, 0x71, 0x30, 0x32, 0x00, 0x48, 0x2d, 
	0x71, 0x32, 0x2d, 0x00, 0x46, 0x32, 0x71, 0x28, 0x32, 0x00, 
	0x50, 0x2d, 0x71, 0x2b, 0x2d, 0x00, 0x4d, 0x32, 0x71, 0x2b, 
	0x32, 0x00, 0x4c, 0x2d, 0x71, 0x57, 0x2d, 0x00, 0x82, 0x60, 
	0x32, 0x69, 0x02, 0x32, 0x00, 0x00, 0x32, 0x69, 0x03, 0x32, 
	0x00, 0x4d, 0x32, 0x69, 0x1f, 0x32, 0x00, 0x31, 0x32, 0x69, 
	0x4b, 0x32, 0x00, 0x00, 0xff, 0x2f, 0x00, 0x4d, 0x54, 0x72, 
	0x6b, 0x00, 0x00, 0x0d, 0xff, 0x00, 0xff, 0x03, 0x08, 0x54, 
	0x72, 0x61, 0x63, 0x6b, 0x20, 0x31, 0x32, 0x00, 0xc9, 0x76, 
	0x00, 0xb9, 0x07, 0x55, 0x00, 0xff, 0x7f, 0x05, 0x05, 0x0f, 
	0x09, 0x00, 0x40, 0x00, 0xff, 0x7f, 0x0f, 0x05, 0x0f, 0x06, 
	0x47, 0x65, 0x6e, 0x65, 0x72, 0x61, 0x6c, 0x20, 0x4d, 0x49, 
	0x44, 0x49, 0xa1, 0x13, 0x99, 0x26, 0x32, 0x18, 0x26, 0x00, 
	0x0a, 0x26, 0x37, 0x10, 0x26, 0x00, 0x1b, 0x26, 0x35, 0x82, 
	0x31, 0x26, 0x00, 0x38, 0x26, 0x32, 0x14, 0x26, 0x00, 0x0a, 
	0x26, 0x35, 0x10, 0x26, 0x00, 0x18, 0x26, 0x37, 0x10, 0x26, 
	0x00, 0x21, 0x26, 0x3a, 0x2b, 0x26, 0x00, 0x4e, 0x26, 0x35, 
	0x2e, 0x26, 0x00, 0x81, 0x0c, 0x26, 0x35, 0x0d, 0x26, 0x00, 
	0x03, 0x26, 0x30, 0x0e, 0x26, 0x00, 0x04, 0x26, 0x35, 0x0b, 
	0x26, 0x00, 0x08, 0x26, 0x3d, 0x79, 0x26, 0x00, 0x42, 0x26, 
	0x35, 0x0d, 0x26, 0x00, 0x03, 0x26, 0x30, 0x0e, 0x26, 0x00, 
	0x04, 0x26, 0x35, 0x0b, 0x26, 0x00, 0x08, 0x26, 0x3d, 0x3c, 
	0x26, 0x00, 0x0b, 0x26, 0x2b, 0x0b, 0x26, 0x00, 0x05, 0x26, 
	0x30, 0x0d, 0x26, 0x00, 0x05, 0x26, 0x31, 0x0b, 0x26, 0x00, 
	0x06, 0x26, 0x37, 0x14, 0x26, 0x00, 0x3a, 0x26, 0x37, 0x16, 
	0x26, 0x00, 0x0b, 0x26, 0x3a, 0x11, 0x26, 0x00, 0x0d, 0x26, 
	0x3a, 0x1d, 0x26, 0x00, 0x42, 0x26, 0x3d, 0x1d, 0x26, 0x00, 
	0x37, 0x26, 0x3a, 0x1c, 0x26, 0x00, 0x2d, 0x26, 0x3a, 0x20, 
	0x26, 0x00, 0x78, 0x26, 0x35, 0x0d, 0x26, 0x00, 0x03, 0x26, 
	0x30, 0x0e, 0x26, 0x00, 0x04, 0x26, 0x35, 0x0b, 0x26, 0x00, 
	0x08, 0x26, 0x3d, 0x79, 0x26, 0x00, 0x42, 0x26, 0x35, 0x0d, 
	0x26, 0x00, 0x03, 0x26, 0x30, 0x0e, 0x26, 0x00, 0x04, 0x26, 
	0x35, 0x0b, 0x26, 0x00, 0x08, 0x26, 0x3d, 0x3c, 0x26, 0x00, 
	0x0b, 0x26, 0x2b, 0x0b, 0x26, 0x00, 0x05, 0x26, 0x30, 0x0d, 
	0x26, 0x00, 0x05, 0x26, 0x31, 0x0b, 0x26, 0x00, 0x06, 0x26, 
	0x37, 0x14, 0x26, 0x00, 0x3a, 0x26, 0x37, 0x16, 0x26, 0x00, 
	0x0b, 0x26, 0x3a, 0x11, 0x26, 0x00, 0x0d, 0x26, 0x3a, 0x1d, 
	0x26, 0x00, 0x42, 0x26, 0x3d, 0x1d, 0x26, 0x00, 0x37, 0x26, 
	0x3a, 0x1c, 0x26, 0x00, 0x2d, 0x26, 0x3a, 0x20, 0x26, 0x00, 
	0x81, 0x70, 0x26, 0x39, 0x0d, 0x26, 0x00, 0x03, 0x26, 0x32, 
	0x0e, 0x26, 0x00, 0x04, 0x26, 0x39, 0x0b, 0x26, 0x00, 0x08, 
	0x26, 0x3f, 0x79, 0x26, 0x00, 0x81, 0x70, 0x26, 0x35, 0x14, 
	0x26, 0x00, 0x0a, 0x26, 0x39, 0x10, 0x26, 0x00, 0x18, 0x26, 
	0x3c, 0x10, 0x26, 0x00, 0x21, 0x26, 0x34, 0x2b, 0x26, 0x00, 
	0x4e, 0x26, 0x31, 0x2e, 0x26, 0x00, 0x14, 0x26, 0x31, 0x0d, 
	0x26, 0x00, 0x03, 0x26, 0x2b, 0x0e, 0x26, 0x00, 0x04, 0x26, 
	0x31, 0x0b, 0x26, 0x00, 0x08, 0x26, 0x36, 0x79, 0x26, 0x00, 
	0x42, 0x26, 0x31, 0x0d, 0x26, 0x00, 0x03, 0x26, 0x2b, 0x0e, 
	0x26, 0x00, 0x04, 0x26, 0x31, 0x0b, 0x26, 0x00, 0x08, 0x26, 
	0x36, 0x3c, 0x26, 0x00, 0x7f, 0x26, 0x31, 0x0d, 0x26, 0x00, 
	0x03, 0x26, 0x2b, 0x0e, 0x26, 0x00, 0x04, 0x26, 0x31, 0x0b, 
	0x26, 0x00, 0x08, 0x26, 0x36, 0x79, 0x26, 0x00, 0x42, 0x26, 
	0x31, 0x0d, 0x26, 0x00, 0x03, 0x26, 0x2b, 0x0e, 0x26, 0x00, 
	0x04, 0x26, 0x31, 0x0b, 0x26, 0x00, 0x08, 0x26, 0x36, 0x3c, 
	0x26, 0x00, 0x7f, 0x26, 0x31, 0x0d, 0x26, 0x00, 0x03, 0x26, 
	0x2b, 0x0e, 0x26, 0x00, 0x04, 0x26, 0x31, 0x0b, 0x26, 0x00, 
	0x08, 0x26, 0x36, 0x79, 0x26, 0x00, 0x42, 0x26, 0x31, 0x0d, 
	0x26, 0x00, 0x03, 0x26, 0x2b, 0x0e, 0x26, 0x00, 0x04, 0x26, 
	0x31, 0x0b, 0x26, 0x00, 0x08, 0x26, 0x36, 0x3c, 0x26, 0x00, 
	0x7f, 0x26, 0x31, 0x0d, 0x26, 0x00, 0x03, 0x26, 0x2b, 0x0e, 
	0x26, 0x00, 0x04, 0x26, 0x31, 0x0b, 0x26, 0x00, 0x08, 0x26, 
	0x36, 0x79, 0x26, 0x00, 0x42, 0x26, 0x31, 0x0d, 0x26, 0x00, 
	0x03, 0x26, 0x2b, 0x0e, 0x26, 0x00, 0x04, 0x26, 0x31, 0x0b, 
	0x26, 0x00, 0x08, 0x26, 0x36, 0x3c, 0x26, 0x00, 0x7f, 0x26, 
	0x31, 0x0d, 0x26, 0x00, 0x03, 0x26, 0x2b, 0x0e, 0x26, 0x00, 
	0x04, 0x26, 0x31, 0x0b, 0x26, 0x00, 0x08, 0x26, 0x36, 0x79, 
	0x26, 0x00, 0x42, 0x26, 0x31, 0x0d, 0x26, 0x00, 0x03, 0x26, 
	0x2b, 0x0e, 0x26, 0x00, 0x04, 0x26, 0x31, 0x0b, 0x26, 0x00, 
	0x08, 0x26, 0x36, 0x3c, 0x26, 0x00, 0x7f, 0x26, 0x31, 0x0d, 
	0x26, 0x00, 0x03, 0x26, 0x2b, 0x0e, 0x26, 0x00, 0x04, 0x26, 
	0x31, 0x0b, 0x26, 0x00, 0x08, 0x26, 0x36, 0x79, 0x26, 0x00, 
	0x42, 0x26, 0x31, 0x0d, 0x26, 0x00, 0x03, 0x26, 0x2b, 0x0e, 
	0x26, 0x00, 0x04, 0x26, 0x31, 0x0b, 0x26, 0x00, 0x08, 0x26, 
	0x36, 0x3c, 0x26, 0x00, 0x81, 0x03, 0x26, 0x25, 0x0b, 0x26, 
	0x00, 0x05, 0x26, 0x2b, 0x0d, 0x26, 0x00, 0x05, 0x26, 0x2c, 
	0x0b, 0x26, 0x00, 0x06, 0x26, 0x32, 0x14, 0x26, 0x00, 0x81, 
	0x58, 0x26, 0x36, 0x1d, 0x26, 0x00, 0x37, 0x26, 0x34, 0x1c, 
	0x26, 0x00, 0x2d, 0x26, 0x34, 0x20, 0x26, 0x00, 0x35, 0x26, 
	0x4c, 0x0b, 0x26, 0x00, 0x04, 0x26, 0x32, 0x0d, 0x26, 0x00, 
	0x04, 0x26, 0x34, 0x0d, 0x26, 0x00, 0x05, 0x26, 0x2d, 0x15, 
	0x26, 0x00, 0xac, 0x39, 0x26, 0x3f, 0x1c, 0x26, 0x00, 0x36, 
	0x26, 0x3d, 0x1c, 0x26, 0x00, 0x2d, 0x26, 0x3d, 0x21, 0x26, 
	0x00, 0x34, 0x26, 0x4c, 0x0c, 0x26, 0x00, 0x04, 0x26, 0x32, 
	0x0e, 0x26, 0x00, 0x03, 0x26, 0x34, 0x0c, 0x26, 0x00, 0x06, 
	0x26, 0x2d, 0x15, 0x26, 0x00, 0x5f, 0x26, 0x4c, 0x22, 0x26, 
	0x00, 0x24, 0x26, 0x42, 0x6c, 0x26, 0x00, 0x86, 0x57, 0x26, 
	0x5e, 0x11, 0x39, 0x52, 0x0f, 0x26, 0x00, 0x81, 0x14, 0x26, 
	0x44, 0x19, 0x26, 0x00, 0x23, 0x26, 0x55, 0x07, 0x39, 0x00, 
	0x1a, 0x26, 0x00, 0x81, 0x13, 0x26, 0x33, 0x19, 0x26, 0x00, 
	0x23, 0x26, 0x5c, 0x1b, 0x26, 0x00, 0x21, 0x26, 0x43, 0x24, 
	0x26, 0x00, 0x18, 0x26, 0x54, 0x14, 0x26, 0x00, 0x28, 0x26, 
	0x31, 0x24, 0x26, 0x00, 0x18, 0x26, 0x5c, 0x24, 0x26, 0x00, 
	0x81, 0x10, 0x26, 0x4b, 0x21, 0x26, 0x00, 0x1b, 0x26, 0x5c, 
	0x20, 0x26, 0x00, 0x81, 0x14, 0x26, 0x37, 0x1b, 0x26, 0x00, 
	0x21, 0x26, 0x5c, 0x1e, 0x26, 0x00, 0x1e, 0x26, 0x43, 0x21, 
	0x26, 0x00, 0x1b, 0x26, 0x5f, 0x1f, 0x26, 0x00, 0x1d, 0x26, 
	0x44, 0x29, 0x26, 0x00, 0x13, 0x26, 0x64, 0x24, 0x26, 0x00, 
	0x81, 0x10, 0x26, 0x49, 0x24, 0x26, 0x00, 0x18, 0x26, 0x53, 
	0x24, 0x26, 0x00, 0x81, 0x10, 0x26, 0x34, 0x24, 0x26, 0x00, 
	0x18, 0x26, 0x59, 0x1e, 0x26, 0x00, 0x1e, 0x26, 0x3a, 0x21, 
	0x26, 0x00, 0x1b, 0x26, 0x58, 0x1b, 0x26, 0x00, 0x21, 0x26, 
	0x40, 0x2a, 0x26, 0x00, 0x12, 0x26, 0x58, 0x21, 0x26, 0x00, 
	0x81, 0x13, 0x26, 0x3b, 0x24, 0x26, 0x00, 0x18, 0x26, 0x5e, 
	0x21, 0x26, 0x00, 0x81, 0x13, 0x26, 0x39, 0x24, 0x26, 0x00, 
	0x18, 0x26, 0x5a, 0x24, 0x26, 0x00, 0x18, 0x26, 0x33, 0x21, 
	0x26, 0x00, 0x1b, 0x26, 0x55, 0x1b, 0x26, 0x00, 0x21, 0x26, 
	0x3e, 0x29, 0x26, 0x00, 0x13, 0x26, 0x57, 0x26, 0x26, 0x00, 
	0x81, 0x0e, 0x26, 0x42, 0x21, 0x26, 0x00, 0x1b, 0x26, 0x59, 
	0x1e, 0x26, 0x00, 0x81, 0x16, 0x26, 0x3c, 0x24, 0x26, 0x00, 
	0x18, 0x26, 0x59, 0x21, 0x26, 0x00, 0x1b, 0x26, 0x37, 0x23, 
	0x26, 0x00, 0x19, 0x26, 0x55, 0x1b, 0x26, 0x00, 0x21, 0x26, 
	0x39, 0x24, 0x26, 0x00, 0x18, 0x26, 0x58, 0x29, 0x26, 0x00, 
	0x81, 0x0b, 0x26, 0x42, 0x24, 0x26, 0x00, 0x18, 0x26, 0x59, 
	0x26, 0x26, 0x00, 0x81, 0x0e, 0x26, 0x3c, 0x24, 0x26, 0x00, 
	0x18, 0x26, 0x55, 0x23, 0x26, 0x00, 0x19, 0x26, 0x3d, 0x26, 
	0x26, 0x00, 0x16, 0x26, 0x58, 0x20, 0x26, 0x00, 0x1c, 0x26, 
	0x44, 0x2a, 0x26, 0x00, 0x12, 0x26, 0x59, 0x2d, 0x26, 0x00, 
	0x81, 0x07, 0x26, 0x48, 0x26, 0x26, 0x00, 0x16, 0x26, 0x59, 
	0x2b, 0x26, 0x00, 0x81, 0x09, 0x26, 0x3d, 0x26, 0x26, 0x00, 
	0x16, 0x26, 0x57, 0x21, 0x26, 0x00, 0x1b, 0x26, 0x45, 0x26, 
	0x26, 0x00, 0x16, 0x26, 0x56, 0x1e, 0x26, 0x00, 0x1e, 0x26, 
	0x4b, 0x24, 0x26, 0x00, 0x18, 0x26, 0x4b, 0x1b, 0x26, 0x00, 
	0x21, 0x26, 0x2d, 0x20, 0x26, 0x00, 0x1c, 0x26, 0x4a, 0x25, 
	0x26, 0x00, 0x17, 0x26, 0x3b, 0x23, 0x26, 0x00, 0x19, 0x26, 
	0x50, 0x23, 0x26, 0x00, 0x19, 0x26, 0x34, 0x23, 0x26, 0x00, 
	0x19, 0x26, 0x57, 0x20, 0x26, 0x00, 0x1c, 0x26, 0x42, 0x29, 
	0x26, 0x00, 0x13, 0x39, 0x61, 0x6e, 0x39, 0x00, 0x46, 0x26, 
	0x42, 0x23, 0x26, 0x00, 0x19, 0x26, 0x5a, 0x2f, 0x26, 0x00, 
	0x81, 0x05, 0x26, 0x42, 0x23, 0x26, 0x00, 0x19, 0x26, 0x58, 
	0x25, 0x26, 0x00, 0x81, 0x0f, 0x26, 0x3a, 0x23, 0x26, 0x00, 
	0x19, 0x26, 0x55, 0x20, 0x26, 0x00, 0x1c, 0x26, 0x37, 0x23, 
	0x26, 0x00, 0x19, 0x26, 0x56, 0x20, 0x26, 0x00, 0x1c, 0x26, 
	0x3c, 0x28, 0x26, 0x00, 0x14, 0x26, 0x56, 0x2b, 0x26, 0x00, 
	0x81, 0x09, 0x26, 0x4a, 0x23, 0x26, 0x00, 0x19, 0x26, 0x56, 
	0x2a, 0x26, 0x00, 0x81, 0x0a, 0x26, 0x3a, 0x25, 0x26, 0x00, 
	0x17, 0x26, 0x59, 0x25, 0x26, 0x00, 0x17, 0x26, 0x3d, 0x28, 
	0x26, 0x00, 0x14, 0x26, 0x50, 0x1c, 0x26, 0x00, 0x20, 0x26, 
	0x44, 0x29, 0x26, 0x00, 0x13, 0x26, 0x5a, 0x2a, 0x26, 0x00, 
	0x81, 0x0a, 0x26, 0x3d, 0x28, 0x26, 0x00, 0x14, 0x26, 0x59, 
	0x25, 0x26, 0x00, 0x81, 0x0f, 0x26, 0x3e, 0x23, 0x26, 0x00, 
	0x19, 0x26, 0x5a, 0x20, 0x26, 0x00, 0x1c, 0x26, 0x40, 0x28, 
	0x26, 0x00, 0x14, 0x26, 0x57, 0x23, 0x26, 0x00, 0x19, 0x26, 
	0x3a, 0x20, 0x26, 0x00, 0x1c, 0x26, 0x55, 0x37, 0x26, 0x00, 
	0x7d, 0x26, 0x3a, 0x25, 0x26, 0x00, 0x17, 0x26, 0x59, 0x29, 
	0x26, 0x00, 0x81, 0x0b, 0x26, 0x3d, 0x23, 0x26, 0x00, 0x19, 
	0x26, 0x58, 0x25, 0x26, 0x00, 0x17, 0x26, 0x49, 0x17, 0x26, 
	0x00, 0x25, 0x26, 0x58, 0x1e, 0x26, 0x00, 0x1e, 0x26, 0x3f, 
	0x15, 0x26, 0x00, 0x27, 0x26, 0x60, 0x2e, 0x26, 0x00, 0x81, 
	0x06, 0x26, 0x46, 0x2a, 0x26, 0x00, 0x12, 0x26, 0x67, 0x30, 
	0x26, 0x00, 0x81, 0x04, 0x26, 0x54, 0x25, 0x26, 0x00, 0x17, 
	0x26, 0x6e, 0x20, 0x26, 0x00, 0x1c, 0x26, 0x53, 0x25, 0x26, 
	0x00, 0x17, 0x26, 0x71, 0x1e, 0x26, 0x00, 0x1e, 0x26, 0x56, 
	0x2e, 0x26, 0x00, 0x0e, 0x26, 0x7f, 0x16, 0x26, 0x00, 0x00, 
	0x26, 0x62, 0x03, 0x39, 0x7f, 0x11, 0x26, 0x00, 0x01, 0x26, 
	0x7d, 0x02, 0x26, 0x00, 0x2d, 0x39, 0x00, 0x43, 0x26, 0x5c, 
	0x17, 0x26, 0x00, 0x0f, 0x26, 0x5c, 0x16, 0x26, 0x00, 0x14, 
	0x26, 0x5b, 0x1a, 0x26, 0x00, 0x02, 0x26, 0x5a, 0x16, 0x26, 
	0x00, 0x64, 0x26, 0x4d, 0x10, 0x26, 0x00, 0x17, 0x26, 0x3e, 
	0x13, 0x26, 0x00, 0x15, 0x26, 0x57, 0x14, 0x26, 0x00, 0x10, 
	0x26, 0x56, 0x18, 0x26, 0x00, 0x63, 0x26, 0x4a, 0x15, 0x26, 
	0x00, 0x11, 0x26, 0x48, 0x1b, 0x26, 0x00, 0x0f, 0x26, 0x4e, 
	0x19, 0x26, 0x00, 0x03, 0x33, 0x15, 0x00, 0x39, 0x14, 0x0a, 
	0x26, 0x49, 0x0d, 0x39, 0x00, 0x02, 0x33, 0x00, 0x0a, 0x26, 
	0x00, 0x11, 0x26, 0x51, 0x19, 0x26, 0x00, 0x0d, 0x26, 0x50, 
	0x1b, 0x26, 0x00, 0x05, 0x33, 0x02, 0x03, 0x39, 0x02, 0x08, 
	0x26, 0x4f, 0x0e, 0x39, 0x00, 0x01, 0x33, 0x00, 0x09, 0x26, 
	0x00, 0x60, 0x26, 0x4f, 0x18, 0x26, 0x00, 0x81, 0x50, 0x26, 
	0x4f, 0x1b, 0x26, 0x00, 0x62, 0x26, 0x4f, 0x17, 0x26, 0x00, 
	0x11, 0x26, 0x33, 0x16, 0x26, 0x00, 0x12, 0x26, 0x4f, 0x18, 
	0x26, 0x00, 0x0e, 0x26, 0x4f, 0x1a, 0x26, 0x00, 0x62, 0x26, 
	0x47, 0x14, 0x26, 0x00, 0x14, 0x26, 0x4b, 0x1a, 0x26, 0x00, 
	0x0c, 0x26, 0x4f, 0x1b, 0x26, 0x00, 0x0a, 0x33, 0x07, 0x01, 
	0x39, 0x07, 0x02, 0x26, 0x4f, 0x13, 0x39, 0x00, 0x04, 0x26, 
	0x00, 0x00, 0x33, 0x00, 0x13, 0x26, 0x4f, 0x17, 0x26, 0x00, 
	0x11, 0x26, 0x4d, 0x19, 0x26, 0x00, 0x0a, 0x39, 0x02, 0x05, 
	0x26, 0x4f, 0x02, 0x39, 0x00, 0x00, 0x39, 0x02, 0x08, 0x39, 
	0x00, 0x0d, 0x26, 0x00, 0x61, 0x26, 0x4f, 0x10, 0x30, 0x4f, 
	0x02, 0x33, 0x4f, 0x03, 0x26, 0x00, 0x13, 0x33, 0x00, 0x00, 
	0x30, 0x00, 0x81, 0x46, 0x26, 0x69, 0x17, 0x26, 0x00, 0x61, 
	0x26, 0x69, 0x14, 0x26, 0x00, 0x0e, 0x26, 0x69, 0x19, 0x26, 
	0x00, 0x12, 0x26, 0x69, 0x12, 0x26, 0x00, 0x17, 0x26, 0x69, 
	0x1e, 0x26, 0x00, 0x5b, 0x26, 0x69, 0x17, 0x26, 0x00, 0x14, 
	0x26, 0x69, 0x19, 0x26, 0x00, 0x0f, 0x26, 0x69, 0x19, 0x26, 
	0x00, 0x0c, 0x26, 0x69, 0x18, 0x26, 0x00, 0x0f, 0x26, 0x69, 
	0x1a, 0x26, 0x00, 0x0d, 0x26, 0x69, 0x1a, 0x26, 0x00, 0x10, 
	0x26, 0x69, 0x19, 0x26, 0x00, 0x63, 0x26, 0x69, 0x1b, 0x26, 
	0x00, 0x81, 0x55, 0x26, 0x69, 0x19, 0x26, 0x00, 0x60, 0x26, 
	0x5f, 0x15, 0x26, 0x00, 0x11, 0x26, 0x69, 0x16, 0x26, 0x00, 
	0x12, 0x26, 0x69, 0x19, 0x26, 0x00, 0x0b, 0x26, 0x5f, 0x14, 
	0x26, 0x00, 0x65, 0x26, 0x69, 0x17, 0x26, 0x00, 0x10, 0x26, 
	0x69, 0x1a, 0x26, 0x00, 0x0e, 0x26, 0x69, 0x19, 0x26, 0x00, 
	0x0e, 0x26, 0x69, 0x17, 0x26, 0x00, 0x12, 0x26, 0x69, 0x1d, 
	0x26, 0x00, 0x0a, 0x26, 0x69, 0x17, 0x26, 0x00, 0x13, 0x26, 
	0x69, 0x17, 0x26, 0x00, 0x61, 0x26, 0x69, 0x15, 0x26, 0x00, 
	0x81, 0x5c, 0x26, 0x69, 0x18, 0x26, 0x00, 0x62, 0x26, 0x69, 
	0x17, 0x26, 0x00, 0x11, 0x26, 0x51, 0x16, 0x26, 0x00, 0x10, 
	0x26, 0x69, 0x18, 0x26, 0x00, 0x10, 0x26, 0x69, 0x18, 0x26, 
	0x00, 0x67, 0x26, 0x69, 0x14, 0x26, 0x00, 0x12, 0x26, 0x64, 
	0x18, 0x26, 0x00, 0x0d, 0x26, 0x69, 0x1a, 0x26, 0x00, 0x0e, 
	0x26, 0x69, 0x19, 0x26, 0x00, 0x0c, 0x26, 0x69, 0x1a, 0x26, 
	0x00, 0x0e, 0x26, 0x69, 0x19, 0x26, 0x00, 0x14, 0x26, 0x69, 
	0x18, 0x26, 0x00, 0x5e, 0x26, 0x69, 0x16, 0x26, 0x00, 0x81, 
	0x58, 0x26, 0x69, 0x17, 0x26, 0x00, 0x60, 0x26, 0x69, 0x17, 
	0x26, 0x00, 0x12, 0x26, 0x64, 0x1b, 0x26, 0x00, 0x0d, 0x26, 
	0x69, 0x1b, 0x26, 0x00, 0x0c, 0x26, 0x69, 0x1c, 0x26, 0x00, 
	0x5f, 0x26, 0x69, 0x17, 0x26, 0x00, 0x12, 0x26, 0x64, 0x1a, 
	0x26, 0x00, 0x0d, 0x26, 0x69, 0x19, 0x26, 0x00, 0x0d, 0x26, 
	0x69, 0x18, 0x26, 0x00, 0x10, 0x26, 0x69, 0x1b, 0x26, 0x00, 
	0x0c, 0x26, 0x69, 0x18, 0x26, 0x00, 0x10, 0x26, 0x69, 0x15, 
	0x26, 0x00, 0x0e, 0x26, 0x69, 0x18, 0x26, 0x00, 0x13, 0x26, 
	0x69, 0x12, 0x26, 0x00, 0x1b, 0x26, 0x69, 0x15, 0x26, 0x00, 
	0x81, 0x59, 0x26, 0x69, 0x17, 0x26, 0x00, 0x61, 0x26, 0x69, 
	0x14, 0x26, 0x00, 0x0e, 0x26, 0x69, 0x19, 0x26, 0x00, 0x12, 
	0x26, 0x69, 0x12, 0x26, 0x00, 0x17, 0x26, 0x69, 0x1e, 0x26, 
	0x00, 0x5b, 0x26, 0x69, 0x17, 0x26, 0x00, 0x14, 0x26, 0x69, 
	0x19, 0x26, 0x00, 0x0f, 0x26, 0x69, 0x19, 0x26, 0x00, 0x0c, 
	0x26, 0x69, 0x18, 0x26, 0x00, 0x0f, 0x26, 0x69, 0x1a, 0x26, 
	0x00, 0x0d, 0x26, 0x69, 0x1a, 0x26, 0x00, 0x10, 0x26, 0x69, 
	0x19, 0x26, 0x00, 0x63, 0x26, 0x69, 0x1b, 0x26, 0x00, 0x81, 
	0x55, 0x26, 0x69, 0x19, 0x26, 0x00, 0x60, 0x26, 0x5f, 0x15, 
	0x26, 0x00, 0x11, 0x26, 0x69, 0x16, 0x26, 0x00, 0x12, 0x26, 
	0x69, 0x19, 0x26, 0x00, 0x0b, 0x26, 0x5f, 0x14, 0x26, 0x00, 
	0x65, 0x26, 0x69, 0x17, 0x26, 0x00, 0x10, 0x26, 0x69, 0x1a, 
	0x26, 0x00, 0x0e, 0x26, 0x69, 0x19, 0x26, 0x00, 0x0e, 0x26, 
	0x69, 0x17, 0x26, 0x00, 0x12, 0x26, 0x69, 0x1d, 0x26, 0x00, 
	0x0a, 0x26, 0x69, 0x17, 0x26, 0x00, 0x13, 0x26, 0x69, 0x17, 
	0x26, 0x00, 0x64, 0x26, 0x69, 0x15, 0x26, 0x00, 0x81, 0x59, 
	0x26, 0x69, 0x17, 0x26, 0x00, 0x61, 0x26, 0x69, 0x14, 0x26, 
	0x00, 0x0e, 0x26, 0x69, 0x19, 0x26, 0x00, 0x12, 0x26, 0x69, 
	0x12, 0x26, 0x00, 0x17, 0x26, 0x69, 0x1e, 0x26, 0x00, 0x5b, 
	0x26, 0x69, 0x17, 0x26, 0x00, 0x14, 0x26, 0x69, 0x19, 0x26, 
	0x00, 0x0f, 0x26, 0x69, 0x19, 0x26, 0x00, 0x0c, 0x26, 0x69, 
	0x18, 0x26, 0x00, 0x0f, 0x26, 0x69, 0x1a, 0x26, 0x00, 0x0d, 
	0x26, 0x69, 0x1a, 0x26, 0x00, 0x10, 0x26, 0x69, 0x19, 0x26, 
	0x00, 0x63, 0x26, 0x69, 0x1b, 0x26, 0x00, 0x81, 0x55, 0x26, 
	0x69, 0x19, 0x26, 0x00, 0x60, 0x26, 0x5f, 0x15, 0x26, 0x00, 
	0x11, 0x26, 0x69, 0x16, 0x26, 0x00, 0x12, 0x26, 0x69, 0x19, 
	0x26, 0x00, 0x0b, 0x26, 0x5f, 0x14, 0x26, 0x00, 0x65, 0x26, 
	0x69, 0x17, 0x26, 0x00, 0x10, 0x26, 0x69, 0x1a, 0x26, 0x00, 
	0x0e, 0x26, 0x69, 0x19, 0x26, 0x00, 0x0e, 0x26, 0x69, 0x17, 
	0x26, 0x00, 0x12, 0x26, 0x69, 0x1d, 0x26, 0x00, 0x0a, 0x26, 
	0x69, 0x17, 0x26, 0x00, 0x13, 0x26, 0x69, 0x14, 0x26, 0x00, 
	0x0e, 0x26, 0x69, 0x18, 0x26, 0x00, 0x12, 0x26, 0x69, 0x13, 
	0x26, 0x00, 0x1c, 0x26, 0x69, 0x15, 0x26, 0x00, 0x81, 0x59, 
	0x26, 0x69, 0x17, 0x26, 0x00, 0x61, 0x26, 0x69, 0x14, 0x26, 
	0x00, 0x0e, 0x26, 0x69, 0x19, 0x26, 0x00, 0x12, 0x26, 0x69, 
	0x12, 0x26, 0x00, 0x17, 0x26, 0x69, 0x1e, 0x26, 0x00, 0x5b, 
	0x26, 0x69, 0x17, 0x26, 0x00, 0x14, 0x26, 0x69, 0x19, 0x26, 
	0x00, 0x0f, 0x26, 0x69, 0x19, 0x26, 0x00, 0x0c, 0x26, 0x69, 
	0x18, 0x26, 0x00, 0x0f, 0x26, 0x69, 0x1a, 0x26, 0x00, 0x0d, 
	0x26, 0x69, 0x1a, 0x26, 0x00, 0x10, 0x26, 0x69, 0x19, 0x26, 
	0x00, 0x63, 0x26, 0x69, 0x1b, 0x26, 0x00, 0x81, 0x55, 0x26, 
	0x69, 0x19, 0x26, 0x00, 0x60, 0x26, 0x5f, 0x15, 0x26, 0x00, 
	0x11, 0x26, 0x69, 0x16, 0x26, 0x00, 0x12, 0x26, 0x69, 0x19, 
	0x26, 0x00, 0x0b, 0x26, 0x5f, 0x14, 0x26, 0x00, 0x65, 0x26, 
	0x69, 0x17, 0x26, 0x00, 0x10, 0x26, 0x69, 0x1a, 0x26, 0x00, 
	0x0e, 0x26, 0x69, 0x19, 0x26, 0x00, 0x0e, 0x26, 0x69, 0x17, 
	0x26, 0x00, 0x12, 0x26, 0x69, 0x1d, 0x26, 0x00, 0x0a, 0x26, 
	0x69, 0x17, 0x26, 0x00, 0x13, 0x26, 0x69, 0x17, 0x26, 0x00, 
	0x64, 0x26, 0x69, 0x15, 0x26, 0x00, 0x81, 0x59, 0x26, 0x69, 
	0x17, 0x26, 0x00, 0x61, 0x26, 0x69, 0x14, 0x26, 0x00, 0x0e, 
	0x26, 0x69, 0x19, 0x26, 0x00, 0x12, 0x26, 0x69, 0x12, 0x26, 
	0x00, 0x17, 0x26, 0x69, 0x1e, 0x26, 0x00, 0x5b, 0x26, 0x69, 
	0x17, 0x26, 0x00, 0x14, 0x26, 0x69, 0x19, 0x26, 0x00, 0x0f, 
	0x26, 0x69, 0x19, 0x26, 0x00, 0x0c, 0x26, 0x69, 0x18, 0x26, 
	0x00, 0x0f, 0x26, 0x69, 0x1a, 0x26, 0x00, 0x0d, 0x26, 0x69, 
	0x1a, 0x26, 0x00, 0x10, 0x26, 0x69, 0x19, 0x26, 0x00, 0x63, 
	0x26, 0x69, 0x15, 0x31, 0x43, 0x06, 0x26, 0x00, 0x3c, 0x31, 
	0x00, 0x81, 0x19, 0x26, 0x69, 0x19, 0x26, 0x00, 0x60, 0x26, 
	0x5f, 0x15, 0x26, 0x00, 0x11, 0x26, 0x69, 0x16, 0x26, 0x00, 
	0x12, 0x26, 0x69, 0x19, 0x26, 0x00, 0x0b, 0x26, 0x5f, 0x01, 
	0x39, 0x43, 0x13, 0x26, 0x00, 0x22, 0x39, 0x00, 0x43, 0x26, 
	0x69, 0x17, 0x26, 0x00, 0x10, 0x26, 0x69, 0x1a, 0x26, 0x00, 
	0x0e, 0x26, 0x69, 0x19, 0x26, 0x00, 0x0e, 0x26, 0x69, 0x02, 
	0x39, 0x43, 0x17, 0x26, 0x00, 0x10, 0x26, 0x69, 0x01, 0x39, 
	0x00, 0x1c, 0x26, 0x00, 0x0a, 0x26, 0x69, 0x19, 0x26, 0x00, 
	0x11, 0x26, 0x69, 0x17, 0x26, 0x00, 0x81, 0x5c, 0x26, 0x69, 
	0x17, 0x26, 0x00, 0x12, 0x26, 0x64, 0x1a, 0x26, 0x00, 0x0d, 
	0x26, 0x69, 0x19, 0x26, 0x00, 0x0d, 0x26, 0x69, 0x18, 0x26, 
	0x00, 0x10, 0x26, 0x69, 0x1b, 0x26, 0x00, 0x0c, 0x26, 0x69, 
	0x18, 0x26, 0x00, 0x10, 0x26, 0x69, 0x15, 0x26, 0x00, 0x0e, 
	0x26, 0x69, 0x18, 0x26, 0x00, 0x13, 0x26, 0x69, 0x12, 0x26, 
	0x00, 0x02, 0x2e, 0x4a, 0x0a, 0x39, 0x7f, 0x0b, 0x39, 0x00, 
	0x00, 0x39, 0x74, 0x0b, 0x39, 0x00, 0x81, 0x50, 0x2e, 0x00, 
	0xa3, 0x78, 0x39, 0x7f, 0x15, 0x39, 0x00, 0x83, 0x3d, 0x39, 
	0x7f, 0x18, 0x39, 0x00, 0x83, 0x47, 0x39, 0x7f, 0x15, 0x39, 
	0x00, 0x83, 0x4b, 0x39, 0x7f, 0x20, 0x39, 0x00, 0x83, 0x43, 
	0x39, 0x7f, 0x0e, 0x39, 0x00, 0x00, 0x39, 0x5a, 0x09, 0x39, 
	0x00, 0x81, 0x56, 0x39, 0x7f, 0x06, 0x39, 0x00, 0x00, 0x39, 
	0x51, 0x06, 0x39, 0x00, 0x69, 0x39, 0x7f, 0x0f, 0x39, 0x00, 
	0x00, 0x39, 0x45, 0x08, 0x39, 0x00, 0x81, 0x5e, 0x39, 0x51, 
	0x15, 0x39, 0x00, 0x81, 0x56, 0x39, 0x7f, 0x04, 0x39, 0x00, 
	0x00, 0x39, 0x4c, 0x04, 0x39, 0x00, 0xcd, 0x68, 0x26, 0x42, 
	0x19, 0x26, 0x00, 0x38, 0x26, 0x42, 0x11, 0x26, 0x00, 0x39, 
	0x26, 0x38, 0x14, 0x26, 0x00, 0x41, 0x26, 0x54, 0x2e, 0x26, 
	0x00, 0x81, 0x4f, 0x26, 0x38, 0x16, 0x26, 0x00, 0x39, 0x26, 
	0x28, 0x13, 0x26, 0x00, 0x28, 0x26, 0x3a, 0x14, 0x26, 0x00, 
	0x45, 0x3b, 0x3a, 0x0d, 0x26, 0x3d, 0x04, 0x3b, 0x00, 0x10, 
	0x26, 0x00, 0x8d, 0x01, 0x26, 0x2b, 0x1c, 0x26, 0x00, 0x28, 
	0x26, 0x08, 0x11, 0x26, 0x00, 0x11, 0x26, 0x30, 0x16, 0x26, 
	0x00, 0x26, 0x26, 0x36, 0x14, 0x26, 0x00, 0x23, 0x26, 0x6a, 
	0x21, 0x26, 0x00, 0x81, 0x56, 0x26, 0x31, 0x1f, 0x26, 0x00, 
	0x36, 0x26, 0x31, 0x12, 0x26, 0x00, 0x32, 0x26, 0x43, 0x20, 
	0x26, 0x00, 0x35, 0x26, 0x62, 0x5a, 0x26, 0x00, 0x85, 0x78, 
	0x26, 0x3a, 0x11, 0x26, 0x00, 0x14, 0x26, 0x39, 0x12, 0x26, 
	0x00, 0x14, 0x26, 0x4d, 0x11, 0x26, 0x00, 0x18, 0x26, 0x63, 
	0x68, 0x26, 0x00, 0x81, 0x0f, 0x26, 0x48, 0x21, 0x26, 0x00, 
	0x56, 0x26, 0x47, 0x1c, 0x26, 0x00, 0x5a, 0x26, 0x62, 0x62, 
	0x26, 0x00, 0x81, 0x0e, 0x26, 0x34, 0x12, 0x26, 0x00, 0x57, 
	0x26, 0x4f, 0x2a, 0x26, 0x00, 0x50, 0x26, 0x59, 0x19, 0x26, 
	0x00, 0x81, 0x60, 0x26, 0x31, 0x11, 0x26, 0x00, 0x23, 0x26, 
	0x32, 0x12, 0x26, 0x00, 0x23, 0x26, 0x2d, 0x1b, 0x26, 0x00, 
	0x20, 0x26, 0x44, 0x11, 0x26, 0x00, 0x2b, 0x26, 0x59, 0x1c, 
	0x26, 0x00, 0x85, 0x44, 0x26, 0x30, 0x13, 0x26, 0x00, 0x26, 
	0x26, 0x2f, 0x12, 0x26, 0x00, 0x22, 0x26, 0x37, 0x1c, 0x26, 
	0x00, 0x20, 0x26, 0x4a, 0x19, 0x26, 0x00, 0x28, 0x26, 0x37, 
	0x0f, 0x3b, 0x45, 0x0f, 0x26, 0x00, 0x0a, 0x3b, 0x00, 0x87, 
	0x2a, 0x26, 0x36, 0x12, 0x26, 0x00, 0x29, 0x26, 0x21, 0x12, 
	0x26, 0x00, 0x2f, 0x26, 0x2a, 0x13, 0x26, 0x00, 0x27, 0x26, 
	0x32, 0x2d, 0x26, 0x00, 0x11, 0x26, 0x61, 0x29, 0x26, 0x00, 
	0x58, 0x26, 0x44, 0x18, 0x26, 0x00, 0x1e, 0x26, 0x37, 0x12, 
	0x26, 0x00, 0x2a, 0x26, 0x61, 0x37, 0x26, 0x00, 0x81, 0x3f, 
	0x26, 0x50, 0x1d, 0x26, 0x00, 0x81, 0x41, 0x26, 0x59, 0x22, 
	0x26, 0x00, 0x64, 0x26, 0x03, 0x12, 0x26, 0x00, 0x19, 0x26, 
	0x4f, 0x21, 0x26, 0x00, 0x1d, 0x26, 0x69, 0x21, 0x26, 0x00, 
	0x56, 0x26, 0x56, 0x28, 0x26, 0x00, 0x56, 0x26, 0x4f, 0x21, 
	0x26, 0x00, 0x81, 0x3b, 0x26, 0x50, 0x1e, 0x26, 0x00, 0x19, 
	0x26, 0x4c, 0x19, 0x26, 0x00, 0x22, 0x26, 0x4a, 0x22, 0x26, 
	0x00, 0x1c, 0x26, 0x50, 0x14, 0x26, 0x00, 0xa5, 0x6c, 0x39, 
	0x7f, 0x29, 0x39, 0x00, 0x9f, 0x46, 0x3b, 0x4d, 0x20, 0x3b, 
	0x00, 0x9b, 0x77, 0x26, 0x65, 0x1e, 0x26, 0x00, 0x18, 0x26, 
	0x70, 0x1e, 0x26, 0x00, 0x1c, 0x26, 0x7b, 0x1e, 0x26, 0x00, 
	0x1e, 0x26, 0x7f, 0x1e, 0x26, 0x00, 0xa5, 0x5f, 0x39, 0x7f, 
	0x00, 0x3b, 0x75, 0x81, 0x26, 0x3b, 0x00, 0x81, 0x23, 0x26, 
	0x50, 0x06, 0x26, 0x00, 0x05, 0x26, 0x57, 0x07, 0x26, 0x00, 
	0x09, 0x26, 0x62, 0x08, 0x26, 0x00, 0x06, 0x26, 0x6b, 0x06, 
	0x26, 0x00, 0x05, 0x26, 0x74, 0x08, 0x26, 0x00, 0x03, 0x26, 
	0x7b, 0x07, 0x26, 0x00, 0x08, 0x26, 0x7f, 0x03, 0x39, 0x00, 
	0x04, 0x26, 0x00, 0x03, 0x26, 0x7f, 0x08, 0x26, 0x00, 0x07, 
	0x26, 0x7f, 0x07, 0x26, 0x00, 0x05, 0x26, 0x7f, 0x07, 0x26, 
	0x00, 0x06, 0x26, 0x7f, 0x08, 0x26, 0x00, 0x02, 0x26, 0x7f, 
	0x07, 0x26, 0x00, 0x06, 0x3b, 0x7f, 0x01, 0x26, 0x7f, 0x04, 
	0x39, 0x7f, 0x02, 0x26, 0x00, 0x81, 0x1f, 0x3b, 0x00, 0x05, 
	0x39, 0x00, 0x82, 0x34, 0x26, 0x7f, 0x1a, 0x26, 0x00, 0x81, 
	0x02, 0x26, 0x7f, 0x10, 0x26, 0x00, 0x0e, 0x26, 0x7f, 0x10, 
	0x26, 0x00, 0x06, 0x26, 0x7f, 0x11, 0x26, 0x00, 0x14, 0x26, 
	0x7f, 0x0f, 0x26, 0x00, 0x82, 0x73, 0x26, 0x7f, 0x10, 0x26, 
	0x00, 0x13, 0x26, 0x7f, 0x13, 0x26, 0x00, 0x01, 0x26, 0x7f, 
	0x10, 0x26, 0x00, 0x0e, 0x26, 0x7f, 0x28, 0x26, 0x00, 0x28, 
	0x26, 0x7f, 0x1e, 0x26, 0x00, 0x32, 0x26, 0x7f, 0x28, 0x26, 
	0x00, 0x28, 0x26, 0x7f, 0x1b, 0x26, 0x00, 0x81, 0x55, 0x26, 
	0x7f, 0x55, 0x26, 0x00, 0x81, 0x1b, 0x26, 0x7f, 0x16, 0x26, 
	0x00, 0x3a, 0x26, 0x7f, 0x23, 0x26, 0x00, 0x2d, 0x26, 0x7f, 
	0x2a, 0x26, 0x00, 0x26, 0x26, 0x7f, 0x34, 0x26, 0x00, 0x1c, 
	0x26, 0x7f, 0x14, 0x26, 0x00, 0x3c, 0x26, 0x7f, 0x23, 0x26, 
	0x00, 0x2d, 0x26, 0x7f, 0x2a, 0x26, 0x00, 0x71, 0x26, 0x7f, 
	0x10, 0x26, 0x00, 0x0e, 0x26, 0x7f, 0x13, 0x26, 0x00, 0x0b, 
	0x26, 0x7f, 0x10, 0x26, 0x00, 0x09, 0x26, 0x7f, 0x7a, 0x26, 
	0x00, 0x76, 0x26, 0x7f, 0x1e, 0x26, 0x00, 0x32, 0x26, 0x7f, 
	0x25, 0x26, 0x00, 0x2b, 0x26, 0x7f, 0x2d, 0x26, 0x00, 0x23, 
	0x26, 0x7f, 0x2f, 0x26, 0x00, 0x21, 0x26, 0x7f, 0x1e, 0x26, 
	0x00, 0x32, 0x26, 0x7f, 0x41, 0x26, 0x00, 0x0f, 0x26, 0x7f, 
	0x05, 0x39, 0x7d, 0x23, 0x26, 0x00, 0x81, 0x02, 0x39, 0x00, 
	0x46, 0x26, 0x7f, 0x14, 0x26, 0x00, 0x3c, 0x26, 0x7f, 0x18, 
	0x26, 0x00, 0x38, 0x26, 0x7f, 0x1a, 0x26, 0x00, 0x36, 0x26, 
	0x7f, 0x6a, 0x26, 0x00, 0x00, 0xff, 0x2f, 0x00, 0x00, 0x00, 
	0x00, 0x00, 0x00, 0x00, 0x00, 0x00, 0x00, 0x00, 0x00, 0x00, 
	0x00, 0x00, 0x00, 0x00, 0x00, 0x00, 0x00, 0x00, 0x00, 0x00, 
	0x00, 0x00, 0x00, 0x00, 0x00, 0x00, 0x00, 0x00, 0x00, 0x00, 
	0x00, 0x00, 0x00, 0x00, 0x00, 0x00, 0x00, 0x00, 0x00, 0x00, 
	0x00, 0x00, 0x00, 0x00, 0x00, 0x00, 0x00, 0x00, 0x00, 0x00, 
	0x00, 0x00, 0x00, 0x00, 0x00, 0x00, 0x00, 0x00, 0x00, 0x00, 
	0x00, 0x00, 0x00, 0x00, 0x00, 0x00, 0x00, 0x00, 0x00, 0x00, 
	0x00, 0x00, 0x00, 0x00, 0x00, 0x00, 0x00, 0x00, 0x00, 0x00, 
	0x00, 0x00, 0x00, 0x00, 0x00, 0x00, 0x00, 0x00, 0x00, 0x00, 
	0x00, 0x00, 0x00, 0x00, 0x00, 0x00, 0x00, 0x00, 0x00, 0x00, 
	0x00, 0x00, 0x00, 0x00, 0x00, 0x00, 0x00, 0x00, 0x00, 0x00, 
	0x00, 0x00, 0x00, 0x00, 0x00, 0x00, 0x00, 0x00, 0x00, 0x00, 
	0x00, 0x00, 0x00, 0x00, 0x00, 0x00 };

#endif