/*
*  Auto-Generated On: 07/11/2013 16:02
*  Author: Lauren Schmidt
*/

#if (defined(RONE_V9) || defined(RONE_V12))
#include "roneos.h"

const char MIDIFile_Boogie[] = {
	0x4d, 0x54, 0x68, 0x64, 0x00, 0x00, 0x00, 0x06, 0x00, 0x00, 
	0x00, 0x01, 0x00, 0x78, 0x4d, 0x54, 0x72, 0x6b, 0x00, 0x00, 
	0x34, 0xb9, 0x00, 0xff, 0x7f, 0x08, 0x05, 0x0f, 0x12, 0x00, 
	0x00, 0x7f, 0x7f, 0x00, 0x00, 0xff, 0x7f, 0x05, 0x05, 0x0f, 
	0x09, 0x00, 0x41, 0x00, 0xff, 0x7f, 0x05, 0x05, 0x0f, 0x09, 
	0x00, 0xc0, 0x00, 0xff, 0x7f, 0x05, 0x05, 0x0f, 0x09, 0x40, 
	0x49, 0x00, 0xff, 0x7f, 0x0d, 0x05, 0x0f, 0x1c, 0x32, 0x30, 
	0x30, 0x34, 0x2e, 0x30, 0x39, 0x2e, 0x30, 0x35, 0x00, 0xff, 
	0x20, 0x01, 0x04, 0x00, 0xc3, 0x02, 0x00, 0xc0, 0x02, 0x00, 
	0xff, 0x58, 0x04, 0x04, 0x02, 0x18, 0x08, 0x00, 0xff, 0x7f, 
	0x0f, 0x05, 0x0f, 0x06, 0x47, 0x65, 0x6e, 0x65, 0x72, 0x61, 
	0x6c, 0x20, 0x4d, 0x49, 0x44, 0x49, 0x00, 0xff, 0x7f, 0x0f, 
	0x05, 0x0f, 0x06, 0x47, 0x65, 0x6e, 0x65, 0x72, 0x61, 0x6c, 
	0x20, 0x4d, 0x49, 0x44, 0x49, 0x00, 0xff, 0x20, 0x01, 0x00, 
	0x00, 0xff, 0x59, 0x02, 0x00, 0x00, 0x00, 0xc4, 0x02, 0x00, 
	0xff, 0x20, 0x01, 0x03, 0x00, 0xff, 0x7f, 0x0f, 0x05, 0x0f, 
	0x06, 0x47, 0x65, 0x6e, 0x65, 0x72, 0x61, 0x6c, 0x20, 0x4d, 
	0x49, 0x44, 0x49, 0x00, 0xff, 0x51, 0x03, 0x05, 0x62, 0xad, 
	0x00, 0xff, 0x01, 0x00, 0x00, 0xff, 0x01, 0x00, 0x00, 0xff, 
	0x02, 0x00, 0x00, 0xff, 0x02, 0x00, 0x00, 0xb0, 0x07, 0x64, 
	0x00, 0xff, 0x04, 0x00, 0x00, 0xff, 0x04, 0x00, 0x00, 0xb0, 
	0x0a, 0x50, 0x00, 0xb4, 0x07, 0x64, 0x00, 0xb3, 0x07, 0x64, 
	0x00, 0xb0, 0x14, 0x00, 0x00, 0xb4, 0x0a, 0x37, 0x00, 0xb3, 
	0x0a, 0x37, 0x00, 0xb0, 0x79, 0x00, 0x00, 0xb4, 0x78, 0x00, 
	0x00, 0xb3, 0x78, 0x00, 0x00, 0xb1, 0x5b, 0x5a, 0x00, 0xb4, 
	0x79, 0x00, 0x00, 0xb3, 0x79, 0x00, 0x00, 0xb1, 0x5d, 0x00, 
	0x00, 0xb4, 0x5b, 0x5a, 0x00, 0xb3, 0x5b, 0x5a, 0x00, 0xb4, 
	0x5d, 0x00, 0x00, 0xb3, 0x5d, 0x00, 0x82, 0x45, 0x93, 0x4b, 
	0x75, 0x2d, 0x83, 0x4b, 0x00, 0x00, 0x93, 0x4c, 0x4d, 0x2d, 
	0x4f, 0x4d, 0x0f, 0x83, 0x4c, 0x00, 0x0a, 0x93, 0x53, 0x41, 
	0x00, 0x51, 0x49, 0x0f, 0x83, 0x4f, 0x00, 0x00, 0x53, 0x00, 
	0x05, 0x51, 0x00, 0x19, 0x93, 0x43, 0x65, 0x00, 0x46, 0x75, 
	0x05, 0x4c, 0x75, 0x00, 0x4f, 0x6d, 0x00, 0x3c, 0x39, 0x05, 
	0x48, 0x71, 0x00, 0x54, 0x6d, 0x14, 0x83, 0x48, 0x00, 0x14, 
	0x4f, 0x00, 0x00, 0x4c, 0x00, 0x05, 0x54, 0x00, 0x0f, 0x93, 
	0x54, 0x49, 0x00, 0x4c, 0x51, 0x05, 0x4f, 0x4d, 0x00, 0x48, 
	0x4d, 0x0f, 0x83, 0x48, 0x00, 0x05, 0x4f, 0x00, 0x05, 0x4c, 
	0x00, 0x00, 0x54, 0x00, 0x14, 0x93, 0x54, 0x65, 0x00, 0x4c, 
	0x61, 0x00, 0x48, 0x61, 0x05, 0x4f, 0x5d, 0x23, 0x83, 0x48, 
	0x00, 0x05, 0x4f, 0x00, 0x00, 0x4c, 0x00, 0x05, 0x54, 0x00, 
	0x19, 0x93, 0x54, 0x65, 0x00, 0x4c, 0x69, 0x00, 0x48, 0x65, 
	0x05, 0x4f, 0x5d, 0x0f, 0x83, 0x48, 0x00, 0x05, 0x54, 0x00, 
	0x05, 0x4f, 0x00, 0x00, 0x4c, 0x00, 0x0f, 0x93, 0x54, 0x65, 
	0x00, 0x4c, 0x69, 0x05, 0x83, 0x3c, 0x00, 0x00, 0x93, 0x48, 
	0x69, 0x05, 0x4f, 0x61, 0x14, 0x52, 0x49, 0x05, 0x83, 0x48, 
	0x00, 0x05, 0x54, 0x00, 0x05, 0x52, 0x00, 0x05, 0x4f, 0x00, 
	0x00, 0x4c, 0x00, 0x0f, 0x46, 0x00, 0x05, 0x43, 0x00, 0x0f, 
	0x93, 0x4b, 0x71, 0x05, 0x54, 0x61, 0x1e, 0x4c, 0x49, 0x05, 
	0x83, 0x4b, 0x00, 0x0a, 0x54, 0x00, 0x1e, 0x93, 0x4f, 0x51, 
	0x0f, 0x83, 0x4c, 0x00, 0x05, 0x93, 0x51, 0x55, 0x14, 0x83, 
	0x4f, 0x00, 0x05, 0x51, 0x00, 0x14, 0x93, 0x4f, 0x6d, 0x00, 
	0x3f, 0x6d, 0x00, 0x46, 0x69, 0x05, 0x48, 0x71, 0x05, 0x4b, 
	0x6d, 0x00, 0x54, 0x65, 0x1e, 0x83, 0x48, 0x00, 0x05, 0x54, 
	0x00, 0x00, 0x4b, 0x00, 0x0a, 0x4f, 0x00, 0x0f, 0x93, 0x54, 
	0x5d, 0x05, 0x4b, 0x5d, 0x00, 0x48, 0x5d, 0x05, 0x4f, 0x4d, 
	0x05, 0x52, 0x45, 0x0a, 0x83, 0x48, 0x00, 0x00, 0x52, 0x00, 
	0x05, 0x54, 0x00, 0x00, 0x4b, 0x00, 0x0a, 0x4f, 0x00, 0x0a, 
	0x93, 0x48, 0x69, 0x00, 0x4b, 0x61, 0x05, 0x54, 0x65, 0x05, 
	0x4f, 0x65, 0x19, 0x83, 0x48, 0x00, 0x0a, 0x4b, 0x00, 0x00, 
	0x54, 0x00, 0x0a, 0x4f, 0x00, 0x14, 0x93, 0x54, 0x61, 0x05, 
	0x48, 0x69, 0x00, 0x4b, 0x65, 0x05, 0x4f, 0x51, 0x0f, 0x83, 
	0x48, 0x00, 0x05, 0x54, 0x00, 0x00, 0x4b, 0x00, 0x0a, 0x4f, 
	0x00, 0x0a, 0x93, 0x54, 0x61, 0x00, 0x4b, 0x61, 0x00, 0x48, 
	0x65, 0x05, 0x4f, 0x69, 0x1e, 0x83, 0x48, 0x00, 0x05, 0x54, 
	0x00, 0x05, 0x4b, 0x00, 0x0a, 0x4f, 0x00, 0x19, 0x93, 0x4b, 
	0x71, 0x05, 0x54, 0x55, 0x05, 0x83, 0x3f, 0x00, 0x05, 0x46, 
	0x00, 0x14, 0x93, 0x4c, 0x45, 0x0a, 0x83, 0x4b, 0x00, 0x0a, 
	0x54, 0x00, 0x1e, 0x93, 0x4f, 0x4d, 0x0f, 0x83, 0x4c, 0x00, 
	0x0a, 0x93, 0x54, 0x3d, 0x14, 0x83, 0x4f, 0x00, 0x00, 0x54, 
	0x00, 0x19, 0x93, 0x43, 0x61, 0x00, 0x46, 0x71, 0x05, 0x4e, 
	0x75, 0x00, 0x54, 0x71, 0x00, 0x3c, 0x39, 0x28, 0x83, 0x46, 
	0x00, 0x05, 0x54, 0x00, 0x05, 0x4e, 0x00, 0x0a, 0x3c, 0x00, 
	0x05, 0x43, 0x00, 0x00, 0x93, 0x4f, 0x6d, 0x05, 0x54, 0x65, 
	0x19, 0x83, 0x54, 0x00, 0x0a, 0x4f, 0x00, 0x0f, 0x93, 0x4d, 
	0x6d, 0x00, 0x51, 0x61, 0x2d, 0x83, 0x51, 0x00, 0x05, 0x4d, 
	0x00, 0x14, 0x93, 0x4b, 0x71, 0x00, 0x4f, 0x61, 0x1e, 0x83, 
	0x4b, 0x00, 0x00, 0x4f, 0x00, 0x14, 0x93, 0x4c, 0x65, 0x00, 
	0x4f, 0x61, 0x28, 0x83, 0x4c, 0x00, 0x05, 0x4f, 0x00, 0x19, 
	0x93, 0x48, 0x71, 0x00, 0x4f, 0x51, 0x19, 0x83, 0x4f, 0x00, 
	0x1e, 0x93, 0x43, 0x61, 0x14, 0x83, 0x48, 0x00, 0x1e, 0x43, 
	0x00, 0x0f, 0x93, 0x42, 0x71, 0x05, 0x48, 0x61, 0x14, 0x83, 
	0x48, 0x00, 0x05, 0x42, 0x00, 0x14, 0x93, 0x48, 0x61, 0x00, 
	0x41, 0x69, 0x3c, 0x83, 0x48, 0x00, 0x0a, 0x41, 0x00, 0x05, 
	0x93, 0x3e, 0x51, 0x00, 0x3c, 0x39, 0x14, 0x83, 0x3e, 0x00, 
	0x02, 0x3c, 0x00, 0x17, 0x93, 0x3f, 0x71, 0x00, 0x43, 0x69, 
	0x3c, 0x83, 0x3f, 0x00, 0x00, 0x43, 0x00, 0x14, 0x93, 0x40, 
	0x65, 0x00, 0x43, 0x59, 0x19, 0x83, 0x40, 0x00, 0x05, 0x43, 
	0x00, 0x0a, 0x93, 0x3c, 0x39, 0x05, 0x43, 0x61, 0x28, 0x83, 
	0x3c, 0x00, 0x0f, 0x43, 0x00, 0x14, 0x93, 0x4b, 0x7d, 0x00, 
	0x4e, 0x75, 0x00, 0x51, 0x69, 0x00, 0x54, 0x71, 0x28, 0x83, 
	0x4b, 0x00, 0x05, 0x54, 0x00, 0x00, 0x51, 0x00, 0x00, 0x4e, 
	0x00, 0x4b, 0x93, 0x4c, 0x71, 0x00, 0x4f, 0x71, 0x00, 0x51, 
	0x71, 0x00, 0x54, 0x75, 0x2d, 0x83, 0x4c, 0x00, 0x05, 0x51, 
	0x00, 0x05, 0x54, 0x00, 0x00, 0x4f, 0x00, 0x41, 0x94, 0x24, 
	0x79, 0x23, 0x84, 0x24, 0x00, 0x05, 0x94, 0x1c, 0x71, 0x4b, 
	0x84, 0x1c, 0x00, 0x05, 0x94, 0x28, 0x6d, 0x1e, 0x84, 0x28, 
	0x00, 0x0a, 0x94, 0x1f, 0x6d, 0x50, 0x84, 0x1f, 0x00, 0x00, 
	0x94, 0x2b, 0x6d, 0x19, 0x84, 0x2b, 0x00, 0x0f, 0x94, 0x21, 
	0x71, 0x50, 0x84, 0x21, 0x00, 0x00, 0x94, 0x2d, 0x71, 0x19, 
	0x91, 0x56, 0x5d, 0x05, 0x84, 0x2d, 0x00, 0x0a, 0x94, 0x22, 
	0x6d, 0x0a, 0x91, 0x57, 0x6d, 0x0a, 0x57, 0x00, 0x05, 0x58, 
	0x65, 0x05, 0x56, 0x00, 0x23, 0x5b, 0x69, 0x05, 0x58, 0x00, 
	0x0a, 0x84, 0x22, 0x00, 0x00, 0x94, 0x2e, 0x71, 0x0f, 0x91, 
	0x58, 0x61, 0x05, 0x5b, 0x00, 0x05, 0x84, 0x2e, 0x00, 0x0f, 
	0x94, 0x21, 0x6d, 0x0a, 0x91, 0x58, 0x00, 0x00, 0x5b, 0x61, 
	0x23, 0x5b, 0x00, 0x05, 0x58, 0x5d, 0x19, 0x58, 0x00, 0x00, 
	0x5b, 0x61, 0x05, 0x94, 0x2d, 0x6d, 0x0a, 0x84, 0x21, 0x00, 
	0x14, 0x2d, 0x00, 0x00, 0x91, 0x5b, 0x00, 0x05, 0x58, 0x59, 
	0x05, 0x94, 0x1f, 0x69, 0x0f, 0x91, 0x58, 0x00, 0x05, 0x5b, 
	0x5d, 0x1e, 0x5b, 0x00, 0x05, 0x58, 0x55, 0x14, 0x58, 0x00, 
	0x00, 0x5b, 0x5d, 0x05, 0x94, 0x2b, 0x6d, 0x00, 0x93, 0x4b, 
	0x7d, 0x00, 0x4e, 0x75, 0x00, 0x51, 0x65, 0x00, 0x54, 0x65, 
	0x05, 0x84, 0x1f, 0x00, 0x0f, 0x91, 0x5b, 0x00, 0x0a, 0x84, 
	0x2b, 0x00, 0x0a, 0x94, 0x1c, 0x65, 0x00, 0x83, 0x54, 0x00, 
	0x05, 0x51, 0x00, 0x00, 0x4b, 0x00, 0x05, 0x4e, 0x00, 0x46, 
	0x94, 0x28, 0x65, 0x00, 0x93, 0x4c, 0x71, 0x00, 0x4f, 0x75, 
	0x00, 0x51, 0x6d, 0x00, 0x54, 0x75, 0x0a, 0x84, 0x1c, 0x00, 
	0x14, 0x28, 0x00, 0x0a, 0x94, 0x18, 0x69, 0x0f, 0x83, 0x4c, 
	0x00, 0x00, 0x51, 0x00, 0x05, 0x54, 0x00, 0x00, 0x4f, 0x00, 
	0x3c, 0x94, 0x24, 0x65, 0x05, 0x84, 0x18, 0x00, 0x19, 0x24, 
	0x00, 0x0a, 0x94, 0x1c, 0x69, 0x50, 0x28, 0x61, 0x05, 0x84, 
	0x1c, 0x00, 0x19, 0x28, 0x00, 0x0a, 0x94, 0x1f, 0x69, 0x50, 
	0x2b, 0x69, 0x05, 0x84, 0x1f, 0x00, 0x1e, 0x2b, 0x00, 0x05, 
	0x94, 0x21, 0x6d, 0x50, 0x2d, 0x6d, 0x05, 0x84, 0x21, 0x00, 
	0x14, 0x91, 0x56, 0x69, 0x05, 0x84, 0x2d, 0x00, 0x0a, 0x94, 
	0x22, 0x6d, 0x0f, 0x91, 0x57, 0x6d, 0x14, 0x58, 0x65, 0x05, 
	0x57, 0x00, 0x00, 0x56, 0x00, 0x1e, 0x58, 0x00, 0x00, 0x5b, 
	0x59, 0x0a, 0x94, 0x2e, 0x75, 0x05, 0x84, 0x22, 0x00, 0x0f, 
	0x91, 0x5b, 0x00, 0x00, 0x58, 0x5d, 0x0a, 0x84, 0x2e, 0x00, 
	0x0a, 0x94, 0x21, 0x69, 0x0a, 0x91, 0x5b, 0x61, 0x05, 0x58, 
	0x00, 0x1e, 0x5b, 0x00, 0x05, 0x58, 0x4d, 0x19, 0x58, 0x00, 
	0x00, 0x5b, 0x61, 0x05, 0x94, 0x2d, 0x69, 0x0a, 0x84, 0x21, 
	0x00, 0x14, 0x91, 0x5b, 0x00, 0x00, 0x58, 0x51, 0x05, 0x84, 
	0x2d, 0x00, 0x05, 0x94, 0x1f, 0x69, 0x0a, 0x91, 0x5b, 0x5d, 
	0x05, 0x58, 0x00, 0x1e, 0x5b, 0x00, 0x00, 0x58, 0x4d, 0x19, 
	0x58, 0x00, 0x00, 0x5b, 0x5d, 0x0a, 0x94, 0x2b, 0x6d, 0x00, 
	0x93, 0x4c, 0x71, 0x00, 0x4f, 0x75, 0x00, 0x51, 0x6d, 0x00, 
	0x54, 0x6d, 0x0a, 0x84, 0x1f, 0x00, 0x05, 0x91, 0x58, 0x59, 
	0x05, 0x5b, 0x00, 0x0f, 0x84, 0x2b, 0x00, 0x05, 0x94, 0x1c, 
	0x69, 0x00, 0x91, 0x58, 0x00, 0x05, 0x83, 0x54, 0x00, 0x05, 
	0x51, 0x00, 0x00, 0x4c, 0x00, 0x05, 0x4f, 0x00, 0x41, 0x94, 
	0x28, 0x69, 0x00, 0x93, 0x4b, 0x71, 0x00, 0x4f, 0x71, 0x00, 
	0x51, 0x69, 0x00, 0x54, 0x6d, 0x0a, 0x84, 0x1c, 0x00, 0x14, 
	0x28, 0x00, 0x0a, 0x94, 0x1d, 0x65, 0x0a, 0x83, 0x4b, 0x00, 
	0x05, 0x51, 0x00, 0x05, 0x54, 0x00, 0x00, 0x4f, 0x00, 0x37, 
	0x84, 0x1d, 0x00, 0x05, 0x94, 0x29, 0x69, 0x1e, 0x84, 0x29, 
	0x00, 0x0a, 0x94, 0x21, 0x69, 0x50, 0x84, 0x21, 0x00, 0x00, 
	0x94, 0x2d, 0x6d, 0x1e, 0x84, 0x2d, 0x00, 0x0a, 0x94, 0x24, 
	0x69, 0x50, 0x30, 0x6d, 0x05, 0x84, 0x24, 0x00, 0x19, 0x30, 
	0x00, 0x0a, 0x94, 0x26, 0x69, 0x50, 0x32, 0x71, 0x05, 0x84, 
	0x26, 0x00, 0x1e, 0x32, 0x00, 0x05, 0x94, 0x27, 0x71, 0x14, 
	0x91, 0x5b, 0x79, 0x00, 0x57, 0x69, 0x0f, 0x57, 0x00, 0x1e, 
	0x57, 0x5d, 0x0a, 0x5b, 0x00, 0x05, 0x84, 0x27, 0x00, 0x00, 
	0x94, 0x33, 0x71, 0x14, 0x91, 0x57, 0x00, 0x00, 0x5b, 0x51, 
	0x0a, 0x84, 0x33, 0x00, 0x0a, 0x94, 0x26, 0x69, 0x14, 0x91, 
	0x57, 0x5d, 0x05, 0x5b, 0x00, 0x0f, 0x57, 0x00, 0x05, 0x5b, 
	0x4d, 0x19, 0x57, 0x59, 0x0a, 0x94, 0x32, 0x6d, 0x00, 0x91, 
	0x5b, 0x00, 0x05, 0x84, 0x26, 0x00, 0x0f, 0x91, 0x57, 0x00, 
	0x05, 0x5b, 0x51, 0x0a, 0x84, 0x32, 0x00, 0x05, 0x94, 0x24, 
	0x69, 0x00, 0x91, 0x57, 0x51, 0x05, 0x5b, 0x00, 0x14, 0x57, 
	0x00, 0x05, 0x5b, 0x4d, 0x0f, 0x57, 0x4d, 0x14, 0x57, 0x00, 
	0x0f, 0x94, 0x30, 0x6d, 0x00, 0x93, 0x4b, 0x7d, 0x00, 0x4e, 
	0x75, 0x00, 0x51, 0x6d, 0x00, 0x54, 0x6d, 0x05, 0x84, 0x24, 
	0x00, 0x05, 0x91, 0x5b, 0x00, 0x14, 0x84, 0x30, 0x00, 0x0a, 
	0x94, 0x21, 0x6d, 0x05, 0x83, 0x4b, 0x00, 0x05, 0x54, 0x00, 
	0x05, 0x51, 0x00, 0x00, 0x4e, 0x00, 0x41, 0x84, 0x21, 0x00, 
	0x00, 0x93, 0x4c, 0x71, 0x00, 0x94, 0x2d, 0x6d, 0x00, 0x93, 
	0x4f, 0x75, 0x00, 0x51, 0x71, 0x00, 0x54, 0x71, 0x1e, 0x84, 
	0x2d, 0x00, 0x0a, 0x94, 0x18, 0x69, 0x0a, 0x83, 0x4f, 0x00, 
	0x00, 0x4c, 0x00, 0x00, 0x51, 0x00, 0x05, 0x54, 0x00, 0x37, 
	0x84, 0x18, 0x00, 0x0a, 0x94, 0x24, 0x69, 0x1e, 0x84, 0x24, 
	0x00, 0x0a, 0x94, 0x1c, 0x71, 0x50, 0x84, 0x1c, 0x00, 0x00, 
	0x94, 0x28, 0x69, 0x1e, 0x84, 0x28, 0x00, 0x0a, 0x94, 0x1f, 
	0x71, 0x50, 0x84, 0x1f, 0x00, 0x00, 0x94, 0x2b, 0x6d, 0x1e, 
	0x84, 0x2b, 0x00, 0x0a, 0x94, 0x21, 0x6d, 0x50, 0x84, 0x21, 
	0x00, 0x00, 0x94, 0x2d, 0x6d, 0x05, 0x91, 0x56, 0x6d, 0x14, 
	0x57, 0x71, 0x0a, 0x84, 0x2d, 0x00, 0x05, 0x94, 0x22, 0x6d, 
	0x05, 0x91, 0x56, 0x00, 0x05, 0x57, 0x00, 0x00, 0x58, 0x65, 
	0x14, 0x5b, 0x61, 0x0a, 0x58, 0x00, 0x19, 0x5b, 0x00, 0x00, 
	0x58, 0x59, 0x0f, 0x84, 0x22, 0x00, 0x00, 0x94, 0x2e, 0x71, 
	0x0f, 0x91, 0x58, 0x00, 0x00, 0x5b, 0x5d, 0x0f, 0x84, 0x2e, 
	0x00, 0x0a, 0x94, 0x21, 0x6d, 0x0a, 0x91, 0x5b, 0x00, 0x05, 
	0x58, 0x51, 0x14, 0x58, 0x00, 0x05, 0x5b, 0x5d, 0x1e, 0x5b, 
	0x00, 0x05, 0x58, 0x5d, 0x05, 0x94, 0x2d, 0x6d, 0x05, 0x84, 
	0x21, 0x00, 0x0f, 0x91, 0x58, 0x00, 0x00, 0x5b, 0x61, 0x0f, 
	0x84, 0x2d, 0x00, 0x05, 0x94, 0x1f, 0x69, 0x05, 0x91, 0x5b, 
	0x00, 0x4b, 0x94, 0x2b, 0x6d, 0x00, 0x93, 0x4b, 0x79, 0x00, 
	0x4e, 0x75, 0x00, 0x51, 0x61, 0x00, 0x54, 0x6d, 0x05, 0x84, 
	0x1f, 0x00, 0x0a, 0x93, 0x4f, 0x75, 0x0f, 0x83, 0x4f, 0x00, 
	0x05, 0x84, 0x2b, 0x00, 0x05, 0x94, 0x1c, 0x6d, 0x05, 0x83, 
	0x4b, 0x00, 0x00, 0x51, 0x00, 0x05, 0x54, 0x00, 0x05, 0x4e, 
	0x00, 0x00, 0x93, 0x58, 0x7d, 0x05, 0x5b, 0x7d, 0x28, 0x83, 
	0x58, 0x00, 0x05, 0x5b, 0x00, 0x0f, 0x94, 0x28, 0x69, 0x00, 
	0x93, 0x4a, 0x71, 0x00, 0x4d, 0x71, 0x00, 0x51, 0x6d, 0x00, 
	0x54, 0x71, 0x0a, 0x84, 0x1c, 0x00, 0x00, 0x93, 0x57, 0x7d, 
	0x00, 0x5a, 0x79, 0x14, 0x83, 0x57, 0x00, 0x00, 0x5a, 0x00, 
	0x05, 0x84, 0x28, 0x00, 0x05, 0x94, 0x1a, 0x6d, 0x05, 0x83, 
	0x4a, 0x00, 0x05, 0x51, 0x00, 0x00, 0x93, 0x59, 0x79, 0x05, 
	0x83, 0x54, 0x00, 0x00, 0x4d, 0x00, 0x00, 0x93, 0x56, 0x75, 
	0x2d, 0x83, 0x59, 0x00, 0x00, 0x56, 0x00, 0x0f, 0x84, 0x1a, 
	0x00, 0x05, 0x94, 0x26, 0x6d, 0x05, 0x93, 0x4f, 0x75, 0x19, 
	0x84, 0x26, 0x00, 0x05, 0x83, 0x4f, 0x00, 0x05, 0x94, 0x1c, 
	0x69, 0x0a, 0x93, 0x4f, 0x5d, 0x00, 0x50, 0x7d, 0x0f, 0x83, 
	0x4f, 0x00, 0x23, 0x50, 0x00, 0x14, 0x84, 0x1c, 0x00, 0x00, 
	0x94, 0x28, 0x6d, 0x05, 0x93, 0x51, 0x69, 0x1e, 0x84, 0x28, 
	0x00, 0x00, 0x83, 0x51, 0x00, 0x05, 0x94, 0x1d, 0x6d, 0x0f, 
	0x93, 0x54, 0x7d, 0x00, 0x59, 0x75, 0x41, 0x84, 0x1d, 0x00, 
	0x00, 0x83, 0x54, 0x00, 0x00, 0x94, 0x29, 0x6d, 0x00, 0x83, 
	0x59, 0x00, 0x00, 0x93, 0x51, 0x65, 0x19, 0x83, 0x51, 0x00, 
	0x0a, 0x84, 0x29, 0x00, 0x05, 0x94, 0x1e, 0x6d, 0x0a, 0x93, 
	0x5b, 0x79, 0x00, 0x56, 0x7d, 0x32, 0x83, 0x5b, 0x00, 0x00, 
	0x56, 0x00, 0x0f, 0x84, 0x1e, 0x00, 0x05, 0x94, 0x2a, 0x71, 
	0x05, 0x93, 0x54, 0x7d, 0x00, 0x59, 0x71, 0x19, 0x84, 0x2a, 
	0x00, 0x0a, 0x94, 0x1f, 0x6d, 0x00, 0x83, 0x54, 0x00, 0x0a, 
	0x93, 0x4f, 0x69, 0x0f, 0x83, 0x59, 0x00, 0x28, 0x4f, 0x00, 
	0x0f, 0x94, 0x2b, 0x6d, 0x00, 0x93, 0x50, 0x7d, 0x00, 0x43, 
	0x69, 0x00, 0x47, 0x75, 0x00, 0x4b, 0x6d, 0x00, 0x4f, 0x69, 
	0x05, 0x84, 0x1f, 0x00, 0x0f, 0x83, 0x43, 0x00, 0x0a, 0x4b, 
	0x00, 0x00, 0x50, 0x00, 0x05, 0x84, 0x2b, 0x00, 0x00, 0x83, 
	0x47, 0x00, 0x05, 0x94, 0x1d, 0x69, 0x05, 0x83, 0x4f, 0x00, 
	0x05, 0x93, 0x51, 0x79, 0x2d, 0x83, 0x51, 0x00, 0x19, 0x94, 
	0x29, 0x69, 0x00, 0x93, 0x43, 0x6d, 0x00, 0x47, 0x71, 0x00, 
	0x4b, 0x6d, 0x00, 0x4f, 0x6d, 0x00, 0x54, 0x79, 0x05, 0x84, 
	0x1d, 0x00, 0x14, 0x83, 0x4b, 0x00, 0x05, 0x84, 0x29, 0x00, 
	0x00, 0x83, 0x43, 0x00, 0x05, 0x54, 0x00, 0x00, 0x47, 0x00, 
	0x05, 0x94, 0x1c, 0x65, 0x05, 0x83, 0x4f, 0x00, 0x05, 0x93, 
	0x5b, 0x6d, 0x23, 0x57, 0x71, 0x0f, 0x83, 0x5b, 0x00, 0x0a, 
	0x57, 0x00, 0x05, 0x93, 0x56, 0x65, 0x05, 0x94, 0x28, 0x6d, 
	0x00, 0x93, 0x43, 0x6d, 0x00, 0x47, 0x75, 0x00, 0x4b, 0x6d, 
	0x00, 0x4f, 0x6d, 0x0a, 0x84, 0x1c, 0x00, 0x0f, 0x83, 0x4b, 
	0x00, 0x00, 0x43, 0x00, 0x00, 0x47, 0x00, 0x00, 0x93, 0x54, 
	0x71, 0x0a, 0x84, 0x28, 0x00, 0x00, 0x83, 0x56, 0x00, 0x05, 
	0x94, 0x1a, 0x6d, 0x00, 0x83, 0x4f, 0x00, 0x00, 0x93, 0x4f, 
	0x79, 0x1e, 0x83, 0x54, 0x00, 0x0a, 0x4f, 0x00, 0x23, 0x93, 
	0x4b, 0x71, 0x05, 0x94, 0x26, 0x6d, 0x05, 0x84, 0x1a, 0x00, 
	0x0a, 0x83, 0x4b, 0x00, 0x0f, 0x84, 0x26, 0x00, 0x0a, 0x94, 
	0x18, 0x6d, 0x05, 0x93, 0x4c, 0x71, 0x23, 0x83, 0x4c, 0x00, 
	0x23, 0x84, 0x18, 0x00, 0x05, 0x94, 0x24, 0x69, 0x00, 0x91, 
	0x4f, 0x71, 0x05, 0x54, 0x6d, 0x00, 0x5b, 0x6d, 0x00, 0x60, 
	0x69, 0x19, 0x84, 0x24, 0x00, 0x00, 0x91, 0x60, 0x00, 0x00, 
	0x4f, 0x00, 0x00, 0x54, 0x00, 0x0a, 0x94, 0x1c, 0x6d, 0x00, 
	0x91, 0x5b, 0x00, 0x0a, 0x4d, 0x71, 0x05, 0x51, 0x69, 0x00, 
	0x59, 0x71, 0x05, 0x5d, 0x65, 0x1e, 0x59, 0x00, 0x05, 0x5d, 
	0x00, 0x00, 0x4d, 0x00, 0x05, 0x51, 0x00, 0x14, 0x84, 0x1c, 
	0x00, 0x00, 0x91, 0x5b, 0x5d, 0x00, 0x94, 0x28, 0x6d, 0x00, 
	0x91, 0x57, 0x69, 0x05, 0x4b, 0x6d, 0x00, 0x4f, 0x65, 0x14, 
	0x57, 0x00, 0x05, 0x4b, 0x00, 0x05, 0x84, 0x28, 0x00, 0x05, 
	0x94, 0x1d, 0x6d, 0x00, 0x91, 0x5b, 0x00, 0x0a, 0x58, 0x5d, 
	0x00, 0x5b, 0x35, 0x00, 0x4c, 0x5d, 0x28, 0x5b, 0x00, 0x05, 
	0x4f, 0x00, 0x0a, 0x58, 0x00, 0x00, 0x4c, 0x00, 0x0a, 0x54, 
	0x65, 0x05, 0x94, 0x29, 0x6d, 0x00, 0x91, 0x48, 0x55, 0x05, 
	0x84, 0x1d, 0x00, 0x19, 0x91, 0x54, 0x00, 0x05, 0x84, 0x29, 
	0x00, 0x00, 0x91, 0x48, 0x00, 0x05, 0x94, 0x1e, 0x71, 0x05, 
	0x91, 0x45, 0x6d, 0x05, 0x51, 0x6d, 0x28, 0x51, 0x00, 0x14, 
	0x45, 0x00, 0x0a, 0x94, 0x2a, 0x71, 0x00, 0x91, 0x4c, 0x51, 
	0x05, 0x84, 0x1e, 0x00, 0x0f, 0x91, 0x4c, 0x00, 0x0a, 0x84, 
	0x2a, 0x00, 0x0a, 0x94, 0x1f, 0x6d, 0x05, 0x91, 0x43, 0x61, 
	0x00, 0x48, 0x69, 0x00, 0x45, 0x61, 0x05, 0x4f, 0x69, 0x00, 
	0x51, 0x69, 0x05, 0x54, 0x69, 0x00, 0x40, 0x59, 0x00, 0x4c, 
	0x45, 0x19, 0x4c, 0x00, 0x0a, 0x40, 0x00, 0x0f, 0x43, 0x00, 
	0x00, 0x4f, 0x00, 0x00, 0x45, 0x00, 0x00, 0x51, 0x00, 0x05, 
	0x54, 0x00, 0x05, 0x48, 0x00, 0x05, 0x84, 0x1f, 0x00, 0x00, 
	0x94, 0x2b, 0x69, 0x0a, 0x91, 0x4c, 0x41, 0x14, 0x84, 0x2b, 
	0x00, 0x0a, 0x94, 0x1d, 0x6d, 0x23, 0x91, 0x4c, 0x00, 0x2d, 
	0x94, 0x29, 0x6d, 0x05, 0x84, 0x1d, 0x00, 0x00, 0x91, 0x43, 
	0x71, 0x00, 0x40, 0x6d, 0x00, 0x45, 0x69, 0x05, 0x4f, 0x75, 
	0x00, 0x4c, 0x71, 0x00, 0x54, 0x71, 0x05, 0x48, 0x69, 0x05, 
	0x51, 0x69, 0x0a, 0x84, 0x29, 0x00, 0x0a, 0x94, 0x1c, 0x6d, 
	0x14, 0x91, 0x48, 0x00, 0x00, 0x45, 0x00, 0x00, 0x40, 0x00, 
	0x00, 0x4c, 0x00, 0x05, 0x54, 0x00, 0x05, 0x51, 0x00, 0x05, 
	0x43, 0x00, 0x0a, 0x4f, 0x00, 0x14, 0x54, 0x31, 0x00, 0x48, 
	0x35, 0x0f, 0x94, 0x28, 0x6d, 0x00, 0x91, 0x47, 0x45, 0x05, 
	0x84, 0x1c, 0x00, 0x00, 0x91, 0x45, 0x51, 0x00, 0x53, 0x2d, 
	0x00, 0x51, 0x55, 0x14, 0x43, 0x59, 0x05, 0x84, 0x28, 0x00, 
	0x00, 0x91, 0x48, 0x00, 0x00, 0x4f, 0x61, 0x05, 0x54, 0x00, 
	0x05, 0x94, 0x1a, 0x71, 0x00, 0x91, 0x47, 0x00, 0x0a, 0x45, 
	0x00, 0x00, 0x3f, 0x71, 0x00, 0x4b, 0x71, 0x0f, 0x53, 0x00, 
	0x0f, 0x51, 0x00, 0x05, 0x43, 0x00, 0x0f, 0x3f, 0x00, 0x00, 
	0x4b, 0x00, 0x05, 0x4f, 0x00, 0x0f, 0x94, 0x26, 0x75, 0x05, 
	0x91, 0x40, 0x61, 0x05, 0x84, 0x1a, 0x00, 0x00, 0x91, 0x4c, 
	0x65, 0x14, 0x84, 0x26, 0x00, 0x05, 0x91, 0x40, 0x00, 0x05, 
	0x94, 0x18, 0x71, 0x00, 0x93, 0x4c, 0x75, 0x00, 0x91, 0x4c, 
	0x00, 0x00, 0x94, 0x1a, 0x2d, 0x05, 0x93, 0x4f, 0x71, 0x00, 
	0x51, 0x71, 0x00, 0x54, 0x6d, 0x1e, 0x83, 0x54, 0x00, 0x0a, 
	0x51, 0x00, 0x05, 0x4c, 0x00, 0x0a, 0x84, 0x1a, 0x00, 0x00, 
	0x83, 0x4f, 0x00, 0x0f, 0x84, 0x18, 0x00, 0x05, 0x94, 0x24, 
	0x61, 0x00, 0x93, 0x56, 0x19, 0x00, 0x91, 0x40, 0x79, 0x00, 
	0x93, 0x53, 0x5d, 0x00, 0x91, 0x43, 0x75, 0x00, 0x93, 0x54, 
	0x35, 0x00, 0x91, 0x45, 0x6d, 0x00, 0x48, 0x6d, 0x0f, 0x93, 
	0x51, 0x61, 0x05, 0x83, 0x56, 0x00, 0x05, 0x93, 0x4f, 0x5d, 
	0x05, 0x84, 0x24, 0x00, 0x05, 0x91, 0x45, 0x00, 0x05, 0x94, 
	0x1c, 0x6d, 0x00, 0x83, 0x54, 0x00, 0x00, 0x91, 0x48, 0x00, 
	0x00, 0x40, 0x00, 0x05, 0x43, 0x00, 0x05, 0x93, 0x4b, 0x7d, 
	0x0f, 0x83, 0x53, 0x00, 0x0f, 0x51, 0x00, 0x0a, 0x4f, 0x00, 
	0x0a, 0x4b, 0x00, 0x14, 0x84, 0x1c, 0x00, 0x00, 0x94, 0x28, 
	0x59, 0x05, 0x93, 0x4b, 0x61, 0x05, 0x4e, 0x69, 0x0a, 0x84, 
	0x28, 0x00, 0x0a, 0x83, 0x4b, 0x00, 0x05, 0x4e, 0x00, 0x05, 
	0x94, 0x1f, 0x71, 0x00, 0x91, 0x40, 0x65, 0x00, 0x43, 0x65, 
	0x00, 0x45, 0x61, 0x00, 0x48, 0x65, 0x0a, 0x93, 0x4c, 0x61, 
	0x00, 0x4f, 0x61, 0x19, 0x91, 0x48, 0x00, 0x00, 0x45, 0x00, 
	0x00, 0x40, 0x00, 0x0a, 0x43, 0x00, 0x0f, 0x83, 0x4c, 0x00, 
	0x0f, 0x4f, 0x00, 0x05, 0x94, 0x2b, 0x55, 0x00, 0x93, 0x48, 
	0x65, 0x05, 0x84, 0x1f, 0x00, 0x14, 0x2b, 0x00, 0x00, 0x83, 
	0x48, 0x00, 0x0f, 0x94, 0x21, 0x6d, 0x05, 0x93, 0x4b, 0x75, 
	0x00, 0x4e, 0x75, 0x28, 0x83, 0x4b, 0x00, 0x05, 0x4e, 0x00, 
	0x1e, 0x94, 0x2d, 0x65, 0x00, 0x93, 0x4d, 0x59, 0x05, 0x84, 
	0x21, 0x00, 0x00, 0x93, 0x4a, 0x5d, 0x19, 0x84, 0x2d, 0x00, 
	0x0a, 0x94, 0x22, 0x71, 0x00, 0x91, 0x40, 0x61, 0x00, 0x43, 
	0x61, 0x00, 0x45, 0x5d, 0x00, 0x48, 0x59, 0x0a, 0x93, 0x48, 
	0x61, 0x0f, 0x83, 0x4d, 0x00, 0x05, 0x4a, 0x00, 0x0a, 0x91, 
	0x48, 0x00, 0x00, 0x45, 0x00, 0x00, 0x40, 0x00, 0x05, 0x83, 
	0x48, 0x00, 0x00, 0x91, 0x43, 0x00, 0x1e, 0x84, 0x22, 0x00, 
	0x05, 0x94, 0x2e, 0x69, 0x00, 0x93, 0x4f, 0x71, 0x00, 0x4c, 
	0x6d, 0x00, 0x51, 0x6d, 0x00, 0x54, 0x71, 0x19, 0x84, 0x2e, 
	0x00, 0x00, 0x83, 0x4c, 0x00, 0x05, 0x51, 0x00, 0x00, 0x4f, 
	0x00, 0x05, 0x54, 0x00, 0x05, 0x94, 0x21, 0x69, 0x50, 0x2d, 
	0x5d, 0x00, 0x93, 0x4f, 0x79, 0x00, 0x91, 0x40, 0x6d, 0x00, 
	0x43, 0x75, 0x00, 0x45, 0x69, 0x00, 0x48, 0x6d, 0x0a, 0x84, 
	0x21, 0x00, 0x00, 0x93, 0x4c, 0x71, 0x00, 0x51, 0x71, 0x05, 
	0x54, 0x75, 0x0a, 0x84, 0x2d, 0x00, 0x0a, 0x91, 0x45, 0x00, 
	0x05, 0x94, 0x1f, 0x71, 0x00, 0x83, 0x4c, 0x00, 0x00, 0x91, 
	0x48, 0x00, 0x00, 0x83, 0x54, 0x00, 0x00, 0x91, 0x40, 0x00, 
	0x0a, 0x83, 0x51, 0x00, 0x00, 0x91, 0x43, 0x00, 0x0f, 0x83, 
	0x4f, 0x00, 0x1e, 0x93, 0x54, 0x45, 0x0a, 0x53, 0x55, 0x0a, 
	0x51, 0x59, 0x05, 0x94, 0x2b, 0x61, 0x14, 0x84, 0x1f, 0x00, 
	0x00, 0x93, 0x4f, 0x65, 0x0a, 0x84, 0x2b, 0x00, 0x0a, 0x94, 
	0x1c, 0x75, 0x00, 0x91, 0x3f, 0x7d, 0x00, 0x42, 0x7d, 0x00, 
	0x45, 0x61, 0x00, 0x48, 0x69, 0x0a, 0x93, 0x4b, 0x79, 0x0a, 
	0x83, 0x53, 0x00, 0x14, 0x51, 0x00, 0x05, 0x4b, 0x00, 0x00, 
	0x91, 0x48, 0x00, 0x05, 0x45, 0x00, 0x05, 0x83, 0x4f, 0x00, 
	0x00, 0x91, 0x3f, 0x00, 0x05, 0x42, 0x00, 0x05, 0x83, 0x54, 
	0x00, 0x0f, 0x94, 0x28, 0x55, 0x00, 0x93, 0x4c, 0x5d, 0x00, 
	0x91, 0x40, 0x6d, 0x00, 0x43, 0x69, 0x00, 0x45, 0x5d, 0x00, 
	0x48, 0x5d, 0x0a, 0x84, 0x1c, 0x00, 0x0f, 0x28, 0x00, 0x0f, 
	0x94, 0x18, 0x6d, 0x00, 0x93, 0x4f, 0x71, 0x00, 0x91, 0x48, 
	0x00, 0x05, 0x93, 0x54, 0x5d, 0x00, 0x91, 0x45, 0x00, 0x05, 
	0x40, 0x00, 0x05, 0x83, 0x4c, 0x00, 0x00, 0x91, 0x43, 0x00, 
	0x00, 0x83, 0x54, 0x00, 0x19, 0x4f, 0x00, 0x14, 0x93, 0x54, 
	0x59, 0x0f, 0x52, 0x31, 0x05, 0x84, 0x18, 0x00, 0x00, 0x93, 
	0x53, 0x5d, 0x00, 0x91, 0x3c, 0x75, 0x00, 0x94, 0x24, 0x59, 
	0x00, 0x91, 0x40, 0x75, 0x00, 0x43, 0x65, 0x00, 0x47, 0x45, 
	0x00, 0x48, 0x71, 0x0a, 0x93, 0x51, 0x65, 0x00, 0x4e, 0x5d, 
	0x05, 0x83, 0x52, 0x00, 0x05, 0x93, 0x4f, 0x65, 0x05, 0x83, 
	0x4e, 0x00, 0x00, 0x91, 0x47, 0x00, 0x05, 0x84, 0x24, 0x00, 
	0x05, 0x91, 0x3c, 0x00, 0x05, 0x94, 0x1c, 0x69, 0x00, 0x93, 
	0x4b, 0x79, 0x00, 0x91, 0x43, 0x00, 0x05, 0x40, 0x00, 0x0a, 
	0x48, 0x00, 0x05, 0x83, 0x53, 0x00, 0x0f, 0x51, 0x00, 0x00, 
	0x54, 0x00, 0x00, 0x4f, 0x00, 0x0f, 0x4b, 0x00, 0x1e, 0x94, 
	0x28, 0x59, 0x00, 0x93, 0x4b, 0x65, 0x00, 0x4e, 0x69, 0x05, 
	0x84, 0x1c, 0x00, 0x0a, 0x83, 0x4b, 0x00, 0x00, 0x4e, 0x00, 
	0x0f, 0x84, 0x28, 0x00, 0x0a, 0x94, 0x1f, 0x6d, 0x00, 0x91, 
	0x3c, 0x69, 0x00, 0x40, 0x69, 0x00, 0x43, 0x65, 0x00, 0x48, 
	0x65, 0x05, 0x93, 0x4c, 0x61, 0x00, 0x4f, 0x5d, 0x14, 0x91, 
	0x3c, 0x00, 0x0a, 0x40, 0x00, 0x00, 0x43, 0x00, 0x0a, 0x48, 
	0x00, 0x14, 0x83, 0x4c, 0x00, 0x0a, 0x4f, 0x00, 0x00, 0x93, 
	0x48, 0x59, 0x05, 0x84, 0x1f, 0x00, 0x00, 0x94, 0x2b, 0x5d, 
	0x19, 0x83, 0x48, 0x00, 0x05, 0x84, 0x2b, 0x00, 0x0a, 0x94, 
	0x21, 0x6d, 0x05, 0x93, 0x4e, 0x75, 0x00, 0x4b, 0x71, 0x05, 
	0x48, 0x45, 0x14, 0x83, 0x48, 0x00, 0x0a, 0x4b, 0x00, 0x0a, 
	0x4e, 0x00, 0x19, 0x93, 0x4a, 0x61, 0x00, 0x4d, 0x55, 0x05, 
	0x94, 0x2d, 0x65, 0x05, 0x84, 0x21, 0x00, 0x19, 0x83, 0x4d, 
	0x00, 0x05, 0x84, 0x2d, 0x00, 0x05, 0x94, 0x22, 0x75, 0x00, 
	0x91, 0x3c, 0x69, 0x00, 0x40, 0x65, 0x00, 0x43, 0x5d, 0x00, 
	0x48, 0x69, 0x0a, 0x93, 0x48, 0x65, 0x14, 0x83, 0x4a, 0x00, 
	0x05, 0x91, 0x40, 0x00, 0x00, 0x3c, 0x00, 0x05, 0x83, 0x48, 
	0x00, 0x00, 0x91, 0x43, 0x00, 0x0f, 0x48, 0x00, 0x19, 0x84, 
	0x22, 0x00, 0x00, 0x94, 0x2e, 0x65, 0x05, 0x93, 0x4f, 0x75, 
	0x00, 0x4c, 0x75, 0x00, 0x54, 0x75, 0x05, 0x51, 0x69, 0x0f, 
	0x83, 0x4c, 0x00, 0x05, 0x84, 0x2e, 0x00, 0x00, 0x83, 0x51, 
	0x00, 0x05, 0x54, 0x00, 0x00, 0x4f, 0x00, 0x05, 0x94, 0x21, 
	0x6d, 0x50, 0x2d, 0x61, 0x00, 0x93, 0x4f, 0x79, 0x00, 0x91, 
	0x3c, 0x75, 0x00, 0x40, 0x71, 0x00, 0x43, 0x69, 0x00, 0x48, 
	0x6d, 0x0a, 0x84, 0x21, 0x00, 0x00, 0x93, 0x4c, 0x75, 0x00, 
	0x51, 0x75, 0x05, 0x54, 0x75, 0x0a, 0x91, 0x43, 0x00, 0x05, 
	0x84, 0x2d, 0x00, 0x00, 0x91, 0x3c, 0x00, 0x0a, 0x94, 0x1f, 
	0x6d, 0x00, 0x91, 0x40, 0x00, 0x05, 0x83, 0x4c, 0x00, 0x0f, 
	0x51, 0x00, 0x00, 0x91, 0x48, 0x00, 0x00, 0x83, 0x4f, 0x00, 
	0x00, 0x54, 0x00, 0x3c, 0x94, 0x2b, 0x59, 0x00, 0x93, 0x5b, 
	0x55, 0x05, 0x59, 0x55, 0x0a, 0x84, 0x1f, 0x00, 0x00, 0x93, 
	0x58, 0x55, 0x00, 0x57, 0x65, 0x0f, 0x84, 0x2b, 0x00, 0x05, 
	0x93, 0x54, 0x6d, 0x05, 0x94, 0x1c, 0x71, 0x00, 0x91, 0x40, 
	0x41, 0x00, 0x43, 0x41, 0x00, 0x45, 0x49, 0x00, 0x48, 0x3d, 
	0x0a, 0x83, 0x5b, 0x00, 0x00, 0x59, 0x00, 0x0a, 0x58, 0x00, 
	0x00, 0x91, 0x45, 0x00, 0x00, 0x93, 0x50, 0x71, 0x05, 0x91, 
	0x48, 0x00, 0x00, 0x43, 0x00, 0x05, 0x40, 0x00, 0x0f, 0x83, 
	0x57, 0x00, 0x0a, 0x93, 0x59, 0x0d, 0x05, 0x83, 0x54, 0x00, 
	0x0a, 0x50, 0x00, 0x0a, 0x94, 0x28, 0x65, 0x0a, 0x84, 0x1c, 
	0x00, 0x00, 0x93, 0x51, 0x65, 0x05, 0x83, 0x59, 0x00, 0x0f, 
	0x84, 0x28, 0x00, 0x0a, 0x94, 0x1d, 0x6d, 0x0f, 0x83, 0x51, 
	0x00, 0x05, 0x93, 0x5b, 0x59, 0x1e, 0x57, 0x61, 0x00, 0x59, 
	0x2d, 0x0f, 0x83, 0x5b, 0x00, 0x05, 0x59, 0x00, 0x0a, 0x94, 
	0x29, 0x61, 0x00, 0x91, 0x3f, 0x75, 0x00, 0x43, 0x71, 0x00, 
	0x45, 0x65, 0x00, 0x48, 0x71, 0x05, 0x84, 0x1d, 0x00, 0x14, 
	0x29, 0x00, 0x05, 0x93, 0x58, 0x19, 0x00, 0x91, 0x45, 0x00, 
	0x05, 0x93, 0x56, 0x25, 0x00, 0x91, 0x3f, 0x00, 0x05, 0x94, 
	0x1f, 0x55, 0x00, 0x93, 0x54, 0x55, 0x00, 0x91, 0x43, 0x00, 
	0x00, 0x94, 0x21, 0x65, 0x05, 0x83, 0x57, 0x00, 0x00, 0x91, 
	0x48, 0x00, 0x0a, 0x83, 0x58, 0x00, 0x05, 0x56, 0x00, 0x0a, 
	0x84, 0x1f, 0x00, 0x00, 0x93, 0x51, 0x5d, 0x19, 0x83, 0x54, 
	0x00, 0x0f, 0x51, 0x00, 0x00, 0x93, 0x5b, 0x5d, 0x05, 0x84, 
	0x21, 0x00, 0x05, 0x94, 0x2d, 0x5d, 0x1e, 0x84, 0x2d, 0x00, 
	0x0a, 0x94, 0x24, 0x71, 0x00, 0x93, 0x57, 0x5d, 0x00, 0x91, 
	0x3f, 0x65, 0x00, 0x43, 0x5d, 0x00, 0x45, 0x55, 0x00, 0x48, 
	0x5d, 0x0a, 0x83, 0x5b, 0x00, 0x0f, 0x57, 0x00, 0x00, 0x93, 
	0x56, 0x51, 0x05, 0x58, 0x2d, 0x0f, 0x91, 0x45, 0x00, 0x00, 
	0x3f, 0x00, 0x05, 0x83, 0x58, 0x00, 0x00, 0x91, 0x48, 0x00, 
	0x05, 0x43, 0x00, 0x0a, 0x93, 0x54, 0x5d, 0x05, 0x83, 0x56, 
	0x00, 0x0a, 0x94, 0x30, 0x61, 0x00, 0x91, 0x3f, 0x59, 0x00, 
	0x43, 0x6d, 0x00, 0x45, 0x5d, 0x00, 0x48, 0x59, 0x05, 0x84, 
	0x24, 0x00, 0x0a, 0x93, 0x51, 0x59, 0x0a, 0x84, 0x30, 0x00, 
	0x0a, 0x83, 0x54, 0x00, 0x00, 0x91, 0x3f, 0x00, 0x05, 0x94, 
	0x26, 0x71, 0x00, 0x91, 0x43, 0x00, 0x00, 0x45, 0x00, 0x00, 
	0x48, 0x00, 0x0a, 0x83, 0x51, 0x00, 0x00, 0x93, 0x5b, 0x59, 
	0x00, 0x5d, 0x51, 0x0f, 0x83, 0x5d, 0x00, 0x23, 0x93, 0x57, 
	0x5d, 0x14, 0x84, 0x26, 0x00, 0x00, 0x83, 0x5b, 0x00, 0x00, 
	0x94, 0x32, 0x5d, 0x05, 0x83, 0x57, 0x00, 0x00, 0x93, 0x56, 
	0x4d, 0x19, 0x84, 0x32, 0x00, 0x0a, 0x94, 0x27, 0x75, 0x00, 
	0x93, 0x54, 0x55, 0x00, 0x91, 0x3f, 0x75, 0x00, 0x43, 0x69, 
	0x00, 0x45, 0x5d, 0x00, 0x48, 0x69, 0x0f, 0x83, 0x56, 0x00, 
	0x0f, 0x93, 0x51, 0x5d, 0x0f, 0x91, 0x45, 0x00, 0x00, 0x43, 
	0x00, 0x05, 0x83, 0x54, 0x00, 0x00, 0x91, 0x3f, 0x00, 0x00, 
	0x48, 0x00, 0x0f, 0x83, 0x51, 0x00, 0x00, 0x93, 0x5b, 0x5d, 
	0x0f, 0x84, 0x27, 0x00, 0x00, 0x94, 0x33, 0x61, 0x19, 0x84, 
	0x33, 0x00, 0x0a, 0x93, 0x57, 0x5d, 0x05, 0x94, 0x26, 0x71, 
	0x0a, 0x83, 0x5b, 0x00, 0x0a, 0x57, 0x00, 0x05, 0x93, 0x56, 
	0x51, 0x05, 0x58, 0x31, 0x14, 0x83, 0x58, 0x00, 0x05, 0x93, 
	0x54, 0x55, 0x0a, 0x83, 0x56, 0x00, 0x0f, 0x94, 0x32, 0x65, 
	0x00, 0x93, 0x51, 0x5d, 0x00, 0x91, 0x3f, 0x75, 0x00, 0x43, 
	0x69, 0x00, 0x45, 0x61, 0x00, 0x48, 0x61, 0x0a, 0x84, 0x26, 
	0x00, 0x0f, 0x83, 0x54, 0x00, 0x05, 0x84, 0x32, 0x00, 0x05, 
	0x91, 0x3f, 0x00, 0x05, 0x94, 0x24, 0x75, 0x00, 0x93, 0x5b, 
	0x51, 0x00, 0x91, 0x48, 0x00, 0x00, 0x93, 0x5d, 0x49, 0x00, 
	0x91, 0x45, 0x00, 0x05, 0x43, 0x00, 0x05, 0x83, 0x51, 0x00, 
	0x0a, 0x5d, 0x00, 0x14, 0x93, 0x57, 0x61, 0x05, 0x58, 0x3d, 
	0x14, 0x83, 0x5b, 0x00, 0x00, 0x57, 0x00, 0x00, 0x93, 0x56, 
	0x59, 0x0f, 0x94, 0x30, 0x55, 0x05, 0x83, 0x58, 0x00, 0x0a, 
	0x84, 0x30, 0x00, 0x00, 0x24, 0x00, 0x05, 0x93, 0x54, 0x5d, 
	0x0a, 0x83, 0x56, 0x00, 0x0a, 0x94, 0x21, 0x71, 0x00, 0x91, 
	0x3f, 0x7d, 0x00, 0x42, 0x79, 0x00, 0x45, 0x6d, 0x00, 0x48, 
	0x79, 0x0a, 0x93, 0x51, 0x59, 0x05, 0x83, 0x54, 0x00, 0x14, 
	0x51, 0x00, 0x0a, 0x91, 0x45, 0x00, 0x05, 0x48, 0x00, 0x05, 
	0x3f, 0x00, 0x05, 0x42, 0x00, 0x14, 0x94, 0x2d, 0x49, 0x00, 
	0x91, 0x40, 0x6d, 0x00, 0x43, 0x6d, 0x00, 0x45, 0x5d, 0x00, 
	0x48, 0x61, 0x0f, 0x84, 0x21, 0x00, 0x0a, 0x2d, 0x00, 0x0f, 
	0x94, 0x18, 0x7d, 0x00, 0x91, 0x40, 0x00, 0x05, 0x48, 0x00, 
	0x05, 0x45, 0x00, 0x05, 0x43, 0x00, 0x41, 0x84, 0x18, 0x00, 
	0x00, 0x91, 0x3c, 0x71, 0x00, 0x94, 0x24, 0x69, 0x00, 0x91, 
	0x40, 0x71, 0x00, 0x43, 0x69, 0x00, 0x44, 0x51, 0x00, 0x48, 
	0x75, 0x05, 0x44, 0x00, 0x19, 0x84, 0x24, 0x00, 0x00, 0x91, 
	0x43, 0x00, 0x00, 0x3c, 0x00, 0x0a, 0x94, 0x1c, 0x6d, 0x05, 
	0x91, 0x40, 0x00, 0x14, 0x48, 0x00, 0x37, 0x84, 0x1c, 0x00, 
	0x00, 0x94, 0x28, 0x5d, 0x19, 0x84, 0x28, 0x00, 0x0f, 0x94, 
	0x1f, 0x71, 0x00, 0x91, 0x3c, 0x65, 0x00, 0x40, 0x65, 0x00, 
	0x43, 0x65, 0x00, 0x48, 0x65, 0x0a, 0x93, 0x4f, 0x25, 0x0f, 
	0x83, 0x4f, 0x00, 0x0a, 0x91, 0x3c, 0x00, 0x05, 0x43, 0x00, 
	0x05, 0x40, 0x00, 0x0f, 0x48, 0x00, 0x14, 0x94, 0x2b, 0x61, 
	0x00, 0x93, 0x4f, 0x79, 0x05, 0x84, 0x1f, 0x00, 0x00, 0x93, 
	0x5b, 0x75, 0x19, 0x84, 0x2b, 0x00, 0x00, 0x83, 0x4f, 0x00, 
	0x00, 0x5b, 0x00, 0x0a, 0x94, 0x21, 0x71, 0x0a, 0x93, 0x5b, 
	0x3d, 0x00, 0x57, 0x71, 0x14, 0x83, 0x5b, 0x00, 0x0a, 0x57, 
	0x00, 0x23, 0x93, 0x58, 0x55, 0x00, 0x56, 0x61, 0x05, 0x84, 
	0x21, 0x00, 0x00, 0x94, 0x2d, 0x61, 0x0a, 0x83, 0x58, 0x00, 
	0x00, 0x56, 0x00, 0x14, 0x84, 0x2d, 0x00, 0x0a, 0x94, 0x22, 
	0x75, 0x00, 0x91, 0x3c, 0x6d, 0x00, 0x40, 0x6d, 0x00, 0x43, 
	0x65, 0x00, 0x48, 0x6d, 0x0a, 0x93, 0x5b, 0x79, 0x00, 0x60, 
	0x75, 0x14, 0x91, 0x3c, 0x00, 0x05, 0x83, 0x5b, 0x00, 0x05, 
	0x60, 0x00, 0x05, 0x91, 0x43, 0x00, 0x05, 0x40, 0x00, 0x0a, 
	0x48, 0x00, 0x0f, 0x93, 0x54, 0x59, 0x05, 0x94, 0x2e, 0x65, 
	0x05, 0x84, 0x22, 0x00, 0x0a, 0x83, 0x54, 0x00, 0x0a, 0x84, 
	0x2e, 0x00, 0x0f, 0x94, 0x21, 0x71, 0x0a, 0x93, 0x59, 0x6d, 
	0x00, 0x5d, 0x69, 0x05, 0x5b, 0x59, 0x19, 0x83, 0x5b, 0x00, 
	0x05, 0x59, 0x00, 0x00, 0x5d, 0x00, 0x1e, 0x93, 0x57, 0x71, 
	0x05, 0x94, 0x2d, 0x61, 0x00, 0x93, 0x5a, 0x61, 0x00, 0x91, 
	0x3c, 0x6d, 0x05, 0x84, 0x21, 0x00, 0x00, 0x91, 0x40, 0x71, 
	0x00, 0x43, 0x69, 0x00, 0x48, 0x6d, 0x05, 0x83, 0x5a, 0x00, 
	0x0a, 0x57, 0x00, 0x05, 0x84, 0x2d, 0x00, 0x00, 0x91, 0x3c, 
	0x00, 0x0a, 0x40, 0x00, 0x00, 0x43, 0x00, 0x05, 0x94, 0x1f, 
	0x75, 0x05, 0x93, 0x58, 0x61, 0x00, 0x5b, 0x65, 0x05, 0x91, 
	0x48, 0x00, 0x23, 0x83, 0x58, 0x00, 0x05, 0x5b, 0x00, 0x14, 
	0x93, 0x4f, 0x61, 0x0a, 0x94, 0x2b, 0x65, 0x14, 0x84, 0x1f, 
	0x00, 0x00, 0x83, 0x4f, 0x00, 0x0a, 0x84, 0x2b, 0x00, 0x0a, 
	0x94, 0x1c, 0x71, 0x00, 0x93, 0x58, 0x75, 0x05, 0x5b, 0x71, 
	0x28, 0x83, 0x58, 0x00, 0x05, 0x5b, 0x00, 0x19, 0x93, 0x57, 
	0x71, 0x00, 0x5a, 0x69, 0x05, 0x94, 0x28, 0x5d, 0x05, 0x84, 
	0x1c, 0x00, 0x0f, 0x83, 0x5a, 0x00, 0x00, 0x57, 0x00, 0x0a, 
	0x84, 0x28, 0x00, 0x0a, 0x94, 0x1a, 0x75, 0x05, 0x93, 0x56, 
	0x61, 0x00, 0x59, 0x65, 0x28, 0x83, 0x59, 0x00, 0x05, 0x56, 
	0x00, 0x14, 0x93, 0x4f, 0x71, 0x0a, 0x84, 0x1a, 0x00, 0x00, 
	0x91, 0x3e, 0x79, 0x00, 0x94, 0x26, 0x61, 0x00, 0x91, 0x41, 
	0x7d, 0x00, 0x45, 0x69, 0x00, 0x48, 0x71, 0x1e, 0x84, 0x26, 
	0x00, 0x00, 0x83, 0x4f, 0x00, 0x0a, 0x94, 0x1c, 0x6d, 0x00, 
	0x91, 0x3e, 0x00, 0x05, 0x45, 0x00, 0x05, 0x41, 0x00, 0x0f, 
	0x48, 0x00, 0x37, 0x84, 0x1c, 0x00, 0x00, 0x94, 0x28, 0x59, 
	0x1e, 0x84, 0x28, 0x00, 0x0a, 0x94, 0x1d, 0x71, 0x00, 0x91, 
	0x3e, 0x61, 0x00, 0x41, 0x61, 0x00, 0x45, 0x59, 0x00, 0x48, 
	0x59, 0x2d, 0x45, 0x00, 0x00, 0x3e, 0x00, 0x0a, 0x41, 0x00, 
	0x19, 0x84, 0x1d, 0x00, 0x00, 0x91, 0x3e, 0x61, 0x00, 0x94, 
	0x29, 0x61, 0x00, 0x91, 0x41, 0x75, 0x00, 0x45, 0x5d, 0x1e, 
	0x84, 0x29, 0x00, 0x0a, 0x94, 0x1e, 0x75, 0x00, 0x91, 0x45, 
	0x00, 0x00, 0x3e, 0x00, 0x0a, 0x41, 0x00, 0x00, 0x48, 0x00, 
	0x46, 0x94, 0x2a, 0x61, 0x05, 0x84, 0x1e, 0x00, 0x19, 0x2a, 
	0x00, 0x0a, 0x94, 0x1f, 0x71, 0x50, 0x84, 0x1f, 0x00, 0x00, 
	0x91, 0x43, 0x71, 0x00, 0x94, 0x2b, 0x61, 0x00, 0x91, 0x47, 
	0x7d, 0x00, 0x4b, 0x75, 0x00, 0x4f, 0x71, 0x0a, 0x93, 0x4f, 
	0x75, 0x14, 0x84, 0x2b, 0x00, 0x00, 0x91, 0x4b, 0x00, 0x00, 
	0x43, 0x00, 0x05, 0x47, 0x00, 0x05, 0x94, 0x1d, 0x71, 0x0a, 
	0x93, 0x50, 0x75, 0x05, 0x91, 0x4f, 0x00, 0x0f, 0x83, 0x4f, 
	0x00, 0x0a, 0x50, 0x00, 0x28, 0x94, 0x29, 0x61, 0x00, 0x93, 
	0x51, 0x71, 0x0f, 0x84, 0x1d, 0x00, 0x0a, 0x29, 0x00, 0x0f, 
	0x94, 0x1c, 0x71, 0x00, 0x83, 0x51, 0x00, 0x00, 0x91, 0x43, 
	0x71, 0x00, 0x47, 0x79, 0x00, 0x4b, 0x75, 0x00, 0x4f, 0x71, 
	0x0a, 0x93, 0x5b, 0x65, 0x23, 0x57, 0x65, 0x0f, 0x83, 0x5b, 
	0x00, 0x0a, 0x93, 0x56, 0x61, 0x05, 0x83, 0x57, 0x00, 0x05, 
	0x94, 0x28, 0x61, 0x0a, 0x84, 0x1c, 0x00, 0x0f, 0x93, 0x54, 
	0x71, 0x0a, 0x84, 0x28, 0x00, 0x05, 0x94, 0x1a, 0x75, 0x00, 
	0x93, 0x58, 0x35, 0x00, 0x4f, 0x69, 0x14, 0x83, 0x56, 0x00, 
	0x00, 0x58, 0x00, 0x0a, 0x54, 0x00, 0x0f, 0x4f, 0x00, 0x14, 
	0x91, 0x43, 0x00, 0x0a, 0x93, 0x4b, 0x71, 0x05, 0x94, 0x26, 
	0x61, 0x00, 0x91, 0x43, 0x45, 0x0a, 0x84, 0x1a, 0x00, 0x05, 
	0x91, 0x4f, 0x00, 0x00, 0x4b, 0x00, 0x05, 0x47, 0x00, 0x0a, 
	0x84, 0x26, 0x00, 0x05, 0x83, 0x4b, 0x00, 0x00, 0x91, 0x43, 
	0x00, 0x05, 0x94, 0x18, 0x75, 0x00, 0x93, 0x4c, 0x5d, 0x32, 
	0x83, 0x4c, 0x00, 0x14, 0x93, 0x4c, 0x71, 0x00, 0x54, 0x79, 
	0x00, 0x4f, 0x75, 0x05, 0x84, 0x18, 0x00, 0x05, 0x94, 0x24, 
	0x5d, 0x00, 0x91, 0x40, 0x71, 0x00, 0x43, 0x75, 0x00, 0x45, 
	0x71, 0x00, 0x48, 0x75, 0x0f, 0x40, 0x00, 0x0f, 0x84, 0x24, 
	0x00, 0x00, 0x91, 0x43, 0x00, 0x00, 0x45, 0x00, 0x0a, 0x94, 
	0x1c, 0x6d, 0x00, 0x91, 0x48, 0x00, 0x05, 0x83, 0x54, 0x00, 
	0x00, 0x4c, 0x00, 0x0f, 0x4f, 0x00, 0x1e, 0x93, 0x54, 0x4d, 
	0x14, 0x53, 0x39, 0x05, 0x51, 0x5d, 0x05, 0x84, 0x1c, 0x00, 
	0x00, 0x94, 0x28, 0x61, 0x05, 0x93, 0x4e, 0x4d, 0x0a, 0x4f, 
	0x61, 0x0a, 0x83, 0x54, 0x00, 0x0a, 0x84, 0x28, 0x00, 0x05, 
	0x94, 0x1d, 0x71, 0x00, 0x93, 0x4b, 0x71, 0x00, 0x91, 0x40, 
	0x61, 0x00, 0x43, 0x5d, 0x00, 0x45, 0x55, 0x00, 0x48, 0x61, 
	0x0f, 0x83, 0x53, 0x00, 0x14, 0x51, 0x00, 0x05, 0x4b, 0x00, 
	0x05, 0x4e, 0x00, 0x00, 0x91, 0x45, 0x00, 0x05, 0x83, 0x4f, 
	0x00, 0x00, 0x91, 0x40, 0x00, 0x05, 0x43, 0x00, 0x00, 0x48, 
	0x00, 0x14, 0x84, 0x1d, 0x00, 0x05, 0x94, 0x29, 0x5d, 0x00, 
	0x93, 0x4c, 0x49, 0x00, 0x91, 0x40, 0x59, 0x00, 0x43, 0x6d, 
	0x00, 0x45, 0x61, 0x00, 0x48, 0x5d, 0x14, 0x45, 0x00, 0x05, 
	0x40, 0x00, 0x00, 0x43, 0x00, 0x05, 0x84, 0x29, 0x00, 0x00, 
	0x91, 0x48, 0x00, 0x0a, 0x94, 0x1e, 0x75, 0x00, 0x93, 0x51, 
	0x65, 0x2d, 0x83, 0x4c, 0x00, 0x19, 0x51, 0x00, 0x0a, 0x94, 
	0x2a, 0x61, 0x05, 0x84, 0x1e, 0x00, 0x00, 0x93, 0x4c, 0x49, 
	0x14, 0x84, 0x2a, 0x00, 0x00, 0x83, 0x4c, 0x00, 0x0f, 0x94, 
	0x1f, 0x6d, 0x00, 0x91, 0x40, 0x59, 0x00, 0x43, 0x65, 0x00, 
	0x45, 0x69, 0x00, 0x48, 0x59, 0x0a, 0x93, 0x4c, 0x61, 0x00, 
	0x54, 0x75, 0x14, 0x91, 0x40, 0x00, 0x05, 0x48, 0x00, 0x00, 
	0x45, 0x00, 0x05, 0x43, 0x00, 0x0f, 0x83, 0x4c, 0x00, 0x19, 
	0x84, 0x1f, 0x00, 0x00, 0x93, 0x4c, 0x45, 0x00, 0x94, 0x2b, 
	0x61, 0x05, 0x83, 0x54, 0x00, 0x1e, 0x84, 0x2b, 0x00, 0x05, 
	0x94, 0x21, 0x71, 0x00, 0x93, 0x51, 0x6d, 0x28, 0x83, 0x4c, 
	0x00, 0x0f, 0x51, 0x00, 0x14, 0x84, 0x21, 0x00, 0x00, 0x93, 
	0x4c, 0x6d, 0x05, 0x94, 0x2d, 0x65, 0x00, 0x93, 0x54, 0x71, 
	0x00, 0x91, 0x40, 0x6d, 0x00, 0x43, 0x75, 0x00, 0x45, 0x69, 
	0x00, 0x48, 0x65, 0x19, 0x48, 0x00, 0x00, 0x40, 0x00, 0x05, 
	0x84, 0x2d, 0x00, 0x00, 0x83, 0x54, 0x00, 0x00, 0x91, 0x45, 
	0x00, 0x05, 0x83, 0x4c, 0x00, 0x00, 0x91, 0x43, 0x00, 0x05, 
	0x94, 0x22, 0x79, 0x41, 0x93, 0x54, 0x65, 0x0f, 0x94, 0x2e, 
	0x6d, 0x00, 0x93, 0x53, 0x59, 0x05, 0x84, 0x22, 0x00, 0x00, 
	0x93, 0x51, 0x65, 0x0f, 0x4f, 0x5d, 0x05, 0x84, 0x2e, 0x00, 
	0x0f, 0x94, 0x23, 0x65, 0x00, 0x91, 0x3f, 0x7d, 0x00, 0x94, 
	0x24, 0x29, 0x00, 0x91, 0x42, 0x7d, 0x00, 0x45, 0x71, 0x00, 
	0x48, 0x75, 0x0a, 0x93, 0x4b, 0x75, 0x19, 0x83, 0x53, 0x00, 
	0x0a, 0x51, 0x00, 0x00, 0x91, 0x48, 0x00, 0x00, 0x45, 0x00, 
	0x05, 0x83, 0x4b, 0x00, 0x05, 0x4f, 0x00, 0x00, 0x91, 0x3f, 
	0x00, 0x0a, 0x42, 0x00, 0x05, 0x84, 0x24, 0x00, 0x00, 0x83, 
	0x54, 0x00, 0x05, 0x93, 0x4c, 0x69, 0x00, 0x4b, 0x31, 0x05, 
	0x94, 0x2f, 0x69, 0x00, 0x91, 0x40, 0x69, 0x00, 0x43, 0x69, 
	0x00, 0x45, 0x59, 0x00, 0x48, 0x5d, 0x05, 0x84, 0x23, 0x00, 
	0x05, 0x83, 0x4b, 0x00, 0x0f, 0x84, 0x2f, 0x00, 0x00, 0x83, 
	0x4c, 0x00, 0x05, 0x91, 0x45, 0x00, 0x05, 0x48, 0x00, 0x00, 
	0x40, 0x00, 0x05, 0x94, 0x30, 0x61, 0x00, 0x91, 0x43, 0x00, 
	0x00, 0x94, 0x24, 0x59, 0x0a, 0x93, 0x4c, 0x71, 0x00, 0x48, 
	0x75, 0x00, 0x54, 0x71, 0x00, 0x4f, 0x69, 0x05, 0x84, 0x30, 
	0x00, 0x00, 0x24, 0x00, 0x00, 0x94, 0x24, 0x79, 0x00, 0x30, 
	0x75, 0x1e, 0x84, 0x30, 0x00, 0x05, 0x24, 0x00, 0x0f, 0x83, 
	0x4c, 0x00, 0x05, 0x4f, 0x00, 0x00, 0x48, 0x00, 0x05, 0x54, 
	0x00, 0x00, 0x91, 0x4f, 0x59, 0x23, 0x4f, 0x00, 0x0a, 0x94, 
	0x34, 0x5d, 0x00, 0x37, 0x5d, 0x05, 0x91, 0x57, 0x65, 0x19, 
	0x57, 0x00, 0x14, 0x84, 0x37, 0x00, 0x05, 0x34, 0x00, 0x0a, 
	0x91, 0x58, 0x55, 0x28, 0x58, 0x00, 0x0f, 0x94, 0x2b, 0x61, 
	0x00, 0x1f, 0x5d, 0x05, 0x91, 0x5b, 0x65, 0x32, 0x84, 0x2b, 
	0x00, 0x00, 0x91, 0x5b, 0x00, 0x0f, 0x84, 0x1f, 0x00, 0x0a, 
	0x91, 0x4f, 0x55, 0x14, 0x4f, 0x00, 0x14, 0x94, 0x34, 0x51, 
	0x00, 0x37, 0x51, 0x37, 0x84, 0x34, 0x00, 0x00, 0x37, 0x00, 
	0x41, 0x94, 0x30, 0x59, 0x00, 0x24, 0x61, 0x37, 0x84, 0x30, 
	0x00, 0x05, 0x24, 0x00, 0x0f, 0x91, 0x4f, 0x5d, 0x28, 0x4f, 
	0x00, 0x05, 0x94, 0x34, 0x4d, 0x00, 0x37, 0x49, 0x0f, 0x91, 
	0x57, 0x59, 0x19, 0x57, 0x00, 0x05, 0x84, 0x34, 0x00, 0x05, 
	0x37, 0x00, 0x14, 0x91, 0x58, 0x4d, 0x0a, 0x94, 0x1f, 0x61, 
	0x1e, 0x91, 0x58, 0x00, 0x0a, 0x94, 0x2b, 0x4d, 0x00, 0x91, 
	0x5b, 0x65, 0x19, 0x84, 0x1f, 0x00, 0x14, 0x91, 0x5b, 0x00, 
	0x19, 0x84, 0x2b, 0x00, 0x00, 0x91, 0x54, 0x4d, 0x0a, 0x94, 
	0x21, 0x55, 0x0a, 0x91, 0x54, 0x00, 0x1e, 0x94, 0x34, 0x61, 
	0x00, 0x37, 0x55, 0x00, 0x23, 0x59, 0x0a, 0x84, 0x21, 0x00, 
	0x3c, 0x23, 0x00, 0x0a, 0x34, 0x00, 0x05, 0x37, 0x00, 0x23, 
	0x94, 0x30, 0x59, 0x00, 0x24, 0x5d, 0x3c, 0x84, 0x30, 0x00, 
	0x0a, 0x24, 0x00, 0x32, 0x94, 0x34, 0x69, 0x00, 0x3c, 0x69, 
	0x50, 0x84, 0x34, 0x00, 0x00, 0x91, 0x57, 0x75, 0x05, 0x84, 
	0x3c, 0x00, 0x23, 0x94, 0x35, 0x61, 0x00, 0x93, 0x3e, 0x55, 
	0x00, 0x91, 0x57, 0x00, 0x00, 0x94, 0x1f, 0x61, 0x0f, 0x91, 
	0x58, 0x51, 0x37, 0x83, 0x3e, 0x00, 0x00, 0x91, 0x58, 0x00, 
	0x00, 0x60, 0x69, 0x05, 0x84, 0x35, 0x00, 0x00, 0x1f, 0x00, 
	0x2d, 0x94, 0x36, 0x65, 0x00, 0x93, 0x3f, 0x5d, 0x00, 0x91, 
	0x56, 0x69, 0x00, 0x5e, 0x6d, 0x05, 0x60, 0x00, 0x3c, 0x5e, 
	0x00, 0x0a, 0x56, 0x00, 0x0a, 0x84, 0x36, 0x00, 0x05, 0x83, 
	0x3f, 0x00, 0x1e, 0x94, 0x37, 0x55, 0x00, 0x93, 0x40, 0x51, 
	0x00, 0x94, 0x24, 0x5d, 0x05, 0x91, 0x5d, 0x65, 0x05, 0x54, 
	0x61, 0x2d, 0x84, 0x24, 0x00, 0x05, 0x91, 0x5d, 0x00, 0x05, 
	0x84, 0x37, 0x00, 0x05, 0x83, 0x40, 0x00, 0x00, 0x91, 0x54, 
	0x00, 0x32, 0x94, 0x36, 0x59, 0x00, 0x93, 0x3f, 0x59, 0x00, 
	0x91, 0x5b, 0x61, 0x00, 0x94, 0x26, 0x5d, 0x00, 0x91, 0x52, 
	0x69, 0x3c, 0x84, 0x26, 0x00, 0x00, 0x91, 0x5b, 0x00, 0x05, 
	0x52, 0x00, 0x0f, 0x84, 0x36, 0x00, 0x00, 0x83, 0x3f, 0x00, 
	0x28, 0x94, 0x35, 0x69, 0x00, 0x93, 0x3e, 0x65, 0x00, 0x91, 
	0x58, 0x65, 0x00, 0x94, 0x28, 0x61, 0x00, 0x91, 0x4f, 0x65, 
	0x28, 0x4f, 0x00, 0x00, 0x58, 0x00, 0x14, 0x83, 0x3e, 0x00, 
	0x05, 0x84, 0x28, 0x00, 0x14, 0x35, 0x00, 0x81, 0x1b, 0x94, 
	0x1d, 0x75, 0x0a, 0x91, 0x51, 0x75, 0x00, 0x54, 0x7d, 0x05, 
	0x57, 0x79, 0x00, 0x5b, 0x75, 0x05, 0x48, 0x6d, 0x00, 0x4b, 
	0x75, 0x0a, 0x51, 0x00, 0x0a, 0x35, 0x49, 0x00, 0x39, 0x59, 
	0x00, 0x3c, 0x4d, 0x14, 0x35, 0x00, 0x05, 0x4b, 0x00, 0x05, 
	0x84, 0x1d, 0x00, 0x00, 0x91, 0x3c, 0x00, 0x00, 0x5b, 0x00, 
	0x00, 0x51, 0x69, 0x05, 0x57, 0x00, 0x05, 0x94, 0x29, 0x61, 
	0x00, 0x91, 0x39, 0x00, 0x00, 0x35, 0x5d, 0x05, 0x4b, 0x61, 
	0x05, 0x54, 0x00, 0x05, 0x93, 0x43, 0x61, 0x00, 0x91, 0x48, 
	0x00, 0x05, 0x84, 0x29, 0x00, 0x0a, 0x91, 0x51, 0x00, 0x00, 
	0x57, 0x5d, 0x00, 0x5b, 0x5d, 0x05, 0x93, 0x44, 0x5d, 0x00, 
	0x91, 0x54, 0x2d, 0x05, 0x94, 0x21, 0x75, 0x00, 0x91, 0x3a, 
	0x65, 0x00, 0x3e, 0x61, 0x0f, 0x83, 0x43, 0x00, 0x00, 0x91, 
	0x4b, 0x00, 0x00, 0x83, 0x44, 0x00, 0x00, 0x93, 0x45, 0x55, 
	0x05, 0x91, 0x48, 0x55, 0x05, 0x5b, 0x00, 0x00, 0x57, 0x00, 
	0x00, 0x51, 0x65, 0x0a, 0x35, 0x00, 0x05, 0x3e, 0x00, 0x05, 
	0x3a, 0x00, 0x0a, 0x93, 0x48, 0x5d, 0x00, 0x91, 0x5b, 0x59, 
	0x00, 0x57, 0x59, 0x05, 0x83, 0x45, 0x00, 0x00, 0x91, 0x51, 
	0x00, 0x00, 0x4b, 0x65, 0x0f, 0x48, 0x00, 0x05, 0x94, 0x2d, 
	0x61, 0x00, 0x91, 0x35, 0x55, 0x05, 0x84, 0x21, 0x00, 0x05, 
	0x83, 0x48, 0x00, 0x00, 0x91, 0x57, 0x00, 0x00, 0x93, 0x45, 
	0x59, 0x05, 0x91, 0x5b, 0x00, 0x00, 0x51, 0x69, 0x0a, 0x54, 
	0x00, 0x05, 0x84, 0x2d, 0x00, 0x0a, 0x94, 0x23, 0x55, 0x00, 
	0x83, 0x45, 0x00, 0x00, 0x91, 0x51, 0x00, 0x00, 0x94, 0x24, 
	0x6d, 0x00, 0x91, 0x5b, 0x5d, 0x00, 0x39, 0x55, 0x00, 0x3c, 
	0x51, 0x00, 0x57, 0x5d, 0x05, 0x93, 0x48, 0x61, 0x05, 0x91, 
	0x4b, 0x00, 0x00, 0x48, 0x49, 0x00, 0x54, 0x21, 0x05, 0x84, 
	0x23, 0x00, 0x0a, 0x91, 0x35, 0x00, 0x05, 0x57, 0x00, 0x00, 
	0x54, 0x00, 0x05, 0x3c, 0x00, 0x00, 0x5b, 0x00, 0x05, 0x51, 
	0x61, 0x05, 0x83, 0x48, 0x00, 0x00, 0x91, 0x39, 0x00, 0x00, 
	0x93, 0x45, 0x5d, 0x0a, 0x91, 0x4b, 0x61, 0x0a, 0x51, 0x00, 
	0x00, 0x5b, 0x61, 0x00, 0x57, 0x61, 0x05, 0x83, 0x45, 0x00, 
	0x00, 0x91, 0x54, 0x39, 0x05, 0x48, 0x00, 0x05, 0x84, 0x24, 
	0x00, 0x00, 0x93, 0x48, 0x5d, 0x00, 0x91, 0x35, 0x5d, 0x00, 
	0x94, 0x30, 0x65, 0x0a, 0x91, 0x54, 0x00, 0x05, 0x57, 0x00, 
	0x05, 0x5b, 0x00, 0x00, 0x51, 0x69, 0x05, 0x84, 0x30, 0x00, 
	0x05, 0x83, 0x48, 0x00, 0x05, 0x93, 0x45, 0x55, 0x00, 0x91, 
	0x4b, 0x00, 0x05, 0x94, 0x26, 0x75, 0x00, 0x91, 0x3a, 0x65, 
	0x00, 0x3e, 0x61, 0x05, 0x51, 0x00, 0x00, 0x5b, 0x5d, 0x00, 
	0x48, 0x45, 0x05, 0x57, 0x5d, 0x0a, 0x83, 0x45, 0x00, 0x00, 
	0x91, 0x54, 0x35, 0x05, 0x93, 0x48, 0x59, 0x00, 0x91, 0x35, 
	0x00, 0x0a, 0x57, 0x00, 0x05, 0x5b, 0x00, 0x00, 0x54, 0x00, 
	0x00, 0x51, 0x6d, 0x05, 0x3e, 0x00, 0x00, 0x3a, 0x00, 0x0a, 
	0x4b, 0x61, 0x05, 0x83, 0x48, 0x00, 0x05, 0x93, 0x45, 0x4d, 
	0x05, 0x91, 0x51, 0x00, 0x00, 0x5b, 0x5d, 0x00, 0x57, 0x61, 
	0x05, 0x84, 0x26, 0x00, 0x05, 0x94, 0x32, 0x61, 0x00, 0x91, 
	0x48, 0x00, 0x00, 0x54, 0x45, 0x00, 0x35, 0x59, 0x05, 0x83, 
	0x45, 0x00, 0x05, 0x93, 0x48, 0x61, 0x05, 0x91, 0x57, 0x00, 
	0x05, 0x84, 0x32, 0x00, 0x00, 0x91, 0x54, 0x00, 0x00, 0x5b, 
	0x00, 0x05, 0x51, 0x65, 0x0f, 0x94, 0x27, 0x75, 0x00, 0x91, 
	0x39, 0x51, 0x00, 0x3c, 0x4d, 0x05, 0x83, 0x48, 0x00, 0x00, 
	0x91, 0x51, 0x00, 0x05, 0x93, 0x45, 0x45, 0x00, 0x91, 0x5b, 
	0x59, 0x00, 0x57, 0x61, 0x05, 0x4b, 0x00, 0x00, 0x54, 0x45, 
	0x05, 0x48, 0x45, 0x05, 0x35, 0x00, 0x05, 0x83, 0x45, 0x00, 
	0x00, 0x93, 0x48, 0x61, 0x05, 0x91, 0x3c, 0x00, 0x00, 0x57, 
	0x00, 0x00, 0x54, 0x00, 0x05, 0x5b, 0x00, 0x05, 0x39, 0x00, 
	0x00, 0x51, 0x65, 0x14, 0x83, 0x48, 0x00, 0x05, 0x91, 0x51, 
	0x00, 0x00, 0x5b, 0x55, 0x00, 0x57, 0x61, 0x05, 0x93, 0x45, 
	0x45, 0x00, 0x91, 0x54, 0x4d, 0x05, 0x94, 0x33, 0x61, 0x00, 
	0x91, 0x35, 0x5d, 0x05, 0x84, 0x27, 0x00, 0x00, 0x91, 0x4b, 
	0x61, 0x0a, 0x83, 0x45, 0x00, 0x00, 0x91, 0x54, 0x00, 0x00, 
	0x93, 0x48, 0x61, 0x00, 0x91, 0x57, 0x00, 0x05, 0x5b, 0x00, 
	0x05, 0x48, 0x00, 0x00, 0x51, 0x5d, 0x05, 0x84, 0x33, 0x00, 
	0x0a, 0x94, 0x26, 0x75, 0x00, 0x91, 0x3a, 0x65, 0x00, 0x3e, 
	0x61, 0x05, 0x83, 0x48, 0x00, 0x00, 0x91, 0x51, 0x00, 0x05, 
	0x5b, 0x51, 0x00, 0x57, 0x61, 0x05, 0x93, 0x45, 0x45, 0x00, 
	0x91, 0x54, 0x4d, 0x14, 0x93, 0x48, 0x61, 0x00, 0x91, 0x54, 
	0x00, 0x00, 0x5b, 0x00, 0x00, 0x35, 0x00, 0x00, 0x4b, 0x00, 
	0x00, 0x57, 0x00, 0x05, 0x83, 0x45, 0x00, 0x00, 0x91, 0x3a, 
	0x00, 0x00, 0x3e, 0x00, 0x00, 0x48, 0x4d, 0x00, 0x51, 0x61, 
	0x19, 0x83, 0x48, 0x00, 0x00, 0x91, 0x51, 0x00, 0x00, 0x5b, 
	0x51, 0x00, 0x57, 0x5d, 0x05, 0x54, 0x45, 0x05, 0x93, 0x45, 
	0x41, 0x05, 0x94, 0x32, 0x65, 0x00, 0x91, 0x35, 0x59, 0x0a, 
	0x54, 0x00, 0x00, 0x57, 0x00, 0x00, 0x4b, 0x6d, 0x05, 0x84, 
	0x26, 0x00, 0x00, 0x83, 0x45, 0x00, 0x00, 0x91, 0x5b, 0x00, 
	0x00, 0x93, 0x48, 0x61, 0x05, 0x91, 0x51, 0x61, 0x05, 0x84, 
	0x32, 0x00, 0x05, 0x91, 0x48, 0x00, 0x0a, 0x94, 0x24, 0x75, 
	0x00, 0x91, 0x39, 0x4d, 0x00, 0x3c, 0x49, 0x05, 0x83, 0x48, 
	0x00, 0x00, 0x91, 0x57, 0x5d, 0x00, 0x5b, 0x51, 0x05, 0x51, 
	0x00, 0x00, 0x54, 0x3d, 0x05, 0x93, 0x45, 0x39, 0x0a, 0x91, 
	0x35, 0x00, 0x05, 0x93, 0x48, 0x5d, 0x00, 0x91, 0x5b, 0x00, 
	0x00, 0x57, 0x00, 0x00, 0x54, 0x00, 0x05, 0x3c, 0x00, 0x00, 
	0x4b, 0x00, 0x00, 0x51, 0x55, 0x05, 0x83, 0x45, 0x00, 0x05, 
	0x91, 0x39, 0x00, 0x00, 0x48, 0x51, 0x0f, 0x83, 0x48, 0x00, 
	0x00, 0x91, 0x51, 0x00, 0x00, 0x57, 0x55, 0x00, 0x5b, 0x49, 
	0x05, 0x54, 0x2d, 0x05, 0x93, 0x45, 0x2d, 0x0a, 0x94, 0x30, 
	0x69, 0x00, 0x91, 0x5b, 0x00, 0x00, 0x35, 0x5d, 0x05, 0x93, 
	0x48, 0x61, 0x00, 0x91, 0x57, 0x00, 0x05, 0x84, 0x24, 0x00, 
	0x00, 0x83, 0x45, 0x00, 0x00, 0x91, 0x51, 0x4d, 0x05, 0x54, 
	0x00, 0x00, 0x4b, 0x65, 0x0a, 0x84, 0x30, 0x00, 0x05, 0x83, 
	0x48, 0x00, 0x00, 0x91, 0x57, 0x4d, 0x00, 0x93, 0x45, 0x39, 
	0x00, 0x91, 0x5b, 0x49, 0x05, 0x51, 0x00, 0x00, 0x48, 0x00, 
	0x00, 0x54, 0x1d, 0x05, 0x94, 0x21, 0x7d, 0x00, 0x91, 0x3a, 
	0x61, 0x00, 0x3e, 0x65, 0x0f, 0x48, 0x6d, 0x00, 0x51, 0x61, 
	0x05, 0x83, 0x45, 0x00, 0x00, 0x91, 0x4f, 0x4d, 0x00, 0x93, 
	0x48, 0x49, 0x0a, 0x91, 0x3e, 0x00, 0x05, 0x3a, 0x00, 0x00, 
	0x5b, 0x00, 0x0a, 0x4f, 0x00, 0x05, 0x83, 0x48, 0x00, 0x0a, 
	0x91, 0x57, 0x00, 0x00, 0x54, 0x00, 0x00, 0x51, 0x00, 0x00, 
	0x35, 0x00, 0x05, 0x48, 0x00, 0x05, 0x4b, 0x00, 0x0a, 0x94, 
	0x2d, 0x4d, 0x00, 0x91, 0x3a, 0x3d, 0x00, 0x3e, 0x4d, 0x0a, 
	0x84, 0x21, 0x00, 0x05, 0x91, 0x3a, 0x00, 0x0a, 0x84, 0x2d, 
	0x00, 0x00, 0x91, 0x3e, 0x00, 0x0f, 0x94, 0x18, 0x7d, 0x00, 
	0x91, 0x30, 0x55, 0x05, 0x58, 0x75, 0x00, 0x4f, 0x75, 0x00, 
	0x4c, 0x75, 0x00, 0x52, 0x79, 0x0a, 0x46, 0x79, 0x14, 0x30, 
	0x00, 0x0f, 0x52, 0x00, 0x00, 0x58, 0x00, 0x05, 0x4c, 0x00, 
	0x00, 0x4f, 0x00, 0x05, 0x46, 0x00, 0x0f, 0x93, 0x48, 0x41, 
	0x05, 0x94, 0x24, 0x65, 0x00, 0x91, 0x30, 0x5d, 0x05, 0x84, 
	0x18, 0x00, 0x14, 0x83, 0x48, 0x00, 0x05, 0x84, 0x24, 0x00, 
	0x0a, 0x94, 0x1c, 0x71, 0x00, 0x93, 0x4a, 0x5d, 0x00, 0x91, 
	0x35, 0x5d, 0x00, 0x39, 0x61, 0x0f, 0x93, 0x51, 0x45, 0x14, 
	0x91, 0x30, 0x00, 0x05, 0x83, 0x51, 0x00, 0x00, 0x91, 0x39, 
	0x00, 0x00, 0x35, 0x00, 0x05, 0x83, 0x4a, 0x00, 0x23, 0x94, 
	0x28, 0x59, 0x00, 0x93, 0x4b, 0x71, 0x00, 0x91, 0x30, 0x5d, 
	0x05, 0x84, 0x1c, 0x00, 0x1e, 0x28, 0x00, 0x05, 0x94, 0x1f, 
	0x75, 0x00, 0x93, 0x4a, 0x59, 0x00, 0x91, 0x34, 0x45, 0x00, 
	0x37, 0x4d, 0x05, 0x83, 0x4b, 0x00, 0x05, 0x93, 0x51, 0x25, 
	0x19, 0x91, 0x30, 0x00, 0x05, 0x37, 0x00, 0x05, 0x34, 0x00, 
	0x0f, 0x83, 0x4a, 0x00, 0x05, 0x93, 0x48, 0x49, 0x0a, 0x83, 
	0x51, 0x00, 0x05, 0x94, 0x2b, 0x61, 0x00, 0x91, 0x30, 0x61, 
	0x05, 0x84, 0x1f, 0x00, 0x14, 0x83, 0x48, 0x00, 0x05, 0x84, 
	0x2b, 0x00, 0x0a, 0x94, 0x21, 0x71, 0x00, 0x93, 0x4a, 0x69, 
	0x00, 0x91, 0x33, 0x65, 0x05, 0x93, 0x51, 0x59, 0x23, 0x91, 
	0x30, 0x00, 0x05, 0x83, 0x51, 0x00, 0x00, 0x91, 0x33, 0x00, 
	0x05, 0x83, 0x4a, 0x00, 0x19, 0x93, 0x51, 0x51, 0x00, 0x4b, 
	0x71, 0x05, 0x84, 0x21, 0x00, 0x00, 0x91, 0x34, 0x4d, 0x00, 
	0x94, 0x2d, 0x61, 0x14, 0x83, 0x51, 0x00, 0x05, 0x84, 0x2d, 
	0x00, 0x00, 0x83, 0x4b, 0x00, 0x0f, 0x94, 0x22, 0x79, 0x00, 
	0x93, 0x4a, 0x59, 0x00, 0x91, 0x30, 0x59, 0x00, 0x37, 0x55, 
	0x0a, 0x93, 0x51, 0x31, 0x14, 0x91, 0x34, 0x00, 0x0a, 0x30, 
	0x00, 0x0a, 0x83, 0x4a, 0x00, 0x00, 0x91, 0x37, 0x00, 0x0f, 
	0x83, 0x51, 0x00, 0x05, 0x93, 0x48, 0x5d, 0x0a, 0x84, 0x22, 
	0x00, 0x00, 0x91, 0x4f, 0x7d, 0x00, 0x94, 0x2e, 0x65, 0x00, 
	0x91, 0x5b, 0x75, 0x00, 0x30, 0x59, 0x0f, 0x84, 0x2e, 0x00, 
	0x05, 0x83, 0x48, 0x00, 0x05, 0x91, 0x5b, 0x00, 0x00, 0x4f, 
	0x00, 0x0a, 0x93, 0x4a, 0x6d, 0x00, 0x51, 0x65, 0x05, 0x94, 
	0x21, 0x71, 0x00, 0x91, 0x35, 0x59, 0x00, 0x39, 0x61, 0x0f, 
	0x57, 0x79, 0x19, 0x83, 0x4a, 0x00, 0x00, 0x51, 0x00, 0x05, 
	0x91, 0x57, 0x00, 0x00, 0x30, 0x00, 0x00, 0x35, 0x00, 0x00, 
	0x39, 0x00, 0x19, 0x93, 0x4b, 0x6d, 0x05, 0x51, 0x2d, 0x05, 
	0x94, 0x2d, 0x69, 0x00, 0x91, 0x58, 0x61, 0x00, 0x30, 0x51, 
	0x0a, 0x84, 0x21, 0x00, 0x05, 0x83, 0x51, 0x00, 0x00, 0x91, 
	0x58, 0x00, 0x14, 0x84, 0x2d, 0x00, 0x00, 0x93, 0x4a, 0x59, 
	0x05, 0x94, 0x1f, 0x75, 0x00, 0x91, 0x34, 0x4d, 0x00, 0x37, 
	0x55, 0x05, 0x93, 0x51, 0x29, 0x00, 0x91, 0x5b, 0x79, 0x00, 
	0x60, 0x79, 0x05, 0x83, 0x4b, 0x00, 0x19, 0x91, 0x30, 0x00, 
	0x0a, 0x83, 0x4a, 0x00, 0x00, 0x91, 0x60, 0x00, 0x05, 0x83, 
	0x51, 0x00, 0x00, 0x91, 0x34, 0x00, 0x00, 0x37, 0x00, 0x05, 
	0x5b, 0x00, 0x0f, 0x93, 0x48, 0x55, 0x00, 0x91, 0x54, 0x5d, 
	0x0a, 0x94, 0x2b, 0x6d, 0x00, 0x91, 0x30, 0x61, 0x0a, 0x84, 
	0x1f, 0x00, 0x00, 0x91, 0x54, 0x00, 0x0a, 0x83, 0x48, 0x00, 
	0x0f, 0x84, 0x2b, 0x00, 0x00, 0x93, 0x4a, 0x6d, 0x05, 0x94, 
	0x1c, 0x75, 0x00, 0x93, 0x51, 0x65, 0x00, 0x91, 0x33, 0x65, 
	0x05, 0x59, 0x75, 0x00, 0x5d, 0x71, 0x23, 0x83, 0x4a, 0x00, 
	0x00, 0x51, 0x00, 0x05, 0x91, 0x5d, 0x00, 0x00, 0x59, 0x00, 
	0x00, 0x33, 0x00, 0x0a, 0x30, 0x00, 0x0f, 0x93, 0x4b, 0x75, 
	0x00, 0x91, 0x57, 0x71, 0x00, 0x93, 0x51, 0x45, 0x00, 0x91, 
	0x5a, 0x71, 0x0a, 0x94, 0x28, 0x5d, 0x00, 0x91, 0x34, 0x45, 
	0x05, 0x84, 0x1c, 0x00, 0x05, 0x91, 0x57, 0x00, 0x05, 0x83, 
	0x51, 0x00, 0x00, 0x91, 0x5a, 0x00, 0x05, 0x84, 0x28, 0x00, 
	0x00, 0x83, 0x4b, 0x00, 0x14, 0x94, 0x1a, 0x79, 0x00, 0x93, 
	0x4a, 0x61, 0x00, 0x91, 0x32, 0x59, 0x05, 0x93, 0x51, 0x2d, 
	0x00, 0x91, 0x34, 0x00, 0x00, 0x58, 0x65, 0x00, 0x5b, 0x65, 
	0x1e, 0x5b, 0x00, 0x00, 0x32, 0x00, 0x0a, 0x83, 0x4a, 0x00, 
	0x00, 0x91, 0x58, 0x00, 0x14, 0x4f, 0x61, 0x05, 0x83, 0x51, 
	0x00, 0x00, 0x93, 0x48, 0x5d, 0x0a, 0x84, 0x1a, 0x00, 0x00, 
	0x91, 0x32, 0x59, 0x00, 0x94, 0x26, 0x65, 0x0f, 0x91, 0x4f, 
	0x00, 0x0a, 0x83, 0x48, 0x00, 0x05, 0x84, 0x26, 0x00, 0x05, 
	0x93, 0x4a, 0x69, 0x00, 0x51, 0x61, 0x05, 0x94, 0x1c, 0x75, 
	0x00, 0x91, 0x35, 0x59, 0x00, 0x58, 0x75, 0x00, 0x5b, 0x75, 
	0x23, 0x83, 0x4a, 0x00, 0x00, 0x91, 0x32, 0x00, 0x00, 0x83, 
	0x51, 0x00, 0x05, 0x91, 0x58, 0x00, 0x05, 0x35, 0x00, 0x00, 
	0x5b, 0x00, 0x14, 0x93, 0x4b, 0x75, 0x00, 0x51, 0x4d, 0x05, 
	0x91, 0x5a, 0x75, 0x00, 0x57, 0x6d, 0x0a, 0x84, 0x1c, 0x00, 
	0x00, 0x91, 0x32, 0x55, 0x00, 0x94, 0x28, 0x65, 0x05, 0x83, 
	0x51, 0x00, 0x00, 0x91, 0x57, 0x00, 0x05, 0x5a, 0x00, 0x0a, 
	0x83, 0x4b, 0x00, 0x0a, 0x84, 0x28, 0x00, 0x00, 0x93, 0x4a, 
	0x59, 0x05, 0x91, 0x59, 0x71, 0x00, 0x56, 0x6d, 0x05, 0x94, 
	0x1d, 0x75, 0x00, 0x93, 0x51, 0x31, 0x00, 0x91, 0x39, 0x5d, 
	0x23, 0x59, 0x00, 0x05, 0x83, 0x4a, 0x00, 0x05, 0x91, 0x56, 
	0x00, 0x05, 0x32, 0x00, 0x05, 0x83, 0x51, 0x00, 0x00, 0x91, 
	0x39, 0x00, 0x0a, 0x93, 0x48, 0x55, 0x00, 0x91, 0x4f, 0x6d, 
	0x0f, 0x84, 0x1d, 0x00, 0x00, 0x91, 0x32, 0x59, 0x00, 0x94, 
	0x29, 0x61, 0x14, 0x83, 0x48, 0x00, 0x00, 0x91, 0x4f, 0x00, 
	0x0a, 0x84, 0x29, 0x00, 0x00, 0x93, 0x4a, 0x65, 0x00, 0x51, 
	0x61, 0x0a, 0x94, 0x1e, 0x7d, 0x00, 0x91, 0x50, 0x79, 0x00, 
	0x3b, 0x61, 0x1e, 0x83, 0x51, 0x00, 0x00, 0x91, 0x50, 0x00, 
	0x05, 0x83, 0x4a, 0x00, 0x05, 0x91, 0x3b, 0x00, 0x19, 0x51, 
	0x71, 0x05, 0x93, 0x4b, 0x71, 0x00, 0x91, 0x32, 0x00, 0x0a, 
	0x94, 0x2a, 0x61, 0x00, 0x91, 0x3b, 0x55, 0x0a, 0x84, 0x1e, 
	0x00, 0x0f, 0x91, 0x51, 0x00, 0x05, 0x84, 0x2a, 0x00, 0x00, 
	0x91, 0x3b, 0x00, 0x05, 0x83, 0x4b, 0x00, 0x00, 0x91, 0x5b, 
	0x6d, 0x00, 0x93, 0x51, 0x45, 0x05, 0x94, 0x1f, 0x71, 0x00, 
	0x93, 0x4a, 0x61, 0x00, 0x91, 0x37, 0x59, 0x1e, 0x57, 0x71, 
	0x0a, 0x83, 0x51, 0x00, 0x00, 0x91, 0x5b, 0x00, 0x0a, 0x37, 
	0x00, 0x05, 0x83, 0x4a, 0x00, 0x00, 0x91, 0x57, 0x00, 0x05, 
	0x56, 0x59, 0x0f, 0x93, 0x48, 0x29, 0x05, 0x94, 0x2b, 0x65, 
	0x00, 0x91, 0x37, 0x55, 0x0a, 0x84, 0x1f, 0x00, 0x05, 0x83, 
	0x48, 0x00, 0x00, 0x91, 0x54, 0x71, 0x05, 0x56, 0x00, 0x0a, 
	0x84, 0x2b, 0x00, 0x05, 0x91, 0x4f, 0x6d, 0x05, 0x94, 0x1d, 
	0x75, 0x00, 0x91, 0x3a, 0x59, 0x00, 0x3b, 0x1d, 0x05, 0x93, 
	0x4f, 0x71, 0x00, 0x54, 0x6d, 0x0f, 0x91, 0x3b, 0x00, 0x05, 
	0x3a, 0x00, 0x05, 0x54, 0x00, 0x0a, 0x4f, 0x00, 0x05, 0x37, 
	0x00, 0x05, 0x83, 0x4f, 0x00, 0x00, 0x54, 0x00, 0x19, 0x93, 
	0x48, 0x35, 0x00, 0x91, 0x4e, 0x71, 0x00, 0x57, 0x71, 0x05, 
	0x94, 0x29, 0x6d, 0x00, 0x91, 0x37, 0x49, 0x00, 0x3b, 0x55, 
	0x0a, 0x84, 0x1d, 0x00, 0x05, 0x83, 0x48, 0x00, 0x00, 0x91, 
	0x57, 0x00, 0x00, 0x4e, 0x00, 0x0a, 0x84, 0x29, 0x00, 0x05, 
	0x91, 0x37, 0x00, 0x0a, 0x94, 0x1c, 0x75, 0x00, 0x91, 0x37, 
	0x2d, 0x00, 0x3e, 0x59, 0x00, 0x4f, 0x75, 0x05, 0x93, 0x4f, 
	0x75, 0x00, 0x54, 0x71, 0x05, 0x91, 0x58, 0x6d, 0x0f, 0x37, 
	0x00, 0x00, 0x3b, 0x00, 0x0a, 0x3e, 0x00, 0x05, 0x58, 0x00, 
	0x05, 0x4f, 0x00, 0x05, 0x83, 0x4f, 0x00, 0x00, 0x54, 0x00, 
	0x14, 0x93, 0x48, 0x49, 0x05, 0x91, 0x57, 0x71, 0x00, 0x4e, 
	0x6d, 0x05, 0x94, 0x28, 0x61, 0x00, 0x91, 0x37, 0x55, 0x05, 
	0x84, 0x1c, 0x00, 0x0a, 0x83, 0x48, 0x00, 0x00, 0x91, 0x4e, 
	0x00, 0x05, 0x57, 0x00, 0x05, 0x84, 0x28, 0x00, 0x0f, 0x94, 
	0x1a, 0x79, 0x00, 0x91, 0x40, 0x61, 0x00, 0x56, 0x6d, 0x05, 
	0x93, 0x4d, 0x75, 0x00, 0x91, 0x4d, 0x71, 0x00, 0x93, 0x51, 
	0x69, 0x1e, 0x91, 0x40, 0x00, 0x0a, 0x83, 0x4d, 0x00, 0x00, 
	0x91, 0x4d, 0x00, 0x00, 0x83, 0x51, 0x00, 0x00, 0x91, 0x56, 
	0x00, 0x19, 0x93, 0x4b, 0x6d, 0x05, 0x4f, 0x5d, 0x05, 0x94, 
	0x26, 0x69, 0x00, 0x91, 0x37, 0x00, 0x00, 0x4b, 0x71, 0x00, 
	0x40, 0x55, 0x05, 0x83, 0x4b, 0x00, 0x00, 0x91, 0x54, 0x4d, 
	0x05, 0x84, 0x1a, 0x00, 0x05, 0x83, 0x4f, 0x00, 0x0a, 0x91, 
	0x54, 0x00, 0x05, 0x84, 0x26, 0x00, 0x00, 0x91, 0x40, 0x00, 
	0x05, 0x93, 0x4c, 0x69, 0x00, 0x91, 0x4b, 0x00, 0x00, 0x93, 
	0x4f, 0x55, 0x05, 0x94, 0x18, 0x79, 0x00, 0x91, 0x30, 0x3d, 
	0x00, 0x32, 0x41, 0x05, 0x4c, 0x65, 0x05, 0x54, 0x3d, 0x0f, 
	0x32, 0x00, 0x00, 0x30, 0x00, 0x0a, 0x83, 0x4f, 0x00, 0x05, 
	0x91, 0x54, 0x00, 0x05, 0x83, 0x4c, 0x00, 0x05, 0x91, 0x4c, 
	0x00, 0x14, 0x93, 0x48, 0x61, 0x05, 0x84, 0x18, 0x00, 0x00, 
	0x91, 0x4c, 0x75, 0x00, 0x54, 0x79, 0x00, 0x4f, 0x79, 0x05, 
	0x94, 0x24, 0x69, 0x00, 0x91, 0x30, 0x65, 0x14, 0x83, 0x48, 
	0x00, 0x0a, 0x84, 0x24, 0x00, 0x05, 0x93, 0x45, 0x61, 0x05, 
	0x94, 0x1c, 0x71, 0x00, 0x91, 0x4c, 0x00, 0x00, 0x35, 0x55, 
	0x00, 0x39, 0x61, 0x05, 0x54, 0x00, 0x0f, 0x4f, 0x00, 0x0a, 
	0x83, 0x45, 0x00, 0x00, 0x91, 0x30, 0x00, 0x0a, 0x39, 0x00, 
	0x0a, 0x35, 0x00, 0x0f, 0x93, 0x43, 0x4d, 0x05, 0x91, 0x52, 
	0x59, 0x0a, 0x84, 0x1c, 0x00, 0x00, 0x91, 0x30, 0x55, 0x00, 
	0x94, 0x28, 0x65, 0x05, 0x91, 0x52, 0x00, 0x00, 0x51, 0x61, 
	0x0a, 0x83, 0x43, 0x00, 0x00, 0x91, 0x4f, 0x65, 0x0f, 0x84, 
	0x28, 0x00, 0x00, 0x93, 0x48, 0x71, 0x0a, 0x94, 0x1d, 0x71, 
	0x00, 0x91, 0x34, 0x45, 0x00, 0x37, 0x49, 0x05, 0x4b, 0x79, 
	0x05, 0x51, 0x00, 0x0f, 0x30, 0x00, 0x14, 0x37, 0x00, 0x00, 
	0x34, 0x00, 0x00, 0x4b, 0x00, 0x05, 0x4f, 0x00, 0x05, 0x83, 
	0x48, 0x00, 0x0f, 0x84, 0x1d, 0x00, 0x0a, 0x94, 0x29, 0x59, 
	0x00, 0x91, 0x4c, 0x59, 0x00, 0x30, 0x5d, 0x19, 0x84, 0x29, 
	0x00, 0x0f, 0x94, 0x1e, 0x79, 0x00, 0x91, 0x51, 0x6d, 0x00, 
	0x35, 0x61, 0x05, 0x39, 0x69, 0x14, 0x4c, 0x00, 0x0a, 0x30, 
	0x00, 0x0f, 0x35, 0x00, 0x00, 0x39, 0x00, 0x05, 0x51, 0x00, 
	0x19, 0x84, 0x1e, 0x00, 0x00, 0x91, 0x4c, 0x51, 0x00, 0x94, 
	0x2a, 0x5d, 0x00, 0x91, 0x30, 0x4d, 0x14, 0x84, 0x2a, 0x00, 
	0x05, 0x91, 0x4c, 0x00, 0x0f, 0x94, 0x1f, 0x71, 0x00, 0x91, 
	0x34, 0x49, 0x00, 0x37, 0x4d, 0x05, 0x4c, 0x61, 0x00, 0x54, 
	0x75, 0x19, 0x30, 0x00, 0x0a, 0x34, 0x00, 0x05, 0x4c, 0x00, 
	0x00, 0x37, 0x00, 0x19, 0x54, 0x00, 0x05, 0x93, 0x45, 0x79, 
	0x05, 0x94, 0x2b, 0x69, 0x00, 0x93, 0x43, 0x71, 0x00, 0x91, 
	0x30, 0x51, 0x00, 0x93, 0x48, 0x6d, 0x05, 0x84, 0x1f, 0x00, 
	0x00, 0x91, 0x4c, 0x59, 0x14, 0x83, 0x43, 0x00, 0x00, 0x45, 
	0x00, 0x05, 0x84, 0x2b, 0x00, 0x05, 0x83, 0x48, 0x00, 0x05, 
	0x94, 0x21, 0x71, 0x00, 0x91, 0x35, 0x61, 0x00, 0x39, 0x61, 
	0x05, 0x51, 0x6d, 0x1e, 0x4c, 0x00, 0x05, 0x39, 0x00, 0x00, 
	0x30, 0x00, 0x00, 0x35, 0x00, 0x0f, 0x51, 0x00, 0x19, 0x84, 
	0x21, 0x00, 0x00, 0x93, 0x45, 0x75, 0x00, 0x91, 0x30, 0x41, 
	0x00, 0x94, 0x2d, 0x65, 0x00, 0x91, 0x4c, 0x79, 0x05, 0x93, 
	0x43, 0x6d, 0x00, 0x91, 0x54, 0x7d, 0x05, 0x93, 0x48, 0x75, 
	0x0f, 0x83, 0x45, 0x00, 0x05, 0x84, 0x2d, 0x00, 0x00, 0x83, 
	0x48, 0x00, 0x00, 0x43, 0x00, 0x0a, 0x94, 0x22, 0x75, 0x00, 
	0x91, 0x34, 0x55, 0x00, 0x37, 0x59, 0x0a, 0x54, 0x00, 0x00, 
	0x4c, 0x00, 0x19, 0x30, 0x00, 0x0a, 0x34, 0x00, 0x05, 0x37, 
	0x00, 0x05, 0x54, 0x45, 0x14, 0x53, 0x4d, 0x05, 0x94, 0x2e, 
	0x65, 0x00, 0x91, 0x51, 0x65, 0x00, 0x30, 0x55, 0x05, 0x84, 
	0x22, 0x00, 0x05, 0x91, 0x4f, 0x69, 0x0a, 0x84, 0x2e, 0x00, 
	0x05, 0x91, 0x54, 0x00, 0x05, 0x53, 0x00, 0x0a, 0x94, 0x23, 
	0x75, 0x00, 0x91, 0x4b, 0x79, 0x00, 0x35, 0x65, 0x00, 0x39, 
	0x65, 0x0f, 0x51, 0x00, 0x1e, 0x4b, 0x00, 0x00, 0x30, 0x00, 
	0x05, 0x4f, 0x00, 0x00, 0x39, 0x00, 0x05, 0x35, 0x00, 0x0f, 
	0x4c, 0x6d, 0x0a, 0x94, 0x2f, 0x71, 0x00, 0x91, 0x30, 0x55, 
	0x05, 0x84, 0x23, 0x00, 0x14, 0x91, 0x4c, 0x00, 0x05, 0x84, 
	0x2f, 0x00, 0x0a, 0x94, 0x18, 0x79, 0x00, 0x91, 0x30, 0x00, 
	0x00, 0x30, 0x51, 0x00, 0x34, 0x45, 0x00, 0x37, 0x51, 0x0f, 
	0x4f, 0x75, 0x00, 0x4c, 0x71, 0x05, 0x51, 0x69, 0x00, 0x54, 
	0x71, 0x0a, 0x34, 0x00, 0x00, 0x30, 0x00, 0x0a, 0x37, 0x00, 
	0x14, 0x4c, 0x00, 0x05, 0x54, 0x00, 0x00, 0x51, 0x00, 0x05, 
	0x84, 0x18, 0x00, 0x00, 0x91, 0x4f, 0x00, 0x05, 0x93, 0x43, 
	0x6d, 0x05, 0x94, 0x24, 0x55, 0x00, 0x91, 0x30, 0x51, 0x00, 
	0x54, 0x61, 0x00, 0x4c, 0x59, 0x0a, 0x4f, 0x6d, 0x05, 0x84, 
	0x24, 0x00, 0x00, 0x91, 0x51, 0x6d, 0x0f, 0x83, 0x43, 0x00, 
	0x05, 0x91, 0x51, 0x00, 0x00, 0x4c, 0x00, 0x00, 0x54, 0x00, 
	0x05, 0x94, 0x1c, 0x6d, 0x00, 0x93, 0x4a, 0x6d, 0x00, 0x91, 
	0x4f, 0x00, 0x00, 0x93, 0x4d, 0x65, 0x00, 0x91, 0x35, 0x59, 
	0x00, 0x39, 0x59, 0x23, 0x30, 0x00, 0x05, 0x39, 0x00, 0x05, 
	0x35, 0x00, 0x05, 0x83, 0x4a, 0x00, 0x00, 0x4d, 0x00, 0x19, 
	0x93, 0x4b, 0x75, 0x05, 0x94, 0x28, 0x55, 0x00, 0x93, 0x4e, 
	0x61, 0x00, 0x91, 0x30, 0x59, 0x0a, 0x84, 0x1c, 0x00, 0x05, 
	0x83, 0x4e, 0x00, 0x05, 0x4b, 0x00, 0x0a, 0x84, 0x28, 0x00, 
	0x0a, 0x94, 0x1f, 0x71, 0x00, 0x91, 0x34, 0x4d, 0x00, 0x37, 
	0x51, 0x05, 0x93, 0x4c, 0x61, 0x05, 0x4f, 0x55, 0x00, 0x91, 
	0x4f, 0x71, 0x00, 0x51, 0x6d, 0x05, 0x93, 0x4d, 0x41, 0x00, 
	0x91, 0x54, 0x71, 0x05, 0x4c, 0x6d, 0x0a, 0x30, 0x00, 0x05, 
	0x37, 0x00, 0x05, 0x83, 0x4d, 0x00, 0x05, 0x4f, 0x00, 0x00, 
	0x91, 0x34, 0x00, 0x05, 0x83, 0x4c, 0x00, 0x05, 0x91, 0x51, 
	0x00, 0x00, 0x4f, 0x00, 0x00, 0x4c, 0x00, 0x05, 0x54, 0x00, 
	0x0f, 0x93, 0x43, 0x55, 0x05, 0x84, 0x1f, 0x00, 0x00, 0x91, 
	0x30, 0x61, 0x00, 0x94, 0x2b, 0x5d, 0x0f, 0x83, 0x43, 0x00, 
	0x0f, 0x84, 0x2b, 0x00, 0x0a, 0x94, 0x21, 0x71, 0x00, 0x91, 
	0x33, 0x69, 0x0a, 0x93, 0x4a, 0x65, 0x00, 0x4d, 0x55, 0x05, 
	0x4c, 0x55, 0x14, 0x83, 0x4c, 0x00, 0x00, 0x91, 0x33, 0x00, 
	0x00, 0x30, 0x00, 0x0a, 0x83, 0x4a, 0x00, 0x00, 0x4d, 0x00, 
	0x23, 0x94, 0x2d, 0x61, 0x00, 0x93, 0x4b, 0x79, 0x00, 0x91, 
	0x4f, 0x69, 0x00, 0x4c, 0x65, 0x00, 0x51, 0x65, 0x00, 0x34, 
	0x51, 0x05, 0x84, 0x21, 0x00, 0x00, 0x93, 0x4e, 0x55, 0x05, 
	0x91, 0x54, 0x61, 0x0a, 0x83, 0x4e, 0x00, 0x05, 0x4b, 0x00, 
	0x05, 0x84, 0x2d, 0x00, 0x00, 0x91, 0x54, 0x00, 0x00, 0x4f, 
	0x00, 0x00, 0x51, 0x00, 0x00, 0x4c, 0x00, 0x0a, 0x94, 0x22, 
	0x6d, 0x00, 0x91, 0x30, 0x49, 0x00, 0x37, 0x55, 0x05, 0x93, 
	0x4c, 0x69, 0x00, 0x4f, 0x6d, 0x19, 0x91, 0x30, 0x00, 0x00, 
	0x34, 0x00, 0x0f, 0x83, 0x4c, 0x00, 0x00, 0x91, 0x37, 0x00, 
	0x05, 0x83, 0x4f, 0x00, 0x19, 0x93, 0x43, 0x59, 0x05, 0x94, 
	0x2e, 0x59, 0x00, 0x91, 0x30, 0x5d, 0x05, 0x84, 0x22, 0x00, 
	0x0f, 0x2e, 0x00, 0x05, 0x83, 0x43, 0x00, 0x0f, 0x94, 0x21, 
	0x69, 0x00, 0x91, 0x35, 0x59, 0x00, 0x39, 0x55, 0x05, 0x93, 
	0x4a, 0x6d, 0x00, 0x4d, 0x69, 0x1e, 0x91, 0x30, 0x00, 0x0a, 
	0x83, 0x4a, 0x00, 0x00, 0x91, 0x39, 0x00, 0x05, 0x83, 0x4d, 
	0x00, 0x00, 0x91, 0x35, 0x00, 0x19, 0x93, 0x4b, 0x71, 0x05, 
	0x94, 0x2d, 0x61, 0x00, 0x93, 0x4e, 0x59, 0x00, 0x91, 0x30, 
	0x59, 0x05, 0x84, 0x21, 0x00, 0x05, 0x83, 0x4b, 0x00, 0x05, 
	0x4e, 0x00, 0x0a, 0x84, 0x2d, 0x00, 0x0f, 0x94, 0x1f, 0x75, 
	0x00, 0x91, 0x34, 0x51, 0x00, 0x37, 0x55, 0x05, 0x93, 0x4c, 
	0x69, 0x00, 0x4f, 0x69, 0x05, 0x91, 0x4e, 0x79, 0x05, 0x57, 
	0x7d, 0x0f, 0x30, 0x00, 0x0a, 0x83, 0x4c, 0x00, 0x00, 0x91, 
	0x37, 0x00, 0x05, 0x83, 0x4f, 0x00, 0x00, 0x91, 0x34, 0x00, 
	0x05, 0x4e, 0x00, 0x05, 0x57, 0x00, 0x14, 0x93, 0x43, 0x55, 
	0x05, 0x94, 0x2b, 0x5d, 0x00, 0x91, 0x58, 0x6d, 0x00, 0x30, 
	0x61, 0x00, 0x4f, 0x69, 0x0f, 0x84, 0x1f, 0x00, 0x05, 0x83, 
	0x43, 0x00, 0x05, 0x84, 0x2b, 0x00, 0x00, 0x91, 0x58, 0x00, 
	0x05, 0x4f, 0x00, 0x0a, 0x94, 0x1c, 0x69, 0x00, 0x91, 0x33, 
	0x65, 0x05, 0x93, 0x4d, 0x69, 0x00, 0x4a, 0x6d, 0x05, 0x91, 
	0x57, 0x69, 0x00, 0x4e, 0x71, 0x0a, 0x58, 0x51, 0x0f, 0x58, 
	0x00, 0x00, 0x30, 0x00, 0x00, 0x33, 0x00, 0x0a, 0x83, 0x4a, 
	0x00, 0x00, 0x91, 0x57, 0x00, 0x05, 0x83, 0x4d, 0x00, 0x00, 
	0x91, 0x4e, 0x00, 0x19, 0x56, 0x6d, 0x05, 0x94, 0x28, 0x5d, 
	0x00, 0x93, 0x4b, 0x71, 0x00, 0x91, 0x4d, 0x69, 0x00, 0x93, 
	0x4e, 0x61, 0x00, 0x91, 0x34, 0x4d, 0x0a, 0x84, 0x1c, 0x00, 
	0x05, 0x83, 0x4e, 0x00, 0x05, 0x91, 0x4d, 0x00, 0x05, 0x83, 
	0x4b, 0x00, 0x00, 0x91, 0x56, 0x00, 0x05, 0x84, 0x28, 0x00, 
	0x0a, 0x94, 0x18, 0x71, 0x00, 0x91, 0x30, 0x59, 0x00, 0x37, 
	0x51, 0x05, 0x93, 0x4c, 0x65, 0x00, 0x91, 0x54, 0x6d, 0x00, 
	0x4c, 0x65, 0x05, 0x93, 0x4f, 0x61, 0x00, 0x91, 0x4f, 0x6d, 
	0x05, 0x51, 0x71, 0x00, 0x50, 0x51, 0x0a, 0x34, 0x00, 0x05, 
	0x50, 0x00, 0x05, 0x30, 0x00, 0x05, 0x37, 0x00, 0x05, 0x4c, 
	0x00, 0x05, 0x83, 0x4c, 0x00, 0x00, 0x91, 0x54, 0x00, 0x05, 
	0x83, 0x4f, 0x00, 0x00, 0x91, 0x4f, 0x00, 0x00, 0x51, 0x00, 
	0x14, 0x84, 0x18, 0x00, 0x00, 0x91, 0x4f, 0x65, 0x00, 0x54, 
	0x65, 0x00, 0x4c, 0x65, 0x00, 0x51, 0x65, 0x05, 0x94, 0x24, 
	0x5d, 0x00, 0x93, 0x4f, 0x6d, 0x00, 0x91, 0x30, 0x5d, 0x05, 
	0x93, 0x54, 0x6d, 0x05, 0x56, 0x69, 0x05, 0x83, 0x56, 0x00, 
	0x0a, 0x84, 0x24, 0x00, 0x00, 0x91, 0x4c, 0x00, 0x05, 0x51, 
	0x00, 0x00, 0x4f, 0x00, 0x00, 0x54, 0x00, 0x05, 0x83, 0x4f, 
	0x00, 0x00, 0x54, 0x00, 0x05, 0x94, 0x1c, 0x6d, 0x00, 0x91, 
	0x35, 0x61, 0x00, 0x39, 0x59, 0x28, 0x39, 0x00, 0x00, 0x30, 
	0x00, 0x0a, 0x35, 0x00, 0x1e, 0x84, 0x1c, 0x00, 0x00, 0x91, 
	0x30, 0x55, 0x00, 0x94, 0x28, 0x59, 0x19, 0x91, 0x4c, 0x31, 
	0x05, 0x84, 0x28, 0x00, 0x0a, 0x94, 0x1f, 0x71, 0x00, 0x91, 
	0x34, 0x55, 0x00, 0x37, 0x5d, 0x0a, 0x4f, 0x61, 0x00, 0x51, 
	0x61, 0x05, 0x54, 0x61, 0x0f, 0x30, 0x00, 0x0f, 0x37, 0x00, 
	0x00, 0x4c, 0x00, 0x05, 0x34, 0x00, 0x05, 0x54, 0x00, 0x00, 
	0x51, 0x00, 0x05, 0x4f, 0x00, 0x14, 0x84, 0x1f, 0x00, 0x00, 
	0x91, 0x30, 0x5d, 0x00, 0x94, 0x2b, 0x59, 0x19, 0x84, 0x2b, 
	0x00, 0x0f, 0x94, 0x21, 0x71, 0x00, 0x91, 0x33, 0x69, 0x28, 
	0x33, 0x00, 0x00, 0x30, 0x00, 0x28, 0x84, 0x21, 0x00, 0x00, 
	0x91, 0x34, 0x51, 0x00, 0x94, 0x2d, 0x69, 0x05, 0x91, 0x4c, 
	0x6d, 0x00, 0x4f, 0x6d, 0x00, 0x54, 0x71, 0x0a, 0x51, 0x65, 
	0x0f, 0x84, 0x2d, 0x00, 0x00, 0x91, 0x4c, 0x00, 0x0a, 0x94, 
	0x22, 0x75, 0x00, 0x91, 0x54, 0x00, 0x00, 0x51, 0x00, 0x00, 
	0x4f, 0x00, 0x00, 0x30, 0x5d, 0x00, 0x37, 0x59, 0x19, 0x34, 
	0x00, 0x0f, 0x30, 0x00, 0x05, 0x37, 0x00, 0x0a, 0x5b, 0x59, 
	0x05, 0x93, 0x4f, 0x5d, 0x0a, 0x91, 0x5b, 0x00, 0x05, 0x57, 
	0x6d, 0x05, 0x94, 0x2e, 0x65, 0x00, 0x83, 0x4f, 0x00, 0x00, 
	0x91, 0x30, 0x5d, 0x05, 0x84, 0x22, 0x00, 0x00, 0x93, 0x4a, 
	0x61, 0x05, 0x91, 0x56, 0x6d, 0x05, 0x57, 0x00, 0x0f, 0x84, 
	0x2e, 0x00, 0x00, 0x91, 0x54, 0x75, 0x0a, 0x94, 0x21, 0x6d, 
	0x00, 0x93, 0x48, 0x69, 0x00, 0x91, 0x56, 0x00, 0x00, 0x35, 
	0x5d, 0x00, 0x39, 0x5d, 0x05, 0x83, 0x4a, 0x00, 0x05, 0x91, 
	0x4f, 0x71, 0x05, 0x93, 0x43, 0x6d, 0x14, 0x83, 0x48, 0x00, 
	0x00, 0x91, 0x54, 0x00, 0x05, 0x39, 0x00, 0x05, 0x30, 0x00, 
	0x00, 0x35, 0x00, 0x0a, 0x83, 0x43, 0x00, 0x05, 0x91, 0x4f, 
	0x00, 0x0f, 0x93, 0x44, 0x71, 0x00, 0x91, 0x50, 0x79, 0x05, 
	0x94, 0x2d, 0x5d, 0x00, 0x91, 0x30, 0x55, 0x0a, 0x84, 0x21, 
	0x00, 0x0a, 0x2d, 0x00, 0x00, 0x83, 0x44, 0x00, 0x05, 0x91, 
	0x50, 0x00, 0x0f, 0x94, 0x1f, 0x6d, 0x00, 0x91, 0x34, 0x55, 
	0x00, 0x37, 0x5d, 0x05, 0x93, 0x45, 0x6d, 0x00, 0x91, 0x51, 
	0x6d, 0x1e, 0x83, 0x45, 0x00, 0x00, 0x91, 0x30, 0x00, 0x0a, 
	0x37, 0x00, 0x05, 0x34, 0x00, 0x00, 0x51, 0x00, 0x14, 0x93, 
	0x48, 0x6d, 0x05, 0x91, 0x54, 0x6d, 0x05, 0x94, 0x2b, 0x61, 
	0x00, 0x91, 0x30, 0x61, 0x0f, 0x84, 0x1f, 0x00, 0x05, 0x83, 
	0x48, 0x00, 0x05, 0x84, 0x2b, 0x00, 0x00, 0x91, 0x54, 0x00, 
	0x0a, 0x93, 0x4a, 0x75, 0x05, 0x94, 0x1a, 0x65, 0x00, 0x91, 
	0x33, 0x65, 0x00, 0x94, 0x1c, 0x59, 0x05, 0x91, 0x56, 0x75, 
	0x0a, 0x84, 0x1a, 0x00, 0x19, 0x91, 0x33, 0x00, 0x0f, 0x83, 
	0x4a, 0x00, 0x05, 0x91, 0x56, 0x00, 0x00, 0x30, 0x00, 0x0a, 
	0x93, 0x45, 0x51, 0x05, 0x84, 0x1c, 0x00, 0x00, 0x91, 0x4d, 
	0x51, 0x05, 0x94, 0x28, 0x59, 0x00, 0x91, 0x32, 0x2d, 0x00, 
	0x34, 0x35, 0x0a, 0x83, 0x45, 0x00, 0x05, 0x91, 0x4d, 0x00, 
	0x05, 0x32, 0x00, 0x05, 0x84, 0x28, 0x00, 0x05, 0x91, 0x34, 
	0x00, 0x0a, 0x94, 0x1d, 0x71, 0x00, 0x93, 0x4f, 0x71, 0x00, 
	0x91, 0x35, 0x55, 0x00, 0x93, 0x4b, 0x79, 0x05, 0x91, 0x50, 
	0x75, 0x05, 0x54, 0x6d, 0x00, 0x4b, 0x71, 0x05, 0x4f, 0x69, 
	0x00, 0x52, 0x59, 0x05, 0x51, 0x55, 0x0f, 0x50, 0x00, 0x00, 
	0x35, 0x00, 0x0a, 0x83, 0x4b, 0x00, 0x00, 0x91, 0x52, 0x00, 
	0x05, 0x4b, 0x00, 0x05, 0x83, 0x4f, 0x00, 0x05, 0x91, 0x51, 
	0x00, 0x00, 0x54, 0x00, 0x05, 0x4f, 0x00, 0x05, 0x93, 0x4f, 
	0x71, 0x05, 0x4b, 0x6d, 0x05, 0x84, 0x1d, 0x00, 0x00, 0x91, 
	0x54, 0x75, 0x00, 0x94, 0x29, 0x5d, 0x00, 0x91, 0x4b, 0x71, 
	0x00, 0x51, 0x65, 0x00, 0x35, 0x61, 0x0f, 0x4f, 0x6d, 0x0a, 
	0x84, 0x29, 0x00, 0x00, 0x91, 0x53, 0x2d, 0x05, 0x83, 0x4b, 
	0x00, 0x00, 0x91, 0x4b, 0x00, 0x0a, 0x94, 0x1f, 0x49, 0x00, 
	0x91, 0x3a, 0x61, 0x00, 0x94, 0x21, 0x65, 0x00, 0x91, 0x3e, 
	0x51, 0x0f, 0x53, 0x00, 0x05, 0x35, 0x00, 0x05, 0x84, 0x1f, 
	0x00, 0x00, 0x91, 0x51, 0x00, 0x00, 0x3a, 0x00, 0x00, 0x3e, 
	0x00, 0x05, 0x54, 0x00, 0x00, 0x4b, 0x69, 0x19, 0x54, 0x51, 
	0x05, 0x93, 0x4b, 0x65, 0x00, 0x91, 0x4b, 0x00, 0x00, 0x51, 
	0x41, 0x0a, 0x83, 0x4f, 0x00, 0x0a, 0x84, 0x21, 0x00, 0x00, 
	0x91, 0x35, 0x61, 0x00, 0x94, 0x2d, 0x61, 0x05, 0x83, 0x4b, 
	0x00, 0x05, 0x93, 0x4f, 0x59, 0x0a, 0x91, 0x54, 0x00, 0x00, 
	0x4b, 0x71, 0x05, 0x51, 0x00, 0x05, 0x84, 0x2d, 0x00, 0x0a, 
	0x94, 0x23, 0x49, 0x00, 0x91, 0x39, 0x51, 0x00, 0x94, 0x24, 
	0x65, 0x00, 0x91, 0x3c, 0x4d, 0x0a, 0x93, 0x4b, 0x61, 0x00, 
	0x91, 0x54, 0x59, 0x05, 0x84, 0x23, 0x00, 0x00, 0x83, 0x4f, 
	0x00, 0x00, 0x91, 0x4b, 0x00, 0x05, 0x35, 0x00, 0x00, 0x51, 
	0x3d, 0x0a, 0x83, 0x4b, 0x00, 0x00, 0x91, 0x3c, 0x00, 0x05, 
	0x93, 0x4f, 0x5d, 0x05, 0x91, 0x39, 0x00, 0x0a, 0x54, 0x00, 
	0x00, 0x4b, 0x6d, 0x05, 0x51, 0x00, 0x14, 0x54, 0x59, 0x05, 
	0x94, 0x30, 0x5d, 0x00, 0x93, 0x4b, 0x61, 0x00, 0x91, 0x4b, 
	0x00, 0x00, 0x51, 0x49, 0x00, 0x35, 0x5d, 0x05, 0x84, 0x24, 
	0x00, 0x00, 0x83, 0x4f, 0x00, 0x0a, 0x4b, 0x00, 0x05, 0x93, 
	0x4f, 0x59, 0x05, 0x84, 0x30, 0x00, 0x05, 0x91, 0x54, 0x00, 
	0x00, 0x4b, 0x5d, 0x0a, 0x94, 0x26, 0x71, 0x00, 0x91, 0x51, 
	0x00, 0x00, 0x38, 0x65, 0x0f, 0x4b, 0x00, 0x00, 0x54, 0x59, 
	0x00, 0x51, 0x39, 0x0a, 0x83, 0x4f, 0x00, 0x05, 0x93, 0x4b, 
	0x55, 0x00, 0x91, 0x35, 0x00, 0x05, 0x54, 0x00, 0x00, 0x38, 
	0x00, 0x05, 0x51, 0x00, 0x00, 0x4b, 0x59, 0x05, 0x83, 0x4b, 
	0x00, 0x00, 0x93, 0x4f, 0x61, 0x14, 0x91, 0x4b, 0x00, 0x00, 
	0x51, 0x3d, 0x05, 0x54, 0x41, 0x05, 0x84, 0x26, 0x00, 0x05, 
	0x94, 0x32, 0x5d, 0x00, 0x91, 0x39, 0x55, 0x0a, 0x83, 0x4f, 
	0x00, 0x00, 0x91, 0x54, 0x00, 0x00, 0x51, 0x00, 0x05, 0x93, 
	0x4b, 0x49, 0x00, 0x91, 0x4b, 0x45, 0x0a, 0x93, 0x4f, 0x55, 
	0x05, 0x84, 0x32, 0x00, 0x00, 0x83, 0x4b, 0x00, 0x05, 0x91, 
	0x54, 0x59, 0x00, 0x51, 0x4d, 0x05, 0x94, 0x27, 0x75, 0x00, 
	0x91, 0x4b, 0x00, 0x00, 0x35, 0x59, 0x00, 0x3c, 0x5d, 0x0a, 
	0x4b, 0x3d, 0x05, 0x54, 0x00, 0x05, 0x83, 0x4f, 0x00, 0x05, 
	0x93, 0x4b, 0x51, 0x00, 0x91, 0x51, 0x00, 0x00, 0x39, 0x00, 
	0x05, 0x3c, 0x00, 0x05, 0x35, 0x00, 0x05, 0x83, 0x4b, 0x00, 
	0x00, 0x91, 0x4b, 0x00, 0x00, 0x93, 0x4f, 0x55, 0x0a, 0x91, 
	0x51, 0x35, 0x14, 0x93, 0x4b, 0x39, 0x00, 0x91, 0x51, 0x00, 
	0x0a, 0x84, 0x27, 0x00, 0x00, 0x91, 0x35, 0x55, 0x00, 0x94, 
	0x33, 0x59, 0x0a, 0x83, 0x4b, 0x00, 0x0a, 0x91, 0x54, 0x35, 
	0x05, 0x84, 0x33, 0x00, 0x00, 0x91, 0x51, 0x31, 0x00, 0x4b, 
	0x59, 0x0f, 0x94, 0x26, 0x6d, 0x00, 0x83, 0x4f, 0x00, 0x00, 
	0x91, 0x3a, 0x69, 0x00, 0x3e, 0x5d, 0x0f, 0x51, 0x00, 0x14, 
	0x4b, 0x00, 0x00, 0x35, 0x00, 0x00, 0x3e, 0x00, 0x05, 0x3a, 
	0x00, 0x05, 0x54, 0x00, 0x0f, 0x4f, 0x00, 0x14, 0x94, 0x32, 
	0x69, 0x00, 0x91, 0x35, 0x4d, 0x05, 0x84, 0x26, 0x00, 0x19, 
	0x32, 0x00, 0x0a, 0x94, 0x24, 0x71, 0x00, 0x91, 0x39, 0x5d, 
	0x00, 0x3c, 0x5d, 0x05, 0x4e, 0x79, 0x00, 0x57, 0x7d, 0x19, 
	0x35, 0x00, 0x0a, 0x3c, 0x00, 0x05, 0x39, 0x00, 0x05, 0x4e, 
	0x00, 0x0a, 0x57, 0x00, 0x14, 0x94, 0x30, 0x61, 0x00, 0x91, 
	0x4f, 0x69, 0x00, 0x58, 0x69, 0x00, 0x35, 0x61, 0x05, 0x84, 
	0x24, 0x00, 0x0f, 0x30, 0x00, 0x05, 0x91, 0x58, 0x00, 0x05, 
	0x4f, 0x00, 0x0a, 0x94, 0x21, 0x75, 0x00, 0x91, 0x38, 0x65, 
	0x0a, 0x4e, 0x75, 0x00, 0x57, 0x75, 0x14, 0x38, 0x00, 0x14, 
	0x35, 0x00, 0x00, 0x4e, 0x00, 0x05, 0x57, 0x00, 0x14, 0x56, 
	0x75, 0x05, 0x94, 0x2d, 0x61, 0x00, 0x91, 0x4d, 0x71, 0x00, 
	0x39, 0x59, 0x0a, 0x84, 0x21, 0x00, 0x0a, 0x2d, 0x00, 0x05, 
	0x91, 0x56, 0x00, 0x05, 0x39, 0x00, 0x00, 0x4d, 0x00, 0x0a, 
	0x94, 0x18, 0x79, 0x00, 0x91, 0x30, 0x65, 0x0a, 0x4c, 0x5d, 
	0x00, 0x54, 0x69, 0x00, 0x4f, 0x65, 0x05, 0x51, 0x6d, 0x19, 
	0x30, 0x00, 0x05, 0x4c, 0x00, 0x00, 0x54, 0x00, 0x0f, 0x4f, 
	0x00, 0x00, 0x51, 0x00, 0x0f, 0x4c, 0x61, 0x00, 0x51, 0x69, 
	0x00, 0x54, 0x61, 0x05, 0x84, 0x18, 0x00, 0x00, 0x93, 0x43, 
	0x79, 0x00, 0x91, 0x30, 0x61, 0x00, 0x94, 0x24, 0x59, 0x00, 
	0x93, 0x4f, 0x71, 0x0a, 0x91, 0x4f, 0x65, 0x0f, 0x54, 0x00, 
	0x00, 0x4c, 0x00, 0x05, 0x84, 0x24, 0x00, 0x00, 0x83, 0x43, 
	0x00, 0x00, 0x91, 0x4f, 0x00, 0x05, 0x51, 0x00, 0x05, 0x94, 
	0x1c, 0x6d, 0x00, 0x91, 0x35, 0x61, 0x00, 0x39, 0x61, 0x0a, 
	0x93, 0x4b, 0x75, 0x0a, 0x83, 0x4f, 0x00, 0x0a, 0x91, 0x30, 
	0x00, 0x0a, 0x83, 0x4b, 0x00, 0x00, 0x91, 0x39, 0x00, 0x05, 
	0x35, 0x00, 0x1e, 0x93, 0x4c, 0x6d, 0x05, 0x84, 0x1c, 0x00, 
	0x00, 0x91, 0x30, 0x59, 0x00, 0x94, 0x28, 0x59, 0x14, 0x83, 
	0x4c, 0x00, 0x0a, 0x84, 0x28, 0x00, 0x0a, 0x94, 0x1f, 0x71, 
	0x00, 0x91, 0x34, 0x55, 0x00, 0x37, 0x59, 0x05, 0x93, 0x4f, 
	0x79, 0x05, 0x54, 0x79, 0x14, 0x91, 0x30, 0x00, 0x0f, 0x37, 
	0x00, 0x00, 0x34, 0x00, 0x05, 0x83, 0x54, 0x00, 0x0a, 0x4f, 
	0x00, 0x0f, 0x93, 0x48, 0x51, 0x05, 0x84, 0x1f, 0x00, 0x00, 
	0x91, 0x30, 0x5d, 0x00, 0x94, 0x2b, 0x61, 0x0a, 0x83, 0x48, 
	0x00, 0x14, 0x84, 0x2b, 0x00, 0x0a, 0x94, 0x21, 0x6d, 0x00, 
	0x91, 0x33, 0x6d, 0x05, 0x93, 0x51, 0x79, 0x00, 0x4d, 0x79, 
	0x1e, 0x91, 0x33, 0x00, 0x00, 0x30, 0x00, 0x0f, 0x83, 0x51, 
	0x00, 0x00, 0x4d, 0x00, 0x19, 0x84, 0x21, 0x00, 0x05, 0x94, 
	0x2d, 0x65, 0x00, 0x93, 0x4b, 0x71, 0x00, 0x91, 0x34, 0x51, 
	0x05, 0x93, 0x4e, 0x61, 0x0a, 0x83, 0x4e, 0x00, 0x0a, 0x4b, 
	0x00, 0x05, 0x84, 0x2d, 0x00, 0x0a, 0x94, 0x22, 0x75, 0x00, 
	0x91, 0x30, 0x5d, 0x00, 0x37, 0x5d, 0x0a, 0x93, 0x4c, 0x61, 
	0x00, 0x4f, 0x61, 0x05, 0x91, 0x34, 0x00, 0x19, 0x37, 0x00, 
	0x00, 0x30, 0x00, 0x0f, 0x83, 0x4c, 0x00, 0x00, 0x4f, 0x00, 
	0x14, 0x93, 0x43, 0x61, 0x05, 0x84, 0x22, 0x00, 0x00, 0x91, 
	0x30, 0x5d, 0x00, 0x94, 0x2e, 0x61, 0x05, 0x91, 0x4f, 0x7d, 
	0x00, 0x5b, 0x79, 0x0f, 0x84, 0x2e, 0x00, 0x00, 0x83, 0x43, 
	0x00, 0x0a, 0x91, 0x4f, 0x00, 0x05, 0x5b, 0x00, 0x05, 0x94, 
	0x21, 0x6d, 0x00, 0x91, 0x35, 0x61, 0x00, 0x39, 0x59, 0x0a, 
	0x93, 0x4c, 0x79, 0x00, 0x4f, 0x75, 0x0a, 0x91, 0x57, 0x75, 
	0x0f, 0x39, 0x00, 0x05, 0x30, 0x00, 0x05, 0x35, 0x00, 0x00, 
	0x57, 0x00, 0x0a, 0x83, 0x4c, 0x00, 0x00, 0x4f, 0x00, 0x19, 
	0x94, 0x2d, 0x5d, 0x00, 0x93, 0x4b, 0x75, 0x00, 0x91, 0x58, 
	0x69, 0x00, 0x30, 0x55, 0x05, 0x93, 0x4e, 0x69, 0x05, 0x84, 
	0x21, 0x00, 0x05, 0x83, 0x4e, 0x00, 0x00, 0x91, 0x58, 0x00, 
	0x0a, 0x83, 0x4b, 0x00, 0x05, 0x84, 0x2d, 0x00, 0x0a, 0x94, 
	0x1f, 0x71, 0x00, 0x91, 0x34, 0x59, 0x00, 0x37, 0x55, 0x0a, 
	0x5b, 0x7d, 0x00, 0x60, 0x75, 0x05, 0x93, 0x4a, 0x61, 0x00, 
	0x4d, 0x65, 0x0f, 0x91, 0x30, 0x00, 0x0a, 0x37, 0x00, 0x0a, 
	0x60, 0x00, 0x00, 0x34, 0x00, 0x05, 0x5b, 0x00, 0x05, 0x83, 
	0x4d, 0x00, 0x05, 0x4a, 0x00, 0x05, 0x91, 0x54, 0x59, 0x0a, 
	0x94, 0x2b, 0x61, 0x00, 0x93, 0x43, 0x55, 0x00, 0x91, 0x30, 
	0x61, 0x0a, 0x84, 0x1f, 0x00, 0x00, 0x91, 0x54, 0x00, 0x0a, 
	0x83, 0x43, 0x00, 0x0a, 0x84, 0x2b, 0x00, 0x0a, 0x94, 0x1c, 
	0x65, 0x00, 0x91, 0x33, 0x61, 0x00, 0x94, 0x1d, 0x61, 0x05, 
	0x91, 0x59, 0x75, 0x00, 0x5d, 0x75, 0x0a, 0x93, 0x48, 0x71, 
	0x00, 0x4c, 0x6d, 0x0f, 0x91, 0x33, 0x00, 0x0a, 0x5d, 0x00, 
	0x00, 0x59, 0x00, 0x0f, 0x83, 0x48, 0x00, 0x00, 0x91, 0x30, 
	0x00, 0x05, 0x83, 0x4c, 0x00, 0x0f, 0x91, 0x57, 0x75, 0x00, 
	0x5a, 0x6d, 0x05, 0x84, 0x1c, 0x00, 0x00, 0x91, 0x34, 0x49, 
	0x00, 0x84, 0x1d, 0x00, 0x00, 0x94, 0x28, 0x59, 0x05, 0x93, 
	0x43, 0x49, 0x05, 0x91, 0x5a, 0x00, 0x0a, 0x84, 0x28, 0x00, 
	0x00, 0x91, 0x57, 0x00, 0x0a, 0x83, 0x43, 0x00, 0x0a, 0x94, 
	0x1a, 0x75, 0x00, 0x91, 0x32, 0x65, 0x05, 0x58, 0x61, 0x05, 
	0x34, 0x00, 0x00, 0x5b, 0x5d, 0x1e, 0x5b, 0x00, 0x00, 0x32, 
	0x00, 0x0a, 0x58, 0x00, 0x14, 0x4f, 0x59, 0x0a, 0x94, 0x26, 
	0x4d, 0x00, 0x91, 0x32, 0x5d, 0x05, 0x84, 0x1a, 0x00, 0x0a, 
	0x91, 0x4f, 0x00, 0x0a, 0x84, 0x26, 0x00, 0x0f, 0x94, 0x1c, 
	0x6d, 0x00, 0x91, 0x35, 0x5d, 0x05, 0x58, 0x75, 0x00, 0x5b, 
	0x75, 0x1e, 0x32, 0x00, 0x05, 0x35, 0x00, 0x00, 0x58, 0x00, 
	0x05, 0x5b, 0x00, 0x19, 0x57, 0x75, 0x00, 0x5a, 0x71, 0x0a, 
	0x94, 0x28, 0x59, 0x00, 0x91, 0x32, 0x59, 0x05, 0x84, 0x1c, 
	0x00, 0x0f, 0x91, 0x5a, 0x00, 0x05, 0x57, 0x00, 0x05, 0x84, 
	0x28, 0x00, 0x0a, 0x94, 0x1d, 0x71, 0x00, 0x91, 0x39, 0x61, 
	0x0a, 0x59, 0x5d, 0x00, 0x56, 0x45, 0x05, 0x58, 0x45, 0x14, 
	0x58, 0x00, 0x05, 0x32, 0x00, 0x00, 0x59, 0x00, 0x00, 0x39, 
	0x00, 0x05, 0x56, 0x00, 0x1e, 0x4d, 0x61, 0x00, 0x4f, 0x55, 
	0x05, 0x84, 0x1d, 0x00, 0x00, 0x91, 0x32, 0x59, 0x00, 0x94, 
	0x29, 0x61, 0x14, 0x91, 0x4f, 0x00, 0x00, 0x4d, 0x00, 0x14, 
	0x84, 0x29, 0x00, 0x00, 0x91, 0x3c, 0x59, 0x00, 0x94, 0x1e, 
	0x75, 0x00, 0x91, 0x50, 0x79, 0x1e, 0x50, 0x00, 0x00, 0x3c, 
	0x00, 0x28, 0x32, 0x00, 0x05, 0x51, 0x71, 0x05, 0x94, 0x2a, 
	0x65, 0x00, 0x91, 0x3c, 0x55, 0x0a, 0x84, 0x1e, 0x00, 0x14, 
	0x2a, 0x00, 0x00, 0x91, 0x51, 0x00, 0x0a, 0x94, 0x1f, 0x71, 
	0x00, 0x91, 0x3c, 0x00, 0x00, 0x37, 0x5d, 0x05, 0x5b, 0x65, 
	0x19, 0x57, 0x6d, 0x0a, 0x5b, 0x00, 0x05, 0x37, 0x00, 0x0a, 
	0x57, 0x00, 0x05, 0x56, 0x5d, 0x0f, 0x93, 0x47, 0x7d, 0x00, 
	0x4b, 0x79, 0x00, 0x4f, 0x6d, 0x05, 0x84, 0x1f, 0x00, 0x00, 
	0x91, 0x37, 0x59, 0x00, 0x94, 0x2b, 0x61, 0x0a, 0x91, 0x54, 
	0x6d, 0x05, 0x56, 0x00, 0x05, 0x83, 0x4b, 0x00, 0x00, 0x47, 
	0x00, 0x05, 0x91, 0x4f, 0x65, 0x05, 0x84, 0x2b, 0x00, 0x00, 
	0x83, 0x4f, 0x00, 0x0a, 0x94, 0x21, 0x71, 0x00, 0x91, 0x54, 
	0x00, 0x00, 0x3a, 0x65, 0x0a, 0x5b, 0x6d, 0x05, 0x4f, 0x00, 
	0x19, 0x37, 0x00, 0x00, 0x3a, 0x00, 0x05, 0x57, 0x6d, 0x0f, 
	0x5b, 0x00, 0x05, 0x57, 0x00, 0x00, 0x56, 0x59, 0x0f, 0x84, 
	0x21, 0x00, 0x00, 0x93, 0x47, 0x7d, 0x00, 0x91, 0x3b, 0x5d, 
	0x00, 0x94, 0x2d, 0x61, 0x05, 0x93, 0x4b, 0x79, 0x00, 0x4f, 
	0x75, 0x05, 0x91, 0x54, 0x61, 0x0a, 0x56, 0x00, 0x05, 0x4f, 
	0x69, 0x05, 0x84, 0x2d, 0x00, 0x00, 0x91, 0x54, 0x00, 0x0a, 
	0x94, 0x22, 0x79, 0x00, 0x91, 0x37, 0x55, 0x00, 0x3e, 0x55, 
	0x0a, 0x5b, 0x6d, 0x05, 0x4f, 0x00, 0x05, 0x83, 0x4b, 0x00, 
	0x00, 0x4f, 0x00, 0x05, 0x47, 0x00, 0x0a, 0x91, 0x3b, 0x00, 
	0x0a, 0x3e, 0x00, 0x00, 0x37, 0x00, 0x05, 0x57, 0x71, 0x0f, 
	0x5b, 0x00, 0x00, 0x56, 0x65, 0x05, 0x93, 0x4f, 0x25, 0x00, 
	0x91, 0x57, 0x00, 0x05, 0x93, 0x4b, 0x65, 0x00, 0x91, 0x58, 
	0x1d, 0x05, 0x94, 0x2e, 0x65, 0x00, 0x91, 0x37, 0x55, 0x05, 
	0x84, 0x22, 0x00, 0x05, 0x83, 0x4f, 0x00, 0x00, 0x91, 0x58, 
	0x00, 0x00, 0x54, 0x69, 0x0a, 0x83, 0x4b, 0x00, 0x00, 0x91, 
	0x56, 0x00, 0x00, 0x93, 0x4a, 0x65, 0x05, 0x84, 0x2e, 0x00, 
	0x00, 0x91, 0x4f, 0x65, 0x0f, 0x94, 0x23, 0x71, 0x00, 0x93, 
	0x47, 0x61, 0x00, 0x91, 0x54, 0x00, 0x00, 0x93, 0x48, 0x61, 
	0x00, 0x91, 0x3c, 0x5d, 0x00, 0x40, 0x5d, 0x0a, 0x83, 0x4a, 
	0x00, 0x05, 0x91, 0x58, 0x6d, 0x05, 0x93, 0x43, 0x6d, 0x05, 
	0x83, 0x48, 0x00, 0x05, 0x91, 0x40, 0x00, 0x05, 0x3c, 0x00, 
	0x05, 0x83, 0x47, 0x00, 0x0a, 0x43, 0x00, 0x0a, 0x91, 0x58, 
	0x00, 0x0a, 0x4f, 0x00, 0x05, 0x37, 0x00, 0x05, 0x84, 0x23, 
	0x00, 0x00, 0x91, 0x40, 0x3d, 0x00, 0x94, 0x2f, 0x65, 0x05, 
	0x93, 0x3f, 0x6d, 0x0f, 0x91, 0x4b, 0x79, 0x05, 0x40, 0x00, 
	0x00, 0x54, 0x4d, 0x05, 0x84, 0x2f, 0x00, 0x05, 0x83, 0x3f, 
	0x00, 0x05, 0x94, 0x24, 0x6d, 0x0a, 0x91, 0x54, 0x00, 0x05, 
	0x4b, 0x00, 0x05, 0x93, 0x40, 0x65, 0x0f, 0x91, 0x4c, 0x61, 
	0x05, 0x30, 0x59, 0x05, 0x54, 0x15, 0x0f, 0x83, 0x40, 0x00, 
	0x00, 0x91, 0x54, 0x00, 0x0f, 0x4c, 0x00, 0x05, 0x94, 0x30, 
	0x69, 0x00, 0x93, 0x43, 0x71, 0x00, 0x91, 0x30, 0x00, 0x05, 
	0x84, 0x24, 0x00, 0x00, 0x93, 0x48, 0x69, 0x00, 0x91, 0x4c, 
	0x65, 0x05, 0x4f, 0x75, 0x00, 0x54, 0x75, 0x0f, 0x84, 0x30, 
	0x00, 0x00, 0x83, 0x48, 0x00, 0x05, 0x43, 0x00, 0x0a, 0x94, 
	0x22, 0x79, 0x00, 0x91, 0x4c, 0x00, 0x05, 0x54, 0x00, 0x0f, 
	0x4f, 0x00, 0x1e, 0x54, 0x51, 0x0f, 0x52, 0x55, 0x0a, 0x53, 
	0x3d, 0x05, 0x94, 0x2e, 0x65, 0x05, 0x91, 0x52, 0x00, 0x00, 
	0x51, 0x55, 0x05, 0x84, 0x22, 0x00, 0x00, 0x91, 0x54, 0x00, 
	0x0f, 0x4f, 0x65, 0x05, 0x84, 0x2e, 0x00, 0x0a, 0x94, 0x21, 
	0x6d, 0x05, 0x91, 0x4b, 0x75, 0x05, 0x53, 0x00, 0x05, 0x51, 
	0x00, 0x19, 0x4b, 0x00, 0x0a, 0x4f, 0x00, 0x1e, 0x84, 0x21, 
	0x00, 0x00, 0x91, 0x4c, 0x65, 0x00, 0x94, 0x2d, 0x5d, 0x19, 
	0x84, 0x2d, 0x00, 0x0f, 0x94, 0x20, 0x75, 0x00, 0x91, 0x51, 
	0x69, 0x19, 0x4c, 0x00, 0x23, 0x51, 0x00, 0x0f, 0x4c, 0x55, 
	0x05, 0x94, 0x2c, 0x61, 0x05, 0x84, 0x20, 0x00, 0x0f, 0x91, 
	0x4c, 0x00, 0x0a, 0x84, 0x2c, 0x00, 0x0a, 0x94, 0x1f, 0x71, 
	0x00, 0x91, 0x4c, 0x65, 0x00, 0x54, 0x75, 0x23, 0x4c, 0x00, 
	0x19, 0x54, 0x00, 0x14, 0x94, 0x2b, 0x61, 0x00, 0x91, 0x4c, 
	0x51, 0x05, 0x84, 0x1f, 0x00, 0x19, 0x2b, 0x00, 0x0a, 0x94, 
	0x1d, 0x71, 0x00, 0x91, 0x51, 0x6d, 0x1e, 0x4c, 0x00, 0x14, 
	0x51, 0x00, 0x1e, 0x94, 0x29, 0x51, 0x05, 0x91, 0x4c, 0x79, 
	0x05, 0x84, 0x1d, 0x00, 0x00, 0x91, 0x54, 0x7d, 0x0a, 0x84, 
	0x29, 0x00, 0x0f, 0x91, 0x4c, 0x00, 0x05, 0x94, 0x1c, 0x6d, 
	0x00, 0x91, 0x54, 0x00, 0x37, 0x54, 0x4d, 0x0a, 0x53, 0x59, 
	0x05, 0x51, 0x5d, 0x0a, 0x94, 0x28, 0x65, 0x00, 0x93, 0x4f, 
	0x79, 0x00, 0x54, 0x7d, 0x05, 0x84, 0x1c, 0x00, 0x05, 0x91, 
	0x4f, 0x65, 0x0a, 0x54, 0x00, 0x0a, 0x84, 0x28, 0x00, 0x00, 
	0x91, 0x53, 0x00, 0x0a, 0x94, 0x1a, 0x75, 0x00, 0x91, 0x4b, 
	0x75, 0x05, 0x83, 0x4f, 0x00, 0x00, 0x54, 0x00, 0x0a, 0x91, 
	0x51, 0x00, 0x14, 0x4b, 0x00, 0x05, 0x4f, 0x00, 0x1e, 0x4c, 
	0x69, 0x0a, 0x94, 0x26, 0x65, 0x00, 0x93, 0x4f, 0x7d, 0x05, 
	0x54, 0x79, 0x05, 0x84, 0x1a, 0x00, 0x0a, 0x91, 0x4c, 0x00, 
	0x0a, 0x84, 0x26, 0x00, 0x05, 0x83, 0x54, 0x00, 0x00, 0x4f, 
	0x00, 0x05, 0x94, 0x24, 0x71, 0x00, 0x91, 0x30, 0x5d, 0x00, 
	0x37, 0x5d, 0x00, 0x3c, 0x59, 0x00, 0x40, 0x55, 0x00, 0x56, 
	0x6d, 0x0f, 0x57, 0x71, 0x0f, 0x57, 0x00, 0x00, 0x56, 0x00, 
	0x00, 0x58, 0x65, 0x23, 0x58, 0x00, 0x00, 0x37, 0x00, 0x00, 
	0x5b, 0x59, 0x05, 0x93, 0x43, 0x69, 0x00, 0x91, 0x30, 0x00, 
	0x00, 0x40, 0x00, 0x00, 0x3c, 0x00, 0x0a, 0x84, 0x24, 0x00, 
	0x0a, 0x91, 0x58, 0x51, 0x05, 0x5b, 0x00, 0x05, 0x83, 0x43, 
	0x00, 0x14, 0x94, 0x24, 0x69, 0x00, 0x93, 0x4a, 0x71, 0x00, 
	0x91, 0x58, 0x00, 0x00, 0x93, 0x4d, 0x69, 0x00, 0x91, 0x30, 
	0x5d, 0x00, 0x37, 0x5d, 0x00, 0x3c, 0x61, 0x05, 0x40, 0x59, 
	0x00, 0x5b, 0x59, 0x19, 0x5b, 0x00, 0x0a, 0x83, 0x4a, 0x00, 
	0x00, 0x91, 0x58, 0x51, 0x05, 0x83, 0x4d, 0x00, 0x0f, 0x91, 
	0x58, 0x00, 0x00, 0x37, 0x00, 0x00, 0x5b, 0x5d, 0x0f, 0x93, 
	0x4b, 0x7d, 0x00, 0x91, 0x40, 0x00, 0x00, 0x3c, 0x00, 0x05, 
	0x84, 0x24, 0x00, 0x00, 0x93, 0x4e, 0x6d, 0x00, 0x91, 0x30, 
	0x00, 0x0a, 0x83, 0x4e, 0x00, 0x00, 0x91, 0x5b, 0x00, 0x05, 
	0x58, 0x51, 0x05, 0x83, 0x4b, 0x00, 0x0a, 0x91, 0x58, 0x00, 
	0x05, 0x5b, 0x59, 0x05, 0x94, 0x22, 0x71, 0x00, 0x93, 0x4f, 
	0x6d, 0x00, 0x91, 0x2e, 0x55, 0x00, 0x3a, 0x51, 0x00, 0x3c, 
	0x55, 0x00, 0x40, 0x49, 0x0a, 0x93, 0x4c, 0x69, 0x0f, 0x91, 
	0x56, 0x65, 0x05, 0x5b, 0x00, 0x14, 0x59, 0x5d, 0x05, 0x83, 
	0x4f, 0x00, 0x00, 0x91, 0x56, 0x00, 0x00, 0x83, 0x4c, 0x00, 
	0x05, 0x91, 0x3a, 0x00, 0x0a, 0x2e, 0x00, 0x00, 0x40, 0x00, 
	0x05, 0x3c, 0x00, 0x05, 0x93, 0x43, 0x61, 0x05, 0x84, 0x22, 
	0x00, 0x00, 0x91, 0x59, 0x00, 0x00, 0x56, 0x51, 0x0f, 0x83, 
	0x43, 0x00, 0x05, 0x91, 0x59, 0x59, 0x05, 0x56, 0x00, 0x0a, 
	0x94, 0x22, 0x69, 0x00, 0x91, 0x2e, 0x61, 0x00, 0x3a, 0x69, 
	0x00, 0x3c, 0x65, 0x00, 0x40, 0x5d, 0x0a, 0x93, 0x4e, 0x7d, 
	0x05, 0x4b, 0x7d, 0x05, 0x91, 0x59, 0x00, 0x00, 0x56, 0x4d, 
	0x19, 0x59, 0x61, 0x05, 0x83, 0x4e, 0x00, 0x00, 0x4b, 0x00, 
	0x05, 0x91, 0x56, 0x00, 0x14, 0x3a, 0x00, 0x00, 0x40, 0x00, 
	0x00, 0x3c, 0x00, 0x00, 0x59, 0x00, 0x05, 0x84, 0x22, 0x00, 
	0x00, 0x91, 0x56, 0x51, 0x05, 0x93, 0x4c, 0x4d, 0x00, 0x4a, 
	0x51, 0x00, 0x4d, 0x45, 0x05, 0x91, 0x2e, 0x00, 0x05, 0x59, 
	0x65, 0x0a, 0x56, 0x00, 0x0a, 0x83, 0x4c, 0x00, 0x00, 0x4d, 
	0x00, 0x05, 0x94, 0x21, 0x69, 0x00, 0x91, 0x2d, 0x45, 0x00, 
	0x39, 0x4d, 0x00, 0x3c, 0x45, 0x00, 0x40, 0x39, 0x0a, 0x93, 
	0x48, 0x69, 0x00, 0x91, 0x59, 0x00, 0x05, 0x83, 0x4a, 0x00, 
	0x14, 0x91, 0x58, 0x69, 0x05, 0x83, 0x48, 0x00, 0x0f, 0x91, 
	0x2d, 0x00, 0x0a, 0x3c, 0x00, 0x00, 0x39, 0x00, 0x00, 0x54, 
	0x5d, 0x05, 0x93, 0x4f, 0x7d, 0x00, 0x91, 0x40, 0x00, 0x00, 
	0x93, 0x54, 0x7d, 0x00, 0x91, 0x58, 0x00, 0x14, 0x84, 0x21, 
	0x00, 0x00, 0x91, 0x58, 0x59, 0x05, 0x54, 0x00, 0x19, 0x94, 
	0x21, 0x6d, 0x00, 0x83, 0x54, 0x00, 0x00, 0x91, 0x58, 0x00, 
	0x00, 0x2d, 0x61, 0x00, 0x39, 0x69, 0x00, 0x3c, 0x69, 0x00, 
	0x40, 0x65, 0x0a, 0x83, 0x4f, 0x00, 0x00, 0x91, 0x54, 0x45, 
	0x00, 0x93, 0x48, 0x65, 0x0f, 0x91, 0x58, 0x5d, 0x0a, 0x54, 
	0x00, 0x0a, 0x83, 0x48, 0x00, 0x0a, 0x91, 0x58, 0x00, 0x0a, 
	0x54, 0x4d, 0x05, 0x93, 0x4b, 0x7d, 0x00, 0x91, 0x39, 0x00, 
	0x05, 0x84, 0x21, 0x00, 0x00, 0x93, 0x4e, 0x75, 0x05, 0x91, 
	0x40, 0x00, 0x00, 0x3c, 0x00, 0x00, 0x58, 0x59, 0x05, 0x2d, 
	0x00, 0x0f, 0x83, 0x4e, 0x00, 0x0a, 0x4b, 0x00, 0x00, 0x91, 
	0x58, 0x00, 0x0a, 0x94, 0x20, 0x75, 0x00, 0x91, 0x2c, 0x51, 
	0x00, 0x38, 0x4d, 0x00, 0x3c, 0x45, 0x00, 0x40, 0x39, 0x0a, 
	0x93, 0x4c, 0x51, 0x00, 0x91, 0x58, 0x59, 0x00, 0x93, 0x4f, 
	0x5d, 0x0f, 0x91, 0x54, 0x00, 0x0f, 0x58, 0x00, 0x0a, 0x83, 
	0x4f, 0x00, 0x00, 0x91, 0x54, 0x31, 0x05, 0x83, 0x4c, 0x00, 
	0x05, 0x91, 0x38, 0x00, 0x05, 0x93, 0x43, 0x51, 0x00, 0x91, 
	0x2c, 0x00, 0x00, 0x58, 0x4d, 0x05, 0x3c, 0x00, 0x00, 0x40, 
	0x00, 0x0a, 0x84, 0x20, 0x00, 0x0a, 0x83, 0x43, 0x00, 0x05, 
	0x91, 0x58, 0x00, 0x14, 0x58, 0x55, 0x05, 0x94, 0x20, 0x79, 
	0x00, 0x93, 0x4e, 0x7d, 0x00, 0x91, 0x2c, 0x65, 0x00, 0x93, 
	0x4b, 0x7d, 0x00, 0x91, 0x38, 0x6d, 0x05, 0x54, 0x00, 0x00, 
	0x3c, 0x65, 0x00, 0x40, 0x61, 0x19, 0x54, 0x25, 0x0a, 0x83, 
	0x4b, 0x00, 0x05, 0x4e, 0x00, 0x05, 0x91, 0x54, 0x00, 0x0a, 
	0x58, 0x00, 0x0a, 0x84, 0x20, 0x00, 0x00, 0x93, 0x4a, 0x5d, 
	0x05, 0x43, 0x71, 0x05, 0x91, 0x3c, 0x00, 0x00, 0x40, 0x00, 
	0x05, 0x38, 0x00, 0x05, 0x2c, 0x00, 0x0f, 0x83, 0x4a, 0x00, 
	0x05, 0x43, 0x00, 0x0a, 0x94, 0x1f, 0x71, 0x00, 0x91, 0x2b, 
	0x71, 0x00, 0x35, 0x5d, 0x00, 0x37, 0x5d, 0x00, 0x40, 0x65, 
	0x37, 0x93, 0x51, 0x2d, 0x05, 0x91, 0x37, 0x00, 0x00, 0x35, 
	0x00, 0x05, 0x83, 0x51, 0x00, 0x00, 0x91, 0x40, 0x00, 0x05, 
	0x93, 0x4f, 0x25, 0x00, 0x91, 0x2b, 0x00, 0x05, 0x93, 0x4b, 
	0x71, 0x05, 0x84, 0x1f, 0x00, 0x05, 0x91, 0x57, 0x69, 0x05, 
	0x83, 0x4f, 0x00, 0x00, 0x4b, 0x00, 0x00, 0x93, 0x4a, 0x69, 
	0x05, 0x91, 0x57, 0x00, 0x00, 0x58, 0x69, 0x0f, 0x93, 0x48, 
	0x6d, 0x0a, 0x83, 0x4a, 0x00, 0x00, 0x91, 0x56, 0x4d, 0x05, 
	0x54, 0x45, 0x05, 0x93, 0x43, 0x71, 0x00, 0x91, 0x58, 0x00, 
	0x0a, 0x4f, 0x65, 0x05, 0x54, 0x00, 0x05, 0x56, 0x00, 0x05, 
	0x83, 0x48, 0x00, 0x0f, 0x43, 0x00, 0x0a, 0x91, 0x4f, 0x00, 
	0x0f, 0x93, 0x44, 0x75, 0x00, 0x91, 0x50, 0x75, 0x19, 0x83, 
	0x44, 0x00, 0x00, 0x91, 0x50, 0x00, 0x19, 0x93, 0x45, 0x71, 
	0x05, 0x91, 0x51, 0x69, 0x23, 0x51, 0x00, 0x05, 0x83, 0x45, 
	0x00, 0x0f, 0x91, 0x54, 0x75, 0x05, 0x93, 0x48, 0x79, 0x1e, 
	0x83, 0x48, 0x00, 0x19, 0x93, 0x4c, 0x61, 0x00, 0x91, 0x56, 
	0x55, 0x00, 0x93, 0x4a, 0x69, 0x00, 0x91, 0x58, 0x59, 0x05, 
	0x54, 0x00, 0x0a, 0x83, 0x4c, 0x00, 0x0a, 0x91, 0x58, 0x00, 
	0x0f, 0x83, 0x4a, 0x00, 0x14, 0x93, 0x43, 0x65, 0x05, 0x91, 
	0x56, 0x00, 0x00, 0x4f, 0x5d, 0x19, 0x83, 0x43, 0x00, 0x00, 
	0x91, 0x4f, 0x00, 0x19, 0x56, 0x71, 0x00, 0x59, 0x6d, 0x05, 
	0x93, 0x4d, 0x79, 0x00, 0x4a, 0x75, 0x1e, 0x91, 0x59, 0x00, 
	0x0a, 0x56, 0x00, 0x05, 0x83, 0x4d, 0x00, 0x05, 0x4a, 0x00, 
	0x0a, 0x91, 0x4f, 0x59, 0x0a, 0x93, 0x43, 0x61, 0x0f, 0x91, 
	0x4f, 0x00, 0x0f, 0x83, 0x43, 0x00, 0x0f, 0x94, 0x1f, 0x79, 
	0x00, 0x91, 0x2b, 0x71, 0x00, 0x3b, 0x75, 0x00, 0x3e, 0x75, 
	0x00, 0x43, 0x6d, 0x05, 0x56, 0x79, 0x05, 0x93, 0x4a, 0x79, 
	0x00, 0x91, 0x59, 0x75, 0x00, 0x93, 0x4d, 0x75, 0x32, 0x91, 
	0x59, 0x00, 0x05, 0x56, 0x00, 0x05, 0x83, 0x4d, 0x00, 0x05, 
	0x4a, 0x00, 0x00, 0x91, 0x3b, 0x00, 0x05, 0x84, 0x1f, 0x00, 
	0x05, 0x91, 0x43, 0x00, 0x00, 0x3e, 0x00, 0x05, 0x2b, 0x00, 
	0x1e, 0x94, 0x24, 0x79, 0x00, 0x91, 0x30, 0x75, 0x00, 0x3c, 
	0x75, 0x00, 0x40, 0x71, 0x00, 0x43, 0x6d, 0x0a, 0x93, 0x4f, 
	0x7d, 0x00, 0x91, 0x5b, 0x7d, 0x00, 0x93, 0x4c, 0x79, 0x00, 
	0x91, 0x58, 0x79, 0x2d, 0x58, 0x00, 0x00, 0x5b, 0x00, 0x0a, 
	0x3c, 0x00, 0x05, 0x84, 0x24, 0x00, 0x00, 0x83, 0x4c, 0x00, 
	0x00, 0x91, 0x43, 0x00, 0x00, 0x40, 0x00, 0x05, 0x83, 0x4f, 
	0x00, 0x00, 0x91, 0x30, 0x00, 0x00, 0xff, 0x2f, 0x00, 0x00, 
	0x00, 0x00, 0x00, 0x00, 0x00, 0x00, 0x00, 0x00, 0x00, 0x00, 
	0x00, 0x00, 0x00, 0x00, 0x00, 0x00, 0x00, 0x00, 0x00, 0x00, 
	0x00, 0x00, 0x00, 0x00, 0x00, 0x00, 0x00, 0x00, 0x00, 0x00, 
	0x00, 0x00, 0x00, 0x00, 0x00, 0x00, 0x00, 0x00, 0x00, 0x00, 
	0x00, 0x00, 0x00, 0x00, 0x00, 0x00, 0x00, 0x00, 0x00, 0x00, 
	0x00, 0x00, 0x00, 0x00, 0x00, 0x00, 0x00, 0x00, 0x00, 0x00, 
	0x00, 0x00, 0x00, 0x00, 0x00, 0x00, 0x00, 0x00, 0x00, 0x00, 
	0x00, 0x00, 0x00, 0x00, 0x00, 0x00, 0x00, 0x00, 0x00, 0x00, 
	0x00, 0x00, 0x00, 0x00, 0x00, 0x00, 0x00, 0x00, 0x00, 0x00, 
	0x00, 0x00, 0x00, 0x00, 0x00, 0x00, 0x00, 0x00, 0x00, 0x00, 
	0x00, 0x00, 0x00, 0x00, 0x00, 0x00, 0x00, 0x00, 0x00, 0x00, 
	0x00, 0x00, 0x00, 0x00, 0x00, 0x00, 0x00, 0x00, 0x00, 0x00, 
	0x00, 0x00, 0x00, 0x00, 0x00, 0x00, 0x00 };

#endif