%FSTAX23Y23*%
%MOIN*%
%SFA1B1*%

%IPPOS*%
%AMD13*
4,1,4,-0.019500,0.011100,-0.006000,-0.021600,0.019500,-0.011100,0.006000,0.021600,-0.019500,0.011100,0.0*
%
%AMD14*
4,1,4,-0.031500,-0.018000,0.022500,-0.028400,0.031500,0.018000,-0.022500,0.028400,-0.031500,-0.018000,0.0*
%
%AMD16*
4,1,4,0.016900,-0.014800,0.010200,0.020000,-0.016900,0.014800,-0.010200,-0.020000,0.016900,-0.014800,0.0*
%
%AMD20*
4,1,4,-0.021100,-0.007700,0.012600,-0.018600,0.021100,0.007700,-0.012600,0.018600,-0.021100,-0.007700,0.0*
%
%AMD21*
4,1,4,0.000800,-0.022400,0.021600,0.006200,-0.000800,0.022400,-0.021600,-0.006200,0.000800,-0.022400,0.0*
%
%AMD22*
4,1,4,0.021600,-0.006200,0.000800,0.022400,-0.021600,0.006200,-0.000800,-0.022400,0.021600,-0.006200,0.0*
%
%AMD23*
4,1,4,0.012600,0.018600,-0.021100,0.007700,-0.012600,-0.018600,0.021100,-0.007700,0.012600,0.018600,0.0*
%
%AMD25*
4,1,4,0.022300,-0.002800,-0.002800,0.022300,-0.022300,0.002800,0.002800,-0.022300,0.022300,-0.002800,0.0*
%
%AMD26*
4,1,4,0.041000,-0.028600,0.048200,-0.013000,-0.041000,0.028600,-0.048200,0.013000,0.041000,-0.028600,0.0*
%
%AMD27*
4,1,4,-0.002800,-0.022300,0.022300,0.002800,0.002800,0.022300,-0.022300,-0.002800,-0.002800,-0.022300,0.0*
%
%AMD28*
4,1,4,-0.033900,0.032800,-0.014600,-0.044900,0.033900,-0.032800,0.014600,0.044900,-0.033900,0.032800,0.0*
%
%AMD30*
4,1,4,-0.013600,-0.007200,0.004500,-0.014700,0.013600,0.007200,-0.004500,0.014700,-0.013600,-0.007200,0.0*
%
%AMD33*
4,1,4,-0.014700,0.004500,-0.007200,-0.013600,0.014700,-0.004500,0.007200,0.013600,-0.014700,0.004500,0.0*
%
%AMD34*
4,1,4,-0.004500,-0.014700,0.013600,-0.007200,0.004500,0.014700,-0.013600,0.007200,-0.004500,-0.014700,0.0*
%
%AMD35*
4,1,4,0.007200,-0.013600,0.014700,0.004500,-0.007200,0.013600,-0.014700,-0.004500,0.007200,-0.013600,0.0*
%
%AMD36*
4,1,4,-0.018300,0.013000,-0.008100,-0.020900,0.018300,-0.013000,0.008100,0.020900,-0.018300,0.013000,0.0*
%
%AMD37*
4,1,4,0.004500,-0.034000,0.016800,0.029900,-0.004500,0.034000,-0.016800,-0.029900,0.004500,-0.034000,0.0*
%
%AMD42*
4,1,4,-0.022200,0.012500,-0.025300,0.003000,0.022200,-0.012500,0.025300,-0.003000,-0.022200,0.012500,0.0*
%
%AMD43*
4,1,4,-0.018700,-0.017300,-0.010600,-0.023200,0.018700,0.017300,0.010600,0.023200,-0.018700,-0.017300,0.0*
%
%AMD44*
4,1,4,0.010600,-0.023200,0.018700,-0.017300,-0.010600,0.023200,-0.018700,0.017300,0.010600,-0.023200,0.0*
%
%AMD45*
4,1,4,0.025300,0.003000,0.022200,0.012500,-0.025300,-0.003000,-0.022200,-0.012500,0.025300,0.003000,0.0*
%
%AMD53*
4,1,4,-0.033300,0.014400,-0.036200,-0.001000,0.033300,-0.014400,0.036200,0.001000,-0.033300,0.014400,0.0*
1,1,0.070900,-0.001500,-0.007700*
1,1,0.070900,0.001500,0.007700*
%
%ADD10C,0.015000*%
%ADD11C,0.040000*%
%ADD12R,0.035400X0.027600*%
G04~CAMADD=13~9~0.0~0.0~354.0~276.0~0.0~0.0~0~0.0~0.0~0.0~0.0~0~0.0~0.0~0.0~0.0~0~0.0~0.0~0.0~112.5~390.0~431.0*
%ADD13D13*%
G04~CAMADD=14~9~0.0~0.0~551.0~472.0~0.0~0.0~0~0.0~0.0~0.0~0.0~0~0.0~0.0~0.0~0.0~0~0.0~0.0~0.0~169.1~630.0~567.0*
%ADD14D14*%
%ADD15R,0.031500X0.059100*%
G04~CAMADD=16~9~0.0~0.0~354.0~276.0~0.0~0.0~0~0.0~0.0~0.0~0.0~0~0.0~0.0~0.0~0.0~0~0.0~0.0~0.0~280.9~338.0~399.0*
%ADD16D16*%
%ADD17R,0.041300X0.023600*%
%ADD18R,0.059100X0.041300*%
%ADD19R,0.027600X0.035400*%
G04~CAMADD=20~9~0.0~0.0~354.0~276.0~0.0~0.0~0~0.0~0.0~0.0~0.0~0~0.0~0.0~0.0~0.0~0~0.0~0.0~0.0~162.0~422.0~371.0*
%ADD20D20*%
G04~CAMADD=21~9~0.0~0.0~354.0~276.0~0.0~0.0~0~0.0~0.0~0.0~0.0~0~0.0~0.0~0.0~0.0~0~0.0~0.0~0.0~234.0~432.0~447.0*
%ADD21D21*%
G04~CAMADD=22~9~0.0~0.0~354.0~276.0~0.0~0.0~0~0.0~0.0~0.0~0.0~0~0.0~0.0~0.0~0.0~0~0.0~0.0~0.0~306.0~432.0~447.0*
%ADD22D22*%
G04~CAMADD=23~9~0.0~0.0~354.0~276.0~0.0~0.0~0~0.0~0.0~0.0~0.0~0~0.0~0.0~0.0~0.0~0~0.0~0.0~0.0~18.0~422.0~371.0*
%ADD23D23*%
%ADD24R,0.080000X0.050000*%
G04~CAMADD=25~9~0.0~0.0~354.0~276.0~0.0~0.0~0~0.0~0.0~0.0~0.0~0~0.0~0.0~0.0~0.0~0~0.0~0.0~0.0~315.0~446.0~445.0*
%ADD25D25*%
G04~CAMADD=26~9~0.0~0.0~173.0~984.0~0.0~0.0~0~0.0~0.0~0.0~0.0~0~0.0~0.0~0.0~0.0~0~0.0~0.0~0.0~245.0~964.0~571.0*
%ADD26D26*%
G04~CAMADD=27~9~0.0~0.0~354.0~276.0~0.0~0.0~0~0.0~0.0~0.0~0.0~0~0.0~0.0~0.0~0.0~0~0.0~0.0~0.0~225.0~446.0~445.0*
%ADD27D27*%
G04~CAMADD=28~9~0.0~0.0~800.0~500.0~0.0~0.0~0~0.0~0.0~0.0~0.0~0~0.0~0.0~0.0~0.0~0~0.0~0.0~0.0~104.0~678.0~897.0*
%ADD28D28*%
%ADD29R,0.110000X0.029100*%
G04~CAMADD=30~9~0.0~0.0~197.0~236.0~0.0~0.0~0~0.0~0.0~0.0~0.0~0~0.0~0.0~0.0~0.0~0~0.0~0.0~0.0~157.5~272.0~293.0*
%ADD30D30*%
%ADD31R,0.019700X0.023600*%
%ADD32R,0.023600X0.019700*%
G04~CAMADD=33~9~0.0~0.0~197.0~236.0~0.0~0.0~0~0.0~0.0~0.0~0.0~0~0.0~0.0~0.0~0.0~0~0.0~0.0~0.0~112.5~294.0~271.0*
%ADD33D33*%
G04~CAMADD=34~9~0.0~0.0~197.0~236.0~0.0~0.0~0~0.0~0.0~0.0~0.0~0~0.0~0.0~0.0~0.0~0~0.0~0.0~0.0~202.5~272.0~293.0*
%ADD34D34*%
G04~CAMADD=35~9~0.0~0.0~197.0~236.0~0.0~0.0~0~0.0~0.0~0.0~0.0~0~0.0~0.0~0.0~0.0~0~0.0~0.0~0.0~247.5~294.0~271.0*
%ADD35D35*%
G04~CAMADD=36~9~0.0~0.0~354.0~276.0~0.0~0.0~0~0.0~0.0~0.0~0.0~0~0.0~0.0~0.0~0.0~0~0.0~0.0~0.0~106.7~366.0~417.0*
%ADD36D36*%
G04~CAMADD=37~9~0.0~0.0~650.0~217.0~0.0~0.0~0~0.0~0.0~0.0~0.0~0~0.0~0.0~0.0~0.0~0~0.0~0.0~0.0~259.1~336.0~679.0*
%ADD37D37*%
%ADD38C,0.008000*%
%ADD39C,0.020000*%
%ADD40C,0.012000*%
%ADD41C,0.007900*%
G04~CAMADD=42~9~0.0~0.0~100.0~500.0~0.0~0.0~0~0.0~0.0~0.0~0.0~0~0.0~0.0~0.0~0.0~0~0.0~0.0~0.0~72.0~506.0~249.0*
%ADD42D42*%
G04~CAMADD=43~9~0.0~0.0~100.0~500.0~0.0~0.0~0~0.0~0.0~0.0~0.0~0~0.0~0.0~0.0~0.0~0~0.0~0.0~0.0~144.0~374.0~463.0*
%ADD43D43*%
G04~CAMADD=44~9~0.0~0.0~100.0~500.0~0.0~0.0~0~0.0~0.0~0.0~0.0~0~0.0~0.0~0.0~0.0~0~0.0~0.0~0.0~216.0~374.0~463.0*
%ADD44D44*%
G04~CAMADD=45~9~0.0~0.0~100.0~500.0~0.0~0.0~0~0.0~0.0~0.0~0.0~0~0.0~0.0~0.0~0.0~0~0.0~0.0~0.0~288.0~506.0~249.0*
%ADD45D45*%
%ADD46R,0.010000X0.050000*%
%ADD47C,0.003000*%
%ADD48C,0.059100*%
%ADD49R,0.059100X0.059100*%
%ADD50C,0.060000*%
%ADD51C,0.050000*%
%ADD52C,0.086600*%
G04~CAMADD=53~3~0.0~0.0~866.0~709.0~0.0~0.0~0~0.0~0.0~0.0~0.0~0~0.0~0.0~0.0~0.0~0~0.0~0.0~0.0~79.1~736.0~860.0*
%ADD53D53*%
%ADD54C,0.035000*%
%ADD55C,0.026000*%
%ADD56C,0.260000*%
%ADD57C,0.147000*%
%LNronecpuboard-v10-1*%
%LPD*%
G36*
X05097Y0483D02*
X05101Y04827D01*
X05106Y04826*
X05124*
X05142Y04809*
Y04616*
X05111Y04585*
X04917*
X04798Y04704*
Y04725*
X04803Y04727*
X04808Y04719*
X04816Y04714*
X04821Y04713*
Y04738*
Y04763*
X04816Y04762*
X04808Y04756*
X04802Y04748*
X04801Y04743*
X04796Y04742*
X04795Y04745*
X04781Y04759*
X04779Y0476*
Y04798*
X04869Y04888*
X05038*
X05097Y0483*
G37*
G36*
X03497Y05006D02*
X03492Y05003D01*
X03488Y05007*
X03478Y05009*
X03468Y05007*
X03459Y05001*
X03454Y04992*
X03452Y04983*
X03454Y04973*
X03456Y04969*
X03453Y04965*
X03318*
X03317Y0497*
X03325Y04975*
X03331Y04984*
X03332Y04989*
X03282*
X03283Y04984*
X03284Y04981*
X03282Y04977*
X03278Y04978*
X03268Y04976*
X03259Y0497*
X03254Y04961*
X03252Y04952*
X03254Y04942*
X03259Y04933*
X03268Y04928*
X03278Y04926*
X03288Y04928*
X03296Y04933*
X03301Y0494*
X03464*
Y04887*
X03458Y04883*
X03453Y04874*
X03451Y04865*
X03452Y04856*
X03449Y04852*
X03312Y04852*
X0331Y04856*
X03315Y04864*
X03316Y04869*
X03266*
X03267Y04864*
X03272Y04856*
X03269Y04852*
X03031Y04851*
X03032Y04786*
X03028Y04783*
X02855*
Y04828*
X02861Y04832*
X02867Y04841*
X02868Y04847*
X02959*
X02963Y04841*
X02972Y04836*
X02982Y04834*
X02992Y04836*
X03Y04841*
X03006Y0485*
X03008Y0486*
X03006Y04869*
X03Y04878*
X02992Y04884*
X02983Y04885*
X02984Y04888*
X02979Y04889*
Y04909*
X02959*
X0296Y04904*
X02965Y04895*
X02974Y0489*
X02975Y04889*
Y04884*
X02972Y04884*
X02963Y04878*
X02959Y04872*
X02857*
X02853Y04875*
X02843Y04877*
X02833Y04875*
X02824Y04869*
X02819Y0486*
X02817Y04851*
X02819Y04841*
X02824Y04832*
X0283Y04828*
Y04783*
X02808*
Y05034*
X03*
X03095Y05135*
X03095Y05363*
X03098Y05367*
X03497*
Y05006*
G37*
G36*
X03545Y04834D02*
X0355Y04833D01*
X03576*
Y04828*
X03572Y04824*
X03572Y04825*
X03562Y04823*
X03553Y04817*
X03548Y04808*
X03546Y04799*
X03548Y04789*
X03553Y0478*
X03562Y04775*
X03572Y04773*
X03572Y04773*
X03576Y0477*
X03576Y04717*
X03574Y04716*
X03569Y04708*
X03567Y04698*
X03569Y04688*
X03574Y04679*
X03576Y04678*
X03577Y04603*
X03452Y04479*
Y04332*
X03447Y04326*
X03443Y04327*
X03437*
X03433Y04333*
X03424Y04339*
X03415Y04341*
X03405Y04339*
X03396Y04333*
X03391Y04325*
X03389Y04315*
X03391Y04305*
X03396Y04296*
X03405Y04291*
X03415Y04289*
X03424Y04291*
X03433Y04296*
X03435Y04299*
X0344Y043*
X03452Y04288*
Y04203*
X03449Y04198*
X03447Y04189*
X03449Y04179*
X03452Y04174*
Y04154*
X03407*
X03402Y04153*
X03397Y0415*
X03372Y04125*
X03115*
X03104Y04135*
Y04197*
X03108Y042*
X03114Y04209*
X03116Y04219*
X03114Y04229*
X03108Y04237*
X031Y04243*
Y04245*
X03101Y04246*
X0311Y04251*
X03116Y0426*
X03118Y0427*
X03116Y0428*
X0311Y04288*
X03101Y04294*
X03092Y04296*
X03082Y04294*
X03073Y04288*
X03068Y0428*
X03066Y0427*
X03068Y0426*
X03073Y04251*
X03079Y04248*
X03079Y04245*
Y04242*
X03071Y04237*
X03066Y0423*
X03048*
Y04434*
X03065*
X03069Y04428*
X03078Y04423*
X03088Y04421*
X03097Y04423*
X03106Y04428*
X03112Y04437*
X03114Y04447*
X03112Y04457*
X03106Y04465*
X03097Y04471*
X03088Y04473*
X03078Y04471*
X03069Y04465*
X03065Y04459*
X03048*
Y04835*
X03218*
X03219Y0483*
X03219*
X0321Y04824*
X03205Y04815*
X03203Y04806*
X03205Y04796*
X0321Y04787*
X03219Y04782*
X03229Y0478*
X03239Y04782*
X03247Y04787*
X03253Y04796*
X03255Y04806*
X03253Y04815*
X03247Y04824*
X03239Y0483*
X03238*
X03239Y04835*
X03272*
X03273Y0483*
X03269Y04827*
X03264Y04819*
X03263Y04814*
X03313*
X03312Y04819*
X03306Y04827*
X03302Y0483*
X03303Y04835*
X03544*
X03545Y04834*
G37*
G36*
X03042Y03988D02*
Y03652D01*
X03037Y03651*
X03031Y0366*
X03022Y03666*
X03018Y03667*
Y03642*
Y03617*
X03022Y03618*
X03031Y03623*
X03037Y03632*
X03042Y03631*
Y03361*
X02962Y03281*
X02959Y03277*
X02958Y03273*
Y0325*
X02942Y03234*
X02564*
X02382Y03654*
Y03992*
X02551*
X02553Y03987*
X02552Y03985*
X0255Y03975*
X02552Y03965*
X02557Y03956*
X02564Y03952*
Y03947*
X02563Y03946*
X02558Y03937*
X02557Y03933*
X02607*
X02606Y03937*
X026Y03946*
X02591Y03952*
X02591Y03954*
X02593Y03956*
X02798*
X02801Y03952*
X02801Y03949*
X02803Y03939*
X02808Y0393*
X02817Y03925*
X02827Y03923*
X02837Y03925*
X02845Y0393*
X02851Y03939*
X02853Y03949*
X02851Y03959*
X02845Y03967*
X02837Y03973*
X02827Y03975*
X02842Y03992*
X03038*
X03042Y03988*
G37*
%LNronecpuboard-v10-2*%
%LPC*%
G36*
X03228Y04574D02*
X03208D01*
X03209Y04569*
X03214Y0456*
X03223Y04555*
X03228Y04554*
Y04574*
G37*
G36*
X02934Y03941D02*
X02914D01*
Y03921*
X02919Y03922*
X02927Y03927*
X02933Y03936*
X02934Y03941*
G37*
G36*
X02904D02*
X02884D01*
X02885Y03936*
X0289Y03927*
X02899Y03922*
X02904Y03921*
Y03941*
G37*
G36*
Y03971D02*
X02899Y0397D01*
X0289Y03964*
X02885Y03956*
X02884Y03951*
X02904*
Y03971*
G37*
G36*
X02455Y03949D02*
X02435D01*
Y03929*
X02439Y0393*
X02448Y03935*
X02454Y03944*
X02455Y03949*
G37*
G36*
X02425D02*
X02405D01*
X02406Y03944*
X02411Y03935*
X0242Y0393*
X02425Y03929*
Y03949*
G37*
G36*
X02607Y03923D02*
X02587D01*
Y03903*
X02591Y03904*
X026Y03909*
X02606Y03918*
X02607Y03923*
G37*
G36*
X02541Y03869D02*
Y03849D01*
X02561*
X0256Y03854*
X02554Y03862*
X02545Y03868*
X02541Y03869*
G37*
G36*
X02531D02*
X02526Y03868D01*
X02517Y03862*
X02512Y03854*
X02511Y03849*
X02531*
Y03869*
G37*
G36*
X02561Y03839D02*
X02541D01*
Y03819*
X02545Y0382*
X02554Y03825*
X0256Y03834*
X02561Y03839*
G37*
G36*
X02577Y03923D02*
X02557D01*
X02558Y03918*
X02563Y03909*
X02572Y03904*
X02577Y03903*
Y03923*
G37*
G36*
X03258Y04574D02*
X03238D01*
Y04554*
X03242Y04555*
X03251Y0456*
X03257Y04569*
X03258Y04574*
G37*
G36*
X02713Y03898D02*
X02705Y03896D01*
X02698Y03891*
X02693Y03884*
X02692Y03878*
X02687*
X02687Y03878*
X02686Y03884*
X02681Y03891*
X02674Y03896*
X02666Y03898*
X02658Y03896*
X02651Y03891*
X02646Y03884*
X02645Y03876*
X02646Y03868*
X02651Y03861*
X02658Y03856*
X02663Y03855*
X02665Y03855*
Y0385*
X02658Y03849*
X02651Y03844*
X02646Y03837*
X02645Y03829*
X02646Y03821*
X02651Y03814*
X02658Y03809*
X02666Y03808*
X02674Y03809*
X02681Y03814*
X02686Y03821*
X02687Y03828*
X02692*
X02693Y03821*
X02698Y03814*
X02705Y03809*
X02713Y03808*
X02721Y03809*
X02728Y03814*
X02733Y03821*
X02735Y03829*
X02733Y03837*
X02728Y03844*
X02721Y03849*
X02715Y0385*
Y03855*
X02716Y03855*
X02721Y03856*
X02728Y03861*
X02733Y03868*
X02735Y03876*
X02733Y03884*
X02728Y03891*
X02721Y03896*
X02713Y03898*
G37*
G36*
X03287Y0437D02*
Y0435D01*
X03307*
X03306Y04355*
X033Y04363*
X03292Y04369*
X03287Y0437*
G37*
G36*
X03277D02*
X03272Y04369D01*
X03264Y04363*
X03258Y04355*
X03257Y0435*
X03277*
Y0437*
G37*
G36*
X03307Y0434D02*
X03287D01*
Y0432*
X03292Y04321*
X033Y04327*
X03306Y04335*
X03307Y0434*
G37*
G36*
X03451Y04566D02*
X03431D01*
Y04546*
X03436Y04547*
X03444Y04552*
X0345Y04561*
X03451Y04566*
G37*
G36*
X03421D02*
X03401D01*
X03402Y04561*
X03407Y04552*
X03416Y04547*
X03421Y04546*
Y04566*
G37*
G36*
X03407Y04514D02*
X03397Y04512D01*
X03388Y04506*
X03384Y045*
X03279*
X03275Y04506*
X03266Y04512*
X03257Y04514*
X03247Y04512*
X03238Y04506*
X03233Y04498*
X03231Y04488*
X03233Y04478*
X03238Y04469*
X03247Y04464*
X03257Y04462*
X03266Y04464*
X03275Y04469*
X03279Y04475*
X03384*
X03388Y04469*
X03397Y04464*
X03407Y04462*
X03416Y04464*
X03425Y04469*
X03431Y04478*
X03433Y04488*
X03431Y04498*
X03425Y04506*
X03416Y04512*
X03407Y04514*
G37*
G36*
X03277Y0434D02*
X03257D01*
X03258Y04335*
X03264Y04327*
X03272Y04321*
X03277Y0432*
Y0434*
G37*
G36*
X03084Y04571D02*
X03064D01*
X03065Y04566*
X0307Y04557*
X03079Y04552*
X03084Y04551*
Y04571*
G37*
G36*
X02914Y03971D02*
Y03951D01*
X02934*
X02933Y03956*
X02927Y03964*
X02919Y0397*
X02914Y03971*
G37*
G36*
X03114Y04571D02*
X03094D01*
Y04551*
X03098Y04552*
X03107Y04557*
X03113Y04566*
X03114Y04571*
G37*
G36*
X03303Y04275D02*
X03295Y04273D01*
X03288Y04268*
X03283Y04261*
X03282Y04255*
X03277*
X03277Y04255*
X03276Y04261*
X03271Y04268*
X03264Y04273*
X03256Y04275*
X03248Y04273*
X03241Y04268*
X03236Y04261*
X03235Y04253*
X03236Y04245*
X03241Y04238*
X03248Y04233*
X03254Y04232*
X03255Y04232*
Y04227*
X03248Y04226*
X03241Y04221*
X03236Y04214*
X03235Y04206*
X03236Y04198*
X03241Y04191*
X03248Y04186*
X03256Y04185*
X03264Y04186*
X03271Y04191*
X03276Y04198*
X03277Y04205*
X03282*
X03283Y04198*
X03288Y04191*
X03295Y04186*
X03303Y04185*
X03311Y04186*
X03318Y04191*
X03323Y04198*
X03325Y04206*
X03323Y04214*
X03318Y04221*
X03311Y04226*
X03305Y04227*
Y04232*
X03305Y04232*
X03311Y04233*
X03318Y04238*
X03323Y04245*
X03325Y04253*
X03323Y04261*
X03318Y04268*
X03311Y04273*
X03303Y04275*
G37*
G36*
X02435Y03979D02*
Y03959D01*
X02455*
X02454Y03963*
X02448Y03972*
X02439Y03978*
X02435Y03979*
G37*
G36*
X02425D02*
X0242Y03978D01*
X02411Y03972*
X02406Y03963*
X02405Y03959*
X02425*
Y03979*
G37*
G36*
X0262Y03515D02*
X02573D01*
X02575Y03506*
X0258Y03494*
X02588Y03483*
X02599Y03475*
X02611Y0347*
X0262Y03468*
Y03515*
G37*
G36*
X02724Y03471D02*
X02711Y0347D01*
X02698Y03464*
X02688Y03456*
X02679Y03445*
X02674Y03433*
X02672Y0342*
X02674Y03406*
X02679Y03394*
X02688Y03383*
X02698Y03375*
X02711Y0337*
X02724Y03368*
X02738Y0337*
X0275Y03375*
X02761Y03383*
X02769Y03394*
X02774Y03406*
X02776Y0342*
X02774Y03433*
X02769Y03445*
X02761Y03456*
X0275Y03464*
X02738Y0347*
X02724Y03471*
G37*
G36*
X0283Y03371D02*
Y03325D01*
X02876*
X02875Y03333*
X02869Y03345*
X02861Y03356*
X0285Y03364*
X02838Y0337*
X0283Y03371*
G37*
G36*
X02676Y03515D02*
X0263D01*
Y03468*
X02638Y0347*
X0265Y03475*
X02661Y03483*
X02669Y03494*
X02675Y03506*
X02676Y03515*
G37*
G36*
X0262Y03571D02*
X02611Y0357D01*
X02599Y03564*
X02588Y03556*
X0258Y03545*
X02575Y03533*
X02573Y03525*
X0262*
Y03571*
G37*
G36*
X02876Y03515D02*
X0283D01*
Y03468*
X02838Y0347*
X0285Y03475*
X02861Y03483*
X02869Y03494*
X02875Y03506*
X02876Y03515*
G37*
G36*
X0282D02*
X02773D01*
X02775Y03506*
X0278Y03494*
X02788Y03483*
X02799Y03475*
X02811Y0347*
X0282Y03468*
Y03515*
G37*
G36*
Y03315D02*
X02773D01*
X02775Y03306*
X0278Y03294*
X02788Y03283*
X02799Y03275*
X02811Y0327*
X0282Y03268*
Y03315*
G37*
G36*
X02676D02*
X0263D01*
Y03268*
X02638Y0327*
X0265Y03275*
X02661Y03283*
X02669Y03294*
X02675Y03306*
X02676Y03315*
G37*
G36*
X0262D02*
X02573D01*
X02575Y03306*
X0258Y03294*
X02588Y03283*
X02599Y03275*
X02611Y0327*
X0262Y03268*
Y03315*
G37*
G36*
X02876D02*
X0283D01*
Y03268*
X02838Y0327*
X0285Y03275*
X02861Y03283*
X02869Y03294*
X02875Y03306*
X02876Y03315*
G37*
G36*
X0282Y03371D02*
X02811Y0337D01*
X02799Y03364*
X02788Y03356*
X0278Y03345*
X02775Y03333*
X02773Y03325*
X0282*
Y03371*
G37*
G36*
X0263D02*
Y03325D01*
X02676*
X02675Y03333*
X02669Y03345*
X02661Y03356*
X0265Y03364*
X02638Y0337*
X0263Y03371*
G37*
G36*
X0262D02*
X02611Y0337D01*
X02599Y03364*
X02588Y03356*
X0258Y03345*
X02575Y03333*
X02573Y03325*
X0262*
Y03371*
G37*
G36*
X0263Y03571D02*
Y03525D01*
X02676*
X02675Y03533*
X02669Y03545*
X02661Y03556*
X0265Y03564*
X02638Y0357*
X0263Y03571*
G37*
G36*
X02635Y03713D02*
X02615D01*
Y03693*
X0262Y03694*
X02628Y03699*
X02634Y03708*
X02635Y03713*
G37*
G36*
X02605D02*
X02585D01*
X02586Y03708*
X02591Y03699*
X026Y03694*
X02605Y03693*
Y03713*
G37*
G36*
X03008Y03667D02*
X03003Y03666D01*
X02994Y0366*
X02989Y03651*
X02988Y03647*
X03008*
Y03667*
G37*
G36*
X02605Y03743D02*
X026Y03742D01*
X02591Y03736*
X02586Y03728*
X02585Y03723*
X02605*
Y03743*
G37*
G36*
X02531Y03839D02*
X02511D01*
X02512Y03834*
X02517Y03825*
X02526Y0382*
X02531Y03819*
Y03839*
G37*
G36*
X02915Y03754D02*
X02914D01*
X02909Y03753*
X02905Y0375*
X02902Y03746*
X02901Y03742*
Y0374*
X02902Y03735*
X02905Y03731*
X02909Y03728*
X02914Y03727*
X02918Y03728*
X02922Y03731*
X02925Y03735*
X02925Y03736*
X02926Y03737*
X02927Y03742*
X02926Y03746*
X02923Y0375*
X02919Y03753*
X02915Y03754*
G37*
G36*
X02615Y03743D02*
Y03723D01*
X02635*
X02634Y03728*
X02628Y03736*
X0262Y03742*
X02615Y03743*
G37*
G36*
X02815Y03624D02*
X02795D01*
X02796Y03619*
X02801Y0361*
X0281Y03605*
X02815Y03604*
Y03624*
G37*
G36*
X0283Y03571D02*
Y03525D01*
X02876*
X02875Y03533*
X02869Y03545*
X02861Y03556*
X0285Y03564*
X02838Y0357*
X0283Y03571*
G37*
G36*
X0282D02*
X02811Y0357D01*
X02799Y03564*
X02788Y03556*
X0278Y03545*
X02775Y03533*
X02773Y03525*
X0282*
Y03571*
G37*
G36*
X02845Y03624D02*
X02825D01*
Y03604*
X0283Y03605*
X02838Y0361*
X02844Y03619*
X02845Y03624*
G37*
G36*
X02825Y03654D02*
Y03634D01*
X02845*
X02844Y03639*
X02838Y03647*
X0283Y03653*
X02825Y03654*
G37*
G36*
X02815D02*
X0281Y03653D01*
X02801Y03647*
X02796Y03639*
X02795Y03634*
X02815*
Y03654*
G37*
G36*
X03008Y03637D02*
X02988D01*
X02989Y03632*
X02994Y03623*
X03003Y03618*
X03008Y03617*
Y03637*
G37*
G36*
X03421Y04596D02*
X03416Y04595D01*
X03407Y04589*
X03402Y0458*
X03401Y04576*
X03421*
Y04596*
G37*
G36*
X02904Y05008D02*
Y04988D01*
X02924*
X02923Y04992*
X02917Y05001*
X02909Y05007*
X02904Y05008*
G37*
G36*
X02894D02*
X02889Y05007D01*
X0288Y05001*
X02875Y04992*
X02874Y04988*
X02894*
Y05008*
G37*
G36*
X03069Y04997D02*
X03049D01*
Y04977*
X03054Y04978*
X03063Y04983*
X03068Y04992*
X03069Y04997*
G37*
G36*
X03302Y05019D02*
X03297Y05018D01*
X03288Y05012*
X03283Y05004*
X03282Y04999*
X03302*
Y05019*
G37*
G36*
X03214Y05021D02*
Y05001D01*
X03234*
X03233Y05005*
X03227Y05014*
X03219Y0502*
X03214Y05021*
G37*
G36*
X03204D02*
X03199Y0502D01*
X0319Y05014*
X03185Y05005*
X03184Y05001*
X03204*
Y05021*
G37*
G36*
X03312Y05019D02*
Y04999D01*
X03332*
X03331Y05004*
X03325Y05012*
X03317Y05018*
X03312Y05019*
G37*
G36*
X02894Y04978D02*
X02874D01*
X02875Y04973*
X0288Y04964*
X02889Y04959*
X02894Y04958*
Y04978*
G37*
G36*
X02989Y04939D02*
Y04919D01*
X03009*
X03008Y04924*
X03002Y04932*
X02993Y04938*
X02989Y04939*
G37*
G36*
X02979D02*
X02974Y04938D01*
X02965Y04932*
X0296Y04924*
X02959Y04919*
X02979*
Y04939*
G37*
G36*
X02924Y04978D02*
X02904D01*
Y04958*
X02909Y04959*
X02917Y04964*
X02923Y04973*
X02924Y04978*
G37*
G36*
X03039Y04997D02*
X03019D01*
X0302Y04992*
X03026Y04983*
X03034Y04978*
X03039Y04977*
Y04997*
G37*
G36*
X03234Y04991D02*
X03214D01*
Y04971*
X03219Y04972*
X03227Y04977*
X03233Y04986*
X03234Y04991*
G37*
G36*
X03204D02*
X03184D01*
X03185Y04986*
X0319Y04977*
X03199Y04972*
X03204Y04971*
Y04991*
G37*
G36*
X0316Y05239D02*
Y05219D01*
X0318*
X03179Y05223*
X03173Y05232*
X03164Y05238*
X0316Y05239*
G37*
G36*
X0315D02*
X03145Y05238D01*
X03136Y05232*
X03131Y05223*
X0313Y05219*
X0315*
Y05239*
G37*
G36*
X0318Y05209D02*
X0316D01*
Y05189*
X03164Y0519*
X03173Y05195*
X03179Y05204*
X0318Y05209*
G37*
G36*
X03423Y05302D02*
X03403D01*
X03404Y05297*
X03409Y05288*
X03418Y05283*
X03423Y05282*
Y05302*
G37*
G36*
X03433Y05332D02*
Y05312D01*
X03453*
X03452Y05316*
X03446Y05325*
X03437Y05331*
X03433Y05332*
G37*
G36*
X03423D02*
X03418Y05331D01*
X03409Y05325*
X03404Y05316*
X03403Y05312*
X03423*
Y05332*
G37*
G36*
X03453Y05302D02*
X03433D01*
Y05282*
X03437Y05283*
X03446Y05288*
X03452Y05297*
X03453Y05302*
G37*
G36*
X03414Y0503D02*
X03394D01*
X03395Y05025*
X034Y05016*
X03409Y05011*
X03414Y0501*
Y0503*
G37*
G36*
X03049Y05027D02*
Y05007D01*
X03069*
X03068Y05012*
X03063Y0502*
X03054Y05026*
X03049Y05027*
G37*
G36*
X03039D02*
X03034Y05026D01*
X03026Y0502*
X0302Y05012*
X03019Y05007*
X03039*
Y05027*
G37*
G36*
X03444Y0503D02*
X03424D01*
Y0501*
X03429Y05011*
X03437Y05016*
X03443Y05025*
X03444Y0503*
G37*
G36*
X0315Y05209D02*
X0313D01*
X03131Y05204*
X03136Y05195*
X03145Y0519*
X0315Y05189*
Y05209*
G37*
G36*
X03424Y0506D02*
Y0504D01*
X03444*
X03443Y05045*
X03437Y05053*
X03429Y05059*
X03424Y0506*
G37*
G36*
X03414D02*
X03409Y05059D01*
X034Y05053*
X03395Y05045*
X03394Y0504*
X03414*
Y0506*
G37*
G36*
X03091Y04691D02*
X03071D01*
X03072Y04686*
X03077Y04677*
X03086Y04672*
X03091Y04671*
Y04691*
G37*
G36*
X04938Y04641D02*
Y04621D01*
X04958*
X04957Y04625*
X04951Y04634*
X04942Y0464*
X04938Y04641*
G37*
G36*
X04928D02*
X04923Y0464D01*
X04914Y04634*
X04909Y04625*
X04908Y04621*
X04928*
Y04641*
G37*
G36*
X03121Y04691D02*
X03101D01*
Y04671*
X03106Y04672*
X03114Y04677*
X0312Y04686*
X03121Y04691*
G37*
G36*
X03412Y04731D02*
X03392D01*
X03393Y04726*
X03398Y04717*
X03407Y04712*
X03412Y04711*
Y04731*
G37*
G36*
X03101Y04721D02*
Y04701D01*
X03121*
X0312Y04705*
X03114Y04714*
X03106Y0472*
X03101Y04721*
G37*
G36*
X03091D02*
X03086Y0472D01*
X03077Y04714*
X03072Y04705*
X03071Y04701*
X03091*
Y04721*
G37*
G36*
X03094Y04601D02*
Y04581D01*
X03114*
X03113Y04585*
X03107Y04594*
X03098Y046*
X03094Y04601*
G37*
G36*
X03084D02*
X03079Y046D01*
X0307Y04594*
X03065Y04585*
X03064Y04581*
X03084*
Y04601*
G37*
G36*
X03431Y04596D02*
Y04576D01*
X03451*
X0345Y0458*
X03444Y04589*
X03436Y04595*
X03431Y04596*
G37*
G36*
X03228Y04604D02*
X03223Y04603D01*
X03214Y04597*
X03209Y04589*
X03208Y04584*
X03228*
Y04604*
G37*
G36*
X04958Y04611D02*
X04938D01*
Y04591*
X04942Y04592*
X04951Y04597*
X04957Y04606*
X04958Y04611*
G37*
G36*
X04928D02*
X04908D01*
X04909Y04606*
X04914Y04597*
X04923Y04592*
X04928Y04591*
Y04611*
G37*
G36*
X03238Y04604D02*
Y04584D01*
X03258*
X03257Y04589*
X03251Y04597*
X03242Y04603*
X03238Y04604*
G37*
G36*
X04977Y04858D02*
X04972Y04857D01*
X04963Y04851*
X04958Y04842*
X04957Y04838*
X04977*
Y04858*
G37*
G36*
X05007Y04828D02*
X04987D01*
Y04808*
X04992Y04809*
X05Y04814*
X05006Y04823*
X05007Y04828*
G37*
G36*
X04977D02*
X04957D01*
X04958Y04823*
X04963Y04814*
X04972Y04809*
X04977Y04808*
Y04828*
G37*
G36*
X04987Y04858D02*
Y04838D01*
X05007*
X05006Y04842*
X05Y04851*
X04992Y04857*
X04987Y04858*
G37*
G36*
X03009Y04909D02*
X02989D01*
Y04889*
X02993Y0489*
X03002Y04895*
X03008Y04904*
X03009Y04909*
G37*
G36*
X03296Y04899D02*
Y04879D01*
X03316*
X03315Y04884*
X03309Y04892*
X03301Y04898*
X03296Y04899*
G37*
G36*
X03286D02*
X03281Y04898D01*
X03272Y04892*
X03267Y04884*
X03266Y04879*
X03286*
Y04899*
G37*
G36*
X03412Y04761D02*
X03407Y0476D01*
X03398Y04754*
X03393Y04746*
X03392Y04741*
X03412*
Y04761*
G37*
G36*
X04851Y04733D02*
X04831D01*
Y04713*
X04836Y04714*
X04845Y04719*
X0485Y04728*
X04851Y04733*
G37*
G36*
X03442Y04731D02*
X03422D01*
Y04711*
X03426Y04712*
X03435Y04717*
X03441Y04726*
X03442Y04731*
G37*
G36*
X03422Y04761D02*
Y04741D01*
X03442*
X03441Y04746*
X03435Y04754*
X03426Y0476*
X03422Y04761*
G37*
G36*
X03313Y04804D02*
X03293D01*
Y04784*
X03298Y04785*
X03306Y0479*
X03312Y04799*
X03313Y04804*
G37*
G36*
X03283D02*
X03263D01*
X03264Y04799*
X03269Y0479*
X03278Y04785*
X03283Y04784*
Y04804*
G37*
G36*
X04831Y04763D02*
Y04743D01*
X04851*
X0485Y04748*
X04845Y04756*
X04836Y04762*
X04831Y04763*
G37*
%LNronecpuboard-v10-3*%
%LPD*%
G54D10*
X04176Y03127D02*
D01*
X04175Y0314*
X04174Y03154*
X04171Y03168*
X04168Y03182*
X04163Y03195*
X04158Y03208*
X04152Y0322*
X04145Y03232*
X04137Y03244*
X04129Y03255*
X04119Y03265*
X04109Y03275*
X04099Y03284*
X04087Y03292*
X04076Y033*
X04063Y03306*
X0405Y03312*
X04037Y03317*
X04024Y03321*
X0401Y03323*
X03996Y03325*
X03982Y03326*
X03969*
X03955Y03325*
X03941Y03323*
X03927Y03321*
X03914Y03317*
X03901Y03312*
X03888Y03306*
X03876Y033*
X03864Y03292*
X03852Y03284*
X03842Y03275*
X03832Y03265*
X03822Y03255*
X03814Y03244*
X03806Y03232*
X03799Y0322*
X03793Y03208*
X03788Y03195*
X03783Y03182*
X0378Y03168*
X03777Y03154*
X03776Y0314*
X03776Y03127*
X03776Y03113*
X03777Y03099*
X0378Y03085*
X03783Y03071*
X03788Y03058*
X03793Y03045*
X03799Y03033*
X03806Y03021*
X03814Y03009*
X03822Y02998*
X03832Y02988*
X03842Y02978*
X03852Y02969*
X03864Y02961*
X03876Y02953*
X03888Y02947*
X03901Y02941*
X03914Y02936*
X03927Y02932*
X03941Y0293*
X03955Y02928*
X03969Y02927*
X03982*
X03996Y02928*
X0401Y0293*
X04024Y02932*
X04037Y02936*
X0405Y02941*
X04063Y02947*
X04076Y02953*
X04087Y02961*
X04099Y02969*
X04109Y02978*
X04119Y02988*
X04129Y02998*
X04137Y03009*
X04145Y03021*
X04152Y03033*
X04158Y03045*
X04163Y03058*
X04168Y03071*
X04171Y03085*
X04174Y03099*
X04175Y03113*
X04176Y03127*
X03452Y03124D02*
D01*
X03451Y03137*
X0345Y03151*
X03447Y03165*
X03444Y03179*
X03439Y03192*
X03434Y03205*
X03428Y03217*
X03421Y03229*
X03413Y03241*
X03405Y03252*
X03395Y03262*
X03385Y03272*
X03375Y03281*
X03363Y03289*
X03352Y03297*
X03339Y03303*
X03326Y03309*
X03313Y03314*
X033Y03318*
X03286Y0332*
X03272Y03322*
X03258Y03323*
X03245*
X03231Y03322*
X03217Y0332*
X03203Y03318*
X0319Y03314*
X03177Y03309*
X03164Y03303*
X03151Y03297*
X0314Y03289*
X03128Y03281*
X03118Y03272*
X03108Y03262*
X03098Y03252*
X0309Y03241*
X03082Y03229*
X03075Y03217*
X03069Y03205*
X03064Y03192*
X03059Y03179*
X03056Y03165*
X03053Y03151*
X03052Y03137*
X03052Y03124*
X03052Y0311*
X03053Y03096*
X03056Y03082*
X03059Y03068*
X03064Y03055*
X03069Y03042*
X03075Y0303*
X03082Y03018*
X0309Y03006*
X03098Y02995*
X03108Y02985*
X03118Y02975*
X03128Y02966*
X0314Y02958*
X03152Y0295*
X03164Y02944*
X03177Y02938*
X0319Y02933*
X03203Y02929*
X03217Y02927*
X03231Y02925*
X03245Y02924*
X03258*
X03272Y02925*
X03286Y02927*
X033Y02929*
X03313Y02933*
X03326Y02938*
X03339Y02944*
X03352Y0295*
X03363Y02958*
X03375Y02966*
X03385Y02975*
X03395Y02985*
X03405Y02995*
X03413Y03006*
X03421Y03018*
X03428Y0303*
X03434Y03042*
X03439Y03055*
X03444Y03068*
X03447Y03082*
X0345Y03096*
X03451Y0311*
X03452Y03124*
X04952D02*
D01*
X04951Y03137*
X0495Y03151*
X04947Y03165*
X04944Y03179*
X04939Y03192*
X04934Y03205*
X04928Y03217*
X04921Y03229*
X04913Y03241*
X04905Y03252*
X04895Y03262*
X04885Y03272*
X04875Y03281*
X04863Y03289*
X04852Y03297*
X04839Y03303*
X04826Y03309*
X04813Y03314*
X048Y03318*
X04786Y0332*
X04772Y03322*
X04758Y03323*
X04745*
X04731Y03322*
X04717Y0332*
X04703Y03318*
X0469Y03314*
X04677Y03309*
X04664Y03303*
X04652Y03297*
X0464Y03289*
X04628Y03281*
X04618Y03272*
X04608Y03262*
X04598Y03252*
X0459Y03241*
X04582Y03229*
X04575Y03217*
X04569Y03205*
X04564Y03192*
X04559Y03179*
X04556Y03165*
X04553Y03151*
X04552Y03137*
X04552Y03124*
X04552Y0311*
X04553Y03096*
X04556Y03082*
X04559Y03068*
X04564Y03055*
X04569Y03042*
X04575Y0303*
X04582Y03018*
X0459Y03006*
X04598Y02995*
X04608Y02985*
X04618Y02975*
X04628Y02966*
X0464Y02958*
X04652Y0295*
X04664Y02944*
X04677Y02938*
X0469Y02933*
X04703Y02929*
X04717Y02927*
X04731Y02925*
X04745Y02924*
X04758*
X04772Y02925*
X04786Y02927*
X048Y02929*
X04813Y02933*
X04826Y02938*
X04839Y02944*
X04852Y0295*
X04863Y02958*
X04875Y02966*
X04885Y02975*
X04895Y02985*
X04905Y02995*
X04913Y03006*
X04921Y03018*
X04928Y0303*
X04934Y03042*
X04939Y03055*
X04944Y03068*
X04947Y03082*
X0495Y03096*
X04951Y0311*
X04952Y03124*
D01*
X04951Y03137*
X0495Y03151*
X04947Y03165*
X04944Y03179*
X04939Y03192*
X04934Y03205*
X04928Y03217*
X04921Y03229*
X04913Y03241*
X04905Y03252*
X04895Y03262*
X04885Y03272*
X04875Y03281*
X04863Y03289*
X04852Y03297*
X04839Y03303*
X04826Y03309*
X04813Y03314*
X048Y03318*
X04786Y0332*
X04772Y03322*
X04758Y03323*
X04745*
X04731Y03322*
X04717Y0332*
X04703Y03318*
X0469Y03314*
X04677Y03309*
X04664Y03303*
X04652Y03297*
X0464Y03289*
X04628Y03281*
X04618Y03272*
X04608Y03262*
X04598Y03252*
X0459Y03241*
X04582Y03229*
X04575Y03217*
X04569Y03205*
X04564Y03192*
X04559Y03179*
X04556Y03165*
X04553Y03151*
X04552Y03137*
X04552Y03124*
X0296Y0283D02*
X02989Y02801D01*
X03282*
X03347Y02735*
X04572Y02351D02*
X04614D01*
X03815Y02307D02*
X03826D01*
X03545Y02369D02*
X03558Y02431D01*
X03759Y0239*
X03746Y02328D02*
X03759Y0239D01*
X05872Y03754D02*
Y03949D01*
X05862Y03744D02*
X05872Y03754D01*
X05718Y03744D02*
X05862D01*
X0573Y03949D02*
X05872D01*
X05609Y0407D02*
X0573Y03949D01*
X05713Y03739D02*
X05718Y03744D01*
X05617Y03739D02*
X05713D01*
X05675Y04343D02*
Y04447D01*
X05656Y04324D02*
X05675Y04343D01*
X05656Y0427D02*
Y04324D01*
X05632Y04522D02*
X05698Y04456D01*
X05623Y04499D02*
X05675Y04447D01*
X05698Y04422D02*
X05776Y04345D01*
X05698Y04422D02*
Y04456D01*
X05598Y04522D02*
X05632D01*
X05576Y04545D02*
X05598Y04522D01*
X05578Y04499D02*
X05623D01*
X05503Y04575D02*
X05578Y04499D01*
X05776Y04191D02*
Y04345D01*
X05515Y0427D02*
X05702D01*
X04301Y05625D02*
Y05628D01*
X04772Y05057D02*
X0494D01*
X04744Y05085D02*
X04772Y05057D01*
X03434Y02791D02*
X04865D01*
X04444Y05085D02*
X04744D01*
X04201Y05328D02*
X04444Y05085D01*
X04201Y05328D02*
Y05423D01*
X04829Y0509D02*
Y05421D01*
X0477Y0548D02*
X04829Y05421D01*
X03948Y05002D02*
X04255D01*
X03932Y05019D02*
X03948Y05002D01*
X03797Y05019D02*
X03932D01*
X05446Y03099D02*
Y03119D01*
X05569Y03242*
X05518Y03295D02*
X05571Y03242D01*
X05518Y03295D02*
Y03372D01*
X05661Y03515*
X04668Y02329D02*
Y0239D01*
X04901Y02827D02*
X05026D01*
X04865Y02791D02*
X04901Y02827D01*
X03523Y02341D02*
X0353Y02348D01*
Y02239D02*
Y02348D01*
X03746Y02307D02*
Y02323D01*
X03746Y02322D02*
X03746Y02323D01*
X03715Y02329D02*
X03744Y02323D01*
X03815Y02206D02*
Y02307D01*
X03746D02*
X03815D01*
X03601Y02284D02*
X03613Y02296D01*
X03623Y02346*
X03804Y02195D02*
X03815Y02206D01*
X03522Y0225D02*
X03523D01*
X03804Y02195D02*
X03805D01*
X03452Y03174D02*
X03776D01*
X04172D02*
X04552D01*
X05355Y0442D02*
Y04667D01*
X05661Y03515D02*
Y03739D01*
X03342Y04818D02*
Y0487D01*
X03575Y04036D02*
X03801D01*
X05576Y04545D02*
Y04632D01*
X05503Y04575D02*
Y04741D01*
X05515Y0407D02*
X05609D01*
X03547Y05016D02*
X03701D01*
X03673Y03969D02*
X03853D01*
X04629Y0231D02*
Y02336D01*
X04614Y02351D02*
X04629Y02336D01*
X05611Y03309D02*
Y03333D01*
Y03309D02*
X05639Y03281D01*
X05646*
X05576Y04632D02*
X05608Y04664D01*
X0353Y02239D02*
X03533Y02235D01*
X04649Y0229D02*
X0472D01*
X04629Y0231D02*
X04649Y0229D01*
X0472D02*
X04737Y02307D01*
X04815*
X05446Y03099D02*
X05448Y03097D01*
Y03087D02*
Y03097D01*
X04943Y05057D02*
X05179D01*
X05181D02*
X05231D01*
G54D11*
X054Y03145D03*
X03185Y05515D03*
X04845Y02505D03*
X04435Y04565D03*
X03745Y0587D03*
X0437Y044D03*
X0417Y02185D03*
X057Y0427D03*
X0549Y05085D03*
X0366Y04625D03*
X0395Y04445D03*
X05305Y03035D03*
X0544Y02875D03*
X05215Y02565D03*
X05195Y0309D03*
G54D12*
X0385Y04029D03*
Y0397D03*
X02225Y03945D03*
Y04004D03*
X058Y04045D03*
Y04104D03*
G54D13*
X04647Y02511D03*
X04592Y02488D03*
G54D14*
X03759Y02459D03*
X03771Y0252D03*
X03541Y02565D03*
X03529Y02504D03*
X03676Y02535D03*
X03664Y02474D03*
G54D15*
X03905Y04146D03*
Y04043D03*
X03964D03*
Y04146D03*
X03965Y03853D03*
Y03956D03*
X03905D03*
Y03853D03*
X04035Y04146D03*
Y04043D03*
X04094D03*
Y04146D03*
X04095Y03853D03*
Y03956D03*
X04035D03*
Y03853D03*
G54D16*
X04316Y02404D03*
X04374Y02415D03*
G54D17*
X02811Y04141D03*
Y04185D03*
Y04271D03*
Y04228D03*
Y04358D03*
Y04314D03*
Y04444D03*
Y04401D03*
G54D18*
X0291Y04052D03*
Y04587D03*
X02579D03*
Y04052D03*
G54D19*
X03999Y0287D03*
X0394D03*
X03884Y0587D03*
X03825D03*
X0405Y02195D03*
X04109D03*
X03279Y02865D03*
X0322D03*
X04779Y0287D03*
X0472D03*
X04781Y02984D03*
X04722D03*
X04006Y02989D03*
X03947D03*
X03212Y02979D03*
X03271D03*
G54D20*
X04223Y03078D03*
X04204Y03021D03*
X03499Y03075D03*
X0348Y03018D03*
X04999Y03073D03*
X0498Y03016D03*
G54D21*
X04099Y03346D03*
X04146Y03311D03*
X03375Y03343D03*
X03422Y03308D03*
X04875Y03343D03*
X04922Y03308D03*
G54D22*
X03805Y03311D03*
X03852Y03346D03*
X03081Y03308D03*
X03128Y03343D03*
X04581Y03308D03*
X04628Y03343D03*
G54D23*
X03747Y03021D03*
X03728Y03078D03*
X03029Y02996D03*
X0301Y03053D03*
X04523Y03018D03*
X04504Y03075D03*
G54D24*
X04066Y03207D03*
Y03047D03*
X03886Y03207D03*
Y03047D03*
X04842Y03204D03*
Y03044D03*
X04662Y03204D03*
Y03044D03*
X03342Y03204D03*
Y03044D03*
X03162Y03204D03*
Y03044D03*
G54D25*
X02685Y05255D03*
X02644Y05214D03*
X02764Y02589D03*
X02805Y0263D03*
X05245Y053D03*
X05204Y05259D03*
G54D26*
X05249Y03436D03*
X0527Y03482D03*
X05291Y03528D03*
X05228Y03391D03*
X05206Y03345D03*
X0533Y03287D03*
X05351Y03333D03*
X05415Y0347D03*
X05394Y03424D03*
X05372Y03379D03*
G54D27*
X05315Y02754D03*
X05274Y02795D03*
G54D28*
X04335Y02333D03*
X0449Y02371D03*
X04379Y02158D03*
X04534Y02197D03*
G54D29*
X05355Y0407D03*
X05515Y0412D03*
X05355D03*
Y0417D03*
X05515D03*
Y0422D03*
X05355D03*
Y0427D03*
X05515D03*
X05355Y0432D03*
X05515D03*
Y0437D03*
X05355D03*
Y0442D03*
X05515D03*
Y0407D03*
G54D30*
X02342Y04763D03*
X02327Y04726D03*
X05632Y03241D03*
X05647Y03278D03*
G54D31*
X0569Y04625D03*
Y04664D03*
G54D32*
X04764Y0565D03*
X04725D03*
G54D33*
X03373Y05687D03*
X03336Y05672D03*
X04631Y02307D03*
X04668Y02322D03*
G54D34*
X02302Y03368D03*
X02317Y03331D03*
G54D35*
X03241Y02347D03*
X03278Y02332D03*
G54D36*
X04508Y02458D03*
X04451Y02441D03*
G54D37*
X03623Y02351D03*
X03654Y02346D03*
X03685Y0234D03*
X03715Y02334D03*
X03746Y02328D03*
G54D38*
X05319Y05138D02*
X0538Y05199D01*
X0528Y05138D02*
X05319D01*
X04476Y03312D02*
X04477D01*
X04191D02*
X04476D01*
X04666Y0253D02*
X04704D01*
X04647Y02511D02*
X04666Y0253D01*
X03627Y02253D02*
X03636Y02259D01*
X04568Y04937D02*
Y04938D01*
Y04937D02*
X04586Y04932D01*
X04692*
X04048Y04846D02*
X04061Y04859D01*
X04091*
X04097Y04853D02*
X04363D01*
X04091Y04859D02*
X04097Y04853D01*
X04363D02*
X04363Y04852D01*
X04323Y04836D02*
X04407Y04752D01*
X04145Y04836D02*
X04323D01*
X04139Y0483D02*
X04145Y04836D01*
X0408Y0483D02*
X04139D01*
X052Y05139D02*
Y05257D01*
Y05139D02*
X05268Y05071D01*
Y05035D02*
Y05071D01*
X05248Y05015D02*
X05268Y05035D01*
X04759Y04739D02*
X04772Y04726D01*
Y04691D02*
Y04726D01*
Y04691D02*
X04966Y04497D01*
X03905Y04646D02*
X03928Y04669D01*
X02654Y04623D02*
X02662Y04631D01*
X04361Y02751D02*
X04385Y02728D01*
X03933Y02719D02*
X03965Y02751D01*
X04361*
X03857Y02768D02*
X0468D01*
X03808Y02719D02*
X03857Y02768D01*
X0468D02*
X04705Y02743D01*
X04569Y03554D02*
X04575D01*
X04461Y03662D02*
X04569Y03554D01*
X04278Y03662D02*
X04461D01*
X04808Y03649D02*
X05081D01*
X03431Y05427D02*
X03657D01*
X04343Y03776D02*
X04421Y03699D01*
X04859Y0365D02*
Y03654D01*
X0486Y03655*
X05214Y02569D02*
X05218Y02597D01*
X02661Y02732D02*
X0274D01*
X02644Y02714D02*
X02661Y02732D01*
X02807Y02629D02*
X03069D01*
X05096Y03915D02*
X05228D01*
X05005Y04006D02*
X05096Y03915D01*
X04511Y04006D02*
X05005D01*
X05082Y04103D02*
Y04443D01*
X05002Y04023D02*
X05082Y04103D01*
X04481Y04023D02*
X05002D01*
X05265Y03878D02*
X05374D01*
X05228Y03915D02*
X05265Y03878D01*
X05374D02*
X05382Y0387D01*
X04847Y03371D02*
X04875Y03343D01*
X04641Y03371D02*
X04847D01*
X04585Y03427D02*
X04641Y03371D01*
X04648Y03387D02*
X04889D01*
X04592Y03443D02*
X04648Y03387D01*
X04889D02*
X04972Y03304D01*
X04671Y03507D02*
X04761D01*
X0466Y03518D02*
X04671Y03507D01*
X04664Y03491D02*
X04768D01*
X04653Y03502D02*
X04664Y03491D01*
X04588Y03502D02*
X04653D01*
X04647Y03486D02*
X04721Y03412D01*
X04595Y03486D02*
X04647D01*
X04581Y03518D02*
X0466D01*
X04577Y03491D02*
X04588Y03502D01*
X04584Y03475D02*
X04595Y03486D01*
X04571Y03507D02*
X04581Y03518D01*
X04465Y03507D02*
X04571D01*
X04449Y03491D02*
X04577D01*
X04442Y03475D02*
X04584D01*
X05188Y0321D02*
X0528D01*
X05128Y0327D02*
X05188Y0321D01*
X05128Y0327D02*
Y03457D01*
X0521Y03539*
X04896Y03563D02*
X05003D01*
X04866Y03593D02*
X04896Y03563D01*
X03891Y02448D02*
X04055D01*
Y0235D02*
Y02445D01*
X04586Y05036D02*
X04623Y04999D01*
X04593Y04387D02*
Y04421D01*
X04881Y04374D02*
X04895D01*
X04551Y02673D02*
Y02675D01*
Y02563D02*
Y02673D01*
X04434Y02236D02*
Y02271D01*
Y02236D02*
X04486Y02184D01*
X04469Y02288D02*
X04511D01*
X04376Y02381D02*
X04469Y02288D01*
X04376Y02381D02*
Y02414D01*
X04335Y02333D02*
X04351Y02275D01*
X04374Y02415D02*
X04395D01*
X04511Y02288D02*
X04574Y0235D01*
X04184Y02467D02*
Y026D01*
X0411Y02393D02*
X04184Y02467D01*
X0411Y02195D02*
Y02393D01*
X0414Y02195D02*
X04151Y02184D01*
X0411Y02195D02*
X0414D01*
X04109D02*
X0411D01*
X04275Y02267D02*
Y02405D01*
X04214Y02466D02*
X04275Y02405D01*
X04184Y02702D02*
X04204Y02722D01*
X04184Y026D02*
Y02702D01*
Y026D02*
X04184Y026D01*
X04204Y02722D02*
X04248D01*
X04486Y02184D02*
X04534Y02196D01*
X03825Y02314D02*
Y02382D01*
X03891Y02448*
X03488Y02418D02*
X03543Y02362D01*
X03331Y0239D02*
X03359Y02418D01*
X04779Y0283D02*
Y0287D01*
X03184Y03113D02*
X03298D01*
X05119Y03122D02*
X05163D01*
X05195Y0309*
X05365Y02953D02*
X05446Y02872D01*
X05365Y02953D02*
X05383Y02971D01*
X05515Y0417D02*
X0568D01*
X05304Y02961D02*
Y03041D01*
X0533Y02987D02*
X05416D01*
X058Y04104D02*
Y04142D01*
Y04103D02*
Y04104D01*
X05477Y03799D02*
X05489Y03787D01*
X05639Y03797D02*
X05807D01*
X05639D02*
Y03801D01*
X05279Y0437D02*
X05355D01*
X0524Y0432D02*
X05355D01*
X05226Y04334D02*
X0524Y0432D01*
X05226Y04334D02*
Y04442D01*
X05194Y043D02*
Y04455D01*
X05274Y0422D02*
X05355D01*
X05194Y043D02*
X05274Y0422D01*
X05178Y04289D02*
X05297Y0417D01*
X05178Y04289D02*
Y04461D01*
X05247Y0427D02*
X05355D01*
X0521Y04307D02*
X05247Y0427D01*
X0521Y04307D02*
Y04448D01*
X05162Y04244D02*
Y04468D01*
Y04244D02*
X05286Y0412D01*
X05146Y04333D02*
Y04475D01*
X05178Y04461D02*
X05277Y04561D01*
X05194Y04455D02*
X05293Y04554D01*
X0521Y04448D02*
X05309Y04548D01*
X05162Y04491D02*
Y047D01*
X05146Y04475D02*
X05162Y04491D01*
X05178Y04484D02*
Y04693D01*
X05162Y04468D02*
X05178Y04484D01*
X05226Y04442D02*
X05325Y04541D01*
X05178Y04693D02*
X0518Y04695D01*
X05162Y047D02*
X05164Y04702D01*
X04514Y04843D02*
X04516Y04845D01*
X04489Y04865D02*
X04512Y04842D01*
X02766Y04185D02*
X02883D01*
X05277Y04561D02*
Y04701D01*
X05293Y04554D02*
Y04694D01*
X05309Y04548D02*
Y04688D01*
X05325Y04541D02*
Y04681D01*
X05194Y04572D02*
X0521Y04556D01*
X05164Y04702D02*
Y04805D01*
X0518Y04695D02*
Y04696D01*
X05194Y04687D02*
X05257Y0475D01*
X05194Y04572D02*
Y04687D01*
X05212Y04681D02*
X05254Y04724D01*
X05212Y04618D02*
Y04681D01*
Y04618D02*
X05242Y04588D01*
X0526Y0405D02*
X05305Y04005D01*
X05506*
X05601Y0391*
Y03823D02*
Y0391D01*
X05321Y03973D02*
X05339Y03954D01*
X05272Y03973D02*
X05321D01*
X05211Y04034D02*
X05272Y03973D01*
X05115Y04153D02*
X05279Y03989D01*
X05339Y03954D02*
X05345D01*
X05205Y0399D02*
X05261Y03934D01*
X05608Y04003D02*
X05617Y03995D01*
X04919Y03491D02*
X05062Y03349D01*
X0422Y04876D02*
X04233Y04889D01*
X03645Y04876D02*
X0422D01*
X05569Y04003D02*
X05608D01*
X05279Y03989D02*
X0549D01*
X05565Y03914*
Y0389D02*
Y03914D01*
X05515Y0437D02*
X05591D01*
X05656Y04352D02*
Y04439D01*
X05624Y0432D02*
X05656Y04352D01*
X05515Y0432D02*
X05624D01*
X05615Y0448D02*
X05656Y04439D01*
X05478Y0448D02*
X05615D01*
X05288Y03734D02*
X05323Y03699D01*
X05476D02*
X05601Y03823D01*
X05323Y03699D02*
X05476D01*
X05205Y03734D02*
X05246D01*
X05156Y03783D02*
X05205Y03734D01*
X05038Y03395D02*
X05059D01*
X04926Y03507D02*
X05038Y03395D01*
X05068Y03447D02*
X05079D01*
X04994Y03521D02*
X05068Y03447D01*
X04762Y03507D02*
X04926D01*
X04359Y03614D02*
X04465Y03507D01*
X04768Y03491D02*
X04919D01*
X04086Y03469D02*
X04425D01*
X04768Y03491D02*
X04768Y03491D01*
X04455Y03395D02*
X04524Y03326D01*
X04409Y03395D02*
X04455D01*
X04399Y03404D02*
X04409Y03395D01*
X04059Y03404D02*
X04399D01*
X04479Y03411D02*
X04522Y03368D01*
X04415Y03411D02*
X04479D01*
X04406Y0342D02*
X04415Y03411D01*
X04066Y0342D02*
X04406D01*
X04422Y03427D02*
X04585D01*
X04413Y03436D02*
X04422Y03427D01*
X04072Y03436D02*
X04413D01*
X04429Y03443D02*
X04592D01*
X04419Y03452D02*
X04429Y03443D01*
X04079Y03452D02*
X04419D01*
X04623Y03459D02*
X04625Y03457D01*
X04435Y03459D02*
X04623D01*
X04425Y03469D02*
X04435Y03459D01*
X04432Y03485D02*
X04442Y03475D01*
X04333Y03485D02*
X04432D01*
X0435Y0359D02*
X04449Y03491D01*
X04256Y0359D02*
X0435D01*
X04164Y03682D02*
X04256Y0359D01*
X03424Y03682D02*
X04164D01*
X04806Y04981D02*
X0508D01*
X04813Y04965D02*
X05073D01*
X0482Y04949D02*
X05067D01*
X04826Y04933D02*
X0506D01*
X04833Y04917D02*
X05054D01*
X04554Y04887D02*
X04712D01*
X04806Y04981*
X04719Y04871D02*
X04813Y04965D01*
X04584Y04871D02*
X04719D01*
X04726Y04855D02*
X0482Y04949D01*
X04591Y04855D02*
X04726D01*
X04732Y04839D02*
X04826Y04933D01*
X04597Y04839D02*
X04732D01*
X04739Y04823D02*
X04833Y04917D01*
X04604Y04823D02*
X04739D01*
X0484Y04901D02*
X05044D01*
X04746Y04807D02*
X0484Y04901D01*
X04611Y04807D02*
X04746D01*
X0454Y04736D02*
X04611Y04807D01*
X04551Y04815D02*
X04591Y04855D01*
X0454Y04782D02*
X04597Y04839D01*
X04533Y04752D02*
X04604Y04823D01*
X04706Y04903D02*
X04801Y04998D01*
X04836*
X04838Y04997*
X04795Y05014D02*
X04843D01*
X04779Y04999D02*
X04795Y05014D01*
X0476Y04999D02*
X04779D01*
X04585Y04903D02*
X04706D01*
X04558Y04845D02*
X04584Y04871D01*
X05097Y0503D02*
X05099Y05029D01*
X04723Y0502D02*
X04733Y0503D01*
X05097*
X04844Y05013D02*
X05093D01*
X04843Y05014D02*
X04844Y05013D01*
X04692Y04932D02*
Y04933D01*
X04838Y04997D02*
X05087D01*
X02547Y04319D02*
X02552Y04314D01*
X02662Y04838D02*
Y0484D01*
Y04631D02*
Y04838D01*
X02552Y04314D02*
X02815D01*
X02763Y04228D02*
X02815D01*
X02687Y04272D02*
X02809D01*
X02686Y04271D02*
X02687Y04272D01*
X02686Y04152D02*
Y04271D01*
X02459Y04105D02*
X0264D01*
X02641Y041D02*
X02642Y04099D01*
X05046Y03617D02*
X05108Y03555D01*
X03755Y04614D02*
X04758D01*
X04836Y04535*
X03928Y04669D02*
X04296D01*
X03751Y04618D02*
X03755Y04614D01*
X04272Y04547D02*
X04273Y04548D01*
X03974Y04581D02*
X04298D01*
X03586Y04548D02*
X04273D01*
X03972Y04579D02*
X03974Y04581D01*
X03699Y04579D02*
X03972D01*
X03656Y04622D02*
X03699Y04579D01*
X05617Y03817D02*
Y03995D01*
X05483Y03683D02*
X05617Y03817D01*
X05278Y03683D02*
X05483D01*
X05278D02*
X05282Y03687D01*
X04911Y03462D02*
X05017Y03356D01*
X04783Y03462D02*
X04911D01*
X04305Y03513D02*
X04333Y03485D01*
X03987Y03568D02*
X04086Y03469D01*
X04114Y03388D02*
X04191Y03312D01*
X03783Y03388D02*
X04114D01*
X03993Y03538D02*
X04079Y03452D01*
X04001Y03508D02*
X04072Y03436D01*
X04007Y03479D02*
X04066Y0342D01*
X04014Y0345D02*
X04059Y03404D01*
X04461Y03609D02*
X04464D01*
X04424Y03646D02*
X04461Y03609D01*
X04464Y03595D02*
Y03609D01*
X0438Y04887D02*
X04553D01*
X04561Y04903D02*
X04585D01*
X04537D02*
X0456D01*
X04521Y04919D02*
X04537Y04903D01*
X04376Y04883D02*
X0438Y04887D01*
X04117Y04897D02*
X04127Y04907D01*
X03752Y04897D02*
X04117D01*
X03728Y04921D02*
X03752Y04897D01*
X04084Y05067D02*
X04084Y05067D01*
X04084Y05054D02*
Y05067D01*
X04079Y05049D02*
X04084Y05054D01*
X04228Y04413D02*
X04242Y04399D01*
X04187Y04413D02*
X04228D01*
X04242Y04399D02*
X04286D01*
X04174Y04808D02*
X04329D01*
X03185Y05515D02*
X03238Y05568D01*
X04768Y02427D02*
X04843Y02502D01*
X04759Y02427D02*
X04768D01*
X04435Y04567D02*
Y04614D01*
X05194Y04986D02*
Y05026D01*
X04164Y04039D02*
X04186Y04061D01*
X0543Y0502D02*
X05491Y05081D01*
X03745Y0587D02*
X03825D01*
X03744D02*
X03745D01*
X04286Y04399D02*
X04375D01*
X038Y05134D02*
Y05426D01*
X05304Y02961D02*
X0533Y02987D01*
X05304Y02954D02*
Y02961D01*
X05285Y02644D02*
X0529Y02648D01*
X05218Y02597D02*
X05285Y02644D01*
X03951Y04446D02*
X0402Y04515D01*
X04026*
X03973Y05069D02*
X03974Y0507D01*
X03553Y04403D02*
X0417D01*
X04189Y04384*
X0448Y02731D02*
X0466D01*
X04542Y05177D02*
X04606Y05113D01*
X04806*
X03443Y04315D02*
X03472Y04286D01*
X03415Y04315D02*
X03443D01*
X03398Y04102D02*
Y04103D01*
X03368Y04072D02*
X03398Y04102D01*
X03287Y04072D02*
X03368D01*
X03415Y0412D02*
X03511D01*
X03398Y04103D02*
X03415Y0412D01*
X03649Y04258D02*
X04001D01*
X03511Y0412D02*
X03649Y04258D01*
X03662Y04242D02*
X04078D01*
X03513Y04093D02*
X03662Y04242D01*
X03428Y04093D02*
X03513D01*
X03458Y0405D02*
Y04051D01*
X03511Y04058D02*
X0363Y04177D01*
X03511Y03976D02*
Y04058D01*
X03011Y04462D02*
X03026Y04447D01*
X03011Y04461D02*
Y04462D01*
X03026Y04447D02*
X03088D01*
X03257Y04488D02*
X0341D01*
X04806Y05113D02*
X04829Y0509D01*
X04542Y05177D02*
Y0524D01*
X04409Y0552D02*
X0459Y05339D01*
Y05256D02*
Y05339D01*
X0418Y04485D02*
X0422Y04445D01*
X0466Y04786D02*
X04674Y04772D01*
X04612Y04786D02*
X0466D01*
X04714Y04712D02*
X04735Y04691D01*
X04655Y04708D02*
X0469Y04673D01*
X04547Y0472D02*
X04612Y04786D01*
X04393Y0472D02*
X04547D01*
X04383Y04731D02*
X04393Y0472D01*
X0409Y04731D02*
X04383D01*
X04407Y04752D02*
X04533D01*
X044Y04736D02*
X0454D01*
X04329Y04808D02*
X044Y04736D01*
X04422Y04782D02*
X0454D01*
X04397Y04807D02*
X04422Y04782D01*
X044Y04865D02*
X04489D01*
X04388Y04852D02*
X044Y04865D01*
X04431Y04833D02*
X04449Y04815D01*
X04363Y04852D02*
X04388D01*
X04516Y04845D02*
X04558D01*
X04449Y04815D02*
X04551D01*
X02706Y05234D02*
X0272Y05248D01*
X02722Y05227D02*
X02736Y05241D01*
X02706Y05146D02*
Y05234D01*
X02679Y05119D02*
X02706Y05146D01*
X02722Y05139D02*
Y05227D01*
X02695Y05112D02*
X02722Y05139D01*
X02738Y0522D02*
X02752Y05234D01*
X02738Y05065D02*
Y0522D01*
X02728Y05055D02*
X02738Y05065D01*
X02995Y05501D02*
X03083D01*
X02988Y05517D02*
X03076D01*
X02752Y05235D02*
X03002Y05485D01*
X02752Y05234D02*
Y05235D01*
X02736Y05241D02*
X02995Y05501D01*
X02736Y05241D02*
Y05241D01*
X0272Y05248D02*
X02988Y05517D01*
X0272Y05248D02*
Y05248D01*
X03002Y05485D02*
X0309D01*
X02679Y05011D02*
X02711Y04978D01*
X02679Y05011D02*
Y05119D01*
X02703Y05012D02*
X02728D01*
X02695Y05021D02*
X02703Y05012D01*
X02695Y05021D02*
Y05112D01*
X04212Y04941D02*
X04259D01*
X042Y04952D02*
X04212Y04941D01*
X04427Y04973D02*
X04448Y04952D01*
X03924Y04973D02*
X04427D01*
X0392Y04977D02*
X03924Y04973D01*
X04245Y04918D02*
X04252Y04911D01*
X04212Y04918D02*
X04245D01*
X04252Y04911D02*
X04363D01*
X04363Y04911*
X04194Y04936D02*
X04212Y04918D01*
X04388Y04911D02*
X04521D01*
X04388Y04911D02*
X04388Y04911D01*
X04363Y04911D02*
X04388D01*
X04521Y04911D02*
X04528Y04918D01*
X0415Y05044D02*
X04158Y05036D01*
X0364Y05678D02*
X03661Y05657D01*
X03912*
X03931Y05676*
X04263Y03513D02*
X04305D01*
X04262Y03514D02*
X04263Y03513D01*
X03076Y05517D02*
X03311Y05752D01*
X03083Y05501D02*
X03318Y05736D01*
X0309Y05485D02*
X03325Y0572D01*
X03734*
X03318Y05736D02*
X03759D01*
X03311Y05752D02*
X03796D01*
X03069Y02629D02*
X03153Y02713D01*
X02901Y04655D02*
Y04714D01*
X02843Y04772D02*
X02901Y04714D01*
X02843Y04772D02*
Y04851D01*
X03004Y04613D02*
X03064D01*
X0296Y04657D02*
X03004Y04613D01*
X0296Y04657D02*
Y04661D01*
X02813Y04515D02*
X02938Y0439D01*
Y04253D02*
Y0439D01*
X03255Y0404D02*
X03287Y04072D01*
X02813Y04515D02*
Y04517D01*
X05064Y04034D02*
X05211D01*
X05097Y0399D02*
X05205D01*
X05115Y04153D02*
Y04301D01*
X04366Y0363D02*
X04462Y03534D01*
X05081Y03649D02*
X05168Y03562D01*
X05127Y03665D02*
X0521Y03582D01*
X05029Y03665D02*
X05127D01*
X04902Y03792D02*
X05029Y03665D01*
X04747Y0371D02*
X04808Y03649D01*
X04315Y03921D02*
X04589D01*
X04299Y03905D02*
X04315Y03921D01*
X04299Y0388D02*
Y03905D01*
X0265Y04518D02*
X02758D01*
X03734Y0572D02*
X03749Y05705D01*
X03759Y05736D02*
X03788Y05707D01*
X03796Y05752D02*
X03839Y05709D01*
X03575Y0494D02*
X03591Y04956D01*
X03716*
X0358Y048D02*
X04067D01*
X03417Y0401D02*
X03529Y03898D01*
X037Y03868D02*
X03701Y03869D01*
X03478D02*
X03701D01*
X04886Y04468D02*
Y04471D01*
Y04469D02*
X0489D01*
X04832Y0447D02*
X04888D01*
X04765Y04537D02*
X04832Y0447D01*
X04762Y04537D02*
X04765D01*
X03643Y04874D02*
X03645Y04876D01*
X0355Y04846D02*
X04048D01*
X03533Y04863D02*
X0355Y04846D01*
X04098Y04807D02*
X04167D01*
X04091Y048D02*
X04098Y04807D01*
X04127Y04907D02*
X04148D01*
X03667Y04921D02*
X03728D01*
X03755Y04917D02*
X04112D01*
X03716Y04956D02*
X03755Y04917D01*
X03558Y04978D02*
X03908D01*
Y05066D02*
Y05085D01*
X03919Y05096*
X04541Y05298D02*
Y053D01*
X04451Y0539D02*
X04541Y053D01*
X04451Y0539D02*
Y05409D01*
X04394Y05466D02*
X04451Y05409D01*
X03628Y05466D02*
X04394D01*
X03773Y05494D02*
X04389D01*
X04541Y05342*
X02389Y03333D02*
X02495Y03439D01*
X0571Y03604D02*
X05732Y03626D01*
X04815Y0354D02*
Y0355D01*
X0469Y03675D02*
X04815Y0355D01*
X04583Y03675D02*
X0469D01*
X04818Y03593D02*
X04866D01*
X05108Y0324D02*
X05119Y03229D01*
X05108Y0324D02*
Y03555D01*
X05119Y03122D02*
Y03229D01*
X0521Y03539D02*
Y03582D01*
X05386Y03572D02*
X05454D01*
X05347Y03611D02*
X05386Y03572D01*
X05454D02*
X05456Y0357D01*
X05283Y03579D02*
X05307Y03555D01*
X05247Y03579D02*
X05283D01*
X05341Y03595D02*
X05429Y03507D01*
X05253Y03595D02*
X05341D01*
X0526Y03611D02*
X05347D01*
X05354Y03627D02*
X05375Y03606D01*
X05266Y03627D02*
X05354D01*
X05142Y03751D02*
X05266Y03627D01*
X05149Y03767D02*
X05273Y03643D01*
X05136Y03735D02*
X0526Y03611D01*
X05129Y03719D02*
X05253Y03595D01*
X05123Y03703D02*
X05247Y03579D01*
X05536Y03435D02*
Y03583D01*
X05483Y03636D02*
X05536Y03583D01*
X05474Y03636D02*
X05483D01*
X05465Y03643D02*
X05472Y03635D01*
X05273Y03643D02*
X05465D01*
X05473Y03636D02*
Y03644D01*
X05472Y03635D02*
X05473Y03636D01*
X04953Y04053D02*
X04954Y04054D01*
X04912Y04053D02*
X04953D01*
X049Y04041D02*
X04912Y04053D01*
X04423Y04041D02*
X049D01*
X05113Y03783D02*
X05156D01*
X05107Y03767D02*
X05149D01*
X04949Y03925D02*
X05107Y03767D01*
X051Y03751D02*
X05142D01*
X05094Y03735D02*
X05136D01*
X04959Y03892D02*
X051Y03751D01*
X04979Y03917D02*
X05113Y03783D01*
X04949Y03925D02*
Y03926D01*
X04979Y03917D02*
Y03938D01*
X04931Y03892D02*
X04959D01*
X04897Y03926D02*
X04931Y03892D01*
X04953Y03876D02*
X05094Y03735D01*
X04876Y03876D02*
X04953D01*
X04848Y03926D02*
X04897D01*
X04976Y03829D02*
X05086Y03719D01*
X04871Y03829D02*
X04976D01*
X05086Y03719D02*
X05129D01*
X0506Y03703D02*
X05123D01*
X05137Y03799D02*
X05477D01*
X05061Y03875D02*
X05137Y03799D01*
X03163Y03092D02*
X03184Y03113D01*
X0395Y05325D02*
X03974Y05301D01*
Y0507D02*
Y05301D01*
X04189Y04384D02*
X04212D01*
X04216Y0438*
X04634Y04278D02*
X04637Y04281D01*
X0414Y04309D02*
X0417Y04278D01*
X04614Y0431D02*
X04631Y04327D01*
X04153Y04341D02*
X04183Y0431D01*
X04624Y04294D02*
X04641Y04311D01*
X04146Y04325D02*
X04177Y04294D01*
X04618Y04339D02*
X04635Y04356D01*
X04623Y04451D02*
X04736D01*
X04593Y04421D02*
X04623Y04451D01*
X04593Y04387D02*
X04594D01*
X04635Y04356D02*
X04764D01*
X04631Y04327D02*
X04773D01*
X04641Y04311D02*
X04747D01*
X04848Y04346D02*
X04887Y04308D01*
X04848Y04346D02*
Y04423D01*
X0416Y04441D02*
X04187Y04413D01*
X03887Y04341D02*
X04153D01*
X04045Y04325D02*
X04146D01*
X04052Y04309D02*
X0414D01*
X04093Y04485D02*
X0418D01*
X04043Y04435D02*
X04093Y04485D01*
X04043Y04433D02*
Y04435D01*
X03881Y04436D02*
X03958Y04513D01*
X04001Y04258D02*
X04052Y04309D01*
X03836Y04292D02*
X03899D01*
X03837Y04335D02*
X03881D01*
X03887Y04341*
X04234Y03999D02*
X04263Y0397D01*
X0416Y03999D02*
X04234D01*
X04134Y04025D02*
X0416Y03999D01*
X04134Y04025D02*
Y04084D01*
X04123Y04095D02*
X04134Y04084D01*
X04186Y04061D02*
X04299D01*
X04237Y0417D02*
X04303Y04104D01*
X04166Y0417D02*
X04237D01*
X04303Y04102D02*
Y04104D01*
X04216Y0438D02*
Y04384D01*
X04618Y04478D02*
X0462Y0448D01*
X04748*
X048Y04428*
X04298Y04233D02*
X04354D01*
X04115Y04244D02*
X04171Y04187D01*
X04118Y04285D02*
X042Y04203D01*
X04263Y0386D02*
Y0397D01*
X04416Y03958D02*
X04481Y04023D01*
X04465Y0396D02*
X04511Y04006D01*
X04465Y03958D02*
Y0396D01*
X04151Y0396D02*
X04231D01*
X05364Y02954D02*
X05365Y02953D01*
X05732Y03626D02*
Y03711D01*
X04807Y03792D02*
X04902D01*
X04722Y03413D02*
Y03417D01*
X04721Y03412D02*
X04722Y03413D01*
X05017Y03169D02*
Y03356D01*
X05286Y0412D02*
X05355D01*
X05297Y0417D02*
X05355D01*
X02868Y04271D02*
X02883Y04256D01*
Y04185D02*
Y04256D01*
X02711Y04906D02*
Y04978D01*
X03788Y05707D02*
X038D01*
X03919Y05096D02*
Y05297D01*
X05291Y03528D02*
X05307Y03555D01*
X05375Y03606D02*
X05465D01*
X058Y04045D02*
X05862D01*
X05315Y02754D02*
X05358Y02712D01*
X04611Y02387D02*
Y02458D01*
X0442Y0244D02*
X0445D01*
X04395Y02415D02*
X0442Y0244D01*
X04576Y02352D02*
X04611Y02387D01*
X04592Y02476D02*
X04611Y02458D01*
X04592Y02476D02*
Y02488D01*
X03851Y04032D02*
Y04069D01*
X03905Y04D02*
Y04043D01*
X03901Y0404D02*
X03904Y04043D01*
X03905Y04D02*
X03965D01*
X03884D02*
X03905D01*
X03965Y03956D02*
Y04D01*
X04036*
Y04024*
Y04D02*
X0408D01*
X03672Y0397D02*
X03673Y03969D01*
X03853D02*
X03884Y04D01*
X0408D02*
X04095Y03985D01*
Y03956D02*
Y03985D01*
X03495Y03077D02*
X0351Y03092D01*
X03342Y03161D02*
Y03198D01*
X03457Y03253D02*
X03468Y03264D01*
X03709*
X03785Y03258D02*
Y03291D01*
X03727Y032D02*
X03785Y03258D01*
X03595Y032D02*
X03727D01*
X03528Y03555D02*
Y03558D01*
X03683Y03489D02*
X03783Y03388D01*
X03505Y03489D02*
X03683D01*
X03478Y03462D02*
X03505Y03489D01*
X03372Y03462D02*
X03478D01*
X04066Y03207D02*
X04068D01*
X03998D02*
X04066D01*
X03924Y03281D02*
X03998Y03207D01*
X03884Y03419D02*
X03885D01*
X04214Y02466D02*
Y02671D01*
X05023Y04459D02*
X05024Y0446D01*
X05023Y04244D02*
Y04459D01*
X04737Y04153D02*
X04738D01*
X04591Y04183D02*
X04691D01*
X04779Y04092D02*
X04844D01*
X046Y04521D02*
X04746D01*
X04764Y04539*
X04778Y04094D02*
X04779Y04092D01*
X054Y03145D02*
Y03253D01*
X0533Y03287D02*
X05398Y03256D01*
X05183Y03468D02*
Y03473D01*
X04801Y03879D02*
X04848Y03926D01*
X04947Y0397D02*
X0495D01*
X05465Y03606D02*
X05511Y0356D01*
Y03454D02*
Y0356D01*
X05455Y03398D02*
X05511Y03454D01*
X05394Y03424D02*
X05455Y03398D01*
X05415Y0347D02*
X0543Y03504D01*
X05447Y03346D02*
X05536Y03435D01*
X05146Y03374D02*
X05189Y03464D01*
X0519Y03464D02*
X05249Y03436D01*
X05211Y0351D02*
X0527Y03482D01*
X05351Y03333D02*
X0542Y03303D01*
X05372Y03379D02*
X05447Y03346D01*
X04164Y04039D02*
Y04042D01*
X02807Y03968D02*
X02827Y03949D01*
X02582Y03968D02*
X02807D01*
X02576Y03975D02*
X02582Y03968D01*
X02644Y05214D02*
X02676Y05182D01*
X02817Y03984D02*
X02837Y04004D01*
X02792Y03984D02*
X02817D01*
X02772Y04004D02*
X02792Y03984D01*
X02225Y04004D02*
X02772D01*
X02884Y04401D02*
X02907Y04379D01*
X02811Y04401D02*
X02884D01*
X02757Y04358D02*
X02811D01*
X02758Y04359D02*
X02762D01*
X02757Y04358D02*
X02758Y04359D01*
X02686Y04152D02*
X0276Y04078D01*
X02846Y04047D02*
Y0407D01*
X02854Y04358D02*
X02899Y04313D01*
X02892Y04101D02*
X02899Y04108D01*
Y04313*
X02883Y04131D02*
Y04185D01*
X02805Y04053D02*
X02883Y04131D01*
X02805Y04014D02*
Y04053D01*
X02877Y04101D02*
X02892D01*
X02846Y0407D02*
X02877Y04101D01*
X02812Y04358D02*
X02854D01*
X02808Y04271D02*
X02811D01*
X02808D02*
X02809Y04272D01*
X04524Y03264D02*
Y03326D01*
X03931Y03538D02*
X03993D01*
X03968Y03508D02*
X04001D01*
X0393Y03479D02*
X04007D01*
X03969Y0345D02*
X04014D01*
X03967Y03568D02*
X03987D01*
X0393Y03479D02*
X03931Y03479D01*
X04972Y031D02*
Y03304D01*
Y031D02*
X04999Y03073D01*
X04522Y03367D02*
Y03368D01*
Y03367D02*
X04581Y03308D01*
X04522Y03368D02*
X04526Y03364D01*
X02142Y03945D02*
X02225D01*
X02985Y02994D02*
X03023D01*
X02971Y03008D02*
X02985Y02994D01*
X02971Y03008D02*
Y03273D01*
X03129Y03431*
X03398*
X03366Y03396D02*
X03367Y03396D01*
X03117D02*
X03366D01*
X033Y02579D02*
X03303Y02582D01*
X03402*
X03418Y02565*
X033Y02579D02*
Y02582D01*
X05274Y02795D02*
Y02911D01*
X05017Y03169D02*
X05274Y02911D01*
X02716Y02638D02*
X02766Y02587D01*
X03063Y03341D02*
X03117Y03396D01*
X03063Y03326D02*
Y03341D01*
X0394Y0287D02*
Y02927D01*
X0451Y02459D02*
Y02477D01*
X0449Y02498D02*
X0451Y02477D01*
X0449Y02498D02*
Y02507D01*
X0431Y02405D02*
Y02448D01*
X03271Y02926D02*
Y02979D01*
X04006Y02931D02*
Y02989D01*
X04781Y02927D02*
Y02984D01*
X04662Y03044D02*
X04722Y02983D01*
X04662Y03044D02*
Y0309D01*
X03886Y03047D02*
Y03093D01*
X03156Y03044D02*
X03212Y02987D01*
X03162Y03044D02*
Y03091D01*
X0359Y03083D02*
X03641Y03134D01*
X03653*
X03638Y03068D02*
X03706Y03136D01*
X03638Y02957D02*
X03771Y02825D01*
X03638Y02957D02*
Y03068D01*
X03771Y02825D02*
X03986D01*
X04Y02839D02*
Y02868D01*
X03986Y02825D02*
X04Y02839D01*
X03661Y03022D02*
X03661Y03021D01*
X03661Y03022D02*
X03668D01*
X04059Y03359D02*
X04079D01*
X04091Y03346*
X04099*
X04222Y03119D02*
X04223Y03117D01*
Y03078D02*
Y03117D01*
X03887Y03047D02*
X03934D01*
X03947Y03033*
Y02989D02*
Y03033D01*
X04156Y02587D02*
X04157Y02588D01*
X04055Y02587D02*
X04156D01*
X04155Y02588D02*
X04157D01*
X03589Y03206D02*
X03595Y032D01*
X03589Y03205D02*
Y03207D01*
X03785Y03291D02*
X03805Y03311D01*
X04523Y02981D02*
Y03018D01*
X04573Y03301D02*
X04581Y03308D01*
X03661Y03021D02*
X03747D01*
X03279Y02865D02*
X0341D01*
X03411Y02866*
X0351Y03092D02*
Y03115D01*
X03063Y03326D02*
X03081Y03308D01*
X03362Y03356D02*
X03375Y03343D01*
X03336Y03356D02*
X03362D01*
X04722Y02983D02*
X04723Y02983D01*
X04047Y0213D02*
X0405Y02133D01*
X02651Y05287D02*
X02684Y05254D01*
X03966Y0396D02*
Y03968D01*
X02427Y04759D02*
X02431D01*
X03884Y0587D02*
X0395D01*
X03961*
X0405Y02133D02*
X04061Y02144D01*
X0405Y02133D02*
Y02195D01*
Y02132D02*
Y02133D01*
X04048Y02129D02*
X0405Y02128D01*
X04047Y0213D02*
X04048Y02129D01*
X03671Y02269D02*
X03685Y02335D01*
X03749Y02574D02*
X03771Y02552D01*
Y0252D02*
Y02552D01*
X0368Y02542D02*
Y02555D01*
X037Y02575*
X03636Y02259D02*
X03654Y02341D01*
X03762Y02452D02*
X0379D01*
X03807Y02435*
X03966Y03968D02*
Y03978D01*
X03965Y03967D02*
X03966Y03968D01*
X02684Y05254D02*
X02687Y05252D01*
X03715Y02329D02*
Y02347D01*
X03418Y02565D02*
X03541D01*
X03679Y02459D02*
X03759D01*
X03664Y02474D02*
X03679Y02459D01*
X04874Y03341D02*
X04875Y03343D01*
X02382Y0467D02*
X02385Y0467D01*
X03904Y04043D02*
X03905Y04043D01*
X03965Y03956D02*
X03966Y0396D01*
X02427Y04759D02*
X02428Y04762D01*
X02469Y0502D02*
X0247D01*
X02685Y05255D02*
X02687Y05252D01*
X04722Y02983D02*
X04722Y02984D01*
X0395Y05325D02*
Y0543D01*
X04Y05129D02*
Y05429D01*
X0405Y05126D02*
Y05428D01*
X041Y05342D02*
Y05427D01*
X039Y05316D02*
Y05429D01*
X04504Y03842D02*
X04757D01*
X04807Y03792*
X05321Y03176D02*
Y03233D01*
X05289Y03265D02*
X05321Y03233D01*
X05244Y03265D02*
X05289D01*
X05206Y03303D02*
X05244Y03265D01*
X05206Y03303D02*
Y03345D01*
X05146Y03374D02*
X05206Y03345D01*
X05206Y03345*
X0519Y03466D02*
X05191Y03465D01*
X05183Y03473D02*
X0519Y03466D01*
X04947Y0397D02*
X04979Y03938D01*
X05189Y03464D02*
X05189Y03464D01*
X0519Y03466*
X05211Y0351*
X05555Y03257D02*
X05572Y03241D01*
X04055Y02635D02*
X04056Y02634D01*
X04055Y02635D02*
Y02703D01*
X04842Y0316D02*
Y03204D01*
X03762Y03542D02*
X03885Y03419D01*
X05637Y0412D02*
X05666Y04091D01*
X02389Y04667D02*
X02389Y04668D01*
X0239Y0467*
X02385Y0467D02*
X02389Y04667D01*
X02432Y04766D02*
X02469Y04803D01*
Y0502*
X03477Y04867D02*
Y04953D01*
X03279D02*
X03477D01*
X0285Y04851D02*
X02851Y0485D01*
X02843Y04851D02*
X0285D01*
X02851Y0485D02*
Y04858D01*
X02853Y0486*
X02982*
X03316Y02504D02*
X03529D01*
X0324Y02428D02*
X03316Y02504D01*
X03359Y02418D02*
X03488D01*
X04662Y02323D02*
X04707D01*
X03612Y04436D02*
X03881D01*
X039Y05316D02*
X03919Y05297D01*
X03834Y0505D02*
X0385Y05066D01*
Y05427*
X03622Y05093D02*
X03759D01*
X038Y05134*
X04513Y04843D02*
X04514D01*
X03638Y05525D02*
X03696D01*
X04Y05129D02*
X04049Y0508D01*
X0403Y04518D02*
X04212D01*
X03585Y04549D02*
X03586Y04548D01*
X041Y05342D02*
X041Y05341D01*
X04069Y04285D02*
X04072Y04288D01*
X04073*
X03906Y04284D02*
X04005D01*
X03899Y04292D02*
X03906Y04284D01*
X04005D02*
X04045Y04325D01*
X04094Y04146D02*
Y04191D01*
X03964Y04146D02*
Y04193D01*
X03905Y03796D02*
Y03853D01*
X04035Y03796D02*
Y03853D01*
X04069Y04274D02*
Y04285D01*
X03631Y04697D02*
X04355D01*
X0363Y04698D02*
X03631Y04697D01*
X03593Y04698D02*
X0363D01*
X041Y0509D02*
X04116Y05075D01*
X041Y0509D02*
Y05341D01*
X04084Y05067D02*
Y05092D01*
X0405Y05126D02*
X04084Y05092D01*
X04512Y04842D02*
X04513Y04843D01*
X04067Y048D02*
X04091D01*
X04118Y04279D02*
Y04285D01*
X04069Y04274D02*
X04099Y04244D01*
X04115*
X04078Y04242D02*
X04092Y04228D01*
X04108*
X04079Y04829D02*
X0408Y0483D01*
X04125Y04952D02*
X042D01*
X04112Y04917D02*
X04131Y04936D01*
X04194*
X04119Y04947D02*
X04125Y04952D01*
X03782Y04947D02*
X04119D01*
X03428Y04091D02*
Y04093D01*
X03931Y05676D02*
X04434D01*
X04108Y04228D02*
X04166Y0417D01*
X03825Y0587D02*
X0383Y05865D01*
Y05796D02*
Y05865D01*
Y05796D02*
X03846Y0578D01*
X05384Y04614D02*
X05414Y04644D01*
X05384Y04511D02*
Y04614D01*
Y04511D02*
X05416Y04479D01*
X05244Y053D02*
X05287Y05343D01*
X05572Y04759D02*
X05644D01*
X05737Y04667*
Y0445D02*
Y04667D01*
X04575Y03554D02*
X04582Y03547D01*
X03338Y04009D02*
X03478Y03869D01*
X03281Y03914D02*
Y03999D01*
X03333Y04051*
X03458*
X03607Y0505D02*
X03834D01*
X03839Y05709D02*
X03847D01*
X04394Y0407D02*
Y04156D01*
X04421Y04184*
X0363Y04177D02*
X03836D01*
X03511Y03976D02*
X0356Y03927D01*
X03699*
X03839Y04081D02*
X03851Y04069D01*
X0384Y0413D02*
X03851D01*
X03886Y04095*
X04123*
X03583Y05556D02*
X04347D01*
X05538Y0412D02*
X05637D01*
X05666Y04066D02*
Y04091D01*
X05515Y0422D02*
X05682D01*
X05683Y04219*
X04562Y04546D02*
Y04549D01*
X04954Y04053D02*
Y04054D01*
X04738Y04153D02*
X04772Y04187D01*
X04966D02*
X05023Y04244D01*
X04892Y04234D02*
X04893Y04233D01*
Y04224D02*
Y04233D01*
X04886Y04231D02*
X04893Y04224D01*
X04886Y04234D02*
X04892D01*
X04772Y04187D02*
X04966D01*
X04773Y04204D02*
X04905D01*
X04828Y04231D02*
X04886D01*
X0484Y04261D02*
X04844Y04265D01*
X0485*
X0415Y05044D02*
Y05427D01*
X04905Y04204D02*
X04965Y04264D01*
X04887Y04422D02*
Y04428D01*
Y04298D02*
Y04308D01*
X04895Y04374D02*
X04923Y04402D01*
X04764Y04356D02*
X04767Y04359D01*
X04394Y0407D02*
X04423Y04041D01*
X04702Y04094D02*
X04778D01*
X04597Y0413D02*
X04671D01*
X04705Y04096*
X04512D02*
X04513Y04097D01*
X04564*
X04597Y0413*
X0454D02*
Y04147D01*
X04546Y04153*
X04737*
X04585Y04066D02*
X04617Y04098D01*
X04637Y04281D02*
X04714D01*
X04723Y04272*
X04747Y04311D02*
X04828Y04231D01*
X04773Y04327D02*
X0484Y04261D01*
X03623Y05461D02*
X03628Y05466D01*
X0375Y05513D02*
X03757Y0552D01*
X04409*
X03726Y05494D02*
X03773D01*
X03696Y05525D02*
X03726Y05494D01*
X03773D02*
X03773Y05494D01*
X03528Y04863D02*
X03533D01*
X05489Y03787D02*
Y0379D01*
X04342Y03732D02*
X04396Y03678D01*
X04496*
X04543Y03631*
X04494Y03699D02*
X04505Y0371D01*
X04421Y03699D02*
X04494D01*
X04462Y03534D02*
X04477D01*
X04184Y02863D02*
X04539D01*
X04127Y0292D02*
X04184Y02863D01*
X03496Y02948D02*
X03525Y02919D01*
X03416Y02948D02*
X03496D01*
X03091Y03599D02*
X04203D01*
X03477Y04953D02*
Y04983D01*
X04888Y04467D02*
X0489Y04469D01*
X0463Y0532D02*
X04669Y05359D01*
Y05479*
Y05481*
X02128Y04137D02*
X02295Y04304D01*
Y04745*
X02317Y04767*
X02337*
X02327Y04724D02*
X02382Y0467D01*
X02342Y04763D02*
X02417D01*
X02128Y04052D02*
Y04137D01*
X02188Y03714D02*
X02347Y03555D01*
X02278Y03348D02*
X02302Y03372D01*
X02309Y03371D02*
X02348Y0341D01*
X02347Y03412D02*
Y03555D01*
X02304Y03371D02*
X02309D01*
X02278Y03309D02*
Y03348D01*
Y03309D02*
X02641Y02946D01*
X02317Y03331D02*
X02385D01*
X02641Y02713D02*
Y02946D01*
X0324Y02349D02*
Y02427D01*
X03278Y02332D02*
X0333Y02384D01*
X05383Y02971D02*
X05425D01*
X0571Y03256*
Y03604*
X05416Y02987D02*
X05694Y03265D01*
Y03642*
X05648Y04569D02*
X0569Y04611D01*
Y0463*
X04705Y0565D02*
X04725D01*
X04667Y05612D02*
X04705Y0565D01*
X03846Y0578D02*
X04709D01*
X04906Y05583*
Y05515D02*
Y05583D01*
X03373Y05681D02*
X03403Y05652D01*
X03425Y05649D02*
X03502Y05692D01*
X03505Y05694*
X03336Y05613D02*
Y05672D01*
X04487Y04406D02*
Y0448D01*
X048Y04428D02*
X04853D01*
X04887*
X04488Y04478D02*
X04489D01*
X04494*
X04618*
X04494D02*
X04562Y04546D01*
X04848Y04423D02*
X04853Y04428D01*
X03289Y03557D02*
X03291Y03555D01*
X03529Y03898D02*
X04116D01*
X0524Y05005D02*
Y05015D01*
X05238Y05005D02*
X0524D01*
Y05015D02*
X05248D01*
X02837Y04004D02*
X03043D01*
X03086Y03962*
Y03954D02*
Y03962D01*
X02938Y04253D02*
X03162Y04029D01*
Y03808D02*
Y04029D01*
Y03808D02*
X03229Y03741D01*
X03204Y03828D02*
X03275Y03757D01*
X03343Y03843D02*
Y03938D01*
Y03843D02*
X03413Y03773D01*
X04449Y0434D02*
X0445Y04339D01*
X04618*
X04183Y0431D02*
X04614D01*
X04177Y04294D02*
X04624D01*
X0417Y04278D02*
X04634D01*
X04171Y04187D02*
X04402D01*
X042Y04203D02*
X04396D01*
X04402Y04187D02*
X04427Y04212D01*
X04452*
X04496Y0407D02*
X045Y04066D01*
X04585*
X04492Y04177D02*
X04493D01*
X04733Y04244D02*
X04773Y04204D01*
X04354Y04233D02*
X04365Y04244D01*
X04707Y04228D02*
X04723Y04213D01*
X04396Y04203D02*
X04421Y04228D01*
X04365Y04244D02*
X04733D01*
X04421Y04228D02*
X04707D01*
X04452Y04212D02*
X04452Y04212D01*
X04562*
X04591Y04183*
X0449Y04175D02*
X04492Y04177D01*
X0449Y04107D02*
Y04175D01*
Y04107D02*
X04503Y04094D01*
X04437Y04086D02*
X04453Y0407D01*
X04496*
X04158Y05036D02*
X04586D01*
X04723Y05002D02*
Y0502D01*
X04454Y04966D02*
X0446Y04972D01*
X04693*
X04723Y05002*
X04735Y04691D02*
X04749D01*
X04965Y04475*
Y04264D02*
Y04475D01*
X0469Y04673D02*
X04744D01*
X04923Y04494*
Y04402D02*
Y04494D01*
X04966Y04497D02*
X05028D01*
X05082Y04443*
X05115Y04302D02*
X05146Y04333D01*
X05378Y04968D02*
X0543Y0502D01*
X05414Y04644D02*
Y04699D01*
X05506Y04791*
Y04883*
X05321Y04952D02*
X05448Y04824D01*
Y04759D02*
Y04824D01*
X05404Y04766D02*
X05419Y04781D01*
X05314Y04936D02*
X05388Y04861D01*
X05404Y04762D02*
Y04766D01*
X05388Y04768D02*
Y04861D01*
X05359Y04779D02*
Y04868D01*
X05307Y0492D02*
X05359Y04868D01*
X05301Y04904D02*
X05321Y04884D01*
X05294Y04888D02*
X05305Y04877D01*
X05194Y04986D02*
X05212Y04968D01*
X05378*
X05214Y0473D02*
Y04841D01*
X05099Y05029D02*
X051D01*
X05136Y04993*
X05159*
X05093Y05013D02*
X05154Y04952D01*
X05321*
X05087Y04997D02*
X05148Y04936D01*
X05314*
X0508Y04981D02*
X05141Y0492D01*
X05307*
X05073Y04965D02*
X05134Y04904D01*
X05301*
X05067Y04949D02*
X05128Y04888D01*
X05294*
X0506Y04933D02*
X05121Y04872D01*
X05287*
X05158Y04855D02*
X05171Y04842D01*
X05054Y04917D02*
X05116Y04855D01*
X05158*
X05044Y04901D02*
X05106Y04839D01*
X0513*
X0518Y04696D02*
X05214Y0473D01*
X0513Y04839D02*
X05164Y04805D01*
X05305Y04751D02*
Y04877D01*
X05289Y04758D02*
Y0487D01*
X05321Y04744D02*
Y04884D01*
X05399Y0471D02*
X05448Y04759D01*
X05347Y04726D02*
X05368D01*
X05404Y04762*
X05361Y04742D02*
X05388Y04768D01*
X0534Y04742D02*
X05361D01*
X05354Y0471D02*
X05399D01*
X05325Y04681D02*
X05354Y0471D01*
X05309Y04688D02*
X05347Y04726D01*
X05293Y04694D02*
X0534Y04742D01*
X05261Y04708D02*
X05305Y04751D01*
X05257Y0475D02*
Y04842D01*
X05254Y04724D02*
X05289Y04758D01*
X05277Y04701D02*
X05321Y04744D01*
X05242Y0463D02*
Y04689D01*
X05261Y04708*
X05261*
X03472Y04189D02*
Y04286D01*
X04151Y02184D02*
X04171D01*
X04437Y0381D02*
X04623D01*
X04263Y0386D02*
X04284Y0384D01*
X04407*
X04437Y0381*
X04147Y03914D02*
X04164Y03931D01*
X04116Y03898D02*
X04131Y03913D01*
Y03939*
X04151Y0396*
X04147Y03816D02*
Y03914D01*
Y03816D02*
X04245Y03718D01*
X04272*
X03413Y03773D02*
X04167D01*
X03514Y03711D02*
X04161D01*
X03275Y03757D02*
X0416D01*
X03229Y03741D02*
X04154D01*
X04161Y03711D02*
X04258Y03614D01*
X04154Y03741D02*
X04265Y0363D01*
X0416Y03757D02*
X04271Y03646D01*
X04167Y03773D02*
X04278Y03662D01*
X04271Y03646D02*
X04424D01*
X04265Y0363D02*
X04366D01*
X04258Y03614D02*
X04359D01*
X04505Y0371D02*
X04747D01*
X04453Y0373D02*
X04914D01*
G54D39*
X02452Y04317D02*
X02547D01*
X0244Y04329D02*
X02452Y04317D01*
X0244Y04329D02*
Y04593D01*
X0255Y04703*
X02405Y04144D02*
Y04668D01*
Y04144D02*
X02452Y04097D01*
X02391Y04668D02*
X02455D01*
X03469Y05625D02*
X04301D01*
X02662Y04838D02*
X02743D01*
X02635D02*
X02662D01*
X04291Y04769D02*
X043Y04778D01*
X03789Y04769D02*
X04291D01*
X03783Y04763D02*
X03789Y04769D01*
X03021Y05463D02*
X03347D01*
X02803Y05245D02*
X03021Y05463D01*
X02803Y05187D02*
Y05245D01*
X02793Y05176D02*
X02803Y05187D01*
X02793Y04888D02*
Y05176D01*
X02765Y05199D02*
X02768Y05202D01*
X02743Y04838D02*
X02793Y04888D01*
X02765Y0491D02*
Y05199D01*
X02726Y04871D02*
X02765Y0491D01*
X02667Y04871D02*
X02726D01*
X02659Y0488D02*
X02667Y04871D01*
X02659Y0488D02*
Y04951D01*
X02585Y04887D02*
X02635Y04838D01*
X02539Y04951D02*
X02659D01*
X0247Y0502D02*
X02539Y04951D01*
X02542Y04887D02*
X02585D01*
X02512Y04857D02*
X02542Y04887D01*
X02512Y04728D02*
Y04857D01*
X02452Y04668D02*
X02512Y04728D01*
X0255Y04831D02*
X02571Y04852D01*
X0255Y04703D02*
Y04831D01*
X05512Y0407D02*
X05515D01*
X04762Y05494D02*
Y05574D01*
X04655Y05611D02*
X04667D01*
X03333Y0561D02*
X0339Y05553D01*
X04762Y05494D02*
X04775Y05481D01*
X03445Y05601D02*
X03469Y05625D01*
X04301Y05628D02*
X04468D01*
X04618Y05478*
X03445Y05601D02*
D01*
X03347Y05503D02*
X03445Y05601D01*
X03291Y03555D02*
X03528D01*
X03347Y05311D02*
Y05463D01*
Y05503*
X04618Y05478D02*
X04667D01*
Y05477D02*
X04669Y05479D01*
X0467Y0548*
X04667Y05477D02*
Y05478D01*
Y05611*
X05572Y0324D02*
X05629D01*
X05608Y04664D02*
X05682D01*
X04764Y0558D02*
Y0565D01*
X04765D02*
Y05679D01*
X04693Y05751D02*
X04765Y05679D01*
X04622Y05751D02*
X04693D01*
G54D40*
X0425Y05426D02*
X04351D01*
X042Y05066D02*
X04338D01*
X03359Y04092D02*
X03407Y0414D01*
X03128Y04092D02*
X03359D01*
X03407Y0414D02*
X03495D01*
X03725Y0437D02*
X04135D01*
X03495Y0414D02*
X03725Y0437D01*
X02978Y04274D02*
X03036Y04216D01*
X0309*
Y0413D02*
X03128Y04092D01*
X0309Y0413D02*
Y04216D01*
X04556Y0379D02*
X04582Y03765D01*
X04429Y0379D02*
X04556D01*
X04399Y0382D02*
X04429Y0379D01*
X04243Y0382D02*
X04399D01*
X04229Y03835D02*
X04243Y0382D01*
X04188Y03835D02*
X04229D01*
X04582Y03765D02*
X04622D01*
G54D41*
X05311Y04215D02*
X05331D01*
X05311D02*
X05315Y04219D01*
G54D42*
X04178Y03029D03*
X03454Y03026D03*
X04954D03*
G54D43*
X04132Y03289D03*
X03408Y03286D03*
X04908D03*
G54D44*
X03869Y03319D03*
X03145Y03316D03*
X04645D03*
G54D45*
X03753Y03089D03*
X03032Y03059D03*
X04529Y03086D03*
G54D46*
X03222Y02899D03*
X04722D03*
G54D47*
X0542Y05348D02*
D01*
X05322Y05443*
X05218Y05532*
X05108Y05613*
X04993Y05687*
X04873Y05752*
X04748Y05809*
X0462Y05856*
X04489Y05895*
X04356Y05925*
X04221Y05945*
X04085Y05956*
X03948Y05957*
X03812Y05948*
X03676Y05931*
X03542Y05903*
X0341Y05867*
X03282Y05821*
X03156Y05767*
X03035Y05703*
X02919Y05632*
X02807Y05553*
X02702Y05466*
X02603Y05372*
X0258Y05348*
X02461Y0521D02*
D01*
X0238Y05099*
X02307Y04984*
X02243Y04863*
X02187Y04738*
X02139Y0461*
X02101Y04479*
X02073Y04345*
X02053Y0421*
X02043Y04074*
X02043Y03937*
X02052Y03801*
X02071Y03665*
X02099Y03532*
X02136Y034*
X02182Y03272*
X02237Y03147*
X02301Y03026*
X02373Y0291*
X02453Y02799*
X02541Y02694*
X02635Y02595*
X02737Y02504*
X02844Y02419*
X02957Y02342*
X03075Y02274*
X03198Y02213*
X03324Y02162*
X03454Y02119*
X03587Y02086*
X03721Y02062*
X03857Y02047*
X03994Y02042*
X0413Y02046*
X04176Y0205*
X04276Y02062D02*
D01*
X0441Y02085*
X04543Y02119*
X04672Y02161*
X04799Y02213*
X04922Y02273*
X0504Y02341*
X05153Y02418*
X05261Y02502*
X05362Y02594*
X05457Y02692*
X05544Y02797*
X05624Y02908*
X05697Y03024*
X05761Y03145*
X05816Y0327*
X05862Y03398*
X059Y03529*
X05928Y03663*
X05947Y03798*
X05956Y03935*
X05956Y04071*
X05946Y04208*
X05927Y04343*
X05898Y04477*
X0586Y04608*
X05813Y04736*
X05757Y04861*
X05693Y04981*
X0562Y05097*
X0554Y05208*
X05538Y05209*
X02461Y0521D02*
X0258D01*
Y05348*
X0542Y0521D02*
X05539D01*
X0542D02*
Y05348D01*
X04176Y02128D02*
X04276D01*
X04176Y0205D02*
Y02128D01*
X04276Y02062D02*
Y02128D01*
G54D48*
X0477Y0548D03*
G54D49*
X0467Y0548D03*
G54D50*
X03425Y0235D03*
X02128Y0405D03*
Y0395D03*
X02712Y05358D03*
X02641Y05287D03*
Y02712D03*
X02712Y02641D03*
X0324Y02427D03*
X03333Y02389D03*
X04574Y0235D03*
X04667Y02389D03*
X04759Y02427D03*
X0235Y03425D03*
X02389Y03333D03*
X02427Y0324D03*
X05572D03*
X05611Y03333D03*
X05649Y03425D03*
Y04574D03*
X05611Y04667D03*
X05572Y04759D03*
X02428Y04762D03*
X0239Y0467D03*
X02351Y04577D03*
X04759Y05572D03*
X04667Y05611D03*
X04574Y05649D03*
X03425D03*
X03333Y05611D03*
X0324Y05572D03*
X0395Y02128D03*
X0405D03*
X05287Y02641D03*
X05358Y02712D03*
X05872Y0395D03*
Y0405D03*
X05358Y05287D03*
X05287Y05358D03*
X0405Y05872D03*
X0395D03*
X0257Y0502D03*
X0247D03*
X0543D03*
X0553D03*
X04276Y02267D03*
X04176D03*
G54D51*
X03569Y0527D03*
X0443Y05273D03*
X05435Y03939D03*
X05434Y04551D03*
X02775Y0468D03*
Y0476D03*
G54D52*
X02625Y0352D03*
X02724Y0342D03*
X02825Y0352D03*
Y0332D03*
X02625D03*
G54D53*
X03543Y02367D03*
X03522Y02255D03*
X03804Y022D03*
X03826Y02312D03*
G54D54*
X04091Y0473D03*
X04568Y04938D03*
X04522Y04919D03*
X04618Y05003D03*
X0528Y05136D03*
X02653Y04623D03*
X04055Y0235D03*
X0425Y02562D03*
X04351Y02275D03*
X04248Y02722D03*
X04551Y02673D03*
X04434Y02271D03*
X04551Y02563D03*
X04704Y0253D03*
X0478Y02829D03*
X05364Y02954D03*
X058Y04142D03*
X05807Y03797D03*
X05639D03*
X05279Y0437D03*
X0521Y04556D03*
X05242Y04586D03*
X0526Y0405D03*
X05261Y03934D03*
X05569Y04003D03*
X05591Y0437D03*
X05288Y03734D03*
X05245D03*
X05278Y03683D03*
X05059Y03395D03*
X05078Y03448D03*
X03514Y03711D03*
X04692Y04933D03*
X0255Y04315D03*
X02763Y04228D03*
X02641Y041D03*
X04853Y03654D03*
X05046Y03617D03*
X04298Y04581D03*
X04262Y04549D03*
X0506Y03352D03*
X03424Y03682D03*
X05455Y05139D03*
X0538Y05199D03*
X03905Y04645D03*
X04758Y04742D03*
X04385Y02727D03*
X0466Y02731D03*
X0448D03*
X03933Y02719D03*
X0425Y05426D03*
X04351D03*
X04338Y05066D03*
X03473Y04189D03*
X03458Y0405D03*
X03428Y04091D03*
X03415Y04315D03*
X03282Y04345D03*
X03011Y04461D03*
X03088Y04447D03*
X03257Y04488D03*
X03407D03*
X04589Y05256D03*
X04542Y05246D03*
X04673Y04774D03*
X0476Y04999D03*
X04717Y04706D03*
X04655Y04708D03*
X05618Y03739D03*
X04397Y04807D03*
X04431Y04834D03*
X04512Y04845D03*
X04831Y05092D03*
X02768Y05202D03*
X02728Y05055D03*
Y05012D03*
X04265Y04942D03*
X04233Y04886D03*
X04265Y05003D03*
X04165Y04907D03*
X03841Y04086D03*
X04262Y03513D03*
X05238Y05058D03*
X02982Y0486D03*
X02978Y04272D03*
X02901Y04655D03*
X0296D03*
X02813Y04517D03*
X05097Y0399D03*
X05506Y04883D03*
X02758Y04518D03*
X0265D03*
X03572Y04799D03*
X03093Y03599D03*
X03333Y03949D03*
X03697Y03867D03*
X04877Y0383D03*
X04876Y03875D03*
X04886Y04471D03*
X04167Y04807D03*
X03908Y04978D03*
Y05066D03*
X03797Y05019D03*
X04541Y05343D03*
Y05298D03*
X04448Y04953D03*
X05242Y0463D03*
X04818Y03547D03*
X05119Y03122D03*
X05473Y03644D03*
X05345Y03954D03*
X04843Y04094D03*
X03974Y05068D03*
X04594Y04387D03*
X04204Y03598D03*
X04888Y04373D03*
X03255Y0404D03*
X0416Y04441D03*
X04125Y04371D03*
X04043Y04433D03*
X03957Y04513D03*
X03836Y04336D03*
Y04293D03*
X04286Y04399D03*
X04212Y04518D03*
X04299Y04104D03*
X04216Y04384D03*
X04298Y04233D03*
X0422Y04446D03*
X04299Y0388D03*
X04343Y03776D03*
X04164Y04042D03*
X04299Y04061D03*
X04589Y03921D03*
X04417Y03958D03*
X04465D03*
X03906Y03804D03*
X04036Y03803D03*
X04234Y03958D03*
X05304Y02954D03*
X04705Y02743D03*
X04214Y02671D03*
X03808Y02719D03*
X05732Y03711D03*
X05694Y03642D03*
X04376Y04882D03*
X0506Y03703D03*
X04994Y03521D03*
X04916Y0373D03*
X05062Y03877D03*
X0517Y03562D03*
X04722Y03417D03*
X03749Y05705D03*
X02868Y04271D03*
X02687Y04273D03*
X02766Y04185D03*
X0276Y04078D03*
X02762Y04359D03*
X02711Y04906D03*
X02571Y04852D03*
X03847Y05709D03*
X038Y05707D03*
X05307Y03555D03*
X03672Y0397D03*
X03342Y03161D03*
X03457Y03253D03*
X03709Y03264D03*
X03528Y03558D03*
X03924Y03281D03*
X03884Y03419D03*
X03762Y03542D03*
X04055Y02448D03*
X04764Y04539D03*
X04887Y04428D03*
X05024Y0446D03*
X05023Y04244D03*
X04724Y04282D03*
X04723Y04213D03*
X04767Y04359D03*
X04691Y04183D03*
X046Y04521D03*
X04489Y04478D03*
X04562Y04549D03*
X04737Y04153D03*
X04701Y04094D03*
X05398Y03256D03*
X05183Y03468D03*
X05422Y03302D03*
X05456Y03572D03*
X05428Y03605D03*
X04949Y03926D03*
X0495Y0397D03*
X0543Y03507D03*
X04801Y03879D03*
X04583Y03678D03*
X03289Y0332D03*
X02576Y03975D03*
X02676Y05182D03*
X02907Y04379D03*
X02846Y04047D03*
X03967Y03568D03*
X03931Y03538D03*
X03968Y03509D03*
X03931Y03479D03*
X03969Y0345D03*
X04524Y03264D03*
X03368Y03463D03*
X04476Y03312D03*
X03398Y03431D03*
X03153Y02713D03*
X033Y02582D03*
X03348Y02736D03*
X03434Y02791D03*
X0449Y02507D03*
X0431Y02448D03*
X04662Y0309D03*
X03886Y03093D03*
X03162Y03091D03*
X0359Y03083D03*
X03668Y03022D03*
X03653Y03134D03*
X03706Y03136D03*
X04059Y03359D03*
X04222Y03119D03*
X04155Y02588D03*
X04055Y02587D03*
X03589Y03207D03*
X03411Y02866D03*
X0351Y03115D03*
X03367Y03396D03*
X03328Y03352D03*
X03672Y02261D03*
X03628Y02253D03*
X03595Y02283D03*
X037Y02575D03*
X03748Y02574D03*
X03807Y02435D03*
X03229Y04806D03*
X02536Y03844D03*
X0261Y03718D03*
X0282Y03629D03*
X03233Y04579D03*
X03096Y04696D03*
X02899Y04983D03*
X03291Y04874D03*
X03288Y04809D03*
X03307Y04994D03*
X03419Y05035D03*
X03426Y04571D03*
X03477Y04865D03*
X03278Y04952D03*
X0274Y02732D03*
X04524Y02977D03*
X0395Y0543D03*
X04Y05429D03*
X0405Y05428D03*
X041Y05427D03*
X0415D03*
X042D03*
X039Y05429D03*
X0385Y05427D03*
X038Y05426D03*
X05355Y04667D03*
X05115Y04301D03*
X04504Y03842D03*
X0528Y0321D03*
X05321Y03176D03*
X05774Y04197D03*
X04056Y02634D03*
X04055Y02703D03*
X04842Y0316D03*
X03749Y04616D03*
X03783Y04763D03*
X02452Y04097D03*
X0243Y03954D03*
X03089Y04576D03*
X03417Y04736D03*
X02984Y04914D03*
X02843Y04851D03*
X03044Y05002D03*
X03209Y04996D03*
X0309Y04219D03*
X02582Y03928D03*
X04707Y02323D03*
X03749Y05524D03*
X04346Y04697D03*
X03972Y0458D03*
X03568Y04934D03*
X03583Y05556D03*
X043Y05626D03*
X04338Y05558D03*
X03638Y05525D03*
X03623Y05461D03*
X03585Y04549D03*
X04073Y04279D03*
X03964Y04197D03*
X04486Y0441D03*
X04457Y03732D03*
X03657Y0543D03*
X03427Y05425D03*
X03614Y04436D03*
X03622Y05093D03*
X03478Y04983D03*
X03593Y04698D03*
X03528Y04863D03*
X04301Y04773D03*
X04079Y04829D03*
X04026Y04515D03*
X04118Y04279D03*
X04095Y04196D03*
X04117Y05078D03*
X04055Y0508D03*
X04082Y05041D03*
X03801Y04036D03*
X05503Y04741D03*
X04583Y03552D03*
X0364Y05678D03*
X04427D03*
X05416Y04479D03*
X05737Y0445D03*
X05382Y03878D03*
X03196Y03833D03*
X04781Y03462D03*
X04342Y03732D03*
X04543Y03631D03*
X03553Y04403D03*
X03417Y0401D03*
X03281Y03913D03*
X03574Y04037D03*
X04297Y04667D03*
X03836Y04177D03*
X03697Y03928D03*
X02827Y03949D03*
X02805Y04014D03*
X03336Y04008D03*
X03607Y0505D03*
X03646Y04879D03*
X03701Y05016D03*
X03664Y04921D03*
X03558Y04977D03*
X0384Y0413D03*
X05478Y0448D03*
X0568Y04169D03*
X05666Y04065D03*
X05683Y04219D03*
X05062Y04035D03*
X04954Y04053D03*
X04779Y04092D03*
X04887Y04293D03*
X04886Y04234D03*
X0485Y04265D03*
X04818Y03593D03*
X042Y05066D03*
X04736Y04451D03*
X04619Y04098D03*
X04512Y04096D03*
X0378Y04947D03*
X03548Y05019D03*
X05565Y0389D03*
X0549Y03798D03*
X0463Y03453D03*
X04479Y03537D03*
X04466Y03602D03*
X04539Y02863D03*
X04127Y0292D03*
X03525Y02919D03*
X03416Y02948D03*
X03298Y03112D03*
X04272Y03718D03*
X04164Y03931D03*
X0463Y0532D03*
X02189Y0371D03*
X04619Y0575D03*
X03504Y0569D03*
X03013Y03642D03*
X03289Y03557D03*
X04906Y05515D03*
X05238Y05005D03*
X03428Y05307D03*
X03155Y05214D03*
X03097Y03949D03*
X02909Y03946D03*
X04449Y0434D03*
X04439Y0418D03*
X04528Y04138D03*
X04493Y04177D03*
X04433Y04094D03*
X04806Y02306D03*
X05004Y03564D03*
X05448Y03087D03*
X05195Y05024D03*
X05161Y04993D03*
X04838Y04535D03*
X04933Y04616D03*
X04826Y04738D03*
X04982Y04833D03*
X05419Y04781D03*
X05359D03*
X05257Y04842D03*
X05214Y04841D03*
X05171D03*
X03092Y0427D03*
X04623Y0381D03*
X04181Y03835D03*
X04622Y03765D03*
G54D55*
X03556Y03429D03*
X03604D03*
X03651D03*
X03556Y03382D03*
X03604D03*
X03651D03*
X03556Y03334D03*
X03604D03*
X03651D03*
X02713Y03829D03*
Y03876D03*
X02666Y03829D03*
Y03876D03*
X03256Y04206D03*
X03303D03*
X03256Y04253D03*
X03303D03*
G54D56*
X02917Y02799D03*
X05083D03*
G54D57*
X05083Y05201D03*
X02917D03*
M02*