%FSTAX23Y23*%
%MOIN*%
%SFA1B1*%

%IPPOS*%
%AMD53*
4,1,4,-0.033300,0.014400,-0.036200,-0.001000,0.033300,-0.014400,0.036200,0.001000,-0.033300,0.014400,0.0*
1,1,0.070900,-0.001500,-0.007700*
1,1,0.070900,0.001500,0.007700*
%
%ADD10C,0.015000*%
%ADD12R,0.035400X0.027600*%
%ADD19R,0.027600X0.035400*%
%ADD31R,0.019700X0.023600*%
%ADD32R,0.023600X0.019700*%
%ADD38C,0.008000*%
%ADD39C,0.020000*%
%ADD40C,0.012000*%
%ADD47C,0.003000*%
%ADD48C,0.059100*%
%ADD49R,0.059100X0.059100*%
%ADD50C,0.060000*%
%ADD51C,0.050000*%
%ADD52C,0.086600*%
G04~CAMADD=53~3~0.0~0.0~866.0~709.0~0.0~0.0~0~0.0~0.0~0.0~0.0~0~0.0~0.0~0.0~0.0~0~0.0~0.0~0.0~79.1~736.0~860.0*
%ADD53D53*%
%ADD54C,0.035000*%
%ADD55C,0.026000*%
%ADD56C,0.260000*%
%ADD57C,0.147000*%
%ADD58R,0.011400X0.065000*%
%ADD59R,0.065000X0.011400*%
%ADD60R,0.068900X0.011400*%
%ADD61R,0.011400X0.068900*%
%ADD62R,0.023600X0.059100*%
%ADD63O,0.009800X0.033500*%
%ADD64O,0.009800X0.031500*%
%ADD65R,0.035400X0.031500*%
%ADD66R,0.029100X0.110000*%
%ADD67R,0.017300X0.053900*%
%ADD68R,0.055100X0.047200*%
%ADD69R,0.031500X0.035400*%
%ADD70R,0.098400X0.098400*%
%ADD71O,0.033500X0.009800*%
%ADD72O,0.031500X0.009800*%
%ADD73R,0.141700X0.141700*%
%ADD74R,0.059100X0.023600*%
%ADD75R,0.023600X0.031500*%
%ADD76R,0.039400X0.031500*%
%ADD77R,0.047200X0.055100*%
%ADD78R,0.102400X0.043300*%
%ADD79R,0.047200X0.070900*%
%ADD80R,0.070900X0.047200*%
%ADD81R,0.066900X0.013800*%
%ADD82R,0.074800X0.086600*%
%ADD83O,0.063000X0.017700*%
%ADD84C,0.029100*%
%LNronecpuboard-v10-1*%
%LPD*%
G54D10*
X05446Y02904D02*
Y03099D01*
X04846Y02304D02*
X05446Y02904D01*
X04805Y02304D02*
X04846D01*
X05205Y02983D02*
X05283Y02905D01*
X04984Y02983D02*
X05205D01*
X04883Y02882D02*
X04984Y02983D01*
X04883Y02418D02*
Y02882D01*
X0537Y02905D02*
X05399Y02934D01*
X05283Y02905D02*
X0537D01*
X04821Y02356D02*
X04883Y02418D01*
X05766Y04188D02*
X05773Y04195D01*
X05766Y0342D02*
Y04188D01*
X05677Y03331D02*
X05766Y0342D01*
X03256Y03716D02*
X03571Y04031D01*
X03256Y02974D02*
Y03716D01*
X05238Y05058D02*
X05261D01*
X02993Y04759D02*
X03053Y04699D01*
X02775Y04759D02*
X02993D01*
X0281Y04715D02*
X02951D01*
X03028Y04638*
Y04221D02*
Y04638D01*
X03053Y0437D02*
Y04699D01*
X02775Y0468D02*
X0281Y04715D01*
X05503Y04741D02*
Y04792D01*
X03797Y0502D02*
X03819Y04998D01*
Y04429D02*
Y04998D01*
X03605Y02828D02*
X03633Y028D01*
X03402Y02828D02*
X03605D01*
X05399Y03105D02*
X0547Y03176D01*
X03633Y02705D02*
Y028D01*
X03608Y0268D02*
X03633Y02705D01*
X03282Y0332D02*
X03289D01*
X03703Y0348D02*
X03703Y0348D01*
X03607Y02679D02*
X03608Y0268D01*
X03347Y02735D02*
X03348Y02736D01*
X03347Y02688D02*
Y02735D01*
X03415Y02791D02*
X03434D01*
X03385Y02761D02*
X03415Y02791D01*
X03385Y02646D02*
Y02761D01*
X03377Y02638D02*
X03385Y02646D01*
X03347Y02638D02*
X03377D01*
X03347Y02591D02*
Y02638D01*
X03478Y02679D02*
X03607D01*
X03457Y02658D02*
X03478Y02679D01*
X03457Y0258D02*
Y02658D01*
Y02579D02*
Y0258D01*
X03477Y0256*
X03503*
X03515Y0251D02*
Y02546D01*
X03433Y02733D02*
X03535D01*
X03423Y02723D02*
X03433Y02733D01*
X03423Y02688D02*
Y02723D01*
X03415Y02524D02*
Y02591D01*
Y02524D02*
X0348Y02459D01*
X03625Y02368D02*
Y02505D01*
X03596Y02339D02*
X03625Y02368D01*
X03596Y02287D02*
Y02339D01*
X03554Y02459D02*
Y0251D01*
X0348Y02459D02*
X03554D01*
X03566Y02565D02*
Y02626D01*
X02721Y0342D02*
Y03618D01*
X0272Y03618D02*
X02721Y03618D01*
Y03416D02*
Y0342D01*
X02718Y0362D02*
X0272Y03618D01*
X03569Y02564D02*
X03625D01*
X03535Y02626D02*
X03566D01*
X03543Y02362D02*
Y02459D01*
X02775Y04759D02*
Y0476D01*
X0272Y03618D02*
X0272Y03618D01*
X02647Y0362D02*
X02718D01*
X05578Y033D02*
X05611Y03333D01*
X0547Y03217D02*
X05553Y033D01*
X04668Y02385D02*
X04698Y02356D01*
X04667Y02387D02*
X04668Y02385D01*
X0547Y03176D02*
Y03217D01*
X05553Y033D02*
X05578D01*
X0561Y03331D02*
X05613D01*
X05677*
X05649Y04574D02*
X0574D01*
X03767Y03963D02*
X04012D01*
X03795Y04039D02*
X03798Y04036D01*
X03801*
X03795Y04039D02*
X038Y04044D01*
Y0441*
X03564Y04037D02*
X03574D01*
X0425Y05018D02*
X0426Y05008D01*
X0425Y05018D02*
Y0519D01*
X038Y0441D02*
X03819Y04429D01*
X03485Y04985D02*
X03508D01*
X0354Y05017*
X03282Y0332D02*
X03289Y03327D01*
X04668Y02329D02*
Y02384D01*
X05065Y04617D02*
X05115Y04667D01*
X05355D02*
X05611D01*
X05115D02*
X05355D01*
X03256Y02974D02*
X03402Y02828D01*
X05459Y04835D02*
X05503Y04792D01*
X05398Y04844D02*
X05407Y04835D01*
X05459*
X0528Y04961D02*
X05397Y04844D01*
X0528Y04961D02*
Y05039D01*
X05261Y05058D02*
X0528Y05039D01*
X04698Y02356D02*
X04821D01*
X05399Y02934D02*
Y03105D01*
X05446Y03099D02*
X05448Y03097D01*
Y03087D02*
Y03097D01*
X04902Y04617D02*
X04933D01*
X05065*
X03103Y04183D02*
X03112Y04192D01*
X0316*
X03028Y04221D02*
X03066Y04183D01*
X03103*
X03092Y04285D02*
Y04331D01*
X03053Y0437D02*
X03092Y04331D01*
G54D12*
X0425Y02524D03*
Y02465D03*
X05565Y03739D03*
Y0368D03*
X0297Y04424D03*
Y04365D03*
X05518Y03738D03*
Y03679D03*
X05473Y03738D03*
Y03679D03*
X05428Y03738D03*
Y03679D03*
X05383Y03738D03*
Y03679D03*
X03288Y04653D03*
Y04594D03*
X03381Y04549D03*
Y04608D03*
X03336Y04549D03*
Y04608D03*
X03134Y04549D03*
Y04608D03*
X04785Y05134D03*
Y05075D03*
X054Y05144D03*
Y05085D03*
X0265Y04425D03*
Y04484D03*
X04655Y0389D03*
Y03949D03*
X02825Y03715D03*
Y03774D03*
X04082Y03971D03*
Y0403D03*
X03179Y04549D03*
Y04608D03*
X033Y02615D03*
Y02674D03*
X037Y02529D03*
Y0247D03*
X0375Y02529D03*
Y0247D03*
X03625Y02505D03*
Y02564D03*
G54D19*
X02526Y038D03*
X02467D03*
X04325Y02634D03*
X04384D03*
X03439Y0438D03*
X0338D03*
Y0443D03*
X03439D03*
X0448Y02684D03*
X04421D03*
X02959Y04615D03*
X029D03*
X03173Y04429D03*
X03232D03*
X03337D03*
X03278D03*
X0333Y0465D03*
X03389D03*
X03183Y04649D03*
X03124D03*
X04035Y03855D03*
X04094D03*
X03905D03*
X03964D03*
X04326Y02684D03*
X04385D03*
X04259Y05475D03*
X042D03*
X03173Y04384D03*
X03232D03*
X03249Y05132D03*
X03308D03*
X03691Y03543D03*
X03632D03*
X02724Y04185D03*
X02665D03*
X02724Y0436D03*
X02665D03*
X05119Y0446D03*
X0506D03*
X04384Y0253D03*
X04325D03*
X03865Y0405D03*
X03924D03*
X03964Y04145D03*
X03905D03*
X04094D03*
X04035D03*
X0442Y02634D03*
X04479D03*
Y02585D03*
X0442D03*
G54D31*
X03089Y04609D03*
Y04648D03*
X03248Y04653D03*
Y04614D03*
X03218Y04653D03*
Y04614D03*
X03435Y05249D03*
Y0521D03*
X0314Y05265D03*
Y05304D03*
X04795Y04784D03*
Y04745D03*
X0512Y04739D03*
Y047D03*
X0475Y03954D03*
Y03915D03*
X02647Y03659D03*
Y0362D03*
X0272Y03618D03*
Y03657D03*
X0268Y03658D03*
Y03697D03*
X0276Y03628D03*
Y03667D03*
X0279Y03628D03*
Y03667D03*
X03426Y04609D03*
Y04648D03*
X03475Y05069D03*
Y0503D03*
X03015Y04899D03*
Y0486D03*
G54D32*
X0281Y0388D03*
X02849D03*
X03233Y04544D03*
X03272D03*
X02937Y04948D03*
X02898D03*
X04289Y04475D03*
X0425D03*
X05074Y04345D03*
X05035D03*
X0268Y03728D03*
X02719D03*
X02759Y03698D03*
X0272D03*
X02482Y0388D03*
X02521D03*
X02482Y0391D03*
X02521D03*
X0296Y0396D03*
X02999D03*
X02969Y03645D03*
X0293D03*
X03515Y0251D03*
X03554D03*
X03845Y02435D03*
X03884D03*
X03439Y05075D03*
X034D03*
G54D38*
X05327Y05003D02*
Y05162D01*
X04974Y05516D02*
X05327Y05162D01*
X04905Y05516D02*
X04974D01*
X02998Y05428D02*
X03427D01*
X02809Y05239D02*
X02998Y05428D01*
X02809Y04822D02*
Y05239D01*
X04704Y0253D02*
Y02579D01*
Y02529D02*
Y0253D01*
X04085Y04725D02*
X04089Y04729D01*
X04085Y04676D02*
Y04725D01*
X04123Y04827D02*
Y04851D01*
X04121Y04825D02*
X04123Y04827D01*
X04121Y04788D02*
Y04825D01*
Y04788D02*
X04123Y04786D01*
Y04691D02*
Y04786D01*
X04137Y04819D02*
X04139Y0482D01*
X04137Y04794D02*
Y04819D01*
Y04794D02*
X04139Y04793D01*
X0408Y04894D02*
X04123Y04851D01*
X04089Y04657D02*
X04123Y04691D01*
X04139Y0482D02*
Y04857D01*
Y04684D02*
Y04793D01*
X04105Y0465D02*
X04139Y04684D01*
X04107Y04889D02*
X04139Y04857D01*
X03629Y02253D02*
Y02319D01*
X04565Y04937D02*
X04572Y04929D01*
X04602Y04691D02*
Y04954D01*
X04618Y04684D02*
Y0496D01*
X04637Y04733D02*
Y04984D01*
X04653Y0494D02*
X04678Y04965D01*
X04653Y04793D02*
Y0494D01*
X04572Y04984D02*
X04602Y04954D01*
X04588Y04991D02*
X04618Y0496D01*
X04618Y05003D02*
X04637Y04984D01*
X04744Y04756D02*
X04758Y04742D01*
X04744Y04756D02*
Y04829D01*
X04932Y05017*
X0389Y04642D02*
X03905Y04645D01*
X02653Y04591D02*
Y04622D01*
X0257Y04591D02*
X02674Y04695D01*
X0257Y04421D02*
Y04591D01*
X0269Y04465D02*
Y04795D01*
X02706Y04471D02*
Y04788D01*
X02722Y04478D02*
Y04782D01*
X02738Y04589D02*
Y04775D01*
Y04589D02*
X02811Y04516D01*
X02674Y04695D02*
Y04801D01*
X04513Y02644D02*
Y02749D01*
X04423Y02839D02*
X04513Y02749D01*
X04357Y02839D02*
X04423D01*
X04373Y02912D02*
X04551Y02734D01*
X04389Y02919D02*
X04585Y02723D01*
X04405Y02925D02*
X04601Y02729D01*
X04475Y02878D02*
X04617Y02736D01*
X04475Y02878D02*
Y03306D01*
X04551Y02673D02*
Y02734D01*
X04585Y02647D02*
Y02723D01*
X04601Y02571D02*
Y02729D01*
X04617Y02666D02*
Y02736D01*
X04503Y02634D02*
X04513Y02644D01*
X05664Y04057D02*
X05669Y04062D01*
X05566Y0389D02*
X0567D01*
Y04051*
Y03786D02*
Y0389D01*
X0557Y0368D02*
X05661D01*
Y03777*
Y03585D02*
Y0368D01*
X04855Y03648D02*
X04909D01*
X04344Y03777D02*
X04374Y03747D01*
X03573Y04759D02*
Y04874D01*
X02842Y02632D02*
X03029D01*
X02741Y02733D02*
X02842Y02632D01*
X04859Y02908D02*
X04969Y03019D01*
X05239*
X05304Y02954*
X05213Y03002D02*
X05227Y02988D01*
X04875Y02901D02*
X04975Y03002D01*
X05213*
X05228Y02988D02*
X05291Y02924D01*
X05227Y02988D02*
X05228D01*
X05291Y02924D02*
X05334D01*
X05127Y03577D02*
Y03683D01*
X05078Y03596D02*
Y03636D01*
X05031Y03549D02*
X05078Y03596D01*
X05095Y0359D02*
Y03734D01*
X05047Y03543D02*
X05095Y0359D01*
X05111Y03584D02*
Y03689D01*
X05063Y03536D02*
X05111Y03584D01*
X05079Y03529D02*
X05127Y03577D01*
X05079Y03447D02*
Y03529D01*
X05063Y03481D02*
Y03536D01*
X05047Y03488D02*
Y03543D01*
X05031Y03496D02*
Y03549D01*
X05026Y03491D02*
X05031Y03496D01*
X04975Y03417D02*
X05047Y03488D01*
X04688Y03106D02*
X05063Y03481D01*
X04Y02703D02*
X04055D01*
X03977Y02725D02*
X04Y02703D01*
X0425Y02563D02*
X04381D01*
X04053Y02444D02*
X04055Y02444D01*
X04055Y0235D02*
X04092D01*
X04198Y02456*
X0425Y02562D02*
Y02563D01*
Y02526D02*
Y02562D01*
X04215D02*
X0425D01*
X04198Y02456D02*
Y02545D01*
X04215Y02562*
X04376Y02598D02*
X04384Y02606D01*
X04171Y02598D02*
X04376D01*
X04161Y02588D02*
X04171Y02598D01*
X04384Y02437D02*
Y02533D01*
X04351Y02275D02*
X04396Y0223D01*
X04459*
X04482Y02253*
Y02337*
X04552Y02407*
X04606*
X04624Y02389*
X04667*
X04551Y02667D02*
Y02673D01*
X04381Y04045D02*
X04432Y04096D01*
X04575Y02275D02*
Y02351D01*
X04506Y02206D02*
X04575Y02275D01*
X04237Y02206D02*
X04506D01*
X04176Y02267D02*
X04237Y02206D01*
X04434Y02325D02*
X04551Y02442D01*
X04434Y02271D02*
Y02325D01*
X04034Y02267D02*
X04176D01*
X0395Y02183D02*
X04034Y02267D01*
X0395Y02132D02*
Y02183D01*
X04384Y0253D02*
Y02559D01*
X04351Y02404D02*
X04384Y02437D01*
X04351Y02275D02*
Y02404D01*
X04342Y0373D02*
X04343Y03731D01*
X04657Y03572D02*
X04718D01*
X04248Y02722D02*
Y02835D01*
Y02721D02*
Y02722D01*
Y02835D02*
X04341Y02928D01*
X04551Y02442D02*
Y02563D01*
X04524Y02586D02*
X04585Y02647D01*
X04479Y02586D02*
X04524D01*
X04381Y02563D02*
X04384Y02559D01*
X04275Y02267D02*
Y02323D01*
X04252Y02346D02*
X04275Y02323D01*
X04252Y02346D02*
Y02463D01*
X0425Y02465D02*
X04252Y02463D01*
X04055Y02444D02*
X04058Y02445D01*
X04002Y02435D02*
Y02505D01*
X039Y02457D02*
X03923Y02435D01*
X04002D02*
X04044D01*
X03923D02*
X04002D01*
X03884D02*
X03923D01*
X04456Y02507D02*
X0449D01*
X0442Y02542D02*
X04456Y02507D01*
X0442Y02542D02*
Y02585D01*
X04706Y02466D02*
X0472D01*
X04601Y02571D02*
X04706Y02466D01*
X04617Y02666D02*
X04704Y02579D01*
X05051Y03123D02*
X05119D01*
X04843Y02915D02*
X05051Y03123D01*
X04875Y02901D02*
Y02901D01*
X04859Y02908D02*
Y02908D01*
X04843Y02914D02*
Y02915D01*
X0479Y02776D02*
X04831Y02817D01*
X04626Y02776D02*
X0479D01*
X04539Y02863D02*
X04626Y02776D01*
X04772Y02713D02*
X04863Y02804D01*
X04679Y02713D02*
X04772D01*
X0466Y02731D02*
X04679Y02713D01*
X04863Y02804D02*
Y0289D01*
X04847Y0281D02*
Y02896D01*
X04705Y02743D02*
X04779D01*
X04847Y0281*
X04831Y02817D02*
Y02903D01*
X04843Y02914*
X04847Y02896D02*
X04859Y02908D01*
X04863Y0289D02*
X04875Y02901D01*
X05334Y02924D02*
X05364Y02954D01*
X04628Y0306D02*
X0478Y02908D01*
Y02829D02*
Y02908D01*
X05684Y04219D02*
Y04267D01*
X05653Y04196D02*
X0568Y04169D01*
X05697Y03642D02*
Y04145D01*
X03807Y02719D02*
X03823Y02735D01*
X05235Y02694D02*
X05287Y02641D01*
X05661Y03777D02*
X0567Y03786D01*
X05664Y04057D02*
X0567Y04051D01*
X05535Y03459D02*
X05661Y03585D01*
X05683Y04207D02*
X05713Y04177D01*
Y03757D02*
Y04177D01*
Y03757D02*
X05732Y03738D01*
X0568Y04162D02*
X05697Y04145D01*
X05637Y041D02*
Y04265D01*
X05653Y04196D02*
Y04259D01*
X05773Y04378*
X05637Y04265D02*
X05737Y04365D01*
Y0445*
X05773Y04378D02*
Y04462D01*
X0579Y04373D02*
Y04467D01*
X05684Y04267D02*
X0579Y04373D01*
X05523Y0389D02*
X05565D01*
X05397Y03764D02*
X05523Y0389D01*
X05233Y03764D02*
X05397D01*
X0539Y03878D02*
X05488D01*
X05618Y04008D02*
Y04081D01*
X05488Y03878D02*
X05618Y04008D01*
X05802Y03803D02*
X05807Y03797D01*
X05019Y03878D02*
X05062D01*
X058Y04142D02*
X05802Y0414D01*
Y03803D02*
Y0414D01*
X05639Y03798D02*
X05639Y03797D01*
X0549Y03798D02*
X05639D01*
X05668Y04062D02*
X05669Y04062D01*
X05276Y04367D02*
X05278D01*
Y04068D02*
Y04367D01*
X0526Y0405D02*
X05278Y04068D01*
X05276Y04367D02*
X05279Y0437D01*
X04503Y04832D02*
X04514Y04843D01*
X0274Y05048D02*
Y05056D01*
X0521Y0439D02*
Y04556D01*
Y0439D02*
X05223Y04377D01*
X05059Y04124D02*
X05127Y04056D01*
Y03997D02*
Y04056D01*
Y03997D02*
X05128Y03996D01*
Y03892D02*
Y03996D01*
X05062Y04143D02*
X05143Y04063D01*
Y04003D02*
Y04063D01*
Y04003D02*
X05144Y04002D01*
Y03885D02*
Y04002D01*
X05065Y04163D02*
X05159Y0407D01*
Y0401D02*
Y0407D01*
Y0401D02*
X0516Y04009D01*
Y03878D02*
Y04009D01*
X05103Y04366D02*
X05175Y04295D01*
Y04017D02*
Y04295D01*
Y04017D02*
X05192Y04D01*
Y03887D02*
Y04D01*
X0511Y04382D02*
X05191Y04302D01*
Y04023D02*
Y04302D01*
Y04023D02*
X05208Y04006D01*
Y03847D02*
Y04006D01*
X05117Y04399D02*
X05207Y04309D01*
Y0403D02*
Y04309D01*
Y0403D02*
X05224Y04012D01*
Y03803D02*
Y04012D01*
X05223Y04037D02*
Y04377D01*
Y04037D02*
X05261Y03999D01*
Y03934D02*
Y03999D01*
X03425Y03681D02*
Y03682D01*
X05569Y04003D02*
X05591Y04025D01*
X05489Y03787D02*
X0549Y03788D01*
X05618Y04081D02*
X05637Y041D01*
X05591Y04025D02*
Y0437D01*
X05307Y03555D02*
Y03692D01*
X05307Y03555D02*
X05307Y03555D01*
Y03692D02*
X05353Y03738D01*
X05384*
X05244Y03691D02*
X05274Y03721D01*
X05244Y03437D02*
Y03691D01*
X05207Y03695D02*
X05245Y03733D01*
X05207Y03546D02*
Y03695D01*
X05183Y03522D02*
X05207Y03546D01*
X05245Y03733D02*
Y03734D01*
X0517Y03564D02*
Y037D01*
X05233Y03764*
X05127Y03683D02*
X05312Y03868D01*
X05111Y03689D02*
X05224Y03803D01*
X05202Y03395D02*
X05244Y03437D01*
X05059Y03395D02*
X05202D01*
X05075Y03447D02*
X05079D01*
X04981Y03491D02*
X05026D01*
X03491Y03712D02*
X03513D01*
X03491D02*
Y0385D01*
Y03542D02*
Y03712D01*
X04692Y04796D02*
Y04917D01*
Y04796D02*
X04702Y04786D01*
Y04761D02*
Y04786D01*
X04692Y04751D02*
X04702Y04761D01*
X04692Y04733D02*
Y04751D01*
Y04917D02*
X04707Y04932D01*
X04684Y04725D02*
X04692Y04733D01*
X04707Y04932D02*
X04786D01*
X02665Y04124D02*
Y04187D01*
X0261Y04548D02*
X02653Y04591D01*
X0261Y04447D02*
Y04548D01*
Y04447D02*
X02631Y04425D01*
X0257Y04421D02*
X02607Y04384D01*
Y04316D02*
Y04384D01*
X02631Y04425D02*
X0265D01*
X0259Y04311D02*
X02657Y04243D01*
X02552Y04407D02*
X0259Y04369D01*
Y04311D02*
Y04369D01*
X02607Y04316D02*
X02651Y04272D01*
X0281Y03879D02*
Y039D01*
X02756Y04224D02*
X0276Y04228D01*
X02704Y04224D02*
X02756D01*
X02665Y04185D02*
X02704Y04224D01*
X02727Y04243D02*
X02744Y0426D01*
X02657Y04243D02*
X02727D01*
X02651Y04272D02*
X02688D01*
X02641Y041D02*
X02665Y04124D01*
X04893Y03649D02*
X04947D01*
X05006Y03569D02*
X05014Y03577D01*
Y03732*
X0503Y03725D02*
X05192Y03887D01*
X0503Y03633D02*
X05046Y03617D01*
X0503Y03633D02*
Y03725D01*
X05014Y03732D02*
X0516Y03878D01*
X04998Y03739D02*
X05144Y03885D01*
X04998Y03602D02*
Y03739D01*
X04968Y03572D02*
X04998Y03602D01*
X04213Y04518D02*
X04296D01*
X04233Y04498D02*
X04301D01*
X04301Y04498*
X04375Y04667D02*
X04384Y04676D01*
X043Y04667D02*
X04375D01*
X04296Y04669D02*
X043Y04667D01*
X0526Y03662D02*
X05278Y0368D01*
X0526Y03413D02*
Y03662D01*
X05199Y03352D02*
X0526Y03413D01*
X0506Y03352D02*
X05199D01*
X04628Y0306D02*
Y0345D01*
X04473Y03597D02*
X04488Y03582D01*
X03424Y03682D02*
X03425D01*
Y03681D02*
X03475D01*
Y03856*
Y0356D02*
Y03681D01*
X0339Y038D02*
X03646Y04056D01*
X0339Y03531D02*
Y038D01*
Y03531D02*
X0347Y0345D01*
X0538Y05199D02*
X054Y05179D01*
Y05144D02*
Y05179D01*
X05398Y05052D02*
Y05087D01*
Y05052D02*
X0543Y0502D01*
X03472Y03313D02*
X03505D01*
X03472Y03288D02*
Y03313D01*
Y03288D02*
X0351Y0325D01*
Y03115D02*
Y0325D01*
X03673Y0351D02*
X03691Y03528D01*
X03673Y0348D02*
Y0351D01*
X03691Y03528D02*
Y03543D01*
X0472Y02466D02*
X04759Y02427D01*
X03941Y05088D02*
X0395Y05097D01*
X03941Y04622D02*
Y05088D01*
X03899Y0458D02*
X03941Y04622D01*
X04265Y04629D02*
Y04938D01*
X0416Y04524D02*
X04265Y04629D01*
X0416Y04441D02*
Y04524D01*
X03883Y04632D02*
X0389Y04642D01*
X03883Y04222D02*
Y04632D01*
X04723Y04723D02*
Y04835D01*
X04714Y04714D02*
X04723Y04723D01*
X03371Y05162D02*
Y05168D01*
X03343Y05134D02*
X03371Y05162D01*
X0331Y05134D02*
X03343D01*
X04838Y04534D02*
Y04619D01*
X05145Y05025D02*
X05195D01*
X0408Y04829D02*
Y04837D01*
X04057Y04806D02*
X0408Y04829D01*
X04297Y04061D02*
X0431Y04074D01*
X0531Y04365D02*
X0542Y04475D01*
X04895Y03521D02*
X04994D01*
X03766Y04963D02*
X0379Y04938D01*
X0405Y04848D02*
Y0508D01*
X04295Y04583D02*
X0432Y04557D01*
X04384Y02606D02*
Y02634D01*
X04481D02*
X04503D01*
X04373Y02912D02*
Y03668D01*
X04389Y02919D02*
Y03662D01*
X04405Y02925D02*
Y03633D01*
X04327Y0247D02*
Y02531D01*
X04385Y02684D02*
Y02727D01*
X04275Y02635D02*
X04327D01*
X04265Y02625D02*
X04275Y02635D01*
X04244Y02625D02*
X04265D01*
X04105D02*
X04244D01*
X0448Y02684D02*
Y0273D01*
X04327Y02636D02*
Y02683D01*
X04387Y02684D02*
X04421D01*
X04385Y02634D02*
X0442D01*
X04357Y02839D02*
Y03675D01*
X03926Y02719D02*
Y02774D01*
Y02719D02*
X03933D01*
X042Y05435D02*
Y05475D01*
X03467Y04257D02*
Y04328D01*
X03425Y04215D02*
X03467Y04257D01*
X03349Y04215D02*
X03425D01*
X03473Y04182D02*
Y04189D01*
X03439Y04356D02*
X03467Y04328D01*
X03427Y04346D02*
X03451Y04322D01*
X03474Y04344D02*
X03483Y04335D01*
X03535Y04152D02*
Y04379D01*
X03506Y04123D02*
X03535Y04152D01*
X03418Y04123D02*
X03506D01*
X0343Y04139D02*
X03473Y04182D01*
X03411Y04139D02*
X0343D01*
X03395Y04123D02*
X03411Y04139D01*
X03067Y04123D02*
X03395D01*
X03523Y04598D02*
X03593Y04668D01*
X03523Y04415D02*
Y04598D01*
Y04415D02*
X03523Y04415D01*
Y0439D02*
Y04415D01*
Y0439D02*
X03535Y04379D01*
X03402Y04107D02*
X03418Y04123D01*
X03056Y04107D02*
X03402D01*
X03434Y03978D02*
X03585Y04128D01*
X03236Y03757D02*
X03614Y04135D01*
X03585Y04128D02*
Y04407D01*
X03614Y04135D02*
Y04435D01*
X03474Y04344D02*
Y04488D01*
X03439Y04356D02*
Y0438D01*
X03352Y04346D02*
X03427D01*
X03279Y04342D02*
X03282Y04345D01*
Y0438*
X03088Y04406D02*
Y04447D01*
Y04406D02*
X0311Y04384D01*
X03232Y04463D02*
X03257Y04488D01*
X03232Y04429D02*
Y04463D01*
X03407Y04488D02*
X03474D01*
X03339Y04368D02*
X03342Y04371D01*
X03339Y04359D02*
Y04368D01*
Y04359D02*
X03352Y04346D01*
X03334Y0438D02*
X03382D01*
X0311Y04384D02*
X03173D01*
X03337Y04429D02*
X03378D01*
X03439Y04382D02*
Y0443D01*
X03366Y04489D02*
Y04519D01*
X03381Y04534*
X03336Y04537D02*
Y04549D01*
X03311Y04512D02*
X03336Y04537D01*
X03311Y045D02*
Y04512D01*
X03179Y04549D02*
X032Y04528D01*
Y04492D02*
Y04528D01*
X03145Y04489D02*
Y04515D01*
X03134Y04526D02*
X03145Y04515D01*
X04542Y0522D02*
Y05243D01*
X04529Y05207D02*
X04542Y0522D01*
X04572Y04823D02*
Y04929D01*
X04478Y05207D02*
X04529D01*
X04541Y05156D02*
X04589Y05204D01*
Y05256*
X04365Y05288D02*
X04419Y05342D01*
X04365Y05144D02*
X04429Y05079D01*
X04365Y05144D02*
Y05288D01*
X04381Y052D02*
X0441Y05229D01*
X04381Y05151D02*
Y052D01*
Y05151D02*
X04426Y05105D01*
X0441Y05229D02*
X04455D01*
X04429Y05079D02*
X04507D01*
X04426Y05105D02*
X04507D01*
X04455Y05229D02*
X04533Y05307D01*
X04219Y04446D02*
X04236Y04429D01*
X04684Y04687D02*
Y04725D01*
X04706Y04665D02*
X0477D01*
X04684Y04687D02*
X04706Y04665D01*
X04832Y0505D02*
X04833Y05049D01*
Y04979D02*
Y05049D01*
X04786Y04932D02*
X04833Y04979D01*
X04882Y04994D02*
Y05259D01*
X04809Y05355D02*
X04932Y05232D01*
Y05017D02*
Y05232D01*
X0477Y04665D02*
X04777Y04658D01*
X04601Y04668D02*
X04618Y04684D01*
X04582Y04671D02*
X04602Y04691D01*
X05556Y03739D02*
X05618D01*
X05555Y03738D02*
X05556Y03739D01*
X04424Y04619D02*
Y0478D01*
X04398Y04807D02*
X04424Y0478D01*
X04444Y04619D02*
Y0482D01*
X04431Y04834D02*
X04444Y0482D01*
X04464Y04737D02*
Y04936D01*
X04447Y04953D02*
X04464Y04936D01*
X04482Y0462D02*
Y0493D01*
X04543Y0483D02*
Y04897D01*
X04523Y0481D02*
X04543Y0483D01*
X04521Y0492D02*
X04543Y04897D01*
X04703Y05079D02*
X04781D01*
X04828Y05145D02*
Y0525D01*
X04814Y05131D02*
X04828Y05145D01*
X04727Y05131D02*
X04814D01*
X04832Y0505D02*
Y05084D01*
X04805Y05336D02*
X04882Y05259D01*
X04727Y0513D02*
X04727Y05131D01*
X0476Y05D02*
Y05047D01*
X04753Y05054D02*
X0476Y05047D01*
X04674Y05054D02*
X04753D01*
X04618Y05182D02*
X04709D01*
X02698Y05042D02*
Y05072D01*
X02676Y0502D02*
X02698Y05042D01*
X0257Y0502D02*
X02676D01*
X02711Y05085D02*
X02772D01*
X02698Y05072D02*
X02711Y05085D01*
X02772D02*
X02775Y05082D01*
X02759Y04841D02*
Y05029D01*
X0274Y05048D02*
X02759Y05029D01*
X02775Y04835D02*
Y05082D01*
X02791Y04828D02*
Y05096D01*
X02738Y04775D02*
X02791Y04828D01*
X02705Y05182D02*
X02791Y05096D01*
X04346Y04954D02*
X04446Y05054D01*
X04346Y04706D02*
Y04954D01*
X04376Y04961D02*
X04443Y05028D01*
X04376Y04882D02*
Y04961D01*
X03614Y04435D02*
X03615Y04436D01*
X04515Y04448D02*
X04517Y04446D01*
Y04296D02*
Y04446D01*
X0506Y03654D02*
X05078Y03636D01*
X0506Y03654D02*
Y03703D01*
X04277Y03114D02*
Y03497D01*
X0426Y03514D02*
X04277Y03497D01*
X04293Y02971D02*
Y03623D01*
X04309Y02942D02*
Y03679D01*
X04325Y02935D02*
Y03698D01*
X04341Y02928D02*
Y03681D01*
X02188Y03714D02*
Y03992D01*
X03058Y04923D02*
X03097D01*
X03014Y04968D02*
X03058Y04923D01*
X03012Y04946D02*
X03054Y04903D01*
X02946Y04946D02*
X03012D01*
X03054Y04903D02*
X03097D01*
X03014Y0502D02*
X03096Y05102D01*
X03014Y04968D02*
Y0502D01*
X03112Y05152D02*
X03149Y05114D01*
X03228Y05097D02*
X0325Y05119D01*
X03228Y05054D02*
Y05097D01*
X03257Y05102D02*
X03299D01*
X03248Y05093D02*
X03257Y05102D01*
X03248Y05054D02*
Y05093D01*
X03346Y05054D02*
Y05097D01*
X03308Y05111D02*
Y05132D01*
X03299Y05102D02*
X03307Y0511D01*
X02951Y04821D02*
Y04929D01*
X0294Y0494D02*
X02951Y04929D01*
X02927Y04927D02*
X0294Y0494D01*
X02951Y04821D02*
X02961Y04811D01*
X02836Y04795D02*
X03013D01*
X02908Y04905D02*
Y04932D01*
X02895Y04944D02*
X02908Y04932D01*
X02895Y04944D02*
X02898Y04948D01*
X02927Y04905D02*
Y04927D01*
X03008Y04181D02*
Y04409D01*
X02993Y04424D02*
X03008Y04409D01*
Y04181D02*
X03067Y04123D01*
X0297Y04424D02*
X02993D01*
X02901Y04619D02*
Y04655D01*
X02959Y04615D02*
Y0465D01*
X029Y04592D02*
Y04608D01*
X02888Y0458D02*
X029Y04592D01*
X02888Y04545D02*
Y0458D01*
X02963Y04545D02*
Y04608D01*
X02926Y04436D02*
Y04474D01*
Y04436D02*
X02937Y04424D01*
X0297*
X03055Y0404D02*
X03255D01*
X0297Y04125D02*
X03055Y0404D01*
X04815Y03707D02*
X05097Y03989D01*
X04815Y03687D02*
Y03707D01*
X0531Y04001D02*
Y04365D01*
Y04001D02*
X05312Y03999D01*
X04772Y03597D02*
X04783Y03587D01*
X04726Y03597D02*
X04772D01*
X04783Y03479D02*
Y03587D01*
X04779Y03623D02*
X04831Y03675D01*
Y0369*
X05019Y03878*
X04775Y03647D02*
X04815Y03687D01*
X04848Y03624D02*
X04905D01*
X04825Y03601D02*
X04848Y03624D01*
X04598Y03631D02*
X04657Y03572D01*
X04543Y03631D02*
X04598D01*
X0466Y03546D02*
X04723D01*
X04624Y03582D02*
X0466Y03546D01*
X04488Y03582D02*
X04624D01*
X04588Y03553D02*
X04629D01*
X04661Y03521*
X04713*
X04664Y03496D02*
X04722D01*
X04638Y03522D02*
X04664Y03496D01*
X04527Y03522D02*
X04638D01*
X04299Y03837D02*
Y0388D01*
X04242Y0378D02*
X04299Y03837D01*
X04242Y03673D02*
Y0378D01*
X04261Y04009D02*
X04341Y03929D01*
Y03838D02*
Y03929D01*
X04307Y03804D02*
X04341Y03838D01*
X04307Y03716D02*
Y03804D01*
Y03716D02*
X04325Y03698D01*
X04278Y03709D02*
X04309Y03679D01*
X04278Y03709D02*
Y03718D01*
X04342Y03682D02*
Y0373D01*
X04341Y03681D02*
X04342Y03682D01*
X04374Y03692D02*
Y03747D01*
X04357Y03675D02*
X04374Y03692D01*
X0439Y03685D02*
Y03798D01*
X04373Y03668D02*
X0439Y03685D01*
X04452Y03725D02*
X04457D01*
X04389Y03662D02*
X04452Y03725D01*
X04381Y03807D02*
X0439Y03798D01*
X04421Y03649D02*
X04423D01*
X04405Y03633D02*
X04421Y03649D01*
X04214Y02824D02*
X04325Y02935D01*
X04252Y03089D02*
X04277Y03114D01*
X04242Y03673D02*
X04293Y03623D01*
X04192Y02871D02*
X04293Y02971D01*
X04205Y02839D02*
X04309Y02942D01*
X02666Y04361D02*
Y0439D01*
X0265Y04406D02*
X02666Y0439D01*
X0265Y04406D02*
Y04425D01*
X02723Y04518D02*
X02758D01*
X0265Y04484D02*
Y04518D01*
X02485Y03182D02*
X02952D01*
X02427Y0324D02*
X02485Y03182D01*
X03323Y03978D02*
X03434D01*
X02709Y03976D02*
X02781Y04048D01*
X02838*
X02771Y04015D02*
X02803D01*
X02729Y03973D02*
X02771Y04015D01*
X02729Y0393D02*
Y03973D01*
X02709Y0393D02*
Y03976D01*
X02759Y04048D02*
Y04078D01*
X0269Y03979D02*
X02759Y04048D01*
X0269Y0393D02*
Y03979D01*
X03043Y04075D02*
X03356D01*
X03049Y04091D02*
X03428D01*
X02899Y04241D02*
Y04301D01*
X02935Y04228D02*
Y04351D01*
Y04228D02*
X03056Y04107D01*
X02899Y04241D02*
X03049Y04091D01*
X02726Y04125D02*
X0297D01*
X02737Y04109D02*
X02963D01*
X02977Y04141D02*
X03043Y04075D01*
X02909Y04141D02*
X02977D01*
X0279Y0426D02*
X02909Y04141D01*
X02744Y0426D02*
X0279D01*
X0265Y04049D02*
X02726Y04125D01*
X0267Y04042D02*
X02737Y04109D01*
X03866Y0509D02*
X039Y05124D01*
X03866Y04308D02*
Y0509D01*
X0384Y0413D02*
X03899Y04189D01*
X03838Y04177D02*
X03883Y04222D01*
X03899Y04189D02*
Y0458D01*
X04801Y03879D02*
X04818Y03896D01*
X04796Y04212D02*
X04904Y04104D01*
X04723Y04212D02*
X04796D01*
X04807Y04247D02*
X04851Y04202D01*
X04807Y04247D02*
Y04298D01*
X04848Y04183D02*
X04959D01*
X0475Y04282D02*
X04848Y04183D01*
X04733Y04282D02*
X0475D01*
X04803Y04183D02*
X04901Y04084D01*
X04691Y04183D02*
X04803D01*
X04904Y04104D02*
X04959D01*
X04901Y04084D02*
X04959D01*
X04886Y04468D02*
Y04471D01*
Y04469D02*
X0489D01*
X04902Y04498D02*
X04959D01*
X04897Y04504D02*
X04902Y04498D01*
X04856Y04428D02*
X04883D01*
X04825Y04459D02*
X04856Y04428D01*
X0468Y04549D02*
X04725Y04505D01*
X04123Y04896D02*
X04167Y04852D01*
Y04819D02*
Y04852D01*
X03678Y04037D02*
Y04908D01*
X03908Y04989D02*
Y05066D01*
Y04989D02*
X0392Y04977D01*
X03908Y04978D02*
X03919D01*
X04005Y04566D02*
Y05092D01*
X04Y05097D02*
X04005Y05092D01*
X04Y05097D02*
Y0519D01*
X03843Y05099D02*
X0385Y05106D01*
X03843Y04418D02*
Y05099D01*
X0385Y05106D02*
Y0519D01*
X039Y05124D02*
Y0519D01*
X04574Y05648D02*
X04574Y05649D01*
X04574Y05473D02*
Y05648D01*
Y05473D02*
X04692Y05355D01*
X04674Y05336D02*
X04805D01*
X04825Y0525D02*
Y05292D01*
X04798Y0532D02*
X04825Y05292D01*
X0463Y0532D02*
X04798D01*
X04692Y05355D02*
X04809D01*
X04425Y05585D02*
X04674Y05336D01*
X04419Y05342D02*
X04526D01*
X04541Y05298D02*
X04542Y05301D01*
X04526Y05342D02*
X04534Y0535D01*
X04541Y05343*
X04435Y04998D02*
X04527D01*
X04407Y04969D02*
X04435Y04998D01*
X04407Y04871D02*
Y04969D01*
X04443Y05028D02*
X04507D01*
X04482Y0493D02*
X04499Y04947D01*
X04482Y0462D02*
X04483Y04619D01*
X04512Y04845D02*
X04514Y04843D01*
X05738Y04497D02*
X05773Y04462D01*
X05628Y04497D02*
X05738D01*
X05744Y04513D02*
X0579Y04467D01*
X05635Y04513D02*
X05744D01*
X05518Y0463D02*
X05635Y04513D01*
X05522Y04603D02*
X05628Y04497D01*
X0526Y04603D02*
X05522D01*
X05243Y04586D02*
X0526Y04603D01*
X02641Y02713D02*
X02641Y02712D01*
X03232Y02428D02*
X03239D01*
X03029Y02632D02*
X03232Y02428D01*
X0322Y02616D02*
Y03766D01*
X03425Y0235D02*
Y0241D01*
X0322Y02616D02*
X03425Y0241D01*
X03558Y03059D02*
Y03151D01*
X03554Y03154D02*
Y03283D01*
Y03154D02*
X03558Y03151D01*
X03542Y02997D02*
Y03145D01*
X03535Y03151D02*
X03542Y03145D01*
X03535Y03151D02*
Y03283D01*
X03558Y03059D02*
X03593Y03024D01*
X03411Y02866D02*
X03542Y02997D01*
X04059Y02449D02*
X04079Y02469D01*
X03629Y02319D02*
X03706Y02396D01*
X0406Y02412D02*
X04105Y02456D01*
X03851Y02412D02*
X0406D01*
X03845Y02417D02*
X03851Y02412D01*
X04067Y02396D02*
X0413Y02459D01*
X03706Y02396D02*
X04067D01*
X04074Y0238D02*
X04156Y02462D01*
X03712Y0238D02*
X04074D01*
X03674Y02341D02*
X03712Y0238D01*
X03845Y02417D02*
Y02435D01*
X039Y02457D02*
Y02505D01*
X04044Y02435D02*
X04053Y02444D01*
X04079Y02569D02*
X04085Y02575D01*
X04068Y02631D02*
X04085Y02614D01*
Y02575D02*
Y02614D01*
X04061Y02631D02*
X04068D01*
X04058Y02634D02*
X04061Y02631D01*
X03899Y02727D02*
X039Y02728D01*
X03899Y02692D02*
Y02727D01*
Y02692D02*
X03927Y02664D01*
X03892Y0263D02*
X03977Y02545D01*
X03688Y0263D02*
X03892D01*
X03659Y02601D02*
X03688Y0263D01*
X03608Y0268D02*
X03642Y02646D01*
X04069Y02664D02*
X04105Y02628D01*
X03927Y02664D02*
X04069D01*
X0472Y03623D02*
X04779D01*
X0473Y03647D02*
X04775D01*
X05478Y04089D02*
Y0448D01*
X05344Y03955D02*
X05478Y04089D01*
X05344Y03954D02*
Y03955D01*
X05312Y03868D02*
Y03999D01*
X05473Y03636D02*
Y03644D01*
X05472Y03635D02*
X05473Y03636D01*
X04843Y04093D02*
X04869D01*
X04897Y04064*
X05018Y04035D02*
X05062D01*
X04999Y04054D02*
X05018Y04035D01*
X04956Y04054D02*
X04999D01*
X04959Y04124D02*
X05059D01*
X04959Y04143D02*
X05062D01*
X04959Y04163D02*
X05065D01*
X04966Y0373D02*
X05128Y03892D01*
X04915Y0373D02*
X04966D01*
X04024Y05091D02*
X0405Y05117D01*
X04024Y04562D02*
Y05091D01*
X0395Y05097D02*
Y0519D01*
X04131Y04105D02*
Y0421D01*
X04112Y04229D02*
X04131Y0421D01*
X04058Y04229D02*
X04112D01*
X04147Y04059D02*
Y04217D01*
X04117Y04247D02*
X04147Y04217D01*
X04063Y04247D02*
X04117D01*
X04073Y04396D02*
X04078Y04401D01*
X04073Y04289D02*
Y04396D01*
X04012Y04458D02*
X04057Y04503D01*
X04012Y04298D02*
Y04458D01*
X03992Y04295D02*
Y0453D01*
Y04295D02*
X04058Y04229D01*
X04012Y04298D02*
X04063Y04247D01*
X03957Y04514D02*
Y04518D01*
X03992Y0453D02*
X04024Y04562D01*
X03957Y04518D02*
X04005Y04566D01*
X04026Y04542D02*
X04039Y04555D01*
X04026Y04519D02*
Y04542D01*
X04041Y04556D02*
Y04839D01*
X04619Y041D02*
Y04362D01*
X04594Y04387D02*
X04619Y04362D01*
X04584Y0442D02*
X04704D01*
X04537Y04373D02*
X04584Y0442D01*
X04537Y04288D02*
Y04373D01*
X04299Y04278D02*
X04317D01*
X04234Y04213D02*
X04299Y04278D01*
X04214Y04215D02*
X04292Y04294D01*
X04214Y03979D02*
Y04215D01*
X04292Y04294D02*
X0431D01*
X04234Y03959D02*
Y04213D01*
Y03959D02*
X04235Y03958D01*
X04204Y0397D02*
X04214Y03979D01*
X04196Y04026D02*
Y04298D01*
X04164Y03994D02*
X04196Y04026D01*
X04261Y04135D02*
X04289Y04163D01*
X04261Y04009D02*
Y04135D01*
X04362Y0434D02*
X04446D01*
X04474Y04408D02*
X04484D01*
X04849Y04373D02*
X04888D01*
X03096Y03949D02*
X03327D01*
X04094Y04309D02*
Y04426D01*
Y04309D02*
X04118Y04285D01*
X04089Y04443D02*
Y04657D01*
X04078Y04432D02*
X04089Y04443D01*
X04078Y04401D02*
Y04432D01*
X04105Y04437D02*
Y0465D01*
X04094Y04426D02*
X04105Y04437D01*
X04073Y04467D02*
Y04663D01*
X04043Y04437D02*
X04073Y04467D01*
X04057Y04503D02*
Y04806D01*
X04073Y04663D02*
X04085Y04676D01*
X04041Y04839D02*
X0405Y04848D01*
X042Y04476D02*
X04211D01*
X0419Y04466D02*
X042Y04476D01*
X0419Y04399D02*
Y04466D01*
X04211Y04476D02*
X04233Y04498D01*
X0418Y04389D02*
X0419Y04399D01*
X0418Y04314D02*
Y04389D01*
X04043Y04433D02*
Y04437D01*
X03851Y04293D02*
X03866Y04308D01*
X04286Y04399D02*
X04286Y044D01*
X04299*
X04319Y04419*
X0418Y04314D02*
X04196Y04298D01*
X04164Y03931D02*
Y03994D01*
X04321Y04084D02*
X04362D01*
X04311Y04074D02*
X04321Y04084D01*
X0431Y04074D02*
X04311D01*
X04204Y03945D02*
Y0397D01*
X04206Y0431D02*
X04304D01*
X04196Y04321D02*
Y04361D01*
Y04321D02*
X04206Y0431D01*
X04196Y04361D02*
X04214Y04379D01*
Y04383*
X04228Y0435D02*
X04247Y04369D01*
X04228Y04348D02*
Y0435D01*
X04247Y04369D02*
X04309D01*
X04223Y04343D02*
X04228Y04348D01*
X04298Y04248D02*
X04311Y04261D01*
X04362*
X0425Y0446D02*
X04262Y04448D01*
X0425Y0446D02*
Y04468D01*
X04243Y04475D02*
X0425Y04468D01*
X0432Y04281D02*
X04362D01*
X04317Y04278D02*
X0432Y04281D01*
X04317Y04301D02*
X04362D01*
X0431Y04294D02*
X04317Y04301D01*
X04315Y04321D02*
X04362D01*
X04304Y0431D02*
X04315Y04321D01*
X04309Y04369D02*
X04318Y0436D01*
X04262Y04448D02*
X04302D01*
X04589Y03921D02*
X0459D01*
X04601Y03932*
X04555Y03706D02*
X04583Y03678D01*
X04555Y03706D02*
Y03946D01*
X04582Y03973*
Y04022*
X04417Y03959D02*
X04424Y03966D01*
Y04022*
X04444Y03978D02*
X04465Y03958D01*
X04444Y03978D02*
Y04022D01*
X03906Y03796D02*
Y03804D01*
X04036Y03793D02*
Y03803D01*
X04035Y03792D02*
X04036Y03793D01*
X04163Y0393D02*
X04164Y03931D01*
X04601Y03932D02*
Y04022D01*
X04641Y03975D02*
X04659Y03958D01*
X04704Y03899D02*
Y03944D01*
X04695Y0389D02*
X04704Y03899D01*
X04667Y0389D02*
X04695D01*
X04704Y03944D02*
X04714Y03954D01*
X04214Y02671D02*
Y02824D01*
X03947Y02646D02*
X04028Y02564D01*
X03642Y02646D02*
X03947D01*
X05732Y03711D02*
Y03738D01*
X05683Y04207D02*
Y04219D01*
X03823Y02735D02*
Y02774D01*
X05242Y0463D02*
X05518D01*
X04384Y04676D02*
Y04709D01*
X04366Y04727D02*
X04384Y04709D01*
X04366Y04727D02*
Y0483D01*
X04407Y04871*
X04346Y04706D02*
X04355Y04697D01*
X04499Y04947D02*
X045D01*
X04568Y04819D02*
X04572Y04823D01*
X04893Y03495D02*
X04977D01*
X04981Y03491*
X04722Y03417D02*
X04975D01*
X04667Y03106D02*
X04688D01*
X05095Y03734D02*
X05208Y03847D01*
X02838Y04048D02*
X02841Y04045D01*
X02844Y04048*
X0352Y04935D02*
X03568D01*
X02809Y04822D02*
X02836Y04795D01*
X02676Y05182D02*
X02705D01*
X02722Y04782D02*
X02775Y04835D01*
X02722Y04478D02*
X02899Y04301D01*
X02706Y04471D02*
X02868Y04309D01*
X02706Y04788D02*
X02759Y04841D01*
X0269Y04465D02*
X02724Y0443D01*
X0269Y04795D02*
X02741Y04846D01*
X02674Y04801D02*
X02711Y04839D01*
X02868Y04271D02*
Y04309D01*
X02724Y0436D02*
Y0443D01*
X02552Y04407D02*
Y04408D01*
X02533Y04427D02*
X02552Y04408D01*
X02502Y04427D02*
X02533D01*
X02729Y04185D02*
X02766D01*
X02711Y04839D02*
Y04906D01*
X02728Y05012D02*
X02741Y04999D01*
Y04846D02*
Y04999D01*
X03847Y05709D02*
X039Y05656D01*
Y05429D02*
Y05656D01*
X038Y05707D02*
X0385Y05657D01*
Y05427D02*
Y05657D01*
X03749Y05705D02*
X038Y05654D01*
Y05426D02*
Y05654D01*
X05383Y03738D02*
X05428D01*
X05518D02*
X05555D01*
X03865Y0405D02*
Y04069D01*
X03365Y03161D02*
X03457Y03253D01*
X03342Y03161D02*
X03365D01*
X03709Y03264D02*
X03729D01*
X03884Y03419*
X03527Y03558D02*
Y03559D01*
X03549Y03537D02*
X03575D01*
X03491Y03542D02*
X03505Y03528D01*
X03534*
X03554Y03507*
Y0348D02*
Y03507D01*
X03535Y0348D02*
Y03498D01*
X03522Y03512D02*
X03535Y03498D01*
X03488Y03512D02*
X03522D01*
X03475Y03559D02*
Y0356D01*
Y03525D02*
Y0356D01*
Y03525D02*
X03488Y03512D01*
X03692Y03547D02*
Y03574D01*
X03673Y03592D02*
X03692Y03574D01*
X03575Y03592D02*
X03673D01*
X03924Y03281D02*
Y03379D01*
X03884Y03419D02*
X03924Y03379D01*
X03762Y03542D02*
X03765D01*
X03885Y03568D02*
X03967D01*
X03878Y03538D02*
X03925D01*
X0387Y03508D02*
X03918D01*
X03864Y03479D02*
X03931D01*
X03737Y03352D02*
X03864Y03479D01*
X03734Y03372D02*
X0387Y03508D01*
X03732Y03391D02*
X03878Y03538D01*
X03729Y03411D02*
X03885Y03568D01*
X03702Y03411D02*
X03729D01*
X03702Y03391D02*
X03732D01*
X03702Y03372D02*
X03734D01*
X03702Y03352D02*
X03737D01*
X03857Y03449D02*
X03968D01*
X03721Y03313D02*
X03857Y03449D01*
X03702Y03313D02*
X03721D01*
X03968Y03449D02*
X03969Y0345D01*
X03918Y03508D02*
X03918Y03508D01*
X03925Y03538D02*
X03926Y03538D01*
X04055Y02448D02*
X04058Y02445D01*
X04079Y02469D02*
Y02503D01*
X04105Y02456D02*
Y02505D01*
X0413Y02459D02*
Y02505D01*
X04156Y02462D02*
Y02505D01*
X0472Y0451D02*
Y04619D01*
X0489Y04469D02*
X049Y04458D01*
X049Y04439D02*
X049Y04439D01*
X04887Y04428D02*
X049Y04439D01*
X04886Y04425D02*
X04887Y04428D01*
Y04309D02*
Y04321D01*
X049Y04439D02*
X04959D01*
X0483Y04321D02*
X04887D01*
X04957Y04263D02*
X04959Y04261D01*
X04886Y04234D02*
X04892D01*
X04893Y04233*
X04914Y04242D02*
X04959D01*
X04905Y04233D02*
X04914Y04242D01*
X04893Y04233D02*
X04905D01*
X04807Y04298D02*
X0483Y04321D01*
X049Y04281D02*
X04959D01*
X0512Y04434D02*
Y04463D01*
X05105Y04419D02*
X0512Y04434D01*
X04959Y04419D02*
X05105D01*
X05023Y04222D02*
Y04244D01*
X04766Y04122D02*
X04791D01*
X04687Y04183D02*
X04691D01*
X04433D02*
X0444D01*
X04414Y04244D02*
X04442D01*
X04362Y04242D02*
X04412D01*
X04362Y04222D02*
X04363Y04223D01*
X04515Y04448D02*
X04561D01*
X04476D02*
X04515D01*
Y04449*
X04599Y04486D02*
Y04518D01*
X04561Y04448D02*
X04599Y04486D01*
X04466Y04458D02*
X04476Y04448D01*
X04313Y04458D02*
X04466D01*
X04621Y04545D02*
Y04619D01*
X0455Y04519D02*
X04595D01*
X04533Y04537D02*
X0455Y04519D01*
X04533Y04537D02*
Y04561D01*
X04542Y04571*
Y04619*
X04447Y04478D02*
X04489D01*
X04601Y04619D02*
Y04668D01*
X04582Y04619D02*
Y04671D01*
X04764Y04539D02*
X04779Y04554D01*
Y04619*
X049Y04458D02*
X04959D01*
X04749Y04105D02*
X04766Y04122D01*
X04749Y04105D02*
X04749Y04105D01*
X04739Y04095D02*
X04749Y04105D01*
X04739Y04022D02*
Y04095D01*
X047Y04022D02*
Y0409D01*
X04562Y04022D02*
Y04105D01*
X05183Y03468D02*
Y03522D01*
X05473Y03738D02*
X05518D01*
X05428D02*
X05473D01*
X05518Y03572D02*
Y03679D01*
X05456Y03572D02*
X05518D01*
X05427Y03507D02*
X0543D01*
X05428Y03601D02*
Y03679D01*
X04922Y03926D02*
X04949D01*
X04877Y0397D02*
X04922Y03926D01*
X04877Y0397D02*
Y04022D01*
X04905Y0397D02*
X0495D01*
X04897Y03977D02*
X04905Y0397D01*
X04897Y03977D02*
Y04064D01*
X04818Y03896D02*
Y04022D01*
X05472Y03635D02*
Y03675D01*
X04838Y03861D02*
X04871Y03829D01*
X04838Y03861D02*
Y04022D01*
X04857Y03894D02*
X04876Y03876D01*
X04857Y03894D02*
Y04022D01*
X04523Y03882D02*
Y04022D01*
X04766Y03917D02*
X04779Y0393D01*
X0475Y03957D02*
Y03972D01*
X04759Y03981*
Y04022*
X04641Y03975D02*
Y04022D01*
X04362Y04143D02*
X04451D01*
X0468Y04551D02*
Y04619D01*
X04721D02*
X04739D01*
X04959Y04458D02*
X0496Y04459D01*
X04959Y04399D02*
X05117D01*
X05011Y04382D02*
X0511D01*
X05009Y0438D02*
X05011Y04382D01*
X04959Y0438D02*
X05009D01*
X05018Y04366D02*
X05103D01*
X05012Y0436D02*
X05018Y04366D01*
X04959Y0436D02*
X05012D01*
X04299Y04104D02*
X04362D01*
X04306Y04429D02*
X04314Y04437D01*
X04302Y04448D02*
X04313Y04458D01*
X04319Y04419D02*
X04362D01*
X04314Y04437D02*
X04361D01*
X03703Y0348D02*
X03703D01*
X03655D02*
X03703D01*
X03702Y0345D02*
Y03478D01*
X04464Y04619D02*
Y04736D01*
X02574Y03977D02*
X02576Y03975D01*
X02457Y03931D02*
X02503Y03977D01*
X02457Y03873D02*
Y03931D01*
X02441Y03858D02*
X02457Y03873D01*
X02441Y03777D02*
Y03858D01*
Y03777D02*
X02448Y0377D01*
X02497*
X02498Y0377*
X0261Y03718D02*
X02626D01*
X02614Y03717D02*
X02647Y03684D01*
Y03659D02*
Y03684D01*
X02804Y04013D02*
X02805Y04014D01*
X02907Y04379D02*
X02935Y04351D01*
X02757Y04358D02*
X02758Y04359D01*
X02762*
X02734D02*
X02758D01*
X0267Y0393D02*
Y04042D01*
X0265Y0393D02*
Y04049D01*
X02351Y04577D02*
X02502Y04427D01*
X04095Y02839D02*
X04205D01*
X03942Y02871D02*
X04192D01*
X04079Y02823D02*
X04095Y02839D01*
X04079Y02774D02*
Y02823D01*
X039Y02828D02*
X03942Y02871D01*
X03926Y03538D02*
X03931D01*
X03918Y03508D02*
X03967D01*
X03968Y03509*
X04473Y03308D02*
X04475Y03306D01*
X04524Y02977D02*
Y03264D01*
X03889Y03089D02*
X04252D01*
X0347Y03411D02*
X03505D01*
X0342Y03462D02*
X0347Y03411D01*
X03369Y03462D02*
X0342D01*
X03398Y03431D02*
X03437Y03392D01*
X03607Y02681D02*
X03608Y0268D01*
X039Y02774D02*
Y02828D01*
X0431Y02448D02*
Y02453D01*
X04327Y0247*
X0347Y0345D02*
X03505D01*
X03574Y0348D02*
Y03533D01*
X03633Y0348D02*
Y03534D01*
X03759Y03092D02*
X039Y03233D01*
X03933D02*
X04059Y03359D01*
X039Y03233D02*
X03933D01*
X04124Y03217D02*
X04222Y03119D01*
X03906Y03217D02*
X04124D01*
X03765Y03076D02*
X03906Y03217D01*
X0359Y03083D02*
X03597Y03076D01*
X03765*
X03593Y03024D02*
X03661D01*
Y03022D02*
Y03024D01*
Y03022D02*
X03668D01*
X03672Y03169D02*
X03706Y03136D01*
X03672Y03169D02*
Y03283D01*
X03635Y03092D02*
X03759D01*
X03633Y03233D02*
Y03283D01*
X03623Y03223D02*
X03633Y03233D01*
X03623Y03104D02*
Y03223D01*
Y03104D02*
X03635Y03092D01*
X03653Y03134D02*
Y03283D01*
X039Y02728D02*
Y02774D01*
X04028Y02505D02*
Y02564D01*
X03977Y02725D02*
Y02774D01*
X04105Y02506D02*
Y02628D01*
X04159Y0259D02*
X04161Y02588D01*
X04155D02*
X04157D01*
X04159Y0259*
X04054Y02505D02*
Y02586D01*
X04055Y02587*
X03674Y02262D02*
Y02341D01*
X03505Y03332D02*
X03555D01*
X03505Y03431D02*
X03544D01*
X03653Y03443D02*
Y0348D01*
X03662Y03431D02*
X03702D01*
Y03431D02*
Y0345D01*
X03667Y03332D02*
X03702D01*
X03574Y0322D02*
X03589Y03206D01*
X03574Y0322D02*
Y03283D01*
X03367Y03396D02*
X0339Y03372D01*
X03505*
X03437Y03392D02*
X03505D01*
X03328Y03352D02*
X03505D01*
X0323Y04422D02*
X03237Y04429D01*
X03389Y0465D02*
X03426D01*
X03089Y04649D02*
X03124D01*
X02647Y03779D02*
X0265Y03775D01*
X02982Y0486D02*
X03015D01*
X03033*
X0276Y03629D02*
X02789D01*
X0279Y0363*
X03307Y04994D02*
Y05054D01*
X03308Y05053D02*
X03328D01*
X03307Y05051D02*
Y05054D01*
X03874Y02505D02*
X039D01*
X04079Y02503D02*
X04081Y02505D01*
X03209Y048D02*
X03229D01*
Y04806*
X03209Y048D02*
X03229D01*
X03248*
X03925Y04059D02*
X03934Y0405D01*
X03905Y04115D02*
Y04145D01*
X02521Y03911D02*
X02543D01*
X0276Y0367D02*
X02786D01*
X02759Y03698D02*
Y03732D01*
Y0367D02*
Y03698D01*
Y0367D02*
X0276D01*
X0268Y03658D02*
X0272D01*
X02681Y03697D02*
Y03728D01*
X02719D02*
Y03743D01*
X02526Y03799D02*
X02586D01*
X03905Y03796D02*
Y03855D01*
X03184Y04649D02*
Y04676D01*
X03327Y04649D02*
X0333Y04616D01*
X03925Y04059D02*
Y04095D01*
X03822Y02574D02*
X03921D01*
X03793Y02545D02*
X03822Y02574D01*
X03793Y02482D02*
Y02545D01*
X03781Y0247D02*
X03793Y02482D01*
X0375Y0247D02*
X03781D01*
X03921Y02574D02*
X03951Y02543D01*
Y02505D02*
Y02543D01*
X0375Y02529D02*
Y02571D01*
X037Y02529D02*
Y02575D01*
X03659Y02491D02*
Y02601D01*
Y02491D02*
X03679Y0247D01*
X039Y02505D02*
Y02505D01*
X03807Y02435D02*
X03845D01*
X03326Y04655D02*
X03327Y04649D01*
X03964Y03897D02*
X04094D01*
X03964Y03855D02*
Y03897D01*
X03229Y048D02*
Y04806D01*
Y04808*
X03366Y04844D02*
X03418D01*
X03366D02*
Y04845D01*
X02897Y0495D02*
X02898Y04948D01*
Y04974*
X03679Y0247D02*
X037D01*
X03977Y02505D02*
Y02545D01*
X03874Y02505D02*
Y02505D01*
X033Y02582D02*
Y02615D01*
X03386Y05054D02*
X034Y05068D01*
X03366Y05054D02*
X03386D01*
X03366Y04886D02*
Y05054D01*
X03095Y04866D02*
X03097Y04864D01*
X03189*
X03244Y04919*
X03302*
X03336Y04884*
X03418*
X0306Y04864D02*
X03097D01*
X03007Y04811D02*
X0306Y04864D01*
X02961Y04811D02*
X03007D01*
X03179Y04549D02*
Y04549D01*
X03173Y04429D02*
Y04461D01*
X03146Y04489D02*
X03173Y04461D01*
X03134Y04526D02*
Y04549D01*
X03326Y04655D02*
Y04733D01*
X0333Y04616D02*
Y0465D01*
X03183Y04649D02*
X03184D01*
Y04676D02*
X03189Y04681D01*
Y04733*
X03179Y04608D02*
Y04646D01*
X03288Y04653D02*
Y04671D01*
X03267Y04691D02*
X03288Y04671D01*
X03267Y04691D02*
Y04733D01*
X03013Y04795D02*
X03043Y04825D01*
X03097*
X03905Y03796D02*
X03906D01*
X04094Y04146D02*
X04094Y04145D01*
X04094Y04199D02*
X04095Y04203D01*
X04035Y03792D02*
Y03855D01*
X02586Y03799D02*
X02601Y03814D01*
X02526Y03799D02*
Y038D01*
X02709Y03752D02*
Y03775D01*
Y03752D02*
X02719Y03743D01*
Y03728D02*
X02719D01*
Y037D02*
Y03728D01*
Y037D02*
X0272Y03698D01*
X0268Y03697D02*
X02681D01*
X0268Y03728D02*
X02681D01*
X0269Y03737*
Y03775*
X0272Y03657D02*
Y03658D01*
X02789Y03667D02*
X0279Y03667D01*
X02786Y0367D02*
X02789Y03667D01*
X02759Y03698D02*
X02759D01*
X02729Y03761D02*
X02759Y03732D01*
X02729Y03761D02*
Y03775D01*
X02521Y0391D02*
Y03911D01*
X02543D02*
X02581Y03872D01*
X02612*
X04094Y03855D02*
Y03897D01*
X03941Y04001D02*
Y04019D01*
X03924Y04037D02*
X03941Y04019D01*
X03905Y04115D02*
X03925Y04095D01*
X03905Y04145D02*
X03905D01*
X03248Y04653D02*
X03248Y04655D01*
Y04733*
X03352Y04682D02*
X03458D01*
X03346Y04687D02*
X03352Y04682D01*
X03346Y04687D02*
Y04733D01*
Y04801*
X03309Y04838D02*
X03346Y04801D01*
X03259Y04838D02*
X03309D01*
X03229Y04808D02*
X03259Y04838D01*
X03208Y048D02*
X03209D01*
X03208Y04733D02*
Y048D01*
X03248Y04733D02*
Y048D01*
X04012Y04038D02*
X04073D01*
X02536Y03844D02*
X02539Y03846D01*
X02551Y03833*
X02612*
X02626Y03718D02*
X02654Y03746D01*
X0266*
X0267Y03756*
Y03775*
X02467Y03803D02*
X02467Y038D01*
X02467Y03803D02*
Y03846D01*
X02482Y03861*
Y0388*
Y0391*
Y0393*
X02496Y03944*
X02533*
X02584Y03892D02*
X02612D01*
X02798Y03629D02*
X0282D01*
X0279Y03628D02*
Y0363D01*
X0276Y03628D02*
Y03629D01*
X0309Y04269D02*
X0316D01*
X03132Y04609D02*
X03134Y04608D01*
X03089Y04609D02*
X03132D01*
X03218Y04614D02*
X03246D01*
X03233Y0458D02*
X03248Y04595D01*
Y04614*
X03233Y04544D02*
Y04573D01*
X03233Y04579D02*
X03233Y04573D01*
X03233Y04579D02*
Y0458D01*
X03096Y04696D02*
X03112Y0468D01*
X0316*
X03169Y04689*
Y04733*
X03386Y04609D02*
X03426D01*
X03366Y04733D02*
X03415D01*
X03418Y04737*
Y04737*
X03465*
X02898Y04974D02*
X02899Y04983D01*
X0285Y0495D02*
X02897D01*
X02898Y04948D02*
Y04948D01*
X03307Y04733D02*
Y04785D01*
X03307Y04786D02*
X03307Y04785D01*
X03287Y04786D02*
X03307D01*
X03287Y04783D02*
Y04786D01*
X03287Y04783D02*
X03287Y04789D01*
X03314Y04871D02*
X0334Y04845D01*
X03366Y04785D02*
X03418D01*
X03287Y04733D02*
Y04783D01*
X03287D02*
X03287D01*
Y04789D02*
Y04804D01*
X03288Y04809*
X03292Y04871D02*
X03314D01*
X0334Y04845D02*
X03366D01*
Y04805D02*
X03366D01*
X03097Y04844D02*
X03201D01*
X0323Y04873*
X03289*
X03291Y04874*
X03292Y04871*
X03366Y04805D02*
Y04844D01*
X03366Y04785D02*
Y04805D01*
X03418*
X03097Y04943D02*
Y05002D01*
X03326Y05054D02*
X03328Y05053D01*
X03307Y05054D02*
X03308Y05053D01*
X03307Y04994D02*
X03307D01*
X03287Y05054D02*
X03288Y05051D01*
X03307*
Y05054D02*
X03307D01*
X03419Y05035D02*
Y05037D01*
X03439Y05057*
X03418Y05002D02*
Y05028D01*
X03419Y05035*
X03439Y05057D02*
Y05075D01*
X04668Y02322D02*
X04671Y02323D01*
X04012Y03963D02*
X04074D01*
X047Y04022D02*
X0472D01*
X0468D02*
X047D01*
X03426Y04571D02*
Y04609D01*
X04667Y05611D02*
Y05612D01*
X04739Y04022D02*
X04759D01*
X0265Y03775D02*
X0265Y03775D01*
X02609Y03779D02*
X02647D01*
X02605Y0378D02*
X02609Y03779D01*
X02561Y0378D02*
X02605D01*
X02551Y0377D02*
X02561Y0378D01*
X02498Y0377D02*
X02551D01*
X02498D02*
Y03848D01*
X02523Y03873*
Y03877*
X0255*
X02574Y03853*
X02596*
X03015Y0486D02*
Y0486D01*
X03033Y0486D02*
X03048Y04875D01*
Y04884*
X03097*
X02854Y0485D02*
X02888D01*
X02842Y04863D02*
X02854Y0485D01*
X0286Y04905D02*
X02888D01*
X02845Y0489D02*
X0286Y04905D01*
X02842Y04863D02*
Y04888D01*
X03097Y04884D02*
X03099Y04885D01*
X0315*
X03176Y04911*
Y04952*
X03278*
X03169Y04988D02*
Y05054D01*
Y04988D02*
X03176Y04981D01*
Y04952D02*
Y04981D01*
X03524Y04751D02*
X03525D01*
X03476Y04825D02*
X03524D01*
X03476D02*
Y04864D01*
X03477Y04865*
X03267Y04975D02*
Y05054D01*
Y04975D02*
X03278Y04965D01*
Y04952D02*
Y04965D01*
X03418Y04825D02*
X03476D01*
X03418Y04864D02*
X03476D01*
X03239Y02428D02*
X0324Y02427D01*
X04759Y05575D02*
X04759Y05572D01*
X04759Y05575D02*
X04764Y0558D01*
X03089Y04648D02*
Y04649D01*
X03426Y04648D02*
Y0465D01*
X03288Y04582D02*
Y04594D01*
X03272Y04566D02*
X03288Y04582D01*
X03272Y04547D02*
Y04566D01*
Y04547D02*
X03272Y04544D01*
X03308Y05132D02*
X03308D01*
X03218Y04653D02*
Y04676D01*
X03228Y04686*
Y04733*
X03964Y04145D02*
Y04202D01*
X03149Y05054D02*
Y05114D01*
X03381Y04534D02*
Y04549D01*
X03337Y04454D02*
X03373Y0449D01*
X03337Y04429D02*
Y04454D01*
X0323Y0439D02*
Y04422D01*
X03237Y04429D02*
X03278D01*
X0395Y0535D02*
Y0543D01*
X04Y0535D02*
Y05429D01*
X04297Y04517D02*
X04362D01*
X0405Y0535D02*
Y05428D01*
X041Y0535D02*
Y05427D01*
X0415Y0535D02*
Y05427D01*
X042Y0535D02*
Y05427D01*
X039Y0535D02*
Y05429D01*
X0385Y0535D02*
Y05427D01*
X038Y0535D02*
Y05426D01*
X04361Y04437D02*
X04362Y04439D01*
X04305Y04537D02*
X04362D01*
X04301Y04498D02*
X04362D01*
X04302Y0454D02*
X04305Y04537D01*
X04278Y0434D02*
X04362D01*
Y04183D02*
X04433D01*
X05103Y04195D02*
X05112Y04204D01*
Y04221*
X04959Y0434D02*
X05033D01*
X05067Y04321D02*
X05074Y04328D01*
Y04344*
X04464Y04022D02*
Y04102D01*
X04538Y0413D02*
X04562Y04105D01*
X04735Y04153D02*
X04766Y04122D01*
X04959Y04222D02*
X05023D01*
X05056*
X0496Y04459D02*
X05052D01*
X05382Y03552D02*
Y03674D01*
Y03552D02*
X05427Y03507D01*
X04959Y04301D02*
X05115D01*
X04503Y03842D02*
Y04022D01*
Y03842D02*
X04504Y03842D01*
X0563Y03375D02*
X05646Y03391D01*
Y03422*
X05649Y03425*
X05412Y0321D02*
X05577Y03375D01*
X0563*
X05398Y03256D02*
X05435D01*
X05535Y03355*
Y03459*
X05421Y03301D02*
X05457D01*
X05518Y03361*
Y03572*
X0528Y0321D02*
X05412D01*
X04668Y02385D02*
Y02388D01*
X04667Y02389D02*
X04667Y02388D01*
X04668Y02388*
X05321Y03176D02*
X0547D01*
X05611Y03333D02*
X05613Y03331D01*
X04079Y02505D02*
Y02569D01*
X04056Y02634D02*
X04058D01*
X04842Y0316D02*
X05303D01*
X05319Y03176*
X03527Y03558D02*
X03528Y03558D01*
X03527Y03559D02*
X03528Y03558D01*
X02128Y04052D02*
X02188Y03992D01*
X03475Y04988D02*
Y0503D01*
X03439Y05075D02*
X03471D01*
X03089Y04576D02*
Y04609D01*
X03465Y04682D02*
X03516D01*
X03418Y04737D02*
Y04785D01*
X03417Y04736D02*
X03418Y04737D01*
X02998Y04899D02*
X03015D01*
X02984Y04914D02*
X02998Y04899D01*
X03044Y05002D02*
X03097D01*
X03208Y04999D02*
Y05054D01*
Y04999D02*
X03209Y04999D01*
Y04996D02*
Y04999D01*
X02533Y03944D02*
X02566Y03911D01*
X02584Y03892*
X02566Y03911D02*
Y03912D01*
X02582Y03928*
X04668Y02322D02*
X04707D01*
X04707Y02323D02*
X04707Y02322D01*
X0375Y0535D02*
Y05513D01*
X03622Y05091D02*
X03637Y05076D01*
X03622Y05091D02*
Y05093D01*
X04503Y04619D02*
Y04832D01*
X04523Y04619D02*
Y0481D01*
X04615Y05156D02*
X04674D01*
X03582Y05557D02*
X03583Y05556D01*
X03638Y05529D02*
Y05539D01*
Y05525D02*
Y05529D01*
Y05526D02*
Y05529D01*
X04296Y04518D02*
X04297Y04517D01*
X04295Y04583D02*
X04298Y04581D01*
X0432Y04557D02*
X04362D01*
X04272Y04547D02*
X04279Y0454D01*
X04302*
X04069Y04285D02*
X04073Y04289D01*
X04072Y04288D02*
X04073D01*
X04094Y04204D02*
X04095Y04203D01*
X04092Y04204D02*
X04094D01*
X04092D02*
X04095Y04201D01*
Y04196D02*
Y04201D01*
X03964Y04201D02*
X03964Y04202D01*
X03964Y04197D02*
Y04201D01*
X03925Y04093D02*
Y04095D01*
Y04093D02*
X0401D01*
X04035Y04118*
Y04145*
X03941Y04001D02*
X04111D01*
X04122Y0399*
Y03922D02*
Y0399D01*
X04095Y03895D02*
X04122Y03922D01*
X04083Y04033D02*
Y04057D01*
X04621Y03979D02*
Y04022D01*
X04714Y03954D02*
X0475D01*
X03584Y04407D02*
X03585Y04407D01*
X03584Y04548D02*
X03585Y04549D01*
X03584Y04407D02*
Y04548D01*
X03418Y04943D02*
X03497D01*
X03623Y05168D02*
Y05461D01*
X03593Y04668D02*
Y04699D01*
X03528Y04863D02*
Y04904D01*
X0405Y05117D02*
Y0519D01*
X03974Y04581D02*
Y05068D01*
X0408Y04829D02*
D01*
X04079Y04829D02*
X0408Y04829D01*
X04117Y04976D02*
Y05078D01*
X0408Y04894D02*
Y05038D01*
X0423Y0489D02*
X04231D01*
X04233Y04889*
X03418Y04903D02*
X03419Y04904D01*
X03645Y04878D02*
X03646Y04879D01*
X03645Y0471D02*
Y04878D01*
Y0471D02*
X03662Y04693D01*
Y04043D02*
Y04693D01*
X04094Y04146D02*
Y04199D01*
X04118Y04279D02*
Y04285D01*
X03491Y0385D02*
X03678Y04037D01*
X03475Y03856D02*
X03662Y04043D01*
X04123Y04896D02*
Y04959D01*
X04107Y04889D02*
Y04966D01*
X04117Y04976*
X0415Y05111D02*
Y0519D01*
X04123Y04959D02*
X04148Y04984D01*
Y0509*
X0415Y05111D02*
X04164Y05097D01*
Y04908D02*
Y05097D01*
X0413Y05108D02*
X04148Y0509D01*
X041Y05123D02*
Y0519D01*
Y05123D02*
X04114Y05108D01*
X0413*
X038Y05069D02*
Y0519D01*
X03766Y05035D02*
X038Y05069D01*
X03419Y04904D02*
X0358D01*
X03418Y04923D02*
X03508D01*
X0352Y04935*
X04634Y05104D02*
X04671D01*
X04621Y05207D02*
X04709D01*
X04523Y03882D02*
X04534Y03872D01*
Y0376D02*
Y03872D01*
X04423Y03649D02*
X04534Y0376D01*
X0324Y0549D02*
Y05572D01*
X03551Y05554D02*
Y05618D01*
X03613Y0568*
X04567Y05649D02*
X04574D01*
X04425Y05585D02*
Y05676D01*
X05416Y04479D02*
X0542Y04475D01*
X04083Y04057D02*
X04131Y04105D01*
X04147Y04059D02*
X04164Y04042D01*
X04582Y03547D02*
X04588Y03553D01*
X03553Y04147D02*
Y04403D01*
X03457Y04051D02*
X03553Y04147D01*
X0322Y03766D02*
X03281Y03827D01*
Y03912*
X03356Y04075D02*
X03422Y04009D01*
X03646Y04056D02*
Y04686D01*
X04623Y05093D02*
X04634Y05104D01*
X03836Y04177D02*
X03838D01*
X037Y03877D02*
Y03928D01*
X04507Y05156D02*
X04541D01*
X0375Y04618D02*
Y0519D01*
X03569Y04935D02*
X03607Y04973D01*
Y0505*
X0358Y04904D02*
X03637Y04961D01*
Y05076*
X03497Y04943D02*
X03532Y04978D01*
X03569*
X04289Y04163D02*
X04362D01*
X03843Y04092D02*
X03865Y04069D01*
X04236Y04429D02*
X04306D01*
X03582Y05492D02*
Y05557D01*
X05029Y04202D02*
X05036Y04195D01*
X05103*
X04723Y04272D02*
X04733Y04282D01*
X04779Y0393D02*
Y04092D01*
X04798Y04022D02*
Y0407D01*
X04791Y04122D02*
X04808Y04105D01*
X04483Y04234D02*
X04485Y04236D01*
X04756Y04359D02*
X04767D01*
X04773*
X04798Y0407D02*
X04808Y0408D01*
Y04105*
X04841Y04263D02*
X04957D01*
X04818Y03593D02*
Y03601D01*
X04824Y03546D02*
X04893D01*
X0423Y0489D02*
X04231Y04891D01*
Y04994*
X0423Y04995D02*
X04231Y04994D01*
X0423Y04995D02*
Y05019D01*
X042Y05124D02*
Y0519D01*
Y05124D02*
X0423Y05093D01*
Y05019D02*
Y05093D01*
X04909Y0434D02*
X04959D01*
X04771Y04451D02*
X04849Y04373D01*
X04736Y04451D02*
X04771D01*
X04483Y04022D02*
Y04097D01*
X04542Y04022D02*
Y04096D01*
X04542Y04097D02*
X04542Y04096D01*
X04483Y04097D02*
X04513D01*
X04542*
X04661Y04463D02*
X04756Y04369D01*
X04512Y04096D02*
X04513Y04097D01*
X04661Y04022D02*
Y04421D01*
X04756Y04359D02*
Y04369D01*
Y04357D02*
Y04359D01*
X04765Y04361D02*
X04835D01*
X04855Y04341*
X04909*
X04909Y0434*
X04485Y04236D02*
X04537Y04288D01*
X04661Y04464D02*
Y04619D01*
X03766Y04963D02*
Y05035D01*
X03836Y04345D02*
Y04411D01*
X03843Y04418*
X03613Y0568D02*
X03647D01*
X03573Y04759D02*
X03646Y04686D01*
X05489Y03787D02*
Y0379D01*
X04818Y03601D02*
X04825D01*
X04381Y03807D02*
Y04045D01*
X04516Y03533D02*
X04527Y03522D01*
X04484Y03533D02*
X04516D01*
X04662Y0309D02*
X04667D01*
Y03106*
X03526Y0292D02*
X04127D01*
X03525Y02919D02*
X03526Y0292D01*
X03358Y02948D02*
X03416D01*
X03298Y03008D02*
X03358Y02948D01*
X03298Y03008D02*
Y03112D01*
X03418Y04982D02*
X03478D01*
X03528Y03558D02*
X03549Y03537D01*
X03524Y04751D02*
Y04825D01*
X04751Y03917D02*
X04766D01*
X04777Y04621D02*
X04779Y04619D01*
X04777Y04621D02*
Y04658D01*
X04595Y04519D02*
X04621Y04545D01*
X04565Y04762D02*
X04568Y04765D01*
Y04819*
X02385Y03331D02*
X02386Y03332D01*
X02389Y03333*
X03465Y05738D02*
X03504Y0569D01*
X02826Y03916D02*
Y03947D01*
X02503Y03977D02*
X02574D01*
X02767Y03853D02*
X02768Y03852D01*
X02767Y03813D02*
X02781D01*
X0281Y039D02*
X02826Y03916D01*
X02782Y03833D02*
X02807D01*
X02781Y03892D02*
X02794Y03905D01*
Y03969*
X02767Y03872D02*
X02785D01*
X02795Y03882*
X02802*
X02846Y03885D02*
X02851Y03883D01*
X02931*
X03014Y03654D02*
Y03706D01*
X03251Y05161D02*
X03271Y05181D01*
X03251Y05137D02*
Y05161D01*
X0325Y05119D02*
Y05141D01*
X03308Y05132D02*
X0331Y05134D01*
X03308Y05125D02*
Y05132D01*
X03371Y05167D02*
Y05196D01*
X03346Y05097D02*
X03383Y05134D01*
X03589*
X03623Y05168*
X05038Y04693D02*
Y0472D01*
X04877Y04619D02*
Y0466D01*
X04857Y04619D02*
Y04678D01*
X04897Y04828D02*
X04936D01*
X04848Y04832D02*
X04866Y04814D01*
X04285Y04478D02*
X04446D01*
X04562Y04549D02*
Y04717D01*
X04725Y04505D02*
X04798D01*
X04825*
X04798D02*
Y04748D01*
X04851Y04202D02*
X05029D01*
X04887Y04321D02*
X04959D01*
X05067*
X04883Y04428D02*
X04886Y04425D01*
X04825Y04459D02*
Y04505D01*
X04897Y04504D02*
Y04505D01*
Y04507*
X04897Y04505D02*
Y04644D01*
X0512Y0467D02*
Y047D01*
X0324Y0549D02*
X03259Y05472D01*
X03469*
X03551Y05554*
X03573Y04874D02*
X03654Y04955D01*
Y05425*
X03484Y05395D02*
X03582Y05492D01*
X03491Y05379D02*
X03638Y05526D01*
X02827Y03786D02*
X02829Y03784D01*
X02827Y03786D02*
Y03813D01*
X02807Y03833D02*
X02827Y03813D01*
X02781Y03813D02*
X02792Y03803D01*
X02829Y03779D02*
X02832Y03782D01*
X02842Y03772*
X03012Y03868D02*
X03019Y03862D01*
X02825Y03715D02*
X02831Y03709D01*
X02805Y03715D02*
X0291D01*
X02792Y03729D02*
Y03803D01*
Y03729D02*
X02805Y03715D01*
X03153Y02713D02*
Y02876D01*
X03236Y02725D02*
Y03757D01*
Y02725D02*
X03293Y02668D01*
X03125Y03763D02*
X03203Y03841D01*
X03125Y02904D02*
X03153Y02876D01*
X03125Y02904D02*
Y03763D01*
X02952Y03182D02*
X0301Y0324D01*
Y0352*
X03095Y03605*
X05448Y04883D02*
X05506D01*
X05531Y04943D02*
Y05012D01*
X04049Y05807D02*
X04055Y05801D01*
X0405Y058D02*
Y05872D01*
X04905Y05516D02*
X04906Y05515D01*
X05296Y05226D02*
X05358Y05287D01*
X05327Y05003D02*
X05448Y04883D01*
X03234Y05308D02*
X03271D01*
Y05181D02*
Y05308D01*
X03112Y05152D02*
Y05355D01*
X03136Y05379*
X03491*
X03096Y05361D02*
X03129Y05395D01*
X03096Y05102D02*
Y05361D01*
X03129Y05395D02*
X03484D01*
X0314Y05304D02*
X03202D01*
X0314Y05252D02*
Y05265D01*
Y05252D02*
X03155Y05237D01*
Y05217D02*
Y05237D01*
X03388Y0521D02*
X03435D01*
Y05249D02*
Y05271D01*
X03428Y05278D02*
X03435Y05271D01*
X03428Y05278D02*
Y05308D01*
X03376D02*
X03428D01*
X03019Y03836D02*
Y03862D01*
X02968Y03785D02*
X03019Y03836D01*
X02842Y03772D02*
X0286D01*
X02873Y03785*
X02968*
X03326Y03998D02*
X03343D01*
X02794Y03969D02*
X02809Y03984D01*
X02825*
X03048Y04024D02*
X03229D01*
X02859Y04019D02*
X03031D01*
X03042Y04008*
X03222*
X02963Y04109D02*
X03048Y04024D01*
X02825Y03984D02*
X02859Y04019D01*
X02767Y03853D02*
X02834D01*
X0285Y03869*
Y03885*
X02999Y03909D02*
Y0396D01*
X02923D02*
X0296D01*
X02909Y03946D02*
X02923Y0396D01*
X02909Y03907D02*
Y03946D01*
X0293Y03645D02*
Y03708D01*
X02969Y03645D02*
X03008D01*
X03243Y0401D02*
X03314D01*
X03326Y03998*
X03308Y03994D02*
X03323Y03978D01*
X03236Y03994D02*
X03308D01*
X03222Y04008D02*
X03236Y03994D01*
X03229Y04024D02*
X03243Y0401D01*
X03155Y05213D02*
X03211D01*
X04442Y04244D02*
X04486Y04288D01*
Y04408*
X04454Y04211D02*
X0446D01*
X04318Y0436D02*
X04426D01*
X04474Y04408*
X0446Y04211D02*
X04485Y04236D01*
X04363Y04223D02*
X04415D01*
X0442Y04228*
X04449*
X04517Y04296*
X04362Y04202D02*
X04417D01*
X04426Y04211*
X04453*
X04492Y04177D02*
X04493D01*
X04453Y04144D02*
X04459D01*
X04492Y04177*
X04464Y04102D02*
Y04122D01*
Y04102D02*
Y04124D01*
X0447Y0413*
X04538*
X04461Y04124D02*
X04464Y04122D01*
X04362Y04124D02*
X04461D01*
X04923Y03601D02*
Y0362D01*
X04893Y03572D02*
X04968D01*
X04706Y0511D02*
Y0513D01*
X04446Y05053D02*
Y05054D01*
Y05053D02*
X04493D01*
X04637Y04733D02*
X04655Y04715D01*
X04653Y04793D02*
X04674Y04772D01*
X04789Y04977D02*
Y05075D01*
X04678Y04965D02*
X04777D01*
X04789Y04977*
X04623Y05056D02*
Y05093D01*
X04507Y0513D02*
X04539D01*
X04588Y05128D02*
X04615Y05156D01*
X04539Y0513D02*
X0454Y0513D01*
X04572Y05135D02*
X04618Y05182D01*
X04556Y05142D02*
X04621Y05207D01*
X04623Y05056D02*
X0465Y05028D01*
X04674*
X04527Y04998D02*
X0454Y0501D01*
Y0513*
X045Y04947D02*
X04556Y05003D01*
Y05142*
X04588Y04991D02*
Y05128D01*
X04572Y04984D02*
Y05135D01*
X05118Y04998D02*
X05145Y05025D01*
X04825Y04505D02*
X04897D01*
X04933Y04616D02*
Y04617D01*
X04857Y04678D02*
X04869Y0469D01*
X04927*
X04877Y0466D02*
X04891Y04674D01*
X05019*
X05038Y04693*
X04927Y0469D02*
X04942Y04705D01*
Y04822*
X04936Y04828D02*
X04942Y04822D01*
X04723Y04835D02*
X04882Y04994D01*
X04826Y04738D02*
X04881D01*
X0486Y04739D02*
Y04741D01*
X048Y04792D02*
Y04801D01*
X04831Y04832*
X04848*
X05038Y04737D02*
X05122D01*
X04795Y04745D02*
X04818D01*
X04826Y04738*
X04982Y04833D02*
X05063D01*
X05358Y04781D02*
X05419D01*
X05257Y04842D02*
Y04984D01*
X05237Y05004D02*
X05257Y04984D01*
X05161Y04992D02*
X05214Y04939D01*
Y04841D02*
Y04939D01*
X05171Y04841D02*
Y04943D01*
X05148Y04963D02*
X0515D01*
X05171Y04943*
X05118Y04994D02*
X05148Y04963D01*
X05118Y04994D02*
Y04998D01*
X03423Y04243D02*
X03451Y04271D01*
Y04322*
X03394Y04243D02*
X03423D01*
X03428Y04191D02*
X03483Y04246D01*
Y04335*
X03393Y04191D02*
X03428D01*
X03369Y04268D02*
X03411D01*
X03419Y04276*
Y04308*
X0319Y04242D02*
X03206D01*
X03245Y04243D02*
X03256Y04253D01*
X03201Y04243D02*
X03245D01*
X03282Y04267D02*
Y04345D01*
X0328Y04265D02*
X03282Y04267D01*
X04623Y0381D02*
Y03978D01*
X04621Y03979D02*
X04623Y03978D01*
X04204Y03598D02*
X04215Y03609D01*
Y03935*
X04204Y03945D02*
X04215Y03935D01*
G54D39*
X05267Y05148D02*
X05281Y05135D01*
X05267Y05148D02*
Y05182D01*
X05041Y05409D02*
X05267Y05182D01*
X04735Y05409D02*
X05041D01*
X05349Y05012D02*
Y05174D01*
X0487Y05654D02*
X05349Y05174D01*
X04786Y05654D02*
X0487D01*
X05281Y05133D02*
X05305Y0511D01*
X05836Y04081D02*
Y04453D01*
X05824Y04069D02*
X05836Y04081D01*
X05824Y0403D02*
Y04069D01*
Y0403D02*
X05836Y04018D01*
Y03988D02*
Y04018D01*
X05739Y0455D02*
X05836Y04453D01*
Y03988D02*
X05872Y03952D01*
X03595Y03626D02*
X03626Y03656D01*
X03549Y03626D02*
X03595D01*
X03539Y03615D02*
X03549Y03626D01*
X03539Y0357D02*
Y03615D01*
X03528Y03558D02*
X03539Y0357D01*
X03626Y03921D02*
X037Y03995D01*
X03626Y03656D02*
Y03921D01*
X0247Y04952D02*
X02571Y0485D01*
X02546Y04317D02*
X02571Y04293D01*
X043Y0519D02*
X04301Y05189D01*
Y0478D02*
Y05189D01*
X02712Y05359D02*
X02767Y05304D01*
Y05203D02*
Y05304D01*
Y05203D02*
X02768Y05202D01*
X05501Y04831D02*
X05584D01*
X02571Y0398D02*
Y04293D01*
X05584Y04831D02*
X05647Y04768D01*
Y04703D02*
Y04768D01*
X05739Y0455D02*
Y04735D01*
X05531Y04943D02*
X05739Y04735D01*
X02889Y05358D02*
X03247Y05716D01*
X02722Y05358D02*
X02889D01*
X02715Y05365D02*
X02722Y05358D01*
X03247Y05716D02*
X03347D01*
X03363Y05732D02*
X03459D01*
X03347Y05716D02*
X03363Y05732D01*
X037Y0578D02*
X0382D01*
X037Y0535D02*
Y0578D01*
X03507D02*
X037D01*
X05619Y04675D02*
X05647Y04703D01*
X05872Y0395D02*
Y03952D01*
X05649Y04574D02*
Y04574D01*
X03703Y0348D02*
X03765Y03542D01*
X03289Y03327D02*
Y03557D01*
X03528Y03555D02*
Y03558D01*
Y03558*
X02452Y03976D02*
Y04097D01*
X0243Y03954D02*
X02452Y03976D01*
X0247Y04952D02*
Y0502D01*
X0467Y05474D02*
Y0548D01*
Y05474D02*
X04735Y05409D01*
X03765Y03542D02*
Y04431D01*
X03786Y04452*
Y04763*
X037Y03995D02*
Y0519D01*
X043Y0535D02*
Y05626D01*
Y05632*
X04572Y05751D02*
X04616D01*
X0469Y0575D02*
X04786Y05654D01*
X04627Y0575D02*
X0469D01*
X03459Y05732D02*
X03465Y05738D01*
X03507Y0578*
X02571Y0398D02*
X02574Y03977D01*
X05471Y04861D02*
X05501Y04831D01*
X05439Y04861D02*
X05471D01*
X05419Y04943D02*
X05531D01*
X0382Y0578D02*
X03841Y05801D01*
X04522D02*
X04572Y05751D01*
X03841Y05801D02*
X04055D01*
X04522*
X05305Y04994D02*
X05439Y04861D01*
X05349Y05012D02*
X05419Y04943D01*
X05305Y04994D02*
Y0511D01*
G54D40*
X042Y04606D02*
Y05066D01*
X04125Y04531D02*
X042Y04606D01*
X04125Y04383D02*
Y04531D01*
X0426Y05436D02*
Y05477D01*
X0425Y05426D02*
X0426Y05436D01*
X0425Y0535D02*
Y05426D01*
X04338Y05413D02*
X04351Y05426D01*
X04338Y05066D02*
Y05413D01*
X02969Y04281D02*
Y04364D01*
Y04281D02*
X02978Y04272D01*
X03089Y04217D02*
X0316D01*
X03089D02*
X0309Y04216D01*
X04102Y03759D02*
X0418Y03837D01*
X04622Y03698D02*
Y03764D01*
Y03698D02*
X04645Y03674D01*
X04704*
X03764Y03759D02*
X04102D01*
G54D47*
X0542Y05348D02*
D01*
X05322Y05443*
X05218Y05532*
X05108Y05613*
X04993Y05687*
X04873Y05752*
X04748Y05809*
X0462Y05856*
X04489Y05895*
X04356Y05925*
X04221Y05945*
X04085Y05956*
X03948Y05957*
X03812Y05948*
X03676Y05931*
X03542Y05903*
X0341Y05867*
X03282Y05821*
X03156Y05767*
X03035Y05703*
X02919Y05632*
X02807Y05553*
X02702Y05466*
X02603Y05372*
X0258Y05348*
X02461Y0521D02*
D01*
X0238Y05099*
X02307Y04984*
X02243Y04863*
X02187Y04738*
X02139Y0461*
X02101Y04479*
X02073Y04345*
X02053Y0421*
X02043Y04074*
X02043Y03937*
X02052Y03801*
X02071Y03665*
X02099Y03532*
X02136Y034*
X02182Y03272*
X02237Y03147*
X02301Y03026*
X02373Y0291*
X02453Y02799*
X02541Y02694*
X02635Y02595*
X02737Y02504*
X02844Y02419*
X02957Y02342*
X03075Y02274*
X03198Y02213*
X03324Y02162*
X03454Y02119*
X03587Y02086*
X03721Y02062*
X03857Y02047*
X03994Y02042*
X0413Y02046*
X04176Y0205*
X04276Y02062D02*
D01*
X0441Y02085*
X04543Y02119*
X04672Y02161*
X04799Y02213*
X04922Y02273*
X0504Y02341*
X05153Y02418*
X05261Y02502*
X05362Y02594*
X05457Y02692*
X05544Y02797*
X05624Y02908*
X05697Y03024*
X05761Y03145*
X05816Y0327*
X05862Y03398*
X059Y03529*
X05928Y03663*
X05947Y03798*
X05956Y03935*
X05956Y04071*
X05946Y04208*
X05927Y04343*
X05898Y04477*
X0586Y04608*
X05813Y04736*
X05757Y04861*
X05693Y04981*
X0562Y05097*
X0554Y05208*
X05538Y05209*
X02461Y0521D02*
X0258D01*
Y05348*
X0542Y0521D02*
X05539D01*
X0542D02*
Y05348D01*
X04176Y02128D02*
X04276D01*
X04176Y0205D02*
Y02128D01*
X04276Y02062D02*
Y02128D01*
G54D48*
X0477Y0548D03*
G54D49*
X0467Y0548D03*
G54D50*
X03425Y0235D03*
X02128Y0405D03*
Y0395D03*
X02712Y05358D03*
X02641Y05287D03*
Y02712D03*
X02712Y02641D03*
X0324Y02427D03*
X03333Y02389D03*
X04574Y0235D03*
X04667Y02389D03*
X04759Y02427D03*
X0235Y03425D03*
X02389Y03333D03*
X02427Y0324D03*
X05572D03*
X05611Y03333D03*
X05649Y03425D03*
Y04574D03*
X05611Y04667D03*
X05572Y04759D03*
X02428Y04762D03*
X0239Y0467D03*
X02351Y04577D03*
X04759Y05572D03*
X04667Y05611D03*
X04574Y05649D03*
X03425D03*
X03333Y05611D03*
X0324Y05572D03*
X0395Y02128D03*
X0405D03*
X05287Y02641D03*
X05358Y02712D03*
X05872Y0395D03*
Y0405D03*
X05358Y05287D03*
X05287Y05358D03*
X0405Y05872D03*
X0395D03*
X0257Y0502D03*
X0247D03*
X0543D03*
X0553D03*
X04276Y02267D03*
X04176D03*
G54D51*
X03569Y0527D03*
X0443Y05273D03*
X05435Y03939D03*
X05434Y04551D03*
X02775Y0468D03*
Y0476D03*
G54D52*
X02625Y0352D03*
X02724Y0342D03*
X02825Y0352D03*
Y0332D03*
X02625D03*
G54D53*
X03543Y02367D03*
X03522Y02255D03*
X03804Y022D03*
X03826Y02312D03*
G54D54*
X04091Y0473D03*
X04568Y04938D03*
X04522Y04919D03*
X04618Y05003D03*
X0528Y05136D03*
X02653Y04623D03*
X04055Y0235D03*
X0425Y02562D03*
X04351Y02275D03*
X04248Y02722D03*
X04551Y02673D03*
X04434Y02271D03*
X04551Y02563D03*
X04704Y0253D03*
X0478Y02829D03*
X05364Y02954D03*
X058Y04142D03*
X05807Y03797D03*
X05639D03*
X05279Y0437D03*
X0521Y04556D03*
X05242Y04586D03*
X0526Y0405D03*
X05261Y03934D03*
X05569Y04003D03*
X05591Y0437D03*
X05288Y03734D03*
X05245D03*
X05278Y03683D03*
X05059Y03395D03*
X05078Y03448D03*
X03514Y03711D03*
X04692Y04933D03*
X0255Y04315D03*
X02763Y04228D03*
X02641Y041D03*
X04853Y03654D03*
X05046Y03617D03*
X04298Y04581D03*
X04262Y04549D03*
X0506Y03352D03*
X03424Y03682D03*
X05455Y05139D03*
X0538Y05199D03*
X03905Y04645D03*
X04758Y04742D03*
X04385Y02727D03*
X0466Y02731D03*
X0448D03*
X03933Y02719D03*
X0425Y05426D03*
X04351D03*
X04338Y05066D03*
X03473Y04189D03*
X03458Y0405D03*
X03428Y04091D03*
X03415Y04315D03*
X03282Y04345D03*
X03011Y04461D03*
X03088Y04447D03*
X03257Y04488D03*
X03407D03*
X04589Y05256D03*
X04542Y05246D03*
X04673Y04774D03*
X0476Y04999D03*
X04717Y04706D03*
X04655Y04708D03*
X05618Y03739D03*
X04397Y04807D03*
X04431Y04834D03*
X04512Y04845D03*
X04831Y05092D03*
X02768Y05202D03*
X02728Y05055D03*
Y05012D03*
X04265Y04942D03*
X04233Y04886D03*
X04265Y05003D03*
X04165Y04907D03*
X03841Y04086D03*
X04262Y03513D03*
X05238Y05058D03*
X02982Y0486D03*
X02978Y04272D03*
X02901Y04655D03*
X0296D03*
X02813Y04517D03*
X05097Y0399D03*
X05506Y04883D03*
X02758Y04518D03*
X0265D03*
X03572Y04799D03*
X03093Y03599D03*
X03333Y03949D03*
X03697Y03867D03*
X04877Y0383D03*
X04876Y03875D03*
X04886Y04471D03*
X04167Y04807D03*
X03908Y04978D03*
Y05066D03*
X03797Y05019D03*
X04541Y05343D03*
Y05298D03*
X04448Y04953D03*
X05242Y0463D03*
X04818Y03547D03*
X05119Y03122D03*
X05473Y03644D03*
X05345Y03954D03*
X04843Y04094D03*
X03974Y05068D03*
X04594Y04387D03*
X04204Y03598D03*
X04888Y04373D03*
X03255Y0404D03*
X0416Y04441D03*
X04125Y04371D03*
X04043Y04433D03*
X03957Y04513D03*
X03836Y04336D03*
Y04293D03*
X04286Y04399D03*
X04212Y04518D03*
X04299Y04104D03*
X04216Y04384D03*
X04298Y04233D03*
X0422Y04446D03*
X04299Y0388D03*
X04343Y03776D03*
X04164Y04042D03*
X04299Y04061D03*
X04589Y03921D03*
X04417Y03958D03*
X04465D03*
X03906Y03804D03*
X04036Y03803D03*
X04234Y03958D03*
X05304Y02954D03*
X04705Y02743D03*
X04214Y02671D03*
X03808Y02719D03*
X05732Y03711D03*
X05694Y03642D03*
X04376Y04882D03*
X0506Y03703D03*
X04994Y03521D03*
X04916Y0373D03*
X05062Y03877D03*
X0517Y03562D03*
X04722Y03417D03*
X03749Y05705D03*
X02868Y04271D03*
X02687Y04273D03*
X02766Y04185D03*
X0276Y04078D03*
X02762Y04359D03*
X02711Y04906D03*
X02571Y04852D03*
X03847Y05709D03*
X038Y05707D03*
X05307Y03555D03*
X03672Y0397D03*
X03342Y03161D03*
X03457Y03253D03*
X03709Y03264D03*
X03528Y03558D03*
X03924Y03281D03*
X03884Y03419D03*
X03762Y03542D03*
X04055Y02448D03*
X04764Y04539D03*
X04887Y04428D03*
X05024Y0446D03*
X05023Y04244D03*
X04724Y04282D03*
X04723Y04213D03*
X04767Y04359D03*
X04691Y04183D03*
X046Y04521D03*
X04489Y04478D03*
X04562Y04549D03*
X04737Y04153D03*
X04701Y04094D03*
X05398Y03256D03*
X05183Y03468D03*
X05422Y03302D03*
X05456Y03572D03*
X05428Y03605D03*
X04949Y03926D03*
X0495Y0397D03*
X0543Y03507D03*
X04801Y03879D03*
X04583Y03678D03*
X03289Y0332D03*
X02576Y03975D03*
X02676Y05182D03*
X02907Y04379D03*
X02846Y04047D03*
X03967Y03568D03*
X03931Y03538D03*
X03968Y03509D03*
X03931Y03479D03*
X03969Y0345D03*
X04524Y03264D03*
X03368Y03463D03*
X04476Y03312D03*
X03398Y03431D03*
X03153Y02713D03*
X033Y02582D03*
X03348Y02736D03*
X03434Y02791D03*
X0449Y02507D03*
X0431Y02448D03*
X04662Y0309D03*
X03886Y03093D03*
X03162Y03091D03*
X0359Y03083D03*
X03668Y03022D03*
X03653Y03134D03*
X03706Y03136D03*
X04059Y03359D03*
X04222Y03119D03*
X04155Y02588D03*
X04055Y02587D03*
X03589Y03207D03*
X03411Y02866D03*
X0351Y03115D03*
X03367Y03396D03*
X03328Y03352D03*
X03672Y02261D03*
X03628Y02253D03*
X03595Y02283D03*
X037Y02575D03*
X03748Y02574D03*
X03807Y02435D03*
X03229Y04806D03*
X02536Y03844D03*
X0261Y03718D03*
X0282Y03629D03*
X03233Y04579D03*
X03096Y04696D03*
X02899Y04983D03*
X03291Y04874D03*
X03288Y04809D03*
X03307Y04994D03*
X03419Y05035D03*
X03426Y04571D03*
X03477Y04865D03*
X03278Y04952D03*
X0274Y02732D03*
X04524Y02977D03*
X0395Y0543D03*
X04Y05429D03*
X0405Y05428D03*
X041Y05427D03*
X0415D03*
X042D03*
X039Y05429D03*
X0385Y05427D03*
X038Y05426D03*
X05355Y04667D03*
X05115Y04301D03*
X04504Y03842D03*
X0528Y0321D03*
X05321Y03176D03*
X05774Y04197D03*
X04056Y02634D03*
X04055Y02703D03*
X04842Y0316D03*
X03749Y04616D03*
X03783Y04763D03*
X02452Y04097D03*
X0243Y03954D03*
X03089Y04576D03*
X03417Y04736D03*
X02984Y04914D03*
X02843Y04851D03*
X03044Y05002D03*
X03209Y04996D03*
X0309Y04219D03*
X02582Y03928D03*
X04707Y02323D03*
X03749Y05524D03*
X04346Y04697D03*
X03972Y0458D03*
X03568Y04934D03*
X03583Y05556D03*
X043Y05626D03*
X04338Y05558D03*
X03638Y05525D03*
X03623Y05461D03*
X03585Y04549D03*
X04073Y04279D03*
X03964Y04197D03*
X04486Y0441D03*
X04457Y03732D03*
X03657Y0543D03*
X03427Y05425D03*
X03614Y04436D03*
X03622Y05093D03*
X03478Y04983D03*
X03593Y04698D03*
X03528Y04863D03*
X04301Y04773D03*
X04079Y04829D03*
X04026Y04515D03*
X04118Y04279D03*
X04095Y04196D03*
X04117Y05078D03*
X04055Y0508D03*
X04082Y05041D03*
X03801Y04036D03*
X05503Y04741D03*
X04583Y03552D03*
X0364Y05678D03*
X04427D03*
X05416Y04479D03*
X05737Y0445D03*
X05382Y03878D03*
X03196Y03833D03*
X04781Y03462D03*
X04342Y03732D03*
X04543Y03631D03*
X03553Y04403D03*
X03417Y0401D03*
X03281Y03913D03*
X03574Y04037D03*
X04297Y04667D03*
X03836Y04177D03*
X03697Y03928D03*
X02827Y03949D03*
X02805Y04014D03*
X03336Y04008D03*
X03607Y0505D03*
X03646Y04879D03*
X03701Y05016D03*
X03664Y04921D03*
X03558Y04977D03*
X0384Y0413D03*
X05478Y0448D03*
X0568Y04169D03*
X05666Y04065D03*
X05683Y04219D03*
X05062Y04035D03*
X04954Y04053D03*
X04779Y04092D03*
X04887Y04293D03*
X04886Y04234D03*
X0485Y04265D03*
X04818Y03593D03*
X042Y05066D03*
X04736Y04451D03*
X04619Y04098D03*
X04512Y04096D03*
X0378Y04947D03*
X03548Y05019D03*
X05565Y0389D03*
X0549Y03798D03*
X0463Y03453D03*
X04479Y03537D03*
X04466Y03602D03*
X04539Y02863D03*
X04127Y0292D03*
X03525Y02919D03*
X03416Y02948D03*
X03298Y03112D03*
X04272Y03718D03*
X04164Y03931D03*
X0463Y0532D03*
X02189Y0371D03*
X04619Y0575D03*
X03504Y0569D03*
X03013Y03642D03*
X03289Y03557D03*
X04906Y05515D03*
X05238Y05005D03*
X03428Y05307D03*
X03155Y05214D03*
X03097Y03949D03*
X02909Y03946D03*
X04449Y0434D03*
X04439Y0418D03*
X04528Y04138D03*
X04493Y04177D03*
X04433Y04094D03*
X04806Y02306D03*
X05004Y03564D03*
X05448Y03087D03*
X05195Y05024D03*
X05161Y04993D03*
X04838Y04535D03*
X04933Y04616D03*
X04826Y04738D03*
X04982Y04833D03*
X05419Y04781D03*
X05359D03*
X05257Y04842D03*
X05214Y04841D03*
X05171D03*
X03092Y0427D03*
X04623Y0381D03*
X04181Y03835D03*
X04622Y03765D03*
G54D55*
X03556Y03429D03*
X03604D03*
X03651D03*
X03556Y03382D03*
X03604D03*
X03651D03*
X03556Y03334D03*
X03604D03*
X03651D03*
X02713Y03829D03*
Y03876D03*
X02666Y03829D03*
Y03876D03*
X03256Y04206D03*
X03303D03*
X03256Y04253D03*
X03303D03*
G54D56*
X02917Y02799D03*
X05083D03*
G54D57*
X05083Y05201D03*
X02917D03*
G54D58*
X03149Y04733D03*
X03169D03*
X03189D03*
X03208D03*
X03228D03*
X03248D03*
X03267D03*
X03287D03*
X03307D03*
X03326D03*
X03346D03*
X03366D03*
Y05054D03*
X03346D03*
X03326D03*
X03307D03*
X03287D03*
X03267D03*
X03248D03*
X03228D03*
X03208D03*
X03189D03*
X03169D03*
X03149D03*
G54D59*
X03418Y04785D03*
Y04805D03*
Y04825D03*
Y04844D03*
Y04864D03*
Y04884D03*
Y04903D03*
Y04923D03*
Y04943D03*
Y04962D03*
Y04982D03*
Y05002D03*
X03097D03*
Y04982D03*
Y04962D03*
Y04943D03*
Y04923D03*
Y04903D03*
Y04884D03*
Y04864D03*
Y04844D03*
Y04825D03*
Y04805D03*
Y04785D03*
G54D60*
X04362Y04084D03*
Y04104D03*
Y04124D03*
Y04143D03*
Y04163D03*
Y04183D03*
Y04202D03*
Y04222D03*
Y04242D03*
Y04261D03*
Y04281D03*
Y04301D03*
Y04321D03*
Y0434D03*
Y0436D03*
Y0438D03*
Y04399D03*
Y04419D03*
Y04439D03*
Y04458D03*
Y04478D03*
Y04498D03*
Y04517D03*
Y04537D03*
Y04557D03*
X04959D03*
Y04537D03*
Y04517D03*
Y04498D03*
Y04478D03*
Y04458D03*
Y04439D03*
Y04419D03*
Y04399D03*
Y0438D03*
Y0436D03*
Y0434D03*
Y04321D03*
Y04301D03*
Y04281D03*
Y04261D03*
Y04242D03*
Y04222D03*
Y04202D03*
Y04183D03*
Y04163D03*
Y04143D03*
Y04124D03*
Y04104D03*
Y04084D03*
G54D61*
X04424Y04619D03*
X04444D03*
X04464D03*
X04483D03*
X04503D03*
X04523D03*
X04542D03*
X04562D03*
X04582D03*
X04601D03*
X04621D03*
X04641D03*
X04661D03*
X0468D03*
X047D03*
X0472D03*
X04739D03*
X04759D03*
X04779D03*
X04798D03*
X04818D03*
X04838D03*
X04857D03*
X04877D03*
X04897D03*
Y04022D03*
X04877D03*
X04857D03*
X04838D03*
X04818D03*
X04798D03*
X04779D03*
X04759D03*
X04739D03*
X0472D03*
X047D03*
X0468D03*
X04661D03*
X04641D03*
X04621D03*
X04601D03*
X04582D03*
X04562D03*
X04542D03*
X04523D03*
X04503D03*
X04483D03*
X04464D03*
X04444D03*
X04424D03*
G54D62*
X02926Y04474D03*
X02963Y04545D03*
X02888D03*
G54D63*
X0269Y0393D03*
X0265Y03775D03*
X0267D03*
X0269D03*
X02709D03*
X02729D03*
Y0393D03*
X02709D03*
X0267D03*
X0265D03*
G54D64*
X02888Y0485D03*
X02908D03*
X02927D03*
Y04905D03*
X02908D03*
X02888D03*
X03672Y03283D03*
X03653D03*
X03633D03*
X03613D03*
X03594D03*
X03574D03*
X03554D03*
X03535D03*
Y0348D03*
X03554D03*
X03574D03*
X03594D03*
X03613D03*
X03633D03*
X03653D03*
X03672D03*
G54D65*
X02842Y04943D03*
Y04888D03*
X03465Y04682D03*
Y04737D03*
X03575Y03537D03*
Y03592D03*
X04565Y04707D03*
Y04762D03*
G54D66*
X037Y0519D03*
X0375Y0535D03*
Y0519D03*
X038D03*
Y0535D03*
X0385D03*
Y0519D03*
X039D03*
Y0535D03*
X0395Y0519D03*
Y0535D03*
X04D03*
Y0519D03*
X0405D03*
Y0535D03*
X041D03*
Y0519D03*
X043D03*
X0425D03*
X042D03*
X0415D03*
Y0535D03*
X042D03*
X0425D03*
X043D03*
X037D03*
G54D67*
X03823Y02774D03*
X03849D03*
X03874D03*
X039D03*
X03926D03*
X03951D03*
X03977D03*
X04002D03*
X04028D03*
X04054D03*
X04079D03*
X04105D03*
X0413D03*
X04156D03*
Y02505D03*
X0413D03*
X04105D03*
X04079D03*
X04054D03*
X04028D03*
X04002D03*
X03977D03*
X03951D03*
X03926D03*
X039D03*
X03874D03*
X03849D03*
X03823D03*
G54D68*
X03525Y04688D03*
Y04751D03*
G54D69*
X04282Y0434D03*
X04227D03*
X05112Y04225D03*
X05057D03*
X03337Y0438D03*
X03282D03*
X032Y04489D03*
X03145D03*
X0331D03*
X03365D03*
G54D70*
X0269Y03853D03*
G54D71*
X02612Y03892D03*
Y03872D03*
Y03853D03*
Y03833D03*
Y03813D03*
X02767D03*
Y03833D03*
Y03853D03*
Y03872D03*
Y03892D03*
G54D72*
X03702Y0345D03*
Y03431D03*
Y03411D03*
Y03391D03*
Y03372D03*
Y03352D03*
Y03332D03*
Y03313D03*
X03505D03*
Y03332D03*
Y03352D03*
Y03372D03*
Y03391D03*
Y03411D03*
Y03431D03*
Y0345D03*
G54D73*
X03604Y03382D03*
G54D74*
X03941Y04001D03*
X04012Y03963D03*
Y04038D03*
G54D75*
X03422Y02688D03*
X03347D03*
Y02591D03*
G54D76*
X03414Y02591D03*
G54D77*
X03503Y0256D03*
X03566D03*
G54D78*
X03535Y02733D03*
Y02626D03*
G54D79*
X02918Y03883D03*
X02917Y03726D03*
X03012Y03883D03*
X03011Y03726D03*
G54D80*
X04881Y04738D03*
X05038Y04737D03*
X04881Y04832D03*
X05038Y04831D03*
X03211Y05213D03*
X03368Y05212D03*
X03211Y05307D03*
X03368Y05306D03*
G54D81*
X04703Y05207D03*
Y05182D03*
Y05156D03*
Y0513D03*
Y05105D03*
Y05079D03*
Y05054D03*
Y05028D03*
X04478Y05207D03*
Y05182D03*
Y05156D03*
Y0513D03*
Y05105D03*
Y05079D03*
Y05054D03*
Y05028D03*
X04697Y03495D03*
Y03521D03*
Y03546D03*
Y03572D03*
Y03597D03*
Y03623D03*
Y03649D03*
Y03674D03*
X04922Y03495D03*
Y03521D03*
Y03546D03*
Y03572D03*
Y03597D03*
Y03623D03*
Y03649D03*
Y03674D03*
G54D82*
X0328Y0423D03*
G54D83*
X0319Y04192D03*
Y04217D03*
Y04242D03*
Y04268D03*
X03369Y04191D03*
Y04217D03*
Y04242D03*
Y04268D03*
G54D84*
X03701Y0519D02*
Y05333D01*
Y05185D02*
Y0519D01*
X043D02*
Y0535D01*
Y05188D02*
Y0519D01*
X037D02*
X03701D01*
M02*