%FSTAX23Y23*%
%MOIN*%
%SFA1B1*%

%IPPOS*%
%ADD10C,0.010000*%
%ADD32C,0.008000*%
%ADD33C,0.055100*%
%ADD34R,0.059100X0.059100*%
%ADD35C,0.059100*%
%ADD36R,0.059100X0.059100*%
%ADD37C,0.040000*%
%ADD38C,0.140000*%
%ADD39C,0.050000*%
%ADD40C,0.089000*%
%ADD41C,0.026000*%
%ADD42C,0.915000*%
%ADD43C,0.175000*%
%ADD44R,0.052000X0.044000*%
%LNronemotorboard-v8-msp-1*%
%LPD*%
G54D10*
X03135Y02875D02*
X0314D01*
X0372Y044D02*
X0381Y0431D01*
X0389*
X03677Y03855D02*
X0368Y03852D01*
X0352Y0431D02*
X03675Y04155D01*
X0352Y0431D02*
Y044D01*
G54D32*
X0466Y0233D02*
X0475Y0242D01*
X03625Y03147D02*
Y03255D01*
X03582Y03105D02*
X03625Y03147D01*
X0346Y03105D02*
X03582D01*
X03705Y03205D02*
X0371Y032D01*
X0357Y0307D02*
X03705Y03205D01*
X03435Y0307D02*
X0357D01*
X037Y032D02*
X0371D01*
X03789Y03365D02*
Y03579D01*
X03345Y0298D02*
X03435Y0307D01*
X0331Y0273D02*
X034D01*
X03465Y02665*
Y02629D02*
Y02665D01*
X0443Y04465D02*
X04465D01*
X04515Y04515*
Y04705*
X04425Y04795D02*
X04515Y04705D01*
X04265Y04795D02*
X0429D01*
X04195Y04725D02*
X04265Y04795D01*
X0417Y04725D02*
X04195D01*
X0415Y04745D02*
X0417Y04725D01*
X0415Y04745D02*
Y05105D01*
X04125Y0513D02*
X0415Y05105D01*
X04055Y0513D02*
X04125D01*
X04Y05185D02*
X04055Y0513D01*
X05175Y0501D02*
X0526Y04925D01*
X05375*
X0541Y04817D02*
Y0515D01*
X054D02*
X0541D01*
X05301Y04709D02*
X0541Y04817D01*
X05115Y03035D02*
X05185D01*
X05315Y03165*
X05475Y03215D02*
X05485Y03205D01*
X05172Y03215D02*
X05475D01*
X04664Y024D02*
X0468D01*
X04486Y02578D02*
X04664Y024D01*
X03395Y0233D02*
X035D01*
X03385Y0234D02*
X03395Y0233D01*
X03385Y0234D02*
Y0244D01*
X03285Y0254D02*
X03385Y0244D01*
X03285Y0254D02*
Y0266D01*
X03495Y0239D02*
Y0248D01*
X03465Y0251D02*
X03495Y0248D01*
X03465Y0251D02*
Y02629D01*
X02515Y0321D02*
X0257Y03265D01*
X0262*
X02675Y0321*
X02879Y03029D02*
X02946D01*
X02765Y02915D02*
X02879Y03029D01*
X02685Y02915D02*
X02765D01*
X03Y03445D02*
X0301D01*
X02755Y04895D02*
Y04945D01*
X02685Y04825D02*
X02755Y04895D01*
X025Y0478D02*
X0254Y0474D01*
X02633*
X0323Y0558D02*
X03413D01*
X03564Y05429*
X03245Y05479D02*
Y05525D01*
X0459Y05435D02*
Y05535D01*
Y05433D02*
Y05435D01*
Y05395D02*
Y05435D01*
X04435Y0569D02*
X0459Y05535D01*
X04253Y05532D02*
X04278D01*
X0417Y05615D02*
X04253Y05532D01*
X0417Y05615D02*
Y0572D01*
X04158Y05731D02*
X0417Y0572D01*
X04086Y05731D02*
X04158D01*
X0412Y05799D02*
X04225Y05695D01*
Y05623D02*
Y05695D01*
Y05623D02*
D01*
X04086Y05799D02*
X0412D01*
X037Y05645D02*
Y05695D01*
X03804Y05799*
X03913*
X0394Y05549D02*
Y056D01*
X03913Y05626D02*
X0394Y056D01*
X03913Y05626D02*
Y0573D01*
X03229Y0322D02*
Y03229D01*
X03779Y03246D02*
X04394D01*
X0373Y03295D02*
X03779Y03246D01*
X0373Y03295D02*
Y0358D01*
X03595Y03355D02*
X0372Y0323D01*
X04394Y03246D02*
X0454Y031D01*
X04303Y03278D02*
X0436Y03335D01*
X03897Y03278D02*
X04303D01*
X0384Y03335D02*
X03897Y03278D01*
X04317Y03262D02*
X0433Y03275D01*
X03848Y03262D02*
X04317D01*
X03805Y03305D02*
X03848Y03262D01*
X04325Y0323D02*
X04435Y0312D01*
X0372Y0323D02*
X04325D01*
X0433Y03275D02*
X04495D01*
X0436Y03335D02*
Y0347D01*
X03625Y03255D02*
X0363Y0326D01*
X03625D02*
X0363D01*
X0402Y03415D02*
X04045Y0339D01*
X0384Y03415D02*
X0402D01*
X04182Y03412D02*
X04211Y03441D01*
Y04289*
X0421Y0429D02*
X04211Y04289D01*
X0415Y04265D02*
X04195Y0422D01*
Y03455D02*
Y0422D01*
X04085Y03345D02*
X04195Y03455D01*
X04228Y03408D02*
Y04297D01*
X04244Y034D02*
Y04303D01*
X0426Y03406D02*
Y0431D01*
X0407Y04455D02*
X04228Y04297D01*
X0412Y04427D02*
X04244Y04303D01*
X0414Y0443D02*
X0426Y0431D01*
X04205Y03385D02*
X04228Y03408D01*
X04244Y034D02*
X0425Y03394D01*
Y03315D02*
Y03394D01*
X0426Y03406D02*
X0429Y03376D01*
X0407Y04455D02*
Y04535D01*
X04895Y0459D02*
X05212Y04907D01*
X04895Y04345D02*
Y0459D01*
X0462Y0407D02*
X04895Y04345D01*
X0462Y0365D02*
Y0407D01*
X04381Y04361D02*
X0456Y04183D01*
Y03666D02*
Y04183D01*
X0475Y0242D02*
Y02595D01*
X0457Y027D02*
Y02775D01*
Y02687D02*
Y027D01*
X04645*
X0475Y02595*
X0461Y0277D02*
X04665Y02825D01*
X0461Y02735D02*
Y0277D01*
X0453Y0343D02*
X046Y0336D01*
Y0291D02*
Y0336D01*
X04415Y03465D02*
X0442Y0347D01*
Y0335D02*
X04498Y03272D01*
X03588Y03157D02*
X0359Y03155D01*
X03585Y0316D02*
X03588Y03157D01*
X03145Y02875D02*
X0335D01*
X03055Y02845D02*
X0311D01*
X04835Y03075D02*
X04865Y03045D01*
Y02885D02*
Y03045D01*
X0281Y03095D02*
X0286Y03045D01*
X02946Y03029D02*
X02967Y0305D01*
X0294Y03045D02*
X02961Y03066D01*
X0286Y03045D02*
X0294D01*
X03303Y0305D02*
X03436Y03183D01*
X02967Y0305D02*
X03303D01*
X02961Y03066D02*
X03176D01*
X0333Y0322*
X0332Y03245D02*
X03545D01*
X03235Y0316D02*
X0332Y03245D01*
X03145Y0316D02*
X03235D01*
X03465Y0322D02*
X0358Y03105D01*
X0333Y0322D02*
X03465D01*
X03545Y03245D02*
X03585Y03205D01*
Y0316D02*
Y03205D01*
X0327Y0327D02*
X03409D01*
X03229Y03229D02*
X0327Y0327D01*
X03145Y03159D02*
X03145Y0316D01*
X02775Y0331D02*
Y0332D01*
X0301Y03445D02*
X0308D01*
X0301D02*
X03085Y0352D01*
X02775Y0332D02*
Y0338D01*
X02675Y0321D02*
X02775Y0331D01*
Y0338D02*
X0282Y03425D01*
X03145Y03345D02*
Y0338D01*
X0308Y03445D02*
X03145Y0338D01*
X03415Y03295D02*
X0361Y0349D01*
X03235Y03295D02*
X03415D01*
X03097Y0318D02*
X03228Y03311D01*
X03276*
X03545Y0358*
X03095Y03155D02*
X03235Y03295D01*
X03545Y0358D02*
X03565D01*
X0369Y03657D02*
X03781Y03749D01*
X0369Y035D02*
Y03657D01*
X0378Y0363D02*
X0379D01*
X0373Y0358D02*
X0378Y0363D01*
X0379D02*
Y0364D01*
X0335Y02875D02*
X03495Y0302D01*
Y03025*
X0333Y04735D02*
X03384Y04681D01*
X0333Y04735D02*
X03335D01*
X03384Y04681D02*
X04021D01*
X04067Y04727*
X04132*
X04205Y04655*
X041Y0476D02*
X04132Y04727D01*
X041Y0476D02*
Y05085D01*
X03585Y03155D02*
X0359D01*
X0314Y02875D02*
X03145Y0288D01*
Y02875D02*
Y0288D01*
Y02655D02*
Y02875D01*
X0322Y0322D02*
X03229D01*
X0282Y03425D02*
X02895D01*
X03085Y0352D02*
Y04575D01*
X03145Y02655D02*
X0321Y0259D01*
X0315Y0288D02*
X03153D01*
X03289Y03016*
X0311Y02845D02*
X0314Y02875D01*
X0344Y0361D02*
X0363Y038D01*
X0378*
X04181Y03412D02*
X04182D01*
X0415Y0338D02*
X04181Y03412D01*
X0442Y0335D02*
Y03465D01*
X04567Y02685D02*
X0457Y02687D01*
Y02775D02*
X04651Y02857D01*
X04652*
X04765Y0297*
Y0308*
X0494Y03115D02*
X0502Y03035D01*
X05115*
X0432Y0343D02*
X04325Y03435D01*
Y03675*
X0442Y0377*
Y04135*
X04315Y0424D02*
X0442Y04135D01*
X04315Y0424D02*
Y04275D01*
X05079Y04664D02*
X05089D01*
X04922Y04507D02*
X05079Y04664D01*
X04922Y04312D02*
Y04507D01*
X0468Y0407D02*
X04922Y04312D01*
X0468Y0365D02*
Y0407D01*
X04361Y04341D02*
X045Y04203D01*
Y0366D02*
Y04203D01*
X04465Y03605D02*
Y04215D01*
X04235Y04445D02*
X04465Y04215D01*
X04767Y04872D02*
X0477Y0487D01*
X04332Y04872D02*
X04767D01*
X04332D02*
X04335Y0487D01*
X0428Y04925D02*
X04332Y04872D01*
X04335Y04645D02*
X0446Y0452D01*
X04335Y04645D02*
Y0487D01*
X037Y05185D02*
X038D01*
X0352D02*
X037D01*
X03455Y0525D02*
X0352Y05185D01*
X0342Y0525D02*
X03455D01*
X0378Y0456D02*
X04145Y04195D01*
X0378Y0456D02*
Y04625D01*
X04145Y0379D02*
Y04195D01*
X0407Y03715D02*
X04145Y0379D01*
X03969Y03838D02*
Y0433D01*
X0369Y0461D02*
X03969Y0433D01*
X04005Y03945D02*
X0411Y0384D01*
X03335Y05045D02*
X034Y0498D01*
Y04815D02*
Y0498D01*
Y04815D02*
X035Y04715D01*
X03695*
X0333Y05145D02*
X034D01*
X0358Y04965*
Y04775D02*
Y04965D01*
X04005Y03945D02*
Y0425D01*
X03665Y04244D02*
Y0443D01*
X0352Y04575D02*
X03665Y0443D01*
X03435Y04575D02*
X0352D01*
X03385Y04625D02*
X03435Y04575D01*
X03665Y04244D02*
X0372Y04189D01*
Y0402D02*
Y04189D01*
Y0402D02*
X03935Y03805D01*
X0348Y0461D02*
X0369D01*
X03415Y04236D02*
Y04459D01*
Y04236D02*
X03805Y03846D01*
X0285Y0479D02*
X0294Y0488D01*
Y05035*
X03955Y04665D02*
X04005Y04615D01*
X03225Y04665D02*
X03955D01*
X0315Y0474D02*
X03225Y04665D01*
X04361Y04341D02*
Y04443D01*
X04325Y0448D02*
X04361Y04443D01*
X02633Y0474D02*
X0315D01*
X0438Y0436D02*
Y0452D01*
X0426Y0464D02*
X0438Y0452D01*
X0426Y0464D02*
Y04735D01*
X04235Y04445D02*
Y04515D01*
X04Y0476D02*
X04005Y04755D01*
X038Y0475D02*
Y05085D01*
Y0474D02*
Y0475D01*
X04Y0476D02*
Y05085D01*
X039Y04795D02*
Y05085D01*
X042Y04795D02*
Y05085D01*
X04245Y0331D02*
X0425Y03315D01*
X0429Y03337D02*
Y03376D01*
X04125Y04665D02*
X0414Y0465D01*
Y0443D02*
Y0465D01*
X0412Y04427D02*
Y0458D01*
X04095Y04605D02*
X0412Y0458D01*
X04025Y0445D02*
X0421Y0429D01*
X037Y0478D02*
X03705Y05085D01*
X0408Y03425D02*
X04105D01*
X04045Y0339D02*
X0408Y03425D01*
X04205Y0335D02*
Y03385D01*
X0415Y03335D02*
Y0338D01*
X05063Y03323D02*
X05172Y03215D01*
X04352Y05401D02*
X04973Y0478D01*
X04351Y05401D02*
Y05579D01*
X03416Y05308D02*
X03523D01*
X03245Y05479D02*
X03416Y05308D01*
X03523D02*
X0358Y05251D01*
X03409Y0327D02*
X03455D01*
X03409D02*
X0341D01*
X02935Y03135D02*
X0298Y0318D01*
X02935Y03101D02*
Y03135D01*
X02975Y03125D02*
X03005Y03155D01*
X03566Y05335D02*
X04017D01*
X04099Y05417*
X03645Y03635D02*
X03775Y03765D01*
X0361Y0349D02*
Y035D01*
X03005Y03155D02*
X03095D01*
X0298Y0318D02*
X03097D01*
X0382Y0384D02*
X03825Y03835D01*
X0381Y0384D02*
X0382D01*
X0456Y03615D02*
Y0365D01*
X04465Y03605D02*
X0448Y0359D01*
X0443Y0354D02*
Y0365D01*
X0436Y0347D02*
X0443Y0354D01*
X0408Y03795D02*
X04095D01*
X0408Y0378D02*
X04095Y03795D01*
X03781Y03749D02*
X04044D01*
X04075Y0378*
X0408*
X0411Y0384D02*
Y03845D01*
X04105Y0385D02*
X0411Y03845D01*
X03775Y03765D02*
X03975D01*
X04045Y03835*
Y0384*
X03795Y03715D02*
X0407D01*
X0454Y03D02*
Y031D01*
X03455Y0327D02*
X03645Y0346D01*
Y03635*
G54D33*
X0368Y03852D03*
Y04147D03*
X04319D03*
Y03852D03*
G54D34*
X037Y05085D03*
X0382Y044D03*
G54D35*
X037Y05185D03*
X038Y05085D03*
Y05185D03*
X039Y05085D03*
Y05185D03*
X04Y05085D03*
Y05185D03*
X041Y05085D03*
Y05185D03*
X042Y05085D03*
Y05185D03*
X043Y05085D03*
Y05185D03*
X03325Y0484D03*
Y0494D03*
Y0504D03*
Y0514D03*
Y0524D03*
X0372Y044D03*
X0362D03*
X0352D03*
G54D36*
X03325Y0474D03*
G54D37*
X04655Y02325D03*
X037Y032D03*
X03345Y0298D03*
X0331Y0273D03*
X0442Y04465D03*
X04425Y04795D03*
X0429D03*
X05175Y0501D03*
X05375Y04925D03*
X0521Y04905D03*
X054Y0515D03*
X05315Y03165D03*
X05485Y03205D03*
X0468Y024D03*
X035Y0233D03*
X03495Y0239D03*
X02515Y0321D03*
X02685Y02915D03*
X02755Y04945D03*
X02685Y04825D03*
X025Y0478D03*
X0323Y0558D03*
X03245Y05525D03*
X0459Y05395D03*
X04435Y0569D03*
X0379Y03305D03*
X03625Y0326D03*
X0384Y0334D03*
X0379Y03375D03*
X03595Y0336D03*
X0449Y03275D03*
X02775Y0332D03*
X03565Y0358D03*
X0379Y0364D03*
X03495Y03025D03*
X0384Y03415D03*
X03585Y03155D03*
X03145Y03159D03*
X0322Y0322D03*
X03085Y04575D03*
X0321Y0259D03*
X046Y0291D03*
X0453Y0343D03*
X04435Y0312D03*
X0344Y0361D03*
X0378Y038D03*
X04205Y0335D03*
X0415Y0333D03*
X04245Y0331D03*
X04835Y03075D03*
X04865Y02885D03*
X0457Y027D03*
X04765Y0308D03*
X04665Y02825D03*
X0461Y02735D03*
X0494Y03115D03*
X05115Y03035D03*
X04205Y04655D03*
X0281Y03095D03*
X0346Y03105D03*
X0432Y0343D03*
X04315Y04275D03*
X0477Y0487D03*
X0446Y0452D03*
X0428Y04925D03*
X0342Y0525D03*
X0389Y0431D03*
X0415Y04265D03*
X0411Y0384D03*
X03695Y04715D03*
X0378Y04625D03*
X0358Y04775D03*
X04005Y0425D03*
X0348Y0461D03*
X0285Y0479D03*
X0294Y05035D03*
X04325Y0448D03*
X04005Y04615D03*
X04235Y04515D03*
X04005Y0474D03*
X039Y04795D03*
X0426Y04735D03*
X042Y04795D03*
X0413Y0466D03*
X04095Y04605D03*
X04065Y04535D03*
X038Y0475D03*
X04025Y0445D03*
X03695Y0478D03*
X04105Y03425D03*
X04295Y0333D03*
X04085Y0334D03*
X04351Y05579D03*
X04973Y0478D03*
X05089Y04664D03*
X0358Y05251D03*
X03436Y03183D03*
X04096Y05411D03*
X03415Y0445D03*
X0428Y05532D03*
X04225Y05623D03*
X03698Y05642D03*
X0394Y05549D03*
X02975Y03125D03*
X02935Y03085D03*
X03289Y03016D03*
X03146Y03331D03*
X03Y03434D03*
X02895Y03425D03*
X03055Y0285D03*
X03145Y0288D03*
X03285Y0266D03*
X03564Y05429D03*
X05301Y04709D03*
X04486Y02578D03*
X03465Y02629D03*
X0454Y03D03*
X03935Y03805D03*
X0369Y035D03*
X03825Y03835D03*
X0468Y0365D03*
X0462D03*
X0456D03*
X0506Y0333D03*
X045Y0365D03*
X0443D03*
X0448Y0359D03*
X03969Y03838D03*
X04045Y0384D03*
X0408Y03795D03*
X04045Y0339D03*
X0442Y03465D03*
X03795Y03715D03*
X03789Y03579D03*
X02675Y0321D03*
X0361Y035D03*
G54D38*
X02907Y04354D03*
Y03646D03*
X05093D03*
Y04354D03*
G54D39*
X03385Y0462D03*
X03566Y05335D03*
G54D40*
X05093Y03646D03*
X04745Y03492D03*
X03255D03*
X02907Y03646D03*
X05093Y04354D03*
X02907D03*
X04745Y04508D03*
X03255D03*
G54D41*
X04047Y03502D03*
X04D03*
X03952D03*
X04047Y0355D03*
X04D03*
X03952D03*
X04047Y03597D03*
X04D03*
X03952D03*
G54D42*
X04Y0274D03*
G54D43*
X0355Y0274D03*
X0445D03*
G54D44*
X04086Y05799D03*
Y05731D03*
X03913Y0573D03*
Y05799D03*
M02*