%FSLAX25Y25*%
%MOIN*%
G70*
G01*
G75*
G04 Layer_Color=65535*
%ADD10R,0.03543X0.02756*%
%ADD11R,0.02756X0.03543*%
%ADD12R,0.01969X0.02362*%
%ADD13R,0.02362X0.01969*%
%ADD14R,0.07874X0.03937*%
G04:AMPARAMS|DCode=15|XSize=24mil|YSize=47mil|CornerRadius=0mil|HoleSize=0mil|Usage=FLASHONLY|Rotation=200.000|XOffset=0mil|YOffset=0mil|HoleType=Round|Shape=Rectangle|*
%AMROTATEDRECTD15*
4,1,4,0.00324,0.02619,0.01931,-0.01798,-0.00324,-0.02619,-0.01931,0.01798,0.00324,0.02619,0.0*
%
%ADD15ROTATEDRECTD15*%

G04:AMPARAMS|DCode=16|XSize=24mil|YSize=47mil|CornerRadius=0mil|HoleSize=0mil|Usage=FLASHONLY|Rotation=340.000|XOffset=0mil|YOffset=0mil|HoleType=Round|Shape=Rectangle|*
%AMROTATEDRECTD16*
4,1,4,-0.01931,-0.01798,-0.00324,0.02619,0.01931,0.01798,0.00324,-0.02619,-0.01931,-0.01798,0.0*
%
%ADD16ROTATEDRECTD16*%

G04:AMPARAMS|DCode=17|XSize=24mil|YSize=47mil|CornerRadius=0mil|HoleSize=0mil|Usage=FLASHONLY|Rotation=120.000|XOffset=0mil|YOffset=0mil|HoleType=Round|Shape=Rectangle|*
%AMROTATEDRECTD17*
4,1,4,0.02635,0.00136,-0.01435,-0.02214,-0.02635,-0.00136,0.01435,0.02214,0.02635,0.00136,0.0*
%
%ADD17ROTATEDRECTD17*%

%ADD18R,0.03543X0.03150*%
%ADD19R,0.03150X0.03543*%
%ADD20R,0.17300X0.05650*%
%ADD21O,0.01378X0.05906*%
G04:AMPARAMS|DCode=22|XSize=24mil|YSize=47mil|CornerRadius=0mil|HoleSize=0mil|Usage=FLASHONLY|Rotation=240.000|XOffset=0mil|YOffset=0mil|HoleType=Round|Shape=Rectangle|*
%AMROTATEDRECTD22*
4,1,4,-0.01435,0.02214,0.02635,-0.00136,0.01435,-0.02214,-0.02635,0.00136,-0.01435,0.02214,0.0*
%
%ADD22ROTATEDRECTD22*%

%ADD23R,0.05512X0.04724*%
%ADD24C,0.04000*%
%ADD25R,0.06299X0.05118*%
%ADD26R,0.02913X0.11004*%
%ADD27R,0.04724X0.05512*%
%ADD28R,0.03150X0.01181*%
%ADD29R,0.01181X0.03150*%
%ADD30O,0.03347X0.00984*%
%ADD31O,0.00984X0.03347*%
%ADD32O,0.03150X0.00984*%
%ADD33O,0.00984X0.03150*%
%ADD34R,0.14173X0.14173*%
%ADD35R,0.09843X0.09843*%
%ADD36O,0.00984X0.03740*%
%ADD37O,0.03740X0.00984*%
%ADD38R,0.09449X0.09449*%
%ADD39R,0.05906X0.02362*%
%ADD40R,0.04000X0.02800*%
%ADD41R,0.02756X0.05906*%
%ADD42C,0.02500*%
%ADD43C,0.04000*%
%ADD44C,0.00800*%
%ADD45C,0.01500*%
%ADD46C,0.01000*%
%ADD47C,0.03000*%
%ADD48C,0.02000*%
%ADD49R,0.15800X0.06400*%
%ADD50C,0.15800*%
%ADD51C,0.03100*%
%ADD52C,0.05512*%
%ADD53C,0.05000*%
%ADD54R,0.05906X0.05906*%
%ADD55C,0.05906*%
%ADD56P,0.08352X4X180.0*%
%ADD57C,0.03543*%
%ADD58C,0.03500*%
%ADD59C,0.11200*%
%ADD60C,0.15200*%
%ADD61C,0.17500*%
%ADD62C,0.91500*%
%ADD63C,0.02598*%
%ADD64C,0.00984*%
%ADD65C,0.00787*%
%ADD66C,0.00394*%
%ADD67C,0.00500*%
G36*
X491667Y467877D02*
X489698D01*
Y469255D01*
Y470633D01*
X491667D01*
Y467877D01*
D02*
G37*
G36*
X414950Y578200D02*
X404950D01*
Y558200D01*
X394950D01*
Y578200D01*
X384950D01*
X399950Y593200D01*
X414950Y578200D01*
D02*
G37*
D44*
X596400Y360000D02*
G03*
X596400Y360000I-6400J0D01*
G01*
X226400Y430000D02*
G03*
X226400Y430000I-6400J0D01*
G01*
X481431Y479500D02*
X497572D01*
X481431Y466490D02*
X497572D01*
Y479500D01*
X481431Y466490D02*
Y479500D01*
X498500Y483500D02*
X526500D01*
Y461500D02*
Y483500D01*
Y460500D02*
Y461500D01*
X498500Y460500D02*
X526500D01*
X498500D02*
Y483500D01*
X499500Y482500D02*
X501000D01*
Y481500D02*
Y482500D01*
X499500Y481500D02*
X501000D01*
X499500D02*
Y482500D01*
X498500Y467000D02*
X526500D01*
X502500Y462000D02*
Y467000D01*
Y462000D02*
X506000D01*
Y467000D01*
X476501Y475833D02*
Y473500D01*
X478251D01*
Y474666D01*
Y473500D01*
X480000D01*
Y476999D02*
Y478165D01*
Y477582D01*
X476501D01*
X477084Y476999D01*
X420500Y343500D02*
Y346999D01*
X422249D01*
X422833Y346416D01*
Y345249D01*
X422249Y344666D01*
X420500D01*
X421666D02*
X422833Y343500D01*
X426332Y346999D02*
X423999D01*
Y345249D01*
X425165Y345833D01*
X425748D01*
X426332Y345249D01*
Y344083D01*
X425748Y343500D01*
X424582D01*
X423999Y344083D01*
X427498Y346416D02*
X428081Y346999D01*
X429247D01*
X429830Y346416D01*
Y344083D01*
X429247Y343500D01*
X428081D01*
X427498Y344083D01*
Y346416D01*
X368300Y381900D02*
X371299D01*
Y380400D01*
X370799Y379901D01*
X369799D01*
X369300Y380400D01*
Y381900D01*
Y380900D02*
X368300Y379901D01*
Y377401D02*
X371299D01*
X369799Y378901D01*
Y376902D01*
X368300Y374402D02*
X371299D01*
X369799Y375902D01*
Y373903D01*
X447650Y294100D02*
Y297099D01*
X449150D01*
X449649Y296599D01*
Y295600D01*
X449150Y295100D01*
X447650D01*
X448650D02*
X449649Y294100D01*
X450649D02*
X451649D01*
X451149D01*
Y297099D01*
X450649Y296599D01*
X453148Y294600D02*
X453648Y294100D01*
X454648D01*
X455148Y294600D01*
Y296599D01*
X454648Y297099D01*
X453648D01*
X453148Y296599D01*
Y296099D01*
X453648Y295600D01*
X455148D01*
X416500Y361000D02*
Y363999D01*
X418000D01*
X418499Y363499D01*
Y362499D01*
X418000Y362000D01*
X416500D01*
X417500D02*
X418499Y361000D01*
X420998D02*
Y363999D01*
X419499Y362499D01*
X421498D01*
X407300Y434200D02*
X410299D01*
Y432700D01*
X409799Y432201D01*
X408800D01*
X408300Y432700D01*
Y434200D01*
Y433200D02*
X407300Y432201D01*
Y431201D02*
Y430201D01*
Y430701D01*
X410299D01*
X409799Y431201D01*
X407300Y427202D02*
X410299D01*
X408800Y428702D01*
Y426702D01*
X399500Y424100D02*
X402499D01*
Y422601D01*
X401999Y422101D01*
X400999D01*
X400500Y422601D01*
Y424100D01*
Y423100D02*
X399500Y422101D01*
Y421101D02*
Y420101D01*
Y420601D01*
X402499D01*
X401999Y421101D01*
Y418602D02*
X402499Y418102D01*
Y417102D01*
X401999Y416602D01*
X401499D01*
X400999Y417102D01*
Y417602D01*
Y417102D01*
X400500Y416602D01*
X400000D01*
X399500Y417102D01*
Y418102D01*
X400000Y418602D01*
X470199Y287201D02*
X470699Y287701D01*
Y288700D01*
X470199Y289200D01*
X468200D01*
X467700Y288700D01*
Y287701D01*
X468200Y287201D01*
X470699Y286201D02*
Y284202D01*
X470199D01*
X468200Y286201D01*
X467700D01*
X488299Y299799D02*
X487800Y300299D01*
X486800D01*
X486300Y299799D01*
Y297800D01*
X486800Y297300D01*
X487800D01*
X488299Y297800D01*
X489299Y297300D02*
X490299D01*
X489799D01*
Y300299D01*
X489299Y299799D01*
X491798Y297300D02*
X492798D01*
X492298D01*
Y300299D01*
X491798Y299799D01*
X461799Y295351D02*
X462299Y295850D01*
Y296850D01*
X461799Y297350D01*
X459800D01*
X459300Y296850D01*
Y295850D01*
X459800Y295351D01*
X459300Y294351D02*
Y293351D01*
Y293851D01*
X462299D01*
X461799Y294351D01*
Y291852D02*
X462299Y291352D01*
Y290352D01*
X461799Y289852D01*
X459800D01*
X459300Y290352D01*
Y291352D01*
X459800Y291852D01*
X461799D01*
X493050Y290250D02*
Y293249D01*
X494550D01*
X495049Y292749D01*
Y291750D01*
X494550Y291250D01*
X493050D01*
X494050D02*
X495049Y290250D01*
X498048D02*
X496049D01*
X498048Y292249D01*
Y292749D01*
X497548Y293249D01*
X496549D01*
X496049Y292749D01*
X500548Y290250D02*
Y293249D01*
X499048Y291750D01*
X501047D01*
X477900Y282550D02*
Y285549D01*
X479399D01*
X479899Y285049D01*
Y284050D01*
X479399Y283550D01*
X477900D01*
X478900D02*
X479899Y282550D01*
X482898D02*
X480899D01*
X482898Y284549D01*
Y285049D01*
X482399Y285549D01*
X481399D01*
X480899Y285049D01*
X483898D02*
X484398Y285549D01*
X485398D01*
X485897Y285049D01*
Y284549D01*
X485398Y284050D01*
X484898D01*
X485398D01*
X485897Y283550D01*
Y283050D01*
X485398Y282550D01*
X484398D01*
X483898Y283050D01*
X454450Y284250D02*
Y287249D01*
X455949D01*
X456449Y286749D01*
Y285750D01*
X455949Y285250D01*
X454450D01*
X455450D02*
X456449Y284250D01*
X457449D02*
X458449D01*
X457949D01*
Y287249D01*
X457449Y286749D01*
X459948D02*
X460448Y287249D01*
X461448D01*
X461948Y286749D01*
Y286249D01*
X461448Y285750D01*
X461948Y285250D01*
Y284750D01*
X461448Y284250D01*
X460448D01*
X459948Y284750D01*
Y285250D01*
X460448Y285750D01*
X459948Y286249D01*
Y286749D01*
X460448Y285750D02*
X461448D01*
X472550Y291400D02*
X475549D01*
Y289900D01*
X475049Y289401D01*
X474050D01*
X473550Y289900D01*
Y291400D01*
Y290400D02*
X472550Y289401D01*
Y286402D02*
Y288401D01*
X474549Y286402D01*
X475049D01*
X475549Y286901D01*
Y287901D01*
X475049Y288401D01*
X472550Y285402D02*
Y284402D01*
Y284902D01*
X475549D01*
X475049Y285402D01*
X429100Y432300D02*
X432099D01*
Y430800D01*
X431599Y430301D01*
X430599D01*
X430100Y430800D01*
Y432300D01*
Y431300D02*
X429100Y430301D01*
Y429301D02*
Y428301D01*
Y428801D01*
X432099D01*
X431599Y429301D01*
X429100Y424802D02*
Y426802D01*
X431099Y424802D01*
X431599D01*
X432099Y425302D01*
Y426302D01*
X431599Y426802D01*
X395050Y433900D02*
X398049D01*
Y432401D01*
X397549Y431901D01*
X396550D01*
X396050Y432401D01*
Y433900D01*
Y432900D02*
X395050Y431901D01*
Y430901D02*
Y429901D01*
Y430401D01*
X398049D01*
X397549Y430901D01*
X398049Y426402D02*
X397549Y427402D01*
X396550Y428402D01*
X395550D01*
X395050Y427902D01*
Y426902D01*
X395550Y426402D01*
X396050D01*
X396550Y426902D01*
Y428402D01*
X389450Y439100D02*
X392449D01*
Y437601D01*
X391949Y437101D01*
X390950D01*
X390450Y437601D01*
Y439100D01*
Y438100D02*
X389450Y437101D01*
Y436101D02*
Y435101D01*
Y435601D01*
X392449D01*
X391949Y436101D01*
X392449Y431602D02*
Y433602D01*
X390950D01*
X391449Y432602D01*
Y432102D01*
X390950Y431602D01*
X389950D01*
X389450Y432102D01*
Y433102D01*
X389950Y433602D01*
X409399Y330949D02*
X408899Y331449D01*
X407900D01*
X407400Y330949D01*
Y328950D01*
X407900Y328450D01*
X408899D01*
X409399Y328950D01*
X410399Y328450D02*
X411399D01*
X410899D01*
Y331449D01*
X410399Y330949D01*
X378200Y387050D02*
X381199D01*
Y385550D01*
X380699Y385051D01*
X379699D01*
X379200Y385550D01*
Y387050D01*
Y386050D02*
X378200Y385051D01*
Y382052D02*
Y384051D01*
X380199Y382052D01*
X380699D01*
X381199Y382552D01*
Y383551D01*
X380699Y384051D01*
Y381052D02*
X381199Y380552D01*
Y379552D01*
X380699Y379053D01*
X380199D01*
X379699Y379552D01*
X379200Y379053D01*
X378700D01*
X378200Y379552D01*
Y380552D01*
X378700Y381052D01*
X379200D01*
X379699Y380552D01*
X380199Y381052D01*
X380699D01*
X379699Y380552D02*
Y379552D01*
X381833Y367116D02*
X381249Y367699D01*
X380083D01*
X379500Y367116D01*
Y364783D01*
X380083Y364200D01*
X381249D01*
X381833Y364783D01*
X385331Y364200D02*
X382999D01*
X385331Y366533D01*
Y367116D01*
X384748Y367699D01*
X383582D01*
X382999Y367116D01*
X386498Y364783D02*
X387081Y364200D01*
X388247D01*
X388830Y364783D01*
Y367116D01*
X388247Y367699D01*
X387081D01*
X386498Y367116D01*
Y366533D01*
X387081Y365949D01*
X388830D01*
X411749Y388549D02*
X411249Y389049D01*
X410250D01*
X409750Y388549D01*
Y386550D01*
X410250Y386050D01*
X411249D01*
X411749Y386550D01*
X412749Y388549D02*
X413249Y389049D01*
X414249D01*
X414748Y388549D01*
Y388049D01*
X414249Y387549D01*
X413749D01*
X414249D01*
X414748Y387050D01*
Y386550D01*
X414249Y386050D01*
X413249D01*
X412749Y386550D01*
X415748Y388549D02*
X416248Y389049D01*
X417248D01*
X417747Y388549D01*
Y386550D01*
X417248Y386050D01*
X416248D01*
X415748Y386550D01*
Y388549D01*
X414333Y381583D02*
Y383916D01*
X413749Y384499D01*
X412583D01*
X412000Y383916D01*
Y381583D01*
X412583Y381000D01*
X413749D01*
X413166Y382166D02*
X414333Y381000D01*
X413749D02*
X414333Y381583D01*
X415499Y381000D02*
X416665D01*
X416082D01*
Y384499D01*
X415499Y383916D01*
X331350Y503300D02*
Y506799D01*
X333099D01*
X333683Y506216D01*
Y505049D01*
X333099Y504466D01*
X331350D01*
X332516D02*
X333683Y503300D01*
X337181D02*
X334849D01*
X337181Y505633D01*
Y506216D01*
X336598Y506799D01*
X335432D01*
X334849Y506216D01*
X338348Y506799D02*
X340680D01*
Y506216D01*
X338348Y503883D01*
Y503300D01*
X483850Y340500D02*
Y343999D01*
X485599D01*
X486183Y343416D01*
Y342249D01*
X485599Y341666D01*
X483850D01*
X485016D02*
X486183Y340500D01*
X489681D02*
X487349D01*
X489681Y342833D01*
Y343416D01*
X489098Y343999D01*
X487932D01*
X487349Y343416D01*
X493180Y343999D02*
X490848D01*
Y342249D01*
X492014Y342833D01*
X492597D01*
X493180Y342249D01*
Y341083D01*
X492597Y340500D01*
X491431D01*
X490848Y341083D01*
X406000Y377000D02*
X409499D01*
Y375251D01*
X408916Y374667D01*
X407749D01*
X407166Y375251D01*
Y377000D01*
Y375834D02*
X406000Y374667D01*
Y371752D02*
X409499D01*
X407749Y373501D01*
Y371169D01*
X408916Y370002D02*
X409499Y369419D01*
Y368253D01*
X408916Y367670D01*
X408333D01*
X407749Y368253D01*
Y368836D01*
Y368253D01*
X407166Y367670D01*
X406583D01*
X406000Y368253D01*
Y369419D01*
X406583Y370002D01*
X410501Y354499D02*
X410001Y353999D01*
Y353000D01*
X410501Y352500D01*
X412500D01*
X413000Y353000D01*
Y353999D01*
X412500Y354499D01*
X410501Y355499D02*
X410001Y355999D01*
Y356998D01*
X410501Y357498D01*
X411001D01*
X411501Y356998D01*
Y356499D01*
Y356998D01*
X412000Y357498D01*
X412500D01*
X413000Y356998D01*
Y355999D01*
X412500Y355499D01*
X413000Y358498D02*
Y359498D01*
Y358998D01*
X410001D01*
X410501Y358498D01*
X499999Y488499D02*
X499500Y488999D01*
X498500D01*
X498000Y488499D01*
Y487999D01*
X498500Y487500D01*
X499500D01*
X499999Y487000D01*
Y486500D01*
X499500Y486000D01*
X498500D01*
X498000Y486500D01*
X500999Y488999D02*
Y486000D01*
X501999Y487000D01*
X502998Y486000D01*
Y488999D01*
X505997Y486000D02*
X503998D01*
X505997Y487999D01*
Y488499D01*
X505498Y488999D01*
X504498D01*
X503998Y488499D01*
D46*
X446000Y362550D02*
G03*
X446000Y362550I-5000J0D01*
G01*
X343300Y363000D02*
G03*
X343300Y363000I-5000J0D01*
G01*
X485978Y370000D02*
G03*
X527778Y370000I20900J0D01*
G01*
X527778Y430000D02*
G03*
X485978Y430000I-20900J0D01*
G01*
X314022D02*
G03*
X272222Y430000I-20900J0D01*
G01*
X272222Y370000D02*
G03*
X314022Y370000I20900J0D01*
G01*
X433978Y411000D02*
Y431000D01*
X434978Y430512D02*
X527963D01*
X433978Y370000D02*
Y389000D01*
X432978D02*
X433978D01*
X432978D02*
Y396000D01*
Y411000D01*
X433978D01*
Y369488D02*
X527963D01*
Y430512D01*
X399939Y390000D02*
X432978D01*
X399978Y410000D02*
X432978D01*
X399978Y403000D02*
Y410000D01*
X397978Y403000D02*
X399978D01*
X397978Y397000D02*
Y403000D01*
Y397000D02*
X399939D01*
Y390000D02*
Y397000D01*
X469500Y514000D02*
Y515000D01*
Y514000D02*
X471500D01*
Y515000D01*
X483800Y515500D02*
X486800D01*
X485400Y514126D02*
Y517000D01*
X459500Y515307D02*
X482000D01*
X459500Y533024D02*
X482000D01*
X458949Y515500D02*
Y533000D01*
X482177Y515500D02*
Y533000D01*
X365200Y503998D02*
Y504298D01*
X366022Y369000D02*
Y389000D01*
X272037Y369488D02*
X365022D01*
X366022Y411000D02*
Y430000D01*
Y411000D02*
X367022D01*
Y404000D02*
Y411000D01*
Y389000D02*
Y404000D01*
X366022Y389000D02*
X367022D01*
X272037Y430512D02*
X366022D01*
X272037Y369488D02*
Y430512D01*
X367022Y410000D02*
X400061D01*
X367022Y390000D02*
X400022D01*
Y397000D01*
X402022D01*
Y403000D01*
X400061D02*
X402022D01*
X400061D02*
Y410000D01*
X584250Y375848D02*
Y369850D01*
Y372849D01*
X588249D01*
Y375848D01*
Y369850D01*
X594247D02*
X590248D01*
X594247Y373849D01*
Y374848D01*
X593247Y375848D01*
X591248D01*
X590248Y374848D01*
X214250Y445848D02*
Y439850D01*
Y442849D01*
X218249D01*
Y445848D01*
Y439850D01*
X220248D02*
X222247D01*
X221248D01*
Y445848D01*
X220248Y444848D01*
X473000Y478000D02*
X469001D01*
Y479999D01*
X469668Y480666D01*
X471001D01*
X471667Y479999D01*
Y478000D01*
Y479333D02*
X473000Y480666D01*
Y484664D02*
Y481999D01*
X470334Y484664D01*
X469668D01*
X469001Y483998D01*
Y482665D01*
X469668Y481999D01*
X469001Y488663D02*
X469668Y487330D01*
X471001Y485997D01*
X472334D01*
X473000Y486664D01*
Y487997D01*
X472334Y488663D01*
X471667D01*
X471001Y487997D01*
Y485997D01*
X454316Y508649D02*
X452983D01*
X453649D01*
Y505316D01*
X452983Y504650D01*
X452316D01*
X451650Y505316D01*
X457648Y504650D02*
Y508649D01*
X455649Y506649D01*
X458315D01*
X448500Y489500D02*
X444501D01*
Y491499D01*
X445168Y492166D01*
X446501D01*
X447167Y491499D01*
Y489500D01*
Y490833D02*
X448500Y492166D01*
Y496165D02*
Y493499D01*
X445834Y496165D01*
X445168D01*
X444501Y495498D01*
Y494165D01*
X445168Y493499D01*
Y497497D02*
X444501Y498164D01*
Y499497D01*
X445168Y500163D01*
X447834D01*
X448500Y499497D01*
Y498164D01*
X447834Y497497D01*
X445168D01*
X463051Y481450D02*
X467050D01*
Y483449D01*
X466384Y484116D01*
X463718D01*
X463051Y483449D01*
Y481450D01*
X467050Y488115D02*
Y485449D01*
X464384Y488115D01*
X463718D01*
X463051Y487448D01*
Y486115D01*
X463718Y485449D01*
X455601Y482950D02*
X459600D01*
Y484949D01*
X458934Y485616D01*
X456268D01*
X455601Y484949D01*
Y482950D01*
X459600Y486949D02*
Y488282D01*
Y487615D01*
X455601D01*
X456268Y486949D01*
X512500Y498500D02*
X508501D01*
Y500499D01*
X509168Y501166D01*
X510501D01*
X511167Y500499D01*
Y498500D01*
Y499833D02*
X512500Y501166D01*
Y504498D02*
X508501D01*
X510501Y502499D01*
Y505164D01*
X509168Y506497D02*
X508501Y507164D01*
Y508497D01*
X509168Y509163D01*
X511834D01*
X512500Y508497D01*
Y507164D01*
X511834Y506497D01*
X509168D01*
X257201Y479687D02*
X258867Y482573D01*
X258623Y483483D01*
X257469Y484150D01*
X256558Y483906D01*
X254892Y481020D01*
X255737Y485149D02*
X254583Y485816D01*
X255160Y485483D01*
X253161Y482020D01*
X254071Y482264D01*
X252851Y486816D02*
X251697Y487482D01*
X252274Y487149D01*
X250275Y483686D01*
X251185Y483930D01*
X271899Y296137D02*
X270233Y299023D01*
X269323Y299267D01*
X268168Y298600D01*
X267925Y297690D01*
X269591Y294804D01*
X266437Y297601D02*
X265283Y296934D01*
X265860Y297267D01*
X267859Y293804D01*
X268103Y294715D01*
X261243Y294602D02*
X263551Y295935D01*
X262575Y292293D01*
X262909Y291716D01*
X263819Y291472D01*
X264973Y292138D01*
X265217Y293049D01*
X359850Y332900D02*
Y336899D01*
X361849D01*
X362516Y336232D01*
Y334899D01*
X361849Y334233D01*
X359850D01*
X361183D02*
X362516Y332900D01*
X363849Y336232D02*
X364515Y336899D01*
X365848D01*
X366514Y336232D01*
Y335566D01*
X365848Y334899D01*
X365182D01*
X365848D01*
X366514Y334233D01*
Y333566D01*
X365848Y332900D01*
X364515D01*
X363849Y333566D01*
X389500Y550500D02*
X393499D01*
Y548501D01*
X392832Y547834D01*
X391499D01*
X390833Y548501D01*
Y550500D01*
Y549167D02*
X389500Y547834D01*
X390166Y546501D02*
X389500Y545835D01*
Y544502D01*
X390166Y543835D01*
X392832D01*
X393499Y544502D01*
Y545835D01*
X392832Y546501D01*
X392166D01*
X391499Y545835D01*
Y543835D01*
X384050Y550800D02*
X388049D01*
Y548801D01*
X387382Y548134D01*
X386049D01*
X385383Y548801D01*
Y550800D01*
Y549467D02*
X384050Y548134D01*
X387382Y546801D02*
X388049Y546135D01*
Y544802D01*
X387382Y544136D01*
X386716D01*
X386049Y544802D01*
X385383Y544136D01*
X384716D01*
X384050Y544802D01*
Y546135D01*
X384716Y546801D01*
X385383D01*
X386049Y546135D01*
X386716Y546801D01*
X387382D01*
X386049Y546135D02*
Y544802D01*
X378250Y550850D02*
X382249D01*
Y548851D01*
X381582Y548184D01*
X380249D01*
X379583Y548851D01*
Y550850D01*
Y549517D02*
X378250Y548184D01*
X382249Y546851D02*
Y544185D01*
X381582D01*
X378916Y546851D01*
X378250D01*
X372700Y550900D02*
X376699D01*
Y548901D01*
X376032Y548234D01*
X374699D01*
X374033Y548901D01*
Y550900D01*
Y549567D02*
X372700Y548234D01*
X376699Y544236D02*
X376032Y545568D01*
X374699Y546901D01*
X373366D01*
X372700Y546235D01*
Y544902D01*
X373366Y544236D01*
X374033D01*
X374699Y544902D01*
Y546901D01*
X297450Y475650D02*
X301449D01*
Y473651D01*
X300782Y472984D01*
X299449D01*
X298783Y473651D01*
Y475650D01*
Y474317D02*
X297450Y472984D01*
Y471651D02*
Y470318D01*
Y470985D01*
X301449D01*
X300782Y471651D01*
X297450Y468319D02*
Y466986D01*
Y467653D01*
X301449D01*
X300782Y468319D01*
X281800Y469550D02*
X285799D01*
Y467551D01*
X285132Y466884D01*
X283799D01*
X283133Y467551D01*
Y469550D01*
Y468217D02*
X281800Y466884D01*
Y465551D02*
Y464218D01*
Y464885D01*
X285799D01*
X285132Y465551D01*
Y462219D02*
X285799Y461553D01*
Y460220D01*
X285132Y459553D01*
X282466D01*
X281800Y460220D01*
Y461553D01*
X282466Y462219D01*
X285132D01*
X465100Y331650D02*
Y335649D01*
X467099D01*
X467766Y334982D01*
Y333649D01*
X467099Y332983D01*
X465100D01*
X466433D02*
X467766Y331650D01*
X471765D02*
X469099D01*
X471765Y334316D01*
Y334982D01*
X471098Y335649D01*
X469765D01*
X469099Y334982D01*
X475763Y331650D02*
X473097D01*
X475763Y334316D01*
Y334982D01*
X475097Y335649D01*
X473764D01*
X473097Y334982D01*
X440832Y342334D02*
X441499Y343001D01*
Y344334D01*
X440832Y345000D01*
X438166D01*
X437500Y344334D01*
Y343001D01*
X438166Y342334D01*
X441499Y338335D02*
X440832Y339668D01*
X439499Y341001D01*
X438166D01*
X437500Y340335D01*
Y339002D01*
X438166Y338335D01*
X438833D01*
X439499Y339002D01*
Y341001D01*
X523832Y311884D02*
X524499Y312551D01*
Y313884D01*
X523832Y314550D01*
X521166D01*
X520500Y313884D01*
Y312551D01*
X521166Y311884D01*
X520500Y310551D02*
Y309218D01*
Y309885D01*
X524499D01*
X523832Y310551D01*
X520500Y304553D02*
Y307219D01*
X523166Y304553D01*
X523832D01*
X524499Y305220D01*
Y306553D01*
X523832Y307219D01*
X491066Y336732D02*
X490399Y337399D01*
X489066D01*
X488400Y336732D01*
Y334066D01*
X489066Y333400D01*
X490399D01*
X491066Y334066D01*
X492399D02*
X493065Y333400D01*
X494398D01*
X495064Y334066D01*
Y336732D01*
X494398Y337399D01*
X493065D01*
X492399Y336732D01*
Y336066D01*
X493065Y335399D01*
X495064D01*
X447832Y342834D02*
X448499Y343501D01*
Y344834D01*
X447832Y345500D01*
X445166D01*
X444500Y344834D01*
Y343501D01*
X445166Y342834D01*
X447832Y341501D02*
X448499Y340835D01*
Y339502D01*
X447832Y338836D01*
X447166D01*
X446499Y339502D01*
X445833Y338836D01*
X445166D01*
X444500Y339502D01*
Y340835D01*
X445166Y341501D01*
X445833D01*
X446499Y340835D01*
X447166Y341501D01*
X447832D01*
X446499Y340835D02*
Y339502D01*
X322466Y498132D02*
X321799Y498799D01*
X320466D01*
X319800Y498132D01*
Y495466D01*
X320466Y494800D01*
X321799D01*
X322466Y495466D01*
X326465Y494800D02*
X323799D01*
X326465Y497466D01*
Y498132D01*
X325798Y498799D01*
X324465D01*
X323799Y498132D01*
X298100Y347799D02*
Y344466D01*
X298766Y343800D01*
X300099D01*
X300766Y344466D01*
Y347799D01*
X302099Y347132D02*
X302765Y347799D01*
X304098D01*
X304765Y347132D01*
Y346466D01*
X304098Y345799D01*
X304765Y345133D01*
Y344466D01*
X304098Y343800D01*
X302765D01*
X302099Y344466D01*
Y345133D01*
X302765Y345799D01*
X302099Y346466D01*
Y347132D01*
X302765Y345799D02*
X304098D01*
X398300Y368549D02*
Y365216D01*
X398966Y364550D01*
X400299D01*
X400966Y365216D01*
Y368549D01*
X402299Y364550D02*
X403632D01*
X402965D01*
Y368549D01*
X402299Y367882D01*
X421349Y441150D02*
X418016D01*
X417350Y440484D01*
Y439151D01*
X418016Y438484D01*
X421349D01*
Y434485D02*
X420682Y435818D01*
X419349Y437151D01*
X418016D01*
X417350Y436485D01*
Y435152D01*
X418016Y434485D01*
X418683D01*
X419349Y435152D01*
Y437151D01*
X284400Y503899D02*
Y500566D01*
X285066Y499900D01*
X286399D01*
X287066Y500566D01*
Y503899D01*
X291065D02*
X288399D01*
Y501899D01*
X289732Y502566D01*
X290398D01*
X291065Y501899D01*
Y500566D01*
X290398Y499900D01*
X289065D01*
X288399Y500566D01*
X383999Y442450D02*
X380666D01*
X380000Y441784D01*
Y440451D01*
X380666Y439784D01*
X383999D01*
X380000Y436452D02*
X383999D01*
X381999Y438451D01*
Y435785D01*
X274800Y345450D02*
X278799D01*
Y343451D01*
X278132Y342784D01*
X276799D01*
X276133Y343451D01*
Y345450D01*
Y344117D02*
X274800Y342784D01*
X278132Y341451D02*
X278799Y340785D01*
Y339452D01*
X278132Y338786D01*
X277466D01*
X276799Y339452D01*
Y340118D01*
Y339452D01*
X276133Y338786D01*
X275466D01*
X274800Y339452D01*
Y340785D01*
X275466Y341451D01*
Y337453D02*
X274800Y336786D01*
Y335453D01*
X275466Y334787D01*
X278132D01*
X278799Y335453D01*
Y336786D01*
X278132Y337453D01*
X277466D01*
X276799Y336786D01*
Y334787D01*
X423650Y551350D02*
Y555349D01*
X425649D01*
X426316Y554682D01*
Y553349D01*
X425649Y552683D01*
X423650D01*
X424983D02*
X426316Y551350D01*
X427649Y554682D02*
X428315Y555349D01*
X429648D01*
X430314Y554682D01*
Y554016D01*
X429648Y553349D01*
X428982D01*
X429648D01*
X430314Y552683D01*
Y552016D01*
X429648Y551350D01*
X428315D01*
X427649Y552016D01*
X431647Y554682D02*
X432314Y555349D01*
X433647D01*
X434313Y554682D01*
Y554016D01*
X433647Y553349D01*
X434313Y552683D01*
Y552016D01*
X433647Y551350D01*
X432314D01*
X431647Y552016D01*
Y552683D01*
X432314Y553349D01*
X431647Y554016D01*
Y554682D01*
X432314Y553349D02*
X433647D01*
X520500Y498000D02*
X516501D01*
Y499999D01*
X517168Y500666D01*
X518501D01*
X519167Y499999D01*
Y498000D01*
Y499333D02*
X520500Y500666D01*
X517168Y501999D02*
X516501Y502665D01*
Y503998D01*
X517168Y504665D01*
X517834D01*
X518501Y503998D01*
Y503332D01*
Y503998D01*
X519167Y504665D01*
X519834D01*
X520500Y503998D01*
Y502665D01*
X519834Y501999D01*
X516501Y505997D02*
Y508663D01*
X517168D01*
X519834Y505997D01*
X520500D01*
X518600Y331900D02*
X522599D01*
Y329901D01*
X521932Y329234D01*
X520599D01*
X519933Y329901D01*
Y331900D01*
Y330567D02*
X518600Y329234D01*
X521932Y327901D02*
X522599Y327235D01*
Y325902D01*
X521932Y325236D01*
X521266D01*
X520599Y325902D01*
Y326568D01*
Y325902D01*
X519933Y325236D01*
X519266D01*
X518600Y325902D01*
Y327235D01*
X519266Y327901D01*
X522599Y321237D02*
X521932Y322570D01*
X520599Y323903D01*
X519266D01*
X518600Y323236D01*
Y321903D01*
X519266Y321237D01*
X519933D01*
X520599Y321903D01*
Y323903D01*
X473150Y268750D02*
Y272749D01*
X475149D01*
X475816Y272082D01*
Y270749D01*
X475149Y270083D01*
X473150D01*
X474483D02*
X475816Y268750D01*
X477149Y272082D02*
X477815Y272749D01*
X479148D01*
X479814Y272082D01*
Y271416D01*
X479148Y270749D01*
X478482D01*
X479148D01*
X479814Y270083D01*
Y269416D01*
X479148Y268750D01*
X477815D01*
X477149Y269416D01*
X483813Y272749D02*
X481147D01*
Y270749D01*
X482480Y271416D01*
X483147D01*
X483813Y270749D01*
Y269416D01*
X483147Y268750D01*
X481814D01*
X481147Y269416D01*
X319700Y269400D02*
Y273399D01*
X321699D01*
X322366Y272732D01*
Y271399D01*
X321699Y270733D01*
X319700D01*
X321033D02*
X322366Y269400D01*
X323699Y272732D02*
X324365Y273399D01*
X325698D01*
X326364Y272732D01*
Y272066D01*
X325698Y271399D01*
X325032D01*
X325698D01*
X326364Y270733D01*
Y270066D01*
X325698Y269400D01*
X324365D01*
X323699Y270066D01*
X329697Y269400D02*
Y273399D01*
X327697Y271399D01*
X330363D01*
X245850Y326250D02*
Y330249D01*
X247849D01*
X248516Y329582D01*
Y328249D01*
X247849Y327583D01*
X245850D01*
X247183D02*
X248516Y326250D01*
X249849Y329582D02*
X250515Y330249D01*
X251848D01*
X252515Y329582D01*
Y328916D01*
X251848Y328249D01*
X251182D01*
X251848D01*
X252515Y327583D01*
Y326916D01*
X251848Y326250D01*
X250515D01*
X249849Y326916D01*
X253847Y329582D02*
X254514Y330249D01*
X255847D01*
X256513Y329582D01*
Y328916D01*
X255847Y328249D01*
X255180D01*
X255847D01*
X256513Y327583D01*
Y326916D01*
X255847Y326250D01*
X254514D01*
X253847Y326916D01*
X276400Y480700D02*
X280399D01*
Y478701D01*
X279732Y478034D01*
X278399D01*
X277733Y478701D01*
Y480700D01*
Y479367D02*
X276400Y478034D01*
X279732Y476701D02*
X280399Y476035D01*
Y474702D01*
X279732Y474036D01*
X279066D01*
X278399Y474702D01*
Y475368D01*
Y474702D01*
X277733Y474036D01*
X277066D01*
X276400Y474702D01*
Y476035D01*
X277066Y476701D01*
X276400Y470037D02*
Y472703D01*
X279066Y470037D01*
X279732D01*
X280399Y470703D01*
Y472036D01*
X279732Y472703D01*
X346650Y530200D02*
Y534199D01*
X348649D01*
X349316Y533532D01*
Y532199D01*
X348649Y531533D01*
X346650D01*
X347983D02*
X349316Y530200D01*
X350649Y533532D02*
X351315Y534199D01*
X352648D01*
X353314Y533532D01*
Y532866D01*
X352648Y532199D01*
X351982D01*
X352648D01*
X353314Y531533D01*
Y530866D01*
X352648Y530200D01*
X351315D01*
X350649Y530866D01*
X354647Y530200D02*
X355980D01*
X355314D01*
Y534199D01*
X354647Y533532D01*
X367050Y435600D02*
X371049D01*
Y433601D01*
X370382Y432934D01*
X369049D01*
X368383Y433601D01*
Y435600D01*
Y434267D02*
X367050Y432934D01*
Y431601D02*
Y430268D01*
Y430935D01*
X371049D01*
X370382Y431601D01*
X371049Y428269D02*
Y425603D01*
X370382D01*
X367716Y428269D01*
X367050D01*
X326850Y324949D02*
Y320950D01*
X329516D01*
X330849Y324282D02*
X331515Y324949D01*
X332848D01*
X333514Y324282D01*
Y323616D01*
X332848Y322949D01*
X332182D01*
X332848D01*
X333514Y322283D01*
Y321616D01*
X332848Y320950D01*
X331515D01*
X330849Y321616D01*
X504100Y328799D02*
Y324800D01*
X506766D01*
X510765D02*
X508099D01*
X510765Y327466D01*
Y328132D01*
X510098Y328799D01*
X508765D01*
X508099Y328132D01*
X436200Y318599D02*
Y314600D01*
X438866D01*
X440199D02*
X441532D01*
X440865D01*
Y318599D01*
X440199Y317932D01*
X451666Y525499D02*
X450333D01*
X450999D01*
Y522166D01*
X450333Y521500D01*
X449666D01*
X449000Y522166D01*
X452999Y524832D02*
X453665Y525499D01*
X454998D01*
X455664Y524832D01*
Y524166D01*
X454998Y523499D01*
X454332D01*
X454998D01*
X455664Y522833D01*
Y522166D01*
X454998Y521500D01*
X453665D01*
X452999Y522166D01*
X288616Y291232D02*
X287949Y291899D01*
X286616D01*
X285950Y291232D01*
Y288566D01*
X286616Y287900D01*
X287949D01*
X288616Y288566D01*
X292615Y287900D02*
X289949D01*
X292615Y290566D01*
Y291232D01*
X291948Y291899D01*
X290615D01*
X289949Y291232D01*
X293947Y291899D02*
X296613D01*
Y291232D01*
X293947Y288566D01*
Y287900D01*
X334732Y309184D02*
X335399Y309851D01*
Y311184D01*
X334732Y311850D01*
X332066D01*
X331400Y311184D01*
Y309851D01*
X332066Y309184D01*
X331400Y305186D02*
Y307851D01*
X334066Y305186D01*
X334732D01*
X335399Y305852D01*
Y307185D01*
X334732Y307851D01*
X331400Y301853D02*
X335399D01*
X333399Y303853D01*
Y301187D01*
X290116Y310682D02*
X289449Y311349D01*
X288116D01*
X287450Y310682D01*
Y308016D01*
X288116Y307350D01*
X289449D01*
X290116Y308016D01*
X294114Y307350D02*
X291449D01*
X294114Y310016D01*
Y310682D01*
X293448Y311349D01*
X292115D01*
X291449Y310682D01*
X295447D02*
X296114Y311349D01*
X297447D01*
X298113Y310682D01*
Y310016D01*
X297447Y309349D01*
X296780D01*
X297447D01*
X298113Y308683D01*
Y308016D01*
X297447Y307350D01*
X296114D01*
X295447Y308016D01*
X270716Y330032D02*
X270049Y330699D01*
X268716D01*
X268050Y330032D01*
Y327366D01*
X268716Y326700D01*
X270049D01*
X270716Y327366D01*
X274714Y326700D02*
X272049D01*
X274714Y329366D01*
Y330032D01*
X274048Y330699D01*
X272715D01*
X272049Y330032D01*
X278713Y326700D02*
X276047D01*
X278713Y329366D01*
Y330032D01*
X278047Y330699D01*
X276714D01*
X276047Y330032D01*
X279766Y323732D02*
X279099Y324399D01*
X277766D01*
X277100Y323732D01*
Y321066D01*
X277766Y320400D01*
X279099D01*
X279766Y321066D01*
X283765Y320400D02*
X281099D01*
X283765Y323066D01*
Y323732D01*
X283098Y324399D01*
X281765D01*
X281099Y323732D01*
X285097Y320400D02*
X286430D01*
X285764D01*
Y324399D01*
X285097Y323732D01*
X432266Y563732D02*
X431599Y564399D01*
X430266D01*
X429600Y563732D01*
Y561066D01*
X430266Y560400D01*
X431599D01*
X432266Y561066D01*
X436265Y560400D02*
X433599D01*
X436265Y563066D01*
Y563732D01*
X435598Y564399D01*
X434265D01*
X433599Y563732D01*
X437597D02*
X438264Y564399D01*
X439597D01*
X440263Y563732D01*
Y561066D01*
X439597Y560400D01*
X438264D01*
X437597Y561066D01*
Y563732D01*
X531266Y471932D02*
X530599Y472599D01*
X529266D01*
X528600Y471932D01*
Y469266D01*
X529266Y468600D01*
X530599D01*
X531266Y469266D01*
X532599Y468600D02*
X533932D01*
X533265D01*
Y472599D01*
X532599Y471932D01*
X535931Y469266D02*
X536597Y468600D01*
X537930D01*
X538597Y469266D01*
Y471932D01*
X537930Y472599D01*
X536597D01*
X535931Y471932D01*
Y471266D01*
X536597Y470599D01*
X538597D01*
X536616Y329332D02*
X535949Y329999D01*
X534616D01*
X533950Y329332D01*
Y326666D01*
X534616Y326000D01*
X535949D01*
X536616Y326666D01*
X537949Y326000D02*
X539282D01*
X538615D01*
Y329999D01*
X537949Y329332D01*
X541281D02*
X541947Y329999D01*
X543280D01*
X543947Y329332D01*
Y328666D01*
X543280Y327999D01*
X543947Y327333D01*
Y326666D01*
X543280Y326000D01*
X541947D01*
X541281Y326666D01*
Y327333D01*
X541947Y327999D01*
X541281Y328666D01*
Y329332D01*
X541947Y327999D02*
X543280D01*
X483116Y261582D02*
X482449Y262249D01*
X481116D01*
X480450Y261582D01*
Y258916D01*
X481116Y258250D01*
X482449D01*
X483116Y258916D01*
X484449Y258250D02*
X485782D01*
X485115D01*
Y262249D01*
X484449Y261582D01*
X487781Y262249D02*
X490447D01*
Y261582D01*
X487781Y258916D01*
Y258250D01*
X341416Y261982D02*
X340749Y262649D01*
X339416D01*
X338750Y261982D01*
Y259316D01*
X339416Y258650D01*
X340749D01*
X341416Y259316D01*
X342749Y258650D02*
X344082D01*
X343415D01*
Y262649D01*
X342749Y261982D01*
X348747Y262649D02*
X347414Y261982D01*
X346081Y260649D01*
Y259316D01*
X346747Y258650D01*
X348080D01*
X348747Y259316D01*
Y259983D01*
X348080Y260649D01*
X346081D01*
X243616Y315632D02*
X242949Y316299D01*
X241616D01*
X240950Y315632D01*
Y312966D01*
X241616Y312300D01*
X242949D01*
X243616Y312966D01*
X244949Y312300D02*
X246282D01*
X245615D01*
Y316299D01*
X244949Y315632D01*
X250947Y316299D02*
X248281D01*
Y314299D01*
X249614Y314966D01*
X250280D01*
X250947Y314299D01*
Y312966D01*
X250280Y312300D01*
X248947D01*
X248281Y312966D01*
X265782Y477184D02*
X266449Y477851D01*
Y479184D01*
X265782Y479850D01*
X263116D01*
X262450Y479184D01*
Y477851D01*
X263116Y477184D01*
X262450Y475851D02*
Y474518D01*
Y475185D01*
X266449D01*
X265782Y475851D01*
X262450Y470520D02*
X266449D01*
X264449Y472519D01*
Y469853D01*
X363632Y542584D02*
X364299Y543251D01*
Y544584D01*
X363632Y545250D01*
X360966D01*
X360300Y544584D01*
Y543251D01*
X360966Y542584D01*
X360300Y541251D02*
Y539918D01*
Y540585D01*
X364299D01*
X363632Y541251D01*
Y537919D02*
X364299Y537253D01*
Y535920D01*
X363632Y535253D01*
X362966D01*
X362299Y535920D01*
Y536586D01*
Y535920D01*
X361633Y535253D01*
X360966D01*
X360300Y535920D01*
Y537253D01*
X360966Y537919D01*
X315916Y466382D02*
X315249Y467049D01*
X313916D01*
X313250Y466382D01*
Y463716D01*
X313916Y463050D01*
X315249D01*
X315916Y463716D01*
X319915Y467049D02*
X317249D01*
Y465049D01*
X318582Y465716D01*
X319248D01*
X319915Y465049D01*
Y463716D01*
X319248Y463050D01*
X317915D01*
X317249Y463716D01*
X443292Y558968D02*
X446424Y557828D01*
X447278Y558226D01*
X447734Y559479D01*
X447335Y560333D01*
X444204Y561473D01*
X448418Y561358D02*
X448874Y562610D01*
X448646Y561984D01*
X444888Y563351D01*
X445286Y562497D01*
X445800Y565857D02*
X446711Y568362D01*
X447338Y568134D01*
X448931Y564717D01*
X449557Y564489D01*
X528301Y503713D02*
X529967Y500827D01*
X530877Y500583D01*
X532031Y501250D01*
X532275Y502160D01*
X530609Y505046D01*
X533763Y502249D02*
X534917Y502916D01*
X534340Y502583D01*
X532341Y506046D01*
X532097Y505135D01*
X536958Y508711D02*
X536137Y507468D01*
X535649Y505647D01*
X536316Y504493D01*
X537226Y504249D01*
X538380Y504915D01*
X538624Y505826D01*
X538291Y506403D01*
X537381Y506647D01*
X535649Y505647D01*
X477758Y254118D02*
X474626Y252978D01*
X474228Y252124D01*
X474684Y250871D01*
X475538Y250473D01*
X478669Y251613D01*
X475368Y248992D02*
X475823Y247740D01*
X475596Y248366D01*
X479353Y249734D01*
X478499Y250132D01*
X477191Y243982D02*
X480949Y245350D01*
X478386Y246545D01*
X479298Y244040D01*
X348808Y244182D02*
X345676Y245322D01*
X344822Y244924D01*
X344366Y243671D01*
X344764Y242817D01*
X347896Y241677D01*
X343682Y241792D02*
X343227Y240540D01*
X343454Y241166D01*
X347212Y239798D01*
X346814Y240653D01*
X345674Y237521D02*
X346072Y236667D01*
X345616Y235415D01*
X344762Y235016D01*
X344136Y235244D01*
X343738Y236099D01*
X343966Y236725D01*
X343738Y236099D01*
X342883Y235700D01*
X342257Y235928D01*
X341859Y236782D01*
X342315Y238035D01*
X343169Y238433D01*
X330442Y547582D02*
X333574Y548722D01*
X333972Y549576D01*
X333516Y550829D01*
X332662Y551227D01*
X329531Y550087D01*
X332832Y552708D02*
X332377Y553960D01*
X332604Y553334D01*
X328847Y551966D01*
X329701Y551568D01*
X328561Y554699D02*
X327707Y555097D01*
X327251Y556350D01*
X327650Y557204D01*
X330155Y558116D01*
X331009Y557718D01*
X331465Y556465D01*
X331066Y555611D01*
X328561Y554699D01*
X456300Y331249D02*
Y327916D01*
X456966Y327250D01*
X458299D01*
X458966Y327916D01*
Y331249D01*
X462964Y327250D02*
X460299D01*
X462964Y329916D01*
Y330582D01*
X462298Y331249D01*
X460965D01*
X460299Y330582D01*
X322866Y483332D02*
X322199Y483999D01*
X320866D01*
X320200Y483332D01*
Y480666D01*
X320866Y480000D01*
X322199D01*
X322866Y480666D01*
X326198Y480000D02*
Y483999D01*
X324199Y481999D01*
X326865D01*
X322966Y491532D02*
X322299Y492199D01*
X320966D01*
X320300Y491532D01*
Y488866D01*
X320966Y488200D01*
X322299D01*
X322966Y488866D01*
X324299Y491532D02*
X324965Y492199D01*
X326298D01*
X326964Y491532D01*
Y490866D01*
X326298Y490199D01*
X325632D01*
X326298D01*
X326964Y489533D01*
Y488866D01*
X326298Y488200D01*
X324965D01*
X324299Y488866D01*
X451100Y434000D02*
Y437999D01*
X452433Y436666D01*
X453766Y437999D01*
Y434000D01*
X457764D02*
X455099D01*
X457764Y436666D01*
Y437332D01*
X457098Y437999D01*
X455765D01*
X455099Y437332D01*
X345850Y433100D02*
Y437099D01*
X347183Y435766D01*
X348516Y437099D01*
Y433100D01*
X349849D02*
X351182D01*
X350515D01*
Y437099D01*
X349849Y436432D01*
X367066Y494399D02*
X365733D01*
X366399D01*
Y491066D01*
X365733Y490400D01*
X365066D01*
X364400Y491066D01*
X368399Y490400D02*
X369732D01*
X369065D01*
Y494399D01*
X368399Y493732D01*
X268187Y262958D02*
X269130Y262015D01*
X268659Y262486D01*
X271015Y264843D01*
X271957D01*
X272429Y264371D01*
Y263429D01*
X268187Y268613D02*
X270073Y266727D01*
X266302D01*
X265831Y266256D01*
Y265314D01*
X266774Y264371D01*
X267716D01*
X322832Y306384D02*
X323499Y307051D01*
Y308384D01*
X322832Y309050D01*
X320166D01*
X319500Y308384D01*
Y307051D01*
X320166Y306384D01*
X319500Y302385D02*
Y305051D01*
X322166Y302385D01*
X322832D01*
X323499Y303052D01*
Y304385D01*
X322832Y305051D01*
X323499Y298387D02*
Y301053D01*
X321499D01*
X322166Y299720D01*
Y299053D01*
X321499Y298387D01*
X320166D01*
X319500Y299053D01*
Y300386D01*
X320166Y301053D01*
X313732Y328384D02*
X314399Y329051D01*
Y330384D01*
X313732Y331050D01*
X311066D01*
X310400Y330384D01*
Y329051D01*
X311066Y328384D01*
X310400Y324385D02*
Y327051D01*
X313066Y324385D01*
X313732D01*
X314399Y325052D01*
Y326385D01*
X313732Y327051D01*
X314399Y320387D02*
X313732Y321720D01*
X312399Y323053D01*
X311066D01*
X310400Y322386D01*
Y321053D01*
X311066Y320387D01*
X311733D01*
X312399Y321053D01*
Y323053D01*
X420600Y319400D02*
Y323399D01*
X422599D01*
X423266Y322732D01*
Y321399D01*
X422599Y320733D01*
X420600D01*
X421933D02*
X423266Y319400D01*
X427264D02*
X424599D01*
X427264Y322066D01*
Y322732D01*
X426598Y323399D01*
X425265D01*
X424599Y322732D01*
X428597Y320066D02*
X429264Y319400D01*
X430597D01*
X431263Y320066D01*
Y322732D01*
X430597Y323399D01*
X429264D01*
X428597Y322732D01*
Y322066D01*
X429264Y321399D01*
X431263D01*
X420500Y324500D02*
X416501D01*
Y326499D01*
X417168Y327166D01*
X418501D01*
X419167Y326499D01*
Y324500D01*
Y325833D02*
X420500Y327166D01*
X417168Y328499D02*
X416501Y329165D01*
Y330498D01*
X417168Y331165D01*
X417834D01*
X418501Y330498D01*
Y329832D01*
Y330498D01*
X419167Y331165D01*
X419834D01*
X420500Y330498D01*
Y329165D01*
X419834Y328499D01*
X417168Y332497D02*
X416501Y333164D01*
Y334497D01*
X417168Y335163D01*
X419834D01*
X420500Y334497D01*
Y333164D01*
X419834Y332497D01*
X417168D01*
X307900Y294799D02*
Y291466D01*
X308566Y290800D01*
X309899D01*
X310566Y291466D01*
Y294799D01*
X311899Y291466D02*
X312565Y290800D01*
X313898D01*
X314564Y291466D01*
Y294132D01*
X313898Y294799D01*
X312565D01*
X311899Y294132D01*
Y293466D01*
X312565Y292799D01*
X314564D01*
X542399Y319963D02*
X540733Y317077D01*
X540977Y316167D01*
X542132Y315500D01*
X543042Y315744D01*
X544708Y318630D01*
X543863Y314501D02*
X545017Y313834D01*
X544440Y314167D01*
X546440Y317630D01*
X545529Y317387D01*
X551057Y314965D02*
X548748Y316298D01*
X547749Y314566D01*
X549236Y314477D01*
X549813Y314143D01*
X550057Y313233D01*
X549391Y312079D01*
X548480Y311835D01*
X547326Y312501D01*
X547082Y313412D01*
X364168Y346166D02*
X363501Y345499D01*
Y344166D01*
X364168Y343500D01*
X366834D01*
X367500Y344166D01*
Y345499D01*
X366834Y346166D01*
X367500Y350165D02*
Y347499D01*
X364834Y350165D01*
X364168D01*
X363501Y349498D01*
Y348165D01*
X364168Y347499D01*
Y351497D02*
X363501Y352164D01*
Y353497D01*
X364168Y354163D01*
X364834D01*
X365501Y353497D01*
X366167Y354163D01*
X366834D01*
X367500Y353497D01*
Y352164D01*
X366834Y351497D01*
X366167D01*
X365501Y352164D01*
X364834Y351497D01*
X364168D01*
X365501Y352164D02*
Y353497D01*
X347500Y356500D02*
Y360499D01*
X349499D01*
X350166Y359832D01*
Y358499D01*
X349499Y357833D01*
X347500D01*
X348833D02*
X350166Y356500D01*
X353498D02*
Y360499D01*
X351499Y358499D01*
X354165D01*
X358163Y360499D02*
X355497D01*
Y358499D01*
X356830Y359166D01*
X357497D01*
X358163Y358499D01*
Y357166D01*
X357497Y356500D01*
X356164D01*
X355497Y357166D01*
X419500Y544000D02*
X415501D01*
Y545999D01*
X416168Y546666D01*
X417501D01*
X418167Y545999D01*
Y544000D01*
Y545333D02*
X419500Y546666D01*
Y547999D02*
Y549332D01*
Y548665D01*
X415501D01*
X416168Y547999D01*
X425500Y543500D02*
X421501D01*
Y545499D01*
X422168Y546166D01*
X423501D01*
X424167Y545499D01*
Y543500D01*
Y544833D02*
X425500Y546166D01*
Y550165D02*
Y547499D01*
X422834Y550165D01*
X422168D01*
X421501Y549498D01*
Y548165D01*
X422168Y547499D01*
X431000Y355500D02*
X427001D01*
Y357499D01*
X427668Y358166D01*
X429001D01*
X429667Y357499D01*
Y355500D01*
Y356833D02*
X431000Y358166D01*
X427001Y362164D02*
Y359499D01*
X429001D01*
X428334Y360832D01*
Y361498D01*
X429001Y362164D01*
X430334D01*
X431000Y361498D01*
Y360165D01*
X430334Y359499D01*
X280200Y177898D02*
Y171900D01*
X282199Y173899D01*
X284199Y171900D01*
Y177898D01*
X287198Y175899D02*
X289197D01*
X290197Y174899D01*
Y171900D01*
X287198D01*
X286198Y172900D01*
X287198Y173899D01*
X290197D01*
X292196Y171900D02*
X295195D01*
X296195Y172900D01*
X295195Y173899D01*
X293196D01*
X292196Y174899D01*
X293196Y175899D01*
X296195D01*
X299194Y176898D02*
Y175899D01*
X298194D01*
X300194D01*
X299194D01*
Y172900D01*
X300194Y171900D01*
X306192D02*
X304192D01*
X303193Y172900D01*
Y174899D01*
X304192Y175899D01*
X306192D01*
X307191Y174899D01*
Y173899D01*
X303193D01*
X315189Y171900D02*
Y175899D01*
X317188Y177898D01*
X319187Y175899D01*
Y171900D01*
Y174899D01*
X315189D01*
X321187Y175899D02*
Y171900D01*
Y173899D01*
X322186Y174899D01*
X323186Y175899D01*
X324186D01*
X330184Y171900D02*
X328185D01*
X327185Y172900D01*
Y174899D01*
X328185Y175899D01*
X330184D01*
X331184Y174899D01*
Y173899D01*
X327185D01*
X334183Y175899D02*
X336182D01*
X337182Y174899D01*
Y171900D01*
X334183D01*
X333183Y172900D01*
X334183Y173899D01*
X337182D01*
X346179Y176898D02*
Y175899D01*
X345179D01*
X347178D01*
X346179D01*
Y172900D01*
X347178Y171900D01*
X351177D02*
X353176D01*
X354176Y172900D01*
Y174899D01*
X353176Y175899D01*
X351177D01*
X350177Y174899D01*
Y172900D01*
X351177Y171900D01*
X362174Y177898D02*
Y171900D01*
X365173D01*
X366172Y172900D01*
Y173899D01*
Y174899D01*
X365173Y175899D01*
X362174D01*
X371171Y171900D02*
X369171D01*
X368172Y172900D01*
Y174899D01*
X369171Y175899D01*
X371171D01*
X372170Y174899D01*
Y173899D01*
X368172D01*
X380168Y175899D02*
Y171900D01*
Y173899D01*
X381167Y174899D01*
X382167Y175899D01*
X383167D01*
X387165Y171900D02*
X389165D01*
X390164Y172900D01*
Y174899D01*
X389165Y175899D01*
X387165D01*
X386166Y174899D01*
Y172900D01*
X387165Y171900D01*
X392164Y175899D02*
Y172900D01*
X393163Y171900D01*
X396163D01*
Y175899D01*
X399162Y176898D02*
Y175899D01*
X398162D01*
X400161D01*
X399162D01*
Y172900D01*
X400161Y171900D01*
X406159D02*
X404160D01*
X403160Y172900D01*
Y174899D01*
X404160Y175899D01*
X406159D01*
X407159Y174899D01*
Y173899D01*
X403160D01*
X413157Y177898D02*
Y171900D01*
X410158D01*
X409158Y172900D01*
Y174899D01*
X410158Y175899D01*
X413157D01*
X422154Y171900D02*
X424153D01*
X425153Y172900D01*
Y174899D01*
X424153Y175899D01*
X422154D01*
X421154Y174899D01*
Y172900D01*
X422154Y171900D01*
X428152D02*
Y176898D01*
Y174899D01*
X427152D01*
X429152D01*
X428152D01*
Y176898D01*
X429152Y177898D01*
X433150Y171900D02*
Y176898D01*
Y174899D01*
X432151D01*
X434150D01*
X433150D01*
Y176898D01*
X434150Y177898D01*
X444147Y175899D02*
X446146D01*
X447146Y174899D01*
Y171900D01*
X444147D01*
X443147Y172900D01*
X444147Y173899D01*
X447146D01*
X450145Y171900D02*
Y176898D01*
Y174899D01*
X449145D01*
X451145D01*
X450145D01*
Y176898D01*
X451145Y177898D01*
X455143Y176898D02*
Y175899D01*
X454144D01*
X456143D01*
X455143D01*
Y172900D01*
X456143Y171900D01*
X462141D02*
X460142D01*
X459142Y172900D01*
Y174899D01*
X460142Y175899D01*
X462141D01*
X463141Y174899D01*
Y173899D01*
X459142D01*
X465140Y175899D02*
Y171900D01*
Y173899D01*
X466140Y174899D01*
X467139Y175899D01*
X468139D01*
X478136D02*
X480135D01*
X481135Y174899D01*
Y171900D01*
X478136D01*
X477136Y172900D01*
X478136Y173899D01*
X481135D01*
X483134Y171900D02*
X486133D01*
X487133Y172900D01*
X486133Y173899D01*
X484134D01*
X483134Y174899D01*
X484134Y175899D01*
X487133D01*
X489132Y171900D02*
X492131D01*
X493131Y172900D01*
X492131Y173899D01*
X490132D01*
X489132Y174899D01*
X490132Y175899D01*
X493131D01*
X498130Y171900D02*
X496130D01*
X495130Y172900D01*
Y174899D01*
X496130Y175899D01*
X498130D01*
X499129Y174899D01*
Y173899D01*
X495130D01*
X501128Y171900D02*
Y175899D01*
X502128D01*
X503128Y174899D01*
Y171900D01*
Y174899D01*
X504128Y175899D01*
X505127Y174899D01*
Y171900D01*
X507127Y177898D02*
Y171900D01*
X510126D01*
X511125Y172900D01*
Y173899D01*
Y174899D01*
X510126Y175899D01*
X507127D01*
X513125Y171900D02*
X515124D01*
X514124D01*
Y177898D01*
X513125D01*
X518123Y175899D02*
Y172900D01*
X519123Y171900D01*
X522122D01*
Y170900D01*
X521122Y169901D01*
X520122D01*
X522122Y171900D02*
Y175899D01*
X485000Y521166D02*
Y518500D01*
Y519833D01*
X485666Y520499D01*
X486333Y521166D01*
X486999D01*
X489665D02*
X490998D01*
X491665Y520499D01*
Y518500D01*
X489665D01*
X488999Y519166D01*
X489665Y519833D01*
X491665D01*
X492997Y521166D02*
Y519166D01*
X493664Y518500D01*
X494330Y519166D01*
X494997Y518500D01*
X495663Y519166D01*
Y521166D01*
X496996Y522499D02*
Y518500D01*
X498995D01*
X499662Y519166D01*
Y519833D01*
Y520499D01*
X498995Y521166D01*
X496996D01*
X501661D02*
X502994D01*
X503661Y520499D01*
Y518500D01*
X501661D01*
X500995Y519166D01*
X501661Y519833D01*
X503661D01*
X505660Y521832D02*
Y521166D01*
X504993D01*
X506326D01*
X505660D01*
Y519166D01*
X506326Y518500D01*
X359033Y549667D02*
X359699D01*
X360366Y550334D01*
Y553666D01*
X358366D01*
X357700Y552999D01*
Y551666D01*
X358366Y551000D01*
X360366D01*
X361699D02*
Y553666D01*
X363698D01*
X364365Y552999D01*
Y551000D01*
X368363Y554999D02*
Y551000D01*
X366364D01*
X365697Y551666D01*
Y552999D01*
X366364Y553666D01*
X368363D01*
X439500Y362049D02*
X442166D01*
X440833Y363382D02*
Y360716D01*
X336950Y362649D02*
X339616D01*
X338283Y363982D02*
Y361316D01*
X298450Y507599D02*
Y503600D01*
X300449D01*
X301116Y504266D01*
Y506932D01*
X300449Y507599D01*
X298450D01*
X302449Y506266D02*
Y503600D01*
Y504933D01*
X303115Y505599D01*
X303782Y506266D01*
X304448D01*
X306447Y503600D02*
X307780D01*
X307114D01*
Y506266D01*
X306447D01*
X309780D02*
X311113Y503600D01*
X312445Y506266D01*
X315778Y503600D02*
X314445D01*
X313778Y504266D01*
Y505599D01*
X314445Y506266D01*
X315778D01*
X316444Y505599D01*
Y504933D01*
X313778D01*
X317777Y506266D02*
Y503600D01*
Y504933D01*
X318444Y505599D01*
X319110Y506266D01*
X319777D01*
X306150Y508900D02*
Y512899D01*
X307483Y511566D01*
X308816Y512899D01*
Y508900D01*
X310815D02*
X312148D01*
X312814Y509566D01*
Y510899D01*
X312148Y511566D01*
X310815D01*
X310149Y510899D01*
Y509566D01*
X310815Y508900D01*
X314814Y512232D02*
Y511566D01*
X314147D01*
X315480D01*
X314814D01*
Y509566D01*
X315480Y508900D01*
X318146D02*
X319479D01*
X320146Y509566D01*
Y510899D01*
X319479Y511566D01*
X318146D01*
X317480Y510899D01*
Y509566D01*
X318146Y508900D01*
X321478Y511566D02*
Y508900D01*
Y510233D01*
X322145Y510899D01*
X322811Y511566D01*
X323478D01*
X303515Y246985D02*
X305400Y245100D01*
X301630D01*
X301159Y244629D01*
Y243686D01*
X302101Y242744D01*
X303044D01*
X311571Y253257D02*
X310629Y254200D01*
X311100Y253729D01*
X308272Y250901D01*
X309215D01*
X272916Y290970D02*
Y291912D01*
X271973Y292855D01*
X271031D01*
X269146Y290970D01*
Y290027D01*
X270089Y289085D01*
X271031D01*
X271502Y289556D01*
Y290499D01*
X270089Y291912D01*
X266316Y284370D02*
X265374Y285313D01*
X265845Y284841D01*
X263018Y282014D01*
X263960D01*
X261604Y284370D02*
X260661D01*
X259719Y285313D01*
Y286255D01*
X261604Y288140D01*
X262546D01*
X263489Y287198D01*
Y286255D01*
X261604Y284370D01*
D64*
X412979Y417154D02*
G03*
X412979Y417154I-492J0D01*
G01*
X378579D02*
G03*
X378579Y417154I-492J0D01*
G01*
X296453Y320586D02*
G03*
X296453Y320586I-492J0D01*
G01*
X314929Y314949D02*
G03*
X314929Y314949I-492J0D01*
G01*
X410675Y344610D02*
G03*
X410675Y344610I-492J0D01*
G01*
X301929Y500314D02*
G03*
X301929Y500314I-492J0D01*
G01*
X473671Y303183D02*
G03*
X473671Y303183I-492J0D01*
G01*
X421449Y380587D02*
G03*
X421449Y380587I-492J0D01*
G01*
D65*
X424878Y536713D02*
Y538287D01*
X422122Y536713D02*
Y538287D01*
X419378Y536713D02*
Y538287D01*
X416622Y536713D02*
Y538287D01*
X366713Y356622D02*
X368287D01*
X366713Y359378D02*
X368287D01*
X489528Y348813D02*
Y350387D01*
X486772Y348813D02*
Y350387D01*
X426113Y329972D02*
X427687D01*
X426113Y332728D02*
X427687D01*
X378222Y372763D02*
Y374337D01*
X380978Y372763D02*
Y374337D01*
X426163Y327678D02*
X427737D01*
X426163Y324922D02*
X427737D01*
X494915Y303100D02*
X514600D01*
X494915Y323100D02*
X514600D01*
X390022Y419713D02*
Y421287D01*
X392778Y419713D02*
Y421287D01*
X395022Y419713D02*
Y421287D01*
X397778Y419713D02*
Y421287D01*
X376778Y421213D02*
Y422787D01*
X374022Y421213D02*
Y422787D01*
X427278Y422213D02*
Y423787D01*
X424522Y422213D02*
Y423787D01*
X472213Y298122D02*
X473787D01*
X472213Y300878D02*
X473787D01*
X450222Y287613D02*
Y289187D01*
X452978Y287613D02*
Y289187D01*
X481213Y287122D02*
X482787D01*
X481213Y289878D02*
X482787D01*
X481213Y294878D02*
X482787D01*
X481213Y292122D02*
X482787D01*
X350963Y539728D02*
X352537D01*
X350963Y536972D02*
X352537D01*
X274378Y473713D02*
Y475287D01*
X271622Y473713D02*
Y475287D01*
X250313Y321822D02*
X251887D01*
X250313Y324578D02*
X251887Y324578D01*
X334213Y267378D02*
X335787D01*
X334213Y264622D02*
X335787D01*
X473863Y266128D02*
X475437D01*
X473863Y263372D02*
X475437D01*
X525372Y324613D02*
Y326187D01*
X528128Y324613D02*
Y326187D01*
X520378Y490213D02*
Y491787D01*
X517622Y490213D02*
Y491787D01*
X439113Y550422D02*
X440687D01*
X439113Y553178D02*
X440687D01*
X283328Y339213D02*
Y340787D01*
X280572Y339213D02*
Y340787D01*
X475463Y327122D02*
X477037D01*
X475463Y329878D02*
X477037D01*
X404022Y419713D02*
Y421287D01*
X406778Y419713D02*
Y421287D01*
X411778Y419713D02*
Y421287D01*
X409022Y419713D02*
Y421287D01*
X290178Y470813D02*
Y472387D01*
X287422Y470813D02*
Y472387D01*
X307178Y470813D02*
Y472387D01*
X304422Y470813D02*
Y472387D01*
X373622Y536213D02*
Y537787D01*
X376378Y536213D02*
Y537787D01*
X378622Y536213D02*
Y537787D01*
X381378Y536213D02*
Y537787D01*
X384122Y536213D02*
Y537787D01*
X386878Y536213D02*
Y537787D01*
X389122Y536213D02*
Y537787D01*
X391878Y536213D02*
Y537787D01*
X362563Y339272D02*
X364137D01*
X362563Y342028D02*
X364137D01*
X420378Y354713D02*
Y356287D01*
X417622Y354713D02*
Y356287D01*
X455213Y301378D02*
X456787D01*
X455213Y298622D02*
X456787D01*
X372822Y372763D02*
Y374337D01*
X375578Y372763D02*
Y374337D01*
X423663Y339072D02*
X425237D01*
X423663Y341828D02*
X425237D01*
X512378Y490213D02*
Y491787D01*
X509622Y490213D02*
Y491787D01*
X453378Y494213D02*
Y495787D01*
X450622Y494213D02*
Y495787D01*
X472378Y494213D02*
Y495787D01*
X469622Y494213D02*
Y495787D01*
X481600Y487125D02*
Y493900D01*
X475400Y487100D02*
Y493900D01*
X480000Y503000D02*
Y513000D01*
X460000Y503000D02*
X480000D01*
X460000D02*
Y513000D01*
X480000D01*
X262074Y278713D02*
X276216Y292855D01*
X297429Y243358D02*
X311571Y257500D01*
X262074Y278713D02*
X297429Y243358D01*
X276216Y292855D02*
X311571Y257500D01*
X355000Y501700D02*
X367600D01*
X445000Y514488D02*
Y523598D01*
Y501498D02*
Y508998D01*
X355000Y514498D02*
Y523728D01*
Y501700D02*
Y508898D01*
X431900Y501498D02*
X445000D01*
X432100Y521598D02*
X441499D01*
X358701Y521720D02*
X367600D01*
X358701D02*
Y523728D01*
X355000Y521720D02*
Y523728D01*
Y521720D02*
Y523728D01*
X358701D01*
X441499Y521598D02*
Y523606D01*
Y523598D02*
X445000D01*
X442815Y305500D02*
X462500D01*
X442815Y325500D02*
X462500D01*
X413878Y370713D02*
Y372287D01*
X411122Y370713D02*
Y372287D01*
X305902Y323932D02*
X308068D01*
Y326098D01*
Y338302D02*
Y340468D01*
X305902D02*
X308068D01*
X291532D02*
X293698D01*
X291532Y338302D02*
Y340468D01*
Y323932D02*
Y326098D01*
Y323932D02*
X293698D01*
X304496Y311405D02*
X304594D01*
Y309535D02*
Y311405D01*
Y299594D02*
Y301465D01*
X304496Y299594D02*
X304594D01*
X316406D02*
X316504D01*
X316406D02*
Y301465D01*
Y309535D02*
Y311405D01*
X316504D01*
X406836Y341264D02*
Y341559D01*
X406541Y341264D02*
X406836D01*
X386364D02*
X386659D01*
X386364D02*
Y341559D01*
Y361441D02*
Y361736D01*
X386659D01*
X406541D02*
X406836D01*
Y361441D02*
Y361736D01*
X303504Y496968D02*
X305768D01*
Y494704D02*
Y496968D01*
Y480432D02*
Y482696D01*
X303504Y480432D02*
X305768D01*
X289232D02*
X291496D01*
X289232D02*
Y482696D01*
Y494704D02*
Y496968D01*
X291496D01*
X470029Y306529D02*
X472096D01*
X470029D02*
Y308596D01*
Y320604D02*
Y322671D01*
X472096D01*
X484104D02*
X486171D01*
Y320604D02*
Y322671D01*
Y306529D02*
Y308596D01*
X484104Y306529D02*
X486171D01*
X425378Y354713D02*
Y356287D01*
X422622Y354713D02*
Y356287D01*
X425681Y379405D02*
X427256D01*
Y376256D02*
Y379405D01*
X425681Y367595D02*
X427256D01*
Y370744D01*
D66*
X347478Y567124D02*
X352061Y554532D01*
X331939Y561468D02*
X347478Y567124D01*
X331939Y561468D02*
X336055Y550162D01*
X337808Y549344D01*
X352061Y554532D01*
X323939Y241532D02*
X328522Y254124D01*
X323939Y241532D02*
X339478Y235876D01*
X343593Y247183D01*
X342775Y248936D02*
X343593Y247183D01*
X328522Y254124D02*
X342775Y248936D01*
X455939Y248468D02*
X460522Y235876D01*
X476061Y241532D01*
X471945Y252838D02*
X476061Y241532D01*
X470192Y253656D02*
X471945Y252838D01*
X455939Y248468D02*
X470192Y253656D01*
X537331Y483490D02*
X548936Y490190D01*
X540669Y504510D02*
X548936Y490190D01*
X530248Y498494D02*
X540669Y504510D01*
X529748Y496626D02*
X530248Y498494D01*
X529748Y496626D02*
X537331Y483490D01*
X463478Y548876D02*
X468061Y561468D01*
X452522Y567124D02*
X468061Y561468D01*
X448407Y555817D02*
X452522Y567124D01*
X448407Y555817D02*
X449225Y554064D01*
X463478Y548876D01*
X251064Y309810D02*
X262669Y316510D01*
X251064Y309810D02*
X259331Y295490D01*
X269752Y301506D01*
X270252Y303374D01*
X262669Y316510D02*
X270252Y303374D01*
X259331Y504510D02*
X270936Y497810D01*
X251064Y490190D02*
X259331Y504510D01*
X251064Y490190D02*
X261484Y484174D01*
X263352Y484675D01*
X270936Y497810D01*
X529064Y302190D02*
X540669Y295490D01*
X548936Y309810D01*
X538516Y315826D02*
X548936Y309810D01*
X536648Y315325D02*
X538516Y315826D01*
X529064Y302190D02*
X536648Y315325D01*
D67*
X490500Y464999D02*
X490167Y464833D01*
X489833Y464499D01*
X489667Y464166D01*
X489500Y463666D01*
Y462833D01*
X489667Y462333D01*
X489833Y462000D01*
X490167Y461667D01*
X490500Y461500D01*
X491166D01*
X491500Y461667D01*
X491833Y462000D01*
X491999Y462333D01*
X492166Y462833D01*
Y463666D01*
X491999Y464166D01*
X491833Y464499D01*
X491500Y464833D01*
X491166Y464999D01*
X490500D01*
X491000Y462167D02*
X491999Y461167D01*
X493149Y464166D02*
Y464333D01*
X493316Y464666D01*
X493482Y464833D01*
X493816Y464999D01*
X494482D01*
X494815Y464833D01*
X494982Y464666D01*
X495149Y464333D01*
Y464000D01*
X494982Y463666D01*
X494649Y463166D01*
X492983Y461500D01*
X495315D01*
M02*
