%FSLAX25Y25*%
%MOIN*%
G70*
G01*
G75*
G04 Layer_Color=8388736*
%ADD10R,0.03543X0.02756*%
%ADD11R,0.02756X0.03543*%
%ADD12R,0.01969X0.02362*%
%ADD13R,0.02362X0.01969*%
%ADD14R,0.07874X0.03937*%
G04:AMPARAMS|DCode=15|XSize=24mil|YSize=47mil|CornerRadius=0mil|HoleSize=0mil|Usage=FLASHONLY|Rotation=200.000|XOffset=0mil|YOffset=0mil|HoleType=Round|Shape=Rectangle|*
%AMROTATEDRECTD15*
4,1,4,0.00324,0.02619,0.01931,-0.01798,-0.00324,-0.02619,-0.01931,0.01798,0.00324,0.02619,0.0*
%
%ADD15ROTATEDRECTD15*%

G04:AMPARAMS|DCode=16|XSize=24mil|YSize=47mil|CornerRadius=0mil|HoleSize=0mil|Usage=FLASHONLY|Rotation=340.000|XOffset=0mil|YOffset=0mil|HoleType=Round|Shape=Rectangle|*
%AMROTATEDRECTD16*
4,1,4,-0.01931,-0.01798,-0.00324,0.02619,0.01931,0.01798,0.00324,-0.02619,-0.01931,-0.01798,0.0*
%
%ADD16ROTATEDRECTD16*%

G04:AMPARAMS|DCode=17|XSize=24mil|YSize=47mil|CornerRadius=0mil|HoleSize=0mil|Usage=FLASHONLY|Rotation=120.000|XOffset=0mil|YOffset=0mil|HoleType=Round|Shape=Rectangle|*
%AMROTATEDRECTD17*
4,1,4,0.02635,0.00136,-0.01435,-0.02214,-0.02635,-0.00136,0.01435,0.02214,0.02635,0.00136,0.0*
%
%ADD17ROTATEDRECTD17*%

%ADD18R,0.03543X0.03150*%
%ADD19R,0.03150X0.03543*%
%ADD20R,0.17300X0.05650*%
%ADD21O,0.01378X0.05906*%
G04:AMPARAMS|DCode=22|XSize=24mil|YSize=47mil|CornerRadius=0mil|HoleSize=0mil|Usage=FLASHONLY|Rotation=240.000|XOffset=0mil|YOffset=0mil|HoleType=Round|Shape=Rectangle|*
%AMROTATEDRECTD22*
4,1,4,-0.01435,0.02214,0.02635,-0.00136,0.01435,-0.02214,-0.02635,0.00136,-0.01435,0.02214,0.0*
%
%ADD22ROTATEDRECTD22*%

%ADD23R,0.05512X0.04724*%
%ADD24C,0.04000*%
%ADD25R,0.06299X0.05118*%
%ADD26R,0.02913X0.11004*%
%ADD27R,0.04724X0.05512*%
%ADD28R,0.03150X0.01181*%
%ADD29R,0.01181X0.03150*%
%ADD30O,0.03347X0.00984*%
%ADD31O,0.00984X0.03347*%
%ADD32O,0.03150X0.00984*%
%ADD33O,0.00984X0.03150*%
%ADD34R,0.14173X0.14173*%
%ADD35R,0.09843X0.09843*%
%ADD36O,0.00984X0.03740*%
%ADD37O,0.03740X0.00984*%
%ADD38R,0.09449X0.09449*%
%ADD39R,0.05906X0.02362*%
%ADD40R,0.04000X0.02800*%
%ADD41R,0.02756X0.05906*%
%ADD42C,0.02500*%
%ADD43C,0.04000*%
%ADD44C,0.00800*%
%ADD45C,0.01500*%
%ADD46C,0.01000*%
%ADD47C,0.03000*%
%ADD48C,0.02000*%
%ADD49R,0.15800X0.06400*%
%ADD50C,0.15800*%
%ADD51C,0.03100*%
%ADD52C,0.05512*%
%ADD53C,0.05000*%
%ADD54R,0.05906X0.05906*%
%ADD55C,0.05906*%
%ADD56P,0.08352X4X180.0*%
%ADD57C,0.03543*%
%ADD58C,0.03500*%
%ADD59C,0.11200*%
%ADD60C,0.15200*%
%ADD61C,0.17500*%
%ADD62C,0.91500*%
%ADD63C,0.02598*%
%ADD64C,0.00984*%
%ADD65C,0.00787*%
%ADD66C,0.00394*%
%ADD67C,0.00500*%
%ADD68R,0.04343X0.03556*%
%ADD69R,0.03556X0.04343*%
%ADD70R,0.02769X0.03162*%
%ADD71R,0.03162X0.02769*%
%ADD72R,0.08674X0.04737*%
G04:AMPARAMS|DCode=73|XSize=32mil|YSize=55mil|CornerRadius=0mil|HoleSize=0mil|Usage=FLASHONLY|Rotation=200.000|XOffset=0mil|YOffset=0mil|HoleType=Round|Shape=Rectangle|*
%AMROTATEDRECTD73*
4,1,4,0.00563,0.03131,0.02444,-0.02037,-0.00563,-0.03131,-0.02444,0.02037,0.00563,0.03131,0.0*
%
%ADD73ROTATEDRECTD73*%

G04:AMPARAMS|DCode=74|XSize=32mil|YSize=55mil|CornerRadius=0mil|HoleSize=0mil|Usage=FLASHONLY|Rotation=340.000|XOffset=0mil|YOffset=0mil|HoleType=Round|Shape=Rectangle|*
%AMROTATEDRECTD74*
4,1,4,-0.02444,-0.02037,-0.00563,0.03131,0.02444,0.02037,0.00563,-0.03131,-0.02444,-0.02037,0.0*
%
%ADD74ROTATEDRECTD74*%

G04:AMPARAMS|DCode=75|XSize=32mil|YSize=55mil|CornerRadius=0mil|HoleSize=0mil|Usage=FLASHONLY|Rotation=120.000|XOffset=0mil|YOffset=0mil|HoleType=Round|Shape=Rectangle|*
%AMROTATEDRECTD75*
4,1,4,0.03182,-0.00011,-0.01582,-0.02761,-0.03182,0.00011,0.01582,0.02761,0.03182,-0.00011,0.0*
%
%ADD75ROTATEDRECTD75*%

%ADD76R,0.04343X0.03950*%
%ADD77R,0.03950X0.04343*%
%ADD78R,0.18100X0.06450*%
%ADD79O,0.02178X0.06706*%
G04:AMPARAMS|DCode=80|XSize=32mil|YSize=55mil|CornerRadius=0mil|HoleSize=0mil|Usage=FLASHONLY|Rotation=240.000|XOffset=0mil|YOffset=0mil|HoleType=Round|Shape=Rectangle|*
%AMROTATEDRECTD80*
4,1,4,-0.01582,0.02761,0.03182,0.00011,0.01582,-0.02761,-0.03182,-0.00011,-0.01582,0.02761,0.0*
%
%ADD80ROTATEDRECTD80*%

%ADD81R,0.06312X0.05524*%
%ADD82R,0.07099X0.05918*%
%ADD83R,0.03713X0.11804*%
%ADD84R,0.05524X0.06312*%
%ADD85R,0.03950X0.01981*%
%ADD86R,0.01981X0.03950*%
%ADD87O,0.04147X0.01784*%
%ADD88O,0.01784X0.04147*%
%ADD89O,0.03950X0.01784*%
%ADD90O,0.01784X0.03950*%
%ADD91R,0.14973X0.14973*%
%ADD92R,0.10642X0.10642*%
%ADD93O,0.01784X0.04540*%
%ADD94O,0.04540X0.01784*%
%ADD95R,0.10249X0.10249*%
%ADD96R,0.06706X0.03162*%
%ADD97R,0.04800X0.03600*%
%ADD98R,0.03556X0.06706*%
%ADD99C,0.16600*%
%ADD100C,0.03900*%
%ADD101C,0.06312*%
%ADD102C,0.05800*%
%ADD103R,0.06706X0.06706*%
%ADD104C,0.06706*%
%ADD105P,0.09483X4X180.0*%
%ADD106C,0.04343*%
%ADD107C,0.04300*%
%ADD108C,0.12000*%
%ADD109C,0.16000*%
%ADD110C,0.18300*%
%ADD111C,0.92300*%
G36*
X591255Y366307D02*
X592461Y365941D01*
X593573Y365347D01*
X594547Y364547D01*
X595347Y363573D01*
X595941Y362461D01*
X596307Y361255D01*
X596431Y360000D01*
X596307Y358745D01*
X595941Y357539D01*
X595347Y356427D01*
X594547Y355453D01*
X593573Y354653D01*
X592461Y354059D01*
X591255Y353693D01*
X590000Y353569D01*
X588745Y353693D01*
X587539Y354059D01*
X586427Y354653D01*
X585453Y355453D01*
X584653Y356427D01*
X584059Y357539D01*
X583693Y358745D01*
X583569Y360000D01*
X583693Y361255D01*
X584059Y362461D01*
X584653Y363573D01*
X585453Y364547D01*
X586427Y365347D01*
X587539Y365941D01*
X588745Y366307D01*
X590000Y366431D01*
X591255Y366307D01*
D02*
G37*
G36*
X221255Y436307D02*
X222461Y435941D01*
X223573Y435347D01*
X224547Y434547D01*
X225347Y433573D01*
X225941Y432461D01*
X226307Y431255D01*
X226431Y430000D01*
X226307Y428745D01*
X225941Y427539D01*
X225347Y426427D01*
X224547Y425453D01*
X223573Y424653D01*
X222461Y424059D01*
X221255Y423693D01*
X220000Y423569D01*
X218745Y423693D01*
X217539Y424059D01*
X216427Y424653D01*
X215453Y425453D01*
X214653Y426427D01*
X214059Y427539D01*
X213693Y428745D01*
X213569Y430000D01*
X213693Y431255D01*
X214059Y432461D01*
X214653Y433573D01*
X215453Y434547D01*
X216427Y435347D01*
X217539Y435941D01*
X218745Y436307D01*
X220000Y436431D01*
X221255Y436307D01*
D02*
G37*
D68*
X423500Y534547D02*
D03*
Y540453D02*
D03*
X418000Y534547D02*
D03*
Y540453D02*
D03*
X488150Y352553D02*
D03*
Y346647D02*
D03*
X379600Y370597D02*
D03*
Y376503D02*
D03*
X391400Y417547D02*
D03*
Y423453D02*
D03*
X396400Y417547D02*
D03*
Y423453D02*
D03*
X375400Y424953D02*
D03*
Y419047D02*
D03*
X425900Y425953D02*
D03*
Y420047D02*
D03*
X451600Y285447D02*
D03*
Y291353D02*
D03*
X273000Y477453D02*
D03*
Y471547D02*
D03*
X526750Y322447D02*
D03*
Y328353D02*
D03*
X519000Y493953D02*
D03*
Y488047D02*
D03*
X281950Y342953D02*
D03*
Y337047D02*
D03*
X405400Y417547D02*
D03*
Y423453D02*
D03*
X410400Y423453D02*
D03*
Y417547D02*
D03*
X288800Y474553D02*
D03*
Y468647D02*
D03*
X305800Y474553D02*
D03*
Y468647D02*
D03*
X375000Y534047D02*
D03*
Y539953D02*
D03*
X380000Y534047D02*
D03*
Y539953D02*
D03*
X385500Y534047D02*
D03*
Y539953D02*
D03*
X390500Y534047D02*
D03*
Y539953D02*
D03*
X419000Y358453D02*
D03*
Y352547D02*
D03*
X374200Y370597D02*
D03*
Y376503D02*
D03*
X511000Y488047D02*
D03*
Y493953D02*
D03*
X452000Y492047D02*
D03*
Y497953D02*
D03*
X471000Y497953D02*
D03*
Y492047D02*
D03*
X412500Y374453D02*
D03*
Y368547D02*
D03*
X424000Y358453D02*
D03*
Y352547D02*
D03*
D69*
X364547Y358000D02*
D03*
X370453D02*
D03*
X429853Y331350D02*
D03*
X423947D02*
D03*
X423997Y326300D02*
D03*
X429903D02*
D03*
X475953Y299500D02*
D03*
X470047D02*
D03*
X484953Y288500D02*
D03*
X479047D02*
D03*
X479047Y293500D02*
D03*
X484953D02*
D03*
X348797Y538350D02*
D03*
X354703D02*
D03*
X254053Y323200D02*
D03*
X248147D02*
D03*
X332047Y266000D02*
D03*
X337953D02*
D03*
X471697Y264750D02*
D03*
X477603D02*
D03*
X442853Y551800D02*
D03*
X436947D02*
D03*
X479203Y328500D02*
D03*
X473297D02*
D03*
X366303Y340650D02*
D03*
X360397D02*
D03*
X453047Y300000D02*
D03*
X458953D02*
D03*
X427403Y340450D02*
D03*
X421497D02*
D03*
D70*
X357900Y346481D02*
D03*
Y350418D02*
D03*
X383650Y374319D02*
D03*
Y370381D02*
D03*
X318431Y491731D02*
D03*
Y487794D02*
D03*
X318400Y483669D02*
D03*
Y479731D02*
D03*
X268500Y471531D02*
D03*
Y475468D02*
D03*
X531400Y328219D02*
D03*
Y324282D02*
D03*
X529000Y479468D02*
D03*
Y475531D02*
D03*
X286800Y337268D02*
D03*
Y333331D02*
D03*
X282250Y332769D02*
D03*
Y328832D02*
D03*
X291500Y317969D02*
D03*
Y314032D02*
D03*
X329000Y309469D02*
D03*
Y305532D02*
D03*
X409500Y334032D02*
D03*
Y337968D02*
D03*
X318300Y499068D02*
D03*
Y495131D02*
D03*
X469000Y295468D02*
D03*
Y291531D02*
D03*
X415000Y354031D02*
D03*
Y357968D02*
D03*
D71*
X423468Y384000D02*
D03*
X419531D02*
D03*
X321468Y319000D02*
D03*
X317531D02*
D03*
X321468Y315500D02*
D03*
X317531D02*
D03*
X357618Y543350D02*
D03*
X353681D02*
D03*
X247982Y318550D02*
D03*
X251919Y318550D02*
D03*
X335469Y261500D02*
D03*
X331532D02*
D03*
X477619Y260250D02*
D03*
X473681D02*
D03*
X436932Y556300D02*
D03*
X440869D02*
D03*
X483968Y299000D02*
D03*
X480031D02*
D03*
D72*
X407063Y405512D02*
D03*
X426748D02*
D03*
Y400000D02*
D03*
X407063D02*
D03*
X426748Y394488D02*
D03*
X407063D02*
D03*
X392937D02*
D03*
X373252D02*
D03*
Y400000D02*
D03*
X392937D02*
D03*
X373252Y405512D02*
D03*
X392937D02*
D03*
D73*
X343278Y569107D02*
D03*
X350119Y550313D02*
D03*
X345420Y548603D02*
D03*
X340722Y546893D02*
D03*
X338580Y567397D02*
D03*
X333881Y565687D02*
D03*
X464722Y233893D02*
D03*
X457881Y252687D02*
D03*
X462580Y254397D02*
D03*
X467278Y256107D02*
D03*
X469420Y235603D02*
D03*
X474119Y237313D02*
D03*
D74*
X325881D02*
D03*
X332722Y256107D02*
D03*
X337420Y254397D02*
D03*
X342119Y252687D02*
D03*
X330580Y235603D02*
D03*
X335278Y233893D02*
D03*
X466119Y565687D02*
D03*
X459278Y546893D02*
D03*
X454580Y548603D02*
D03*
X449881Y550313D02*
D03*
X461420Y567397D02*
D03*
X456722Y569107D02*
D03*
D75*
X550160Y494670D02*
D03*
X532840Y484670D02*
D03*
X530340Y489000D02*
D03*
X527840Y493330D02*
D03*
X547660Y499000D02*
D03*
X545160Y503330D02*
D03*
X249840Y305330D02*
D03*
X267160Y315330D02*
D03*
X269660Y311000D02*
D03*
X272160Y306670D02*
D03*
X252340Y301000D02*
D03*
X254840Y296670D02*
D03*
D76*
X310500Y463256D02*
D03*
Y457744D02*
D03*
X446950Y334606D02*
D03*
Y329094D02*
D03*
X465000Y297256D02*
D03*
Y291744D02*
D03*
X517500Y308244D02*
D03*
Y313756D02*
D03*
X439050Y334706D02*
D03*
Y329194D02*
D03*
D77*
X305256Y289800D02*
D03*
X299744D02*
D03*
X494256Y330500D02*
D03*
X488744D02*
D03*
X322744Y504200D02*
D03*
X328256D02*
D03*
D78*
X504600Y307275D02*
D03*
Y318925D02*
D03*
X452500Y309675D02*
D03*
Y321325D02*
D03*
D79*
X415341Y417154D02*
D03*
X417900D02*
D03*
X420459D02*
D03*
X415341Y423846D02*
D03*
X417900D02*
D03*
X420459D02*
D03*
X380941Y417154D02*
D03*
X383500D02*
D03*
X386059D02*
D03*
X380941Y423846D02*
D03*
X383500D02*
D03*
X386059D02*
D03*
D80*
X254840Y503330D02*
D03*
X272160Y493330D02*
D03*
X269660Y489000D02*
D03*
X267160Y484670D02*
D03*
X252340Y499000D02*
D03*
X249840Y494670D02*
D03*
X545160Y296670D02*
D03*
X527840Y306670D02*
D03*
X530340Y311000D02*
D03*
X532840Y315330D02*
D03*
X547660Y301000D02*
D03*
X550160Y305330D02*
D03*
D81*
X458000Y491850D02*
D03*
Y498150D02*
D03*
X465000Y491850D02*
D03*
Y498150D02*
D03*
D82*
X478500Y497390D02*
D03*
Y483610D02*
D03*
D83*
X370000Y503698D02*
D03*
X430000D02*
D03*
X425000D02*
D03*
X420000D02*
D03*
X415000D02*
D03*
Y519702D02*
D03*
X420000D02*
D03*
X425000D02*
D03*
X430000D02*
D03*
X410000D02*
D03*
Y503698D02*
D03*
X405000D02*
D03*
Y519702D02*
D03*
X400000D02*
D03*
Y503698D02*
D03*
X395000D02*
D03*
Y519702D02*
D03*
X390000Y503698D02*
D03*
Y519702D02*
D03*
X385000D02*
D03*
Y503698D02*
D03*
X380000D02*
D03*
Y519702D02*
D03*
X375000D02*
D03*
Y503698D02*
D03*
X370000Y519702D02*
D03*
D84*
X328350Y316000D02*
D03*
X334650D02*
D03*
D85*
X291926Y328361D02*
D03*
Y330921D02*
D03*
Y333479D02*
D03*
Y336039D02*
D03*
X307674D02*
D03*
Y333479D02*
D03*
Y330921D02*
D03*
Y328361D02*
D03*
D86*
X295961Y340074D02*
D03*
X298520D02*
D03*
X301080D02*
D03*
X303639D02*
D03*
Y324326D02*
D03*
X301080D02*
D03*
X298520D02*
D03*
X295961D02*
D03*
D87*
X316110Y307469D02*
D03*
Y305500D02*
D03*
Y303532D02*
D03*
X304890D02*
D03*
Y305500D02*
D03*
Y307469D02*
D03*
X289724Y492637D02*
D03*
Y490668D02*
D03*
Y488700D02*
D03*
Y486731D02*
D03*
Y484763D02*
D03*
X305276D02*
D03*
Y486731D02*
D03*
Y488700D02*
D03*
Y490668D02*
D03*
Y492637D02*
D03*
D88*
X314437Y299890D02*
D03*
X312469D02*
D03*
X310500D02*
D03*
X308531D02*
D03*
X306563D02*
D03*
Y311110D02*
D03*
X308531D02*
D03*
X310500D02*
D03*
X312469D02*
D03*
X314437D02*
D03*
X301437Y496476D02*
D03*
X299468D02*
D03*
X297500D02*
D03*
X295532D02*
D03*
X293563D02*
D03*
Y480924D02*
D03*
X295532D02*
D03*
X297500D02*
D03*
X299468D02*
D03*
X301437D02*
D03*
D89*
X406442Y344610D02*
D03*
Y346579D02*
D03*
Y348547D02*
D03*
Y350516D02*
D03*
Y352484D02*
D03*
Y354453D02*
D03*
Y356421D02*
D03*
X406652Y358390D02*
D03*
X386757D02*
D03*
Y356421D02*
D03*
Y354453D02*
D03*
Y352484D02*
D03*
Y350516D02*
D03*
Y348547D02*
D03*
Y346579D02*
D03*
Y344610D02*
D03*
D90*
X403490Y361343D02*
D03*
X401521D02*
D03*
X399553D02*
D03*
X397584D02*
D03*
X395616D02*
D03*
X393647D02*
D03*
X391679D02*
D03*
X389710D02*
D03*
Y341657D02*
D03*
X391679D02*
D03*
X393647D02*
D03*
X395616D02*
D03*
X397584D02*
D03*
X399553D02*
D03*
X401521D02*
D03*
X403490D02*
D03*
D91*
X396600Y351500D02*
D03*
D92*
X297500Y488700D02*
D03*
D93*
X473179Y306332D02*
D03*
X475147D02*
D03*
X477116D02*
D03*
X479084D02*
D03*
X481053D02*
D03*
X483021D02*
D03*
Y322868D02*
D03*
X481053D02*
D03*
X479084D02*
D03*
X477116D02*
D03*
X475147D02*
D03*
X473179D02*
D03*
D94*
X486368Y309679D02*
D03*
Y311647D02*
D03*
Y313616D02*
D03*
Y315584D02*
D03*
Y317553D02*
D03*
Y319521D02*
D03*
X469832D02*
D03*
Y317553D02*
D03*
Y315584D02*
D03*
Y313616D02*
D03*
Y311647D02*
D03*
Y309679D02*
D03*
D95*
X478100Y314600D02*
D03*
D96*
X428043Y373500D02*
D03*
X420957Y369760D02*
D03*
Y377240D02*
D03*
D97*
X484387Y472993D02*
D03*
X484383Y469255D02*
D03*
X494600D02*
D03*
Y472995D02*
D03*
X484383Y476735D02*
D03*
X494600D02*
D03*
D98*
X515453Y479390D02*
D03*
X521358D02*
D03*
X503642D02*
D03*
D99*
X605000Y185000D02*
D03*
X195000Y615000D02*
D03*
D100*
X274500Y359500D02*
D03*
X526000Y447500D02*
D03*
Y442500D02*
D03*
Y437500D02*
D03*
Y349500D02*
D03*
Y354500D02*
D03*
Y359500D02*
D03*
X274500Y354500D02*
D03*
Y349500D02*
D03*
X274000Y437500D02*
D03*
Y442500D02*
D03*
Y447500D02*
D03*
D101*
X429537Y385236D02*
D03*
Y414764D02*
D03*
X370463D02*
D03*
Y385236D02*
D03*
D102*
X474500Y522000D02*
D03*
X466500D02*
D03*
X443100Y511700D02*
D03*
X356900D02*
D03*
D103*
X465000Y508000D02*
D03*
D104*
X475000D02*
D03*
X297429Y250429D02*
D03*
Y264571D02*
D03*
X290358Y257500D02*
D03*
Y271642D02*
D03*
X283287Y264571D02*
D03*
Y278713D02*
D03*
X276216Y271642D02*
D03*
Y285784D02*
D03*
X269145Y278713D02*
D03*
D105*
X304500Y257500D02*
D03*
D106*
X506595Y472500D02*
D03*
X518405D02*
D03*
D107*
X524300Y487800D02*
D03*
X514800Y499600D02*
D03*
X452900Y486900D02*
D03*
X353500Y351000D02*
D03*
X346500Y348000D02*
D03*
X383000Y459000D02*
D03*
X345000Y457000D02*
D03*
X360540Y367000D02*
D03*
X388000Y469500D02*
D03*
X452500Y461750D02*
D03*
X260000Y475950D02*
D03*
X457250Y280550D02*
D03*
X377100Y343150D02*
D03*
X409050Y381250D02*
D03*
X400550Y381000D02*
D03*
X404500Y467750D02*
D03*
X405000Y529100D02*
D03*
X402900Y371000D02*
D03*
X396650Y375700D02*
D03*
X393450Y378650D02*
D03*
X395650Y369600D02*
D03*
X362200Y345350D02*
D03*
X412400Y378550D02*
D03*
X421350Y387650D02*
D03*
X467450Y435300D02*
D03*
X479300Y335750D02*
D03*
X405800Y333350D02*
D03*
X406300Y337650D02*
D03*
X393600Y333200D02*
D03*
X412550Y341600D02*
D03*
X389300Y333200D02*
D03*
X384400Y333500D02*
D03*
X381550Y486550D02*
D03*
X345550Y250900D02*
D03*
X362300Y468600D02*
D03*
X381826Y355200D02*
D03*
X444850Y482700D02*
D03*
X422700Y467200D02*
D03*
X410400Y486000D02*
D03*
X422300Y462400D02*
D03*
X425350Y470650D02*
D03*
X404900Y488200D02*
D03*
X374550Y379250D02*
D03*
X457600Y442800D02*
D03*
X476850Y364800D02*
D03*
X462450Y361250D02*
D03*
X457400Y352200D02*
D03*
X450400Y351750D02*
D03*
X500100Y330600D02*
D03*
X469350Y328150D02*
D03*
X335650Y325750D02*
D03*
X448750Y299950D02*
D03*
X322800Y329900D02*
D03*
X494800Y363300D02*
D03*
X464850Y285200D02*
D03*
X334350Y333700D02*
D03*
X346400Y354650D02*
D03*
X353950Y336600D02*
D03*
X356200Y340550D02*
D03*
X346150Y514500D02*
D03*
X369700Y320800D02*
D03*
X357450Y311000D02*
D03*
X286800Y342950D02*
D03*
X307400Y343200D02*
D03*
X305800Y320550D02*
D03*
X427450Y336350D02*
D03*
X409500Y325500D02*
D03*
X452100Y329100D02*
D03*
X432400Y409700D02*
D03*
X380500Y432000D02*
D03*
X340950Y440200D02*
D03*
X386300Y429600D02*
D03*
X427300Y435400D02*
D03*
X450400Y447750D02*
D03*
X390800Y427900D02*
D03*
X373600Y432400D02*
D03*
X412700Y410500D02*
D03*
X474150Y294700D02*
D03*
X390500Y410500D02*
D03*
X419600Y400000D02*
D03*
X321600Y312400D02*
D03*
X338600Y283100D02*
D03*
X422900Y430300D02*
D03*
X483600Y364700D02*
D03*
X370500Y420400D02*
D03*
X321500Y293200D02*
D03*
X488800Y326200D02*
D03*
X413300Y429800D02*
D03*
X418000Y430200D02*
D03*
X289700Y513200D02*
D03*
X295400Y521100D02*
D03*
X315600Y520950D02*
D03*
X365700Y448100D02*
D03*
X324500Y547900D02*
D03*
X328900Y301600D02*
D03*
X305500Y285300D02*
D03*
X314400Y288100D02*
D03*
X492100Y310600D02*
D03*
X487100Y303600D02*
D03*
X420100Y529400D02*
D03*
X415100Y529100D02*
D03*
X380100Y529200D02*
D03*
X390400Y528700D02*
D03*
X369900Y451800D02*
D03*
X380200Y493800D02*
D03*
X385200Y493500D02*
D03*
X366300Y530000D02*
D03*
X360000Y521300D02*
D03*
X320150Y529500D02*
D03*
X309900Y529900D02*
D03*
X303350Y512800D02*
D03*
X333050Y467000D02*
D03*
X517550Y303100D02*
D03*
X357400Y466400D02*
D03*
X311450Y514300D02*
D03*
X411800Y456300D02*
D03*
X380500Y399800D02*
D03*
X439400Y493400D02*
D03*
X421600Y457200D02*
D03*
X338200Y273900D02*
D03*
X290500Y323700D02*
D03*
X371200Y342200D02*
D03*
X327500Y265700D02*
D03*
X321000Y266000D02*
D03*
X430900Y421300D02*
D03*
X445900Y356400D02*
D03*
X370000Y511600D02*
D03*
X385400Y451800D02*
D03*
X388400Y456300D02*
D03*
X363700Y524800D02*
D03*
X385300Y529300D02*
D03*
X409900Y494300D02*
D03*
X302100Y311900D02*
D03*
X309000Y279150D02*
D03*
X410000Y528900D02*
D03*
X359438Y328862D02*
D03*
X362000Y315100D02*
D03*
X376200Y336800D02*
D03*
X385100Y340000D02*
D03*
X350400Y301400D02*
D03*
X344000Y311400D02*
D03*
X346200Y318100D02*
D03*
X351750Y454100D02*
D03*
X399900Y529200D02*
D03*
X354000Y475300D02*
D03*
X430000Y465500D02*
D03*
X311500Y497900D02*
D03*
X390300Y493800D02*
D03*
X417500Y410100D02*
D03*
X378200Y410500D02*
D03*
X400100Y494600D02*
D03*
X317700Y325200D02*
D03*
X296350Y315800D02*
D03*
X312100Y490700D02*
D03*
X288900Y463400D02*
D03*
X304600Y458500D02*
D03*
X306000Y463500D02*
D03*
X312300Y471100D02*
D03*
X424900Y529100D02*
D03*
X352100Y546900D02*
D03*
X368650Y540700D02*
D03*
X345841Y542150D02*
D03*
X328750Y560500D02*
D03*
X335000Y545450D02*
D03*
X274400Y487500D02*
D03*
X541550Y322650D02*
D03*
X531250Y295250D02*
D03*
X536550Y318700D02*
D03*
X514200Y334800D02*
D03*
X444250Y235950D02*
D03*
X473750Y256650D02*
D03*
X481050Y239700D02*
D03*
X316900Y243400D02*
D03*
X324150Y230600D02*
D03*
X257100Y288600D02*
D03*
X448700Y541750D02*
D03*
X394700Y528800D02*
D03*
X425050Y493650D02*
D03*
X346050Y484600D02*
D03*
X328850Y500100D02*
D03*
X363600Y363800D02*
D03*
X258500Y318600D02*
D03*
X265850Y318850D02*
D03*
X244000Y318700D02*
D03*
X341850Y465500D02*
D03*
X382750Y410100D02*
D03*
X404050Y410650D02*
D03*
X404000Y431200D02*
D03*
X385200Y381750D02*
D03*
X387800Y376200D02*
D03*
X388900Y383950D02*
D03*
X402150Y388200D02*
D03*
X369400Y352700D02*
D03*
X375000Y351850D02*
D03*
X406400Y389050D02*
D03*
X440750Y308350D02*
D03*
X489500Y293550D02*
D03*
X446050Y292450D02*
D03*
X439100Y355350D02*
D03*
X467550Y361100D02*
D03*
X456950Y291150D02*
D03*
X397890Y332655D02*
D03*
X542500Y507500D02*
D03*
X506500Y497710D02*
D03*
X447000Y492095D02*
D03*
X464000Y467000D02*
D03*
X467500Y484000D02*
D03*
X438000Y546000D02*
D03*
X429500Y539000D02*
D03*
X443000Y334700D02*
D03*
X441000Y351000D02*
D03*
X422000Y366000D02*
D03*
X433000Y365500D02*
D03*
X428500D02*
D03*
X416812Y366179D02*
D03*
X414688Y349718D02*
D03*
X432500Y343500D02*
D03*
X428500Y353000D02*
D03*
X420094Y349670D02*
D03*
X345500Y323500D02*
D03*
X369500Y364500D02*
D03*
X369740Y371040D02*
D03*
X416935Y331530D02*
D03*
X413000Y334500D02*
D03*
D108*
X509300Y364600D02*
D03*
X290700D02*
D03*
X509300Y435400D02*
D03*
X290700D02*
D03*
D109*
X474500Y349200D02*
D03*
X325500D02*
D03*
X474500Y450800D02*
D03*
X325500D02*
D03*
D110*
X445000Y274000D02*
D03*
X355000D02*
D03*
D111*
X400000D02*
D03*
M02*
