%FSTAX23Y23*%
%MOIN*%
%SFA1B1*%

%IPPOS*%
%ADD10R,0.027560X0.035430*%
%ADD11R,0.035430X0.027560*%
%ADD12R,0.102360X0.043310*%
%ADD13R,0.023620X0.019690*%
%ADD14R,0.059060X0.031500*%
%ADD15R,0.047240X0.070870*%
%ADD16R,0.080000X0.050000*%
%ADD17R,0.055120X0.047240*%
%ADD18O,0.009840X0.037400*%
%ADD19O,0.037400X0.009840*%
%ADD20R,0.094490X0.094490*%
%ADD21R,0.173000X0.056500*%
%ADD22R,0.035430X0.031500*%
%ADD23R,0.031500X0.035430*%
%ADD24R,0.019690X0.023620*%
%ADD25R,0.059060X0.023620*%
%ADD26R,0.021650X0.064960*%
%ADD27R,0.011420X0.068900*%
%ADD28R,0.068900X0.011420*%
%ADD29R,0.098430X0.017320*%
%ADD30R,0.047240X0.098430*%
%ADD31C,0.010000*%
%ADD32C,0.025000*%
%ADD33C,0.008000*%
%ADD34C,0.040000*%
%ADD35R,0.059060X0.059060*%
%ADD36C,0.059060*%
%ADD37C,0.060000*%
%ADD38O,0.070870X0.086610*%
%ADD39R,0.059060X0.059060*%
%ADD40C,0.050000*%
%ADD41C,0.035000*%
%ADD42C,0.152000*%
%LNirbeacon-1*%
%LPD*%
G36*
X01768Y00991D02*
X01737Y00961D01*
X01706*
X01707Y00983*
X0174*
X01765Y00998*
X01768Y00991*
G37*
G36*
X01788Y01014D02*
X01742Y01002D01*
X01724*
Y01026*
X01741*
X01788Y01014*
G37*
G36*
X02016Y00928D02*
X02018Y00908D01*
X02008Y00907*
X01975Y00951*
X01981Y00958*
X02016Y00928*
G37*
G36*
X02027Y0098D02*
X02029Y00956D01*
X02007Y00957*
X01983Y00992*
X01989Y00999*
X02027Y0098*
G37*
G36*
X02024Y01002D02*
X02017D01*
X01982Y01014*
X02015Y01026*
X02024*
Y01002*
G37*
G36*
X01814Y01077D02*
Y01053D01*
X01778*
Y01075*
X01797Y01094*
X01814Y01077*
G37*
G36*
X0195Y0114D02*
X01945Y0113D01*
X01929Y01109*
X01911*
X0192Y0112*
X01925Y01145*
X0195*
Y0114*
G37*
G36*
X02031Y0105D02*
X0201Y0104D01*
X01988Y01029*
X01987Y01038*
X02011Y01073*
X02033Y01074*
X02031Y0105*
G37*
G36*
X01771Y01039D02*
X01766Y0103D01*
X01741Y01043*
X01695*
Y01079*
X0172*
X01771Y01039*
G37*
G54D10*
X01295Y02D03*
X01354D03*
X00925D03*
X00984D03*
X00905Y01635D03*
X00964D03*
X00825Y02D03*
X00884D03*
X0119D03*
X01249D03*
X01556D03*
X01615D03*
X01629Y00858D03*
X01688D03*
X01889Y00793D03*
X01948D03*
Y00743D03*
X01889D03*
X01898Y01143D03*
X01839D03*
X01858Y00853D03*
X01799D03*
X0033Y01085D03*
X00389D03*
X00095Y02005D03*
X00154D03*
X01719Y00465D03*
X0166D03*
X01719Y0037D03*
X0166D03*
X0119Y0102D03*
X01249D03*
X00444Y01615D03*
X00385D03*
X0033Y0114D03*
X00389D03*
X0033Y0119D03*
X00389D03*
X0033Y0124D03*
X00389D03*
X0033Y0129D03*
X00389D03*
X00095Y01925D03*
X00154D03*
X01719Y02D03*
X0166D03*
G54D11*
X0198Y02009D03*
Y0195D03*
X0066Y01954D03*
Y01895D03*
X0071D03*
Y01954D03*
X0109Y0087D03*
Y00929D03*
X01373Y01178D03*
Y01119D03*
X0093Y00509D03*
Y0045D03*
X0145Y00509D03*
Y0045D03*
X01185Y0051D03*
Y00569D03*
X0145Y00565D03*
Y00624D03*
X0066Y01795D03*
Y01854D03*
X0071Y01795D03*
Y01854D03*
X0117Y0087D03*
Y00929D03*
X0172Y0135D03*
Y01409D03*
X0165D03*
Y0135D03*
X0222Y02009D03*
Y0195D03*
G54D12*
X01855Y01936D03*
Y02043D03*
G54D13*
X0118Y0126D03*
X01219D03*
X01314Y0138D03*
X01275D03*
X01938Y00848D03*
X01899D03*
X006Y0089D03*
X00639D03*
X00339Y01515D03*
X003D03*
X02344Y01485D03*
X02305D03*
X0127Y017D03*
X01309D03*
G54D14*
X01361Y0051D03*
X01258D03*
Y0045D03*
X01361D03*
X01008Y0051D03*
X01111D03*
Y0045D03*
X01008D03*
G54D15*
X01341Y01618D03*
X01342Y0146D03*
X01247Y01618D03*
X01248Y0146D03*
G54D16*
X01725Y0214D03*
Y023D03*
X01545Y0214D03*
Y023D03*
X00995Y0214D03*
Y023D03*
X00815Y0214D03*
Y023D03*
X0136Y0214D03*
Y023D03*
X0118Y0214D03*
Y023D03*
G54D17*
X02055Y02011D03*
Y01948D03*
X02145Y02011D03*
Y01948D03*
G54D18*
X0183Y00922D03*
X0185D03*
X0187D03*
X01889D03*
X01909D03*
X01929D03*
Y01087D03*
X01909D03*
X01889D03*
X0187D03*
X0185D03*
X0183D03*
G54D19*
X01962Y00955D03*
Y00975D03*
Y00994D03*
Y01014D03*
Y01034D03*
Y01053D03*
X01797D03*
Y01034D03*
Y01014D03*
Y00994D03*
Y00975D03*
Y00955D03*
G54D20*
X01879Y01004D03*
G54D21*
X01623Y00955D03*
Y01071D03*
X02144Y00931D03*
Y01047D03*
G54D22*
X01568Y01204D03*
Y01149D03*
X01745Y00827D03*
Y00772D03*
X02275Y00942D03*
Y00997D03*
X0179Y01352D03*
Y01407D03*
G54D23*
X02041Y01163D03*
X01986D03*
X01237Y01215D03*
X01182D03*
X00677Y01635D03*
X00732D03*
G54D24*
X01788Y00813D03*
Y00774D03*
X01488Y01164D03*
Y01203D03*
X0045Y0105D03*
Y01089D03*
G54D25*
X02225Y00485D03*
X02154Y00447D03*
Y00522D03*
X0223Y00257D03*
X02159D03*
Y00332D03*
Y00295D03*
X0223Y00332D03*
G54D26*
X00372Y02215D03*
X00403D03*
X00435D03*
X00466D03*
X00497D03*
G54D27*
X00574Y00961D03*
X00593D03*
X00613D03*
X00633D03*
X00652D03*
X00672D03*
X00692D03*
X00712D03*
X00731D03*
X00751D03*
X00771D03*
X0079D03*
X0081D03*
X0083D03*
X00849D03*
X00869D03*
X00889D03*
X00908D03*
X00928D03*
X00948D03*
X00967D03*
X00987D03*
X01007D03*
X01027D03*
X01046D03*
Y01558D03*
X01027D03*
X01007D03*
X00987D03*
X00967D03*
X00948D03*
X00928D03*
X00908D03*
X00889D03*
X00869D03*
X00849D03*
X0083D03*
X0081D03*
X0079D03*
X00771D03*
X00751D03*
X00731D03*
X00712D03*
X00692D03*
X00672D03*
X00652D03*
X00633D03*
X00613D03*
X00593D03*
X00574D03*
G54D28*
X01108Y01023D03*
Y01043D03*
Y01063D03*
Y01082D03*
Y01102D03*
Y01122D03*
Y01141D03*
Y01161D03*
Y01181D03*
Y012D03*
Y0122D03*
Y0124D03*
Y0126D03*
Y01279D03*
Y01299D03*
Y01319D03*
Y01338D03*
Y01358D03*
Y01378D03*
Y01397D03*
Y01417D03*
Y01437D03*
Y01456D03*
Y01476D03*
Y01496D03*
X00512D03*
Y01476D03*
Y01456D03*
Y01437D03*
Y01417D03*
Y01397D03*
Y01378D03*
Y01358D03*
Y01338D03*
Y01319D03*
Y01299D03*
Y01279D03*
Y0126D03*
Y0124D03*
Y0122D03*
Y012D03*
Y01181D03*
Y01161D03*
Y01141D03*
Y01122D03*
Y01102D03*
Y01082D03*
Y01063D03*
Y01043D03*
Y01023D03*
G54D29*
X00223Y0119D03*
Y0124D03*
Y01291D03*
Y0114D03*
Y01089D03*
X00086D03*
Y0114D03*
Y01291D03*
Y0124D03*
Y0119D03*
G54D30*
X00433Y00441D03*
X00335D03*
X00236D03*
Y00225D03*
X00335D03*
X00433D03*
G54D31*
X01465Y0232D02*
X01485Y023D01*
X01095Y02315D02*
X011D01*
X01115Y023*
X0073Y0232D02*
X00735D01*
X00755Y023*
X00748Y02032D02*
X0076Y0202D01*
Y0176D02*
Y0202D01*
X0075Y0175D02*
X0076Y0176D01*
X00732Y0175D02*
X0075D01*
X02305Y01455D02*
Y01485D01*
X02305Y01445D02*
Y01455D01*
X0193Y021D02*
X01955Y02125D01*
X0193Y02005D02*
Y021D01*
X01865Y0194D02*
X0193Y02005D01*
X01935Y01975D02*
X0195Y0199D01*
X01935Y01885D02*
Y01975D01*
Y0188D02*
Y01885D01*
X0195Y0199D02*
Y02009D01*
X02055Y02011D02*
Y0205D01*
X02005D02*
X02055D01*
X02104Y01866D02*
Y01918D01*
X0195Y02009D02*
X0198D01*
X01719Y02D02*
X01774D01*
X01774Y01999*
Y01944D02*
Y01999D01*
X01955Y02125D02*
X02055D01*
X02145Y02011D02*
Y02035D01*
X02055Y02125D02*
X02145Y02035D01*
X0034Y0162D02*
X0039Y0167D01*
X003Y0162D02*
X0034D01*
X011Y01588D02*
Y0163D01*
X01094Y01582D02*
X011Y01588D01*
X01094Y01557D02*
Y01582D01*
Y01557D02*
X011Y01551D01*
X00024Y01089D02*
Y01239D01*
X00025Y01189D02*
X00086D01*
X00024Y01089D02*
X00086D01*
X00025Y0124D02*
X00086D01*
X01739Y01014D02*
X01797D01*
X0071Y02094D02*
Y02115D01*
X00591Y01975D02*
X0071Y02094D01*
X00389Y0114D02*
X00448D01*
X0047Y01161*
X00306Y01485D02*
X00365D01*
X003Y0149D02*
X00306Y01485D01*
X003Y0149D02*
Y01515D01*
X00376Y01496D02*
X00512D01*
X00365Y01485D02*
X00376Y01496D01*
X00235Y0138D02*
X00295D01*
X00389Y01347D02*
X0044Y01397D01*
X00389Y0129D02*
Y01347D01*
X00146Y01291D02*
X00235Y0138D01*
X0201Y0031D02*
X02062Y00257D01*
X0079Y01145D02*
Y01149D01*
X02205Y016D02*
Y0162D01*
X00339Y01515D02*
X00385D01*
X00443Y0153D02*
X0051D01*
X0054Y0156*
X01929Y01136D02*
X01937Y01145D01*
X0103Y01141D02*
Y0122D01*
X01929Y01109D02*
Y01136D01*
X01909Y00975D02*
X01962D01*
X00625Y01075D02*
Y01161D01*
X00512D02*
X00625D01*
X00512Y01063D02*
X00613D01*
X00565Y01082D02*
Y01112D01*
X00512Y01082D02*
X00565D01*
Y01112D02*
X00587D01*
X00565D02*
Y01141D01*
X00192Y0078D02*
X00389Y00977D01*
X00155Y0078D02*
X00192D01*
X00145Y0077D02*
X00155Y0078D01*
X00986Y01496D02*
Y01557D01*
Y01496D02*
X0108D01*
X01857Y00826D02*
Y00845D01*
X0103Y0122D02*
X01108D01*
X01788Y00774D02*
Y00776D01*
X01978Y00955D02*
X02017Y00916D01*
X01962Y01054D02*
Y0108D01*
X01929Y00905D02*
X01939Y00895D01*
X01577Y0115D02*
X01577Y0115D01*
X0187Y00877D02*
Y00922D01*
X01857Y00865D02*
X0187Y00877D01*
X01962Y0108D02*
X01986Y01104D01*
X01989Y00995D02*
X02019Y00964D01*
X01988Y01034D02*
X02019Y01063D01*
X01962Y01034D02*
X01988D01*
X01788Y00774D02*
X01805D01*
X01595Y00858D02*
X01629D01*
X01373Y01178D02*
Y01211D01*
X01526Y01206D02*
Y01208D01*
X01839Y0112D02*
X0185Y0111D01*
Y01087D02*
Y0111D01*
X01948Y00793D02*
X01987D01*
X0205Y01164D02*
X02099D01*
X02103*
X01962Y00955D02*
X01978D01*
X01769Y01034D02*
X01797D01*
X01962Y00995D02*
X01989D01*
X01929Y01087D02*
Y01109D01*
X01909Y01107D02*
X01911Y01109D01*
X01909Y01087D02*
Y01107D01*
Y01087D02*
X01909Y01087D01*
X00389Y01085D02*
Y0114D01*
Y0119*
Y0124*
Y0129*
X00456Y01082D02*
X00512D01*
X00473Y01063D02*
X00512D01*
X0046Y0105D02*
X00473Y01063D01*
X0045Y0105D02*
X0046D01*
X00633Y009D02*
Y00961D01*
X00711Y00962D02*
X00712Y00961D01*
X00731D02*
X00732Y0096D01*
X00613Y00921D02*
Y00961D01*
X006Y00908D02*
X00613Y00921D01*
X006Y0089D02*
Y00908D01*
X00849Y00961D02*
X0085Y00961D01*
X00986Y01557D02*
X00987Y01558D01*
Y01602*
X00948Y01558D02*
Y01603D01*
X00964Y01619*
Y01635*
X01108Y01161D02*
X01321D01*
X01338Y01178*
X01373*
X0172Y0135D02*
X01788D01*
X02062Y00257D02*
X02159D01*
X02104Y01918D02*
Y0201D01*
Y01918D02*
X02105Y01918D01*
X02055Y02011D02*
X02104D01*
X02273Y01083D02*
X02345Y01154D01*
Y01484*
X02104Y01866D02*
X02305Y01666D01*
Y0162D02*
Y01666D01*
X00372Y02215D02*
X00403D01*
X00291D02*
X00372D01*
X00809Y01559D02*
X0081Y01558D01*
X00692D02*
Y0162D01*
X00677Y01635D02*
X00692Y0162D01*
X00677Y01635D02*
Y01668D01*
X00637Y01709D02*
X00677Y01668D01*
X00712Y01558D02*
Y01614D01*
X00732Y01635*
X003Y0162D02*
Y01695D01*
X01619Y01389D02*
X0162Y01388D01*
X01309Y0168D02*
Y017D01*
Y0168D02*
X01341Y01648D01*
Y01618D02*
X01343Y01617D01*
X002Y01585D02*
Y0162D01*
Y01585D02*
X0027Y01515D01*
X00086Y01291D02*
X00146D01*
X0044Y0135D02*
X00451Y01338D01*
X00512*
X0124Y01222D02*
Y0126D01*
X01219D02*
Y01279D01*
X01108Y01279D02*
X01159D01*
X01163Y01282*
X01216*
X01219Y01279*
Y0126D02*
X0124D01*
X00928Y01496D02*
Y01558D01*
Y01496D02*
X00928Y01496D01*
X006Y0149D02*
X0061D01*
X007Y01475D02*
Y01505D01*
X00692Y01512D02*
X007Y01505D01*
X00692Y01512D02*
Y01558D01*
X00564Y01378D02*
Y01495D01*
X00512Y01378D02*
X00575D01*
X00564Y01495D02*
X00565Y01496D01*
X00512D02*
X00565D01*
X00948Y00961D02*
Y0105D01*
X0087D02*
X00948D01*
X00712Y01047D02*
X0074Y01075D01*
X00712Y00961D02*
Y01047D01*
X00731Y00961D02*
Y01008D01*
X0079Y01066*
Y01085*
X0185Y01034D02*
Y01087D01*
X0179Y0126D02*
Y01352D01*
Y0126D02*
X01839Y0121D01*
X01619Y0135D02*
Y01389D01*
Y0135D02*
X0165D01*
X00512Y01141D02*
X00565D01*
X00613Y00961D02*
X00614Y00962D01*
X00613Y00961D02*
Y01063D01*
X01275Y0136D02*
Y0138D01*
X00964Y01635D02*
Y01744D01*
X0104Y0128D02*
X0104Y01279D01*
X01108*
X00755Y023D02*
X00815D01*
X01115D02*
X0118D01*
X01485D02*
X01545D01*
X0081Y01558D02*
Y01618D01*
X00771Y01558D02*
Y01628D01*
X00732Y00882D02*
Y0096D01*
X00771Y01628D02*
X008D01*
X00811*
X0063Y00855D02*
X00639Y00845D01*
X00615Y00855D02*
X00616Y00853D01*
X00639Y00845D02*
Y0089D01*
X0073Y0088D02*
X00732Y00882D01*
X0073Y0088D02*
X0074D01*
X0145Y00509D02*
Y00535D01*
Y00565*
Y00535D02*
X01495D01*
X0087Y00509D02*
X0093D01*
X0087Y0051D02*
X0087Y00509D01*
X02205Y016D02*
X02305Y01499D01*
Y01485D02*
Y01499D01*
X02305Y01455D02*
X02305Y01455D01*
X0027Y01515D02*
X003D01*
X00055Y01835D02*
X002Y0169D01*
X00055Y01835D02*
Y01964D01*
X00095Y02005*
X01954Y02175D02*
X02045D01*
X01835Y02043D02*
Y02055D01*
X01954Y02175*
X02005Y0205D02*
Y02055D01*
X00675Y01264D02*
X0069Y0128D01*
X00675Y01264D02*
X0079Y01149D01*
X00659Y01279D02*
X00675Y01264D01*
X0117Y0087D02*
Y0087D01*
X00945Y0087D02*
X00967D01*
Y00961*
X00086Y01023D02*
Y01089D01*
X00984Y02D02*
Y02029D01*
X01029*
X0135Y0205D02*
X01354Y02054D01*
X01619Y01389D02*
Y01714D01*
X01835Y0193*
X0176D02*
X01774Y01944D01*
X00849Y0088D02*
Y00961D01*
X00389Y00977D02*
Y01085D01*
X0047Y01161D02*
X00512D01*
X0133Y00715D02*
X01355D01*
X0044Y0135D02*
Y01385D01*
X00987Y01602D02*
X0101Y01625D01*
Y0165*
X00905Y0124D02*
X00915D01*
X0042Y01089D02*
X0045D01*
X00639Y00805D02*
Y00845D01*
Y00805D02*
X0067Y00775D01*
X00705*
X02344Y01485D02*
Y01535D01*
X02305Y01575D02*
X02344Y01535D01*
X02305Y01575D02*
Y0162D01*
X01309Y017D02*
Y01744D01*
X0131Y01745*
X002Y02215D02*
X00291D01*
X0044Y01397D02*
X00512D01*
X01355Y00715D02*
X0148Y0084D01*
X00948Y0105D02*
X0103Y01131D01*
Y01141*
X00961D02*
X0103D01*
X01108*
X0042Y0099D02*
X00425D01*
X00695Y02032D02*
X00748D01*
X00964Y01744D02*
X00965Y01745D01*
Y01747*
X003Y01695D02*
X00355Y0175D01*
X00732*
X0108Y0165D02*
Y01695D01*
X01237Y01215D02*
X01315D01*
X01322Y01222*
X01373*
X00928Y01496D02*
X00986D01*
X011D02*
X01108D01*
X0108Y0165D02*
X011Y0163D01*
X01248Y01421D02*
Y0146D01*
Y01421D02*
X01275Y01394D01*
Y0138D02*
Y01394D01*
X0053Y01645D02*
X00535D01*
X0039Y0167D02*
X00515D01*
X0053Y01655*
X00385Y01515D02*
X00398Y01528D01*
X00422*
X00425Y0153*
X00443*
X0113Y01745D02*
X0131D01*
X0108Y01695D02*
X0113Y01745D01*
X01044Y01319D02*
X01108D01*
X0104Y0128D02*
Y0133D01*
X00512Y01279D02*
X00575D01*
X00512Y01319D02*
X0057D01*
X00575Y01279D02*
Y01378D01*
Y01279D02*
X00659D01*
X00512Y01299D02*
X00574D01*
X00441Y01358D02*
X00512D01*
X00613Y01063D02*
Y01075D01*
X00732Y01635D02*
Y0175D01*
X01962Y01014D02*
X02019D01*
X01108Y0122D02*
X01188D01*
X01911Y01109D02*
X01929D01*
X01165Y0136D02*
X01275D01*
X0042Y0099D02*
Y01089D01*
X00615Y00855D02*
X0063D01*
X00603Y01496D02*
X0061Y0149D01*
X00565Y01496D02*
X00603D01*
X01748Y00712D02*
Y00776D01*
X01738Y00777D02*
X01788D01*
X01839Y0112D02*
Y0121D01*
X01526Y01203D02*
Y01206D01*
X01488Y01203D02*
X01566D01*
X01806Y00775D02*
X01857Y00826D01*
X01939Y00895D02*
X01969D01*
X01986Y0112D02*
Y01163D01*
X011Y01496D02*
Y01551D01*
X01354Y02D02*
Y02054D01*
X01108Y01397D02*
X01165D01*
Y01343D02*
Y01397D01*
X00915Y0124D02*
X01053Y01378D01*
X01108*
X01161Y01339D02*
X01165Y01343D01*
X0104Y0133D02*
X01049Y01339D01*
X01161*
G54D32*
X02154Y00412D02*
X02313D01*
X02154D02*
Y00447D01*
X02313Y00412D02*
Y00966D01*
Y00332D02*
Y00412D01*
X0223Y00332D02*
X02313D01*
X02282Y00997D02*
X02313Y00966D01*
X01456Y01164D02*
X0148D01*
X01439D02*
X01456D01*
X0154Y0064D02*
Y0078D01*
X0166Y00165D02*
Y0037D01*
X01615Y0012D02*
X0166Y00165D01*
X016Y0012D02*
X01615D01*
X01961Y01236D02*
X02122D01*
X01937Y01212D02*
X01961Y01236D01*
X01937Y01145D02*
Y01212D01*
X02047Y00994D02*
X02273D01*
X02122Y01236D02*
X02272Y01086D01*
X02273Y00891D02*
Y00941D01*
X01567Y01204D02*
X01568D01*
X01526Y01206D02*
X01528D01*
X01439Y01065D02*
X0149Y01014D01*
X01739*
X01619Y01072D02*
Y01149D01*
X02273Y00941D02*
X02275Y00942D01*
X01619Y01072D02*
X01623Y01071D01*
X02017Y00916D02*
X02129D01*
X01568Y01149D02*
X01619D01*
X02019Y01014D02*
X02027D01*
X02047Y00994*
X02019Y01063D02*
X02092D01*
X0166Y0037D02*
Y00415D01*
Y00465*
X01945Y00245D02*
X02045Y00145D01*
X01948Y00638D02*
Y00743D01*
X01541Y00638D02*
X01948D01*
X0154Y0064D02*
X01541Y00638D01*
X01565Y01285D02*
X01567Y01282D01*
X01439Y01065D02*
Y01164D01*
X01948Y00743D02*
X02304D01*
X0148Y0084D02*
X0154Y0078D01*
X0145Y0087D02*
X0148Y0084D01*
X0154Y005D02*
Y0064D01*
Y005D02*
X01625Y00415D01*
X0166*
X0117Y0087D02*
X0145D01*
X02273Y00996D02*
Y01083D01*
X01567Y01204D02*
Y01204D01*
Y01282*
Y01285*
G54D33*
X02052Y00522D02*
X02154D01*
X01995Y00465D02*
X02052Y00522D01*
X00994Y02092D02*
Y02139D01*
X00867Y02092D02*
X00994D01*
X00785Y0201D02*
X00867Y02092D01*
X00785Y01706D02*
Y0201D01*
X01725Y0214D02*
X018D01*
X01815Y02125*
Y02105D02*
Y02125D01*
X0135Y02105D02*
Y0214D01*
Y02105D02*
X0144D01*
X01342D02*
X0135D01*
Y0214D02*
X0136D01*
X01301D02*
X0135D01*
X0128Y0183D02*
X0141Y017D01*
X0099Y0183D02*
X0128D01*
X01249Y02D02*
X01295D01*
X01165Y02085D02*
X01246D01*
X0105Y0197D02*
X01165Y02085D01*
X00852Y0185D02*
X00857Y01855D01*
X00785Y01706D02*
X00849Y01641D01*
X0071Y0198D02*
X00725Y01995D01*
X0071Y01954D02*
Y0198D01*
X00908Y01018D02*
X0091Y0102D01*
X00825Y01999D02*
X00825Y02D01*
X00825Y01955D02*
Y01999D01*
Y01955D02*
X00865D01*
X0099Y0183*
X01246Y02085D02*
X01301Y0214D01*
X0218Y01885D02*
X02215D01*
X02265Y01935*
X01695Y0205D02*
X0176D01*
X00884Y02D02*
X00925D01*
X01185Y01885D02*
Y01955D01*
X0119Y0196*
Y02*
X01556Y01913D02*
Y01978D01*
X00655Y012D02*
Y01215D01*
Y0103D02*
Y012D01*
X00512D02*
X00655D01*
X0118Y01315D02*
X0133D01*
X01155Y01475D02*
Y01509D01*
X01125Y0154D02*
X01155Y01509D01*
X01125Y0154D02*
Y01555D01*
X00732Y00567D02*
X01035Y0087D01*
X00987Y009D02*
X01032D01*
X00987D02*
Y00961D01*
X01159Y00776D02*
X0118Y00797D01*
X01126Y00776D02*
X01159D01*
X0112Y0077D02*
X01126Y00776D01*
X01021Y0077D02*
X0112D01*
X01285Y0076D02*
X0134Y00815D01*
X01132Y0076D02*
X01285D01*
X01126Y00754D02*
X01132Y0076D01*
X01027Y00754D02*
X01126D01*
X0108Y00685D02*
X01139Y00744D01*
X0118Y00975D02*
X01206Y00948D01*
X01268Y00955D02*
X01325D01*
X01261Y00948D02*
X01268Y00955D01*
X01206Y00948D02*
X01261D01*
X01035Y0087D02*
X01085D01*
X02245Y02014D02*
X02265Y01994D01*
X02224Y02014D02*
X02245D01*
X02265Y01935D02*
Y01994D01*
X0201Y01635D02*
X02115Y0174D01*
X0201Y0134D02*
Y01635D01*
Y0134D02*
X02035Y01315D01*
X01456Y01164D02*
D01*
X01975Y01675D02*
X02105Y01805D01*
X01975Y01325D02*
Y01675D01*
X0187Y0122D02*
X01975Y01325D01*
X00315Y01935D02*
Y01958D01*
X00195Y01815D02*
X00315Y01935D01*
X00195Y01806D02*
Y01815D01*
X00095Y01839D02*
X00258Y01677D01*
X01585Y0069D02*
Y007D01*
X00379Y01475D02*
X00433D01*
X00372Y01468D02*
X00379Y01475D01*
X0028Y01468D02*
X00372D01*
X00325Y01369D02*
X00414Y01459D01*
X00325Y0136D02*
Y01369D01*
X00341Y01363D02*
X00421Y01443D01*
X00341Y01353D02*
Y01363D01*
X00357Y01356D02*
X00427Y01427D01*
X00357Y01252D02*
Y01356D01*
X00305Y0134D02*
X00325Y0136D01*
X0033Y01342D02*
X00341Y01353D01*
X00414Y01459D02*
X00465D01*
X00421Y01443D02*
X00458D01*
X00427Y01427D02*
X00452D01*
X0033Y0129D02*
Y01342D01*
X00295Y0134D02*
X00305D01*
X00465Y01459D02*
X00467Y01456D01*
X00458Y01443D02*
X00464Y01437D01*
X00452Y01427D02*
X00462Y01417D01*
X0074Y01115D02*
Y01175D01*
X00655Y0126D02*
X0074Y01175D01*
X0098Y01385D02*
X01032Y01437D01*
X01108*
X01456Y01164D02*
Y01268D01*
X0177Y00975D02*
X01797D01*
X01373Y01062D02*
X01408Y01027D01*
X01373Y01062D02*
Y01119D01*
X0074Y01115D02*
X0088D01*
X00692Y01069D02*
X0074Y01116D01*
X00692Y00961D02*
Y01069D01*
X0088Y01115D02*
X01024Y0126D01*
X0083Y01117D02*
Y01558D01*
X00652Y01512D02*
X0067Y01494D01*
Y01427D02*
Y01494D01*
X00512Y0126D02*
X00655D01*
X0093Y0045D02*
X01008D01*
X00281Y00955D02*
X00343D01*
X01719Y00366D02*
X01769D01*
X01207Y00642D02*
X01322D01*
X0104Y00639D02*
X01065Y00615D01*
X00261Y00975D02*
X00281Y00955D01*
X01249Y00978D02*
Y0102D01*
X01354Y00624D02*
X0145D01*
X01302Y00572D02*
X01354Y00624D01*
X01187Y00572D02*
X01302D01*
X01185Y00569D02*
X01187Y00572D01*
X01361Y0045D02*
X01449D01*
X0104Y00639D02*
Y00715D01*
X0083Y00961D02*
Y01112D01*
X0066Y01795D02*
X0071D01*
X0066Y01854D02*
Y01895D01*
X0071Y01854D02*
Y01895D01*
X01108Y0126D02*
X01175D01*
X00731Y01483D02*
X00732Y01483D01*
Y01413D02*
Y01483D01*
Y01413D02*
X00735Y0141D01*
X00223Y0114D02*
X00294D01*
X00295Y0114D02*
X0033D01*
X00751Y01516D02*
X00761Y01506D01*
Y01473D02*
Y01506D01*
X01801Y00858D02*
Y00875D01*
X01809Y00883*
X01836*
X0185Y00897*
Y00922*
X01799Y00853D02*
X018D01*
X01737Y00964D02*
X01767Y00994D01*
X01628Y00964D02*
X01737D01*
X01773Y00955D02*
X01797D01*
X01889Y00795D02*
X0189Y00796D01*
X01888Y00799D02*
Y00816D01*
X01909Y00896D02*
Y00922D01*
Y00896D02*
X01938Y00866D01*
Y00853D02*
Y00866D01*
X01888Y00816D02*
X01898Y00826D01*
X01889Y00885D02*
X01898Y00877D01*
X01788Y00813D02*
Y00825D01*
X01798Y00835*
Y00852*
X01747Y00831D02*
Y00862D01*
X01807Y00922*
X01744Y00916D02*
Y00949D01*
X0177Y00975*
X0176Y0091D02*
Y00943D01*
X01773Y00955*
X01733Y00905D02*
X01744Y00916D01*
X01739Y00889D02*
X0176Y0091D01*
X01688Y00858D02*
Y00889D01*
X01408Y01027D02*
X0153Y00905D01*
X01733*
X01515Y00889D02*
X01739D01*
X0187Y01087D02*
Y0122D01*
X01889Y01087D02*
Y01112D01*
X01898Y01121*
X01889Y00885D02*
Y00907D01*
Y00914*
X01798Y00852D02*
X01799Y00853D01*
X01888Y00799D02*
X0189Y00796D01*
X01619Y00956D02*
X01623Y00955D01*
X01719Y00465D02*
X0187D01*
X0109Y00929D02*
X0117D01*
X00223Y0124D02*
X00276D01*
X00223Y0119D02*
X00276D01*
X00276Y0119D02*
X0033D01*
X01672Y01409D02*
X0172D01*
X00223Y01291D02*
X00276D01*
X00277Y0129D02*
X0033D01*
X0178Y00994D02*
X01797D01*
X01938Y00848D02*
X0194D01*
X01938Y00853D02*
X0194D01*
X01799Y0085D02*
Y00853D01*
X01806Y00854D02*
X0181Y0085D01*
X01801Y00854D02*
X01806D01*
X01801D02*
Y00858D01*
X00905Y01609D02*
Y01635D01*
Y01609D02*
X00908Y01605D01*
Y01558D02*
Y01605D01*
X0119Y0102D02*
Y01043D01*
X01085Y01023D02*
X01108D01*
X00208Y02154D02*
X00416D01*
X00435Y02173*
Y02215*
X0033Y01177D02*
Y0119D01*
X00869Y01558D02*
Y01671D01*
X00852Y01688D02*
X00869Y01671D01*
X00613Y01558D02*
Y01604D01*
X01769Y00366D02*
X0187Y00265D01*
X01719Y00366D02*
Y0037D01*
X00497Y02152D02*
Y02215D01*
Y02152D02*
X00531Y02118D01*
X00633*
X0171Y0214D02*
X01725D01*
X01556Y01978D02*
Y02D01*
X00751Y01516D02*
Y01558D01*
X0079Y01485D02*
Y01558D01*
X00466Y0215D02*
Y02215D01*
X00432Y02116D02*
X00466Y0215D01*
X01456Y01268D02*
X01473Y01285D01*
X00652Y01512D02*
Y01558D01*
X02102Y00295D02*
X02159D01*
X00646Y01382D02*
Y01487D01*
X00633Y01499D02*
X00646Y01487D01*
X00633Y01499D02*
Y01558D01*
X00731Y01483D02*
Y01558D01*
X0165Y01409D02*
X01672D01*
X01687Y01424D02*
Y01446D01*
X01085Y00929D02*
Y01023D01*
X01799Y0085D02*
X0181D01*
X01889Y00744D02*
Y00795D01*
X01898Y00826D02*
Y00877D01*
X01889Y00914D02*
Y00922D01*
X01889Y00922D02*
X01889Y00922D01*
X0194Y00848D02*
Y00853D01*
X01619Y00956D02*
X01628Y00964D01*
X01767Y00994D02*
X01791D01*
X0178D02*
Y00994D01*
X01898Y01121D02*
Y01145D01*
X01672Y01409D02*
X01687Y01424D01*
X00692Y00905D02*
X00692Y00905D01*
X00692Y00905D02*
Y00961D01*
X00446Y01181D02*
X00512D01*
X00445Y0118D02*
X00446Y01181D01*
X01108Y01043D02*
X0119D01*
X01175Y01455D02*
Y01528D01*
X0111Y01455D02*
X01175D01*
X01108Y01456D02*
X0111Y01455D01*
X01171Y01531D02*
X01174Y01535D01*
X01175*
X01108Y01476D02*
X0111Y01475D01*
X00852Y01688D02*
Y0185D01*
X00249Y02116D02*
X00432D01*
X00889Y0144D02*
Y01558D01*
X00595Y0134D02*
Y01445D01*
X00745Y01295D02*
X0079Y0134D01*
Y01461*
X00791Y01461*
Y01485*
X0079Y01485D02*
X00791Y01485D01*
X00595Y0134D02*
X00605Y0133D01*
X00908Y00961D02*
Y01018D01*
X0091Y01019D02*
Y0102D01*
X0059Y01795D02*
X0066D01*
Y01954D02*
Y01995D01*
X00745Y0125D02*
Y01295D01*
X0044Y00915D02*
Y00925D01*
X0083Y01558D02*
X00832Y01556D01*
X01024Y0126D02*
X01108D01*
X00889Y0144D02*
X00895Y01435D01*
X00849Y01558D02*
Y01641D01*
X00435Y01476D02*
X00512D01*
X01258Y0051D02*
X0131D01*
X01111D02*
X01258D01*
X00771Y00921D02*
Y00961D01*
X0176Y0205D02*
X01815Y02105D01*
X00751Y00918D02*
Y00961D01*
X01615Y02D02*
X0166D01*
X02146Y0195D02*
X0222D01*
X0198D02*
X02053D01*
X01585Y007D02*
X01712Y00827D01*
X01745*
X01807Y00922D02*
X0183D01*
X01375Y00685D02*
X0147Y0078D01*
X01195Y00685D02*
X01375D01*
X0108Y0057D02*
X01195Y00685D01*
X00433Y00441D02*
X00756D01*
X00885Y0057*
X0108*
X01322Y00642D02*
X01345Y00665D01*
X0149*
X01075Y00685D02*
X0108D01*
X0104Y00715D02*
X01045Y00719D01*
Y0072*
X0104Y00725D02*
X01045Y0072D01*
X00945Y00695D02*
X01021Y0077D01*
X00791Y00834D02*
X00825Y008D01*
X00791Y00834D02*
Y00901D01*
X00771Y00921D02*
X00791Y00901D01*
X01139Y00744D02*
X01359D01*
X00462Y01417D02*
X00512D01*
X00464Y01437D02*
X00512D01*
X00467Y01456D02*
X00512D01*
X00433Y01475D02*
X00435Y01476D01*
X00276Y0124D02*
X0033D01*
X00345*
X00357Y01252*
X00363Y00974D02*
Y01177D01*
X0035Y0119D02*
X00363Y01177D01*
X0033Y0119D02*
X0035D01*
X0144Y01796D02*
X01556Y01913D01*
X00535Y0062D02*
Y0063D01*
X0064Y0123D02*
X00655Y01215D01*
X0119Y0163D02*
X01235D01*
X01247Y01618*
X0187Y00465D02*
X01995D01*
X0111Y01475D02*
X01155D01*
X0098Y0136D02*
Y01385D01*
X0069Y0133D02*
Y01407D01*
X0067Y01427D02*
X0069Y01407D01*
X0044Y00915D02*
X0052D01*
X00574Y00532D02*
Y00961D01*
X005Y0071D02*
Y00839D01*
X00535Y0063D02*
Y00834D01*
X00529Y0084D02*
X00535Y00834D01*
X00529Y0084D02*
Y0087D01*
X0061Y0063D02*
X00665D01*
X0077Y00735*
Y00899*
X00751Y00918D02*
X0077Y00899D01*
X00995Y00721D02*
X01027Y00754D01*
X00745Y0046D02*
X00995Y0071D01*
Y00721*
X0151Y00895D02*
X01515Y00889D01*
X0134Y00815D02*
Y00825D01*
X02117Y00332D02*
X02159D01*
X02085Y00365D02*
X02117Y00332D01*
X0033Y00998D02*
Y01085D01*
X00343Y00955D02*
X00363Y00974D01*
X00223Y01089D02*
X00285D01*
X00289Y01085D02*
X0033D01*
X00285Y01089D02*
X00289Y01085D01*
X00335Y00441D02*
Y00505D01*
X0035Y0052*
X0047*
X0053Y0046*
X00745*
X01359Y00744D02*
X014Y00785D01*
Y0081*
X0129Y01535D02*
X01315D01*
X01342Y01507*
Y0146D02*
Y01507D01*
X01171Y01531D02*
X01175Y01528D01*
X01342Y01392D02*
Y0146D01*
X0133Y0138D02*
X01342Y01392D01*
X01314Y0138D02*
X0133D01*
X0172Y01409D02*
X01788D01*
X01247Y0163D02*
Y01662D01*
X0127Y01685*
Y017*
X0223Y0048D02*
X0227D01*
X02235Y00515D02*
X0227D01*
Y0048D02*
Y00515D01*
X01326Y00551D02*
X0138D01*
X0131Y00535D02*
X01326Y00551D01*
X0131Y0051D02*
Y00535D01*
X02055Y00215D02*
X0221D01*
X0223Y00235*
Y00257*
X01905Y00365D02*
X02055Y00215D01*
X0187Y00365D02*
X01905D01*
X00465Y0124D02*
X00512D01*
X0134Y0091D02*
X0137D01*
X01385Y00895*
X0151*
X00154Y01925D02*
Y02005D01*
X00095Y01839D02*
Y01925D01*
X00531Y01604D02*
X00613D01*
X00454Y01615D02*
X0049D01*
X0043Y0156D02*
X00486D01*
X00531Y01604*
X00258Y01567D02*
Y01677D01*
Y01567D02*
X0028Y01545D01*
X00415*
X0043Y0156*
X00385Y01574D02*
X00389D01*
Y01575*
X00385Y01579D02*
X00389Y01575D01*
X00385Y0158D02*
X00385Y01579D01*
Y01574D02*
Y01579D01*
Y01615*
X0133Y01315D02*
X0141Y01395D01*
Y017*
X0144Y0165D02*
Y01796D01*
X0139Y0193D02*
X0142Y019D01*
X0133Y0193D02*
X0139D01*
X01032Y009D02*
X0104Y00892D01*
X01057Y00802D02*
X01132D01*
X00577Y01645D02*
X0058D01*
X00356Y0169D02*
X00532D01*
X00577Y01645*
X01585Y0052D02*
X01655Y0059D01*
X02055*
G54D34*
X01644Y0122D02*
X01787Y01076D01*
X01644Y0122D02*
X01645Y0122D01*
Y01335*
G54D35*
X0187Y00265D03*
X00145Y0087D03*
G54D36*
X0187Y00365D03*
Y00465D03*
X00145Y0077D03*
X008Y0022D03*
X009Y0012D03*
Y0022D03*
X01Y0012D03*
Y0022D03*
X011Y0012D03*
Y0022D03*
X012Y0012D03*
Y0022D03*
X013Y0012D03*
Y0022D03*
X014Y0012D03*
Y0022D03*
X015Y0012D03*
Y0022D03*
X016Y0012D03*
Y0022D03*
G54D37*
X02105Y0162D03*
X02205D03*
X02305D03*
X001D03*
X002D03*
X003D03*
G54D38*
X00291Y02215D03*
Y02329D03*
X00578D03*
Y02215D03*
G54D39*
X008Y0012D03*
G54D40*
X02045Y02175D03*
X02125D03*
G54D41*
X01465Y0232D03*
X01095Y02315D03*
X0073Y0232D03*
X0144Y02105D03*
X0105Y0197D03*
X00857Y01855D03*
X00725Y01995D03*
X0075Y0175D03*
X02305Y01445D03*
X0218Y01885D03*
X01935D03*
X01125Y0157D03*
X01175Y01535D03*
X0129D03*
X0134Y0091D03*
X01045Y009D03*
X014Y0081D03*
X0134Y00955D03*
X02115Y0174D03*
X02035Y01315D03*
X02105Y01805D03*
X00195Y01815D03*
X01585Y0069D03*
X01185Y01885D03*
X0045Y0124D03*
X0028Y01468D03*
X00295Y0138D03*
X01945Y00245D03*
X0201Y0031D03*
X01045Y00805D03*
X00835Y0079D03*
X0054Y0156D03*
X01986Y0112D03*
X0079Y01085D03*
X00745Y01245D03*
X0079Y01145D03*
X0061Y0132D03*
X0064Y0123D03*
X0059Y01112D03*
X00655Y0103D03*
X00625Y01075D03*
X0149Y00665D03*
X01207Y00642D03*
X01065Y00615D03*
X0044Y00915D03*
X0085Y0088D03*
X01249Y00978D03*
X00735Y0141D03*
X00295Y0133D03*
X00294Y0114D03*
X00761Y01473D03*
X01856Y00981D03*
Y01028D03*
X01903Y00981D03*
Y01028D03*
X02274Y00889D03*
X01969Y00894D03*
X02019Y00964D03*
X0184Y00805D03*
X01619Y01149D03*
X01373Y01222D03*
X01993Y00794D03*
X01747Y0071D03*
X01528Y01205D03*
X01586Y00858D03*
X02099Y01164D03*
X00208Y02154D03*
X00261Y00975D03*
X00994Y02092D03*
X00443Y0153D03*
X00695Y02032D03*
X00633Y02118D03*
X00591Y01975D03*
X01473Y01285D03*
X00637Y01709D03*
X0118Y00797D03*
X02102Y00295D03*
X00356Y0169D03*
X01687Y01446D03*
X00692Y00895D03*
X002Y0169D03*
X00245Y0212D03*
X00645Y01375D03*
X00905Y0124D03*
X00955Y01135D03*
X00595Y01445D03*
X006Y0149D03*
X007Y01475D03*
X00445Y0118D03*
X0087Y0105D03*
X0091Y01019D03*
X0059Y01795D03*
X0066Y01995D03*
X0074Y01075D03*
X0118Y00975D03*
X00895Y01435D03*
X008Y01628D03*
X00705Y00775D03*
X00616Y00853D03*
X0074Y0088D03*
X01495Y00535D03*
X0087Y0051D03*
X02235Y00515D03*
X02055Y0059D03*
X0138Y00551D03*
X02005Y0205D03*
X01695D03*
X0069Y0128D03*
X00495Y0084D03*
X00529Y0087D03*
X00945D03*
X00085Y01021D03*
X01029Y02029D03*
X0135Y0205D03*
X0176Y0193D03*
X0148Y00785D03*
X0133Y00715D03*
X0134Y00825D03*
X0107Y00685D03*
X0104Y00725D03*
X00935Y00695D03*
X0113Y0081D03*
X0072Y0056D03*
X02045Y0014D03*
X0044Y01397D03*
X0101Y0166D03*
X01565Y01285D03*
X0131Y01745D03*
X0071Y02115D03*
X002Y02215D03*
X0118Y01315D03*
X00425Y0099D03*
X00965Y01747D03*
X0108Y01695D03*
X01176Y0163D03*
X0098Y0135D03*
X0069Y0133D03*
X0052Y00915D03*
X0061Y0063D03*
X00574Y00532D03*
X00535Y0063D03*
X005Y00695D03*
X02085Y00365D03*
X0033Y0099D03*
X00315Y01958D03*
X00535Y01645D03*
X0049Y01615D03*
X00385Y0158D03*
X0144Y0165D03*
X0142Y019D03*
X0133Y0193D03*
X0058Y01645D03*
X01585Y0052D03*
G54D42*
X0011Y0011D03*
X0229D03*
X0011Y0229D03*
X0229D03*
M02*