%FSTAX23Y23*%
%MOIN*%
%SFA1B1*%

%IPPOS*%
%ADD10R,0.027560X0.035430*%
%ADD11R,0.035430X0.027560*%
%ADD13R,0.023620X0.019690*%
%ADD23R,0.031500X0.035430*%
%ADD24R,0.019690X0.023620*%
%ADD31C,0.010000*%
%ADD32C,0.025000*%
%ADD33C,0.008000*%
%ADD35R,0.059060X0.059060*%
%ADD36C,0.059060*%
%ADD37C,0.060000*%
%ADD38O,0.070870X0.086610*%
%ADD39R,0.059060X0.059060*%
%ADD40C,0.050000*%
%ADD41C,0.035000*%
%ADD42C,0.152000*%
%ADD43R,0.047240X0.055120*%
%ADD44R,0.017320X0.053940*%
%ADD45R,0.013780X0.066930*%
%LNirbeacon-1*%
%LPD*%
G36*
X00754Y01506D02*
X00751Y01497D01*
X00743Y01491*
X00737Y01483*
X00735Y01475*
X00735*
X00729*
X00725Y01479*
X00726Y01475*
X00725Y01473*
X00725*
X00731*
X00736Y01469*
X00737Y01463*
X00743Y01455*
X00751Y01449*
X00761Y01447*
X00771Y01449*
X00779Y01455*
X00785Y01463*
X00786Y01468*
X00881*
X00884Y01458*
X00876Y01453*
X0087Y01444*
X00869Y01435*
X0087Y01425*
X00873Y01421*
X00868Y01412*
X0076*
X00759Y01419*
X00753Y01428*
X00744Y01434*
X00735Y01436*
X00725Y01434*
X00716Y01428*
X0071Y01419*
X00709Y01414*
X007Y01411*
X00688Y01423*
X00684Y01426*
X0068Y01427*
X00623*
X00619Y01435*
X00621Y01445*
X00619Y01454*
X00613Y01463*
X00609Y01465*
X00609Y01465*
X00618Y01471*
X00624Y0148*
X00625Y01485*
X00574*
X00574Y0149*
X00574Y01494*
X00565Y01491*
X00531Y01525*
X00536Y01534*
X0054Y01534*
X00549Y01535*
X00558Y01541*
X00564Y0155*
X00566Y0156*
X00564Y01569*
X00558Y01578*
X00553Y01581*
Y01615*
X00552Y0162*
X00552Y0162*
X00552Y01622*
X00561Y01626*
X0057Y0162*
X0058Y01619*
X00589Y0162*
X00598Y01626*
X00602Y01632*
X00627*
X00754Y01506*
G37*
G36*
X01395Y01891D02*
X01395Y0189D01*
X01401Y01881*
X0141Y01875*
X0142Y01874*
X01427Y01875*
X01505Y01797*
Y01462*
X01276Y01233*
X01273Y01229*
X01272Y01225*
Y01003*
X0127Y01002*
X01261Y01007*
Y0129*
X0126Y01295*
X01258Y01299*
X01203Y01353*
X01199Y01356*
X01195Y01357*
X01031*
X01Y01388*
X00996Y0139*
X00992Y01391*
X00937*
X00933Y014*
X01022Y0149*
X01025Y01494*
X01026Y01498*
Y01511*
X0109Y01575*
X01099Y0157*
X01099Y0157*
X011Y0156*
X01106Y01551*
X01115Y01545*
X01125Y01544*
X01134Y01545*
X01143Y01551*
X01149Y0156*
X01151Y0157*
X01149Y01579*
X01143Y01588*
X01137Y01592*
Y01594*
X01154Y01612*
X01158Y01611*
X01166Y01605*
X01176Y01604*
X01186Y01605*
X01195Y01611*
X012Y0162*
X01202Y0163*
X01201Y01638*
X01209Y01642*
X01211Y01641*
X01213Y01639*
X01215Y01638*
X0122Y01637*
X01417*
X01421Y01631*
X0143Y01625*
X0144Y01624*
X01449Y01625*
X01458Y01631*
X01464Y0164*
X01466Y0165*
X01464Y01659*
X01458Y01668*
X01449Y01674*
X0144Y01676*
X0143Y01674*
X01421Y01668*
X01417Y01662*
X01225*
X01218Y01668*
X01214Y01671*
X0121Y01672*
X01177*
X01173Y01681*
X01386Y01893*
X01395Y01891*
G37*
G36*
X01173Y01908D02*
X01166Y01903D01*
X0116Y01894*
X01159Y01885*
X0116Y01875*
X01166Y01866*
X01173Y01861*
Y01743*
X01113Y01683*
X01104Y01688*
X01105Y0169*
X01079*
Y01694*
X01075*
Y0172*
X0107Y01719*
X01066Y01716*
X01057Y01721*
Y0188*
X01095Y01917*
X0117*
X01173Y01908*
G37*
G36*
X00273Y01708D02*
X00274Y01703D01*
X00276Y01699*
X00295Y01681*
X00299Y01678*
X00304Y01677*
X00333*
X00337Y01671*
X00346Y01665*
X00356Y01664*
X00365Y01665*
X00374Y01671*
X00375Y01673*
X00385Y01671*
Y0166*
X00405*
Y01655*
X0041*
Y01637*
X00432*
Y01615*
X00433Y01611*
X00436Y01607*
X00445Y01597*
X00441Y01588*
X00409*
X00409Y01589*
X00403Y01598*
X00394Y01604*
X00385Y01606*
X00375Y01604*
X00366Y01598*
X0036Y01589*
X00359Y0158*
X0036Y0157*
X00342Y01552*
X0017*
X00157Y01565*
Y01596*
X00166Y016*
X00172Y01592*
X0018Y01586*
X0019Y01582*
X00195Y01582*
Y0162*
X00199*
Y01625*
X00237*
X00237Y01625*
X00246Y01629*
X00262Y01613*
X00262Y0161*
X00266Y016*
X00272Y01592*
X0028Y01586*
X0029Y01582*
X003Y01581*
X00309Y01582*
X00319Y01586*
X00327Y01592*
X00333Y016*
X00337Y0161*
X00338Y0162*
X00337Y01629*
X00333Y01639*
X00327Y01647*
X00319Y01653*
X00309Y01657*
X003Y01658*
X0029Y01657*
X0028Y01653*
X00272Y01647*
X00267Y01646*
X00225Y01688*
X00226Y0169*
X00224Y01699*
X00218Y01708*
X00219Y0171*
X00273*
Y01708*
G37*
G36*
X00721Y01056D02*
X00726Y01053D01*
Y0105*
X00727Y01044*
X0073Y0104*
X00734Y01037*
X0074Y01036*
X00848*
X00851Y01031*
X0086Y01025*
X0087Y01024*
X00884Y01019*
X00885Y01009*
X00891Y01001*
X00897Y00997*
Y0081*
X00898Y00805*
X00901Y00801*
X01031Y00671*
X01035Y00668*
X0104Y00667*
X0105*
X01051Y00663*
X0105Y00657*
X01049Y00656*
X01044Y00655*
X0104Y00653*
X01016Y00628*
X0067*
X0063Y00668*
X00626Y0067*
X00622Y00671*
X0059*
X00508Y00753*
X00504Y00756*
X005Y00757*
X00505Y00762*
X00579*
X00584Y00763*
X00588Y00765*
X00659Y00837*
X00668Y00833*
Y00819*
X00716*
X00723*
X00742*
Y00845*
X00747*
Y0085*
X00771*
Y0087*
X00765Y00877*
X00765Y00875*
X00739*
Y00879*
X00735*
Y00905*
X0073Y00904*
X00725Y00901*
X00716Y00904*
X00716Y00904*
X0071Y00913*
X00702Y00919*
X00692Y00921*
X00682Y00919*
X00676Y00914*
X00667Y00919*
Y01007*
X00673Y01011*
X00679Y0102*
X00681Y0103*
X00679Y01039*
X00673Y01048*
X00667Y01052*
X0067Y01061*
X00718*
X00721Y01056*
G37*
G36*
X00072Y01592D02*
X0008Y01586D01*
X00087Y01583*
Y01576*
X00088Y01571*
X00091Y01567*
X00142Y01516*
X00142Y01515*
X00143Y01515*
X00147Y01512*
X00152Y01511*
X00353*
X00357Y01502*
X00322Y01468*
X0032Y01463*
X00319Y01458*
Y01405*
X00313*
X00307Y01402*
X00304Y01404*
X00295Y01406*
X00288Y01411*
X0029Y01413*
X00291Y01415*
X00292Y0142*
Y01445*
X00298Y01449*
X00304Y01458*
X00306Y01468*
X00304Y01477*
X00298Y01486*
X00289Y01492*
X0028Y01494*
X0027Y01492*
X00261Y01486*
X00255Y01477*
X00254Y01468*
X00255Y01458*
X00261Y01449*
X00267Y01445*
Y01425*
X00252Y01409*
X00249Y01405*
X00248Y01401*
Y00997*
X00242Y00993*
X00236Y00984*
X00235Y00975*
X00236Y00965*
X00242Y00956*
X00251Y0095*
X00261Y00949*
X0027Y0095*
X00279Y00956*
X00285Y00965*
X00287Y00975*
X00285Y00984*
X00279Y00993*
X00273Y00997*
Y01113*
X00282Y01118*
X00284Y01116*
X00294Y01114*
X00304Y01116*
X00313Y01121*
X00318Y0113*
X0032Y0114*
X00318Y0115*
X00313Y01158*
X00307Y01162*
Y01307*
X00313Y01311*
X00319Y0132*
X00321Y0133*
X00319Y01339*
X00313Y01348*
X00312Y01352*
X00313Y01354*
X00357*
Y01405*
X00345*
Y01453*
X00409Y01517*
X00421*
X00424Y01512*
X00429Y01508*
Y01421*
X00421Y01416*
X00415Y01407*
X00415Y01405*
X00372*
Y01354*
X00378*
X00382Y0135*
X00383Y01345*
X00385Y01341*
X00427Y01299*
Y01252*
X00425Y01249*
X00424Y0124*
X00425Y0123*
X00431Y01221*
X0044Y01215*
X00442Y01215*
Y01205*
X00435Y01204*
X00426Y01198*
X0042Y01189*
X00419Y0118*
X0042Y0117*
X00426Y01161*
X00435Y01155*
X00445Y01154*
X0045Y01155*
X00457Y01148*
Y01004*
X00448Y01001*
X00443Y01008*
X00434Y01014*
X0043Y01015*
Y00989*
Y00965*
X00434Y00965*
X00443Y00971*
X00448Y00978*
X00457Y00975*
Y00943*
X00449Y00939*
X0044Y00941*
X0043Y00939*
X00421Y00933*
X00414Y00932*
X00355Y00991*
X00354Y00999*
X00348Y01008*
X00339Y01014*
X0033Y01016*
X0032Y01014*
X00311Y01008*
X00305Y00999*
X00304Y0099*
X00305Y0098*
X00311Y00971*
X00317Y00967*
Y00815*
X00318Y0081*
X00321Y00806*
X00326Y00801*
X00324Y00796*
Y00752*
X00375*
X00378Y00753*
X00395Y00736*
X00394Y00733*
X0039Y00727*
X00375*
Y00737*
X00324*
Y00727*
X0032Y00726*
X00316Y00724*
X00309Y00717*
X00137*
X00131Y00723*
X00135Y00733*
X00145Y00732*
X00154Y00733*
X00163Y00737*
X00171Y00743*
X00177Y00751*
X00181Y0076*
X00182Y0077*
X00181Y00779*
X00177Y00788*
X00171Y00796*
X00163Y00802*
X00154Y00806*
X00145Y00807*
X00135Y00806*
X00126Y00802*
X00118Y00796*
X00112Y00788*
X00108Y00779*
X00107Y0077*
X00108Y0076*
X00098Y00756*
X00063Y00791*
Y00994*
X00072Y00999*
X00075Y00997*
X0008Y00996*
Y01021*
Y01046*
X00075Y01045*
X00072Y01043*
X00063Y01047*
Y01589*
X00072Y01593*
X00072Y01592*
G37*
G36*
X00574Y01406D02*
X00578Y01403D01*
X00583Y01402*
X0062*
X00626Y01393*
X0062Y01384*
X00619Y01375*
X0062Y01365*
X00626Y01356*
X00635Y0135*
X00645Y01349*
X00654Y0135*
X00663Y01356*
X00666Y01361*
X00676Y0136*
X00678Y01353*
X00671Y01348*
X00665Y01339*
X00664Y0133*
X00665Y0132*
X00671Y01311*
X00674Y01309*
Y01299*
X00672Y01298*
X00666Y01289*
X00665Y01285*
X00715*
X00714Y01289*
X00709Y01298*
X007Y01304*
X00699Y01305*
X00708Y01311*
Y01311*
X00714Y0132*
X00715Y01327*
X00919*
X01002Y01244*
Y0079*
X01003Y00785*
X01006Y00781*
X01027Y00759*
Y00747*
X01021Y00743*
X01015Y00734*
X01015Y00733*
X01006Y00731*
X00922Y00815*
Y00843*
X00931Y00848*
X00935Y00845*
X0094Y00845*
Y00869*
Y00895*
X00935Y00894*
X00931Y00891*
X00922Y00896*
Y00997*
X00928Y01001*
X00934Y01009*
X00936Y01019*
X00934Y01029*
X00928Y01037*
X00919Y01043*
X0091Y01045*
X009Y01043*
X00896Y0105*
X00894Y01059*
X00888Y01068*
X00879Y01074*
X0087Y01076*
X0086Y01074*
X00851Y01068*
X00848Y01063*
X00816*
X00812Y01072*
X00814Y01075*
X00815Y0108*
X00789*
Y01084*
X00785*
Y0111*
X0078Y01109*
X00771Y01103*
X00765Y01094*
X00765Y01094*
X00758Y01093*
X00758*
X00749Y01099*
X0074Y01101*
X0073Y01099*
X00721Y01093*
X00718Y01088*
X00646*
X00643Y01093*
X00634Y01099*
X00625Y01101*
X00622Y011*
X00615Y01107*
X00615Y01107*
X00595*
Y01087*
X00592Y01086*
X00599Y01079*
X00599Y01075*
X006Y01065*
X00606Y01056*
X00615Y0105*
X00625Y01049*
X00626Y01049*
X00631Y0104*
X0063Y01039*
X00629Y0103*
X0063Y0102*
X00636Y01011*
X00642Y01007*
Y00877*
X00633Y00872*
X00626Y00877*
X00621Y00878*
Y00853*
X00616*
Y00848*
X00591*
X00592Y00843*
X00598Y00835*
X00606Y00829*
X00607Y00819*
X00574Y00786*
X0046*
Y00796*
X00409*
Y00771*
X004Y00767*
X00384Y00783*
X0038Y00785*
X00375Y00786*
Y00796*
X00361*
X00361Y00796*
X00361Y00799*
X00358Y00803*
X00342Y0082*
Y00957*
X00351Y00961*
X00406Y00906*
X00408Y00904*
X0041Y00903*
X00415Y00902*
X00417*
X00421Y00896*
X0043Y0089*
X0044Y00889*
X00449Y0089*
X00457Y00886*
Y00884*
X00458Y00879*
X00461Y00875*
X00476Y00859*
X00476Y00858*
X0047Y00849*
X00469Y0084*
X0047Y0083*
X00476Y00821*
X00485Y00815*
X00495Y00814*
X00504Y00815*
X00513Y00821*
X00519Y0083*
X00521Y0084*
X00525Y00844*
X00529Y00844*
X00539Y00845*
X00547Y00851*
X00553Y0086*
X00555Y0087*
X00553Y00879*
X00547Y00888*
X00539Y00894*
X00538Y00894*
X00538Y00896*
X00544Y00905*
X00546Y00915*
X00544Y00922*
X00568Y00946*
X00571Y0095*
X00572Y00955*
Y01084*
X0058Y01088*
X00585Y01087*
Y01112*
X00589*
Y01117*
X00615*
X00614Y01122*
X00608Y0113*
X00599Y01136*
X00597Y01144*
X00635Y01182*
X00715*
X00719Y01183*
X00723Y01186*
X00753Y01216*
X00756Y0122*
X00756Y01222*
X00763Y01226*
X00769Y01235*
X00771Y01245*
X00769Y01254*
X00763Y01263*
X00754Y01269*
X00745Y01271*
X00735Y01269*
X00726Y01263*
X0072Y01254*
X00719Y01245*
X0072Y01235*
X00726Y01226*
X00726Y01224*
X00709Y01207*
X00666*
X00661Y01216*
X00664Y0122*
X00666Y0123*
X00664Y01239*
X00658Y01248*
X00649Y01254*
X0064Y01256*
X00634Y01255*
X00627Y01261*
Y013*
X00628Y01301*
X00634Y0131*
X00636Y0132*
X00634Y01329*
X00628Y01338*
X00619Y01344*
X0061Y01346*
X006Y01344*
X00591Y01338*
X00585Y01329*
X00584Y0132*
X00585Y0131*
X00591Y01301*
X006Y01295*
X00602Y01295*
Y01255*
X00603Y0125*
X00606Y01246*
X00615Y01237*
X00614Y0123*
X00615Y0122*
X00621Y01211*
X00626Y01208*
X00622Y01203*
X00551Y01133*
X00549Y01129*
X00548Y01124*
Y01122*
X00547Y0112*
Y0096*
X00527Y00939*
X0052Y00941*
X0051Y00939*
X00507Y00937*
X00498Y00941*
Y01244*
X00497Y01248*
X00494Y01252*
X0049Y01256*
X0049Y01256*
X00488Y0126*
X00487Y01261*
Y0148*
X00496Y01484*
X00574Y01406*
G37*
G36*
X02252Y02365D02*
X02243Y0236D01*
X0223Y02349*
X02219Y02336*
X02212Y02322*
X02207Y02306*
X02205Y0229*
X02207Y02273*
X02212Y02257*
X02219Y02243*
X0223Y0223*
X02243Y02219*
X02257Y02212*
X02273Y02207*
X0229Y02205*
X02306Y02207*
X02322Y02212*
X02336Y02219*
X02349Y0223*
X0236Y02243*
X02365Y02252*
X02375Y0225*
Y00149*
X02365Y00147*
X0236Y00156*
X02349Y00169*
X02336Y0018*
X02322Y00187*
X02306Y00192*
X0229Y00194*
X02273Y00192*
X02257Y00187*
X02243Y0018*
X0223Y00169*
X02219Y00156*
X02212Y00142*
X02207Y00126*
X02205Y0011*
X02207Y00093*
X02212Y00077*
X02219Y00063*
X0223Y0005*
X02243Y00039*
X02252Y00034*
X0225Y00025*
X00149*
X00147Y00034*
X00156Y00039*
X00169Y0005*
X0018Y00063*
X00187Y00077*
X00192Y00093*
X00194Y0011*
X00192Y00126*
X00187Y00142*
X0018Y00156*
X00169Y00169*
X00156Y0018*
X00142Y00187*
X00126Y00192*
X0011Y00194*
X00093Y00192*
X00077Y00187*
X00063Y0018*
X0005Y00169*
X00039Y00156*
X00034Y00147*
X00025Y00149*
Y00759*
X00034Y00763*
X00121Y00676*
X00125Y00673*
X0013Y00672*
X00409*
X00506Y00575*
X0051Y00573*
X00515Y00572*
X00688*
X00694Y00564*
X00694Y0056*
X00695Y0055*
X00701Y00541*
X0071Y00535*
X0072Y00534*
X00729Y00535*
X00738Y00541*
X00744Y0055*
X00746Y0056*
X00744Y00569*
X00738Y00578*
X00729Y00584*
X0072Y00586*
X00722Y00588*
X01029*
X0104Y00576*
X01044Y00574*
X01049Y00573*
X01077*
X01081Y00574*
X01085Y00576*
X01093Y00584*
X01233*
X01238Y00585*
X01246Y00572*
Y00561*
X01247Y00556*
X0125Y00552*
X01274Y00528*
X0127Y00519*
X0111*
Y00477*
X01105*
Y00472*
X0109*
Y00436*
X01083Y00429*
X00912*
X00907Y00428*
X00903Y00425*
X00849Y00371*
X00835*
Y00381*
X00784*
Y00337*
X00835*
Y00347*
X00854*
X00859Y00348*
X00863Y0035*
X00875Y00362*
X00884Y00358*
Y00337*
X00935*
Y00347*
X00944*
X00949Y00348*
X00953Y0035*
X00975Y00372*
X00984Y00368*
Y00337*
X01035*
Y00347*
X01049*
X01054Y00348*
X01058Y0035*
X01075Y00367*
X01084Y00363*
Y00337*
X01135*
Y00347*
X01144*
X01149Y00348*
X01153Y0035*
X01175Y00372*
X01184Y00368*
Y00337*
X01235*
Y00381*
X01231*
X01227Y0039*
X01242Y00404*
X01244Y00408*
X01245Y00413*
Y00424*
X01254Y00427*
X01292Y0039*
X01288Y00381*
X01284*
Y00337*
X01335*
Y00381*
X01322*
Y0039*
X01321Y00394*
X01318Y00398*
X01313Y00403*
X01317Y00412*
X01349*
X01384Y00378*
Y00337*
X01435*
Y00353*
X01444Y00357*
X01451Y0035*
X01455Y00348*
X0146Y00347*
X01484*
Y00337*
X01535*
Y00381*
X01484*
Y00371*
X01465*
X01271Y00566*
Y0066*
X01299*
Y00691*
X01318*
X0132Y0069*
X0133Y00689*
X01339Y0069*
X01348Y00696*
X01354Y00705*
X01356Y00715*
X01354Y00724*
X01348Y00733*
X01349Y00736*
X01446*
X01484Y00698*
X01481Y00689*
X0148Y00689*
X01471Y00683*
X01465Y00674*
X01464Y00665*
X01465Y00655*
X01471Y00646*
X0148Y0064*
X0149Y00639*
X01497Y0064*
X01583Y00554*
X01581Y00548*
X01571Y00545*
X01543Y00573*
X01539Y00576*
X01535Y00577*
X01483*
X01478Y00576*
X01474Y00573*
X01464Y00563*
X01402*
X01398Y00569*
X01389Y00575*
X0138Y00577*
X0137Y00575*
X01361Y00569*
X01355Y00561*
X01354Y00551*
X01355Y00541*
X01361Y00532*
X0137Y00527*
X0138Y00525*
X01389Y00527*
X01398Y00532*
X01402Y00539*
X01448*
X01469Y00535*
X01469Y00539*
X01473Y00539*
X01474Y00539*
X01474Y0054*
X0152*
X01519Y00544*
X01521Y00549*
X01531Y00551*
X01559Y00523*
X01559Y0052*
X0156Y0051*
X01566Y00501*
X01575Y00495*
X01585Y00494*
X01594Y00495*
X01603Y00501*
X01609Y0051*
X0161Y00515*
X01619Y00518*
X01833Y00304*
X01832Y00302*
Y00227*
X01907*
Y00302*
X01869*
X0185Y00321*
X01855Y0033*
X0186Y00328*
X0187Y00327*
X01879Y00328*
X01888Y00332*
X01896Y00338*
X01902Y00346*
X01906Y00355*
X01907Y00365*
X01906Y00374*
X01902Y00383*
X01896Y00391*
X01888Y00397*
X01879Y00401*
X0187Y00402*
X0186Y00401*
X01851Y00397*
X01843Y00391*
X01837Y00383*
X01833Y00374*
X01832Y00365*
X01833Y00355*
X01835Y0035*
X01826Y00345*
X01668Y00503*
X01673Y00512*
X01676Y00511*
X01861*
X01861Y00501*
X0186Y00501*
X01851Y00497*
X01843Y00491*
X01837Y00483*
X01833Y00474*
X01832Y00465*
X01833Y00455*
X01837Y00446*
X01843Y00438*
X01851Y00432*
X0186Y00428*
X0187Y00427*
X01879Y00428*
X01888Y00432*
X01896Y00438*
X01902Y00446*
X01906Y00455*
X01906Y00457*
X01916Y00461*
X02023Y00353*
X02027Y00351*
X02028Y0035*
X02077Y00302*
X02076Y00295*
X02077Y00285*
X02083Y00276*
X02092Y0027*
X021Y00269*
X02103Y00259*
X01929Y00086*
X01632*
X01628Y00095*
X01632Y00101*
X01636Y0011*
X01637Y0012*
X01636Y00129*
X01632Y00138*
X01626Y00146*
X01618Y00152*
X01609Y00156*
X016Y00157*
X0159Y00156*
X01581Y00152*
X01573Y00146*
X01568Y0014*
X01531*
X01526Y00146*
X01518Y00152*
X01509Y00156*
X015Y00157*
X0149Y00156*
X01481Y00152*
X01473Y00146*
X01468Y0014*
X01431*
X01426Y00146*
X01418Y00152*
X01409Y00156*
X014Y00157*
X0139Y00156*
X01381Y00152*
X01373Y00146*
X01368Y0014*
X01331*
X01326Y00146*
X01318Y00152*
X01309Y00156*
X013Y00157*
X0129Y00156*
X01281Y00152*
X01273Y00146*
X01268Y0014*
X01231*
X01226Y00146*
X01218Y00152*
X01209Y00156*
X012Y00157*
X0119Y00156*
X01181Y00152*
X01173Y00146*
X01168Y0014*
X01131*
X01126Y00146*
X01118Y00152*
X01109Y00156*
X011Y00157*
X0109Y00156*
X01081Y00152*
X01073Y00146*
X01068Y0014*
X01031*
X01026Y00146*
X01018Y00152*
X01009Y00156*
X01Y00157*
X0099Y00156*
X00981Y00152*
X00973Y00146*
X00968Y0014*
X00931*
X00926Y00146*
X00918Y00152*
X00909Y00156*
X009Y00157*
X0089Y00156*
X00881Y00152*
X00873Y00146*
X00868Y0014*
X00837*
Y00157*
X00762*
Y00086*
X00693*
X00586Y00192*
Y0051*
X00592Y00514*
X00598Y00522*
X006Y00532*
X00598Y00542*
X00592Y00551*
X00584Y00556*
X00574Y00558*
X00564Y00556*
X00555Y00551*
X0055Y00542*
X00548Y00532*
X0055Y00522*
X00555Y00514*
X00562Y0051*
Y00187*
X00562Y00183*
X00565Y00179*
X00679Y00065*
X00683Y00062*
X00688Y00061*
X01934*
X01939Y00062*
X01943Y00065*
X02011Y00133*
X0202Y0013*
X0202Y0013*
X02026Y00121*
X02035Y00115*
X0204Y00115*
Y00139*
Y00162*
X02043Y00165*
X02045Y00166*
X02044Y00166*
X02169Y00291*
X02172Y00295*
X02173Y003*
Y00313*
X02172Y00318*
X02169Y00322*
X02126Y00365*
Y00377*
X02125Y00381*
X02123Y00385*
X02105Y00403*
X02101Y00405*
X02097Y00406*
X0205*
X01888Y00568*
X01884Y00571*
X0188Y00572*
X01765*
X01387Y00949*
Y00964*
X01386Y00969*
X01384Y00973*
X01329Y01028*
Y01206*
X01339Y01216*
X01348Y01213*
X01349Y01212*
X01354Y01203*
X01363Y01198*
X01368Y01197*
Y01222*
Y01245*
X0137Y01247*
X01373Y01248*
X01372Y01249*
X01556Y01433*
X01664*
X01668Y01427*
X01677Y01421*
X01687Y0142*
X01696Y01421*
X01705Y01427*
X01711Y01436*
X01713Y01446*
X01711Y01455*
X01705Y01464*
X01696Y0147*
X01687Y01472*
X01677Y0147*
X01668Y01464*
X01664Y01458*
X01571*
X01567Y01467*
X01707Y01607*
X02068*
X02071Y016*
X02077Y01592*
X02085Y01586*
X02095Y01582*
X02105Y01581*
X02114Y01582*
X02124Y01586*
X02132Y01592*
X02138Y016*
X02142Y0161*
X02143Y0162*
X02142Y01629*
X02138Y01639*
X02132Y01647*
X02124Y01653*
X02114Y01657*
X02105Y01658*
X02095Y01657*
X02085Y01653*
X02077Y01647*
X02071Y01639*
X02068Y01632*
X01702*
X01697Y01631*
X01693Y01628*
X01538Y01473*
X01529Y01477*
Y01802*
X01528Y01807*
X01526Y01811*
X01444Y01892*
X01446Y019*
X01444Y01909*
X01438Y01918*
X01429Y01924*
X0142Y01926*
X01419Y01927*
X01477Y01985*
X01478Y01986*
X01478Y01986*
X01484Y01992*
X01609*
X01613Y01992*
X01617Y01995*
X01624Y02001*
X01626Y02005*
X01627Y0201*
Y02024*
X01637*
Y02037*
X01672*
X01676Y02031*
X01685Y02025*
X01695Y02024*
X01704Y02025*
X01713Y02031*
X01719Y0204*
X01721Y0205*
X01719Y02059*
X01713Y02068*
X01704Y02074*
X01695Y02076*
X017Y02081*
X01954*
X0198Y02056*
X01979Y0205*
X0198Y0204*
X01986Y02031*
X01995Y02025*
X02005Y02024*
X02014Y02025*
X02023Y02031*
X02029Y0204*
X02031Y0205*
X02029Y02059*
X02023Y02068*
X02014Y02074*
X02005Y02076*
X01998Y02074*
X01969Y02104*
X01965Y02107*
X0196Y02108*
X01555*
X01549Y02107*
X01545Y02104*
X01542Y021*
X01541Y02095*
Y02075*
X01534*
Y0205*
X014*
X01395Y02049*
X01391Y02046*
X01383Y02038*
X01374Y02043*
X01375Y02045*
X01349*
Y02049*
X01345*
Y02075*
X0134Y02074*
X01331Y02068*
X01326Y0206*
X01316Y02063*
Y02092*
X01417*
X01421Y02086*
X0143Y0208*
X0144Y02079*
X01449Y0208*
X01458Y02086*
X01464Y02095*
X01466Y02105*
X01464Y02114*
X01458Y02123*
X01449Y02129*
X0144Y02131*
X0143Y02129*
X01421Y02123*
X01417Y02117*
X01304*
X01299Y02116*
X01295Y02113*
X01293Y02109*
X01292Y02105*
Y02062*
X01271*
Y02075*
X01227*
Y02044*
X0122Y02041*
X01212Y02047*
Y02075*
X01203*
Y02095*
X01202Y021*
X01201Y02102*
X01199Y02104*
X01164Y02139*
X0116Y02142*
X01155Y02143*
X00875*
X0087Y02142*
X00866Y02139*
X00816Y02088*
X00813Y02084*
X00812Y02079*
Y02075*
X00803*
Y02063*
X00803*
X00797Y02062*
X00793Y02059*
X00779Y02045*
X00716*
X00713Y0205*
X00704Y02056*
X00695Y02058*
X00685Y02056*
X00676Y0205*
X0067Y02041*
X00669Y02032*
X00669Y02027*
X00662Y0202*
X0066Y02021*
X0065Y02019*
X00643Y02014*
X00594Y02062*
X0059Y02065*
X00586Y02066*
X00508*
Y02082*
X00509*
X00514Y02083*
X00518Y02086*
X00537Y02105*
X0061*
X00614Y02099*
X00623Y02093*
X00633Y02092*
X00642Y02093*
X00651Y02099*
X00657Y02108*
X00659Y02118*
X00657Y02127*
X00651Y02136*
X00651Y02137*
X00683*
X00685Y02134*
X00687Y02126*
X00685Y02124*
X00684Y0212*
X00705*
Y0214*
X00706Y0214*
X00701Y02149*
X0081Y02257*
X02099*
X02144Y02213*
X02138Y02204*
X02133Y02207*
X0213Y02207*
Y0218*
X02157*
X02157Y02183*
X02154Y02188*
X02163Y02194*
X02272Y02084*
Y01915*
X02122Y01764*
X02115Y01766*
X02105Y01764*
X02096Y01758*
X0209Y01749*
X02089Y0174*
X0209Y0173*
X02096Y01721*
X02105Y01715*
X02115Y01714*
X02124Y01715*
X02133Y01721*
X02139Y0173*
X02141Y0174*
X02139Y01747*
X02293Y01901*
X02296Y01905*
X02297Y0191*
Y0209*
X02296Y02094*
X02293Y02098*
X02113Y02278*
X02109Y02281*
X02105Y02282*
X01109*
X01106Y02291*
X01113Y02296*
X01119Y02305*
X0112Y0231*
X0107*
X0107Y02305*
X01076Y02296*
X01083Y02291*
X0108Y02282*
X00805*
X008Y02281*
X00796Y02278*
X00679Y02162*
X00607*
X00603Y02171*
X00609Y02176*
X00616Y02185*
X00621Y02195*
X00622Y02207*
Y0221*
X00534*
Y02207*
X00536Y02195*
X0054Y02185*
X00547Y02176*
X00553Y02171*
X0055Y02162*
X00413*
X00408Y02161*
X00404Y02158*
X00402Y02154*
X00401Y0215*
Y0213*
X00381*
Y02097*
X00322*
Y02104*
Y02119*
X00287*
Y02104*
Y02065*
X00322*
X00324Y02063*
Y02049*
X0029*
Y02014*
Y01979*
X00288*
X00292Y0197*
X0029Y01967*
X00289Y01958*
X0029Y01948*
X00296Y01939*
X00305Y01933*
X00315Y01932*
X00324Y01933*
X00333Y01939*
X00339Y01948*
X00341Y01958*
X00339Y01967*
X00333Y01976*
X00334Y01979*
X00357*
Y02014*
X00367*
Y01979*
X00401*
Y01966*
X00402Y01961*
X00404Y01957*
X00428Y01934*
X00432Y01931*
X00437Y0193*
X00725*
X00729Y01931*
X00733Y01934*
X00736Y01938*
X00737Y01943*
Y01972*
X00743Y01976*
X00749Y01985*
X00751Y01995*
X00749Y02004*
X00743Y02013*
X00745Y02018*
X00785*
X0079Y02019*
X00794Y02022*
X00798Y02026*
X00803Y02024*
X00847*
Y02075*
X00845Y0208*
X00863Y02098*
X00872Y02093*
X00871Y02089*
Y02075*
X00862*
Y02024*
X00906*
Y02075*
X00909Y02078*
X00972*
X00975Y02073*
X00984Y02067*
X00994Y02066*
X01003Y02067*
X01012Y02073*
X01018Y02082*
X0102Y02092*
X01018Y02101*
X01012Y0211*
X01003Y02116*
X01004Y02116*
X01149*
X01176Y02089*
Y02075*
X01168*
Y02024*
X01197*
X01221Y02*
X01225Y01997*
X0123Y01996*
X01373*
X01378Y01997*
X01382Y02*
X01406Y02024*
X0147*
X01472Y02014*
X0147Y02012*
X01461Y02003*
X01461Y02003*
X0146Y02002*
X01207Y01749*
X01198Y01753*
Y01863*
X01203Y01866*
X01209Y01875*
X01211Y01885*
X01209Y01894*
X01203Y01903*
X01194Y01909*
X01185Y01911*
X01191Y01917*
X01307*
X01311Y01911*
X0132Y01905*
X0133Y01904*
X01339Y01905*
X01348Y01911*
X01354Y0192*
X01356Y0193*
X01354Y01939*
X01348Y01948*
X01339Y01954*
X0133Y01956*
X0132Y01954*
X01311Y01948*
X01307Y01942*
X0109*
X01085Y01941*
X01081Y01938*
X01036Y01894*
X01034Y0189*
X01033Y01885*
Y01685*
X01024Y01681*
X01019Y01684*
X01015Y01685*
Y01659*
Y01634*
X0101Y01634*
X01015Y01625*
X0094Y0155*
X00937Y01546*
X00936Y01541*
Y01529*
X00919Y01512*
X00783*
X00641Y01653*
X00637Y01656*
X00633Y01657*
X00602*
X00598Y01663*
X00589Y01669*
X0058Y01671*
X0057Y01669*
X00561Y01663*
X00553*
X00544Y01669*
X00535Y01671*
X00536Y01672*
X0054*
X00544Y01673*
X00548Y01676*
X00603Y01731*
X00606Y01735*
X00607Y0174*
Y01775*
X00608Y01776*
X00614Y01785*
X00616Y01795*
X00614Y01804*
X00608Y01813*
X00599Y01819*
X0059Y01821*
X00586Y0182*
X00493Y01913*
X00489Y01916*
X00485Y01917*
X00287*
X00272Y01933*
Y01979*
X0028*
Y02014*
Y02049*
X00246*
Y02089*
X00252Y02095*
X00254Y02095*
X00263Y02101*
X00269Y0211*
X00271Y0212*
X00269Y02129*
X00263Y02138*
X00254Y02144*
X00245Y02146*
X00241Y02145*
X00234Y02152*
X00234Y02154*
X00232Y02163*
X00227Y02172*
X00218Y02178*
X00208Y0218*
X00198Y02178*
X0019Y02172*
X00184Y02163*
X00182Y02154*
X00184Y02144*
X0019Y02135*
X00196Y02131*
Y02049*
X00192*
Y01979*
X00247*
Y01928*
X00248Y01923*
X00251Y01919*
X00274Y01896*
X00278Y01893*
X00282Y01892*
X00479*
X00566Y01806*
X00565Y01804*
X00564Y01795*
X00565Y01785*
X00565Y01785*
X00557*
X00553Y01787*
X00552Y01789*
X00549Y01793*
X00489Y01853*
X00486Y01856*
X00481Y01857*
X0018*
X00175Y01856*
X00171Y01853*
X00034Y01716*
X00025Y0172*
Y0225*
X00034Y02252*
X00039Y02243*
X0005Y0223*
X00063Y02219*
X00077Y02212*
X00093Y02207*
X0011Y02205*
X00126Y02207*
X00142Y02212*
X00156Y02219*
X00167Y02228*
X00175Y02222*
X00175Y0222*
X00195*
Y0224*
X0019Y02239*
X00188Y02237*
X00181Y02244*
X00187Y02257*
X00192Y02273*
X00194Y0229*
X00192Y02306*
X00187Y02322*
X0018Y02336*
X00169Y02349*
X00156Y0236*
X00147Y02365*
X00149Y02375*
X00254*
X00258Y02366*
X00253Y02358*
X00248Y02348*
X00247Y02337*
Y02334*
X00335*
Y02337*
X00333Y02348*
X00329Y02358*
X00322Y02368*
X00313Y02374*
X00313Y02375*
X00363*
Y02307*
X00364Y02303*
X00366Y02301*
X00368Y02299*
X00372Y02298*
X00508*
X00511Y02299*
X00513Y02301*
X00515Y02303*
X00516Y02307*
Y02375*
X00541*
X00546Y02366*
X0054Y02358*
X00536Y02348*
X00534Y02337*
Y02334*
X00622*
Y02337*
X00621Y02348*
X00616Y02358*
X00609Y02368*
X006Y02374*
X006Y02375*
X0225*
X02252Y02365*
G37*
%LNirbeacon-2*%
%LPC*%
G36*
X01964Y00889D02*
X01944D01*
X01945Y00884*
X01951Y00876*
X01959Y0087*
X01964Y00869*
Y00889*
G37*
G36*
X01994D02*
X01974D01*
Y00869*
X01979Y0087*
X01988Y00876*
X01993Y00884*
X01994Y00889*
G37*
G36*
X02299Y00884D02*
X02279D01*
Y00864*
X02284Y00865*
X02292Y00871*
X02298Y00879*
X02299Y00884*
G37*
G36*
X01591Y00883D02*
Y00863D01*
X01611*
X0161Y00868*
X01604Y00876*
X01596Y00882*
X01591Y00883*
G37*
G36*
X02269Y00884D02*
X02249D01*
X0225Y00879*
X02255Y00871*
X02264Y00865*
X02269Y00864*
Y00884*
G37*
G36*
X0014Y00907D02*
X00107D01*
Y00875*
X0014*
Y00907*
G37*
G36*
X00845Y00905D02*
X0084Y00904D01*
X00831Y00898*
X00825Y00889*
X00824Y00885*
X00845*
Y00905*
G37*
G36*
X00855D02*
Y00885D01*
X00875*
X00874Y00889*
X00868Y00898*
X00859Y00904*
X00855Y00905*
G37*
G36*
X00745D02*
Y00885D01*
X00765*
X00764Y00889*
X00758Y00898*
X00749Y00904*
X00745Y00905*
G37*
G36*
X00182Y00907D02*
X0015D01*
Y00875*
X00182*
Y00907*
G37*
G36*
X0095Y00895D02*
Y00875D01*
X0097*
X00969Y00879*
X00963Y00888*
X00954Y00894*
X0095Y00895*
G37*
G36*
X00182Y00865D02*
X0015D01*
Y00832*
X00182*
Y00865*
G37*
G36*
X01581Y00853D02*
X01561D01*
X01562Y00848*
X01567Y00839*
X01576Y00834*
X01581Y00833*
Y00853*
G37*
G36*
X0014Y00865D02*
X00107D01*
Y00832*
X0014*
Y00865*
G37*
G36*
X01845Y0083D02*
Y0081D01*
X01865*
X01864Y00815*
X01858Y00824*
X0185Y00829*
X01845Y0083*
G37*
G36*
X00771Y0084D02*
X00752D01*
Y00819*
X00771*
Y0084*
G37*
G36*
X01611Y00853D02*
X01591D01*
Y00833*
X01596Y00834*
X01604Y00839*
X0161Y00848*
X01611Y00853*
G37*
G36*
X00611Y00878D02*
X00606Y00877D01*
X00598Y00871*
X00592Y00863*
X00591Y00858*
X00611*
Y00878*
G37*
G36*
X01581Y00883D02*
X01576Y00882D01*
X01567Y00876*
X01562Y00868*
X01561Y00863*
X01581*
Y00883*
G37*
G36*
X00875Y00875D02*
X00855D01*
Y00855*
X00859Y00855*
X00868Y00861*
X00874Y0087*
X00875Y00875*
G37*
G36*
X0097Y00865D02*
X0095D01*
Y00845*
X00954Y00845*
X00963Y00851*
X00969Y0086*
X0097Y00865*
G37*
G36*
X00845Y00875D02*
X00824D01*
X00825Y0087*
X00831Y00861*
X0084Y00855*
X00845Y00855*
Y00875*
G37*
G36*
X00795Y0111D02*
Y0109D01*
X00815*
X00814Y01094*
X00808Y01103*
X00799Y01109*
X00795Y0111*
G37*
G36*
X01981Y01115D02*
X01961D01*
X01962Y0111*
X01968Y01102*
X01976Y01096*
X01981Y01095*
Y01115*
G37*
G36*
X01898Y01053D02*
X01893Y01052D01*
X01885Y01046*
X01884Y01046*
X01874*
X01874Y01046*
X01866Y01052*
X01861Y01053*
Y01028*
X01856*
Y01023*
X01831*
X01832Y01018*
X01837Y01009*
X01838Y01009*
Y00999*
X01837Y00999*
X01832Y00991*
X01831Y00986*
X01856*
Y00981*
X01861*
Y00956*
X01866Y00957*
X01874Y00962*
X01874Y00963*
X01884*
X01885Y00962*
X01893Y00957*
X01898Y00956*
Y00981*
X01903*
Y00986*
X01928*
X01927Y00991*
X01921Y00999*
X01921Y00999*
Y01009*
X01921Y01009*
X01927Y01018*
X01928Y01023*
X01903*
Y01028*
X01898*
Y01053*
G37*
G36*
X01851D02*
X01846Y01052D01*
X01837Y01046*
X01832Y01038*
X01831Y01033*
X01851*
Y01053*
G37*
G36*
X01908D02*
Y01033D01*
X01928*
X01927Y01038*
X01921Y01046*
X01913Y01052*
X01908Y01053*
G37*
G36*
X02011Y01115D02*
X01991D01*
Y01095*
X01996Y01096*
X02005Y01102*
X0201Y0111*
X02011Y01115*
G37*
G36*
X01981Y01145D02*
X01976Y01144D01*
X01968Y01139*
X01962Y0113*
X01961Y01125*
X01981*
Y01145*
G37*
G36*
X01991D02*
Y01125D01*
X02011*
X0201Y0113*
X02005Y01139*
X01996Y01144*
X01991Y01145*
G37*
G36*
X00815Y0114D02*
X00795D01*
Y01119*
X00799Y0112*
X00808Y01126*
X00814Y01135*
X00815Y0114*
G37*
G36*
X00905Y01266D02*
X00895Y01264D01*
X00886Y01258*
X0088Y01249*
X00879Y0124*
X0088Y0123*
X00886Y01221*
X00895Y01215*
X00905Y01214*
X00911Y01215*
X00941Y01184*
Y01156*
X00936Y01153*
X0093Y01144*
X00929Y01135*
X0093Y01125*
X00936Y01116*
X00945Y0111*
X00955Y01109*
X00964Y0111*
X00973Y01116*
X00979Y01125*
X00981Y01135*
X00979Y01144*
X00973Y01153*
X00968Y01156*
Y0119*
X00967Y01195*
X00966Y01196*
X00964Y01199*
X00929Y01233*
X00931Y0124*
X00929Y01249*
X00923Y01258*
X00914Y01264*
X00905Y01266*
G37*
G36*
X00785Y0114D02*
X00764D01*
X00765Y01135*
X00771Y01126*
X0078Y0112*
X00785Y01119*
Y0114*
G37*
G36*
X0009Y01046D02*
Y01026D01*
X0011*
X00109Y01031*
X00103Y01039*
X00094Y01045*
X0009Y01046*
G37*
G36*
X01974Y00919D02*
Y00899D01*
X01994*
X01993Y00904*
X01988Y00913*
X01979Y00918*
X01974Y00919*
G37*
G36*
X01851Y00976D02*
X01831D01*
X01832Y00971*
X01837Y00962*
X01846Y00957*
X01851Y00956*
Y00976*
G37*
G36*
X01964Y00919D02*
X01959Y00918D01*
X01951Y00913*
X01945Y00904*
X01944Y00899*
X01964*
Y00919*
G37*
G36*
X02269Y00914D02*
X02264Y00913D01*
X02255Y00908*
X0225Y00899*
X02249Y00894*
X02269*
Y00914*
G37*
G36*
X02279D02*
Y00894D01*
X02299*
X02298Y00899*
X02292Y00908*
X02284Y00913*
X02279Y00914*
G37*
G36*
X01928Y00976D02*
X01908D01*
Y00956*
X01913Y00957*
X01921Y00962*
X01927Y00971*
X01928Y00976*
G37*
G36*
X0011Y01016D02*
X0009D01*
Y00996*
X00094Y00997*
X00103Y01002*
X00109Y01011*
X0011Y01016*
G37*
G36*
X0147Y02345D02*
Y02325D01*
X0149*
X01489Y02329*
X01483Y02338*
X01474Y02344*
X0147Y02345*
G37*
G36*
X0042Y01015D02*
X00415Y01014D01*
X00406Y01008*
X004Y00999*
X00399Y00995*
X0042*
Y01015*
G37*
G36*
Y00985D02*
X00399D01*
X004Y0098*
X00406Y00971*
X00415Y00965*
X0042Y00965*
Y00985*
G37*
G36*
X02083Y01202D02*
D01*
X01652*
X01644Y012*
X01637Y01196*
X01616Y01174*
X01609Y01173*
X01601Y01168*
X01595Y01159*
X01593Y01149*
X01595Y01139*
X01601Y01131*
X01609Y01125*
X01619Y01123*
X01629Y01125*
X01638Y01131*
X01643Y01139*
X01644Y01144*
X01661Y0116*
X02074*
X02075Y01154*
X02078Y0115*
Y01013*
X02051Y00985*
X02034*
X02029Y00988*
X02019Y0099*
X02009Y00988*
X02001Y00983*
X01995Y00974*
X01993Y00964*
X01995Y00954*
X02001Y00946*
X02009Y0094*
X02019Y00938*
X02029Y0094*
X02034Y00943*
X02059*
X02067Y00945*
X02074Y00949*
X02114Y00989*
X02117Y00993*
X02119Y00996*
X0212Y01004*
Y0115*
X02123Y01154*
X02125Y01164*
X02123Y01174*
X02118Y01183*
X02109Y01188*
X02105Y01189*
X02098Y01196*
X02091Y012*
X02083Y01202*
G37*
G36*
X0194Y0027D02*
X01935Y00269D01*
X01926Y00263*
X0192Y00254*
X01919Y0025*
X0194*
Y0027*
G37*
G36*
X0195D02*
Y0025D01*
X0197*
X01969Y00254*
X01963Y00263*
X01954Y00269*
X0195Y0027*
G37*
G36*
X01605Y00257D02*
Y00225D01*
X01637*
X01636Y00229*
X01632Y00238*
X01626Y00246*
X01618Y00252*
X01609Y00256*
X01605Y00257*
G37*
G36*
X0197Y0024D02*
X0195D01*
Y0022*
X01954Y0022*
X01963Y00226*
X01969Y00235*
X0197Y0024*
G37*
G36*
X01595Y00257D02*
X0159Y00256D01*
X01581Y00252*
X01573Y00246*
X01567Y00238*
X01563Y00229*
X01562Y00225*
X01595*
Y00257*
G37*
G36*
X01235Y00322D02*
X01184D01*
Y00278*
X01193*
X01197Y00269*
X01191Y00263*
X01188Y00259*
X01187Y00255*
X01181Y00252*
X01173Y00246*
X01167Y00238*
X01163Y00229*
X01162Y0022*
X01163Y0021*
X01167Y00201*
X01173Y00193*
X01181Y00187*
X0119Y00183*
X012Y00182*
X01209Y00183*
X01218Y00187*
X01226Y00193*
X01232Y00201*
X01236Y0021*
X01237Y0022*
X01236Y00229*
X01232Y00238*
X01226Y00246*
X01218Y00252*
X01218Y00255*
X01218Y00256*
X01221Y0026*
X01222Y00265*
Y00278*
X01235*
Y00322*
G37*
G36*
X02015Y00335D02*
Y00315D01*
X02035*
X02034Y00319*
X02028Y00328*
X02019Y00334*
X02015Y00335*
G37*
G36*
X011Y00519D02*
X0109D01*
Y00482*
X011*
Y00519*
G37*
G36*
X02005Y00335D02*
X02Y00334D01*
X01991Y00328*
X01985Y00319*
X01985Y00315*
X02005*
Y00335*
G37*
G36*
Y00305D02*
X01985D01*
X01985Y003*
X01991Y00291*
X02Y00285*
X02005Y00284*
Y00305*
G37*
G36*
X02035D02*
X02015D01*
Y00284*
X02019Y00285*
X02028Y00291*
X02034Y003*
X02035Y00305*
G37*
G36*
X0194Y0024D02*
X01919D01*
X0192Y00235*
X01926Y00226*
X01935Y0022*
X0194Y0022*
Y0024*
G37*
G36*
X00935Y00322D02*
X00884D01*
Y00278*
X00893*
X00897Y00269*
X00891Y00263*
X00888Y00259*
X00887Y00255*
X00881Y00252*
X00873Y00246*
X00867Y00238*
X00863Y00229*
X00862Y0022*
X00863Y0021*
X00867Y00201*
X00873Y00193*
X00881Y00187*
X0089Y00183*
X009Y00182*
X00909Y00183*
X00918Y00187*
X00926Y00193*
X00932Y00201*
X00936Y0021*
X00937Y0022*
X00936Y00229*
X00932Y00238*
X00926Y00246*
X00918Y00252*
X00918Y00255*
X00918Y00256*
X00921Y0026*
X00922Y00265*
Y00278*
X00935*
Y00322*
G37*
G36*
X01035D02*
X00984D01*
Y00278*
X00993*
X00997Y00269*
X00991Y00263*
X00988Y00259*
X00987Y00255*
X00981Y00252*
X00973Y00246*
X00967Y00238*
X00963Y00229*
X00962Y0022*
X00963Y0021*
X00967Y00201*
X00973Y00193*
X00981Y00187*
X0099Y00183*
X01Y00182*
X01009Y00183*
X01018Y00187*
X01026Y00193*
X01032Y00201*
X01036Y0021*
X01037Y0022*
X01036Y00229*
X01032Y00238*
X01026Y00246*
X01018Y00252*
X01018Y00255*
X01018Y00256*
X01021Y0026*
X01022Y00265*
Y00278*
X01035*
Y00322*
G37*
G36*
X00835D02*
X00784D01*
Y00278*
X00785*
X00787Y00275*
Y00255*
X00781Y00252*
X00773Y00246*
X00767Y00238*
X00763Y00229*
X00762Y0022*
X00763Y0021*
X00767Y00201*
X00773Y00193*
X00781Y00187*
X0079Y00183*
X008Y00182*
X00809Y00183*
X00818Y00187*
X00826Y00193*
X00832Y00201*
X00836Y0021*
X00837Y0022*
X00836Y00229*
X00832Y00238*
X00826Y00246*
X00818Y00252*
X00812Y00255*
Y0027*
X00818Y00277*
X00819Y00278*
X00835*
Y00322*
G37*
G36*
X0207Y00135D02*
X0205D01*
Y00115*
X02054Y00115*
X02063Y00121*
X02069Y0013*
X0207Y00135*
G37*
G36*
X0205Y00165D02*
Y00145D01*
X0207*
X02069Y00149*
X02063Y00158*
X02054Y00164*
X0205Y00165*
G37*
G36*
X01135Y00322D02*
X01084D01*
Y00278*
X01093*
X01097Y00269*
X01091Y00263*
X01088Y00259*
X01087Y00255*
X01081Y00252*
X01073Y00246*
X01067Y00238*
X01063Y00229*
X01062Y0022*
X01063Y0021*
X01067Y00201*
X01073Y00193*
X01081Y00187*
X0109Y00183*
X011Y00182*
X01109Y00183*
X01118Y00187*
X01126Y00193*
X01132Y00201*
X01136Y0021*
X01137Y0022*
X01136Y00229*
X01132Y00238*
X01126Y00246*
X01118Y00252*
X01118Y00255*
X01118Y00256*
X01121Y0026*
X01122Y00265*
Y00278*
X01135*
Y00322*
G37*
G36*
X01595Y00215D02*
X01562D01*
X01563Y0021*
X01567Y00201*
X01573Y00193*
X01581Y00187*
X0159Y00183*
X01595Y00182*
Y00215*
G37*
G36*
X01637D02*
X01605D01*
Y00182*
X01609Y00183*
X01618Y00187*
X01626Y00193*
X01632Y00201*
X01636Y0021*
X01637Y00215*
G37*
G36*
X01535Y00322D02*
X01484D01*
Y00278*
X01493*
X01497Y00269*
X01491Y00263*
X01488Y00259*
X01487Y00255*
X01481Y00252*
X01473Y00246*
X01467Y00238*
X01463Y00229*
X01462Y0022*
X01463Y0021*
X01467Y00201*
X01473Y00193*
X01481Y00187*
X0149Y00183*
X015Y00182*
X01509Y00183*
X01518Y00187*
X01526Y00193*
X01532Y00201*
X01536Y0021*
X01537Y0022*
X01536Y00229*
X01532Y00238*
X01526Y00246*
X01518Y00252*
X01518Y00255*
X01518Y00256*
X01521Y0026*
X01522Y00265*
Y00278*
X01535*
Y00322*
G37*
G36*
X01335D02*
X01284D01*
Y00278*
X01293*
X01297Y00269*
X01291Y00263*
X01288Y00259*
X01287Y00255*
X01281Y00252*
X01273Y00246*
X01267Y00238*
X01263Y00229*
X01262Y0022*
X01263Y0021*
X01267Y00201*
X01273Y00193*
X01281Y00187*
X0129Y00183*
X013Y00182*
X01309Y00183*
X01318Y00187*
X01326Y00193*
X01332Y00201*
X01336Y0021*
X01337Y0022*
X01336Y00229*
X01332Y00238*
X01326Y00246*
X01318Y00252*
X01318Y00255*
X01318Y00256*
X01321Y0026*
X01322Y00265*
Y00278*
X01335*
Y00322*
G37*
G36*
X01435D02*
X01384D01*
Y00278*
X01393*
X01397Y00269*
X01391Y00263*
X01388Y00259*
X01387Y00255*
X01381Y00252*
X01373Y00246*
X01367Y00238*
X01363Y00229*
X01362Y0022*
X01363Y0021*
X01367Y00201*
X01373Y00193*
X01381Y00187*
X0139Y00183*
X014Y00182*
X01409Y00183*
X01418Y00187*
X01426Y00193*
X01432Y00201*
X01436Y0021*
X01437Y0022*
X01436Y00229*
X01432Y00238*
X01426Y00246*
X01418Y00252*
X01418Y00255*
X01418Y00256*
X01421Y0026*
X01422Y00265*
Y00278*
X01435*
Y00322*
G37*
G36*
X02018Y00789D02*
X01998D01*
Y00769*
X02003Y0077*
X02012Y00775*
X02017Y00784*
X02018Y00789*
G37*
G36*
X007Y008D02*
X00695Y00799D01*
X00686Y00793*
X0068Y00784*
X0068Y0078*
X007*
Y008*
G37*
G36*
X01988Y00789D02*
X01968D01*
X01969Y00784*
X01975Y00775*
X01983Y0077*
X01988Y00769*
Y00789*
G37*
G36*
X007Y0077D02*
X0068D01*
X0068Y00765*
X00686Y00756*
X00695Y0075*
X007Y00749*
Y0077*
G37*
G36*
X0073D02*
X0071D01*
Y00749*
X00714Y0075*
X00723Y00756*
X00729Y00765*
X0073Y0077*
G37*
G36*
X0071Y008D02*
Y0078D01*
X0073*
X00729Y00784*
X00723Y00793*
X00714Y00799*
X0071Y008*
G37*
G36*
X01998Y00819D02*
Y00799D01*
X02018*
X02017Y00804*
X02012Y00812*
X02003Y00818*
X01998Y00819*
G37*
G36*
X01835Y0083D02*
X0183Y00829D01*
X01821Y00824*
X01816Y00815*
X01815Y0081*
X01835*
Y0083*
G37*
G36*
X01988Y00819D02*
X01983Y00818D01*
X01975Y00812*
X01969Y00804*
X01968Y00799*
X01988*
Y00819*
G37*
G36*
X01835Y008D02*
X01815D01*
X01816Y00795*
X01821Y00787*
X0183Y00781*
X01835Y0078*
Y008*
G37*
G36*
X01865D02*
X01845D01*
Y0078*
X0185Y00781*
X01858Y00787*
X01864Y00795*
X01865Y008*
G37*
G36*
X01752Y00735D02*
Y00715D01*
X01772*
X01771Y0072*
X01765Y00729*
X01757Y00734*
X01752Y00735*
G37*
G36*
X0149Y0053D02*
X0147D01*
X0147Y00525*
X01476Y00516*
X01485Y0051*
X0149Y00509*
Y0053*
G37*
G36*
X0152D02*
X015D01*
Y00509*
X01504Y0051*
X01513Y00516*
X01519Y00525*
X0152Y0053*
G37*
G36*
X02055Y00616D02*
X02045Y00614D01*
X02036Y00608*
X0203Y00599*
X02029Y0059*
X0203Y0058*
X02036Y00571*
X02045Y00565*
X02055Y00564*
X02064Y00565*
X02073Y00571*
X02077Y00577*
X02154*
X0221Y00522*
X02209Y00515*
X0221Y00505*
X02216Y00496*
X02225Y0049*
X02235Y00489*
X02244Y0049*
X02253Y00496*
X02259Y00505*
X02261Y00515*
X02259Y00524*
X02253Y00533*
X02244Y00539*
X02235Y00541*
X02227Y00539*
X02168Y00598*
X02164Y00601*
X0216Y00602*
X02077*
X02073Y00608*
X02064Y00614*
X02055Y00616*
G37*
G36*
X00865Y00505D02*
X00845D01*
X00845Y005*
X00851Y00491*
X0086Y00485*
X00865Y00485*
Y00505*
G37*
G36*
X00895D02*
X00875D01*
Y00485*
X00879Y00485*
X00888Y00491*
X00894Y005*
X00895Y00505*
G37*
G36*
X00865Y00535D02*
X0086Y00534D01*
X00851Y00528*
X00845Y00519*
X00845Y00515*
X00865*
Y00535*
G37*
G36*
X01772Y00705D02*
X01752D01*
Y00685*
X01757Y00686*
X01765Y00692*
X01771Y007*
X01772Y00705*
G37*
G36*
X01742Y00735D02*
X01737Y00734D01*
X01728Y00729*
X01723Y0072*
X01722Y00715*
X01742*
Y00735*
G37*
G36*
Y00705D02*
X01722D01*
X01723Y007*
X01728Y00692*
X01737Y00686*
X01742Y00685*
Y00705*
G37*
G36*
X00875Y00535D02*
Y00515D01*
X00895*
X00894Y00519*
X00888Y00528*
X00879Y00534*
X00875Y00535*
G37*
G36*
X00835Y00816D02*
X00825Y00814D01*
X00816Y00808*
X0081Y00799*
X00809Y0079*
X0081Y0078*
X00816Y00771*
X00825Y00765*
X00835Y00764*
X00842Y00765*
X00909Y00698*
X00909Y00695*
X0091Y00685*
X00916Y00676*
X00925Y0067*
X00935Y00669*
X00944Y0067*
X00953Y00676*
X00959Y00685*
X00961Y00695*
X00959Y00704*
X00953Y00713*
X00944Y00719*
X00935Y00721*
X00925Y00719*
X00923Y00718*
X00859Y00782*
X00861Y0079*
X00859Y00799*
X00853Y00808*
X00844Y00814*
X00835Y00816*
G37*
G36*
X00785Y0117D02*
X0078Y01169D01*
X00771Y01163*
X00765Y01154*
X00764Y0115*
X00785*
Y0117*
G37*
G36*
X01024Y02024D02*
X01004D01*
X01005Y02019*
X01011Y02011*
X01019Y02005*
X01024Y02004*
Y02024*
G37*
G36*
X01054D02*
X01034D01*
Y02004*
X01039Y02005*
X01047Y02011*
X01053Y02019*
X01054Y02024*
G37*
G36*
X0105Y01996D02*
X0104Y01994D01*
X01031Y01988*
X01027Y01982*
X00972*
X00967Y01981*
X00965Y0198*
X00963Y01978*
X00864Y01879*
X00857Y01881*
X00847Y01879*
X00838Y01873*
X00832Y01864*
X00831Y01855*
X00832Y01845*
X00838Y01836*
X00847Y0183*
X00857Y01829*
X00866Y0183*
X00875Y01836*
X00881Y01845*
X00883Y01855*
X00881Y01862*
X00977Y01957*
X01027*
X01031Y01951*
X0104Y01945*
X0105Y01944*
X01059Y01945*
X01068Y01951*
X01074Y0196*
X01076Y0197*
X01074Y01979*
X01068Y01988*
X01059Y01994*
X0105Y01996*
G37*
G36*
X01755Y01955D02*
X0175Y01954D01*
X01741Y01948*
X01735Y01939*
X01735Y01935*
X01755*
Y01955*
G37*
G36*
X01765D02*
Y01935D01*
X01785*
X01784Y01939*
X01778Y01948*
X01769Y01954*
X01765Y01955*
G37*
G36*
X01024Y02054D02*
X01019Y02053D01*
X01011Y02047*
X01005Y02039*
X01004Y02034*
X01024*
Y02054*
G37*
G36*
X00735Y0211D02*
X00715D01*
Y02089*
X00719Y0209*
X00728Y02096*
X00734Y02105*
X00735Y0211*
G37*
G36*
X00715Y0214D02*
Y0212D01*
X00735*
X00734Y02124*
X00728Y02133*
X00719Y02139*
X00715Y0214*
G37*
G36*
X00705Y0211D02*
X00684D01*
X00685Y02105*
X00691Y02096*
X007Y0209*
X00705Y02089*
Y0211*
G37*
G36*
X01034Y02054D02*
Y02034D01*
X01054*
X01053Y02039*
X01047Y02047*
X01039Y02053*
X01034Y02054*
G37*
G36*
X01355Y02075D02*
Y02055D01*
X01375*
X01374Y02059*
X01368Y02068*
X01359Y02074*
X01355Y02075*
G37*
G36*
X01785Y01925D02*
X01765D01*
Y01904*
X01769Y01905*
X01778Y01911*
X01784Y0192*
X01785Y01925*
G37*
G36*
X01305Y0177D02*
X013Y01769D01*
X01291Y01763*
X01285Y01754*
X01284Y0175*
X01305*
Y0177*
G37*
G36*
X01315D02*
Y0175D01*
X01335*
X01334Y01754*
X01328Y01763*
X01319Y01769*
X01315Y0177*
G37*
G36*
X0075Y01776D02*
X0074Y01774D01*
X00731Y01768*
X00725Y01759*
X00724Y0175*
X00725Y0174*
X00731Y01731*
X0074Y01725*
X0075Y01724*
X00759Y01725*
X00768Y01731*
X00771Y01736*
X00941*
X00946Y01729*
X00955Y01723*
X00965Y01721*
X00974Y01723*
X00983Y01729*
X00989Y01737*
X00991Y01747*
X00989Y01757*
X00983Y01765*
X00974Y01771*
X00965Y01773*
X00955Y01771*
X00946Y01765*
X00944Y01763*
X00771*
X00768Y01768*
X00759Y01774*
X0075Y01776*
G37*
G36*
X01305Y0174D02*
X01284D01*
X01285Y01735*
X01291Y01726*
X013Y0172*
X01305Y0172*
Y0174*
G37*
G36*
X01335D02*
X01315D01*
Y0172*
X01319Y0172*
X01328Y01726*
X01334Y01735*
X01335Y0174*
G37*
G36*
X0218Y01911D02*
X0217Y01909D01*
X02161Y01903*
X02155Y01894*
X02154Y01885*
X02155Y01875*
X02156Y01873*
X02112Y01829*
X02105Y01831*
X02095Y01829*
X02086Y01823*
X0208Y01814*
X02079Y01805*
X0208Y01795*
X02086Y01786*
X02095Y0178*
X02105Y01779*
X02114Y0178*
X02123Y01786*
X02129Y01795*
X02131Y01805*
X02129Y01812*
X02176Y01859*
X0218Y01859*
X02189Y0186*
X02198Y01866*
X02204Y01875*
X02206Y01885*
X02204Y01894*
X02198Y01903*
X02189Y01909*
X0218Y01911*
G37*
G36*
X0194Y0191D02*
Y0189D01*
X0196*
X01959Y01894*
X01953Y01903*
X01944Y01909*
X0194Y0191*
G37*
G36*
X01755Y01925D02*
X01735D01*
X01735Y0192*
X01741Y01911*
X0175Y01905*
X01755Y01904*
Y01925*
G37*
G36*
X0193Y0191D02*
X01925Y01909D01*
X01916Y01903*
X0191Y01894*
X01909Y0189*
X0193*
Y0191*
G37*
G36*
Y0188D02*
X01909D01*
X0191Y01875*
X01916Y01866*
X01925Y0186*
X0193Y0186*
Y0188*
G37*
G36*
X0196D02*
X0194D01*
Y0186*
X01944Y0186*
X01953Y01866*
X01959Y01875*
X0196Y0188*
G37*
G36*
X00286Y02324D02*
X00247D01*
Y02321*
X00248Y02309*
X00253Y02299*
X0026Y0229*
X00269Y02283*
X00279Y02278*
X00286Y02278*
Y02324*
G37*
G36*
X00335D02*
X00296D01*
Y02278*
X00302Y02278*
X00313Y02283*
X00322Y0229*
X00329Y02299*
X00333Y02309*
X00335Y02321*
Y02324*
G37*
G36*
X00583Y02266D02*
Y0222D01*
X00622*
Y02222*
X00621Y02234*
X00616Y02244*
X00609Y02253*
X006Y0226*
X0059Y02265*
X00583Y02266*
G37*
G36*
X00296D02*
Y0222D01*
X00335*
Y02222*
X00333Y02234*
X00329Y02244*
X00322Y02253*
X00313Y0226*
X00302Y02265*
X00296Y02266*
G37*
G36*
X00573D02*
X00567Y02265D01*
X00556Y0226*
X00547Y02253*
X0054Y02244*
X00536Y02234*
X00534Y02222*
Y0222*
X00573*
Y02266*
G37*
G36*
Y02324D02*
X00534D01*
Y02321*
X00536Y02309*
X0054Y02299*
X00547Y0229*
X00556Y02283*
X00567Y02278*
X00573Y02278*
Y02324*
G37*
G36*
X0146Y02315D02*
X0144D01*
X0144Y0231*
X01446Y02301*
X01455Y02295*
X0146Y02295*
Y02315*
G37*
G36*
X0149D02*
X0147D01*
Y02295*
X01474Y02295*
X01483Y02301*
X01489Y0231*
X0149Y02315*
G37*
G36*
X00755D02*
X00735D01*
Y02295*
X00739Y02295*
X00748Y02301*
X00754Y0231*
X00755Y02315*
G37*
G36*
X00622Y02324D02*
X00583D01*
Y02278*
X0059Y02278*
X006Y02283*
X00609Y0229*
X00616Y02299*
X00621Y02309*
X00622Y02321*
Y02324*
G37*
G36*
X00725Y02315D02*
X00704D01*
X00705Y0231*
X00711Y02301*
X0072Y02295*
X00725Y02295*
Y02315*
G37*
G36*
X00286Y02266D02*
X00279Y02265D01*
X00269Y0226*
X0026Y02253*
X00253Y02244*
X00248Y02234*
X00247Y02222*
Y0222*
X00286*
Y02266*
G37*
G36*
X0212Y0217D02*
X02092D01*
X02092Y02166*
X02096Y02158*
X02101Y02151*
X02108Y02146*
X02116Y02142*
X0212Y02142*
Y0217*
G37*
G36*
X02157D02*
X0213D01*
Y02142*
X02133Y02142*
X02141Y02146*
X02148Y02151*
X02153Y02158*
X02157Y02166*
X02157Y0217*
G37*
G36*
X02045Y02208D02*
X02036Y02207D01*
X02028Y02203*
X02021Y02198*
X02016Y02191*
X02012Y02183*
X02011Y02175*
X02012Y02166*
X02016Y02158*
X02021Y02151*
X02028Y02146*
X02036Y02142*
X02045Y02141*
X02053Y02142*
X02061Y02146*
X02068Y02151*
X02073Y02158*
X02077Y02166*
X02078Y02175*
X02077Y02183*
X02073Y02191*
X02068Y02198*
X02061Y02203*
X02053Y02207*
X02045Y02208*
G37*
G36*
X003Y02144D02*
X00287D01*
Y02129*
X003*
Y02144*
G37*
G36*
X00322D02*
X0031D01*
Y02129*
X00322*
Y02144*
G37*
G36*
X00286Y0221D02*
X00247D01*
Y02207*
X00248Y02195*
X00253Y02185*
X0026Y02176*
X00269Y02169*
X00279Y02164*
X00286Y02163*
Y0221*
G37*
G36*
X00225D02*
X00205D01*
Y0219*
X00209Y0219*
X00218Y02196*
X00224Y02205*
X00225Y0221*
G37*
G36*
X00205Y0224D02*
Y0222D01*
X00225*
X00224Y02224*
X00218Y02233*
X00209Y02239*
X00205Y0224*
G37*
G36*
X00195Y0221D02*
X00175D01*
X00175Y02205*
X00181Y02196*
X0019Y0219*
X00195Y0219*
Y0221*
G37*
G36*
X00335D02*
X00296D01*
Y02163*
X00302Y02164*
X00313Y02169*
X00322Y02176*
X00329Y02185*
X00333Y02195*
X00335Y02207*
Y0221*
G37*
G36*
X0212Y02207D02*
X02116Y02207D01*
X02108Y02203*
X02101Y02198*
X02096Y02191*
X02092Y02183*
X02092Y0218*
X0212*
Y02207*
G37*
G36*
X00695Y0147D02*
X00675D01*
X00675Y01465*
X00681Y01456*
X0069Y0145*
X00695Y0145*
Y0147*
G37*
G36*
X00725D02*
X00705D01*
Y0145*
X00709Y0145*
X00718Y01456*
X00724Y01465*
X00725Y0147*
G37*
G36*
X0233Y0144D02*
X0231D01*
Y01419*
X02314Y0142*
X02323Y01426*
X02329Y01435*
X0233Y0144*
G37*
G36*
X02035Y01341D02*
X02025Y01339D01*
X02016Y01333*
X02012Y01327*
X01503*
X01498Y01326*
X01494Y01323*
X0148Y01309*
X01473Y01311*
X01463Y01309*
X01454Y01303*
X01448Y01294*
X01447Y01285*
X01448Y01275*
X01454Y01266*
X01463Y0126*
X01473Y01259*
X01482Y0126*
X01491Y01266*
X01497Y01275*
X01499Y01285*
X01497Y01292*
X01508Y01302*
X01536*
X0154Y01294*
X01539Y0129*
X0159*
X01589Y01294*
X01593Y01302*
X02012*
X02016Y01296*
X02025Y0129*
X02035Y01289*
X02044Y0129*
X02053Y01296*
X02059Y01305*
X02061Y01315*
X02059Y01324*
X02053Y01333*
X02044Y01339*
X02035Y01341*
G37*
G36*
X023Y0144D02*
X02279D01*
X0228Y01435*
X02286Y01426*
X02295Y0142*
X023Y01419*
Y0144*
G37*
G36*
Y0147D02*
X02295Y01469D01*
X02286Y01463*
X0228Y01454*
X02279Y0145*
X023*
Y0147*
G37*
G36*
X00595Y01515D02*
X0059Y01514D01*
X00581Y01508*
X00575Y01499*
X00574Y01495*
X00595*
Y01515*
G37*
G36*
X00605D02*
Y01495D01*
X00625*
X00624Y01499*
X00618Y01508*
X00609Y01514*
X00605Y01515*
G37*
G36*
X00705Y015D02*
Y0148D01*
X00725*
X00724Y01484*
X00718Y01493*
X00709Y01499*
X00705Y015*
G37*
G36*
X0231Y0147D02*
Y0145D01*
X0233*
X02329Y01454*
X02323Y01463*
X02314Y01469*
X0231Y0147*
G37*
G36*
X00695Y015D02*
X0069Y01499D01*
X00681Y01493*
X00675Y01484*
X00675Y0148*
X00695*
Y015*
G37*
G36*
X0159Y0128D02*
X0157D01*
Y01259*
X01574Y0126*
X01583Y01266*
X01589Y01275*
X0159Y0128*
G37*
G36*
X0146Y02345D02*
X01455Y02344D01*
X01446Y02338*
X0144Y02329*
X0144Y02325*
X0146*
Y02345*
G37*
G36*
X01398Y01217D02*
X01378D01*
Y01197*
X01383Y01198*
X01391Y01203*
X01397Y01212*
X01398Y01217*
G37*
G36*
X01553Y012D02*
X01533D01*
Y0118*
X01538Y01181*
X01547Y01187*
X01552Y01195*
X01553Y012*
G37*
G36*
X00795Y0117D02*
Y0115D01*
X00815*
X00814Y01154*
X00808Y01163*
X00799Y01169*
X00795Y0117*
G37*
G36*
X01523Y012D02*
X01503D01*
X01504Y01195*
X0151Y01187*
X01518Y01181*
X01523Y0118*
Y012*
G37*
G36*
Y0123D02*
X01518Y01229D01*
X0151Y01224*
X01504Y01215*
X01503Y0121*
X01523*
Y0123*
G37*
G36*
X00715Y01275D02*
X00695D01*
Y01254*
X007Y01255*
X00709Y01261*
X00714Y0127*
X00715Y01275*
G37*
G36*
X0156Y0128D02*
X01539D01*
X0154Y01275*
X01546Y01266*
X01555Y0126*
X0156Y01259*
Y0128*
G37*
G36*
X00685Y01275D02*
X00665D01*
X00666Y0127*
X00672Y01261*
X00681Y01255*
X00685Y01254*
Y01275*
G37*
G36*
X01533Y0123D02*
Y0121D01*
X01553*
X01552Y01215*
X01547Y01224*
X01538Y01229*
X01533Y0123*
G37*
G36*
X01378Y01247D02*
Y01227D01*
X01398*
X01397Y01232*
X01391Y0124*
X01383Y01246*
X01378Y01247*
G37*
G36*
X004Y0165D02*
X00385D01*
Y01637*
X004*
Y0165*
G37*
G36*
X01005Y01685D02*
X01Y01684D01*
X00991Y01678*
X00985Y01669*
X00985Y01665*
X01005*
Y01685*
G37*
G36*
Y01655D02*
X00985D01*
X00985Y0165*
X00991Y01641*
X01Y01635*
X01005Y01634*
Y01655*
G37*
G36*
X00795Y01653D02*
X0079Y01652D01*
X00781Y01647*
X00775Y01638*
X00775Y01633*
X00795*
Y01653*
G37*
G36*
X00805D02*
Y01633D01*
X00825*
X00824Y01638*
X00818Y01647*
X00809Y01652*
X00805Y01653*
G37*
G36*
X0109Y0234D02*
X01085Y02339D01*
X01076Y02333*
X0107Y02324*
X0107Y0232*
X0109*
Y0234*
G37*
G36*
X00632Y01734D02*
X00627Y01733D01*
X00618Y01727*
X00612Y01718*
X00611Y01714*
X00632*
Y01734*
G37*
G36*
X00642D02*
Y01714D01*
X00662*
X00661Y01718*
X00655Y01727*
X00646Y01733*
X00642Y01734*
G37*
G36*
X01085Y0172D02*
Y017D01*
X01105*
X01104Y01704*
X01098Y01713*
X01089Y01719*
X01085Y0172*
G37*
G36*
X00632Y01704D02*
X00611D01*
X00612Y01699*
X00618Y0169*
X00627Y01684*
X00632Y01684*
Y01704*
G37*
G36*
X00662D02*
X00642D01*
Y01684*
X00646Y01684*
X00655Y0169*
X00661Y01699*
X00662Y01704*
G37*
G36*
X0221Y01657D02*
Y01625D01*
X02242*
X02242Y01629*
X02238Y01639*
X02232Y01647*
X02224Y01653*
X02214Y01657*
X0221Y01657*
G37*
G36*
X00237Y01615D02*
X00205D01*
Y01582*
X00209Y01582*
X00219Y01586*
X00227Y01592*
X00233Y016*
X00237Y0161*
X00237Y01615*
G37*
G36*
X022D02*
X02167D01*
X02167Y0161*
X02171Y016*
X02177Y01592*
X02185Y01586*
X02195Y01582*
X022Y01582*
Y01615*
G37*
G36*
X02305Y01658D02*
X02295Y01657D01*
X02285Y01653*
X02277Y01647*
X02271Y01639*
X02267Y01629*
X02266Y0162*
X02267Y0161*
X02271Y016*
X02277Y01592*
X02285Y01586*
X02295Y01582*
X02305Y01581*
X02314Y01582*
X02324Y01586*
X02332Y01592*
X02338Y016*
X02342Y0161*
X02343Y0162*
X02342Y01629*
X02338Y01639*
X02332Y01647*
X02324Y01653*
X02314Y01657*
X02305Y01658*
G37*
G36*
X0129Y01561D02*
X0128Y01559D01*
X01271Y01553*
X01267Y01547*
X01197*
X01193Y01553*
X01184Y01559*
X01175Y01561*
X01165Y01559*
X01156Y01553*
X0115Y01544*
X01149Y01535*
X0115Y01525*
X01156Y01516*
X01165Y0151*
X01175Y01509*
X01184Y0151*
X01193Y01516*
X01197Y01522*
X01267*
X01271Y01516*
X0128Y0151*
X0129Y01509*
X01299Y0151*
X01308Y01516*
X01314Y01525*
X01316Y01535*
X01314Y01544*
X01308Y01553*
X01299Y01559*
X0129Y01561*
G37*
G36*
X00735Y02345D02*
Y02325D01*
X00755*
X00754Y02329*
X00748Y02338*
X00739Y02344*
X00735Y02345*
G37*
G36*
X02242Y01615D02*
X0221D01*
Y01582*
X02214Y01582*
X02224Y01586*
X02232Y01592*
X02238Y016*
X02242Y0161*
X02242Y01615*
G37*
G36*
X011Y0234D02*
Y0232D01*
X0112*
X01119Y02324*
X01113Y02333*
X01104Y02339*
X011Y0234*
G37*
G36*
X022Y01657D02*
X02195Y01657D01*
X02185Y01653*
X02177Y01647*
X02171Y01639*
X02167Y01629*
X02167Y01625*
X022*
Y01657*
G37*
G36*
X00725Y02345D02*
X0072Y02344D01*
X00711Y02338*
X00705Y02329*
X00704Y02325*
X00725*
Y02345*
G37*
G36*
X00795Y01623D02*
X00775D01*
X00775Y01618*
X00781Y0161*
X0079Y01604*
X00795Y01603*
Y01623*
G37*
G36*
X00825D02*
X00805D01*
Y01603*
X00809Y01604*
X00818Y0161*
X00824Y01618*
X00825Y01623*
G37*
%LNirbeacon-3*%
%LPD*%
G54D10*
X00335Y0138D03*
X00394D03*
X01615Y0205D03*
X01556D03*
X01249D03*
X0119D03*
X00884D03*
X00825D03*
G54D11*
X0035Y00774D03*
Y00715D03*
X00435Y00774D03*
Y00715D03*
X0081Y00359D03*
Y003D03*
X0091Y00359D03*
Y003D03*
X0101Y00359D03*
Y003D03*
X0111Y00359D03*
Y003D03*
X0121Y00359D03*
Y003D03*
X0131Y00359D03*
Y003D03*
X0141Y00359D03*
Y003D03*
X0151Y00359D03*
Y003D03*
G54D13*
X00444Y01655D03*
X00405D03*
G54D23*
X00747Y00845D03*
X00692D03*
G54D24*
X00305Y02124D03*
Y02085D03*
G54D31*
X0119Y02055D02*
Y02095D01*
X01155Y0213D02*
X0119Y02095D01*
X00875Y0213D02*
X01155D01*
X0123Y0201D02*
X01373D01*
X00887Y02092D02*
X00994D01*
X00884Y02089D02*
X00887Y02092D01*
X00884Y0205D02*
Y02089D01*
X00825Y02079D02*
X00875Y0213D01*
X00825Y0205D02*
Y02079D01*
X00803Y0205D02*
X00825D01*
X00785Y02032D02*
X00803Y0205D01*
X00695Y02032D02*
X00785D01*
X01555Y0204D02*
Y02048D01*
X01556Y0205*
X01543Y02037D02*
X01555Y02048D01*
Y02095D02*
X0196D01*
X014Y02037D02*
X01543D01*
X01373Y0201D02*
X014Y02037D01*
X00404Y0153D02*
X00443D01*
X00332Y01458D02*
X00404Y0153D01*
X00332Y01383D02*
Y01458D01*
X00464Y0197D02*
X0049D01*
X00464Y0197D02*
Y02014D01*
X0049Y0197D02*
Y02014D01*
X00955Y01135D02*
Y0119D01*
X00905Y0124D02*
X00955Y0119D01*
X00295Y0138D02*
X00335D01*
X0054Y0156D02*
X00545Y01565D01*
X0074Y0105D02*
Y01075D01*
Y0105D02*
X0087D01*
X00205Y0169D02*
X00275Y0162D01*
X003*
X00282Y02017D02*
X00285Y02014D01*
X00304Y02124D02*
X00305D01*
X00282Y02011D02*
X00285Y02014D01*
X0049Y0197D02*
X00586D01*
X0119Y0205D02*
X0123Y0201D01*
X00387Y01707D02*
Y01745D01*
Y01707D02*
X0041Y01685D01*
Y01665D02*
Y01685D01*
X006Y0149D02*
X00605D01*
X00625Y0147*
X00695*
X007Y01475*
X0079Y01085D02*
Y0114D01*
X00625Y01075D02*
X0074D01*
X0196Y02095D02*
X02005Y0205D01*
X0133Y00705D02*
Y00715D01*
X01284Y00702D02*
X01287Y00705D01*
X00965Y01745D02*
Y01747D01*
X0075Y0175D02*
X0096D01*
X0053Y01645D02*
X00535D01*
X0054Y0156D02*
Y01615D01*
X00535Y0162D02*
X0054Y01615D01*
X00535Y0162D02*
Y01645D01*
X00443Y01397D02*
Y0153D01*
X01287Y00705D02*
X0133D01*
X0096Y0175D02*
X00965Y01745D01*
X01555Y02048D02*
Y02095D01*
G54D32*
X02019Y00964D02*
X02059D01*
X02099Y01004*
X01621Y0115D02*
X01652Y01181D01*
X02083D02*
X02099Y01165D01*
X01652Y01181D02*
X02083D01*
X02099Y01004D02*
Y01164D01*
Y01165*
X01595Y00125D02*
X016Y0012D01*
X008D02*
X009D01*
X01*
X011*
X012*
X013*
X014*
X015*
X01595*
G54D33*
X00413Y02095D02*
Y0215D01*
X00685*
X00805Y0227*
X02105*
X02285Y0209*
X01304Y0205D02*
Y02105D01*
X0144*
X0109Y0193D02*
X0133D01*
X00997Y01522D02*
X01469Y01994D01*
X00972Y0197D02*
X0105D01*
X00857Y01855D02*
X00972Y0197D01*
X00725Y01943D02*
Y01985D01*
X00437Y01943D02*
X00725D01*
X01055Y0068D02*
X0107Y00695D01*
X01249Y0205D02*
X01304D01*
X01186Y01738D02*
Y01885D01*
X01615Y0201D02*
Y0205D01*
X01609Y02004D02*
X01615Y0201D01*
X01479Y02004D02*
X01609D01*
X0147Y01995D02*
X01479Y02004D01*
X00444Y01615D02*
X00479D01*
X00444D02*
X00504Y01556D01*
X00478Y01615D02*
X00479Y01615D01*
X0054Y01685D02*
X00595Y0174D01*
X00444Y01685D02*
X0054D01*
X00444Y01655D02*
Y01685D01*
X00595Y0174D02*
Y0179D01*
X00461Y01576D02*
X00488Y01549D01*
X00455Y0156D02*
X00472Y01542D01*
X00409Y0156D02*
X00455D01*
X00373Y01524D02*
X00409Y0156D01*
X00915Y014D02*
X01013Y01498D01*
X00745Y014D02*
X00915D01*
X00735Y0141D02*
X00745Y014D01*
X0068Y01415D02*
X00715Y01379D01*
X01195Y01345D02*
X01249Y0129D01*
X01026Y01345D02*
X01195D01*
X00992Y01379D02*
X01026Y01345D01*
X00715Y01379D02*
X00992D01*
X00928Y01359D02*
X00988Y01299D01*
X00713Y01359D02*
X00928D01*
X00712Y0136D02*
X00713Y01359D01*
X00705Y0136D02*
X00712D01*
X01249Y00978D02*
Y0129D01*
X01702Y0162D02*
X02105D01*
X01301Y01218D02*
X01702Y0162D01*
X01285Y01225D02*
X01517Y01457D01*
X01551Y01446D02*
X01687D01*
X01317Y01211D02*
X01551Y01446D01*
X01317Y01023D02*
Y01211D01*
X01301Y00918D02*
Y01218D01*
X01285Y00955D02*
Y01225D01*
X01125Y016D02*
X01155Y0163D01*
X01125Y01578D02*
Y016D01*
Y01578D02*
X01135Y01568D01*
X00949Y01524D02*
Y01541D01*
X00924Y015D02*
X00949Y01524D01*
X00778Y015D02*
X00924D01*
X00768Y0148D02*
X00927D01*
X00997Y01504D02*
Y01522D01*
X00922Y0143D02*
X00997Y01504D01*
X00905Y0143D02*
X00922D01*
X01013Y01498D02*
Y01516D01*
X01157Y01659*
X0121*
X01045Y01638D02*
Y01885D01*
X00949Y01541D02*
X01045Y01638D01*
X0121Y01659D02*
X0122Y0165D01*
X0144*
X01175Y01535D02*
X0129D01*
X0047Y00884D02*
Y01155D01*
X00445Y0118D02*
X0047Y01155D01*
X00479Y0125D02*
X00486Y01244D01*
X00665Y00616D02*
X01021D01*
X00585Y00659D02*
X00622D01*
X005Y00745D02*
X00585Y00659D01*
X00405Y00745D02*
X005D01*
X00622Y00659D02*
X00665Y00616D01*
X00522Y006D02*
X01034D01*
X005Y00622D02*
X00522Y006D01*
X005Y00622D02*
Y00695D01*
X00515Y00584D02*
X00695D01*
X00415Y00685D02*
X00515Y00584D01*
X0013Y00685D02*
X00415D01*
X01049Y00644D02*
X01129D01*
X01021Y00616D02*
X01049Y00644D01*
Y00585D02*
X01077D01*
X01034Y006D02*
X01049Y00585D01*
X01129Y00644D02*
X01131Y00646D01*
X00695Y00584D02*
X00715Y00565D01*
X0028Y01468D02*
Y01472D01*
Y0142D02*
Y01468D01*
X00261Y01401D02*
X0028Y0142D01*
X00261Y00975D02*
Y01401D01*
X00035Y0078D02*
X0013Y00685D01*
X00315Y00705D02*
X00325Y00715D01*
X00132Y00705D02*
X00315D01*
X00051Y00786D02*
X00132Y00705D01*
X00051Y00786D02*
Y01676D01*
X00035Y0078D02*
Y017D01*
X01317Y01023D02*
X01375Y00964D01*
X0137Y0084D02*
Y00921D01*
X01348Y00943D02*
X0137Y00921D01*
X0118Y00797D02*
X01301Y00918D01*
X00925Y0134D02*
X01015Y0125D01*
Y0079D02*
Y0125D01*
Y0079D02*
X0104Y00765D01*
X01045Y0082D02*
Y00887D01*
X00311Y01965D02*
X00317Y0196D01*
X00186Y01811D02*
X00198D01*
X00325Y00715D02*
X0035D01*
X0176Y0056D02*
X0188D01*
X01375Y00944D02*
X0176Y0056D01*
X01375Y00944D02*
Y00964D01*
X00152Y01524D02*
X00373D01*
X00515Y00875D02*
X0054D01*
X001Y01576D02*
X00151Y01525D01*
X001Y01576D02*
Y0162D01*
X00145Y0156D02*
X00165Y0154D01*
X0137Y0084D02*
X014Y0081D01*
X0104Y00725D02*
Y00765D01*
X0146Y00359D02*
X0151D01*
X01258Y00561D02*
X0146Y00359D01*
X01258Y00561D02*
Y00675D01*
X00403Y02085D02*
X00413Y02095D01*
X00336Y02085D02*
X00403D01*
X00234Y02094D02*
X00245Y02105D01*
X00234Y02014D02*
Y02094D01*
X02285Y0191D02*
Y0209D01*
X02115Y0174D02*
X02285Y0191D01*
X02105Y01805D02*
X02177Y01877D01*
X01503Y01315D02*
X02035D01*
X01473Y01285D02*
X01503Y01315D01*
X00145Y0156D02*
Y01745D01*
X00185Y01785*
X00436*
X00051Y01676D02*
X00186Y01811D01*
X00035Y017D02*
X0018Y01845D01*
X00481*
X00541Y01785*
X00583Y01415D02*
X0068D01*
X00491Y01507D02*
X00583Y01415D01*
X00491Y01507D02*
Y01546D01*
X00995Y01315D02*
X01045D01*
X0098Y0133D02*
X00995Y01315D01*
X0098Y0133D02*
Y0135D01*
X00988Y01299D02*
X01038D01*
X0071Y0134D02*
X00925D01*
X00691Y01321D02*
X0071Y0134D01*
X01156Y00659D02*
X01182D01*
Y00702*
X01156Y00659D02*
Y00702D01*
Y00616D02*
Y00659D01*
X01065Y00615D02*
X01156D01*
X0188Y0056D02*
X02045Y00394D01*
X01683Y0054D02*
X01877D01*
X02038Y00378*
X01676Y00524D02*
X0187D01*
X02032Y00362*
X0104Y0068D02*
X01055D01*
X0091Y0081D02*
X0104Y0068D01*
X0091Y0081D02*
Y01019D01*
X01038Y01299D02*
X01082Y01255D01*
X0069Y01375D02*
X00705Y0136D01*
X0044Y0124D02*
Y01305D01*
X00394Y0135D02*
X0044Y01305D01*
Y0124D02*
X0045D01*
X00394Y0135D02*
Y0138D01*
X01575Y0069D02*
X01585D01*
X01458Y00765D02*
X01683Y0054D01*
X01451Y00748D02*
X01675Y00525D01*
X02034Y00362D02*
X02102Y00295D01*
X02032Y00362D02*
X02034D01*
X02066Y00378D02*
X02072Y00372D01*
X02038Y00378D02*
X02066D01*
X02045Y00394D02*
X02097D01*
X02114Y0036D02*
X02161Y00313D01*
X02114Y0036D02*
Y00377D01*
X02097Y00394D02*
X02114Y00377D01*
X02161Y003D02*
Y00313D01*
X01045Y01885D02*
X0109Y0193D01*
X00479Y0125D02*
Y01252D01*
X00475Y01256D02*
X00479Y01252D01*
X00475Y01256D02*
Y01539D01*
X00761Y01473D02*
X00768Y0148D01*
X00444Y01615D02*
Y01655D01*
X00504Y01555D02*
X00507Y01553D01*
X00504Y01555D02*
Y01556D01*
X00488Y01548D02*
X00491Y01546D01*
X00488Y01548D02*
Y01549D01*
X00472Y01542D02*
X00475Y01539D01*
X00472Y01542D02*
Y01542D01*
X00507Y01533D02*
Y01553D01*
X00645Y01375D02*
X0069D01*
X01088Y00597D02*
X01233D01*
X01077Y00585D02*
X01088Y00597D01*
X01233D02*
Y00626D01*
X00305Y02085D02*
X00336D01*
Y02014D02*
Y02085D01*
X00835Y00789D02*
X00925Y007D01*
X0029Y0134D02*
X00295Y01335D01*
Y0114D02*
Y01335D01*
X00692Y00858D02*
Y00905D01*
X01233Y00658D02*
Y00702D01*
Y00658D02*
X01237Y00654D01*
Y00629D02*
Y00654D01*
X01233Y00626D02*
X01237Y00629D01*
X0187Y00265D02*
Y00285D01*
X01106Y00748D02*
X01451D01*
X01207Y00642D02*
Y00702D01*
X01335Y00425D02*
X01355D01*
X013D02*
X01335D01*
X01284Y0044D02*
X013Y00425D01*
X01284Y0044D02*
Y00477D01*
X0141Y00359D02*
Y0037D01*
X01355Y00425D02*
X0141Y0037D01*
X0081Y00359D02*
X00854D01*
X00986Y00401D02*
X01136D01*
X00912Y00417D02*
X01127D01*
X01131Y00421*
Y00477*
X0091Y00359D02*
X00944D01*
X01136Y00401D02*
X01156Y00421D01*
Y00477*
X01145Y00385D02*
X01182Y00422D01*
Y00477*
X01144Y00359D02*
X01207Y00422D01*
X0111Y00359D02*
X01144D01*
X01207Y00422D02*
Y00477D01*
X0121Y00359D02*
Y0039D01*
X01233Y00413*
Y00477*
X0131Y00359D02*
Y0039D01*
X01258Y00441D02*
X0131Y0039D01*
X01258Y00441D02*
Y00477D01*
X01409Y0036D02*
X0141Y00359D01*
X00579Y00774D02*
X00655Y0085D01*
X00435Y00774D02*
X00579D01*
X00688Y00855D02*
X00692Y00858D01*
X00304Y0169D02*
X00356D01*
X00285Y01708D02*
X00304Y0169D01*
X0035Y00715D02*
X00435D01*
X012Y0022D02*
Y00255D01*
X0121Y00265*
Y003*
X013Y0022D02*
Y00255D01*
X0131Y00265*
Y003*
X01Y0022D02*
Y00255D01*
X0101Y00265*
Y003*
X014Y0022D02*
Y00255D01*
X0141Y00265*
Y003*
X011Y0022D02*
Y00255D01*
X0111Y00265*
Y003*
X015Y0022D02*
Y00255D01*
X0151Y00265*
Y003*
X0121Y00359D02*
X01212D01*
X01406D02*
X0141D01*
X00208Y02014D02*
Y02154D01*
X009Y0022D02*
Y00255D01*
X0091Y00265*
Y003*
X008Y0022D02*
Y00275D01*
X0081Y00285*
Y003*
X00532Y02118D02*
X00633D01*
X00509Y02095D02*
X00532Y02118D01*
X00476Y02095D02*
X00509D01*
X00464Y01706D02*
Y01745D01*
X00444Y01686D02*
X00464Y01706D01*
X00438Y01745D02*
Y01782D01*
X00436Y01785D02*
X00438Y01782D01*
X00387Y02014D02*
Y02041D01*
X004Y02054*
X00586*
X00259Y01928D02*
Y02014D01*
X00541Y01745D02*
Y01785D01*
X00311Y01965D02*
Y02014D01*
X00285Y01708D02*
Y01745D01*
X01934Y00074D02*
X02161Y003D01*
X00574Y00187D02*
Y00532D01*
Y00187D02*
X00688Y00074D01*
X00315Y01958D02*
X00317Y0196D01*
X00259Y01928D02*
X00282Y01905D01*
X00688Y00074D02*
X01934D01*
X00645Y01375D02*
Y0138D01*
X00507Y01533D02*
X00595Y01445D01*
X00645Y01995D02*
X0066D01*
X00586Y02054D02*
X00645Y01995D01*
X00655Y0085D02*
Y0103D01*
X00595Y01445D02*
X00596Y01444D01*
X0118Y00975D02*
Y01315D01*
X01615Y0205D02*
X01695D01*
X0052Y00915D02*
X0056Y00955D01*
X00495Y0084D02*
Y00859D01*
X0047Y00884D02*
X00495Y00859D01*
X01487Y00777D02*
X01575Y0069D01*
X00715Y01195D02*
X00745Y01225D01*
Y01245*
X0056Y00955D02*
Y0112D01*
X0056Y0112D02*
Y01124D01*
X0056Y0112D02*
X0056Y0112D01*
Y01124D02*
X0063Y01195D01*
X00715*
X02055Y0059D02*
X0216D01*
X02235Y00515*
X00535Y0063D02*
X0061D01*
X00615Y01255D02*
Y0131D01*
Y01255D02*
X0064Y0123D01*
X01174Y01535D02*
X01175D01*
X00282Y01905D02*
X00485D01*
X00584Y01805*
X00854Y00359D02*
X00912Y00417D01*
X00944Y00359D02*
X00986Y00401D01*
X0101Y00359D02*
X01049D01*
X01075Y00385*
X01145*
X00486Y00904D02*
Y01244D01*
Y00904D02*
X00515Y00875D01*
X0134Y00825D02*
Y00905D01*
Y0091D02*
X01345D01*
X0134Y00905D02*
X01345Y0091D01*
X01082Y00773D02*
X01106Y00748D01*
X01082Y00773D02*
Y01255D01*
X01098Y00781D02*
X01114Y00765D01*
X01098Y00781D02*
Y01262D01*
X01045Y01315D02*
X01098Y01262D01*
X01114Y00765D02*
X01458D01*
X01675Y00525D02*
X01675D01*
X01676Y00524*
X00337Y00993D02*
X00415Y00915D01*
X0044*
X0035Y00774D02*
X00375D01*
X00405Y00745*
X0033Y00815D02*
Y0099D01*
Y00815D02*
X0035Y00795D01*
Y00774D02*
Y00795D01*
X01155Y0163D02*
X01176D01*
X0138Y00551D02*
X01469D01*
X01483Y00565*
X00413Y01966D02*
X00437Y01943D01*
X00413Y01966D02*
Y02014D01*
X01131Y00646D02*
Y00702D01*
X00584Y01805D02*
X00594D01*
X00165Y0154D02*
X00347D01*
X00383Y01576*
X00461*
X01517Y01457D02*
Y01802D01*
X0142Y019D02*
X01517Y01802D01*
X01037Y00812D02*
X01045Y0082D01*
Y00887D02*
X01052Y00895D01*
X01132Y00802D02*
X01285Y00955D01*
X00927Y0148D02*
X01186Y01738D01*
X00577Y01645D02*
X00633D01*
X00778Y015*
X0149Y00665D02*
X0187Y00285D01*
X01483Y00565D02*
X01535D01*
X0158Y0052*
G54D35*
X0187Y00265D03*
X00145Y0087D03*
G54D36*
X0187Y00365D03*
Y00465D03*
X00145Y0077D03*
X008Y0022D03*
X009Y0012D03*
Y0022D03*
X01Y0012D03*
Y0022D03*
X011Y0012D03*
Y0022D03*
X012Y0012D03*
Y0022D03*
X013Y0012D03*
Y0022D03*
X014Y0012D03*
Y0022D03*
X015Y0012D03*
Y0022D03*
X016Y0012D03*
Y0022D03*
G54D37*
X02105Y0162D03*
X02205D03*
X02305D03*
X001D03*
X002D03*
X003D03*
G54D38*
X00291Y02215D03*
Y02329D03*
X00578D03*
Y02215D03*
G54D39*
X008Y0012D03*
G54D40*
X02045Y02175D03*
X02125D03*
G54D41*
X01465Y0232D03*
X01095Y02315D03*
X0073Y0232D03*
X0144Y02105D03*
X0105Y0197D03*
X00857Y01855D03*
X00725Y01995D03*
X0075Y0175D03*
X02305Y01445D03*
X0218Y01885D03*
X01935D03*
X01125Y0157D03*
X01175Y01535D03*
X0129D03*
X0134Y0091D03*
X01045Y009D03*
X014Y0081D03*
X0134Y00955D03*
X02115Y0174D03*
X02035Y01315D03*
X02105Y01805D03*
X00195Y01815D03*
X01585Y0069D03*
X01185Y01885D03*
X0045Y0124D03*
X0028Y01468D03*
X00295Y0138D03*
X01945Y00245D03*
X0201Y0031D03*
X01045Y00805D03*
X00835Y0079D03*
X0054Y0156D03*
X01986Y0112D03*
X0079Y01085D03*
X00745Y01245D03*
X0079Y01145D03*
X0061Y0132D03*
X0064Y0123D03*
X0059Y01112D03*
X00655Y0103D03*
X00625Y01075D03*
X0149Y00665D03*
X01207Y00642D03*
X01065Y00615D03*
X0044Y00915D03*
X0085Y0088D03*
X01249Y00978D03*
X00735Y0141D03*
X00295Y0133D03*
X00294Y0114D03*
X00761Y01473D03*
X01856Y00981D03*
Y01028D03*
X01903Y00981D03*
Y01028D03*
X02274Y00889D03*
X01969Y00894D03*
X02019Y00964D03*
X0184Y00805D03*
X01619Y01149D03*
X01373Y01222D03*
X01993Y00794D03*
X01747Y0071D03*
X01528Y01205D03*
X01586Y00858D03*
X02099Y01164D03*
X00208Y02154D03*
X00261Y00975D03*
X00994Y02092D03*
X00443Y0153D03*
X00695Y02032D03*
X00633Y02118D03*
X00591Y01975D03*
X01473Y01285D03*
X00637Y01709D03*
X0118Y00797D03*
X02102Y00295D03*
X00356Y0169D03*
X01687Y01446D03*
X00692Y00895D03*
X002Y0169D03*
X00245Y0212D03*
X00645Y01375D03*
X00905Y0124D03*
X00955Y01135D03*
X00595Y01445D03*
X006Y0149D03*
X007Y01475D03*
X00445Y0118D03*
X0087Y0105D03*
X0091Y01019D03*
X0059Y01795D03*
X0066Y01995D03*
X0074Y01075D03*
X0118Y00975D03*
X00895Y01435D03*
X008Y01628D03*
X00705Y00775D03*
X00616Y00853D03*
X0074Y0088D03*
X01495Y00535D03*
X0087Y0051D03*
X02235Y00515D03*
X02055Y0059D03*
X0138Y00551D03*
X02005Y0205D03*
X01695D03*
X0069Y0128D03*
X00495Y0084D03*
X00529Y0087D03*
X00945D03*
X00085Y01021D03*
X01029Y02029D03*
X0135Y0205D03*
X0176Y0193D03*
X0148Y00785D03*
X0133Y00715D03*
X0134Y00825D03*
X0107Y00685D03*
X0104Y00725D03*
X00935Y00695D03*
X0113Y0081D03*
X0072Y0056D03*
X02045Y0014D03*
X0044Y01397D03*
X0101Y0166D03*
X01565Y01285D03*
X0131Y01745D03*
X0071Y02115D03*
X002Y02215D03*
X0118Y01315D03*
X00425Y0099D03*
X00965Y01747D03*
X0108Y01695D03*
X01176Y0163D03*
X0098Y0135D03*
X0069Y0133D03*
X0052Y00915D03*
X0061Y0063D03*
X00574Y00532D03*
X00535Y0063D03*
X005Y00695D03*
X02085Y00365D03*
X0033Y0099D03*
X00315Y01958D03*
X00535Y01645D03*
X0049Y01615D03*
X00385Y0158D03*
X0144Y0165D03*
X0142Y019D03*
X0133Y0193D03*
X0058Y01645D03*
X01585Y0052D03*
G54D42*
X0011Y0011D03*
X0229D03*
X0011Y0229D03*
X0229D03*
G54D43*
X00476Y02095D03*
X00413D03*
G54D44*
X00541Y01745D03*
X00515D03*
X0049D03*
X00464D03*
X00438D03*
X00413D03*
X00387D03*
X00362D03*
X00336D03*
X00311D03*
X00285D03*
X00259D03*
X00234D03*
X00208D03*
Y02014D03*
X00234D03*
X00259D03*
X00285D03*
X00311D03*
X00336D03*
X00362D03*
X00387D03*
X00413D03*
X00438D03*
X00464D03*
X0049D03*
X00515D03*
X00541D03*
G54D45*
X01105Y00702D03*
X01131D03*
X01156D03*
X01182D03*
X01207D03*
X01233D03*
X01258D03*
X01284D03*
X01105Y00477D03*
X01131D03*
X01156D03*
X01182D03*
X01207D03*
X01233D03*
X01258D03*
X01284D03*
M02*