4d54 6864 0000 0006 0000 0001 0078 4d54
726b 0000 34b9 00ff 7f08 050f 1200 007f
7f00 00ff 7f05 050f 0900 4100 ff7f 0505
0f09 00c0 00ff 7f05 050f 0940 4900 ff7f
0d05 0f1c 3230 3034 2e30 392e 3035 00ff
2001 0400 c302 00c0 0200 ff58 0404 0218
0800 ff7f 0f05 0f06 4765 6e65 7261 6c20
4d49 4449 00ff 7f0f 050f 0647 656e 6572
616c 204d 4944 4900 ff20 0100 00ff 5902
0000 00c4 0200 ff20 0103 00ff 7f0f 050f
0647 656e 6572 616c 204d 4944 4900 ff51
0305 62ad 00ff 0100 00ff 0100 00ff 0200
00ff 0200 00b0 0764 00ff 0400 00ff 0400
00b0 0a50 00b4 0764 00b3 0764 00b0 1400
00b4 0a37 00b3 0a37 00b0 7900 00b4 7800
00b3 7800 00b1 5b5a 00b4 7900 00b3 7900
00b1 5d00 00b4 5b5a 00b3 5b5a 00b4 5d00
00b3 5d00 8245 934b 752d 834b 0000 934c
4d2d 4f4d 0f83 4c00 0a93 5341 0051 490f
834f 0000 5300 0551 0019 9343 6500 4675
054c 7500 4f6d 003c 3905 4871 0054 6d14
8348 0014 4f00 004c 0005 5400 0f93 5449
004c 5105 4f4d 0048 4d0f 8348 0005 4f00
054c 0000 5400 1493 5465 004c 6100 4861
054f 5d23 8348 0005 4f00 004c 0005 5400
1993 5465 004c 6900 4865 054f 5d0f 8348
0005 5400 054f 0000 4c00 0f93 5465 004c
6905 833c 0000 9348 6905 4f61 1452 4905
8348 0005 5400 0552 0005 4f00 004c 000f
4600 0543 000f 934b 7105 5461 1e4c 4905
834b 000a 5400 1e93 4f51 0f83 4c00 0593
5155 1483 4f00 0551 0014 934f 6d00 3f6d
0046 6905 4871 054b 6d00 5465 1e83 4800
0554 0000 4b00 0a4f 000f 9354 5d05 4b5d
0048 5d05 4f4d 0552 450a 8348 0000 5200
0554 0000 4b00 0a4f 000a 9348 6900 4b61
0554 6505 4f65 1983 4800 0a4b 0000 5400
0a4f 0014 9354 6105 4869 004b 6505 4f51
0f83 4800 0554 0000 4b00 0a4f 000a 9354
6100 4b61 0048 6505 4f69 1e83 4800 0554
0005 4b00 0a4f 0019 934b 7105 5455 0583
3f00 0546 0014 934c 450a 834b 000a 5400
1e93 4f4d 0f83 4c00 0a93 543d 1483 4f00
0054 0019 9343 6100 4671 054e 7500 5471
003c 3928 8346 0005 5400 054e 000a 3c00
0543 0000 934f 6d05 5465 1983 5400 0a4f
000f 934d 6d00 5161 2d83 5100 054d 0014
934b 7100 4f61 1e83 4b00 004f 0014 934c
6500 4f61 2883 4c00 054f 0019 9348 7100
4f51 1983 4f00 1e93 4361 1483 4800 1e43
000f 9342 7105 4861 1483 4800 0542 0014
9348 6100 4169 3c83 4800 0a41 0005 933e
5100 3c39 1483 3e00 023c 0017 933f 7100
4369 3c83 3f00 0043 0014 9340 6500 4359
1983 4000 0543 000a 933c 3905 4361 2883
3c00 0f43 0014 934b 7d00 4e75 0051 6900
5471 2883 4b00 0554 0000 5100 004e 004b
934c 7100 4f71 0051 7100 5475 2d83 4c00
0551 0005 5400 004f 0041 9424 7923 8424
0005 941c 714b 841c 0005 9428 6d1e 8428
000a 941f 6d50 841f 0000 942b 6d19 842b
000f 9421 7150 8421 0000 942d 7119 9156
5d05 842d 000a 9422 6d0a 9157 6d0a 5700
0558 6505 5600 235b 6905 5800 0a84 2200
0094 2e71 0f91 5861 055b 0005 842e 000f
9421 6d0a 9158 0000 5b61 235b 0005 585d
1958 0000 5b61 0594 2d6d 0a84 2100 142d
0000 915b 0005 5859 0594 1f69 0f91 5800
055b 5d1e 5b00 0558 5514 5800 005b 5d05
942b 6d00 934b 7d00 4e75 0051 6500 5465
0584 1f00 0f91 5b00 0a84 2b00 0a94 1c65
0083 5400 0551 0000 4b00 054e 0046 9428
6500 934c 7100 4f75 0051 6d00 5475 0a84
1c00 1428 000a 9418 690f 834c 0000 5100
0554 0000 4f00 3c94 2465 0584 1800 1924
000a 941c 6950 2861 0584 1c00 1928 000a
941f 6950 2b69 0584 1f00 1e2b 0005 9421
6d50 2d6d 0584 2100 1491 5669 0584 2d00
0a94 226d 0f91 576d 1458 6505 5700 0056
001e 5800 005b 590a 942e 7505 8422 000f
915b 0000 585d 0a84 2e00 0a94 2169 0a91
5b61 0558 001e 5b00 0558 4d19 5800 005b
6105 942d 690a 8421 0014 915b 0000 5851
0584 2d00 0594 1f69 0a91 5b5d 0558 001e
5b00 0058 4d19 5800 005b 5d0a 942b 6d00
934c 7100 4f75 0051 6d00 546d 0a84 1f00
0591 5859 055b 000f 842b 0005 941c 6900
9158 0005 8354 0005 5100 004c 0005 4f00
4194 2869 0093 4b71 004f 7100 5169 0054
6d0a 841c 0014 2800 0a94 1d65 0a83 4b00
0551 0005 5400 004f 0037 841d 0005 9429
691e 8429 000a 9421 6950 8421 0000 942d
6d1e 842d 000a 9424 6950 306d 0584 2400
1930 000a 9426 6950 3271 0584 2600 1e32
0005 9427 7114 915b 7900 5769 0f57 001e
575d 0a5b 0005 8427 0000 9433 7114 9157
0000 5b51 0a84 3300 0a94 2669 1491 575d
055b 000f 5700 055b 4d19 5759 0a94 326d
0091 5b00 0584 2600 0f91 5700 055b 510a
8432 0005 9424 6900 9157 5105 5b00 1457
0005 5b4d 0f57 4d14 5700 0f94 306d 0093
4b7d 004e 7500 516d 0054 6d05 8424 0005
915b 0014 8430 000a 9421 6d05 834b 0005
5400 0551 0000 4e00 4184 2100 0093 4c71
0094 2d6d 0093 4f75 0051 7100 5471 1e84
2d00 0a94 1869 0a83 4f00 004c 0000 5100
0554 0037 8418 000a 9424 691e 8424 000a
941c 7150 841c 0000 9428 691e 8428 000a
941f 7150 841f 0000 942b 6d1e 842b 000a
9421 6d50 8421 0000 942d 6d05 9156 6d14
5771 0a84 2d00 0594 226d 0591 5600 0557
0000 5865 145b 610a 5800 195b 0000 5859
0f84 2200 0094 2e71 0f91 5800 005b 5d0f
842e 000a 9421 6d0a 915b 0005 5851 1458
0005 5b5d 1e5b 0005 585d 0594 2d6d 0584
2100 0f91 5800 005b 610f 842d 0005 941f
6905 915b 004b 942b 6d00 934b 7900 4e75
0051 6100 546d 0584 1f00 0a93 4f75 0f83
4f00 0584 2b00 0594 1c6d 0583 4b00 0051
0005 5400 054e 0000 9358 7d05 5b7d 2883
5800 055b 000f 9428 6900 934a 7100 4d71
0051 6d00 5471 0a84 1c00 0093 577d 005a
7914 8357 0000 5a00 0584 2800 0594 1a6d
0583 4a00 0551 0000 9359 7905 8354 0000
4d00 0093 5675 2d83 5900 0056 000f 841a
0005 9426 6d05 934f 7519 8426 0005 834f
0005 941c 690a 934f 5d00 507d 0f83 4f00
2350 0014 841c 0000 9428 6d05 9351 691e
8428 0000 8351 0005 941d 6d0f 9354 7d00
5975 4184 1d00 0083 5400 0094 296d 0083
5900 0093 5165 1983 5100 0a84 2900 0594
1e6d 0a93 5b79 0056 7d32 835b 0000 5600
0f84 1e00 0594 2a71 0593 547d 0059 7119
842a 000a 941f 6d00 8354 000a 934f 690f
8359 0028 4f00 0f94 2b6d 0093 507d 0043
6900 4775 004b 6d00 4f69 0584 1f00 0f83
4300 0a4b 0000 5000 0584 2b00 0083 4700
0594 1d69 0583 4f00 0593 5179 2d83 5100
1994 2969 0093 436d 0047 7100 4b6d 004f
6d00 5479 0584 1d00 1483 4b00 0584 2900
0083 4300 0554 0000 4700 0594 1c65 0583
4f00 0593 5b6d 2357 710f 835b 000a 5700
0593 5665 0594 286d 0093 436d 0047 7500
4b6d 004f 6d0a 841c 000f 834b 0000 4300
0047 0000 9354 710a 8428 0000 8356 0005
941a 6d00 834f 0000 934f 791e 8354 000a
4f00 2393 4b71 0594 266d 0584 1a00 0a83
4b00 0f84 2600 0a94 186d 0593 4c71 2383
4c00 2384 1800 0594 2469 0091 4f71 0554
6d00 5b6d 0060 6919 8424 0000 9160 0000
4f00 0054 000a 941c 6d00 915b 000a 4d71
0551 6900 5971 055d 651e 5900 055d 0000
4d00 0551 0014 841c 0000 915b 5d00 9428
6d00 9157 6905 4b6d 004f 6514 5700 054b
0005 8428 0005 941d 6d00 915b 000a 585d
005b 3500 4c5d 285b 0005 4f00 0a58 0000
4c00 0a54 6505 9429 6d00 9148 5505 841d
0019 9154 0005 8429 0000 9148 0005 941e
7105 9145 6d05 516d 2851 0014 4500 0a94
2a71 0091 4c51 0584 1e00 0f91 4c00 0a84
2a00 0a94 1f6d 0591 4361 0048 6900 4561
054f 6900 5169 0554 6900 4059 004c 4519
4c00 0a40 000f 4300 004f 0000 4500 0051
0005 5400 0548 0005 841f 0000 942b 690a
914c 4114 842b 000a 941d 6d23 914c 002d
9429 6d05 841d 0000 9143 7100 406d 0045
6905 4f75 004c 7100 5471 0548 6905 5169
0a84 2900 0a94 1c6d 1491 4800 0045 0000
4000 004c 0005 5400 0551 0005 4300 0a4f
0014 5431 0048 350f 9428 6d00 9147 4505
841c 0000 9145 5100 532d 0051 5514 4359
0584 2800 0091 4800 004f 6105 5400 0594
1a71 0091 4700 0a45 0000 3f71 004b 710f
5300 0f51 0005 4300 0f3f 0000 4b00 054f
000f 9426 7505 9140 6105 841a 0000 914c
6514 8426 0005 9140 0005 9418 7100 934c
7500 914c 0000 941a 2d05 934f 7100 5171
0054 6d1e 8354 000a 5100 054c 000a 841a
0000 834f 000f 8418 0005 9424 6100 9356
1900 9140 7900 9353 5d00 9143 7500 9354
3500 9145 6d00 486d 0f93 5161 0583 5600
0593 4f5d 0584 2400 0591 4500 0594 1c6d
0083 5400 0091 4800 0040 0005 4300 0593
4b7d 0f83 5300 0f51 000a 4f00 0a4b 0014
841c 0000 9428 5905 934b 6105 4e69 0a84
2800 0a83 4b00 054e 0005 941f 7100 9140
6500 4365 0045 6100 4865 0a93 4c61 004f
6119 9148 0000 4500 0040 000a 4300 0f83
4c00 0f4f 0005 942b 5500 9348 6505 841f
0014 2b00 0083 4800 0f94 216d 0593 4b75
004e 7528 834b 0005 4e00 1e94 2d65 0093
4d59 0584 2100 0093 4a5d 1984 2d00 0a94
2271 0091 4061 0043 6100 455d 0048 590a
9348 610f 834d 0005 4a00 0a91 4800 0045
0000 4000 0583 4800 0091 4300 1e84 2200
0594 2e69 0093 4f71 004c 6d00 516d 0054
7119 842e 0000 834c 0005 5100 004f 0005
5400 0594 2169 502d 5d00 934f 7900 9140
6d00 4375 0045 6900 486d 0a84 2100 0093
4c71 0051 7105 5475 0a84 2d00 0a91 4500
0594 1f71 0083 4c00 0091 4800 0083 5400
0091 4000 0a83 5100 0091 4300 0f83 4f00
1e93 5445 0a53 550a 5159 0594 2b61 1484
1f00 0093 4f65 0a84 2b00 0a94 1c75 0091
3f7d 0042 7d00 4561 0048 690a 934b 790a
8353 0014 5100 054b 0000 9148 0005 4500
0583 4f00 0091 3f00 0542 0005 8354 000f
9428 5500 934c 5d00 9140 6d00 4369 0045
5d00 485d 0a84 1c00 0f28 000f 9418 6d00
934f 7100 9148 0005 9354 5d00 9145 0005
4000 0583 4c00 0091 4300 0083 5400 194f
0014 9354 590f 5231 0584 1800 0093 535d
0091 3c75 0094 2459 0091 4075 0043 6500
4745 0048 710a 9351 6500 4e5d 0583 5200
0593 4f65 0583 4e00 0091 4700 0584 2400
0591 3c00 0594 1c69 0093 4b79 0091 4300
0540 000a 4800 0583 5300 0f51 0000 5400
004f 000f 4b00 1e94 2859 0093 4b65 004e
6905 841c 000a 834b 0000 4e00 0f84 2800
0a94 1f6d 0091 3c69 0040 6900 4365 0048
6505 934c 6100 4f5d 1491 3c00 0a40 0000
4300 0a48 0014 834c 000a 4f00 0093 4859
0584 1f00 0094 2b5d 1983 4800 0584 2b00
0a94 216d 0593 4e75 004b 7105 4845 1483
4800 0a4b 000a 4e00 1993 4a61 004d 5505
942d 6505 8421 0019 834d 0005 842d 0005
9422 7500 913c 6900 4065 0043 5d00 4869
0a93 4865 1483 4a00 0591 4000 003c 0005
8348 0000 9143 000f 4800 1984 2200 0094
2e65 0593 4f75 004c 7500 5475 0551 690f
834c 0005 842e 0000 8351 0005 5400 004f
0005 9421 6d50 2d61 0093 4f79 0091 3c75
0040 7100 4369 0048 6d0a 8421 0000 934c
7500 5175 0554 750a 9143 0005 842d 0000
913c 000a 941f 6d00 9140 0005 834c 000f
5100 0091 4800 0083 4f00 0054 003c 942b
5900 935b 5505 5955 0a84 1f00 0093 5855
0057 650f 842b 0005 9354 6d05 941c 7100
9140 4100 4341 0045 4900 483d 0a83 5b00
0059 000a 5800 0091 4500 0093 5071 0591
4800 0043 0005 4000 0f83 5700 0a93 590d
0583 5400 0a50 000a 9428 650a 841c 0000
9351 6505 8359 000f 8428 000a 941d 6d0f
8351 0005 935b 591e 5761 0059 2d0f 835b
0005 5900 0a94 2961 0091 3f75 0043 7100
4565 0048 7105 841d 0014 2900 0593 5819
0091 4500 0593 5625 0091 3f00 0594 1f55
0093 5455 0091 4300 0094 2165 0583 5700
0091 4800 0a83 5800 0556 000a 841f 0000
9351 5d19 8354 000f 5100 0093 5b5d 0584
2100 0594 2d5d 1e84 2d00 0a94 2471 0093
575d 0091 3f65 0043 5d00 4555 0048 5d0a
835b 000f 5700 0093 5651 0558 2d0f 9145
0000 3f00 0583 5800 0091 4800 0543 000a
9354 5d05 8356 000a 9430 6100 913f 5900
436d 0045 5d00 4859 0584 2400 0a93 5159
0a84 3000 0a83 5400 0091 3f00 0594 2671
0091 4300 0045 0000 4800 0a83 5100 0093
5b59 005d 510f 835d 0023 9357 5d14 8426
0000 835b 0000 9432 5d05 8357 0000 9356
4d19 8432 000a 9427 7500 9354 5500 913f
7500 4369 0045 5d00 4869 0f83 5600 0f93
515d 0f91 4500 0043 0005 8354 0000 913f
0000 4800 0f83 5100 0093 5b5d 0f84 2700
0094 3361 1984 3300 0a93 575d 0594 2671
0a83 5b00 0a57 0005 9356 5105 5831 1483
5800 0593 5455 0a83 5600 0f94 3265 0093
515d 0091 3f75 0043 6900 4561 0048 610a
8426 000f 8354 0005 8432 0005 913f 0005
9424 7500 935b 5100 9148 0000 935d 4900
9145 0005 4300 0583 5100 0a5d 0014 9357
6105 583d 1483 5b00 0057 0000 9356 590f
9430 5505 8358 000a 8430 0000 2400 0593
545d 0a83 5600 0a94 2171 0091 3f7d 0042
7900 456d 0048 790a 9351 5905 8354 0014
5100 0a91 4500 0548 0005 3f00 0542 0014
942d 4900 9140 6d00 436d 0045 5d00 4861
0f84 2100 0a2d 000f 9418 7d00 9140 0005
4800 0545 0005 4300 4184 1800 0091 3c71
0094 2469 0091 4071 0043 6900 4451 0048
7505 4400 1984 2400 0091 4300 003c 000a
941c 6d05 9140 0014 4800 3784 1c00 0094
285d 1984 2800 0f94 1f71 0091 3c65 0040
6500 4365 0048 650a 934f 250f 834f 000a
913c 0005 4300 0540 000f 4800 1494 2b61
0093 4f79 0584 1f00 0093 5b75 1984 2b00
0083 4f00 005b 000a 9421 710a 935b 3d00
5771 1483 5b00 0a57 0023 9358 5500 5661
0584 2100 0094 2d61 0a83 5800 0056 0014
842d 000a 9422 7500 913c 6d00 406d 0043
6500 486d 0a93 5b79 0060 7514 913c 0005
835b 0005 6000 0591 4300 0540 000a 4800
0f93 5459 0594 2e65 0584 2200 0a83 5400
0a84 2e00 0f94 2171 0a93 596d 005d 6905
5b59 1983 5b00 0559 0000 5d00 1e93 5771
0594 2d61 0093 5a61 0091 3c6d 0584 2100
0091 4071 0043 6900 486d 0583 5a00 0a57
0005 842d 0000 913c 000a 4000 0043 0005
941f 7505 9358 6100 5b65 0591 4800 2383
5800 055b 0014 934f 610a 942b 6514 841f
0000 834f 000a 842b 000a 941c 7100 9358
7505 5b71 2883 5800 055b 0019 9357 7100
5a69 0594 285d 0584 1c00 0f83 5a00 0057
000a 8428 000a 941a 7505 9356 6100 5965
2883 5900 0556 0014 934f 710a 841a 0000
913e 7900 9426 6100 9141 7d00 4569 0048
711e 8426 0000 834f 000a 941c 6d00 913e
0005 4500 0541 000f 4800 3784 1c00 0094
2859 1e84 2800 0a94 1d71 0091 3e61 0041
6100 4559 0048 592d 4500 003e 000a 4100
1984 1d00 0091 3e61 0094 2961 0091 4175
0045 5d1e 8429 000a 941e 7500 9145 0000
3e00 0a41 0000 4800 4694 2a61 0584 1e00
192a 000a 941f 7150 841f 0000 9143 7100
942b 6100 9147 7d00 4b75 004f 710a 934f
7514 842b 0000 914b 0000 4300 0547 0005
941d 710a 9350 7505 914f 000f 834f 000a
5000 2894 2961 0093 5171 0f84 1d00 0a29
000f 941c 7100 8351 0000 9143 7100 4779
004b 7500 4f71 0a93 5b65 2357 650f 835b
000a 9356 6105 8357 0005 9428 610a 841c
000f 9354 710a 8428 0005 941a 7500 9358
3500 4f69 1483 5600 0058 000a 5400 0f4f
0014 9143 000a 934b 7105 9426 6100 9143
450a 841a 0005 914f 0000 4b00 0547 000a
8426 0005 834b 0000 9143 0005 9418 7500
934c 5d32 834c 0014 934c 7100 5479 004f
7505 8418 0005 9424 5d00 9140 7100 4375
0045 7100 4875 0f40 000f 8424 0000 9143
0000 4500 0a94 1c6d 0091 4800 0583 5400
004c 000f 4f00 1e93 544d 1453 3905 515d
0584 1c00 0094 2861 0593 4e4d 0a4f 610a
8354 000a 8428 0005 941d 7100 934b 7100
9140 6100 435d 0045 5500 4861 0f83 5300
1451 0005 4b00 054e 0000 9145 0005 834f
0000 9140 0005 4300 0048 0014 841d 0005
9429 5d00 934c 4900 9140 5900 436d 0045
6100 485d 1445 0005 4000 0043 0005 8429
0000 9148 000a 941e 7500 9351 652d 834c
0019 5100 0a94 2a61 0584 1e00 0093 4c49
1484 2a00 0083 4c00 0f94 1f6d 0091 4059
0043 6500 4569 0048 590a 934c 6100 5475
1491 4000 0548 0000 4500 0543 000f 834c
0019 841f 0000 934c 4500 942b 6105 8354
001e 842b 0005 9421 7100 9351 6d28 834c
000f 5100 1484 2100 0093 4c6d 0594 2d65
0093 5471 0091 406d 0043 7500 4569 0048
6519 4800 0040 0005 842d 0000 8354 0000
9145 0005 834c 0000 9143 0005 9422 7941
9354 650f 942e 6d00 9353 5905 8422 0000
9351 650f 4f5d 0584 2e00 0f94 2365 0091
3f7d 0094 2429 0091 427d 0045 7100 4875
0a93 4b75 1983 5300 0a51 0000 9148 0000
4500 0583 4b00 054f 0000 913f 000a 4200
0584 2400 0083 5400 0593 4c69 004b 3105
942f 6900 9140 6900 4369 0045 5900 485d
0584 2300 0583 4b00 0f84 2f00 0083 4c00
0591 4500 0548 0000 4000 0594 3061 0091
4300 0094 2459 0a93 4c71 0048 7500 5471
004f 6905 8430 0000 2400 0094 2479 0030
751e 8430 0005 2400 0f83 4c00 054f 0000
4800 0554 0000 914f 5923 4f00 0a94 345d
0037 5d05 9157 6519 5700 1484 3700 0534
000a 9158 5528 5800 0f94 2b61 001f 5d05
915b 6532 842b 0000 915b 000f 841f 000a
914f 5514 4f00 1494 3451 0037 5137 8434
0000 3700 4194 3059 0024 6137 8430 0005
2400 0f91 4f5d 284f 0005 9434 4d00 3749
0f91 5759 1957 0005 8434 0005 3700 1491
584d 0a94 1f61 1e91 5800 0a94 2b4d 0091
5b65 1984 1f00 1491 5b00 1984 2b00 0091
544d 0a94 2155 0a91 5400 1e94 3461 0037
5500 2359 0a84 2100 3c23 000a 3400 0537
0023 9430 5900 245d 3c84 3000 0a24 0032
9434 6900 3c69 5084 3400 0091 5775 0584
3c00 2394 3561 0093 3e55 0091 5700 0094
1f61 0f91 5851 3783 3e00 0091 5800 0060
6905 8435 0000 1f00 2d94 3665 0093 3f5d
0091 5669 005e 6d05 6000 3c5e 000a 5600
0a84 3600 0583 3f00 1e94 3755 0093 4051
0094 245d 0591 5d65 0554 612d 8424 0005
915d 0005 8437 0005 8340 0000 9154 0032
9436 5900 933f 5900 915b 6100 9426 5d00
9152 693c 8426 0000 915b 0005 5200 0f84
3600 0083 3f00 2894 3569 0093 3e65 0091
5865 0094 2861 0091 4f65 284f 0000 5800
1483 3e00 0584 2800 1435 0081 1b94 1d75
0a91 5175 0054 7d05 5779 005b 7505 486d
004b 750a 5100 0a35 4900 3959 003c 4d14
3500 054b 0005 841d 0000 913c 0000 5b00
0051 6905 5700 0594 2961 0091 3900 0035
5d05 4b61 0554 0005 9343 6100 9148 0005
8429 000a 9151 0000 575d 005b 5d05 9344
5d00 9154 2d05 9421 7500 913a 6500 3e61
0f83 4300 0091 4b00 0083 4400 0093 4555
0591 4855 055b 0000 5700 0051 650a 3500
053e 0005 3a00 0a93 485d 0091 5b59 0057
5905 8345 0000 9151 0000 4b65 0f48 0005
942d 6100 9135 5505 8421 0005 8348 0000
9157 0000 9345 5905 915b 0000 5169 0a54
0005 842d 000a 9423 5500 8345 0000 9151
0000 9424 6d00 915b 5d00 3955 003c 5100
575d 0593 4861 0591 4b00 0048 4900 5421
0584 2300 0a91 3500 0557 0000 5400 053c
0000 5b00 0551 6105 8348 0000 9139 0000
9345 5d0a 914b 610a 5100 005b 6100 5761
0583 4500 0091 5439 0548 0005 8424 0000
9348 5d00 9135 5d00 9430 650a 9154 0005
5700 055b 0000 5169 0584 3000 0583 4800
0593 4555 0091 4b00 0594 2675 0091 3a65
003e 6105 5100 005b 5d00 4845 0557 5d0a
8345 0000 9154 3505 9348 5900 9135 000a
5700 055b 0000 5400 0051 6d05 3e00 003a
000a 4b61 0583 4800 0593 454d 0591 5100
005b 5d00 5761 0584 2600 0594 3261 0091
4800 0054 4500 3559 0583 4500 0593 4861
0591 5700 0584 3200 0091 5400 005b 0005
5165 0f94 2775 0091 3951 003c 4d05 8348
0000 9151 0005 9345 4500 915b 5900 5761
054b 0000 5445 0548 4505 3500 0583 4500
0093 4861 0591 3c00 0057 0000 5400 055b
0005 3900 0051 6514 8348 0005 9151 0000
5b55 0057 6105 9345 4500 9154 4d05 9433
6100 9135 5d05 8427 0000 914b 610a 8345
0000 9154 0000 9348 6100 9157 0005 5b00
0548 0000 515d 0584 3300 0a94 2675 0091
3a65 003e 6105 8348 0000 9151 0005 5b51
0057 6105 9345 4500 9154 4d14 9348 6100
9154 0000 5b00 0035 0000 4b00 0057 0005
8345 0000 913a 0000 3e00 0048 4d00 5161
1983 4800 0091 5100 005b 5100 575d 0554
4505 9345 4105 9432 6500 9135 590a 5400
0057 0000 4b6d 0584 2600 0083 4500 0091
5b00 0093 4861 0591 5161 0584 3200 0591
4800 0a94 2475 0091 394d 003c 4905 8348
0000 9157 5d00 5b51 0551 0000 543d 0593
4539 0a91 3500 0593 485d 0091 5b00 0057
0000 5400 053c 0000 4b00 0051 5505 8345
0005 9139 0000 4851 0f83 4800 0091 5100
0057 5500 5b49 0554 2d05 9345 2d0a 9430
6900 915b 0000 355d 0593 4861 0091 5700
0584 2400 0083 4500 0091 514d 0554 0000
4b65 0a84 3000 0583 4800 0091 574d 0093
4539 0091 5b49 0551 0000 4800 0054 1d05
9421 7d00 913a 6100 3e65 0f48 6d00 5161
0583 4500 0091 4f4d 0093 4849 0a91 3e00
053a 0000 5b00 0a4f 0005 8348 000a 9157
0000 5400 0051 0000 3500 0548 0005 4b00
0a94 2d4d 0091 3a3d 003e 4d0a 8421 0005
913a 000a 842d 0000 913e 000f 9418 7d00
9130 5505 5875 004f 7500 4c75 0052 790a
4679 1430 000f 5200 0058 0005 4c00 004f
0005 4600 0f93 4841 0594 2465 0091 305d
0584 1800 1483 4800 0584 2400 0a94 1c71
0093 4a5d 0091 355d 0039 610f 9351 4514
9130 0005 8351 0000 9139 0000 3500 0583
4a00 2394 2859 0093 4b71 0091 305d 0584
1c00 1e28 0005 941f 7500 934a 5900 9134
4500 374d 0583 4b00 0593 5125 1991 3000
0537 0005 3400 0f83 4a00 0593 4849 0a83
5100 0594 2b61 0091 3061 0584 1f00 1483
4800 0584 2b00 0a94 2171 0093 4a69 0091
3365 0593 5159 2391 3000 0583 5100 0091
3300 0583 4a00 1993 5151 004b 7105 8421
0000 9134 4d00 942d 6114 8351 0005 842d
0000 834b 000f 9422 7900 934a 5900 9130
5900 3755 0a93 5131 1491 3400 0a30 000a
834a 0000 9137 000f 8351 0005 9348 5d0a
8422 0000 914f 7d00 942e 6500 915b 7500
3059 0f84 2e00 0583 4800 0591 5b00 004f
000a 934a 6d00 5165 0594 2171 0091 3559
0039 610f 5779 1983 4a00 0051 0005 9157
0000 3000 0035 0000 3900 1993 4b6d 0551
2d05 942d 6900 9158 6100 3051 0a84 2100
0583 5100 0091 5800 1484 2d00 0093 4a59
0594 1f75 0091 344d 0037 5505 9351 2900
915b 7900 6079 0583 4b00 1991 3000 0a83
4a00 0091 6000 0583 5100 0091 3400 0037
0005 5b00 0f93 4855 0091 545d 0a94 2b6d
0091 3061 0a84 1f00 0091 5400 0a83 4800
0f84 2b00 0093 4a6d 0594 1c75 0093 5165
0091 3365 0559 7500 5d71 2383 4a00 0051
0005 915d 0000 5900 0033 000a 3000 0f93
4b75 0091 5771 0093 5145 0091 5a71 0a94
285d 0091 3445 0584 1c00 0591 5700 0583
5100 0091 5a00 0584 2800 0083 4b00 1494
1a79 0093 4a61 0091 3259 0593 512d 0091
3400 0058 6500 5b65 1e5b 0000 3200 0a83
4a00 0091 5800 144f 6105 8351 0000 9348
5d0a 841a 0000 9132 5900 9426 650f 914f
000a 8348 0005 8426 0005 934a 6900 5161
0594 1c75 0091 3559 0058 7500 5b75 2383
4a00 0091 3200 0083 5100 0591 5800 0535
0000 5b00 1493 4b75 0051 4d05 915a 7500
576d 0a84 1c00 0091 3255 0094 2865 0583
5100 0091 5700 055a 000a 834b 000a 8428
0000 934a 5905 9159 7100 566d 0594 1d75
0093 5131 0091 395d 2359 0005 834a 0005
9156 0005 3200 0583 5100 0091 3900 0a93
4855 0091 4f6d 0f84 1d00 0091 3259 0094
2961 1483 4800 0091 4f00 0a84 2900 0093
4a65 0051 610a 941e 7d00 9150 7900 3b61
1e83 5100 0091 5000 0583 4a00 0591 3b00
1951 7105 934b 7100 9132 000a 942a 6100
913b 550a 841e 000f 9151 0005 842a 0000
913b 0005 834b 0000 915b 6d00 9351 4505
941f 7100 934a 6100 9137 591e 5771 0a83
5100 0091 5b00 0a37 0005 834a 0000 9157
0005 5659 0f93 4829 0594 2b65 0091 3755
0a84 1f00 0583 4800 0091 5471 0556 000a
842b 0005 914f 6d05 941d 7500 913a 5900
3b1d 0593 4f71 0054 6d0f 913b 0005 3a00
0554 000a 4f00 0537 0005 834f 0000 5400
1993 4835 0091 4e71 0057 7105 9429 6d00
9137 4900 3b55 0a84 1d00 0583 4800 0091
5700 004e 000a 8429 0005 9137 000a 941c
7500 9137 2d00 3e59 004f 7505 934f 7500
5471 0591 586d 0f37 0000 3b00 0a3e 0005
5800 054f 0005 834f 0000 5400 1493 4849
0591 5771 004e 6d05 9428 6100 9137 5505
841c 000a 8348 0000 914e 0005 5700 0584
2800 0f94 1a79 0091 4061 0056 6d05 934d
7500 914d 7100 9351 691e 9140 000a 834d
0000 914d 0000 8351 0000 9156 0019 934b
6d05 4f5d 0594 2669 0091 3700 004b 7100
4055 0583 4b00 0091 544d 0584 1a00 0583
4f00 0a91 5400 0584 2600 0091 4000 0593
4c69 0091 4b00 0093 4f55 0594 1879 0091
303d 0032 4105 4c65 0554 3d0f 3200 0030
000a 834f 0005 9154 0005 834c 0005 914c
0014 9348 6105 8418 0000 914c 7500 5479
004f 7905 9424 6900 9130 6514 8348 000a
8424 0005 9345 6105 941c 7100 914c 0000
3555 0039 6105 5400 0f4f 000a 8345 0000
9130 000a 3900 0a35 000f 9343 4d05 9152
590a 841c 0000 9130 5500 9428 6505 9152
0000 5161 0a83 4300 0091 4f65 0f84 2800
0093 4871 0a94 1d71 0091 3445 0037 4905
4b79 0551 000f 3000 1437 0000 3400 004b
0005 4f00 0583 4800 0f84 1d00 0a94 2959
0091 4c59 0030 5d19 8429 000f 941e 7900
9151 6d00 3561 0539 6914 4c00 0a30 000f
3500 0039 0005 5100 1984 1e00 0091 4c51
0094 2a5d 0091 304d 1484 2a00 0591 4c00
0f94 1f71 0091 3449 0037 4d05 4c61 0054
7519 3000 0a34 0005 4c00 0037 0019 5400
0593 4579 0594 2b69 0093 4371 0091 3051
0093 486d 0584 1f00 0091 4c59 1483 4300
0045 0005 842b 0005 8348 0005 9421 7100
9135 6100 3961 0551 6d1e 4c00 0539 0000
3000 0035 000f 5100 1984 2100 0093 4575
0091 3041 0094 2d65 0091 4c79 0593 436d
0091 547d 0593 4875 0f83 4500 0584 2d00
0083 4800 0043 000a 9422 7500 9134 5500
3759 0a54 0000 4c00 1930 000a 3400 0537
0005 5445 1453 4d05 942e 6500 9151 6500
3055 0584 2200 0591 4f69 0a84 2e00 0591
5400 0553 000a 9423 7500 914b 7900 3565
0039 650f 5100 1e4b 0000 3000 054f 0000
3900 0535 000f 4c6d 0a94 2f71 0091 3055
0584 2300 1491 4c00 0584 2f00 0a94 1879
0091 3000 0030 5100 3445 0037 510f 4f75
004c 7105 5169 0054 710a 3400 0030 000a
3700 144c 0005 5400 0051 0005 8418 0000
914f 0005 9343 6d05 9424 5500 9130 5100
5461 004c 590a 4f6d 0584 2400 0091 516d
0f83 4300 0591 5100 004c 0000 5400 0594
1c6d 0093 4a6d 0091 4f00 0093 4d65 0091
3559 0039 5923 3000 0539 0005 3500 0583
4a00 004d 0019 934b 7505 9428 5500 934e
6100 9130 590a 841c 0005 834e 0005 4b00
0a84 2800 0a94 1f71 0091 344d 0037 5105
934c 6105 4f55 0091 4f71 0051 6d05 934d
4100 9154 7105 4c6d 0a30 0005 3700 0583
4d00 054f 0000 9134 0005 834c 0005 9151
0000 4f00 004c 0005 5400 0f93 4355 0584
1f00 0091 3061 0094 2b5d 0f83 4300 0f84
2b00 0a94 2171 0091 3369 0a93 4a65 004d
5505 4c55 1483 4c00 0091 3300 0030 000a
834a 0000 4d00 2394 2d61 0093 4b79 0091
4f69 004c 6500 5165 0034 5105 8421 0000
934e 5505 9154 610a 834e 0005 4b00 0584
2d00 0091 5400 004f 0000 5100 004c 000a
9422 6d00 9130 4900 3755 0593 4c69 004f
6d19 9130 0000 3400 0f83 4c00 0091 3700
0583 4f00 1993 4359 0594 2e59 0091 305d
0584 2200 0f2e 0005 8343 000f 9421 6900
9135 5900 3955 0593 4a6d 004d 691e 9130
000a 834a 0000 9139 0005 834d 0000 9135
0019 934b 7105 942d 6100 934e 5900 9130
5905 8421 0005 834b 0005 4e00 0a84 2d00
0f94 1f75 0091 3451 0037 5505 934c 6900
4f69 0591 4e79 0557 7d0f 3000 0a83 4c00
0091 3700 0583 4f00 0091 3400 054e 0005
5700 1493 4355 0594 2b5d 0091 586d 0030
6100 4f69 0f84 1f00 0583 4300 0584 2b00
0091 5800 054f 000a 941c 6900 9133 6505
934d 6900 4a6d 0591 5769 004e 710a 5851
0f58 0000 3000 0033 000a 834a 0000 9157
0005 834d 0000 914e 0019 566d 0594 285d
0093 4b71 0091 4d69 0093 4e61 0091 344d
0a84 1c00 0583 4e00 0591 4d00 0583 4b00
0091 5600 0584 2800 0a94 1871 0091 3059
0037 5105 934c 6500 9154 6d00 4c65 0593
4f61 0091 4f6d 0551 7100 5051 0a34 0005
5000 0530 0005 3700 054c 0005 834c 0000
9154 0005 834f 0000 914f 0000 5100 1484
1800 0091 4f65 0054 6500 4c65 0051 6505
9424 5d00 934f 6d00 9130 5d05 9354 6d05
5669 0583 5600 0a84 2400 0091 4c00 0551
0000 4f00 0054 0005 834f 0000 5400 0594
1c6d 0091 3561 0039 5928 3900 0030 000a
3500 1e84 1c00 0091 3055 0094 2859 1991
4c31 0584 2800 0a94 1f71 0091 3455 0037
5d0a 4f61 0051 6105 5461 0f30 000f 3700
004c 0005 3400 0554 0000 5100 054f 0014
841f 0000 9130 5d00 942b 5919 842b 000f
9421 7100 9133 6928 3300 0030 0028 8421
0000 9134 5100 942d 6905 914c 6d00 4f6d
0054 710a 5165 0f84 2d00 0091 4c00 0a94
2275 0091 5400 0051 0000 4f00 0030 5d00
3759 1934 000f 3000 0537 000a 5b59 0593
4f5d 0a91 5b00 0557 6d05 942e 6500 834f
0000 9130 5d05 8422 0000 934a 6105 9156
6d05 5700 0f84 2e00 0091 5475 0a94 216d
0093 4869 0091 5600 0035 5d00 395d 0583
4a00 0591 4f71 0593 436d 1483 4800 0091
5400 0539 0005 3000 0035 000a 8343 0005
914f 000f 9344 7100 9150 7905 942d 5d00
9130 550a 8421 000a 2d00 0083 4400 0591
5000 0f94 1f6d 0091 3455 0037 5d05 9345
6d00 9151 6d1e 8345 0000 9130 000a 3700
0534 0000 5100 1493 486d 0591 546d 0594
2b61 0091 3061 0f84 1f00 0583 4800 0584
2b00 0091 5400 0a93 4a75 0594 1a65 0091
3365 0094 1c59 0591 5675 0a84 1a00 1991
3300 0f83 4a00 0591 5600 0030 000a 9345
5105 841c 0000 914d 5105 9428 5900 9132
2d00 3435 0a83 4500 0591 4d00 0532 0005
8428 0005 9134 000a 941d 7100 934f 7100
9135 5500 934b 7905 9150 7505 546d 004b
7105 4f69 0052 5905 5155 0f50 0000 3500
0a83 4b00 0091 5200 054b 0005 834f 0005
9151 0000 5400 054f 0005 934f 7105 4b6d
0584 1d00 0091 5475 0094 295d 0091 4b71
0051 6500 3561 0f4f 6d0a 8429 0000 9153
2d05 834b 0000 914b 000a 941f 4900 913a
6100 9421 6500 913e 510f 5300 0535 0005
841f 0000 9151 0000 3a00 003e 0005 5400
004b 6919 5451 0593 4b65 0091 4b00 0051
410a 834f 000a 8421 0000 9135 6100 942d
6105 834b 0005 934f 590a 9154 0000 4b71
0551 0005 842d 000a 9423 4900 9139 5100
9424 6500 913c 4d0a 934b 6100 9154 5905
8423 0000 834f 0000 914b 0005 3500 0051
3d0a 834b 0000 913c 0005 934f 5d05 9139
000a 5400 004b 6d05 5100 1454 5905 9430
5d00 934b 6100 914b 0000 5149 0035 5d05
8424 0000 834f 000a 4b00 0593 4f59 0584
3000 0591 5400 004b 5d0a 9426 7100 9151
0000 3865 0f4b 0000 5459 0051 390a 834f
0005 934b 5500 9135 0005 5400 0038 0005
5100 004b 5905 834b 0000 934f 6114 914b
0000 513d 0554 4105 8426 0005 9432 5d00
9139 550a 834f 0000 9154 0000 5100 0593
4b49 0091 4b45 0a93 4f55 0584 3200 0083
4b00 0591 5459 0051 4d05 9427 7500 914b
0000 3559 003c 5d0a 4b3d 0554 0005 834f
0005 934b 5100 9151 0000 3900 053c 0005
3500 0583 4b00 0091 4b00 0093 4f55 0a91
5135 1493 4b39 0091 5100 0a84 2700 0091
3555 0094 3359 0a83 4b00 0a91 5435 0584
3300 0091 5131 004b 590f 9426 6d00 834f
0000 913a 6900 3e5d 0f51 0014 4b00 0035
0000 3e00 053a 0005 5400 0f4f 0014 9432
6900 9135 4d05 8426 0019 3200 0a94 2471
0091 395d 003c 5d05 4e79 0057 7d19 3500
0a3c 0005 3900 054e 000a 5700 1494 3061
0091 4f69 0058 6900 3561 0584 2400 0f30
0005 9158 0005 4f00 0a94 2175 0091 3865
0a4e 7500 5775 1438 0014 3500 004e 0005
5700 1456 7505 942d 6100 914d 7100 3959
0a84 2100 0a2d 0005 9156 0005 3900 004d
000a 9418 7900 9130 650a 4c5d 0054 6900
4f65 0551 6d19 3000 054c 0000 5400 0f4f
0000 5100 0f4c 6100 5169 0054 6105 8418
0000 9343 7900 9130 6100 9424 5900 934f
710a 914f 650f 5400 004c 0005 8424 0000
8343 0000 914f 0005 5100 0594 1c6d 0091
3561 0039 610a 934b 750a 834f 000a 9130
000a 834b 0000 9139 0005 3500 1e93 4c6d
0584 1c00 0091 3059 0094 2859 1483 4c00
0a84 2800 0a94 1f71 0091 3455 0037 5905
934f 7905 5479 1491 3000 0f37 0000 3400
0583 5400 0a4f 000f 9348 5105 841f 0000
9130 5d00 942b 610a 8348 0014 842b 000a
9421 6d00 9133 6d05 9351 7900 4d79 1e91
3300 0030 000f 8351 0000 4d00 1984 2100
0594 2d65 0093 4b71 0091 3451 0593 4e61
0a83 4e00 0a4b 0005 842d 000a 9422 7500
9130 5d00 375d 0a93 4c61 004f 6105 9134
0019 3700 0030 000f 834c 0000 4f00 1493
4361 0584 2200 0091 305d 0094 2e61 0591
4f7d 005b 790f 842e 0000 8343 000a 914f
0005 5b00 0594 216d 0091 3561 0039 590a
934c 7900 4f75 0a91 5775 0f39 0005 3000
0535 0000 5700 0a83 4c00 004f 0019 942d
5d00 934b 7500 9158 6900 3055 0593 4e69
0584 2100 0583 4e00 0091 5800 0a83 4b00
0584 2d00 0a94 1f71 0091 3459 0037 550a
5b7d 0060 7505 934a 6100 4d65 0f91 3000
0a37 000a 6000 0034 0005 5b00 0583 4d00
054a 0005 9154 590a 942b 6100 9343 5500
9130 610a 841f 0000 9154 000a 8343 000a
842b 000a 941c 6500 9133 6100 941d 6105
9159 7500 5d75 0a93 4871 004c 6d0f 9133
000a 5d00 0059 000f 8348 0000 9130 0005
834c 000f 9157 7500 5a6d 0584 1c00 0091
3449 0084 1d00 0094 2859 0593 4349 0591
5a00 0a84 2800 0091 5700 0a83 4300 0a94
1a75 0091 3265 0558 6105 3400 005b 5d1e
5b00 0032 000a 5800 144f 590a 9426 4d00
9132 5d05 841a 000a 914f 000a 8426 000f
941c 6d00 9135 5d05 5875 005b 751e 3200
0535 0000 5800 055b 0019 5775 005a 710a
9428 5900 9132 5905 841c 000f 915a 0005
5700 0584 2800 0a94 1d71 0091 3961 0a59
5d00 5645 0558 4514 5800 0532 0000 5900
0039 0005 5600 1e4d 6100 4f55 0584 1d00
0091 3259 0094 2961 1491 4f00 004d 0014
8429 0000 913c 5900 941e 7500 9150 791e
5000 003c 0028 3200 0551 7105 942a 6500
913c 550a 841e 0014 2a00 0091 5100 0a94
1f71 0091 3c00 0037 5d05 5b65 1957 6d0a
5b00 0537 000a 5700 0556 5d0f 9347 7d00
4b79 004f 6d05 841f 0000 9137 5900 942b
610a 9154 6d05 5600 0583 4b00 0047 0005
914f 6505 842b 0000 834f 000a 9421 7100
9154 0000 3a65 0a5b 6d05 4f00 1937 0000
3a00 0557 6d0f 5b00 0557 0000 5659 0f84
2100 0093 477d 0091 3b5d 0094 2d61 0593
4b79 004f 7505 9154 610a 5600 054f 6905
842d 0000 9154 000a 9422 7900 9137 5500
3e55 0a5b 6d05 4f00 0583 4b00 004f 0005
4700 0a91 3b00 0a3e 0000 3700 0557 710f
5b00 0056 6505 934f 2500 9157 0005 934b
6500 9158 1d05 942e 6500 9137 5505 8422
0005 834f 0000 9158 0000 5469 0a83 4b00
0091 5600 0093 4a65 0584 2e00 0091 4f65
0f94 2371 0093 4761 0091 5400 0093 4861
0091 3c5d 0040 5d0a 834a 0005 9158 6d05
9343 6d05 8348 0005 9140 0005 3c00 0583
4700 0a43 000a 9158 000a 4f00 0537 0005
8423 0000 9140 3d00 942f 6505 933f 6d0f
914b 7905 4000 0054 4d05 842f 0005 833f
0005 9424 6d0a 9154 0005 4b00 0593 4065
0f91 4c61 0530 5905 5415 0f83 4000 0091
5400 0f4c 0005 9430 6900 9343 7100 9130
0005 8424 0000 9348 6900 914c 6505 4f75
0054 750f 8430 0000 8348 0005 4300 0a94
2279 0091 4c00 0554 000f 4f00 1e54 510f
5255 0a53 3d05 942e 6505 9152 0000 5155
0584 2200 0091 5400 0f4f 6505 842e 000a
9421 6d05 914b 7505 5300 0551 0019 4b00
0a4f 001e 8421 0000 914c 6500 942d 5d19
842d 000f 9420 7500 9151 6919 4c00 2351
000f 4c55 0594 2c61 0584 2000 0f91 4c00
0a84 2c00 0a94 1f71 0091 4c65 0054 7523
4c00 1954 0014 942b 6100 914c 5105 841f
0019 2b00 0a94 1d71 0091 516d 1e4c 0014
5100 1e94 2951 0591 4c79 0584 1d00 0091
547d 0a84 2900 0f91 4c00 0594 1c6d 0091
5400 3754 4d0a 5359 0551 5d0a 9428 6500
934f 7900 547d 0584 1c00 0591 4f65 0a54
000a 8428 0000 9153 000a 941a 7500 914b
7505 834f 0000 5400 0a91 5100 144b 0005
4f00 1e4c 690a 9426 6500 934f 7d05 5479
0584 1a00 0a91 4c00 0a84 2600 0583 5400
004f 0005 9424 7100 9130 5d00 375d 003c
5900 4055 0056 6d0f 5771 0f57 0000 5600
0058 6523 5800 0037 0000 5b59 0593 4369
0091 3000 0040 0000 3c00 0a84 2400 0a91
5851 055b 0005 8343 0014 9424 6900 934a
7100 9158 0000 934d 6900 9130 5d00 375d
003c 6105 4059 005b 5919 5b00 0a83 4a00
0091 5851 0583 4d00 0f91 5800 0037 0000
5b5d 0f93 4b7d 0091 4000 003c 0005 8424
0000 934e 6d00 9130 000a 834e 0000 915b
0005 5851 0583 4b00 0a91 5800 055b 5905
9422 7100 934f 6d00 912e 5500 3a51 003c
5500 4049 0a93 4c69 0f91 5665 055b 0014
595d 0583 4f00 0091 5600 0083 4c00 0591
3a00 0a2e 0000 4000 053c 0005 9343 6105
8422 0000 9159 0000 5651 0f83 4300 0591
5959 0556 000a 9422 6900 912e 6100 3a69
003c 6500 405d 0a93 4e7d 054b 7d05 9159
0000 564d 1959 6105 834e 0000 4b00 0591
5600 143a 0000 4000 003c 0000 5900 0584
2200 0091 5651 0593 4c4d 004a 5100 4d45
0591 2e00 0559 650a 5600 0a83 4c00 004d
0005 9421 6900 912d 4500 394d 003c 4500
4039 0a93 4869 0091 5900 0583 4a00 1491
5869 0583 4800 0f91 2d00 0a3c 0000 3900
0054 5d05 934f 7d00 9140 0000 9354 7d00
9158 0014 8421 0000 9158 5905 5400 1994
216d 0083 5400 0091 5800 002d 6100 3969
003c 6900 4065 0a83 4f00 0091 5445 0093
4865 0f91 585d 0a54 000a 8348 000a 9158
000a 544d 0593 4b7d 0091 3900 0584 2100
0093 4e75 0591 4000 003c 0000 5859 052d
000f 834e 000a 4b00 0091 5800 0a94 2075
0091 2c51 0038 4d00 3c45 0040 390a 934c
5100 9158 5900 934f 5d0f 9154 000f 5800
0a83 4f00 0091 5431 0583 4c00 0591 3800
0593 4351 0091 2c00 0058 4d05 3c00 0040
000a 8420 000a 8343 0005 9158 0014 5855
0594 2079 0093 4e7d 0091 2c65 0093 4b7d
0091 386d 0554 0000 3c65 0040 6119 5425
0a83 4b00 054e 0005 9154 000a 5800 0a84
2000 0093 4a5d 0543 7105 913c 0000 4000
0538 0005 2c00 0f83 4a00 0543 000a 941f
7100 912b 7100 355d 0037 5d00 4065 3793
512d 0591 3700 0035 0005 8351 0000 9140
0005 934f 2500 912b 0005 934b 7105 841f
0005 9157 6905 834f 0000 4b00 0093 4a69
0591 5700 0058 690f 9348 6d0a 834a 0000
9156 4d05 5445 0593 4371 0091 5800 0a4f
6505 5400 0556 0005 8348 000f 4300 0a91
4f00 0f93 4475 0091 5075 1983 4400 0091
5000 1993 4571 0591 5169 2351 0005 8345
000f 9154 7505 9348 791e 8348 0019 934c
6100 9156 5500 934a 6900 9158 5905 5400
0a83 4c00 0a91 5800 0f83 4a00 1493 4365
0591 5600 004f 5d19 8343 0000 914f 0019
5671 0059 6d05 934d 7900 4a75 1e91 5900
0a56 0005 834d 0005 4a00 0a91 4f59 0a93
4361 0f91 4f00 0f83 4300 0f94 1f79 0091
2b71 003b 7500 3e75 0043 6d05 5679 0593
4a79 0091 5975 0093 4d75 3291 5900 0556
0005 834d 0005 4a00 0091 3b00 0584 1f00
0591 4300 003e 0005 2b00 1e94 2479 0091
3075 003c 7500 4071 0043 6d0a 934f 7d00
915b 7d00 934c 7900 9158 792d 5800 005b
000a 3c00 0584 2400 0083 4c00 0091 4300
0040 0005 834f 0000 9130 0000 ff2f 00