%FSTAX24Y24*%
%MOIN*%
%SFA1B1*%

%IPPOS*%
%ADD10R,0.083900X0.078300*%
%ADD11R,0.027600X0.035400*%
%ADD12R,0.069700X0.160200*%
%ADD13R,0.160200X0.069700*%
%ADD14R,0.039800X0.039800*%
%ADD15R,0.043300X0.066900*%
%ADD16R,0.055100X0.043300*%
%ADD17R,0.031500X0.035400*%
%ADD18R,0.141700X0.072800*%
%ADD19C,0.250000*%
%ADD20C,0.125000*%
%ADD21C,0.050000*%
%ADD22C,0.008000*%
%ADD23C,0.010000*%
%ADD24C,0.020000*%
%ADD25C,0.040000*%
%ADD26C,0.085000*%
%ADD27C,0.060000*%
%ADD28C,0.120000*%
%ADD29C,0.150000*%
%ADD30C,0.200000*%
%LNtoasterbigboard-1*%
%LPD*%
G36*
X082203Y037412D02*
X08225Y0367D01*
X082271Y036572*
X082296Y036464*
X082325Y036375*
X082358Y036307*
X082395Y036259*
X08151Y036258*
X081547Y036306*
X081579Y036375*
X081608Y036463*
X081633Y036571*
X081654Y0367*
X081684Y037016*
X081699Y037411*
X081701Y037639*
X082201Y03764*
X082203Y037412*
G37*
G36*
X07559Y031645D02*
X075658Y031612D01*
X075747Y031583*
X075855Y031558*
X075983Y031537*
X076299Y031506*
X076695Y031491*
X076923Y031489*
Y030989*
X076695Y030987*
X075983Y030941*
X075855Y03092*
X075747Y030895*
X075658Y030866*
X07559Y030833*
X075542Y030797*
Y031681*
X07559Y031645*
G37*
G36*
X079111Y028908D02*
X079056Y028948D01*
X078985Y028984*
X078898Y029016*
X078795Y029044*
X078675Y029067*
X07854Y029086*
X078222Y029112*
X07784Y02912*
Y02962*
X078039Y029623*
X07854Y029655*
X078675Y029674*
X078795Y029697*
X078898Y029725*
X078985Y029757*
X079056Y029793*
X079111Y029833*
Y028908*
G37*
G36*
X087132Y03852D02*
X087169Y037962D01*
X087191Y037813*
X087217Y037682*
X087249Y03757*
X087285Y037475*
X087326Y037399*
X087372Y037342*
X086488*
X086534Y037399*
X086575Y037475*
X086611Y03757*
X086643Y037682*
X086669Y037813*
X086691Y037962*
X08672Y038316*
X08673Y038742*
X08713*
X087132Y03852*
G37*
G36*
X090513Y0455D02*
X0912Y0452D01*
X090513Y044*
X08825*
Y04475*
X08925Y04675*
X090513Y0455*
G37*
G36*
X08361Y046102D02*
X08445Y044871D01*
Y044*
X08195*
Y0448*
X081577Y045546*
X081727Y045864*
X083294Y046226*
X083256Y046456*
X08361Y046102*
G37*
G36*
X087083Y039038D02*
X087102Y039031D01*
X087128Y039025*
X08716Y03902*
X087247Y039011*
X087429Y039005*
X087503*
Y038805*
X087429Y038804*
X087128Y038784*
X087102Y038778*
X087083Y038771*
X087071Y038763*
Y039046*
X087083Y039038*
G37*
G54D10*
X07783Y029361D03*
Y031219D03*
G54D11*
X108459Y11275D03*
X10905D03*
X0582D03*
X057609D03*
X091145Y04305D03*
X090555D03*
X088905Y04285D03*
X089495D03*
X084995Y0431D03*
X084405D03*
X082555Y04285D03*
X083145D03*
X109045Y11205D03*
X108455D03*
X057609D03*
X0582D03*
G54D12*
X088199Y040501D03*
Y038702D03*
X081949Y040501D03*
Y038702D03*
G54D13*
X088648Y041851D03*
X082398D03*
G54D14*
X091801Y040052D03*
Y038249D03*
Y03915D03*
X089998Y041851D03*
Y038249D03*
X0909D03*
X091801Y041851D03*
X085551Y040052D03*
Y038249D03*
Y03915D03*
X083748Y041851D03*
Y038249D03*
X08465D03*
X085551Y041851D03*
G54D15*
X091382Y044D03*
X090318D03*
X085232Y04405D03*
X084169D03*
G54D16*
X0869Y039515D03*
Y038885D03*
X0807Y040015D03*
Y039385D03*
G54D17*
X088924Y04365D03*
X089476D03*
X082724Y0436D03*
X083276D03*
G54D18*
X0871Y03143D03*
Y02937D03*
X08535Y03143D03*
Y02937D03*
G54D19*
X0751Y0405D02*
X07783D01*
X0507Y040501D02*
X0751Y0405D01*
X11529Y040501D02*
Y04845D01*
X09426Y040501D02*
X11529D01*
X04088Y105865D02*
X050661D01*
X0408D02*
X04088D01*
X09025Y046D02*
X092615Y048365D01*
X1023*
X1251Y04845D02*
Y077115D01*
X11529Y04845D02*
X1251D01*
X115255Y077115D02*
Y105865D01*
X125035*
X115255Y077115D02*
X1251D01*
X092383Y105865D02*
X102163D01*
X092383Y077115D02*
Y105865D01*
Y077115D02*
X1023D01*
Y048365D02*
Y077115D01*
X063752Y048365D02*
Y077115D01*
Y048365D02*
X077109D01*
X063752Y077115D02*
X073533D01*
X063752Y105865D02*
X073533D01*
Y077115D02*
Y105865D01*
X050661Y077115D02*
Y105865D01*
X04088Y077115D02*
X050661D01*
X04088Y048365D02*
Y077115D01*
Y048365D02*
X050661D01*
Y04054D02*
Y048365D01*
X079635D02*
X08225Y04575D01*
X077109Y048365D02*
X079635D01*
G54D20*
X0751Y031239D02*
Y04045D01*
Y02397D02*
Y031239D01*
Y02397D02*
X087745D01*
X087805*
X07783Y04048D02*
X07785Y0405D01*
X0807Y040501D02*
X081949D01*
X07785Y0405D02*
X0807Y040501D01*
X07953Y02937D02*
X08535D01*
X087735Y02633D02*
Y029235D01*
X08535Y02937D02*
X0871D01*
X091749Y040501D02*
X09426D01*
X08693Y0369D02*
X088199D01*
X08195Y03405D02*
Y03585D01*
Y03405D02*
X0843Y0317D01*
X08535*
X081949Y040501D02*
X08645D01*
X088199Y034549D02*
Y0369D01*
X0871Y03345D02*
X088199Y034549D01*
X0871Y03175D02*
Y03345D01*
Y02937D02*
X0876D01*
X08645Y040501D02*
X088199D01*
X091749*
G54D21*
X0751Y031239D02*
X07782D01*
X07784Y02937D02*
X07953D01*
X081949Y038702D02*
X08195Y03585D01*
X0807Y03895D02*
Y0392D01*
Y03895D02*
X080948Y038702D01*
X081949*
X08525Y0425D02*
X08645D01*
X0924Y041152D02*
Y04215D01*
X091749Y040501D02*
X0924Y041152D01*
X091145Y04305D02*
X0915D01*
X0924Y04215*
X08645Y040501D02*
Y0425D01*
X085182Y042568D02*
Y043182D01*
G54D22*
X115255Y105865D02*
Y11275D01*
X10905D02*
X115255D01*
X10905Y105865D02*
Y11205D01*
X102163Y105865D02*
X10905D01*
X057609Y105759D02*
X063647D01*
X057609D02*
Y11205D01*
X050661Y112711D02*
X05757D01*
X050661Y105865D02*
Y112711D01*
G54D23*
X108449Y11202D02*
Y11279D01*
X0582Y11205D02*
Y11275D01*
X0501Y11795D02*
X0505D01*
X0503*
Y11735*
X051Y11795D02*
X0508D01*
X0507Y11785*
Y11745*
X0508Y11735*
X051*
X0511Y11745*
Y11785*
X051Y11795*
X0513Y11735D02*
Y11795D01*
X0516*
X051699Y11785*
Y11765*
X0516Y11755*
X0513*
G54D24*
X0876Y02937D02*
X08769Y02946D01*
X0876Y02937D02*
D01*
X08693Y038905D02*
X087996D01*
G54D25*
X08693Y0369D02*
Y038905D01*
X089495Y042605D02*
Y04285D01*
Y042605D02*
X089998Y042102D01*
Y041851D02*
Y042102D01*
X084355Y042595D02*
X085099Y041851D01*
X085551*
X08365Y0431D02*
X084355D01*
X08365D02*
Y0436D01*
X083276D02*
X08365D01*
X083145Y042755D02*
X083748Y042152D01*
Y041851D02*
Y042152D01*
X089476Y04365D02*
X090076Y04305D01*
X090555*
X091099Y041851D02*
X091801D01*
X090555Y042395D02*
X091099Y041851D01*
X090555Y042395D02*
Y04305D01*
X084355Y042595D02*
Y0431D01*
X0869Y039495D02*
Y040251D01*
G54D26*
X082398Y041851D02*
Y044381D01*
X088648Y044248D02*
X0888Y0444D01*
X09015*
Y04465*
X088648Y041851D02*
Y044248D01*
X09015Y04465D02*
X09025Y04475D01*
Y046*
G54D27*
X085182Y043182D02*
Y044D01*
X091382Y043331D02*
Y044D01*
G54D28*
X089595Y02515D03*
X087745Y02633D03*
Y02397D03*
G54D29*
X087745Y02219D03*
G54D30*
X073533Y105865D03*
X063752D03*
X04088D03*
X050661D03*
X073533Y077115D03*
X063752D03*
X04088D03*
X050661D03*
X073533Y048365D03*
X063752D03*
X04088D03*
X050661D03*
X092383Y105865D03*
X102163D03*
X125035D03*
X115255D03*
X092383Y077115D03*
X102163D03*
X125035D03*
X115255D03*
X092383Y048365D03*
X102163D03*
X125035D03*
X115255D03*
M02*