%FSTAX24Y24*%
%MOIN*%
%SFA1B1*%

%IPPOS*%
%ADD23C,0.010000*%
%ADD31C,0.007900*%
%LNtoasterbigboard-1*%
%LPD*%
G54D23*
X08972Y02596D02*
Y02711D01*
Y02111D02*
Y02421D01*
X08612Y02712D02*
X086795D01*
X08612Y02112D02*
Y02712D01*
Y02112D02*
X086745D01*
Y02712D02*
X08967D01*
X086745Y02112D02*
X08967D01*
X07638Y02859D02*
Y02898D01*
X07617Y02878D02*
X07658D01*
X062143Y107065D02*
X075142D01*
X062143Y104603D02*
Y107065D01*
X075192Y104615D02*
Y107065D01*
X062143Y104615D02*
X075192D01*
X039271D02*
X05232D01*
Y107065*
X039271Y104603D02*
Y107065D01*
X05227*
X062143Y078315D02*
X075142D01*
X062143Y075853D02*
Y078315D01*
X075192Y075865D02*
Y078315D01*
X062143Y075865D02*
X075192D01*
X039271D02*
X05232D01*
Y078315*
X039271Y075853D02*
Y078315D01*
X05227*
X062143Y049565D02*
X075142D01*
X062143Y047103D02*
Y049565D01*
X075192Y047115D02*
Y049565D01*
X062143Y047115D02*
X075192D01*
X039271D02*
X05232D01*
Y049565*
X039271Y047103D02*
Y049565D01*
X05227*
X090773Y104665D02*
X103773D01*
Y107127*
X090723Y104665D02*
Y107115D01*
X103773*
X113595D02*
X126645D01*
X113595Y104665D02*
Y107115D01*
X126645Y104665D02*
Y107127D01*
X113645Y104665D02*
X126645D01*
X090773Y075915D02*
X103773D01*
Y078377*
X090723Y075915D02*
Y078365D01*
X103773*
X113595D02*
X126645D01*
X113595Y075915D02*
Y078365D01*
X126645Y075915D02*
Y078377D01*
X113645Y075915D02*
X126645D01*
X090773Y047165D02*
X103773D01*
Y049627*
X090723Y047165D02*
Y049615D01*
X103773*
X113595D02*
X126645D01*
X113595Y047165D02*
Y049615D01*
X126645Y047165D02*
Y049627D01*
X113645Y047165D02*
X126645D01*
X0924Y03765D02*
Y04245D01*
X0876D02*
X0924D01*
X0876Y03765D02*
Y04245D01*
Y03765D02*
X0924D01*
X08615D02*
Y04245D01*
X08135D02*
X08615D01*
X08135Y03765D02*
Y04245D01*
Y03765D02*
X08615D01*
X086549Y029888D02*
Y030912D01*
X087651Y029888D02*
Y030912D01*
X084799Y029888D02*
Y030912D01*
X085901Y029888D02*
Y030912D01*
X09117Y05058D02*
X09097D01*
X09107*
Y05008*
X09097Y04998*
X09087*
X09077Y05008*
X09177Y05058D02*
X09157Y05048D01*
X09137Y05028*
Y05008*
X09147Y04998*
X09167*
X09177Y05008*
Y05018*
X09167Y05028*
X09137*
X09117Y07933D02*
X09097D01*
X09107*
Y07883*
X09097Y07873*
X09087*
X09077Y07883*
X09177Y07933D02*
X09137D01*
Y07903*
X09157Y07913*
X09167*
X09177Y07903*
Y07883*
X09167Y07873*
X09147*
X09137Y07883*
X059605Y11225D02*
Y11285D01*
X059305*
X059205Y11275*
Y11235*
X059305Y11225*
X059605*
X059005Y11285D02*
X058805D01*
X058905*
Y11225*
X059005Y11235*
X108055Y1123D02*
Y1129D01*
X107755*
X107655Y1128*
Y1124*
X107755Y1123*
X108055*
X107055Y1129D02*
X107455D01*
X107055Y1125*
Y1124*
X107155Y1123*
X107355*
X107455Y1124*
X059595Y11169D02*
Y11109D01*
X059295*
X059195Y11119*
Y11139*
X059295Y11149*
X059595*
X059395D02*
X059195Y11169D01*
X058595D02*
X058995D01*
X058595Y11129*
Y11119*
X058695Y11109*
X058895*
X058995Y11119*
X10805Y11194D02*
Y11134D01*
X10775*
X10765Y11144*
Y11164*
X10775Y11174*
X10805*
X10785D02*
X10765Y11194D01*
X10745Y11134D02*
X10705D01*
Y11144*
X10745Y11184*
Y11194*
X08193Y04449D02*
X08183Y04459D01*
X08163*
X08153Y04449*
Y04409*
X08163Y04399*
X08183*
X08193Y04409*
X08213Y04399D02*
X08233D01*
X08223*
Y04459*
X08213Y04449*
X0797Y0396D02*
X0796Y0395D01*
Y0393*
X0797Y0392*
X0801*
X0802Y0393*
Y0395*
X0801Y0396*
X0802Y0402D02*
Y0398D01*
X0798Y0402*
X0797*
X0796Y0401*
Y0399*
X0797Y0398*
X08519Y04506D02*
X08509Y04516D01*
X08489*
X08479Y04506*
Y04466*
X08489Y04456*
X08509*
X08519Y04466*
X08539Y04506D02*
X08549Y04516D01*
X08569*
X08579Y04506*
Y04496*
X08569Y04486*
X08559*
X08569*
X08579Y04476*
Y04466*
X08569Y04456*
X08549*
X08539Y04466*
X08757Y04453D02*
X08747Y04463D01*
X08727*
X08717Y04453*
Y04413*
X08727Y04403*
X08747*
X08757Y04413*
X08807Y04403D02*
Y04463D01*
X08777Y04433*
X08817*
X08697Y03797D02*
X08707Y03787D01*
X08727*
X08737Y03797*
Y03837*
X08727Y03847*
X08707*
X08697Y03837*
X08637Y03787D02*
X08677D01*
Y03817*
X08657Y03807*
X08647*
X08637Y03817*
Y03837*
X08647Y03847*
X08667*
X08677Y03837*
X09098Y04504D02*
X09088Y04514D01*
X09068*
X09058Y04504*
Y04464*
X09068Y04454*
X09088*
X09098Y04464*
X09158Y04514D02*
X09138Y04504D01*
X09118Y04484*
Y04464*
X09128Y04454*
X09148*
X09158Y04464*
Y04474*
X09148Y04484*
X09118*
X08393Y03255D02*
Y03215D01*
X08423*
Y03235*
Y03215*
X08453*
Y03275D02*
Y03295D01*
Y03285*
X08393*
X08403Y03275*
X08793Y03262D02*
Y03222D01*
X08823*
Y03242*
Y03222*
X08853*
Y03322D02*
Y03282D01*
X08813Y03322*
X08803*
X08793Y03312*
Y03292*
X08803Y03282*
X0857Y02588D02*
X0851D01*
Y02618*
X0852Y02628*
X0854*
X0855Y02618*
Y02588*
X0857Y02648D02*
Y02668D01*
Y02658*
X0851*
X0852Y02648*
X08218Y04274D02*
X08158D01*
Y04304*
X08168Y04314*
X08188*
X08198Y04304*
Y04274*
Y04294D02*
X08218Y04314D01*
Y04334D02*
Y04354D01*
Y04344*
X08158*
X08168Y04334*
X08612Y04269D02*
X08552D01*
Y04299*
X08562Y04309*
X08582*
X08592Y04299*
Y04269*
Y04289D02*
X08612Y04309D01*
X08562Y04329D02*
X08552Y04339D01*
Y04359*
X08562Y04369*
X08572*
X08582Y04359*
Y04349*
Y04359*
X08592Y04369*
X08602*
X08612Y04359*
Y04339*
X08602Y04329*
X08797Y04271D02*
X08737D01*
Y04301*
X08747Y04311*
X08767*
X08777Y04301*
Y04271*
Y04291D02*
X08797Y04311D01*
X08737Y04371D02*
Y04331D01*
X08767*
X08757Y04351*
Y04361*
X08767Y04371*
X08787*
X08797Y04361*
Y04341*
X08787Y04331*
X09232Y04269D02*
X09172D01*
Y04299*
X09182Y04309*
X09202*
X09212Y04299*
Y04269*
Y04289D02*
X09232Y04309D01*
X09172Y04369D02*
X09182Y04349D01*
X09202Y04329*
X09222*
X09232Y04339*
Y04359*
X09222Y04369*
X09212*
X09202Y04359*
Y04329*
X084Y03735D02*
Y03685D01*
X0841Y03675*
X0843*
X0844Y03685*
Y03735*
X0846Y03675D02*
X0848D01*
X0847*
Y03735*
X0846Y03725*
X0906Y0373D02*
Y0368D01*
X0907Y0367*
X0909*
X091Y0368*
Y0373*
X0916Y0367D02*
X0912D01*
X0916Y0371*
Y0372*
X0915Y0373*
X0913*
X0912Y0372*
X09117Y10808D02*
X09097D01*
X09107*
Y10758*
X09097Y10748*
X09087*
X09077Y10758*
X09167Y10748D02*
Y10808D01*
X09137Y10778*
X09177*
X03972Y05052D02*
X03952D01*
X03962*
Y05002*
X03952Y04992*
X03942*
X03932Y05002*
X03992Y05042D02*
X04002Y05052D01*
X04022*
X04032Y05042*
Y05032*
X04022Y05022*
X04012*
X04022*
X04032Y05012*
Y05002*
X04022Y04992*
X04002*
X03992Y05002*
X03972Y07926D02*
X03952D01*
X03962*
Y07876*
X03952Y07866*
X03942*
X03932Y07876*
X04032Y07866D02*
X03992D01*
X04032Y07906*
Y07916*
X04022Y07926*
X04002*
X03992Y07916*
X03972Y10802D02*
X03952D01*
X03962*
Y10752*
X03952Y10742*
X03942*
X03932Y10752*
X03992Y10742D02*
X04012D01*
X04002*
Y10802*
X03992Y10792*
X0257Y028716D02*
X0256Y028816D01*
X0254*
X0253Y028716*
Y028616*
X0254Y028516*
X0256*
X0257Y028416*
Y028316*
X0256Y028216*
X0254*
X0253Y028316*
X0259Y028216D02*
X0261D01*
X026*
Y028816*
X0259Y028716*
X139325Y1116D02*
X139225Y1117D01*
X139025*
X138925Y1116*
Y1115*
X139025Y1114*
X139225*
X139325Y1113*
Y1112*
X139225Y1111*
X139025*
X138925Y1112*
X139925Y1111D02*
X139525D01*
X139925Y1115*
Y1116*
X139825Y1117*
X139625*
X139525Y1116*
X0253Y11105D02*
X0252Y11115D01*
X025*
X0249Y11105*
Y11095*
X025Y11085*
X0252*
X0253Y11075*
Y11065*
X0252Y11055*
X025*
X0249Y11065*
X0255Y11105D02*
X0256Y11115D01*
X0258*
X0259Y11105*
Y11095*
X0258Y11085*
X0257*
X0258*
X0259Y11075*
Y11065*
X0258Y11055*
X0256*
X0255Y11065*
X13975Y0282D02*
X13965Y0283D01*
X13945*
X13935Y0282*
Y0281*
X13945Y028*
X13965*
X13975Y0279*
Y0278*
X13965Y0277*
X13945*
X13935Y0278*
X14025Y0277D02*
Y0283D01*
X13995Y028*
X14035*
X02535Y08885D02*
X02525Y08895D01*
X02505*
X02495Y08885*
Y08875*
X02505Y08865*
X02525*
X02535Y08855*
Y08845*
X02525Y08835*
X02505*
X02495Y08845*
X02595Y08895D02*
X02555D01*
Y08865*
X02575Y08875*
X02585*
X02595Y08865*
Y08845*
X02585Y08835*
X02565*
X02555Y08845*
X1398Y05085D02*
X1397Y05095D01*
X1395*
X1394Y05085*
Y05075*
X1395Y05065*
X1397*
X1398Y05055*
Y05045*
X1397Y05035*
X1395*
X1394Y05045*
X1404Y05095D02*
X1402Y05085D01*
X14Y05065*
Y05045*
X1401Y05035*
X1403*
X1404Y05045*
Y05055*
X1403Y05065*
X14*
X13965Y08905D02*
X13955Y08915D01*
X13935*
X13925Y08905*
Y08895*
X13935Y08885*
X13955*
X13965Y08875*
Y08865*
X13955Y08855*
X13935*
X13925Y08865*
X13985Y08915D02*
X14025D01*
Y08905*
X13985Y08865*
Y08855*
X02545Y05095D02*
X02535Y05105D01*
X02515*
X02505Y05095*
Y05085*
X02515Y05075*
X02535*
X02545Y05065*
Y05055*
X02535Y05045*
X02515*
X02505Y05055*
X02565Y05095D02*
X02575Y05105D01*
X02595*
X02605Y05095*
Y05085*
X02595Y05075*
X02605Y05065*
Y05055*
X02595Y05045*
X02575*
X02565Y05055*
Y05065*
X02575Y05075*
X02565Y05085*
Y05095*
X02575Y05075D02*
X02595D01*
X07658Y03299D02*
X07648Y03309D01*
X07628*
X07618Y03299*
Y03259*
X07628Y03249*
X07648*
X07658Y03259*
X07678Y03309D02*
X07718D01*
Y03299*
X07678Y03259*
Y03249*
X078279D02*
Y03309D01*
X077979Y03279*
X078379*
X078579Y03309D02*
X078979D01*
Y03299*
X078579Y03259*
Y03249*
X079179Y03289D02*
Y03259D01*
X079279Y03249*
X079579*
Y03289*
X080179Y03309D02*
X079779D01*
Y03279*
X079979*
X079779*
Y03249*
G54D31*
X07783Y028404D02*
X078814D01*
Y032176*
X076846D02*
X078814D01*
X076846Y028404D02*
Y032176D01*
Y028404D02*
X07783D01*
X108676Y112888D02*
X108833D01*
X108676Y112612D02*
X108833D01*
X057826D02*
X057983D01*
X057826Y112888D02*
X057983D01*
X090693Y043705D02*
X091007D01*
X090693Y044295D02*
X091007D01*
X084543Y043755D02*
X084857D01*
X084543Y044345D02*
X084857D01*
X090771Y042912D02*
X090929D01*
X090771Y043188D02*
X090929D01*
X089121Y042988D02*
X089279D01*
X089121Y042712D02*
X089279D01*
X084621Y042962D02*
X084779D01*
X084621Y043238D02*
X084779D01*
X082771Y042988D02*
X082929D01*
X082771Y042712D02*
X082929D01*
X108671Y111912D02*
X108829D01*
X108671Y112188D02*
X108829D01*
X057826D02*
X057983D01*
X057826Y111912D02*
X057983D01*
M02*