%FSTAX24Y24*%
%MOIN*%
%SFA1B1*%

%IPPOS*%
%ADD10R,0.083900X0.078300*%
%ADD11R,0.027600X0.035400*%
%ADD12R,0.069700X0.160200*%
%ADD13R,0.160200X0.069700*%
%ADD14R,0.039800X0.039800*%
%ADD15R,0.043300X0.066900*%
%ADD16R,0.055100X0.043300*%
%ADD17R,0.031500X0.035400*%
%ADD18R,0.141700X0.072800*%
%LNtoasterbigboard-1*%
%LPD*%
G54D10*
X07783Y029361D03*
Y031219D03*
G54D11*
X108459Y11275D03*
X10905D03*
X0582D03*
X057609D03*
X091145Y04305D03*
X090555D03*
X088905Y04285D03*
X089495D03*
X084995Y0431D03*
X084405D03*
X082555Y04285D03*
X083145D03*
X109045Y11205D03*
X108455D03*
X057609D03*
X0582D03*
G54D12*
X088199Y040501D03*
Y038702D03*
X081949Y040501D03*
Y038702D03*
G54D13*
X088648Y041851D03*
X082398D03*
G54D14*
X091801Y040052D03*
Y038249D03*
Y03915D03*
X089998Y041851D03*
Y038249D03*
X0909D03*
X091801Y041851D03*
X085551Y040052D03*
Y038249D03*
Y03915D03*
X083748Y041851D03*
Y038249D03*
X08465D03*
X085551Y041851D03*
G54D15*
X091382Y044D03*
X090318D03*
X085232Y04405D03*
X084169D03*
G54D16*
X0869Y039515D03*
Y038885D03*
X0807Y040015D03*
Y039385D03*
G54D17*
X088924Y04365D03*
X089476D03*
X082724Y0436D03*
X083276D03*
G54D18*
X0871Y03143D03*
Y02937D03*
X08535Y03143D03*
Y02937D03*
M02*