%FSTAX24Y24*%
%MOIN*%
%SFA1B1*%

%IPPOS*%
%ADD45C,0.003900*%
%LNtoasterbigboard-1*%
%LPD*%
G54D45*
X108282Y112533D02*
Y112967D01*
X109227Y112533D02*
Y112967D01*
X108282D02*
X109227D01*
X108282Y112533D02*
X109227D01*
X108568Y11275D02*
X108942D01*
X108755Y112563D02*
Y112937D01*
X058377Y112533D02*
Y112967D01*
X057432Y112533D02*
Y112967D01*
Y112533D02*
X058377D01*
X057432Y112967D02*
X058377D01*
X057718Y11275D02*
X058092D01*
X057905Y112563D02*
Y112937D01*
X091637Y043626D02*
Y044374D01*
X090063Y043626D02*
Y044374D01*
Y043626D02*
X091637D01*
X090063Y044374D02*
X091637D01*
X090653Y044D02*
X091047D01*
X09085Y043803D02*
Y044197D01*
X085487Y043676D02*
Y044424D01*
X083913Y043676D02*
Y044424D01*
Y043676D02*
X085487D01*
X083913Y044424D02*
X085487D01*
X084503Y04405D02*
X084897D01*
X0847Y043853D02*
Y044247D01*
X086585Y039781D02*
X087215D01*
X086585Y038619D02*
X087215D01*
Y038649D02*
Y039751D01*
X086585Y038649D02*
Y039751D01*
X0869Y039003D02*
Y039397D01*
X086703Y0392D02*
X087097D01*
X080385Y040281D02*
X081015D01*
X080385Y039119D02*
X081015D01*
Y039149D02*
Y040251D01*
X080385Y039149D02*
Y040251D01*
X0807Y039503D02*
Y039897D01*
X080503Y0397D02*
X080897D01*
X088728Y043433D02*
Y043867D01*
X089672Y043433D02*
Y043867D01*
X088728D02*
X089672D01*
X088728Y043433D02*
X089672D01*
X089013Y04365D02*
X089387D01*
X0892Y043463D02*
Y043837D01*
X082528Y043383D02*
Y043817D01*
X083472Y043383D02*
Y043817D01*
X082528D02*
X083472D01*
X082528Y043383D02*
X083472D01*
X082813Y0436D02*
X083187D01*
X083Y043413D02*
Y043787D01*
X091322Y042833D02*
Y043267D01*
X090378Y042833D02*
Y043267D01*
Y042833D02*
X091322D01*
X090378Y043267D02*
X091322D01*
X090663Y04305D02*
X091037D01*
X09085Y042863D02*
Y043237D01*
X088728Y042633D02*
Y043067D01*
X089672Y042633D02*
Y043067D01*
X088728D02*
X089672D01*
X088728Y042633D02*
X089672D01*
X089013Y04285D02*
X089387D01*
X0892Y042663D02*
Y043037D01*
X085172Y042883D02*
Y043317D01*
X084228Y042883D02*
Y043317D01*
Y042883D02*
X085172D01*
X084228Y043317D02*
X085172D01*
X084513Y0431D02*
X084887D01*
X0847Y042913D02*
Y043287D01*
X082378Y042633D02*
Y043067D01*
X083322Y042633D02*
Y043067D01*
X082378D02*
X083322D01*
X082378Y042633D02*
X083322D01*
X082663Y04285D02*
X083037D01*
X08285Y042663D02*
Y043037D01*
X109222Y111833D02*
Y112267D01*
X108278Y111833D02*
Y112267D01*
Y111833D02*
X109222D01*
X108278Y112267D02*
X109222D01*
X108563Y11205D02*
X108937D01*
X10875Y111863D02*
Y112237D01*
X057432Y111833D02*
Y112267D01*
X058377Y111833D02*
Y112267D01*
X057432D02*
X058377D01*
X057432Y111833D02*
X058377D01*
X057718Y11205D02*
X058092D01*
X057905Y111863D02*
Y112237D01*
M02*