%FSTAX23Y23*%
%MOIN*%
%SFA1B1*%

%IPPOS*%
%AMD49*
4,1,4,0.000000,-0.041700,0.041700,0.000000,0.000000,0.041700,-0.041700,0.000000,0.000000,-0.041700,0.0*
%
%ADD10C,0.008000*%
%ADD11C,0.010000*%
%ADD42C,0.040000*%
%ADD45C,0.040000*%
%ADD46C,0.025000*%
%ADD48C,0.059100*%
G04~CAMADD=49~10~0.0~590.4~0.0~0.0~0.0~0.0~0~0.0~0.0~0.0~0.0~0~0.0~0.0~0.0~0.0~0~0.0~0.0~0.0~225.0~590.4~0.0*
%ADD49D49*%
%ADD50C,0.055100*%
%ADD51C,0.050000*%
%ADD52C,0.035000*%
%ADD53C,0.089000*%
%ADD54C,0.175000*%
%ADD55C,0.915000*%
%ADD56C,0.026000*%
%ADD57R,0.052000X0.044000*%
%LNronemotorboard-v8-1*%
%LPD*%
G36*
X05234Y03228D02*
Y03199D01*
X05195*
X05192Y03204*
X05183Y0321*
X05174Y03212*
X05164Y0321*
X05155Y03204*
X0515Y03196*
X05148Y03186*
X0515Y03176*
X05155Y03167*
X05164Y03162*
X05174Y0316*
X05183Y03162*
X05192Y03167*
X05195Y03172*
X05234*
Y03055*
X05129Y02932*
X05129Y02932*
X05124Y02933*
X05123Y02943*
X05117Y02951*
X05109Y02957*
X05099Y02959*
X05089Y02957*
X0508Y02951*
X05075Y02943*
X05073Y02933*
X05075Y02923*
X0508Y02914*
X05089Y02909*
X05099Y02907*
X05103Y02907*
X05105Y02903*
X05023Y02806*
X0488Y02755*
X04876Y02757*
X04875Y02762*
X04869Y02771*
X04864Y02774*
Y02824*
X04869Y02827*
X04875Y02836*
X04877Y02846*
X04875Y02856*
X04869Y02864*
X0486Y0287*
X04851Y02872*
X04841Y0287*
X04832Y02864*
X04827Y02856*
X04825Y02846*
X04827Y02836*
X04832Y02827*
X04837Y02824*
Y02774*
X04832Y02771*
X04827Y02762*
X04825Y02753*
X04827Y02743*
X04828Y02741*
X04826Y02736*
X04648Y02673*
X04523Y02671*
X04521Y02676*
X04529Y02686*
X04538Y02703*
X04544Y02721*
X04546Y0274*
X04544Y02758*
X04538Y02776*
X04529Y02793*
X04517Y02807*
X04503Y02819*
X04486Y02828*
X04468Y02834*
X04455Y02835*
X0445Y0286*
X04437Y02899*
X04422Y02936*
X04403Y02973*
X04381Y03007*
X04356Y03039*
X04329Y03069*
X0432Y03078*
Y0309*
X04325Y03091*
Y03091*
X0433Y03082*
X04339Y03077*
X04344Y03076*
Y03101*
Y03126*
X04339Y03125*
X0433Y03119*
X04325Y0311*
X0432Y03111*
Y03395*
X04325Y034*
X04569*
X04571Y03396*
X04506Y0333*
X04501Y03324*
X045Y03316*
Y0329*
X04498Y03288*
X0445*
X04445Y03287*
X04441Y03284*
X04389Y03232*
X04386Y03228*
X04385Y03224*
Y03022*
X04386Y03017*
X04389Y03013*
X04439Y02963*
X04443Y0296*
X04448Y02959*
X04584*
X04587Y02954*
X04596Y02949*
X04606Y02947*
X04616Y02949*
X04624Y02954*
X0463Y02963*
X04632Y02973*
X0463Y02982*
X04624Y02991*
X04616Y02997*
X04606Y02999*
X04596Y02997*
X04587Y02991*
X04582Y02984*
X04453*
X0441Y03027*
Y03218*
X04455Y03263*
X04498*
X04502Y03257*
X04511Y03252*
X04521Y0325*
X04531Y03252*
X04539Y03257*
X04545Y03266*
X04547Y03276*
X04545Y03285*
X04541Y0329*
Y03307*
X04599Y03365*
X04942*
X04977Y03329*
X04977Y03328*
X04979Y03318*
X0498Y03317*
Y03154*
X04952Y03126*
X04935*
X04931Y0313*
X04921Y03132*
X04911Y0313*
X04902Y03124*
X04897Y03116*
X04895Y03106*
X04897Y03096*
X04902Y03087*
X04911Y03082*
X04921Y0308*
X04931Y03082*
X04935Y03085*
X04961*
X04969Y03086*
X04975Y03091*
X05015Y03131*
X05018Y03135*
X0502Y03138*
X05021Y03146*
Y0331*
X05027Y03318*
X05029Y03328*
X05027Y03338*
X05021Y03346*
X05015Y03351*
X0497Y03396*
X04972Y034*
X05061*
X05234Y03228*
G37*
G36*
X03218Y03373D02*
X03222Y0337D01*
X03227Y03369*
X0325*
X03282Y03338*
Y03333*
X0323Y03282*
X03101*
X03096Y03281*
X03092Y03278*
X02977Y03164*
X02973Y03165*
X02963Y03163*
X02954Y03157*
X02949Y03149*
X02947Y03139*
X02949Y03129*
X02954Y0312*
X02963Y03115*
X02973Y03113*
X02982Y03115*
X02991Y0312*
X02997Y03129*
X02999Y03139*
X02997Y03148*
X03106Y03257*
X03221*
X03223Y03253*
X03223Y03252*
X0322Y03248*
X03219Y03243*
Y0324*
X03213Y03236*
X03207Y03228*
X03205Y03218*
X03207Y03208*
X03213Y03199*
X03221Y03194*
X03231Y03192*
X03241Y03194*
X0325Y03199*
X03255Y03208*
X03257Y03218*
X03255Y03228*
X0325Y03236*
X03248Y03237*
X03248Y03242*
X03249Y03244*
X03251Y03245*
X03313Y03307*
X03405Y03216*
Y03166*
X03346Y03108*
X03344Y03104*
X03343Y031*
X03343Y03097*
Y03046*
X03318Y03021*
X03313Y03022*
X03313Y03025*
X03307Y03034*
X03298Y0304*
X03294Y03041*
Y03016*
X03289*
Y03011*
X03264*
X03265Y03006*
X0327Y02997*
X03279Y02992*
X03282Y02991*
X03283Y02986*
X03277Y0298*
X02987*
X02953Y03013*
X02955Y0302*
X02953Y03029*
X02947Y03038*
X02939Y03044*
X02929Y03046*
X02919Y03044*
X0291Y03038*
X02905Y03029*
X02903Y0302*
X02905Y0301*
X0291Y03001*
X02919Y02996*
X02929Y02994*
X02937Y02995*
X02964Y02967*
X02962Y02963*
X02891*
X02872Y02981*
X02874Y02988*
X02872Y02998*
X02866Y03006*
X02857Y03012*
X02848Y03014*
X02838Y03012*
X02829Y03006*
X02824Y02998*
X02822Y02988*
X02824Y02978*
X02829Y02969*
X02838Y02964*
X02848Y02962*
X02854Y02963*
X02876Y0294*
X0288Y02937*
X02886Y02936*
X03186*
X03189Y02932*
X03189Y02932*
X03191Y02922*
X03196Y02913*
X03205Y02908*
X03215Y02906*
X03225Y02908*
X03233Y02913*
X03239Y02922*
X03241Y02932*
X03239Y02942*
X03233Y0295*
X03232Y02951*
X03233Y02955*
X03282*
X03287Y02956*
X03291Y02959*
X03364Y03032*
X03367Y03036*
X03368Y03041*
Y03059*
X03372Y03061*
X03375Y0306*
X03385Y03058*
X03394Y0306*
X03399Y03053*
Y03025*
X03204Y0283*
X03074Y02829*
X03073Y02834*
X03073Y02834*
X03079Y02843*
X0308Y02848*
X0303*
X03031Y02843*
X03036Y02834*
X03037Y02834*
X03035Y02829*
X02877Y02829*
X02738Y02971*
X02741Y02976*
X02746Y02975*
Y02995*
X02726*
X02726Y0299*
X02722Y02988*
X02688Y03023*
X02688Y03104*
X0269Y03105*
X02699Y0311*
X02699Y03111*
X02704Y03109*
X02705Y03112*
X02725*
Y03132*
X0272Y03131*
X02711Y03125*
X02711Y03124*
X02706Y03126*
X02707Y03129*
X02705Y03139*
X02699Y03147*
X02693Y03151*
Y03238*
X02781Y03327*
X02784Y03331*
X02785Y03336*
Y03443*
X02845Y03503*
X03087*
X03218Y03373*
G37*
G36*
X03321Y0473D02*
X03204D01*
X03199Y04734*
X0319Y04736*
X0318Y04734*
X03171Y04728*
X03166Y0472*
X03164Y0471*
X03166Y047*
X03171Y04691*
X0318Y04686*
X0319Y04684*
X03199Y04686*
X03204Y04689*
X03321*
Y04665*
X03176Y0452*
X03101Y04594*
X03097Y04596*
X03093Y04597*
X03068*
X03064Y04596*
X0306Y04594*
X03042Y04576*
X0304Y04572*
X03039Y04568*
Y04462*
X02859*
Y05*
X02933Y05072*
X02934Y05073*
X03321*
Y0473*
G37*
%LNronemotorboard-v8-2*%
%LPC*%
G36*
X0517Y03072D02*
X05165Y03071D01*
X05156Y03065*
X05151Y03057*
X0515Y03052*
X0517*
Y03072*
G37*
G36*
X04876Y03061D02*
Y03041D01*
X04896*
X04895Y03045*
X04889Y03054*
X0488Y0306*
X04876Y03061*
G37*
G36*
X04374Y03096D02*
X04354D01*
Y03076*
X04359Y03077*
X04367Y03082*
X04373Y03091*
X04374Y03096*
G37*
G36*
X0518Y03072D02*
Y03052D01*
X052*
X05199Y03057*
X05193Y03065*
X05184Y03071*
X0518Y03072*
G37*
G36*
X04866Y03061D02*
X04861Y0306D01*
X04852Y03054*
X04847Y03045*
X04846Y03041*
X04866*
Y03061*
G37*
G36*
X052Y03042D02*
X0518D01*
Y03022*
X05184Y03023*
X05193Y03028*
X05199Y03037*
X052Y03042*
G37*
G36*
X03284Y03041D02*
X03279Y0304D01*
X0327Y03034*
X03265Y03025*
X03264Y03021*
X03284*
Y03041*
G37*
G36*
X0517Y03042D02*
X0515D01*
X05151Y03037*
X05156Y03028*
X05165Y03023*
X0517Y03022*
Y03042*
G37*
G36*
X02725Y03102D02*
X02705D01*
X02706Y03097*
X02711Y03088*
X0272Y03083*
X02725Y03082*
Y03102*
G37*
G36*
X04752Y03194D02*
X04747Y03193D01*
X04739Y03188*
X04733Y03179*
X04732Y03174*
X04752*
Y03194*
G37*
G36*
X02735Y03132D02*
Y03112D01*
X02755*
X02754Y03117*
X02748Y03125*
X02739Y03131*
X02735Y03132*
G37*
G36*
X0284Y032D02*
X0282D01*
X02821Y03195*
X02826Y03186*
X02835Y03181*
X0284Y0318*
Y032*
G37*
G36*
X04809Y03194D02*
Y03174D01*
X04829*
X04828Y03179*
X04823Y03188*
X04814Y03193*
X04809Y03194*
G37*
G36*
X04752Y03117D02*
X04732D01*
X04733Y03112*
X04739Y03104*
X04747Y03098*
X04752Y03097*
Y03117*
G37*
G36*
X02755Y03102D02*
X02735D01*
Y03082*
X02739Y03083*
X02748Y03088*
X02754Y03097*
X02755Y03102*
G37*
G36*
X04354Y03126D02*
Y03106D01*
X04374*
X04373Y0311*
X04367Y03119*
X04359Y03125*
X04354Y03126*
G37*
G36*
X04829Y03117D02*
X04809D01*
Y03097*
X04814Y03098*
X04823Y03104*
X04828Y03112*
X04829Y03117*
G37*
G36*
X04685Y02884D02*
X0468Y02883D01*
X04671Y02877*
X04666Y02868*
X04665Y02864*
X04685*
Y02884*
G37*
G36*
X0306Y02878D02*
Y02858D01*
X0308*
X03079Y02863*
X03073Y02871*
X03064Y02877*
X0306Y02878*
G37*
G36*
X03139Y02906D02*
X03134Y02905D01*
X03125Y02899*
X0312Y0289*
X03119Y02886*
X03139*
Y02906*
G37*
G36*
X04695Y02884D02*
Y02864D01*
X04715*
X04714Y02868*
X04708Y02877*
X047Y02883*
X04695Y02884*
G37*
G36*
X0305Y02878D02*
X03045Y02877D01*
X03036Y02871*
X03031Y02863*
X0303Y02858*
X0305*
Y02878*
G37*
G36*
X04715Y02854D02*
X04695D01*
Y02834*
X047Y02835*
X04708Y0284*
X04714Y02849*
X04715Y02854*
G37*
G36*
X04685D02*
X04665D01*
X04666Y02849*
X04671Y0284*
X0468Y02835*
X04685Y02834*
Y02854*
G37*
G36*
X03169Y02876D02*
X03149D01*
Y02856*
X03153Y02857*
X03162Y02862*
X03168Y02871*
X03169Y02876*
G37*
G36*
X03139D02*
X03119D01*
X0312Y02871*
X03125Y02862*
X03134Y02857*
X03139Y02856*
Y02876*
G37*
G36*
X03149Y02906D02*
Y02886D01*
X03169*
X03168Y0289*
X03162Y02899*
X03153Y02905*
X03149Y02906*
G37*
G36*
X02756Y03025D02*
Y03005D01*
X02776*
X02775Y03009*
X02769Y03018*
X02761Y03024*
X02756Y03025*
G37*
G36*
X02746D02*
X02741Y03024D01*
X02732Y03018*
X02727Y03009*
X02726Y03005*
X02746*
Y03025*
G37*
G36*
X04896Y03031D02*
X04876D01*
Y03011*
X0488Y03012*
X04889Y03017*
X04895Y03026*
X04896Y03031*
G37*
G36*
X04866D02*
X04846D01*
X04847Y03026*
X04852Y03017*
X04861Y03012*
X04866Y03011*
Y03031*
G37*
G36*
X02776Y02995D02*
X02756D01*
Y02975*
X02761Y02976*
X02769Y02981*
X02775Y0299*
X02776Y02995*
G37*
G36*
X0492Y0293D02*
X049D01*
Y0291*
X04905Y02911*
X04913Y02916*
X04919Y02925*
X0492Y0293*
G37*
G36*
X0489D02*
X0487D01*
X04871Y02925*
X04876Y02916*
X04885Y02911*
X0489Y0291*
Y0293*
G37*
G36*
X049Y0296D02*
Y0294D01*
X0492*
X04919Y02945*
X04913Y02953*
X04905Y02959*
X049Y0296*
G37*
G36*
X0489D02*
X04885Y02959D01*
X04876Y02953*
X04871Y02945*
X0487Y0294*
X0489*
Y0296*
G37*
G36*
X02981Y04628D02*
X02961D01*
Y04608*
X02966Y04609*
X02974Y04614*
X0298Y04623*
X02981Y04628*
G37*
G36*
X02951D02*
X02931D01*
X02932Y04623*
X02937Y04614*
X02946Y04609*
X02951Y04608*
Y04628*
G37*
G36*
X03152Y04629D02*
X03132D01*
Y04609*
X03137Y0461*
X03145Y04615*
X03151Y04624*
X03152Y04629*
G37*
G36*
X03122D02*
X03102D01*
X03103Y04624*
X03108Y04615*
X03117Y0461*
X03122Y04609*
Y04629*
G37*
G36*
X03005Y03459D02*
Y03439D01*
X03025*
X03024Y03443*
X03018Y03452*
X03009Y03458*
X03005Y03459*
G37*
G36*
X0289Y0345D02*
X02885Y03449D01*
X02876Y03443*
X02871Y03435*
X0287Y0343*
X0289*
Y0345*
G37*
G36*
X03025Y03429D02*
X03005D01*
Y03409*
X03009Y0341*
X03018Y03415*
X03024Y03424*
X03025Y03429*
G37*
G36*
X02995Y03459D02*
X0299Y03458D01*
X02981Y03452*
X02976Y03443*
X02975Y03439*
X02995*
Y03459*
G37*
G36*
X029Y0345D02*
Y0343D01*
X0292*
X02919Y03435*
X02913Y03443*
X02904Y03449*
X029Y0345*
G37*
G36*
X02951Y04658D02*
X02946Y04657D01*
X02937Y04651*
X02932Y04643*
X02931Y04638*
X02951*
Y04658*
G37*
G36*
X03013Y04934D02*
X03008Y04933D01*
X03Y04928*
X02994Y04919*
X02993Y04914*
X03013*
Y04934*
G37*
G36*
X03182Y05003D02*
X03172Y05001D01*
X03163Y04995*
X03158Y04986*
X03156Y04977*
X03158Y04967*
X03163Y04958*
X03169Y04954*
Y0493*
X0317Y04925*
X03172Y04923*
X03167Y04915*
X03165Y04906*
X03167Y04896*
X03172Y04887*
X03181Y04882*
X03191Y0488*
X032Y04882*
X03209Y04887*
X03215Y04896*
X03217Y04906*
X03215Y04915*
X03209Y04924*
X032Y0493*
X03198Y0493*
X03194Y04935*
Y04954*
X032Y04958*
X03206Y04967*
X03208Y04977*
X03206Y04986*
X032Y04995*
X03192Y05001*
X03182Y05003*
G37*
G36*
X0306Y04934D02*
X03055Y04933D01*
X03047Y04928*
X03044Y04923*
X03039*
X03036Y04928*
X03028Y04933*
X03023Y04934*
Y04909*
X03018*
Y04904*
X02993*
X02994Y04899*
X03Y04891*
X03004Y04888*
Y04883*
X03Y0488*
X02994Y04872*
X02993Y04867*
X03018*
Y04862*
X03023*
Y04837*
X03028Y04838*
X03036Y04844*
X03039Y04848*
X03044*
X03047Y04844*
X03055Y04838*
X0306Y04837*
Y04862*
X03065*
Y04867*
X0309*
X03089Y04872*
X03084Y0488*
X03079Y04883*
Y04888*
X03084Y04891*
X03089Y04899*
X0309Y04904*
X03065*
Y04909*
X0306*
Y04934*
G37*
G36*
X0307D02*
Y04914D01*
X0309*
X03089Y04919*
X03084Y04928*
X03075Y04933*
X0307Y04934*
G37*
G36*
X0309Y04857D02*
X0307D01*
Y04837*
X03075Y04838*
X03084Y04844*
X03089Y04852*
X0309Y04857*
G37*
G36*
X03122Y04659D02*
X03117Y04658D01*
X03108Y04652*
X03103Y04643*
X03102Y04639*
X03122*
Y04659*
G37*
G36*
X02961Y04658D02*
Y04638D01*
X02981*
X0298Y04643*
X02974Y04651*
X02966Y04657*
X02961Y04658*
G37*
G36*
X03013Y04857D02*
X02993D01*
X02994Y04852*
X03Y04844*
X03008Y04838*
X03013Y04837*
Y04857*
G37*
G36*
X03132Y04659D02*
Y04639D01*
X03152*
X03151Y04643*
X03145Y04652*
X03137Y04658*
X03132Y04659*
G37*
G36*
X04883Y03287D02*
X04878Y03286D01*
X04869Y0328*
X04864Y03272*
X04863Y03267*
X04883*
Y03287*
G37*
G36*
X04913Y03257D02*
X04893D01*
Y03237*
X04898Y03238*
X04906Y03243*
X04912Y03252*
X04913Y03257*
G37*
G36*
X04385Y03308D02*
X04365D01*
X04366Y03303*
X04371Y03294*
X0438Y03289*
X04385Y03288*
Y03308*
G37*
G36*
X04893Y03287D02*
Y03267D01*
X04913*
X04912Y03272*
X04906Y0328*
X04898Y03286*
X04893Y03287*
G37*
G36*
X04883Y03257D02*
X04863D01*
X04864Y03252*
X04869Y03243*
X04878Y03238*
X04883Y03237*
Y03257*
G37*
G36*
X04799Y03194D02*
X04794Y03193D01*
X04786Y03188*
X04783Y03183*
X04778*
X04775Y03188*
X04767Y03193*
X04762Y03194*
Y03169*
X04757*
Y03164*
X04732*
X04733Y03159*
X04739Y03151*
X04743Y03148*
Y03143*
X04739Y0314*
X04733Y03132*
X04732Y03127*
X04757*
Y03122*
X04762*
Y03097*
X04767Y03098*
X04775Y03104*
X04778Y03108*
X04783*
X04786Y03104*
X04794Y03098*
X04799Y03097*
Y03122*
X04804*
Y03127*
X04829*
X04828Y03132*
X04823Y0314*
X04818Y03143*
Y03148*
X04823Y03151*
X04828Y03159*
X04829Y03164*
X04804*
Y03169*
X04799*
Y03194*
G37*
G36*
X0287Y032D02*
X0285D01*
Y0318*
X02854Y03181*
X02863Y03186*
X02869Y03195*
X0287Y032*
G37*
G36*
X0285Y0323D02*
Y0321D01*
X0287*
X02869Y03215*
X02863Y03223*
X02854Y03229*
X0285Y0323*
G37*
G36*
X0284D02*
X02835Y03229D01*
X02826Y03223*
X02821Y03215*
X0282Y0321*
X0284*
Y0323*
G37*
G36*
X04415Y03308D02*
X04395D01*
Y03288*
X044Y03289*
X04408Y03294*
X04414Y03303*
X04415Y03308*
G37*
G36*
X0289Y0342D02*
X0287D01*
X02871Y03415*
X02876Y03406*
X02885Y03401*
X0289Y034*
Y0342*
G37*
G36*
X03222Y03356D02*
Y03336D01*
X03242*
X03241Y03341*
X03235Y03349*
X03226Y03355*
X03222Y03356*
G37*
G36*
X02995Y03429D02*
X02975D01*
X02976Y03424*
X02981Y03415*
X0299Y0341*
X02995Y03409*
Y03429*
G37*
G36*
X0292Y0342D02*
X029D01*
Y034*
X02904Y03401*
X02913Y03406*
X02919Y03415*
X0292Y0342*
G37*
G36*
X03212Y03356D02*
X03207Y03355D01*
X03198Y03349*
X03193Y03341*
X03192Y03336*
X03212*
Y03356*
G37*
G36*
X03242Y03326D02*
X03222D01*
Y03306*
X03226Y03307*
X03235Y03312*
X03241Y03321*
X03242Y03326*
G37*
G36*
X03212D02*
X03192D01*
X03193Y03321*
X03198Y03312*
X03207Y03307*
X03212Y03306*
Y03326*
G37*
G36*
X04395Y03338D02*
Y03318D01*
X04415*
X04414Y03322*
X04408Y03331*
X044Y03337*
X04395Y03338*
G37*
G36*
X04385D02*
X0438Y03337D01*
X04371Y03331*
X04366Y03322*
X04365Y03318*
X04385*
Y03338*
G37*
%LNronemotorboard-v8-3*%
%LPD*%
G54D10*
X02829Y02636D02*
Y02716D01*
X02878Y02765*
X02924*
X02969Y0272*
X03156*
X02951Y02691D02*
X0315D01*
X02897Y02637D02*
X02951Y02691D01*
X02897Y02607D02*
Y02637D01*
X04301Y03655D02*
Y03676D01*
X04276Y03525D02*
X04287Y03514D01*
X04062Y04598D02*
X04072Y04588D01*
X03491Y03047D02*
Y03056D01*
X02897Y02565D02*
Y02607D01*
Y02608*
X0315Y02691D02*
X03459Y03D01*
X03386Y0275D02*
X03389D01*
X03257D02*
X03386D01*
X03047Y02576D02*
X03068Y02597D01*
X03104*
X03257Y0275*
X03039Y02567D02*
X03074D01*
X03143Y02661D02*
X03412Y0293D01*
X02998Y02661D02*
X03143D01*
X03156Y0272D02*
X03443Y03006D01*
X03185Y02771D02*
X03427Y03013D01*
X03037Y02771D02*
X03185D01*
X03189Y02798D02*
X03411Y0302D01*
X0285Y02798D02*
X03189D01*
X04869Y03622D02*
X04875Y03628D01*
X03407Y03572D02*
X03451Y03617D01*
X03407Y03441D02*
Y03572D01*
X03236Y0327D02*
X03407Y03441D01*
X03425Y03568D02*
X03441Y03584D01*
X03425Y03436D02*
Y03568D01*
X03242Y03254D02*
X03425Y03436D01*
X03242Y03254D02*
X03242D01*
X03231Y03243D02*
X03242Y03254D01*
X03101Y0327D02*
X03236D01*
X03231Y03218D02*
Y03243D01*
X0483Y04689D02*
X04849Y04708D01*
X04845D02*
X0485D01*
X0484Y04703D02*
X04845Y04708D01*
X04627Y04689D02*
X0483D01*
X0484Y04703D02*
X04846D01*
X04811Y04758D02*
X04849D01*
X04764Y04711D02*
X04811Y04758D01*
X049Y04759D02*
X04981Y04678D01*
X04849Y04759D02*
X049D01*
X04849Y04758D02*
Y04759D01*
X04604Y04666D02*
X04627Y04689D01*
X04597Y04711D02*
X04764D01*
X04586Y047D02*
X04597Y04711D01*
X04633Y04744D02*
Y04804D01*
X04544Y04666D02*
X04604D01*
X03813Y03732D02*
X03862Y03683D01*
X04916Y04896D02*
Y05457D01*
X04761Y04741D02*
X04916Y04896D01*
X04735Y04741D02*
X04761D01*
X04033Y0468D02*
X04053Y047D01*
X04033Y04586D02*
Y0468D01*
Y04586D02*
X04052Y04568D01*
Y03896D02*
Y04568D01*
Y03896D02*
X04152Y03796D01*
Y03685D02*
Y03796D01*
X04034Y03892D02*
Y04359D01*
Y03892D02*
X04102Y03824D01*
X03999Y04394D02*
X04033Y0436D01*
X03999Y04394D02*
Y04702D01*
X04088Y04582D02*
X04102Y04596D01*
X04088Y03924D02*
Y04582D01*
Y03924D02*
X04241Y03771D01*
X04072Y03905D02*
Y04588D01*
Y03905D02*
X04301Y03676D01*
X04102Y04596D02*
Y04898D01*
X04095Y03628D02*
X04152Y03685D01*
X04056Y03654D02*
X04105Y03703D01*
X03789Y03614D02*
X03813D01*
X03788D02*
X03789D01*
X03855Y03654D02*
X04056D01*
X04102Y03754D02*
Y03824D01*
X04031Y03683D02*
X04102Y03754D01*
X03862Y03683D02*
X04031D01*
X04062Y04598D02*
X04063Y04599D01*
X04149Y04031D02*
Y04077D01*
X04129Y04098D02*
X04149Y04077D01*
X04129Y04098D02*
Y04128D01*
X03463Y03527D02*
X03495Y03559D01*
X03821D02*
X0389Y03628D01*
X03495Y03559D02*
X03821D01*
X0389Y03628D02*
X04095D01*
X03686Y03584D02*
X03763Y03661D01*
X03441Y03584D02*
X03686D01*
X0341Y04639D02*
X03431Y04618D01*
Y04346D02*
Y04618D01*
X0341Y04325D02*
X03431Y04346D01*
X0341Y04207D02*
Y04325D01*
Y04207D02*
X03721Y03896D01*
X03463Y03486D02*
Y03527D01*
Y03486D02*
X03498Y03451D01*
X03451Y03617D02*
X03638D01*
X0364Y03397D02*
X03641D01*
X03684Y03354*
X03728*
X03639Y03451D02*
X03693Y03396D01*
X03759*
X03701Y03451D02*
X03761D01*
X03624Y03481D02*
X03747D01*
X03596Y03453D02*
X03624Y03481D01*
X04585Y04701D02*
Y04703D01*
Y04701D02*
X04586Y047D01*
X03728Y03203D02*
Y03354D01*
X03524Y02999D02*
X03728Y03203D01*
X03524Y02999D02*
X03524D01*
X03507Y02982D02*
X03524Y02999D01*
X03487Y02982D02*
X03507D01*
X03354Y02824D02*
X03417Y02761D01*
X03354Y02824D02*
Y02849D01*
X03487Y02982*
X03417Y02579D02*
X03751Y02245D01*
X03417Y02579D02*
Y02761D01*
X03389Y0275D02*
X0339Y02749D01*
X03427Y03075D02*
Y03093D01*
X03411Y03059D02*
X03427Y03075D01*
X03411Y0302D02*
Y03059D01*
X03421Y03099D02*
X03427Y03093D01*
X03282Y02968D02*
X03356Y03041D01*
Y031*
X03355Y031D02*
X0347Y03214D01*
Y03348*
X0344Y03162D02*
X03546D01*
X03384Y03106D02*
X0344Y03162D01*
X03384Y03085D02*
Y03106D01*
X03759Y03333D02*
X03937D01*
X04041Y03364D02*
X04051Y03354D01*
X03797Y03364D02*
X04041D01*
X0383Y03381D02*
X04046D01*
X03484Y0311D02*
X03537D01*
X03575Y03148*
Y03149*
X03583Y03178D02*
X03654Y03249D01*
X03562Y03178D02*
X03583D01*
X03546Y03162D02*
X03562Y03178D01*
X03654Y03249D02*
Y0325D01*
X03563Y03468D02*
Y0348D01*
X03562Y03467D02*
X03563Y03468D01*
X03562Y0344D02*
Y03467D01*
X0347Y03348D02*
X03562Y0344D01*
X03596Y03285D02*
Y03453D01*
X03721Y03761D02*
Y03896D01*
X0372Y0376D02*
X03721Y03761D01*
X03918Y04019D02*
X03953Y04054D01*
X03918Y03817D02*
Y04019D01*
X03916Y03815D02*
X03918Y03817D01*
X0388Y04018D02*
X03936Y04074D01*
X0388Y03772D02*
Y04018D01*
X03877Y03769D02*
X0388Y03772D01*
X03936Y04074D02*
Y04897D01*
X03895Y04938D02*
X03936Y04897D01*
X03895Y04938D02*
Y04947D01*
X04118Y04573D02*
X04129Y04562D01*
X04118Y04573D02*
Y05086D01*
X0377Y04009D02*
X03779Y04D01*
Y04008D02*
Y04034D01*
X0377Y04043D02*
X03779Y04034D01*
X0377Y04043D02*
Y04125D01*
X03182Y0493D02*
X03192Y0492D01*
X03182Y0493D02*
Y04977D01*
X03184Y04975*
Y04913D02*
X03191Y04906D01*
X0339Y02749D02*
X03397D01*
X0353Y04771D02*
X03566Y04735D01*
X03461Y04189D02*
X03837Y03812D01*
X03838*
X03461Y04189D02*
Y04584D01*
X04684Y02439D02*
X0471Y02413D01*
X0462Y02439D02*
X04684D01*
X04485Y02574D02*
X0462Y02439D01*
X0315Y05143D02*
X03156D01*
X03122Y05171D02*
X0315Y05143D01*
X02603Y05171D02*
X03122D01*
X04296Y04716D02*
Y04928D01*
Y04716D02*
X04347Y04665D01*
X03969Y03884D02*
Y04922D01*
X03953Y04054D02*
Y0491D01*
X0416Y04366D02*
Y0487D01*
X04176Y04382D02*
Y04877D01*
X04161Y04892D02*
X04176Y04877D01*
X03394Y05446D02*
X03499Y05341D01*
X03278Y05446D02*
X03394D01*
X03245Y05479D02*
X03278Y05446D01*
X04031Y03846D02*
X04071Y03806D01*
X04006Y03846D02*
X04031D01*
X03969Y03884D02*
X04006Y03846D01*
X03751Y02245D02*
X04346D01*
X03413Y02931D02*
X03495Y03013D01*
X03449Y03074D02*
X03484Y0311D01*
X04454Y03704D02*
Y04403D01*
X04353Y03604D02*
X04454Y03704D01*
X04293Y03604D02*
X04353D01*
X04226Y03568D02*
X0434D01*
X0447Y03698*
X04281Y03592D02*
X04293Y03604D01*
X03488Y03047D02*
X03491D01*
X03489Y03092D02*
X03541D01*
X03465Y03068D02*
X03489Y03092D01*
X04657Y05187D02*
X04862D01*
X04621Y05151D02*
X04657Y05187D01*
X03034Y02774D02*
X03037Y02771D01*
X02969Y02632D02*
X02998Y02661D01*
X03541Y03092D02*
X03558Y03075D01*
X04676Y05246D02*
X04862D01*
X04576Y05146D02*
X04676Y05246D01*
X0447Y037D02*
Y04431D01*
X05067Y03413D02*
X0527Y0321D01*
X0432Y03413D02*
X05067D01*
X04294Y03387D02*
X0432Y03413D01*
X03866Y03736D02*
X03935D01*
X03844Y03758D02*
X03866Y03736D01*
X03784Y03758D02*
X03844D01*
X03916Y03816D02*
X03919Y03819D01*
X03722Y03763D02*
X03723Y03764D01*
X03813Y03614D02*
X03853Y03654D01*
X04129Y03614D02*
X04156Y03641D01*
X04226Y03573D02*
X04227Y03561D01*
X04083Y04917D02*
X04102Y04898D01*
X0353Y05299D02*
X03623Y05392D01*
X0353Y04771D02*
Y05299D01*
X03628Y04682D02*
Y05031D01*
X03593Y05066D02*
X03628Y05031D01*
X03593Y05066D02*
Y0514D01*
X04227Y04672D02*
X04229D01*
X04567Y0487D02*
Y04967D01*
Y0487D02*
X04633Y04804D01*
X04632Y0361D02*
Y0457D01*
X0292Y05127D02*
X03053D01*
X05447Y0321D02*
X05474Y03183D01*
X0527Y0321D02*
X05447D01*
X04398Y03224D02*
X0445Y03276D01*
X04521*
X04095Y05109D02*
X04118Y05086D01*
X04083Y04917D02*
Y04945D01*
X04045Y04793D02*
Y05278D01*
X04195Y05261D02*
Y0529D01*
X03499Y04724D02*
X03572Y04651D01*
X03895Y04499D02*
Y045D01*
X04095Y05109D02*
Y05289D01*
X03003Y05297D02*
X03204D01*
X03205Y05298*
X03692Y04733D02*
Y05031D01*
X03678Y05211D02*
X03959D01*
X03715Y05246D02*
X03925D01*
X03741Y05298D02*
X03743D01*
X03765Y05276*
X03895*
X04149Y04031D02*
X0418Y04001D01*
X04223*
X03959Y05211D02*
X03995Y05247D01*
Y05273*
X03925Y05246D02*
X0395Y05271D01*
Y05299*
X03893Y05274D02*
X03895Y05276D01*
X04095Y05407D02*
Y0543D01*
X0408Y05392D02*
X04095Y05407D01*
X04494Y02393D02*
X04643D01*
X04346Y02245D02*
X04494Y02393D01*
X0258Y04934D02*
X02583Y04934D01*
X02731Y04906*
X02579Y04935D02*
X0258Y04934D01*
X02579Y04935D02*
X0258D01*
X03285Y02532D02*
X03356Y02461D01*
X03285Y02532D02*
Y0266D01*
X03623Y05392D02*
X0408D01*
X04563Y05447D02*
Y05573D01*
X03432Y05561D02*
X03564Y05429D01*
X03919Y0557D02*
X0394Y05549D01*
X03919Y0557D02*
Y05608D01*
X0416Y05688D02*
X04225Y05623D01*
X04081Y05688D02*
X0416D01*
X02855Y05211D02*
X03145D01*
X02443Y04844D02*
Y05011D01*
Y04844D02*
X02485Y04802D01*
X02515*
X02443Y05011D02*
X02603Y05171D01*
X04344Y05289D02*
X04345Y05288D01*
X04648Y05725D02*
X04916Y05457D01*
X04461Y05725D02*
X04648D01*
X04395Y05659D02*
X04461Y05725D01*
X04621Y05073D02*
Y05151D01*
X04576Y05072D02*
Y05146D01*
X05265Y0502D02*
X05323Y05078D01*
X05301Y04709D02*
X05426Y04833D01*
X05245Y04709D02*
X05301D01*
X05426Y04833D02*
Y04942D01*
X05427Y04943*
X04129Y04318D02*
Y04319D01*
X04121Y04327D02*
X04129Y04319D01*
X04221Y04318D02*
Y04321D01*
X04228Y04328D02*
X0423D01*
X04221Y04321D02*
X04228Y04328D01*
X04121Y04327D02*
X0416Y04366D01*
X03969Y04922D02*
X03995Y04948D01*
X03768Y04298D02*
X0377Y04296D01*
X03768Y04298D02*
Y04407D01*
X03858Y04328D02*
X03895Y04365D01*
Y04499*
X03859Y04311D02*
Y04321D01*
X03858Y0431D02*
Y04328D01*
X04229Y04672D02*
X0447Y04431D01*
X04226Y04629D02*
X04228D01*
X04454Y04403*
X04484Y02574D02*
X04485D01*
X04176Y04382D02*
X0423Y04328D01*
X04145Y04886D02*
X0416Y04871D01*
X04145Y04886D02*
Y05289D01*
X04161Y05227D02*
X04195Y05261D01*
X04161Y04892D02*
Y05227D01*
X03945Y04918D02*
Y04948D01*
Y04918D02*
X03953Y0491D01*
X03895Y04499D02*
Y04562D01*
X03829Y04808D02*
X03846Y04825D01*
X03768Y04407D02*
X03829Y04468D01*
Y04808*
X03499Y04724D02*
Y05341D01*
X04601Y02967D02*
X04606Y02972D01*
X04596D02*
X04601Y02967D01*
X04398Y03022D02*
Y03224D01*
Y03022D02*
X04448Y02972D01*
X04596*
X04132Y03365D02*
X04147Y0338D01*
X04057Y0337D02*
X04082D01*
X04051Y03354D02*
X04088D01*
X04099Y03365*
X04132*
X04046Y03381D02*
X04057Y0337D01*
X04082D02*
X04129Y03417D01*
Y03614*
X02681Y03244D02*
X02773Y03336D01*
Y03449*
X0284Y03516*
X02681Y03129D02*
Y03244D01*
X04157Y03642D02*
X04209D01*
X04212*
X03761Y03451D02*
X03829Y03383D01*
X03747Y03481D02*
X03753Y03487D01*
X03563Y0348D02*
X03613Y0353D01*
X03679*
X0284Y03516D02*
X03093D01*
X03227Y03382*
X03306*
X03465Y03067D02*
Y03068D01*
X03449Y03074D02*
Y03074D01*
X03459Y03018D02*
X03488Y03047D01*
X02826Y02774D02*
X0285Y02798D01*
X03427Y03013D02*
Y03052D01*
X03449Y03074*
X03444Y03046D02*
X03465Y03067D01*
X03443Y03006D02*
Y03025D01*
X03459Y03D02*
Y03018D01*
X03443Y03025D02*
X03444Y03025D01*
Y03046*
X04968Y05166D02*
X04983Y05181D01*
X04966Y04757D02*
Y05166D01*
X04983Y05181D02*
Y05211D01*
X05099Y02933D02*
X05166Y02866D01*
Y02864D02*
Y02866D01*
X03935Y03736D02*
X03957Y03758D01*
X03958Y03759*
X03692Y03666D02*
X03784Y03758D01*
X02975Y03144D02*
X03101Y0327D01*
X02931Y03019D02*
X02982Y02968D01*
X03421Y03099D02*
X03425D01*
X02982Y02968D02*
X03282D01*
X05265Y04909D02*
Y0502D01*
X04875Y04531D02*
X04986Y04642D01*
X04993*
X0501Y04659*
X05236Y0488D02*
X05265Y04909D01*
X0501Y04659D02*
Y04846D01*
X05044Y0488*
X05236*
X05087Y04579D02*
Y0484D01*
Y04579D02*
X05119Y04547D01*
X04947Y04546D02*
X05119D01*
X04875Y03628D02*
Y03747D01*
Y03744D02*
Y03747D01*
Y04531*
X04859Y03751D02*
Y04566D01*
Y04568*
X04728Y04734D02*
X04735Y04741D01*
X04843Y03667D02*
X04859Y03683D01*
Y03751*
X04906Y04504D02*
X04947Y04546D01*
X04922Y03544D02*
X0499Y03476D01*
X04922Y04476D02*
X04949Y04503D01*
X04906Y0351D02*
X0494Y03476D01*
X04922Y03544D02*
Y04476D01*
X04906Y0351D02*
Y04504D01*
X04869Y03622D02*
X04875D01*
X04147Y0338D02*
Y03433D01*
X04239Y03525*
X04276*
G54D11*
X03696Y03498D02*
X03725Y03527D01*
X03665Y03498D02*
X03696D01*
X03664Y03499D02*
X03665Y03498D01*
X03664Y03499D02*
X03664D01*
X03663Y03498D02*
X03664Y03499D01*
X03617Y03498D02*
X03663D01*
X03579Y0346D02*
X03617Y03498D01*
X04676Y05017D02*
Y05018D01*
X04533Y05023D02*
X04676D01*
Y04844D02*
Y05017D01*
X04284Y04097D02*
X04356D01*
X03866Y04381D02*
Y04518D01*
X0381Y04333D02*
X03818D01*
X0283Y04918D02*
Y05036D01*
X04109Y03278D02*
X04187Y03356D01*
X03826Y03277D02*
X04046D01*
X03392Y02843D02*
X03826Y03277D01*
X03392Y02835D02*
Y02843D01*
X03351Y02549D02*
Y02601D01*
X03196Y0295D02*
X03215Y02931D01*
X04676Y05018D02*
Y05023D01*
Y05018D02*
X0468Y05017D01*
X04676D02*
X0468D01*
X04675D02*
X04676D01*
X02982Y02479D02*
X03096D01*
X02979D02*
X02982D01*
X02981Y02481D02*
X02982Y02479D01*
X03349Y02603D02*
Y02667D01*
X03297Y02719D02*
X03349Y02667D01*
X03254Y02719D02*
X03297D01*
X03184Y02649D02*
X03254Y02719D01*
X03184Y02567D02*
Y02649D01*
X03096Y02479D02*
X03184Y02567D01*
X03847Y034D02*
X0407D01*
X03827Y0342D02*
X03847Y034D01*
X03579Y03401D02*
Y0346D01*
X03513Y03335D02*
X03579Y03401D01*
X04164Y0413D02*
X04219D01*
X04221D02*
X04249D01*
X04264Y04145*
X0377Y04254D02*
X0383Y04195D01*
Y0413D02*
Y04195D01*
X04327Y03493D02*
X04394Y0356D01*
X03145Y0288D02*
X03206D01*
X03141D02*
X03145D01*
X02836Y03205D02*
X02845Y03214D01*
X0314Y02875D02*
X03145Y0288D01*
X03139Y02875D02*
X03143Y02879D01*
X03055Y0285D02*
X0312D01*
X02809Y02851D02*
X03057D01*
X02767Y02809D02*
X02809Y02851D01*
X02751Y02866D02*
X02785Y02832D01*
X02751Y02866D02*
Y03D01*
X02767Y02718D02*
Y02809D01*
X02762Y03205D02*
X02836D01*
X05296Y04764D02*
X05343Y04811D01*
X02848Y02988D02*
X02886Y0295D01*
X04045Y03278D02*
X04109D01*
X05153Y04992D02*
X05253Y05092D01*
X04879Y04908D02*
Y05138D01*
X04815Y04844D02*
X04879Y04908D01*
X04676Y04844D02*
X04815D01*
X04676Y04742D02*
Y04844D01*
X04308Y03317D02*
X04381D01*
X04231Y03394D02*
X04308Y03317D01*
X03139Y02869D02*
Y02875D01*
X0312Y0285D02*
X03139Y02869D01*
Y02875D02*
X0314D01*
X03135D02*
X03139D01*
X02581Y03091D02*
X02595Y03077D01*
X03637Y04535D02*
X03667D01*
X05379Y0312D02*
Y03138D01*
X05331Y03186D02*
X05379Y03138D01*
X05174Y03186D02*
X05331D01*
X05317Y03082D02*
X05362Y03036D01*
X05217Y03082D02*
X05317D01*
X03865Y04518D02*
X03866D01*
X03365Y04446D02*
Y04665D01*
X03698Y05689D02*
X03894D01*
X05317Y03082D02*
Y03128D01*
X037Y04254D02*
X0377D01*
X0424Y05572D02*
X0428Y05532D01*
X0415Y05572D02*
X0424D01*
X04105Y05617D02*
X0415Y05572D01*
X037Y04254D02*
Y0448D01*
X0339Y04782D02*
X03637Y04535D01*
X0339Y04782D02*
Y05091D01*
X0289Y05096D02*
X03385D01*
X0339Y05091*
X0283Y05036D02*
X0289Y05096D01*
X02686Y04837D02*
X02871D01*
X02829Y04918D02*
X0283D01*
X0339Y05091D02*
Y05379D01*
X04465Y05091D02*
Y05348D01*
Y05091D02*
X04533Y05023D01*
X03905Y04105D02*
Y04287D01*
X04176Y04317D02*
X0421Y04283D01*
X04003Y04249D02*
Y04336D01*
X0381Y04326D02*
Y04333D01*
X03818D02*
X03866Y04381D01*
X04003Y03904D02*
Y04249D01*
X0421Y04283D02*
X04344D01*
X04356Y04097D02*
X04375Y04116D01*
Y04252*
X04344Y04283D02*
X04375Y04252D01*
X04851Y02753D02*
Y02846D01*
X04648Y02477D02*
Y02692D01*
X03825Y04125D02*
X0383Y0413D01*
X03825Y04125D02*
X03831D01*
X0388*
X03902Y04102*
X03827Y0342D02*
Y03484D01*
X03784Y03527D02*
X03827Y03484D01*
X02595Y03077D02*
X027D01*
X0273Y03107*
X03725Y03527D02*
X03784D01*
X03513Y03332D02*
Y03335D01*
X05163Y04764D02*
X05296D01*
X02886Y0295D02*
X03196D01*
X04187Y03356D02*
Y03449D01*
X04231Y03493*
X04327*
G54D42*
X04911Y04658D03*
G54D45*
X04643Y04657D02*
X04911D01*
X04585Y04599D02*
X04643Y04657D01*
X04585Y04441D02*
Y04599D01*
Y03611D02*
Y04441D01*
G54D46*
X03595Y04235D02*
Y04521D01*
X0319Y0471D02*
X03406D01*
X03595Y04521*
X04676Y03609D02*
Y04444D01*
X03607Y03854D02*
X03683D01*
X03082Y04379D02*
X03607Y03854D01*
X04413Y03902D02*
Y04269D01*
X04365Y03854D02*
X04413Y03902D01*
X04323Y03854D02*
X04365D01*
X04245Y04708D02*
X04495Y04458D01*
X04245Y04708D02*
Y04929D01*
X04591Y03386D02*
X04951D01*
X04521Y03316D02*
X04591Y03386D01*
X03082Y04379D02*
Y04557D01*
X04539Y03612D02*
Y0448D01*
X05001Y03146D02*
Y03336D01*
X04271Y04343D02*
X04339D01*
X03794Y04518D02*
Y05115D01*
X04539Y0448D02*
Y04546D01*
X04395Y0469D02*
X04539Y04546D01*
X04395Y0469D02*
Y04929D01*
X04244Y0493D02*
X04245Y04929D01*
X03595Y04235D02*
X0368Y0415D01*
X04921Y03106D02*
X04961D01*
X05001Y03146*
X04521Y03276D02*
Y03316D01*
X04951Y03386D02*
X05001Y03336D01*
X04493Y03609D02*
X04495Y03611D01*
Y04458*
X04339Y04343D02*
X04413Y04269D01*
X02956Y04633D02*
X03127D01*
G54D48*
X02691Y02787D03*
X02762Y02857D03*
Y02716D03*
X02832Y02787D03*
Y02645D03*
X02903Y02716D03*
Y02575D03*
X02974Y02645D03*
Y02504D03*
G54D49*
X03045Y02575D03*
G54D50*
X04319Y04147D03*
Y03852D03*
X0368D03*
Y04147D03*
G54D51*
X03664Y05115D03*
X04526D03*
X04755D03*
X04675D03*
G54D52*
X0485Y04708D03*
X04859Y04566D03*
X04727Y04741D03*
X04633Y04744D03*
X04544Y04666D03*
X0485Y04758D03*
X04053Y047D03*
X04045Y04792D03*
X04105Y03702D03*
X03999Y04702D03*
X04129Y04128D03*
X04172Y04127D03*
X03789Y03614D03*
X0341Y04653D03*
X03498Y03451D03*
X03678Y03529D03*
X0364Y03397D03*
X03639Y03451D03*
X03759Y03396D03*
X037Y03451D03*
X04585Y04703D03*
X03392Y02835D03*
X03351Y02548D03*
X03495Y03012D03*
X03759Y03333D03*
X03795Y03365D03*
X03575Y03149D03*
X03654Y0325D03*
X03597Y03281D03*
X03511Y03331D03*
X04222Y04D03*
X03831Y04125D03*
X04675Y05017D03*
X03836Y03813D03*
X04227Y04672D03*
X04347Y04665D03*
X04226Y04629D03*
X04063Y04599D03*
X04118Y04563D03*
X04229Y03397D03*
X02751Y03D03*
X02845Y03205D03*
X05343Y04811D03*
X05164Y04763D03*
X04394Y0356D03*
X02848Y02988D03*
X04186Y03351D03*
X05253Y05092D03*
X05153Y04992D03*
X04879Y05138D03*
X04983Y05211D03*
X0303Y02767D03*
X03386Y0275D03*
X03558Y03075D03*
X0494Y04496D03*
X03557Y04738D03*
X04045Y03278D03*
X04091Y03323D03*
X03763Y03661D03*
X03722Y03763D03*
X04244Y03775D03*
X0381Y03729D03*
X04294Y03385D03*
X04304Y03659D03*
X04209Y03642D03*
X03937Y03333D03*
X04287Y03527D03*
X04226Y03573D03*
X04286Y03604D03*
X03881Y03771D03*
X03957Y03758D03*
X03495Y03056D03*
X0273Y03107D03*
X02581Y03091D03*
X03594Y05143D03*
X02515Y04802D03*
X03156Y05143D03*
X03628Y04682D03*
X03571Y04651D03*
X05379Y0312D03*
X05174Y03186D03*
X05315Y03129D03*
X04567Y04967D03*
X04632Y0457D03*
X04677Y03611D03*
X04632Y0361D03*
X04585Y03611D03*
X04539Y03612D03*
X04493Y0361D03*
X05175Y03047D03*
X04349Y03101D03*
X03365Y04665D03*
Y04446D03*
X05474Y03183D03*
X04083Y04945D03*
X03895Y04562D03*
X04095Y05289D03*
X04045D03*
X03053Y05127D03*
X03003Y05297D03*
X03205Y05298D03*
X03693Y05033D03*
X03678Y05211D03*
X03715Y05246D03*
X03741Y05298D03*
X03692Y04733D03*
X04145Y05289D03*
X04195Y0529D03*
X03995Y04948D03*
X03945D03*
X03895Y04947D03*
X03846Y04825D03*
X04271Y04343D03*
X03794Y04518D03*
X03127Y04634D03*
X02956Y04633D03*
X03081Y04556D03*
X04539Y0448D03*
X04585Y04441D03*
X03461Y04584D03*
X03995Y05273D03*
X0395Y05299D03*
X03895Y05276D03*
X03795Y05116D03*
X04296Y04928D03*
X04395Y04929D03*
X04245D03*
Y05289D03*
X04295Y05288D03*
X04071Y03813D03*
X04709Y02413D03*
X04643Y02393D03*
X03918Y03816D03*
X05359Y03033D03*
X0439Y03313D03*
X04895Y02935D03*
X04486Y02578D03*
X05428Y04942D03*
X04563Y05573D03*
Y05433D03*
X03432Y05561D03*
X03564Y05429D03*
X02583Y0493D03*
X02731Y04906D03*
X0469Y02859D03*
X04871Y03036D03*
X04921Y03106D03*
X04521Y03276D03*
X05003Y03328D03*
X03357Y02462D03*
X03285Y0266D03*
X0319Y0471D03*
X03182Y04977D03*
X03191Y04906D03*
X04804Y03169D03*
Y03122D03*
X04757Y03169D03*
Y03122D03*
X03018Y04862D03*
Y04909D03*
X03065Y04862D03*
Y04909D03*
X0377Y04125D03*
X03905Y04105D03*
X037Y04254D03*
X03144Y02881D03*
X03055Y02853D03*
X02895Y03425D03*
X03Y03434D03*
X03289Y03016D03*
X03231Y03218D03*
X0394Y05549D03*
X03696Y0569D03*
X04225Y05623D03*
X0428Y05532D03*
X04095Y0543D03*
X03245Y05479D03*
X04676Y04444D03*
X03701Y04481D03*
X03667Y04535D03*
X03145Y05211D03*
X02855D03*
X0292Y05128D03*
X04345Y05288D03*
X04395Y05659D03*
X02686Y04837D03*
X02829Y04918D03*
X0339Y05379D03*
X04676Y04742D03*
X04465Y05348D03*
X04621Y05073D03*
X04879Y05188D03*
X04576Y05072D03*
X04878Y05243D03*
X05323Y05078D03*
X05245Y04709D03*
X04176Y04317D03*
X04284Y04098D03*
X04221Y04318D03*
X04129D03*
X04264Y04145D03*
X04003Y04336D03*
Y04249D03*
X03768Y04294D03*
X03908D03*
X03859Y04311D03*
X0381Y04325D03*
X04003Y03904D03*
X03779Y04D03*
X04851Y02753D03*
Y02846D03*
X04648Y02477D03*
X03865Y04518D03*
X04195Y04928D03*
X03427Y03107D03*
X04606Y02973D03*
X04888Y03262D03*
X0407Y034D03*
X03638Y03618D03*
X03753Y03487D03*
X03692Y0367D03*
X02681Y03129D03*
X03306Y03382D03*
X03217Y03331D03*
X05119Y04546D03*
X04966Y04757D03*
X05099Y02933D03*
X05166Y02864D03*
X02929Y0302D03*
X02973Y03139D03*
X03385Y03084D03*
X03215Y02932D03*
X04981Y04672D03*
X05087Y0484D03*
X0499Y03478D03*
X0494Y03476D03*
X04843Y03667D03*
X04875Y03622D03*
G54D53*
X05093Y03646D03*
Y04354D03*
X02907D03*
Y03646D03*
X03255Y04508D03*
X04745D03*
X02907Y04354D03*
X05093D03*
X02907Y03646D03*
X03255Y03492D03*
X04745D03*
X05093Y03646D03*
G54D54*
X0445Y0274D03*
X0355D03*
G54D55*
X04Y0274D03*
G54D56*
X03918Y03562D03*
X03966D03*
X04013D03*
X03918Y03515D03*
X03966D03*
X04013D03*
X03918Y03467D03*
X03966D03*
X04013D03*
G54D57*
X03913Y05684D03*
Y05615D03*
X04086Y05616D03*
Y05684D03*
M02*