%FSTAX23Y23*%
%MOIN*%
%SFA1B1*%

%IPPOS*%
%AMD48*
4,1,4,0.000000,-0.041700,0.041700,0.000000,0.000000,0.041700,-0.041700,0.000000,0.000000,-0.041700,0.0*
%
%ADD10C,0.010000*%
%ADD42C,0.025000*%
%ADD43C,0.040000*%
%ADD44C,0.008000*%
%ADD46C,0.055100*%
%ADD47C,0.059100*%
G04~CAMADD=48~10~0.0~590.4~0.0~0.0~0.0~0.0~0~0.0~0.0~0.0~0.0~0~0.0~0.0~0.0~0.0~0~0.0~0.0~0.0~225.0~590.4~0.0*
%ADD48D48*%
%ADD49C,0.050000*%
%ADD50R,0.059100X0.059100*%
%ADD51C,0.035000*%
%ADD52C,0.040000*%
%ADD53C,0.175000*%
%ADD54C,0.915000*%
%ADD55C,0.026000*%
%ADD56C,0.136000*%
%ADD57C,0.096000*%
%ADD58R,0.052000X0.044000*%
%LNronemotorboard-v10-1*%
%LPD*%
G36*
X03079Y03541D02*
X03339Y03281D01*
X03338Y03276*
X03338Y03275*
X03332Y03267*
X0333Y03257*
X03332Y03247*
X03338Y03239*
X03346Y03233*
X03356Y03231*
X03366Y03233*
X03374Y03239*
X03375Y0324*
X0338Y0324*
X03405Y03216*
Y03206*
X03398Y03199*
X03395Y03195*
X03394Y03191*
Y03063*
X03311Y0298*
X02987*
X02982Y02985*
Y03002*
X02988Y03006*
X02994Y03015*
X02996Y03025*
X02994Y03035*
X02988Y03043*
X02979Y03049*
X0297Y03051*
X0296Y03049*
X02951Y03043*
X02946Y03035*
X02944Y03025*
X02946Y03015*
X02951Y03006*
X02957Y03002*
Y0298*
X02958Y02975*
X02961Y02971*
X02964Y02967*
X02962Y02963*
X02891*
X02872Y02981*
X02874Y02988*
X02872Y02998*
X02866Y03006*
X02861Y03009*
Y03122*
X02915Y03176*
X02918Y0318*
X02919Y03186*
Y03215*
X02923Y03218*
X02929Y03227*
X02931Y03237*
X02929Y03246*
X02923Y03255*
X02914Y03261*
X02905Y03263*
X02895Y03261*
X02886Y03255*
X02881Y03246*
X02879Y03237*
X02881Y03227*
X02886Y03218*
X02892Y03214*
Y03191*
X02838Y03137*
X02835Y03133*
X02834Y03128*
Y03009*
X02829Y03006*
X02824Y02998*
X02822Y02988*
X02824Y02978*
X02829Y02969*
X02838Y02964*
X02848Y02962*
X02854Y02963*
X02876Y0294*
X0288Y02937*
X02886Y02936*
X03186*
X03189Y02932*
X03189Y02932*
X03191Y02922*
X03196Y02913*
X03205Y02908*
X03215Y02906*
X03225Y02908*
X03233Y02913*
X03239Y02922*
X03241Y02932*
X03239Y02942*
X03233Y0295*
X03232Y02951*
X03233Y02955*
X03307*
X03309Y02951*
X03188Y02829*
X03074Y02829*
X03073Y02834*
X03073Y02834*
X03079Y02843*
X0308Y02848*
X0303*
X03031Y02843*
X03036Y02834*
X03037Y02834*
X03035Y02829*
X02877Y02829*
X02688Y03023*
X02689Y0326*
X02759Y0333*
X02761Y03455*
X02844Y03542*
X03079Y03541*
G37*
G36*
X04327Y03391D02*
X04331Y03388D01*
X04337Y03387*
X04482*
X0452Y03349*
Y03344*
X04506Y0333*
X04501Y03324*
X045Y03316*
Y03305*
X04497Y03301*
X04495Y03291*
X04497Y03281*
X045Y03276*
Y03276*
X04501Y03268*
X04506Y03261*
X04513Y03256*
X04521Y03255*
X04529Y03256*
X04535Y03261*
X0454Y03268*
X04541Y03276*
Y03276*
X04545Y03281*
X04547Y03291*
X04545Y03301*
X04541Y03305*
Y03307*
X04599Y03365*
X04942*
X04977Y03329*
X04977Y03328*
X04979Y03318*
X0498Y03317*
Y03154*
X04952Y03126*
X04935*
X04931Y0313*
X04921Y03132*
X04911Y0313*
X04902Y03124*
X04897Y03116*
X04895Y03106*
X04897Y03096*
X04902Y03087*
X04911Y03082*
X04921Y0308*
X04931Y03082*
X04935Y03085*
X04961*
X04969Y03086*
X04975Y03091*
X05015Y03131*
X05018Y03135*
X0502Y03138*
X05021Y03146*
Y0331*
X05027Y03318*
X05029Y03328*
X05027Y03338*
X05021Y03346*
X05015Y03351*
X04971Y03395*
X04973Y03399*
X05062*
X05234Y03228*
Y03199*
X05195*
X05192Y03204*
X05183Y0321*
X05174Y03212*
X05164Y0321*
X05155Y03204*
X0515Y03196*
X05148Y03186*
X0515Y03176*
X05155Y03167*
X05164Y03162*
X05174Y0316*
X05183Y03162*
X05192Y03167*
X05195Y03172*
X05234*
Y03055*
X05023Y02806*
X0488Y02755*
X04876Y02757*
X04875Y02762*
X04869Y02771*
X04864Y02774*
Y02824*
X04869Y02827*
X04875Y02836*
X04877Y02846*
X04875Y02856*
X04869Y02864*
X0486Y0287*
X04851Y02872*
X04841Y0287*
X04832Y02864*
X04827Y02856*
X04825Y02846*
X04827Y02836*
X04832Y02827*
X04837Y02824*
Y02774*
X04832Y02771*
X04827Y02762*
X04825Y02753*
X04827Y02743*
X04828Y02741*
X04826Y02736*
X04648Y02673*
X04523Y02671*
X04521Y02676*
X04529Y02686*
X04538Y02703*
X04544Y02721*
X04546Y0274*
X04544Y02758*
X04538Y02776*
X04529Y02793*
X04517Y02807*
X04503Y02819*
X04486Y02828*
X04468Y02834*
X04455Y02835*
X0445Y0286*
X04437Y02899*
X04422Y02936*
X04403Y02973*
X04381Y03007*
X04356Y03039*
X04329Y03069*
X0432Y03078*
Y03137*
X04222Y03222*
Y03334*
X04246Y03353*
X0425Y03351*
X04251Y03347*
X04257Y03339*
X04265Y03333*
X0427Y03332*
Y03357*
X04275*
Y03362*
X043*
X04299Y03367*
X04293Y03375*
X04285Y03381*
X04284Y03384*
X04308Y03403*
X04314Y03404*
X04327Y03391*
G37*
G36*
X03321Y0473D02*
X03204D01*
X03199Y04734*
X0319Y04736*
X0318Y04734*
X03171Y04728*
X03166Y0472*
X03164Y0471*
X03166Y047*
X03171Y04691*
X0318Y04686*
X0319Y04684*
X03199Y04686*
X03204Y04689*
X03321*
Y04665*
X03238Y04582*
X03225Y04578*
X03212Y04571*
X03201Y04562*
X03191Y0455*
X03184Y04537*
X0318Y04524*
X03118Y04462*
X03102*
Y04542*
X03105Y04546*
X03107Y04556*
X03105Y04565*
X03099Y04574*
X03091Y0458*
X03081Y04582*
X03071Y0458*
X03062Y04574*
X03057Y04565*
X03055Y04556*
X03057Y04546*
X03061Y04539*
Y04462*
X02859*
Y05*
X02933Y05072*
X02934Y05073*
X03321*
Y0473*
G37*
%LNronemotorboard-v10-2*%
%LPC*%
G36*
X0517Y03072D02*
X05165Y03071D01*
X05156Y03065*
X05151Y03057*
X0515Y03052*
X0517*
Y03072*
G37*
G36*
X02767Y03111D02*
X02747D01*
Y03091*
X02752Y03092*
X0276Y03097*
X02766Y03106*
X02767Y03111*
G37*
G36*
X02737D02*
X02717D01*
X02718Y03106*
X02723Y03097*
X02732Y03092*
X02737Y03091*
Y03111*
G37*
G36*
X0518Y03072D02*
Y03052D01*
X052*
X05199Y03057*
X05193Y03065*
X05184Y03071*
X0518Y03072*
G37*
G36*
X0517Y03042D02*
X0515D01*
X05151Y03037*
X05156Y03028*
X05165Y03023*
X0517Y03022*
Y03042*
G37*
G36*
X03294Y03041D02*
Y03021D01*
X03314*
X03313Y03025*
X03307Y03034*
X03298Y0304*
X03294Y03041*
G37*
G36*
X052Y03042D02*
X0518D01*
Y03022*
X05184Y03023*
X05193Y03028*
X05199Y03037*
X052Y03042*
G37*
G36*
X04876Y03061D02*
Y03041D01*
X04896*
X04895Y03045*
X04889Y03054*
X0488Y0306*
X04876Y03061*
G37*
G36*
X04866D02*
X04861Y0306D01*
X04852Y03054*
X04847Y03045*
X04846Y03041*
X04866*
Y03061*
G37*
G36*
X03016Y03114D02*
X02996D01*
X02997Y03109*
X03002Y031*
X03011Y03095*
X03016Y03094*
Y03114*
G37*
G36*
Y03144D02*
X03011Y03143D01*
X03002Y03137*
X02997Y03129*
X02996Y03124*
X03016*
Y03144*
G37*
G36*
X02747Y03141D02*
Y03121D01*
X02767*
X02766Y03126*
X0276Y03134*
X02752Y0314*
X02747Y03141*
G37*
G36*
X03026Y03144D02*
Y03124D01*
X03046*
X03045Y03129*
X03039Y03137*
X03031Y03143*
X03026Y03144*
G37*
G36*
X03221Y03149D02*
Y03129D01*
X03241*
X0324Y03133*
X03234Y03142*
X03226Y03148*
X03221Y03149*
G37*
G36*
X03211D02*
X03206Y03148D01*
X03197Y03142*
X03192Y03133*
X03191Y03129*
X03211*
Y03149*
G37*
G36*
X02737Y03141D02*
X02732Y0314D01*
X02723Y03134*
X02718Y03126*
X02717Y03121*
X02737*
Y03141*
G37*
G36*
X04752Y03117D02*
X04732D01*
X04733Y03112*
X04739Y03104*
X04747Y03098*
X04752Y03097*
Y03117*
G37*
G36*
X03046Y03114D02*
X03026D01*
Y03094*
X03031Y03095*
X03039Y031*
X03045Y03109*
X03046Y03114*
G37*
G36*
X04829Y03117D02*
X04809D01*
Y03097*
X04814Y03098*
X04823Y03104*
X04828Y03112*
X04829Y03117*
G37*
G36*
X03241Y03119D02*
X03221D01*
Y03099*
X03226Y031*
X03234Y03105*
X0324Y03114*
X03241Y03119*
G37*
G36*
X03211D02*
X03191D01*
X03192Y03114*
X03197Y03105*
X03206Y031*
X03211Y03099*
Y03119*
G37*
G36*
X03284Y03041D02*
X03279Y0304D01*
X0327Y03034*
X03265Y03025*
X03264Y03021*
X03284*
Y03041*
G37*
G36*
X0492Y0293D02*
X049D01*
Y0291*
X04905Y02911*
X04913Y02916*
X04919Y02925*
X0492Y0293*
G37*
G36*
X0489D02*
X0487D01*
X04871Y02925*
X04876Y02916*
X04885Y02911*
X0489Y0291*
Y0293*
G37*
G36*
X04736Y02942D02*
X04716D01*
X04717Y02937*
X04722Y02928*
X04731Y02923*
X04736Y02922*
Y02942*
G37*
G36*
X0489Y0296D02*
X04885Y02959D01*
X04876Y02953*
X04871Y02945*
X0487Y0294*
X0489*
Y0296*
G37*
G36*
X04766Y02942D02*
X04746D01*
Y02922*
X0475Y02923*
X04759Y02928*
X04765Y02937*
X04766Y02942*
G37*
G36*
X03149Y02906D02*
Y02886D01*
X03169*
X03168Y0289*
X03162Y02899*
X03153Y02905*
X03149Y02906*
G37*
G36*
X03169Y02876D02*
X03149D01*
Y02856*
X03153Y02857*
X03162Y02862*
X03168Y02871*
X03169Y02876*
G37*
G36*
X03139D02*
X03119D01*
X0312Y02871*
X03125Y02862*
X03134Y02857*
X03139Y02856*
Y02876*
G37*
G36*
X0305Y02878D02*
X03045Y02877D01*
X03036Y02871*
X03031Y02863*
X0303Y02858*
X0305*
Y02878*
G37*
G36*
X03139Y02906D02*
X03134Y02905D01*
X03125Y02899*
X0312Y0289*
X03119Y02886*
X03139*
Y02906*
G37*
G36*
X0306Y02878D02*
Y02858D01*
X0308*
X03079Y02863*
X03073Y02871*
X03064Y02877*
X0306Y02878*
G37*
G36*
X04491Y03025D02*
X04486Y03024D01*
X04478Y03018*
X04472Y03009*
X04471Y03005*
X04491*
Y03025*
G37*
G36*
X03314Y03011D02*
X03294D01*
Y02991*
X03298Y02992*
X03307Y02997*
X03313Y03006*
X03314Y03011*
G37*
G36*
X04501Y03025D02*
Y03005D01*
X04521*
X0452Y03009*
X04514Y03018*
X04506Y03024*
X04501Y03025*
G37*
G36*
X04896Y03031D02*
X04876D01*
Y03011*
X0488Y03012*
X04889Y03017*
X04895Y03026*
X04896Y03031*
G37*
G36*
X04866D02*
X04846D01*
X04847Y03026*
X04852Y03017*
X04861Y03012*
X04866Y03011*
Y03031*
G37*
G36*
X03284Y03011D02*
X03264D01*
X03265Y03006*
X0327Y02997*
X03279Y02992*
X03284Y02991*
Y03011*
G37*
G36*
X04736Y02972D02*
X04731Y02971D01*
X04722Y02965*
X04717Y02956*
X04716Y02952*
X04736*
Y02972*
G37*
G36*
X049Y0296D02*
Y0294D01*
X0492*
X04919Y02945*
X04913Y02953*
X04905Y02959*
X049Y0296*
G37*
G36*
X04746Y02972D02*
Y02952D01*
X04766*
X04765Y02956*
X04759Y02965*
X0475Y02971*
X04746Y02972*
G37*
G36*
X04521Y02995D02*
X04501D01*
Y02975*
X04506Y02976*
X04514Y02981*
X0452Y0299*
X04521Y02995*
G37*
G36*
X04491D02*
X04471D01*
X04472Y0299*
X04478Y02981*
X04486Y02976*
X04491Y02975*
Y02995*
G37*
G36*
X04752Y03194D02*
X04747Y03193D01*
X04739Y03188*
X04733Y03179*
X04732Y03174*
X04752*
Y03194*
G37*
G36*
X03079Y03457D02*
Y03437D01*
X03099*
X03098Y03442*
X03092Y0345*
X03084Y03456*
X03079Y03457*
G37*
G36*
X03069D02*
X03064Y03456D01*
X03055Y0345*
X0305Y03442*
X03049Y03437*
X03069*
Y03457*
G37*
G36*
X02951Y04628D02*
X02931D01*
X02932Y04623*
X02937Y04614*
X02946Y04609*
X02951Y04608*
Y04628*
G37*
G36*
X03122Y04629D02*
X03102D01*
X03103Y04624*
X03108Y04615*
X03117Y0461*
X03122Y04609*
Y04629*
G37*
G36*
X02981Y04628D02*
X02961D01*
Y04608*
X02966Y04609*
X02974Y04614*
X0298Y04623*
X02981Y04628*
G37*
G36*
X02873Y03454D02*
Y03434D01*
X02893*
X02892Y03439*
X02886Y03447*
X02877Y03453*
X02873Y03454*
G37*
G36*
X02893Y03424D02*
X02873D01*
Y03404*
X02877Y03405*
X02886Y03411*
X02892Y03419*
X02893Y03424*
G37*
G36*
X02863D02*
X02843D01*
X02844Y03419*
X02849Y03411*
X02858Y03405*
X02863Y03404*
Y03424*
G37*
G36*
X03069Y03427D02*
X03049D01*
X0305Y03422*
X03055Y03413*
X03064Y03408*
X03069Y03407*
Y03427*
G37*
G36*
X02863Y03454D02*
X02858Y03453D01*
X02849Y03447*
X02844Y03439*
X02843Y03434*
X02863*
Y03454*
G37*
G36*
X03099Y03427D02*
X03079D01*
Y03407*
X03084Y03408*
X03092Y03413*
X03098Y03422*
X03099Y03427*
G37*
G36*
X03182Y05004D02*
X03172Y05002D01*
X03163Y04996*
X03158Y04987*
X03156Y04978*
X03158Y04968*
X03163Y04959*
X03171Y04954*
Y04925*
X03169Y04924*
X03164Y04915*
X03162Y04906*
X03164Y04896*
X03169Y04887*
X03178Y04882*
X03188Y0488*
X03197Y04882*
X03206Y04887*
X03212Y04896*
X03214Y04906*
X03212Y04915*
X03206Y04924*
X03197Y0493*
X03196Y0493*
Y04956*
X032Y04959*
X03206Y04968*
X03208Y04978*
X03206Y04987*
X032Y04996*
X03192Y05002*
X03182Y05004*
G37*
G36*
X0309Y04857D02*
X0307D01*
Y04837*
X03075Y04838*
X03084Y04844*
X03089Y04852*
X0309Y04857*
G37*
G36*
X03013Y04934D02*
X03008Y04933D01*
X03Y04928*
X02994Y04919*
X02993Y04914*
X03013*
Y04934*
G37*
G36*
X0306D02*
X03055Y04933D01*
X03047Y04928*
X03044Y04923*
X03039*
X03036Y04928*
X03028Y04933*
X03023Y04934*
Y04909*
X03018*
Y04904*
X02993*
X02994Y04899*
X03Y04891*
X03004Y04888*
Y04883*
X03Y0488*
X02994Y04872*
X02993Y04867*
X03018*
Y04862*
X03023*
Y04837*
X03028Y04838*
X03036Y04844*
X03039Y04848*
X03044*
X03047Y04844*
X03055Y04838*
X0306Y04837*
Y04862*
X03065*
Y04867*
X0309*
X03089Y04872*
X03084Y0488*
X03079Y04883*
Y04888*
X03084Y04891*
X03089Y04899*
X0309Y04904*
X03065*
Y04909*
X0306*
Y04934*
G37*
G36*
X0307D02*
Y04914D01*
X0309*
X03089Y04919*
X03084Y04928*
X03075Y04933*
X0307Y04934*
G37*
G36*
X03013Y04857D02*
X02993D01*
X02994Y04852*
X03Y04844*
X03008Y04838*
X03013Y04837*
Y04857*
G37*
G36*
X02951Y04658D02*
X02946Y04657D01*
X02937Y04651*
X02932Y04643*
X02931Y04638*
X02951*
Y04658*
G37*
G36*
X03152Y04629D02*
X03132D01*
Y04609*
X03137Y0461*
X03145Y04615*
X03151Y04624*
X03152Y04629*
G37*
G36*
X02961Y04658D02*
Y04638D01*
X02981*
X0298Y04643*
X02974Y04651*
X02966Y04657*
X02961Y04658*
G37*
G36*
X03132Y04659D02*
Y04639D01*
X03152*
X03151Y04643*
X03145Y04652*
X03137Y04658*
X03132Y04659*
G37*
G36*
X03122D02*
X03117Y04658D01*
X03108Y04652*
X03103Y04643*
X03102Y04639*
X03122*
Y04659*
G37*
G36*
X04435Y03372D02*
Y03352D01*
X04455*
X04454Y03357*
X04448Y03365*
X04439Y03371*
X04435Y03372*
G37*
G36*
X04913Y03257D02*
X04893D01*
Y03237*
X04898Y03238*
X04906Y03243*
X04912Y03252*
X04913Y03257*
G37*
G36*
X04883D02*
X04863D01*
X04864Y03252*
X04869Y03243*
X04878Y03238*
X04883Y03237*
Y03257*
G37*
G36*
Y03287D02*
X04878Y03286D01*
X04869Y0328*
X04864Y03272*
X04863Y03267*
X04883*
Y03287*
G37*
G36*
X03223Y03294D02*
X03203D01*
X03204Y03289*
X0321Y0328*
X03218Y03275*
X03223Y03274*
Y03294*
G37*
G36*
X04893Y03287D02*
Y03267D01*
X04913*
X04912Y03272*
X04906Y0328*
X04898Y03286*
X04893Y03287*
G37*
G36*
X03063Y0323D02*
Y0321D01*
X03083*
X03082Y03215*
X03076Y03223*
X03068Y03229*
X03063Y0323*
G37*
G36*
X03053Y032D02*
X03033D01*
X03034Y03195*
X03039Y03187*
X03048Y03181*
X03053Y0318*
Y032*
G37*
G36*
X04809Y03194D02*
Y03174D01*
X04829*
X04828Y03179*
X04823Y03188*
X04814Y03193*
X04809Y03194*
G37*
G36*
X03083Y032D02*
X03063D01*
Y0318*
X03068Y03181*
X03076Y03187*
X03082Y03195*
X03083Y032*
G37*
G36*
X03053Y0323D02*
X03048Y03229D01*
X03039Y03223*
X03034Y03215*
X03033Y0321*
X03053*
Y0323*
G37*
G36*
X04799Y03194D02*
X04794Y03193D01*
X04786Y03188*
X04783Y03183*
X04778*
X04775Y03188*
X04767Y03193*
X04762Y03194*
Y03169*
X04757*
Y03164*
X04732*
X04733Y03159*
X04739Y03151*
X04743Y03148*
Y03143*
X04739Y0314*
X04733Y03132*
X04732Y03127*
X04757*
Y03122*
X04762*
Y03097*
X04767Y03098*
X04775Y03104*
X04778Y03108*
X04783*
X04786Y03104*
X04794Y03098*
X04799Y03097*
Y03122*
X04804*
Y03127*
X04829*
X04828Y03132*
X04823Y0314*
X04818Y03143*
Y03148*
X04823Y03151*
X04828Y03159*
X04829Y03164*
X04804*
Y03169*
X04799*
Y03194*
G37*
G36*
X04425Y03342D02*
X04405D01*
X04406Y03337*
X04411Y03328*
X0442Y03323*
X04425Y03322*
Y03342*
G37*
G36*
X04699Y0333D02*
Y0331D01*
X04719*
X04718Y03314*
X04712Y03323*
X04703Y03329*
X04699Y0333*
G37*
G36*
X04455Y03342D02*
X04435D01*
Y03322*
X04439Y03323*
X04448Y03328*
X04454Y03337*
X04455Y03342*
G37*
G36*
X04425Y03372D02*
X0442Y03371D01*
X04411Y03365*
X04406Y03357*
X04405Y03352*
X04425*
Y03372*
G37*
G36*
X043Y03352D02*
X0428D01*
Y03332*
X04285Y03333*
X04293Y03339*
X04299Y03347*
X043Y03352*
G37*
G36*
X04689Y0333D02*
X04684Y03329D01*
X04675Y03323*
X0467Y03314*
X04669Y0331*
X04689*
Y0333*
G37*
G36*
Y033D02*
X04669D01*
X0467Y03295*
X04675Y03286*
X04684Y03281*
X04689Y0328*
Y033*
G37*
G36*
X03253Y03294D02*
X03233D01*
Y03274*
X03238Y03275*
X03246Y0328*
X03252Y03289*
X03253Y03294*
G37*
G36*
X04719Y033D02*
X04699D01*
Y0328*
X04703Y03281*
X04712Y03286*
X04718Y03295*
X04719Y033*
G37*
G36*
X03233Y03324D02*
Y03304D01*
X03253*
X03252Y03308*
X03246Y03317*
X03238Y03323*
X03233Y03324*
G37*
G36*
X03223D02*
X03218Y03323D01*
X0321Y03317*
X03204Y03308*
X03203Y03304*
X03223*
Y03324*
G37*
%LNronemotorboard-v10-3*%
%LPD*%
G54D10*
X04523Y04879D02*
X04541D01*
X04598Y04822*
X03853Y03822D02*
Y04053D01*
X03902Y04102*
X03655Y0422D02*
X03669Y04207D01*
X03655Y0422D02*
Y0448D01*
X02761Y02786D02*
X02847Y02872D01*
X02761Y02718D02*
Y02786D01*
X0533Y04798D02*
X05343Y04811D01*
X05163Y04798D02*
X0533D01*
X029Y03239D02*
X02906Y03233D01*
Y03186D02*
Y03233D01*
X02848Y03128D02*
X02906Y03186D01*
X04128Y054D02*
X0435D01*
X0339Y04782D02*
X03652Y0452D01*
X04679Y04844D02*
X04815D01*
X04679D02*
Y04994D01*
X04657Y05016D02*
X04679Y04994D01*
X04593Y05016D02*
X04657D01*
X04465Y05149D02*
X04593Y05021D01*
X04465Y05149D02*
Y05332D01*
X04174Y04101D02*
Y04144D01*
X04292Y03274D02*
Y03343D01*
X02751Y02866D02*
X02796Y02821D01*
X02848Y02988D02*
Y03128D01*
X03352Y02545D02*
X03399Y02498D01*
Y02445D02*
Y02498D01*
X03351Y02397D02*
X03399Y02445D01*
X03305Y02397D02*
X03351D01*
X03835Y04098D02*
X03896D01*
X04069Y03725D02*
X04083Y03739D01*
X04033Y03725D02*
X04069D01*
X04598Y04628D02*
Y04822D01*
X02751Y02866D02*
Y03D01*
X02848Y02988D02*
X02886Y0295D01*
X05153Y04992D02*
X05253Y05092D01*
X04815Y04844D02*
X04879Y04908D01*
X02581Y03091D02*
X02595Y03077D01*
X05317Y03082D02*
X05362Y03036D01*
X05217Y03082D02*
X05317D01*
X03698Y05689D02*
X03894D01*
X05317Y03082D02*
Y03128D01*
X0424Y05572D02*
X0428Y05532D01*
X0415Y05572D02*
X0424D01*
X04105Y05617D02*
X0415Y05572D01*
X0289Y05096D02*
X03385D01*
X0283Y05036D02*
X0289Y05096D01*
X02686Y04837D02*
X02871D01*
X04648Y02477D02*
Y02692D01*
X02595Y03077D02*
X027D01*
X03807Y04207D02*
X03834Y0418D01*
X03853Y044D02*
Y04511D01*
X0339Y04782D02*
Y05379D01*
X0418Y04302D02*
X04214Y04268D01*
X02739Y03116D02*
X02742D01*
X027Y03077D02*
X02739Y03116D01*
X04174Y04144D02*
X04243Y04213D01*
X04309*
X04Y03883D02*
Y03927D01*
X0432Y03317D02*
X04381D01*
X04793Y05071D02*
X04878D01*
X04879Y04908D02*
Y05146D01*
X04Y03927D02*
X04009Y03936D01*
X05174Y03186D02*
X05312D01*
X05369Y03128*
X02886Y0295D02*
X03195D01*
X03213Y02931*
X04009Y03936D02*
Y04233D01*
Y04311*
X03652Y0452D02*
X03699D01*
X03705*
X0283Y04918D02*
Y05036D01*
X04679Y04717D02*
Y04844D01*
X03805Y04326D02*
Y04352D01*
X03853Y044*
X04214Y04268D02*
X04302D01*
X0434Y04114D02*
Y0423D01*
X04302Y04268D02*
X0434Y0423D01*
X04325Y04099D02*
X0434Y04114D01*
X03669Y04207D02*
X03807D01*
X03834Y04098D02*
Y0418D01*
X03909Y04103D02*
Y04272D01*
X04059Y03383D02*
Y0339D01*
X03851Y034D02*
X04042D01*
X04059Y03383*
X04488Y03401D02*
X04546Y03343D01*
X04337Y03401D02*
X04488D01*
X04308Y03429D02*
X04337Y03401D01*
X04307Y03429D02*
X04308D01*
X04239Y03521D02*
X04344D01*
X0417Y0359D02*
X04239Y03521D01*
X04083Y03739D02*
X04144D01*
X0417Y03713*
Y0359D02*
Y03713D01*
X03736Y03795D02*
X03772Y03831D01*
X0361Y03732D02*
X03673Y03795D01*
X03736*
X0361Y03694D02*
Y03732D01*
X03579Y03664D02*
X0361Y03694D01*
X0354Y03664D02*
X03579D01*
X03365Y04318D02*
Y04665D01*
Y04318D02*
X03772Y03911D01*
Y03831D02*
Y03911D01*
X03357Y0325D02*
Y03259D01*
X03449Y03463D02*
X03486Y035D01*
X03429Y03331D02*
Y03544D01*
X03389Y03221D02*
X03449Y03281D01*
Y03463*
X03357Y03259D02*
X03429Y03331D01*
G54D42*
X0368Y0415D02*
X03701D01*
X03406Y0471D02*
X03595Y04521D01*
X0319Y0471D02*
X03406D01*
X03595Y04235D02*
Y04521D01*
X04344Y04609D02*
X04474Y04479D01*
X03699Y0452D02*
Y05115D01*
Y04518D02*
Y0452D01*
X04344Y04609D02*
Y05051D01*
X04249Y05146D02*
X04344Y05051D01*
X04249Y05146D02*
Y0529D01*
X04327Y04355D02*
X04382Y04299D01*
X04365Y03854D02*
X04382Y03871D01*
X04395Y0469D02*
X04516Y04569D01*
Y04482D02*
Y04569D01*
X04395Y0469D02*
Y04929D01*
X04284Y03854D02*
X04365D01*
X04591Y03386D02*
X04951D01*
X04517Y0352D02*
Y04479D01*
X03595Y04235D02*
X0368Y0415D01*
X04921Y03106D02*
X04961D01*
X05001Y03146*
X04521Y03276D02*
Y03316D01*
X04951Y03386D02*
X05001Y03336D01*
X03082Y0438D02*
Y04557D01*
Y0438D02*
X03608Y03854D01*
X03706*
X04275Y04355D02*
X04327D01*
X04521Y03316D02*
X04591Y03386D01*
X04676Y03611D02*
Y04377D01*
X04382Y03871D02*
Y04299D01*
X02956Y04633D02*
X03127D01*
X05001Y03146D02*
Y03336D01*
X04474Y03567D02*
Y04479D01*
G54D43*
X04584Y04431D02*
X04585Y04599D01*
X04582Y03526D02*
X04584Y04431D01*
X04585Y04599D02*
X04663Y04677D01*
X04907*
G54D44*
X04149Y04031D02*
Y04082D01*
X04127Y04105D02*
X04149Y04082D01*
X04122Y04105D02*
X04127D01*
X04133Y04303D02*
Y04311D01*
X04148Y04326*
X04002Y04848D02*
Y04941D01*
Y04848D02*
X04118Y04732D01*
X03783Y04071D02*
Y04099D01*
Y04071D02*
X03806Y04048D01*
X04549Y03492D02*
Y04589D01*
X03746Y03681D02*
X03775Y0371D01*
X03958*
X03901Y03808D02*
Y03978D01*
X03943Y0402*
X02909Y02574D02*
X0297D01*
X02903Y02568D02*
X02909Y02574D01*
X02903Y02487D02*
Y02568D01*
X03388Y02834D02*
X03397D01*
X03827Y0343D02*
X04062D01*
X03763Y03366D02*
X03827Y0343D01*
X03792Y03333D02*
X03829Y0337D01*
X03738Y03333D02*
X03792D01*
X0371Y03361D02*
X03738Y03333D01*
X03697Y03208D02*
X03742Y03253D01*
X0371Y03361D02*
Y03421D01*
X03829Y0337D02*
X03993D01*
X04071Y03896D02*
X04303Y03663D01*
X04071Y03896D02*
Y04704D01*
X04035Y04739D02*
X04071Y04704D01*
X05301Y04709D02*
X05426Y04833D01*
X05256Y04709D02*
X05301D01*
X04487Y02571D02*
Y02585D01*
X04684Y02439D02*
X0471Y02413D01*
X04487Y02571D02*
X0462Y02439D01*
X04684*
X03356Y02461D02*
Y02462D01*
X03274Y02544D02*
X03356Y02462D01*
X03274Y02544D02*
Y0265D01*
X03277Y02653*
X03184Y04907D02*
Y04975D01*
X04241Y03771D02*
Y03773D01*
X04088Y03926D02*
X04241Y03773D01*
X04088Y03926D02*
Y04739D01*
X03837Y03335D02*
X03846D01*
X03823Y03317D02*
X03837Y03335D01*
X04052Y0387D02*
Y04659D01*
X04032Y04679D02*
X04052Y04659D01*
X0419Y04789D02*
X04254Y04725D01*
X0419Y04789D02*
Y05066D01*
X03452Y03234D02*
X0347Y03252D01*
X03992Y03772D02*
X03994Y0377D01*
X03978Y03772D02*
X03992D01*
X03942Y03736D02*
X03978Y03772D01*
X04286Y04299D02*
X04321D01*
X04215Y0437D02*
X04286Y04299D01*
X04215Y0437D02*
Y04569D01*
X03822Y03789D02*
X0385Y03761D01*
X03578Y04796D02*
Y04974D01*
X04494Y04965D02*
X04632Y04828D01*
Y04719D02*
Y04828D01*
X04001Y0532D02*
X04022Y05341D01*
X04001Y05294D02*
Y0532D01*
X04916Y04881D02*
Y05457D01*
X04763Y04728D02*
X04916Y04881D01*
X04728Y04728D02*
X04763D01*
X04836Y03649D02*
X04875Y03688D01*
Y03743*
X05068Y03412D02*
X0527Y0321D01*
X04621Y03412D02*
X05068D01*
X05456Y0321D02*
X05478Y03188D01*
X0527Y0321D02*
X05456D01*
X0266Y03112D02*
Y03241D01*
Y03112D02*
X02662Y0311D01*
X03582Y04727D02*
Y04763D01*
X04049Y04824D02*
Y0488D01*
Y04824D02*
X04148Y04725D01*
X04118Y04565D02*
Y04732D01*
X03967Y0486D02*
X04088Y04739D01*
X03951Y04827D02*
X04004Y04774D01*
X03951Y04827D02*
Y05292D01*
X038Y04935D02*
X0387Y04866D01*
Y04765D02*
Y04866D01*
X03851Y0493D02*
X03886Y04895D01*
Y04771D02*
Y04895D01*
X03824Y04463D02*
Y0478D01*
X04062Y04929D02*
X04104Y04887D01*
X03902Y04778D02*
Y04938D01*
X04104Y04855D02*
Y04887D01*
X03461Y04269D02*
Y04555D01*
X03433Y04583D02*
X03461Y04555D01*
X03433Y04583D02*
Y04613D01*
X04229Y04672D02*
X04448Y04453D01*
Y03708D02*
Y04453D01*
X04428Y03716D02*
Y04442D01*
X04149Y05107D02*
X0419Y05066D01*
X04051Y05363D02*
X04095Y05407D01*
X03594Y05363D02*
X04051D01*
X04022Y05341D02*
X04339D01*
X04363Y05317*
X03638Y03689D02*
X03662Y03665D01*
X03702*
X03669Y03681D02*
X03746D01*
X03654Y03696D02*
X03669Y03681D01*
X03702Y03665D02*
X03772Y03595D01*
X03801*
X03716Y03736D02*
X03942D01*
X03697Y03717D02*
X03716Y03736D01*
X03407Y03058D02*
Y03191D01*
X03317Y02968D02*
X03407Y03058D01*
X02982Y02968D02*
X03317D01*
X03463Y03019D02*
X03519Y03075D01*
X03462Y03019D02*
X03463D01*
X03458Y02992D02*
X0348D01*
X03407Y03191D02*
X03449Y03233D01*
X03442Y03115D02*
X03468D01*
X03993Y0337D02*
X04014Y03349D01*
Y03321D02*
Y03349D01*
X03937Y03332D02*
Y03333D01*
X0348Y02992D02*
X03503Y03015D01*
X03457Y03036D02*
Y03036D01*
X03441Y03042D02*
Y03042D01*
X03425Y03049D02*
Y03049D01*
X02937Y02757D02*
X02961Y02734D01*
X02864Y02757D02*
X02937D01*
X02837Y02785D02*
X02864Y02757D01*
X04062Y0343D02*
X04145Y03513D01*
X03088Y02793D02*
X0309Y02791D01*
Y02791*
X0309Y02792*
X02834Y02645D02*
X02903D01*
X03105Y0548D02*
X03244D01*
X02443Y04844D02*
X02485Y04802D01*
X02515*
X02443Y04844D02*
Y04936D01*
X02678Y05171*
X0422Y03574D02*
X04228Y03582D01*
X0421Y03585D02*
X0422Y03574D01*
X04648Y05725D02*
X04916Y05457D01*
X04461Y05725D02*
X04648D01*
X04395Y05659D02*
X04461Y05725D01*
X02678Y05171D02*
X03122D01*
X0445Y04689D02*
X04549Y04589D01*
X03129Y02474D02*
X03135D01*
X03082Y02427D02*
X03129Y02474D01*
X02964Y02427D02*
X03082D01*
X02903Y02487D02*
X02964Y02427D01*
X03582Y04727D02*
X03623Y04686D01*
X03394Y05446D02*
X03477Y05363D01*
X04149Y05107D02*
Y05287D01*
X041Y04939D02*
X04166Y04873D01*
X03903Y05235D02*
Y05288D01*
X03881Y05213D02*
X03903Y05235D01*
X03815Y05248D02*
X03854Y05287D01*
X03637Y05248D02*
X03815D01*
X03782Y05266D02*
X03801Y05285D01*
X03699Y05266D02*
X03782D01*
X03667Y05297D02*
X03699Y05266D01*
X036Y05213D02*
X03881D01*
X03884Y0435D02*
Y04562D01*
X03862Y04328D02*
X03884Y0435D01*
X04321Y04299D02*
X04358Y04262D01*
X04318Y03898D02*
X04358Y03938D01*
X03413Y02583D02*
Y02759D01*
X03354Y02818D02*
X03413Y02759D01*
Y02583D02*
X03751Y02245D01*
X03845Y03651D02*
X03855Y03661D01*
X0445Y04689D02*
Y04814D01*
X03806Y04004D02*
Y04048D01*
X04322Y03582D02*
X04448Y03708D01*
X04228Y03582D02*
X04322D01*
X04104Y03702D02*
X04122D01*
X0501Y04666D02*
Y04846D01*
X04875Y04531D02*
X0501Y04666D01*
X03122Y05171D02*
X0315Y05143D01*
X03278Y05446D02*
X03394D01*
X03245Y05479D02*
X03278Y05446D01*
X03751Y02245D02*
X04346D01*
X04632Y03582D02*
Y0457D01*
X02964Y05127D02*
X03053D01*
X03056Y05297D02*
X03204D01*
X04149Y04031D02*
X0418Y04001D01*
X04207*
X04095Y05407D02*
Y0543D01*
X04494Y02393D02*
X0464D01*
X04346Y02245D02*
X04494Y02393D01*
X0258Y04934D02*
X02585Y04929D01*
X02731Y04901*
X02579Y04935D02*
X0258Y04934D01*
X02579Y04935D02*
X0258D01*
X04563Y05437D02*
Y05573D01*
X03432Y05561D02*
X03564Y05429D01*
X03919Y0557D02*
X0394Y05549D01*
X03919Y0557D02*
Y05608D01*
X0416Y05688D02*
X04225Y05623D01*
X04081Y05688D02*
X0416D01*
X02975Y05211D02*
X03145D01*
X05265Y0502D02*
X05323Y05078D01*
X05427Y04833D02*
Y04942D01*
X04225Y04303D02*
Y04306D01*
X04232Y04313*
X05265Y04909D02*
Y0502D01*
X05236Y0488D02*
X05265Y04909D01*
X0501Y04846D02*
X05044Y0488D01*
X05236*
X04875Y03744D02*
Y04531D01*
X04859Y03751D02*
Y04566D01*
X03736Y04375D02*
X03824Y04463D01*
X03861Y04291D02*
Y04308D01*
X03736Y04324D02*
Y04375D01*
X03994Y03771D02*
X04133D01*
X04166Y04378D02*
Y04873D01*
Y04378D02*
X04223Y04321D01*
X0422Y04313D02*
X04234D01*
X04773Y03637D02*
X04859Y03723D01*
Y03751*
X04531Y04793D02*
X04555Y04817D01*
X04531Y04731D02*
Y04793D01*
X03772Y03647D02*
X03806Y03681D01*
X04083*
X04104Y03702*
X0297Y0298D02*
X02982Y02968D01*
X0297Y0298D02*
Y03025D01*
X03923Y03767D02*
Y03783D01*
X03933Y03793*
Y03987*
X0396Y03853D02*
Y03991D01*
X04046Y03811D02*
X04095D01*
X0396Y03853D02*
X03982Y03831D01*
X04026*
X04046Y03811*
X0421Y03848D02*
Y03881D01*
X04227Y03898*
X04318*
X04104Y03418D02*
X04176Y0349D01*
Y03535*
X0409Y03621D02*
X04176Y03535D01*
X03893Y03621D02*
X0409D01*
X03796Y03524D02*
X03893Y03621D01*
X03752Y03524D02*
X03796D01*
X03933Y03987D02*
X03959Y04013D01*
Y04171*
X03862Y043D02*
Y04328D01*
X03902Y04778D02*
X03977Y04704D01*
X0396Y03991D02*
X03977Y04008D01*
Y04704*
X03959Y04172D02*
Y04699D01*
X03886Y04771D02*
X03959Y04699D01*
X03943Y04021D02*
Y04692D01*
X0387Y04765D02*
X03943Y04692D01*
X04148Y04326D02*
Y04725D01*
X04223Y04298D02*
Y04321D01*
X03468Y03188D02*
X03499Y03219D01*
X03468Y03188D02*
Y03188D01*
X04358Y03938D02*
Y04262D01*
X037Y03497D02*
X0376Y03437D01*
X03787*
X04226Y04629D02*
X0423Y04625D01*
X04245*
X04428Y04442*
X0427Y03614D02*
X04326D01*
X04428Y03716*
X0315Y05143D02*
X03156D01*
X03815Y03301D02*
X03817Y03299D01*
X03809Y03285D02*
X0381Y03283D01*
X03802Y03269D02*
X03804Y03267D01*
X03795Y03253D02*
X03797Y03251D01*
X03742Y03253D02*
X03795D01*
X03797Y03251D02*
X03899D01*
X03979Y03324D02*
Y03332D01*
X03804Y03267D02*
X03892D01*
X03934Y03332D02*
X03937D01*
X0381Y03283D02*
X03886D01*
X03934Y03332*
X03817Y03299D02*
X03879D01*
X03893Y03313*
X03926Y03301D02*
X03955D01*
X03979Y03324*
X03899Y03251D02*
X03933Y03285D01*
X03892Y03267D02*
X03926Y03301D01*
X03578Y04796D02*
X0364Y04733D01*
X04014Y03321D02*
X0403Y03304D01*
X0416*
X04173Y03317*
Y03427*
X04164Y03285D02*
X04191Y03312D01*
X03933Y03285D02*
X04164D01*
X04191Y03312D02*
Y03415D01*
X04104Y03358D02*
Y03418D01*
Y03358D02*
X04118Y03343D01*
X0414*
X03906Y03235D02*
X03925Y03254D01*
X04101*
X04573Y03459D02*
X04621Y03412D01*
X04532Y03475D02*
X04549Y03492D01*
X04173Y03427D02*
X04222Y03475D01*
X03855Y03661D02*
X04073D01*
X04243Y03491*
X04222Y03475D02*
X04236D01*
X04236Y03475*
X04403Y03475D02*
X04532D01*
X04191Y03415D02*
X04235Y03459D01*
X04409Y03459D02*
X04573D01*
X04396Y03491D02*
X04471Y03566D01*
X04402Y03475D02*
X04403Y03475D01*
X04409Y03459D02*
X04409Y03459D01*
X04235Y03459D02*
X04409D01*
X04236Y03475D02*
X04402D01*
X04243Y03491D02*
X04396D01*
X03335Y03339D02*
X03355Y03359D01*
X0367Y03317D02*
X03823D01*
X03676Y03301D02*
X03815D01*
X03683Y03285D02*
X03809D01*
X0369Y03269D02*
X03802D01*
X03468Y03115D02*
X0367Y03317D01*
X03425Y03049D02*
X03676Y03301D01*
X03441Y03042D02*
X03683Y03285D01*
X03457Y03036D02*
X0369Y03269D01*
X03519Y03075D02*
X03543D01*
X03574Y03106*
Y0311*
X03549Y03017D02*
X03767Y03235D01*
X03906*
X03354Y02818D02*
Y02841D01*
X0348Y02968*
X03533Y03026D02*
X0362Y03113D01*
Y0315*
X03397Y02834D02*
Y02843D01*
X03399D02*
X03549Y02993D01*
Y03017*
X03397Y02843D02*
X03399D01*
X03501Y02968D02*
X03533Y03D01*
Y03026*
X0348Y02968D02*
X03501D01*
X03477Y05268D02*
Y05363D01*
X03456Y04821D02*
X03532Y04745D01*
X03456Y04821D02*
Y05225D01*
X03594Y05363*
X0344Y05232D02*
X03477Y05268D01*
X0349Y04854D02*
Y05143D01*
Y04854D02*
X03582Y04763D01*
X0344Y04782D02*
X03572Y04651D01*
X0344Y04782D02*
Y05232D01*
X03824Y04777D02*
Y04825D01*
X03743Y03778D02*
X03789Y03824D01*
X0375Y03759D02*
X03805Y03814D01*
X03638Y03689D02*
Y03736D01*
X0368Y03778*
X03743*
X03654Y03696D02*
Y03729D01*
X03683Y03759*
X0375*
X03504Y04248D02*
Y04541D01*
Y04248D02*
X03822Y0393D01*
X03789Y03824D02*
Y03918D01*
X03805Y03814D02*
Y03925D01*
X03822Y03789D02*
Y0393D01*
X03461Y04269D02*
X03805Y03925D01*
X03421Y04286D02*
X03789Y03918D01*
X03421Y04286D02*
Y04543D01*
X0342Y04544D02*
X03421Y04543D01*
X04254Y04706D02*
Y04725D01*
X04062Y04929D02*
Y05072D01*
X041Y0511*
Y05289*
X03967Y0486D02*
Y05032D01*
X04048Y05113*
Y0529*
X042Y05108D02*
Y0529D01*
Y05108D02*
X043Y05008D01*
Y04666D02*
Y05008D01*
X04363Y05096D02*
Y05317D01*
Y05096D02*
X04489Y0497D01*
Y04969D02*
Y0497D01*
X04887Y0364D02*
X04887D01*
X04939Y03692*
Y04497*
X03539Y03444D02*
X03572D01*
X03499Y03219D02*
Y03404D01*
X03539Y03444*
X03546Y03367D02*
Y03397D01*
Y03367D02*
X03594Y03319D01*
Y03288D02*
Y03319D01*
X0347Y03252D02*
Y03403D01*
X03685Y03614D02*
X03691Y03608D01*
X0347Y03403D02*
X03681Y03614D01*
X03685*
X03355Y03359D02*
X03377Y03381D01*
Y0358*
X03414Y03617*
X03638*
X02903Y02645D02*
X02959Y02701D01*
X0297Y02574D02*
X03081Y02685D01*
X02959Y02701D02*
X03144D01*
X03081Y02685D02*
X03151D01*
X03047Y02576D02*
X0314Y02669D01*
X0309Y02792D02*
X03168D01*
X03425Y03049*
X03198Y02708D02*
X03226Y02737D01*
X03381*
X02961Y02734D02*
X03132D01*
X03441Y03042*
X02904Y02717D02*
X03138D01*
X03457Y03036*
X03144Y02701D02*
X03462Y03019D01*
X03151Y02685D02*
X03458Y02992D01*
X03159Y02669D02*
X03198Y02708D01*
Y02708*
X0314Y02669D02*
X03159D01*
X02977Y02504D02*
X03054D01*
X03209Y0266*
X0321*
G54D46*
X04295Y03852D03*
Y04147D03*
X03704D03*
Y03852D03*
G54D47*
X02691Y02787D03*
X02762Y02857D03*
Y02716D03*
X02832Y02787D03*
Y02645D03*
X02903Y02716D03*
Y02575D03*
X02974Y02645D03*
Y02504D03*
X0477Y05065D03*
G54D48*
X03045Y02575D03*
G54D49*
X03569Y05117D03*
X04431D03*
X04745Y0522D03*
X04665D03*
X03669Y05471D03*
G54D50*
X0467Y05065D03*
G54D51*
X04526Y04879D03*
X04001Y04946D03*
X03782Y04105D03*
X04175Y04101D03*
X03903Y04938D03*
X0414Y03517D03*
X02731Y04899D03*
X03182Y04978D03*
X03188Y04906D03*
X04242Y03775D03*
X04032Y04681D03*
X03453Y0323D03*
X043Y04655D03*
X03542Y04742D03*
X03854Y03766D03*
X04939Y04498D03*
X03999Y05292D03*
X04858Y04565D03*
X05479Y03186D03*
X04049Y04882D03*
X04104Y0486D03*
X03433Y04612D03*
X0342Y04544D03*
X03505Y04541D03*
X0425Y04927D03*
X03698Y03715D03*
X03801Y03595D03*
X03462Y03181D03*
X0344Y03114D03*
X03504Y03014D03*
X03844Y03335D03*
X03893Y03332D03*
X03979D03*
X03851Y034D03*
X03762Y03368D03*
X0362Y03151D03*
X03594Y03288D03*
X041Y05289D03*
X0309Y02791D03*
X03021Y03119D03*
X04519Y03516D03*
X03135Y02474D03*
X04593Y05016D03*
X04099Y04943D03*
X03853Y05293D03*
X03637Y05248D03*
X03884Y04563D03*
X03854Y04518D03*
X037Y05116D03*
X04476Y03567D03*
X04309Y04213D03*
X0321Y0266D03*
X03275Y02657D03*
X03712Y03422D03*
X02905Y03237D03*
X03305Y02397D03*
X03382Y02739D03*
X0435Y05401D03*
X04128D03*
X04216Y04572D03*
X04249Y05291D03*
X04394Y04934D03*
X03805Y03998D03*
X04033Y03725D03*
X03703Y035D03*
X04038Y04737D03*
X04047Y05291D03*
X04004Y04774D03*
X04121Y03705D03*
X04227Y04672D03*
X04223Y04624D03*
X04118Y04563D03*
X05343Y04811D03*
X02848Y02988D03*
X05253Y05092D03*
X05153Y04992D03*
X04304Y03659D03*
X04268Y03618D03*
X03994Y03772D03*
X02581Y03091D03*
X02515Y04802D03*
X03156Y05143D03*
X03623Y04686D03*
X03571Y04651D03*
X05379Y0312D03*
X05174Y03186D03*
X05315Y03129D03*
X04489Y04969D03*
X04631Y0457D03*
X05175Y03047D03*
X03365Y04665D03*
X03951Y05293D03*
X03053Y05127D03*
X03058Y05301D03*
X03205Y05298D03*
X03578Y04978D03*
X036Y05213D03*
X03663Y053D03*
X0364Y04733D03*
X03852Y04935D03*
X03802Y04938D03*
X03699Y04518D03*
X03127Y04634D03*
X02956Y04633D03*
X03081Y04556D03*
X04584Y04431D03*
X03904Y05287D03*
X03801Y05292D03*
X04151Y05291D03*
X04201Y05294D03*
X04096Y03814D03*
X04709Y02413D03*
X04643Y02393D03*
X05359Y03033D03*
X04486Y02578D03*
X05428Y04942D03*
X04563Y05573D03*
Y05433D03*
X03432Y05561D03*
X03564Y05429D03*
X02583Y0493D03*
X04871Y03036D03*
X04921Y03106D03*
X05003Y03328D03*
X03357Y02462D03*
X0319Y0471D03*
X04804Y03169D03*
Y03122D03*
X04757Y03169D03*
Y03122D03*
X03018Y04862D03*
Y04909D03*
X03065Y04862D03*
Y04909D03*
X03144Y02881D03*
X03055Y02853D03*
X03289Y03016D03*
X0394Y05549D03*
X03696Y0569D03*
X04225Y05623D03*
X0428Y05532D03*
X04094Y05435D03*
X03245Y05479D03*
X04676Y04377D03*
X03657Y04481D03*
X03145Y05211D03*
X02972Y0521D03*
X02964Y05131D03*
X04395Y05659D03*
X02686Y04837D03*
X02829Y04918D03*
X0339Y05379D03*
X04465Y05332D03*
X05323Y05078D03*
X05257Y04706D03*
X0418Y04302D03*
X04133Y04298D03*
X04009Y04233D03*
X04648Y02477D03*
X04888Y03262D03*
X03638Y03618D03*
X03215Y02932D03*
X04218Y03586D03*
X04633Y04728D03*
X03705Y04204D03*
X0421Y03848D03*
X04133Y03771D03*
X0354Y03664D03*
X0445Y04815D03*
X04773Y03637D03*
X04836Y03647D03*
X04632Y03585D03*
X04583Y03522D03*
X04681Y04727D03*
X04728D03*
X04555Y04817D03*
X04531Y04738D03*
X05165Y04795D03*
X03839Y03647D03*
X03771Y03644D03*
X03697Y03616D03*
X04229Y04303D03*
X03386Y02831D03*
X0297Y03025D03*
X02742Y03116D03*
X0266Y03109D03*
X03216Y03124D03*
X03853Y03812D03*
X03957Y0371D03*
X03923Y03768D03*
X03901Y03812D03*
X04051Y03872D03*
X04Y03879D03*
X04196Y04D03*
X03905Y04105D03*
X04879Y05146D03*
X04694Y03305D03*
X04741Y02947D03*
X03785Y03435D03*
X03748Y03525D03*
X04127Y04105D03*
X03832Y04099D03*
X03736Y04324D03*
X03908Y04279D03*
X04008Y04313D03*
X04517Y04479D03*
X04273Y04354D03*
X03863Y04296D03*
X03364Y0442D03*
X03355Y02548D03*
X03805Y0432D03*
X04324Y04097D03*
X04677Y03611D03*
X0443Y03347D03*
X04521Y03291D03*
X03937Y03332D03*
X04887Y0364D03*
X0414Y03343D03*
X04496Y03D03*
X04059Y03383D03*
X04095Y03255D03*
X04275Y03357D03*
X04307Y03429D03*
X04344Y03521D03*
X03058Y03205D03*
X03074Y03432D03*
X02868Y03429D03*
X0266Y03241D03*
X03336Y03338D03*
X03574Y0311D03*
X03697Y03208D03*
X04888Y02935D03*
X03491Y05143D03*
X03824Y04825D03*
X04253Y04706D03*
X03487Y035D03*
X03572Y03445D03*
X03546Y03396D03*
X03228Y03299D03*
X03356Y03257D03*
X03429Y03548D03*
G54D52*
X03105Y0548D03*
X0491Y04681D03*
G54D53*
X0445Y0274D03*
X0355D03*
G54D54*
X04Y0274D03*
G54D55*
X03918Y03562D03*
X03966D03*
X04013D03*
X03918Y03515D03*
X03966D03*
X04013D03*
X03918Y03467D03*
X03966D03*
X04013D03*
G54D56*
X03255Y04508D03*
X04745D03*
X03255Y03492D03*
X04745D03*
G54D57*
X02907Y04354D03*
X05093D03*
X02907Y03646D03*
X05093D03*
G54D58*
X03913Y05684D03*
Y05615D03*
X04086Y05616D03*
Y05684D03*
M02*