%FSTAX23Y23*%
%MOIN*%
%SFA1B1*%

%IPPOS*%
%AMD16*
4,1,4,-0.001400,0.026400,-0.022100,0.014400,0.001400,-0.026400,0.022100,-0.014400,-0.001400,0.026400,0.0*
%
%AMD17*
4,1,4,-0.018000,0.019300,-0.026200,-0.003200,0.018000,-0.019300,0.026200,0.003200,-0.018000,0.019300,0.0*
%
%AMD18*
4,1,4,0.026200,-0.003200,0.018000,0.019300,-0.026200,0.003200,-0.018000,-0.019300,0.026200,-0.003200,0.0*
%
%AMD19*
4,1,4,0.022100,0.014400,0.001400,0.026400,-0.022100,-0.014400,-0.001400,-0.026400,0.022100,0.014400,0.0*
%
%AMD48*
4,1,4,0.000000,-0.041700,0.041700,0.000000,0.000000,0.041700,-0.041700,0.000000,0.000000,-0.041700,0.0*
%
%ADD10C,0.010000*%
%ADD11R,0.078700X0.039400*%
%ADD12R,0.023600X0.019700*%
%ADD13R,0.029100X0.110000*%
%ADD14R,0.011800X0.031500*%
%ADD15R,0.031500X0.011800*%
G04~CAMADD=16~9~0.0~0.0~240.0~470.0~0.0~0.0~0~0.0~0.0~0.0~0.0~0~0.0~0.0~0.0~0.0~0~0.0~0.0~0.0~30.0~442.0~527.0*
%ADD16D16*%
G04~CAMADD=17~9~0.0~0.0~240.0~470.0~0.0~0.0~0~0.0~0.0~0.0~0.0~0~0.0~0.0~0.0~0.0~0~0.0~0.0~0.0~70.0~524.0~385.0*
%ADD17D17*%
G04~CAMADD=18~9~0.0~0.0~240.0~470.0~0.0~0.0~0~0.0~0.0~0.0~0.0~0~0.0~0.0~0.0~0.0~0~0.0~0.0~0.0~290.0~524.0~385.0*
%ADD18D18*%
G04~CAMADD=19~9~0.0~0.0~240.0~470.0~0.0~0.0~0~0.0~0.0~0.0~0.0~0~0.0~0.0~0.0~0.0~0~0.0~0.0~0.0~330.0~442.0~527.0*
%ADD19D19*%
%ADD20R,0.019700X0.023600*%
%ADD21R,0.094500X0.094500*%
%ADD22O,0.037400X0.009800*%
%ADD23O,0.009800X0.037400*%
%ADD24R,0.035400X0.027600*%
%ADD25R,0.027600X0.035400*%
%ADD26R,0.047200X0.055100*%
%ADD27O,0.013800X0.059100*%
%ADD28R,0.098400X0.098400*%
%ADD29O,0.033500X0.009800*%
%ADD30O,0.009800X0.033500*%
%ADD31R,0.035400X0.031500*%
%ADD32R,0.141700X0.141700*%
%ADD33O,0.009800X0.031500*%
%ADD34O,0.031500X0.009800*%
%ADD35R,0.055100X0.047200*%
%ADD36R,0.173000X0.056500*%
%ADD37R,0.059100X0.023600*%
%ADD38R,0.031500X0.035400*%
%ADD39R,0.080000X0.050000*%
%ADD40R,0.011800X0.007900*%
%ADD41R,0.102400X0.043300*%
%ADD42C,0.025000*%
%ADD43C,0.040000*%
%ADD44C,0.008000*%
%ADD45C,0.000000*%
%ADD46C,0.055100*%
%ADD47C,0.059100*%
G04~CAMADD=48~10~0.0~590.4~0.0~0.0~0.0~0.0~0~0.0~0.0~0.0~0.0~0~0.0~0.0~0.0~0.0~0~0.0~0.0~0.0~225.0~590.4~0.0*
%ADD48D48*%
%ADD49C,0.050000*%
%ADD50R,0.059100X0.059100*%
%ADD51C,0.035000*%
%ADD52C,0.040000*%
%ADD53C,0.175000*%
%ADD54C,0.915000*%
%ADD55C,0.026000*%
%ADD56C,0.136000*%
%ADD57C,0.096000*%
%LNronemotorboard-v10-1*%
%LPD*%
G36*
X04925Y03144D02*
X04919D01*
X04884Y03156*
X04916Y03168*
X04925*
Y03144*
G37*
G36*
X04933Y03192D02*
X0489Y03171D01*
X04889Y0318*
X04913Y03215*
X04935Y03216*
X04933Y03192*
G37*
G36*
X04673Y03181D02*
X04668Y03172D01*
X04643Y03185*
X04618*
Y03221*
X04633*
X04673Y03181*
G37*
G36*
X04689Y03156D02*
X04644Y03144D01*
X04626*
Y03168*
X04643*
X04689Y03156*
G37*
G36*
X04918Y0307D02*
X0492Y0305D01*
X0491Y03049*
X04877Y03093*
X04883Y031*
X04918Y0307*
G37*
G36*
X04929Y03122D02*
X04931Y03098D01*
X04909Y03099*
X04885Y03134*
X04891Y03141*
X04929Y03122*
G37*
G36*
X0467Y03133D02*
X04639Y03103D01*
X04618Y03102*
Y03125*
X04642*
X04667Y0314*
X0467Y03133*
G37*
G36*
X04716Y03195D02*
X04681D01*
Y03218*
X04716Y03219*
Y03195*
G37*
G36*
X03142Y04758D02*
X03114Y04755D01*
X03107Y04752*
X03078Y04782*
X03085Y04786*
X03142Y04758*
G37*
G36*
X02945Y04842D02*
X02934Y04821D01*
X02929Y04817*
X02912Y04835*
X02937Y04852*
X02945*
Y04842*
G37*
G36*
X0317Y04835D02*
X03153Y04817D01*
X03148Y04821*
X03137Y04842*
Y04852*
X03145*
X0317Y04835*
G37*
G36*
X03006Y04784D02*
X02972Y0475D01*
X02938Y04758*
X02999Y04788*
X03006Y04784*
G37*
G36*
X03053Y0475D02*
Y04745D01*
X03028*
Y0475*
X03037Y04774*
X03047*
X03053Y0475*
G37*
G36*
X03025Y04774D02*
X03013Y04746D01*
X02989*
Y04752*
X03016Y04778*
X03025Y04774*
G37*
G36*
X03093Y04753D02*
Y04747D01*
X03069*
X03057Y04775*
X03066Y04779*
X03093Y04753*
G37*
G54D10*
X02149Y03331D02*
D01*
X022Y03203*
X0226Y03079*
X02328Y0296*
X02405Y02846*
X02489Y02738*
X02581Y02635*
X02679Y0254*
X02784Y02451*
X02895Y0237*
X03012Y02297*
X03133Y02232*
X03258Y02176*
X03387Y02129*
X03519Y02091*
X03653Y02062*
X03789Y02043*
X03926Y02033*
X04064Y02032*
X04201Y02042*
X04337Y0206*
X04471Y02089*
X04603Y02126*
X04733Y02173*
X04858Y02229*
X0498Y02293*
X05096Y02365*
X05208Y02446*
X05313Y02534*
X05412Y02629*
X05504Y02731*
X05589Y02839*
X05666Y02953*
X05735Y03072*
X05796Y03195*
X05847Y03322*
X05851Y03331*
Y04669D02*
D01*
X05799Y04796*
X05739Y0492*
X05671Y05039*
X05594Y05153*
X0551Y05261*
X05418Y05364*
X0532Y05459*
X05215Y05548*
X05104Y05629*
X04987Y05702*
X04866Y05767*
X04741Y05823*
X04612Y0587*
X0448Y05908*
X04346Y05937*
X0421Y05956*
X04073Y05966*
X03935Y05967*
X03798Y05957*
X03662Y05939*
X03528Y0591*
X03396Y05873*
X03266Y05826*
X03141Y0577*
X03019Y05706*
X02903Y05634*
X02791Y05553*
X02686Y05465*
X02587Y0537*
X02495Y05268*
X0241Y0516*
X02333Y05046*
X02264Y04927*
X02203Y04804*
X02152Y04677*
X02149Y04669*
X05323D02*
D01*
X05318Y04668*
X05314Y04668*
X05309Y04667*
X05305Y04666*
X05301Y04665*
X05297Y04663*
X05293Y04661*
X05289Y04659*
X05285Y04656*
X05282Y04654*
X05279Y04651*
X05276Y04648*
X05273Y04644*
X0527Y04641*
X05268Y04637*
X05266Y04633*
X05264Y04629*
X05263Y04625*
X05261Y04621*
X0526Y04616*
X0526Y04612*
X0526Y04608*
X0526Y04606*
Y03394D02*
D01*
X0526Y03389*
X0526Y03385*
X05261Y0338*
X05262Y03376*
X05263Y03372*
X05265Y03368*
X05267Y03364*
X05269Y0336*
X05272Y03356*
X05274Y03353*
X05277Y0335*
X0528Y03347*
X05284Y03344*
X05287Y03341*
X05291Y03339*
X05295Y03337*
X05299Y03335*
X05303Y03334*
X05307Y03332*
X05312Y03331*
X05316Y03331*
X0532Y03331*
X05323Y03331*
X0274Y04606D02*
D01*
X02739Y0461*
X02739Y04614*
X02738Y04619*
X02737Y04623*
X02736Y04627*
X02734Y04631*
X02732Y04635*
X0273Y04639*
X02727Y04643*
X02725Y04646*
X02722Y04649*
X02719Y04652*
X02715Y04655*
X02712Y04658*
X02708Y0466*
X02704Y04662*
X027Y04664*
X02696Y04665*
X02692Y04667*
X02687Y04668*
X02683Y04668*
X02679Y04668*
X02677Y04669*
X02676Y03331D02*
D01*
X0268Y03331*
X02684Y03331*
X02689Y03332*
X02693Y03333*
X02697Y03334*
X02701Y03336*
X02705Y03338*
X02709Y0334*
X02713Y03343*
X02716Y03345*
X02719Y03348*
X02722Y03351*
X02725Y03355*
X02728Y03358*
X0273Y03362*
X02732Y03366*
X02734Y0337*
X02735Y03374*
X02737Y03378*
X02738Y03383*
X02738Y03387*
X02738Y03391*
X02739Y03394*
X04662Y04587D02*
X04678Y04603D01*
X04662Y04458D02*
Y04587D01*
X04014Y03945D02*
X04096D01*
X03972Y03903D02*
X04014Y03945D01*
X03836Y03903D02*
X03972D01*
X04146Y03965D02*
Y04066D01*
X04125Y03944D02*
X04146Y03965D01*
X04094Y03944D02*
X04125D01*
X04146Y04066D02*
X04176Y04096D01*
X04164Y04329D02*
X04175Y04318D01*
X04085Y04329D02*
X04164D01*
X04069Y04313D02*
X04085Y04329D01*
X03813Y0381D02*
X03841D01*
X038Y03797D02*
X03813Y0381D01*
X04297Y04259D02*
X04309Y04248D01*
Y04213D02*
Y04248D01*
X03315Y02472D02*
Y02615D01*
X03252Y02472D02*
X03315D01*
X03251Y02473D02*
X03252Y02472D01*
X0276Y02625D02*
Y02715D01*
Y02625D02*
X02982Y02403D01*
X03738Y03401D02*
X0385D01*
X04662Y05088D02*
X04739Y05011D01*
X04662Y05088D02*
Y0522D01*
X04739Y05011D02*
X04799D01*
X04392Y0529D02*
Y05358D01*
X0435Y054D02*
X04392Y05358D01*
X03486Y05433D02*
Y05606D01*
Y05433D02*
X03496Y05423D01*
X05227Y03016D02*
Y03118D01*
X05207Y03137D02*
X05227Y03118D01*
X03651Y03702D02*
Y03917D01*
X03552Y03603D02*
X03651Y03702D01*
Y03917D02*
X03674Y0394D01*
X04032Y03726D02*
Y03785D01*
X03986Y0383D02*
X04032Y03785D01*
X03949Y0383D02*
X03986D01*
X03931Y03849D02*
X03949Y0383D01*
X03816Y03849D02*
X03931D01*
X04736Y02526D02*
X04826Y02564D01*
X03251Y04796D02*
X03293D01*
X02906Y03205D02*
X02948D01*
X02906D02*
Y03237D01*
X03124Y02898D02*
X03145Y02878D01*
X02938Y02967D02*
X03085D01*
X03007Y02968D02*
Y03038D01*
X03024Y03055*
X03048*
X03074Y0336D02*
Y03428D01*
X02796Y02988D02*
Y03076D01*
X02761Y02949D02*
X028Y02988D01*
X02848*
X02796D02*
X028D01*
X02915Y03179D02*
Y03203D01*
X02948Y03205D02*
X02959Y03216D01*
X02895Y03136D02*
X02898Y0314D01*
X02895Y0301D02*
Y03136D01*
Y0301D02*
X02938Y02967D01*
X02796Y03076D02*
X02849D01*
X02898Y0336D02*
X02919D01*
X03036Y034D02*
X03074D01*
X02985Y03434D02*
X03025D01*
X03022Y03123D02*
X03041Y03142D01*
X03065*
X04331Y0529D02*
X04392D01*
X04008Y05399D02*
X04128D01*
X03905D02*
X04008D01*
X03855D02*
X03905D01*
X038D02*
X03855D01*
X0375D02*
X038D01*
X03747D02*
X0375D01*
X0424D02*
Y05414D01*
X04227Y05427D02*
X0424Y05414D01*
X04227Y05427D02*
Y05449D01*
X0423Y05399D02*
X0424D01*
X0418Y05404D02*
X0423D01*
X04657Y05016D02*
X04681Y04992D01*
X04593Y05016D02*
X04657D01*
X043Y05239D02*
Y05259D01*
X04331Y0529*
X04465Y05333D02*
Y05395D01*
X04259Y04259D02*
X04297D01*
X03355Y03143D02*
Y03159D01*
X03349Y03137D02*
X03355Y03143D01*
X03349Y03127D02*
Y03137D01*
X03328Y03106D02*
X03349Y03127D01*
X03644Y03565D02*
X03704D01*
X03454Y03603D02*
X03552D01*
X03357Y03162D02*
Y03226D01*
X0469Y02915D02*
Y02917D01*
X0464Y02918D02*
X0469D01*
X03085Y02968D02*
Y02998D01*
X03086Y02968D02*
X03094Y0296D01*
X03055Y02853D02*
Y02895D01*
X02898Y0314D02*
X02915D01*
X02715Y02949D02*
X02718D01*
X02692Y02993D02*
X02718Y02949D01*
X02635Y02724D02*
X02978Y02381D01*
X02635Y02724D02*
Y02869D01*
X03289Y02381D02*
X03305Y02397D01*
X02978Y02381D02*
X03289D01*
X02635Y02869D02*
X02715Y02949D01*
X02718D02*
X02761D01*
X04225Y05449D02*
Y0545D01*
X04227Y05449D02*
X04278D01*
X04225D02*
X04227D01*
X04213D02*
X04225D01*
X04227D02*
Y0545D01*
X04212Y05448D02*
X04217Y05452D01*
X04162Y05448D02*
X04212D01*
X05165Y04799D02*
Y04846D01*
X05126Y04799D02*
X05165D01*
X03705Y04248D02*
X03749D01*
X03705Y04204D02*
Y04248D01*
X04108Y03445D02*
X04216D01*
X02959Y03216D02*
Y03243D01*
X03379Y02623D02*
Y0266D01*
X03354Y02615D02*
X03371D01*
X03379Y02623*
X03351Y02546D02*
X03403Y02493D01*
X03486Y05606D02*
X03502Y05622D01*
X02868Y03372D02*
Y03429D01*
Y03374D02*
X02885D01*
X03042Y04749D02*
Y04808D01*
X05031Y03058D02*
X05051Y03077D01*
X0488Y03096D02*
X04919Y03058D01*
X03035Y03399D02*
Y03424D01*
X0546Y0485D02*
X05463Y04847D01*
Y04805D02*
Y04847D01*
X05244Y0495D02*
X05302Y05008D01*
X05244Y04809D02*
Y0495D01*
Y04809D02*
X0529D01*
X04318Y0544D02*
D01*
X04288D02*
X04318D01*
X0428Y05448D02*
X04288Y0544D01*
X03217Y02489D02*
X03243Y02483D01*
X03191Y02484D02*
X03217Y02489D01*
X0311Y02403D02*
X03191Y02484D01*
X02982Y02403D02*
X0311D01*
X03055Y0285D02*
Y02853D01*
X02959Y03434D02*
X02985D01*
Y034D02*
Y03434D01*
X05303Y04771D02*
X05343Y04811D01*
X05286Y05057D02*
X053Y05016D01*
X05253Y05092D02*
X05286Y05057D01*
X02548Y03142D02*
X02549Y03143D01*
X02505Y03116D02*
X02548Y03142D01*
X02576Y03096D02*
X02581Y03091D01*
X02549Y03141D02*
X02576Y03096D01*
X02849Y03076D02*
X0285Y03075D01*
X05362Y03029D02*
X05363Y0303D01*
X05362Y03029D02*
X05362Y03029D01*
X04823Y03274D02*
X0483D01*
X03293Y04796D02*
X03365Y04724D01*
Y04665D02*
Y04724D01*
X04671Y03176D02*
X04698D01*
X04631Y03216D02*
X04671Y03176D01*
X03042Y04808D02*
Y04809D01*
X03987Y05453D02*
X03996Y05444D01*
X0394Y05453D02*
X03987D01*
X03939Y05454D02*
X0394Y05453D01*
X03696Y05589D02*
Y0569D01*
X02643Y05023D02*
X02644Y05023D01*
X02606Y05055D02*
X02647Y0503D01*
X02624Y04973D02*
X02644Y05023D01*
X02624Y04973D02*
X02685Y04906D01*
X03359Y05515D02*
X03418D01*
X0345Y05482*
Y05425D02*
Y05482D01*
X03502Y05622D02*
X03516D01*
X03526Y05626D02*
X03696Y0569D01*
X04672Y05553D02*
X04687Y05599D01*
X04466Y0544D02*
Y05468D01*
X04512Y05514*
Y05544*
X0448Y05575D02*
X04512Y05544D01*
X04466Y05575D02*
X0448D01*
X04466D02*
X04473Y05572D01*
X04472Y05574D02*
X04473Y05572D01*
X04475Y05571*
X04603Y05565D02*
X04663Y0556D01*
X04504Y05466D02*
X04603Y05565D01*
X04504Y05466D02*
X04504Y0544D01*
X05454Y04858D02*
X05493Y04881D01*
X05359Y03033D02*
X05362Y03029D01*
X05371Y03021*
X05358Y02983D02*
X05371Y02996D01*
Y03021*
X0527Y03269D02*
X05372D01*
X05414Y03177D02*
X05423Y03219D01*
X05372Y03269D02*
X05423Y03219D01*
X05351Y02968D02*
X05394Y02943D01*
X05315Y03129D02*
Y0323D01*
X04599Y02574D02*
Y0264D01*
X04655Y02519D02*
X04721D01*
X04599Y02574D02*
X04655Y02519D01*
X04566Y0241D02*
X0458Y02371D01*
X04581Y0237*
X0458Y02368D02*
X04581Y0237D01*
X0456Y02555D02*
X04611Y02505D01*
X04586Y02417D02*
X04611Y02442D01*
X04573Y02417D02*
X04586D01*
X0456Y02555D02*
Y02595D01*
X03403Y02493D02*
X03438Y02459D01*
X04887Y03261D02*
Y03315D01*
X04889Y02935D02*
D01*
X04849D02*
X04889D01*
X04863Y03195D02*
Y03221D01*
X05039Y03206D02*
X05051Y03194D01*
X0481Y03107D02*
Y03116D01*
X04771Y03136D02*
X04781Y03146D01*
X0481Y03116*
X04863*
Y03096D02*
X0488D01*
X04863Y03156D02*
X04921D01*
X04641D02*
X04698D01*
X04581Y03215D02*
X04611D01*
X04751Y03175D02*
X04781Y03146D01*
X0481Y03228D02*
Y03261D01*
X04823Y03274*
X0483Y03228D02*
Y03273D01*
X04611Y03216D02*
X04631D01*
X0484Y03036D02*
X04871D01*
X0483Y03046D02*
X0484Y03036D01*
X03119Y04846D02*
X0314D01*
X03062Y04906D02*
Y04964D01*
X02941Y04846D02*
X02963D01*
X0314D02*
X03161Y04826D01*
X05323Y04669D02*
X05851D01*
X0526Y03394D02*
Y04606D01*
X05323Y03331D02*
X05851D01*
X02149Y04669D02*
X02677D01*
X0274Y03394D02*
Y04606D01*
X02149Y03331D02*
X02677D01*
X02959Y034D02*
Y03434D01*
X03025D02*
X03035Y03424D01*
X0301Y034D02*
Y03433D01*
X02885Y03374D02*
X02898Y0336D01*
X03289Y03016D02*
Y03055D01*
X04478Y03291D02*
X04478Y03291D01*
X04771Y03019D02*
Y03063D01*
X04759Y03007D02*
X04771Y03019D01*
X04751Y03228D02*
Y03272D01*
X04741Y03283D02*
X04751Y03272D01*
X04741Y03283D02*
Y03292D01*
X02685Y04754D02*
Y04836D01*
X02686Y04837*
X02829Y04757D02*
Y04918D01*
X02788Y04716D02*
X02829Y04757D01*
X02685Y04836D02*
Y04906D01*
X0339Y05379D02*
X03446D01*
X03452Y05371D02*
Y05426D01*
X03498Y05669D02*
X03516Y05623D01*
X04008Y05399D02*
Y05441D01*
X04465Y05399D02*
Y0544D01*
X04318D02*
X04465D01*
X0428Y05448D02*
Y05532D01*
X04008Y05399D02*
D01*
X04672Y05553D02*
X04723Y05539D01*
X0475Y0497D02*
X04751Y04969D01*
X04681D02*
X04749D01*
X04104Y04234D02*
Y04262D01*
X04089Y04277D02*
X04104Y04262D01*
X03914Y04235D02*
Y04275D01*
X03905Y04055D02*
X03905D01*
X03905Y04055D02*
Y04055D01*
X04611Y02442D02*
Y02476D01*
Y02505*
Y02476D02*
X04647D01*
X04648Y02477*
X03231Y02434D02*
X03246Y02479D01*
X04942Y03315D02*
X04951Y03306D01*
X04975*
X04884Y0325D02*
X04888Y03246D01*
X04863Y03221D02*
X04888Y03246D01*
X04863Y03136D02*
X0489D01*
X04921Y03106*
X0489Y03176D02*
X0492Y03205D01*
X04863Y03175D02*
X0489D01*
X05175Y03137D02*
X05207D01*
X04108Y03444D02*
Y03445D01*
X04107D02*
X04108Y03444D01*
X05095Y02884D02*
X05227Y03016D01*
X0508Y04845D02*
X05126Y04799D01*
X0508Y04845D02*
Y04939D01*
X05051Y04967D02*
X0508Y04939D01*
X03094Y0296D02*
X03124D01*
X03125*
X03124Y02898D02*
Y0296D01*
Y02998*
X03741Y0368D02*
X03811D01*
X0384Y03651*
X04037Y03446D02*
X04064D01*
X04033Y0345D02*
X04037Y03446D01*
X03065Y03111D02*
Y03142D01*
X02738Y03115D02*
X02794D01*
X02739Y03116D02*
X02742D01*
X02738Y03115D02*
X02739Y03116D01*
X03144Y03111D02*
Y03143D01*
X03156Y03155*
X03175*
X03214Y03125D02*
Y0319D01*
X03232Y03088D02*
X03246Y03102D01*
X03175Y0311D02*
Y03155D01*
Y0311D02*
X03198Y03088D01*
X03232*
X03244Y02978D02*
X03301D01*
X03328Y03005*
Y03106*
X03745Y03774D02*
Y0378D01*
X038Y03774D02*
Y03797D01*
X03674Y0394D02*
X03732D01*
X04179Y04101D02*
Y04171D01*
X04878Y05146D02*
X04999D01*
X05153Y04992*
X03745Y0378D02*
X03814Y03849D01*
X04697Y03305D02*
X0474D01*
X0469Y02915D02*
X04706D01*
X0476Y02969*
Y02988*
X04392Y0529D02*
X04526D01*
X04723Y05487*
Y05539*
X04678Y04603D02*
Y0471D01*
X0483Y03274D02*
Y03378D01*
X05295Y04771D02*
X05429D01*
X05463Y04805*
X04815Y04967D02*
X05051D01*
X04812Y04976D02*
Y04998D01*
X04799Y05011D02*
X04812Y04998D01*
X0366Y05472D02*
X03681D01*
X03747Y05538*
X03832Y05453*
X03696Y05589D02*
X03747Y05538D01*
X03832Y05453D02*
X0394D01*
X03859Y04055D02*
X03905D01*
X03836Y03903D02*
Y04032D01*
X03859Y04055*
X03917Y04277D02*
X04089D01*
X0401Y04313D02*
X04069D01*
X03354Y02549D02*
Y02615D01*
X03214Y02935D02*
Y02948D01*
X03244Y02978*
X03708Y03943D02*
X03714D01*
X03836Y04241D02*
Y04279D01*
X03714Y03943D02*
X03773Y03884D01*
X04001*
X03964Y04234D02*
X04052D01*
X04179Y04238D02*
Y04302D01*
X0273Y04716D02*
X02788D01*
X05378Y0312D02*
X05407Y03166D01*
X04666Y04451D02*
Y04454D01*
X03808Y04327D02*
X03917D01*
X03805Y0431D02*
X03836Y04279D01*
X03805Y0431D02*
Y04325D01*
X03917Y04327D02*
X03931Y04313D01*
X04009*
X04313Y04098D02*
X04323D01*
X04279Y04064D02*
X04313Y04098D01*
X04279Y04064D02*
X04284Y0406D01*
X02643Y04715D02*
X0273D01*
X0257Y04789D02*
X02589Y04825D01*
X0257Y04789D02*
X02643Y04715D01*
X03704Y03565D02*
X0373Y03591D01*
Y03669*
X03741Y0368*
X03001Y04746D02*
Y04756D01*
X03022Y04777*
Y04807*
X03062Y04776D02*
Y04808D01*
Y04776D02*
X03081Y04746D01*
X03841Y0381D02*
X03853Y03822D01*
X03835Y041D02*
Y04171D01*
Y04174*
X03905Y04055D02*
Y04105D01*
X04975Y03306D02*
X05001Y03332D01*
X04427Y03345D02*
Y03347D01*
Y03349*
X04496Y03D02*
X0453D01*
X04275Y03319D02*
Y03353D01*
X04059Y03383D02*
Y0339D01*
X04067Y03383*
X04095Y03431D02*
X04108Y03444D01*
X0407Y03386D02*
X04073Y03382D01*
X04095*
Y03431*
X04276Y03358D02*
Y03385D01*
X04216Y03445D02*
X04276Y03385D01*
X04307Y03429D02*
Y03482D01*
X04345Y0352*
X03246Y03102D02*
Y03208D01*
X03264Y03226*
X03357*
X03036Y03219D02*
Y03243D01*
Y03219D02*
X0305Y03205D01*
X03058*
X02819Y03429D02*
X02869D01*
X03675Y03338D02*
X03738Y03401D01*
X03568Y03338D02*
X03675D01*
X04888Y02935D02*
X04889D01*
X03485Y035D02*
X03525D01*
X04848Y02587D02*
Y02884D01*
X05095*
X04826Y02565D02*
X04848Y02587D01*
X03537Y03307D02*
X03568Y03338D01*
X03227Y03297D02*
X03237Y03307D01*
X03537*
X03357Y03226D02*
Y03258D01*
X03429Y03554D02*
Y03578D01*
X03454Y03603*
G54D11*
X0407Y04055D03*
X04267D03*
Y04D03*
X0407D03*
X04267Y03944D03*
X0407D03*
X03929D03*
X03732D03*
Y04D03*
X03929D03*
X03732Y04055D03*
X03929D03*
G54D12*
X03175Y03155D03*
X03214D03*
X04504Y0544D03*
X04465D03*
X0456Y02595D03*
X04599D03*
X03315Y02615D03*
X03354D03*
X03489Y05425D03*
X0345D03*
X03054Y02895D03*
X03015D03*
X048Y0299D03*
X04839D03*
X03175Y0319D03*
X03214D03*
G54D13*
X037Y05197D03*
X0375Y05037D03*
Y05197D03*
X038D03*
Y05037D03*
X0385D03*
Y05197D03*
X039D03*
Y05037D03*
X0395Y05197D03*
Y05037D03*
X04D03*
Y05197D03*
X0405D03*
Y05037D03*
X041D03*
Y05197D03*
X043D03*
X0425D03*
X042D03*
X0415D03*
Y05037D03*
X042D03*
X0425D03*
X043D03*
X037D03*
G54D14*
X02959Y03243D03*
X02985D03*
X0301D03*
X03036D03*
Y034D03*
X0301D03*
X02985D03*
X02959D03*
G54D15*
X03076Y03283D03*
Y03309D03*
Y03334D03*
Y0336D03*
X02919D03*
Y03334D03*
Y03309D03*
Y03283D03*
G54D16*
X05494Y04883D03*
X05451Y04858D03*
X05394Y05056D03*
X05351Y05031D03*
X05307Y05006D03*
X05407Y04833D03*
X02505Y03116D03*
X02549Y03141D03*
X02605Y02943D03*
X02649Y02968D03*
X02692Y02993D03*
X02592Y03166D03*
G54D17*
X04689Y056D03*
X04672Y05553D03*
X04501Y05669D03*
X04484Y05622D03*
X04466Y05575D03*
X04654Y05506D03*
X03228Y02432D03*
X03246Y02479D03*
X03416Y02363D03*
X03434Y0241D03*
X03451Y02457D03*
X03263Y02526D03*
G54D18*
X04583Y02363D03*
X04566Y0241D03*
X04771Y02432D03*
X04754Y02479D03*
X04736Y02526D03*
X04548Y02457D03*
X03498Y05669D03*
X03516Y05622D03*
X0331Y056D03*
X03328Y05553D03*
X03345Y05506D03*
X03533Y05575D03*
G54D19*
X05394Y02943D03*
X05351Y02968D03*
X05494Y03116D03*
X05451Y03141D03*
X05407Y03166D03*
X05307Y02993D03*
X02605Y05056D03*
X02649Y05031D03*
X02505Y04883D03*
X02549Y04858D03*
X02592Y04833D03*
X02692Y05006D03*
G54D20*
X03251Y04876D03*
Y04916D03*
X03251Y04796D03*
Y04835D03*
X05295Y0477D03*
Y04809D03*
X05315Y0323D03*
Y03269D03*
X02795Y03114D03*
Y03075D03*
X02685Y04754D03*
Y04715D03*
X02915Y0314D03*
Y03179D03*
X0329Y03055D03*
Y03094D03*
X02822Y03288D03*
Y03327D03*
X02868Y03333D03*
Y03372D03*
X04095Y03379D03*
Y0334D03*
X0325Y0495D03*
Y04989D03*
X0469Y02915D03*
Y02954D03*
G54D21*
X04781Y03146D03*
G54D22*
X04698Y03096D03*
Y03116D03*
Y03136D03*
Y03155D03*
Y03175D03*
Y03195D03*
X04863D03*
Y03175D03*
Y03155D03*
Y03136D03*
Y03116D03*
Y03096D03*
G54D23*
X04731Y03228D03*
X04751D03*
X04771D03*
X0479D03*
X0481D03*
X0483D03*
Y03063D03*
X0481D03*
X0479D03*
X04771D03*
X04751D03*
X04731D03*
G54D24*
X05255Y04809D03*
Y0475D03*
X0527Y03269D03*
Y0321D03*
X0284Y03075D03*
Y03134D03*
X0273Y04715D03*
Y04774D03*
X02819Y0337D03*
Y03429D03*
X04259Y042D03*
Y04259D03*
X03754Y0419D03*
Y04249D03*
X03964Y04234D03*
Y04175D03*
X03914Y04234D03*
Y04175D03*
X04275Y0326D03*
Y03319D03*
X04621Y04908D03*
Y04967D03*
X03939Y05454D03*
Y05513D03*
X04225Y05509D03*
Y0545D03*
X04165D03*
Y05509D03*
X04104Y04175D03*
Y04234D03*
X04054D03*
Y04175D03*
X02955Y04685D03*
Y04744D03*
X03125Y04685D03*
Y04744D03*
X0375Y05399D03*
Y0534D03*
X038Y05399D03*
Y0534D03*
X03855Y05399D03*
Y0534D03*
X03905Y05399D03*
Y0534D03*
X0418Y05345D03*
Y05404D03*
X04235Y05345D03*
Y05404D03*
X038Y03774D03*
Y03715D03*
X03745D03*
Y03774D03*
X03305Y02919D03*
Y0286D03*
X04815Y0491D03*
Y04969D03*
G54D25*
X04465Y05395D03*
X04524D03*
X04599Y0264D03*
X0454D03*
X03379Y0266D03*
X0332D03*
X0345Y0538D03*
X03509D03*
X04849Y02935D03*
X0479D03*
Y02885D03*
X04849D03*
X047Y02995D03*
X04759D03*
X0474Y03305D03*
X04799D03*
X03525Y035D03*
X03584D03*
X03605Y03445D03*
X03664D03*
X03585Y03565D03*
X03644D03*
X04589Y03D03*
X0453D03*
G54D26*
X03346Y0316D03*
X03283D03*
G54D27*
X04204Y04238D03*
X04179D03*
X04153D03*
X04204Y04171D03*
X04179D03*
X04153D03*
X0386Y04238D03*
X03835D03*
X03809D03*
X0386Y04171D03*
X03835D03*
X03809D03*
G54D28*
X03042Y04886D03*
G54D29*
X03119Y04925D03*
Y04905D03*
Y04886D03*
Y04866D03*
Y04846D03*
X02964D03*
Y04866D03*
Y04886D03*
Y04905D03*
Y04925D03*
X03048Y03074D03*
Y03055D03*
Y03035D03*
X03161D03*
Y03055D03*
Y03074D03*
G54D30*
X03081Y04808D03*
X03061D03*
X03042D03*
X03022D03*
X03002D03*
Y04963D03*
X03022D03*
X03042D03*
X03061D03*
X03081D03*
X03144Y03111D03*
X03124D03*
X03105D03*
X03085D03*
X03065D03*
Y02998D03*
X03085D03*
X03105D03*
X03124D03*
X03144D03*
G54D31*
X03135Y04507D03*
Y04562D03*
X05175Y03137D03*
Y03082D03*
X0465Y02917D03*
Y02972D03*
X0439Y03292D03*
Y03347D03*
X04469Y0329D03*
Y03346D03*
G54D32*
X03966Y03515D03*
G54D33*
X04034Y03416D03*
X04015D03*
X03995D03*
X03975D03*
X03956D03*
X03936D03*
X03916D03*
X03897D03*
Y03613D03*
X03916D03*
X03936D03*
X03956D03*
X03975D03*
X03995D03*
X04015D03*
X04034D03*
G54D34*
X03867Y03446D03*
Y03465D03*
Y03485D03*
Y03505D03*
Y03524D03*
Y03544D03*
Y03564D03*
Y03583D03*
X04064D03*
Y03564D03*
Y03544D03*
Y03524D03*
Y03505D03*
Y03485D03*
Y03465D03*
Y03446D03*
G54D35*
X04751Y04906D03*
Y04969D03*
X04681Y04906D03*
Y04969D03*
G54D36*
X05046Y03189D03*
Y03072D03*
X04535Y03213D03*
Y03096D03*
G54D37*
X04013Y05521D03*
Y05446D03*
X04084Y05484D03*
G54D38*
X04887Y03305D03*
X04942D03*
G54D39*
X05175Y04855D03*
Y04695D03*
X04995Y04855D03*
Y04695D03*
G54D40*
X03766Y03241D03*
Y03257D03*
Y03272D03*
X03743Y03257D03*
Y03272D03*
Y03288D03*
X03766D03*
X03743Y03241D03*
G54D41*
X04915Y05028D03*
Y04921D03*
G54D42*
X04666Y04454D02*
X04676Y04444D01*
Y04377D02*
Y04444D01*
X04324Y04149D02*
X04355Y0418D01*
X04302Y04149D02*
X04324D01*
X04298Y04153D02*
X04302Y04149D01*
X03789Y04358D02*
X0427D01*
X03402Y0434D02*
X03424Y04362D01*
X03751*
X03788Y04357D02*
X03789Y04358D01*
X03756Y04357D02*
X03788D01*
X03751Y04362D02*
X03756Y04357D01*
X04303Y05221D02*
X04653D01*
X04302Y05222D02*
X04303Y05221D01*
X04469Y03392D02*
X04518Y03441D01*
X037Y05116D02*
Y05156D01*
Y05055D02*
Y05116D01*
X04343Y04934D02*
X04393D01*
X04301Y04976D02*
X04343Y04934D01*
X04357Y04184D02*
Y04324D01*
X04355Y04182D02*
X04357Y04184D01*
X04355Y0418D02*
Y04182D01*
X04919Y03058D02*
X05031D01*
X05174Y03138D02*
X05175Y03137D01*
Y03047D02*
D01*
Y03082D01*
X04948Y03136D02*
X05175D01*
X03135Y04562D02*
Y04625D01*
X02955Y04634D02*
Y04685D01*
X03125Y04637D02*
Y04685D01*
X0492Y03205D02*
X04994D01*
X04928Y03156D02*
X04948Y03136D01*
X04921Y03156D02*
X04928D01*
X03Y04745D02*
X03001Y04746D01*
X0291Y04815D02*
X02918Y04823D01*
X03161Y04825D02*
Y04826D01*
Y04825D02*
X0319Y04796D01*
Y0471D02*
Y04796D01*
X04301Y04976D02*
Y05193D01*
X04677Y03575D02*
Y03611D01*
X03699Y04518D02*
X03854D01*
X04845Y05118D02*
X04935Y05028D01*
X04705Y03378D02*
X0483D01*
X05023*
X04745Y05218D02*
X04844Y05119D01*
X04642Y03441D02*
X04705Y03378D01*
X04642Y03441D02*
Y0354D01*
X04677Y03575*
X03854Y04518D02*
X04602D01*
X04285Y04396D02*
X04357Y04324D01*
X03Y0451D02*
Y04745D01*
Y0451D02*
X03002Y04507D01*
Y04502D02*
Y04507D01*
X02967Y04491D02*
X03118Y0434D01*
X03002Y04502D02*
X03129Y04376D01*
X03392*
X03412Y04396*
X04285*
X03118Y0434D02*
X03402D01*
X03135Y04419D02*
X03388D01*
X034Y04431*
X04584*
X0291Y04548D02*
Y04815D01*
Y04548D02*
X02966Y04491D01*
X02967*
X05174Y03225D02*
X05174Y03224D01*
X05174Y03225D02*
Y03227D01*
X05023Y03378D02*
X05174Y03227D01*
X04602Y04518D02*
X04666Y04454D01*
X05174Y03138D02*
Y03224D01*
X03128Y04634D02*
X0327D01*
X03424Y0448*
X03135Y04419D02*
Y04507D01*
X03041Y04536D02*
Y04746D01*
Y04536D02*
X03135Y04419D01*
X03081Y04556D02*
Y04746D01*
X03127Y04634D02*
X03128Y04634D01*
X03657Y04479D02*
X04517Y04479D01*
X03424Y0448D02*
X03657Y04479D01*
X04469Y03346D02*
X04469D01*
X04469Y03345D02*
Y03346D01*
Y03392*
X04518Y03441D02*
Y03516D01*
X04469Y0329D02*
X04522D01*
X04521Y03214D02*
Y03291D01*
X04341Y03235D02*
X0442Y03156D01*
X04641*
X0439Y03347D02*
X04427D01*
X04429*
X04429Y03346D02*
X04469D01*
X04341Y03235D02*
Y03292D01*
X0425Y05184D02*
Y05197D01*
Y05289*
X04341Y03292D02*
X0439D01*
X04341D02*
Y03369D01*
X04477Y03505*
Y03559*
G54D43*
X04584Y0333D02*
Y0352D01*
Y0333D02*
X04696Y03218D01*
X04913Y0468D02*
Y04906D01*
G54D44*
X04229Y04879D02*
X04526D01*
X04198Y0491D02*
X04229Y04879D01*
X04163Y0404D02*
X04205Y04082D01*
X04163Y03983D02*
Y0404D01*
Y03983D02*
X04198Y03948D01*
X04105Y04128D02*
X04126Y04107D01*
X04105Y04128D02*
Y04173D01*
X03783Y04097D02*
Y04111D01*
X0381Y04241D02*
Y04268D01*
X03757Y04322D02*
X0381Y04268D01*
X03737Y04322D02*
X03757D01*
X03079Y05247D02*
X03637D01*
X03053Y05221D02*
X03079Y05247D01*
X02922Y05085D02*
X02964Y05127D01*
X02922Y04941D02*
Y05085D01*
X04205Y04082D02*
Y04182D01*
X03959Y03694D02*
Y0371D01*
Y03694D02*
X03975Y03677D01*
Y03613D02*
Y03677D01*
X03892Y03798D02*
X03901Y03807D01*
X03503Y03017D02*
Y03248D01*
X04036Y0474D02*
X04522D01*
X04531Y04731*
X0408Y0483D02*
X04104Y04854D01*
X03996Y0483D02*
X0408D01*
X05277Y03117D02*
Y03182D01*
X0527Y03189D02*
X05277Y03182D01*
X0527Y03189D02*
Y0321D01*
X05277Y03117D02*
X05298Y03096D01*
X0471Y02413D02*
X04714Y02418D01*
X04487Y02621D02*
X04506Y0264D01*
X04487Y02586D02*
Y02621D01*
X04506Y0264D02*
X0454D01*
X03357Y02411D02*
Y02462D01*
Y02411D02*
X03401Y02367D01*
X02622Y03119D02*
X02668Y03165D01*
X02622Y03055D02*
Y03119D01*
X02583Y03016D02*
X02622Y03055D01*
X02732Y04772D02*
Y04901D01*
X02726Y04778D02*
X02732Y04772D01*
X03227Y04945D02*
X03251D01*
X03198Y04974D02*
X03227Y04945D01*
X03181Y04974D02*
X03198D01*
X03209Y04938D02*
X0323Y04916D01*
X03177Y04938D02*
X03209D01*
X03165Y04925D02*
X03177Y04938D01*
X03103Y05008D02*
X03204D01*
X03119Y04925D02*
X03165D01*
X03223Y04989D02*
X03248D01*
X03204Y05008D02*
X03223Y04989D01*
X03072Y05033D02*
X03519D01*
X04171Y03702D02*
X04242Y03773D01*
X0411Y03702D02*
X04171D01*
X03835Y03288D02*
X03845Y03299D01*
X03766Y03288D02*
X03835D01*
X03845Y03299D02*
Y03332D01*
X03439Y03039D02*
Y03116D01*
X03766Y03272D02*
X03876D01*
X03897Y0339D02*
Y03416D01*
X03845Y03338D02*
X03897Y0339D01*
X03416Y03016D02*
X03439Y03039D01*
X03382Y02774D02*
X03416Y02808D01*
X03382Y02739D02*
Y02774D01*
X03668Y03753D02*
X03782Y03867D01*
X03668Y03645D02*
Y03753D01*
X03639Y03616D02*
X03668Y03645D01*
X04149Y05196D02*
Y05294D01*
X04031Y03847D02*
X04051Y03867D01*
X04027Y03847D02*
X04031D01*
X04066Y03702D02*
Y03809D01*
X04027Y03847D02*
X04066Y03809D01*
X03987Y03847D02*
X04027D01*
X0415Y05296D02*
X0418Y05326D01*
Y05342*
X02985Y03137D02*
X03011Y03163D01*
X02985Y03099D02*
Y03137D01*
Y03099D02*
X03009Y03074D01*
X02969Y03144D02*
X02985Y0316D01*
X02969Y03027D02*
Y03144D01*
X04211Y05295D02*
X04233Y05316D01*
X04204Y05295D02*
X04211D01*
X04233Y05316D02*
Y05334D01*
X042Y05291D02*
X04204Y05295D01*
X04233Y05334D02*
X04236Y05337D01*
X04763Y04707D02*
X04939Y04531D01*
X03951Y04731D02*
X03993Y04773D01*
X03642Y04731D02*
X03951D01*
X04632Y03564D02*
Y03583D01*
X04617Y0355D02*
X04632Y03564D01*
X03692Y04792D02*
X03721Y04763D01*
X03535Y04792D02*
X03692D01*
X03488Y04744D02*
X03535Y04792D01*
X03721Y04763D02*
X03929D01*
X03996Y0483*
X03625Y04904D02*
X03706D01*
X03433Y04712D02*
X03625Y04904D01*
X03488Y04577D02*
Y04744D01*
X03433Y04612D02*
Y04712D01*
X03455Y04544D02*
X03488Y04577D01*
X0342Y04544D02*
X03455D01*
X0395Y04892D02*
Y05013D01*
X03883Y04825D02*
X0395Y04892D01*
X04198Y0491D02*
Y05037D01*
X03801Y03568D02*
Y03595D01*
X03385Y03104D02*
X03462Y03181D01*
X03385Y02835D02*
Y03104D01*
X03893Y03313D02*
Y03332D01*
X03936Y03329D02*
Y03416D01*
X03936Y03274D02*
Y03332D01*
X03766Y03241D02*
X0394D01*
X03975Y03381D02*
X04018Y03339D01*
Y03269D02*
Y03339D01*
X03975Y03381D02*
Y03416D01*
X03979Y0328D02*
Y03356D01*
X03956Y03378D02*
X03979Y03356D01*
X03956Y03378D02*
Y03416D01*
X03995Y03388D02*
Y03416D01*
X03916Y03381D02*
Y03416D01*
X03893Y03358D02*
X03916Y03381D01*
X03893Y03313D02*
Y03358D01*
X0394Y03241D02*
X03979Y0328D01*
X03893Y03289D02*
Y03313D01*
X02974Y02646D02*
X0309Y02762D01*
X03876Y03272D02*
X03893Y03289D01*
X03919Y03257D02*
X03936Y03274D01*
X03766Y03257D02*
X03919D01*
X03696Y03209D02*
X03697Y03208D01*
X03696Y03209D02*
Y03213D01*
X03973Y03224D02*
X04018Y03269D01*
X03801Y03568D02*
X03824Y03544D01*
X03867*
X041Y05197D02*
Y05289D01*
X0309Y02762D02*
Y02791D01*
X02898Y05136D02*
X02973Y05211D01*
X02898Y04935D02*
Y05136D01*
Y04935D02*
X02927Y04905D01*
X02814Y03165D02*
X02819Y0316D01*
X02668Y03165D02*
X02814D01*
X04727Y04697D02*
Y04727D01*
X02871Y03297D02*
X02883Y03309D01*
X02871Y03007D02*
Y03297D01*
Y03007D02*
X02982Y02896D01*
X03013*
X02875Y03283D02*
X02919D01*
X03011Y03163D02*
Y0318D01*
Y03181D02*
Y03208D01*
X02883Y03309D02*
X02919D01*
X0301Y03206D02*
Y03243D01*
X03009Y03074D02*
X03048D01*
X04753Y03346D02*
X04771Y03327D01*
Y03228D02*
Y03327D01*
X0425Y04927D02*
Y05037D01*
X04233Y04814D02*
X0445D01*
X04149Y04898D02*
X04233Y04814D01*
X04149Y04898D02*
Y04996D01*
X0375Y05197D02*
Y05338D01*
X03144Y05336D02*
X03746D01*
X03022Y05214D02*
X03144Y05336D01*
X03905Y0528D02*
Y05342D01*
X03205Y05298D02*
X03665D01*
X03145Y05211D02*
X03601D01*
X03747Y04945D02*
Y05032D01*
X03706Y04904D02*
X03747Y04945D01*
X03042Y05003D02*
X03072Y05033D01*
X0308Y04985D02*
X03103Y05008D01*
X03211Y02664D02*
X03237Y0269D01*
X03324*
X03284Y0266D02*
X0332D01*
X03275Y02651D02*
X03284Y0266D01*
X0332D02*
X03325D01*
X0332D02*
X0332D01*
X03936Y03613D02*
Y03642D01*
Y0361D02*
Y03613D01*
X03892Y03687D02*
Y03798D01*
Y03687D02*
X03936Y03642D01*
X03432Y02551D02*
X03522Y02461D01*
X03697Y03619D02*
Y03717D01*
X03003Y05245D02*
X03056Y05298D01*
X03022Y04963D02*
Y05214D01*
X02922Y04941D02*
X02937Y04925D01*
X04215Y0457D02*
X04301Y04656D01*
X03774Y04165D02*
X03809D01*
X03759Y0418D02*
X03774Y04165D01*
X04015Y03651D02*
X04066Y03702D01*
X04085Y03773D02*
X04096Y03784D01*
X04085Y03698D02*
Y03773D01*
X04034Y03647D02*
X04085Y03698D01*
X03995Y03613D02*
Y03771D01*
X04096Y03784D02*
Y03811D01*
X03986Y03961D02*
Y04112D01*
X0397Y03945D02*
X03986Y03961D01*
X03906Y03945D02*
X0397D01*
X02919Y03283D02*
X03077D01*
X03797Y03446D02*
X03867D01*
X042Y05197D02*
Y05291D01*
X04048Y05197D02*
Y05288D01*
X04001Y05198D02*
Y05291D01*
X04098Y04951D02*
Y05038D01*
X04225Y04303D02*
X04232Y0431D01*
X04204Y04282D02*
X04225Y04303D01*
Y04306*
X04133Y04304D02*
X04153Y04283D01*
X04049Y04881D02*
Y05048D01*
X03884Y04562D02*
X04119D01*
X03861Y04241D02*
Y04308D01*
X04001Y04942D02*
Y05031D01*
X02985Y0316D02*
Y03243D01*
X04064Y03465D02*
X04144Y03466D01*
X04727Y04697D02*
X04858Y04566D01*
X04201Y04646D02*
X04227Y04672D01*
X03664Y04646D02*
X04201D01*
X03623Y04687D02*
X03664Y04646D01*
X03522Y0242D02*
Y02461D01*
X05441Y03054D02*
X05487Y031D01*
X05382Y03054D02*
X05441D01*
X0527Y0321D02*
X05278Y03202D01*
X03248Y04989D02*
X03252Y04985D01*
X03119Y04906D02*
X03185D01*
X04703Y03D02*
Y03017D01*
X04711Y03025*
X04738*
X04751Y03038*
Y03063*
X047Y02995D02*
X04701D01*
X03168Y02821D02*
X03182Y02834D01*
X03025Y02821D02*
X03168D01*
X04095Y0543D02*
Y05484D01*
X03916Y03613D02*
Y03638D01*
X0472Y02473D02*
X04742D01*
X0464Y02393D02*
X0472Y02473D01*
X04632Y0457D02*
Y04724D01*
X03593Y04629D02*
X04226D01*
X04714Y02418D02*
X0477Y02427D01*
X04067Y03446D02*
X04107D01*
X03015Y02831D02*
X03025Y02821D01*
X04034Y03613D02*
Y03647D01*
X04015Y03613D02*
Y03651D01*
X03952Y03651D02*
X03956Y03647D01*
Y03613D02*
Y03647D01*
X03976Y03613D02*
Y03611D01*
X03956Y0361D02*
Y03613D01*
X03015Y02831D02*
Y0289D01*
X02583Y02974D02*
X02604Y02953D01*
X02636Y02989D02*
X0265Y02975D01*
X02636Y02989D02*
Y03017D01*
X0266Y03041*
X04392Y05657D02*
X04484Y05622D01*
X03156Y05143D02*
X03491D01*
X03571Y04651D02*
X03593Y04629D01*
X0534Y03096D02*
X05382Y03054D01*
X02937Y04925D02*
X02964D01*
X02927Y04905D02*
X02964D01*
X03854Y05289D02*
Y05342D01*
X04671Y03116D02*
X04698D01*
X04638Y03106D02*
X04668Y03136D01*
X04529Y03106D02*
X04638D01*
X04668Y03136D02*
X04693D01*
X04674Y03096D02*
X04698D01*
X04489Y04969D02*
X04613D01*
X03003Y05022D02*
Y05245D01*
X03042Y04963D02*
Y05003D01*
X03902Y04938D02*
Y05036D01*
X03851Y04933D02*
Y05036D01*
X038Y04936D02*
Y05035D01*
X04232Y0431D02*
Y04313D01*
X04204Y04238D02*
Y04282D01*
X04153Y04238D02*
Y04283D01*
X04204Y04175D02*
X04244D01*
X04104D02*
X04152D01*
X04095Y04054D02*
Y04092D01*
X04055Y04132D02*
X04095Y04092D01*
X04054Y04133D02*
Y04175D01*
X03002Y04785D02*
Y04808D01*
X02965Y04748D02*
X03002Y04785D01*
X02965Y04745D02*
Y04748D01*
X03081Y04783D02*
Y04808D01*
X03002Y04963D02*
Y05022D01*
X03801Y05197D02*
Y05341D01*
X03852Y05201D02*
Y05292D01*
X03493Y02391D02*
X03522Y0242D01*
X03434Y0241D02*
X03493Y02391D01*
X03902Y05203D02*
Y05284D01*
X02511Y04896D02*
X02545Y0493D01*
X02583*
X03245Y05481D02*
X03318Y05554D01*
X03245Y05481D02*
Y05484D01*
Y05479D02*
Y05481D01*
X03323Y05607D02*
X03386D01*
X03432Y05561*
X04503Y05668D02*
X04534Y05655D01*
X04563Y05626*
Y05573D02*
Y05626D01*
X05397Y05047D02*
X05428Y05016D01*
Y04942D02*
Y05016D01*
X05487Y031D02*
Y03109D01*
X03401Y02367D02*
X03417D01*
X04524Y05395D02*
X04563Y05433D01*
X03514Y0538D02*
X03564Y05429D01*
X048Y03306D02*
X04802Y03308D01*
X048Y03282D02*
Y03306D01*
X0479Y03272D02*
X048Y03282D01*
X0479Y03265D02*
Y03272D01*
X04521Y03097D02*
X04529Y03106D01*
X0479Y03228D02*
Y03265D01*
X0308Y04964D02*
Y04985D01*
X0323Y04916D02*
X03251D01*
X03248Y04874D02*
X03251Y04876D01*
X03251Y04945D02*
X03253Y04946D01*
X03862Y04175D02*
X03914D01*
X03119Y04866D02*
X03158D01*
X03189Y04835*
X03251*
X03173Y04874D02*
X03248D01*
X03161Y04886D02*
X03173Y04874D01*
X03119Y04886D02*
X03161D01*
X02867Y03334D02*
X02919D01*
X02822Y03327D02*
Y0337D01*
X0401Y05518D02*
X04013Y05521D01*
X0394Y05518D02*
X0401D01*
X0394Y05512D02*
Y05549D01*
X04225Y05623D02*
Y05511D01*
X04791Y02937D02*
X04792Y02938D01*
X0479Y02941D02*
Y02958D01*
X04791Y02871D02*
Y02937D01*
X0479Y03063D02*
X04791Y03063D01*
X0481Y03037D02*
Y03063D01*
Y03037D02*
X0484Y03008D01*
Y02995D02*
Y03008D01*
X0479Y02958D02*
X048Y02968D01*
X04791Y03049D02*
Y03063D01*
X048Y02968D02*
Y03019D01*
X04791Y03027D02*
Y03056D01*
Y03027D02*
X048Y03019D01*
X0469Y02954D02*
Y02967D01*
X047Y02977*
Y02994*
X04095Y05484D02*
Y05486D01*
X04084Y05484D02*
X04095D01*
X03053Y05127D02*
Y05221D01*
X03952Y03651D02*
X03952Y0365D01*
X02515Y04802D02*
X02549Y04858D01*
X04621Y04908D02*
X04671D01*
X05323Y05078D02*
X0535Y05036D01*
X05255Y04708D02*
Y04752D01*
X04225Y04306D02*
X04232Y04313D01*
X03708Y04D02*
X03804D01*
X04649Y02973D02*
Y03004D01*
X04708Y03063*
X04731*
X04646Y03058D02*
Y03091D01*
X04671Y03116*
X04662Y03051D02*
Y03084D01*
X04674Y03096*
X05298Y03096D02*
X0534D01*
X03076Y03283D02*
X03077Y03284D01*
X02583Y02974D02*
Y03016D01*
X0266Y03041D02*
Y03108D01*
X04064Y03564D02*
X04137D01*
X04133Y03771D02*
X0421Y03848D01*
X03585Y03504D02*
Y03565D01*
X03897Y03613D02*
Y03635D01*
X04555Y04816D02*
Y04817D01*
Y04816D02*
X04729D01*
X04137Y03564D02*
X04157Y03584D01*
X04214*
X03748Y03714D02*
X03818D01*
X03897Y03635*
X03789Y03485D02*
X03867D01*
X04244Y04175D02*
X04262Y04193D01*
X03161Y03035D02*
X03255D01*
X03182Y02834D02*
Y02956D01*
X03255Y03029*
X02818Y03161D02*
X02845Y03134D01*
X03288Y03104D02*
Y03153D01*
X0329Y03155*
X03255Y03029D02*
Y03078D01*
X03271Y03094*
X03289*
X03853Y03702D02*
X03916Y03638D01*
X03853Y03702D02*
Y03761D01*
X03923Y0368D02*
X03952Y03651D01*
X03923Y0368D02*
Y03769D01*
X04207Y04D02*
X04285D01*
X04198Y03948D02*
X04293D01*
X03783Y04111D02*
X03809Y04136D01*
Y04165*
X03964Y04134D02*
X03986Y04112D01*
X03964Y04134D02*
Y04175D01*
X04901Y04605D02*
X04961D01*
X04995Y04639*
Y04695*
X03324Y0269D02*
X03341Y02707D01*
Y0279*
X04084Y05484D02*
X0412D01*
X04144Y05508*
X04165*
X03135Y02474D02*
X03139Y02478D01*
Y02657*
X03304Y02822*
Y02858*
X04763Y04707D02*
Y04748D01*
X04738Y04773D02*
X04763Y04748D01*
X04779Y04727D02*
X04901Y04605D01*
X04779Y04727D02*
Y04766D01*
X04729Y04816D02*
X04779Y04766D01*
X0377Y03561D02*
Y03644D01*
Y03561D02*
X03826Y03505D01*
X03865*
X04064Y03524D02*
X04096D01*
X04107Y03514*
X0375Y03525D02*
X03789Y03485D01*
X03584Y035D02*
X03696D01*
X0371Y03426D02*
X03749Y03465D01*
X03867*
X03788Y03437D02*
X03797Y03446D01*
X04751Y04906D02*
X04811D01*
X03857Y04189D02*
X03861Y04186D01*
X0371Y04055D02*
X03835D01*
X03861Y04081*
Y04186*
X03782Y03867D02*
X03968D01*
X03987Y03847*
X03081Y04783D02*
X03118Y04746D01*
X04748Y03662D02*
X04773Y03637D01*
X04805Y03678D02*
X04835Y03648D01*
X03341Y0279D02*
X03389Y02838D01*
X04871Y0364D02*
X04887D01*
X04838Y03607D02*
X04871Y0364D01*
X04741Y03607D02*
X04838D01*
X04702Y03646D02*
X04741Y03607D01*
X04492Y03646D02*
X04702D01*
X0444Y03593D02*
X04492Y03646D01*
X04939Y04498D02*
Y04531D01*
X04004Y04773D02*
X04738D01*
X03519Y05033D02*
X03576Y04976D01*
X03952Y05197D02*
Y0529D01*
X04634Y03046D02*
X04646Y03058D01*
X05451Y03141D02*
X05477Y03187D01*
X05477Y03187*
X04641Y0303D02*
X04662Y03051D01*
X04446Y03046D02*
X04634D01*
X04439Y0303D02*
X04641D01*
X04293Y03176D02*
X04439Y0303D01*
X04309Y03183D02*
X04446Y03046D01*
X04293Y03176D02*
Y03176D01*
X0414Y03343D02*
X04168D01*
X04095Y03254D02*
X04192D01*
X04482Y02964*
X0462*
X04629Y02973*
X04649*
X04589Y03D02*
Y0303D01*
X04275Y0326D02*
X04309D01*
X04145Y03466D02*
X04241D01*
X04064Y03485D02*
X04237D01*
X04107Y03514D02*
X04243D01*
X04305Y03575*
Y0366*
X04251Y03544D02*
X04269Y03561D01*
Y03613*
X04152Y03546D02*
X04154Y03544D01*
X04251*
X04064D02*
X04066Y03546D01*
X04152*
X04309Y03183D02*
Y03377D01*
X0444Y03508*
Y03593*
X04201Y03268D02*
X04293Y03176D01*
X04201Y03268D02*
Y0331D01*
X04168Y03343D02*
X04201Y0331D01*
X03995Y03388D02*
X04044Y0334D01*
X04095*
Y03255D02*
Y0334D01*
X02855Y03333D02*
X02868D01*
X02846Y03324D02*
X02855Y03333D01*
X02846Y03288D02*
Y03324D01*
X02823Y03288D02*
X02846D01*
X0266Y0324D02*
X02691D01*
X0266D02*
Y03241D01*
X02691Y0324D02*
X02783Y03332D01*
Y03448*
X028Y03466*
X03099*
X03717Y03321D02*
X03762Y03366D01*
X03503Y03248D02*
X03576Y03321D01*
X03717*
X03696Y03213D02*
X03724Y03241D01*
X03743*
X03672Y03272D02*
X03743D01*
X0376Y03224D02*
X03973D01*
X0357Y03109D02*
X03646D01*
X0376Y03224*
X03594Y03288D02*
X03743D01*
X03535Y03135D02*
X03672Y03272D01*
X03432Y02551D02*
Y02899D01*
X03535Y03002*
Y03135*
X03416Y02808D02*
Y03016D01*
X03305Y02919D02*
X03385D01*
X04617Y03427D02*
Y0355D01*
Y03427D02*
X04699Y03346D01*
X04753*
X04241Y03466D02*
X04437Y03662D01*
X04748*
X04237Y03485D02*
X0443Y03678D01*
X04805*
X03504Y04541D02*
Y04713D01*
X03531Y0474*
X03824Y04825D02*
X03883D01*
X04032Y0468D02*
X04058Y04706D01*
X04254*
X03703Y03257D02*
X03743D01*
X0362Y03151D02*
Y03174D01*
X03703Y03257*
X0357Y03444D02*
X03606D01*
X03664Y03445D02*
X03688D01*
X03711Y03422*
X03099Y03466D02*
X0317Y03395D01*
X03546*
X03124Y03111D02*
Y03175D01*
X03139Y0319*
X03176*
X03085Y03158D02*
X03195Y03269D01*
X03085Y03111D02*
Y03158D01*
X03195Y03269D02*
X03266D01*
X03011Y03163D02*
X03039D01*
X03214Y03338D02*
X03336D01*
X03039Y03163D02*
X03052Y03176D01*
X0307*
X03087Y03193*
Y03211*
X03214Y03338*
X03266Y03269D02*
X03287Y0329D01*
X03391*
X03451Y0323*
G54D45*
X04851Y02617D02*
Y02753D01*
G54D46*
X04295Y03852D03*
Y04147D03*
X03704D03*
Y03852D03*
G54D47*
X02691Y02787D03*
X02762Y02857D03*
Y02716D03*
X02832Y02787D03*
Y02645D03*
X02903Y02716D03*
Y02575D03*
X02974Y02645D03*
Y02504D03*
X0477Y05065D03*
G54D48*
X03045Y02575D03*
G54D49*
X03569Y05117D03*
X04431D03*
X04745Y0522D03*
X04665D03*
X03669Y05471D03*
G54D50*
X0467Y05065D03*
G54D51*
X04526Y04879D03*
X04001Y04946D03*
X03782Y04105D03*
X04175Y04101D03*
X03903Y04938D03*
X0414Y03517D03*
X02731Y04899D03*
X03182Y04978D03*
X03188Y04906D03*
X04242Y03775D03*
X04032Y04681D03*
X03453Y0323D03*
X043Y04655D03*
X03542Y04742D03*
X03854Y03766D03*
X04939Y04498D03*
X03999Y05292D03*
X04858Y04565D03*
X05479Y03186D03*
X04049Y04882D03*
X04104Y0486D03*
X03433Y04612D03*
X0342Y04544D03*
X03505Y04541D03*
X0425Y04927D03*
X03698Y03715D03*
X03801Y03595D03*
X03462Y03181D03*
X0344Y03114D03*
X03504Y03014D03*
X03844Y03335D03*
X03893Y03332D03*
X03979D03*
X03851Y034D03*
X03762Y03368D03*
X0362Y03151D03*
X03594Y03288D03*
X041Y05289D03*
X0309Y02791D03*
X03021Y03119D03*
X04519Y03516D03*
X03135Y02474D03*
X04593Y05016D03*
X04099Y04943D03*
X03853Y05293D03*
X03637Y05248D03*
X03884Y04563D03*
X03854Y04518D03*
X037Y05116D03*
X04476Y03567D03*
X04309Y04213D03*
X0321Y0266D03*
X03275Y02657D03*
X03712Y03422D03*
X02905Y03237D03*
X03305Y02397D03*
X03382Y02739D03*
X0435Y05401D03*
X04128D03*
X04216Y04572D03*
X04249Y05291D03*
X04394Y04934D03*
X03805Y03998D03*
X04033Y03725D03*
X03703Y035D03*
X04038Y04737D03*
X04047Y05291D03*
X04004Y04774D03*
X04121Y03705D03*
X04227Y04672D03*
X04223Y04624D03*
X04118Y04563D03*
X05343Y04811D03*
X02848Y02988D03*
X05253Y05092D03*
X05153Y04992D03*
X04304Y03659D03*
X04268Y03618D03*
X03994Y03772D03*
X02581Y03091D03*
X02515Y04802D03*
X03156Y05143D03*
X03623Y04686D03*
X03571Y04651D03*
X05379Y0312D03*
X05174Y03186D03*
X05315Y03129D03*
X04489Y04969D03*
X04631Y0457D03*
X05175Y03047D03*
X03365Y04665D03*
X03951Y05293D03*
X03053Y05127D03*
X03058Y05301D03*
X03205Y05298D03*
X03578Y04978D03*
X036Y05213D03*
X03663Y053D03*
X0364Y04733D03*
X03852Y04935D03*
X03802Y04938D03*
X03699Y04518D03*
X03127Y04634D03*
X02956Y04633D03*
X03081Y04556D03*
X04584Y04431D03*
X03904Y05287D03*
X03801Y05292D03*
X04151Y05291D03*
X04201Y05294D03*
X04096Y03814D03*
X04709Y02413D03*
X04643Y02393D03*
X05359Y03033D03*
X04486Y02578D03*
X05428Y04942D03*
X04563Y05573D03*
Y05433D03*
X03432Y05561D03*
X03564Y05429D03*
X02583Y0493D03*
X04871Y03036D03*
X04921Y03106D03*
X05003Y03328D03*
X03357Y02462D03*
X0319Y0471D03*
X04804Y03169D03*
Y03122D03*
X04757Y03169D03*
Y03122D03*
X03018Y04862D03*
Y04909D03*
X03065Y04862D03*
Y04909D03*
X03144Y02881D03*
X03055Y02853D03*
X03289Y03016D03*
X0394Y05549D03*
X03696Y0569D03*
X04225Y05623D03*
X0428Y05532D03*
X04094Y05435D03*
X03245Y05479D03*
X04676Y04377D03*
X03657Y04481D03*
X03145Y05211D03*
X02972Y0521D03*
X02964Y05131D03*
X04395Y05659D03*
X02686Y04837D03*
X02829Y04918D03*
X0339Y05379D03*
X04465Y05332D03*
X05323Y05078D03*
X05257Y04706D03*
X0418Y04302D03*
X04133Y04298D03*
X04009Y04233D03*
X04648Y02477D03*
X04888Y03262D03*
X03638Y03618D03*
X03215Y02932D03*
X04218Y03586D03*
X04633Y04728D03*
X03705Y04204D03*
X0421Y03848D03*
X04133Y03771D03*
X0354Y03664D03*
X0445Y04815D03*
X04773Y03637D03*
X04836Y03647D03*
X04632Y03585D03*
X04583Y03522D03*
X04681Y04727D03*
X04728D03*
X04555Y04817D03*
X04531Y04738D03*
X05165Y04795D03*
X03839Y03647D03*
X03771Y03644D03*
X03697Y03616D03*
X04229Y04303D03*
X03386Y02831D03*
X0297Y03025D03*
X02742Y03116D03*
X0266Y03109D03*
X03216Y03124D03*
X03853Y03812D03*
X03957Y0371D03*
X03923Y03768D03*
X03901Y03812D03*
X04051Y03872D03*
X04Y03879D03*
X04196Y04D03*
X03905Y04105D03*
X04879Y05146D03*
X04694Y03305D03*
X04741Y02947D03*
X03785Y03435D03*
X03748Y03525D03*
X04127Y04105D03*
X03832Y04099D03*
X03736Y04324D03*
X03908Y04279D03*
X04008Y04313D03*
X04517Y04479D03*
X04273Y04354D03*
X03863Y04296D03*
X03364Y0442D03*
X03355Y02548D03*
X03805Y0432D03*
X04324Y04097D03*
X04677Y03611D03*
X0443Y03347D03*
X04521Y03291D03*
X03937Y03332D03*
X04887Y0364D03*
X0414Y03343D03*
X04496Y03D03*
X04059Y03383D03*
X04095Y03255D03*
X04275Y03357D03*
X04307Y03429D03*
X04344Y03521D03*
X03058Y03205D03*
X03074Y03432D03*
X02868Y03429D03*
X0266Y03241D03*
X03336Y03338D03*
X03574Y0311D03*
X03697Y03208D03*
X04888Y02935D03*
X03491Y05143D03*
X03824Y04825D03*
X04253Y04706D03*
X03487Y035D03*
X03572Y03445D03*
X03546Y03396D03*
X03228Y03299D03*
X03356Y03257D03*
X03429Y03548D03*
G54D52*
X0491Y04681D03*
G54D53*
X0445Y0274D03*
X0355D03*
G54D54*
X04Y0274D03*
G54D55*
X03918Y03562D03*
X03966D03*
X04013D03*
X03918Y03515D03*
X03966D03*
X04013D03*
X03918Y03467D03*
X03966D03*
X04013D03*
G54D56*
X03255Y04508D03*
X04745D03*
X03255Y03492D03*
X04745D03*
G54D57*
X02907Y04354D03*
X05093D03*
X02907Y03646D03*
X05093D03*
M02*