%FSTAX23Y23*%
%MOIN*%
%SFA1B1*%

%IPPOS*%
%AMD45*
4,1,4,0.000000,-0.041700,0.041700,0.000000,0.000000,0.041700,-0.041700,0.000000,0.000000,-0.041700,0.0*
%
%ADD10C,0.008000*%
%ADD11C,0.010000*%
%ADD42C,0.025000*%
%ADD43C,0.040000*%
%ADD44C,0.059100*%
G04~CAMADD=45~10~0.0~590.4~0.0~0.0~0.0~0.0~0~0.0~0.0~0.0~0.0~0~0.0~0.0~0.0~0.0~0~0.0~0.0~0.0~225.0~590.4~0.0*
%ADD45D45*%
%ADD46C,0.050000*%
%ADD47C,0.055100*%
%ADD48C,0.035000*%
%ADD49C,0.040000*%
%ADD50C,0.175000*%
%ADD51C,0.915000*%
%ADD52C,0.026000*%
%ADD53C,0.089000*%
%ADD54C,0.140000*%
%ADD55R,0.052000X0.044000*%
%LNronemotorboard-v9-1*%
%LPD*%
G36*
X03321Y0473D02*
X03204D01*
X03199Y04734*
X0319Y04736*
X0318Y04734*
X03171Y04728*
X03166Y0472*
X03164Y0471*
X03166Y047*
X03171Y04691*
X0318Y04686*
X0319Y04684*
X03199Y04686*
X03204Y04689*
X03321*
Y04665*
X03176Y0452*
X03101Y04594*
X03097Y04596*
X03093Y04597*
X03068*
X03064Y04596*
X0306Y04594*
X03042Y04576*
X0304Y04572*
X03039Y04568*
Y04462*
X02859*
Y05*
X02933Y05072*
X02934Y05073*
X03321*
Y0473*
G37*
G36*
X04575Y03401D02*
X04575Y034D01*
X04506Y0333*
X04501Y03324*
X045Y03316*
Y0329*
X04498Y03288*
X0445*
X04445Y03287*
X04441Y03284*
X04394Y03237*
X0432*
Y03404*
X0457*
X04575Y03401*
G37*
G36*
X05234Y03228D02*
Y03199D01*
X05195*
X05192Y03204*
X05183Y0321*
X05174Y03212*
X05164Y0321*
X05155Y03204*
X0515Y03196*
X05148Y03186*
X0515Y03176*
X05155Y03167*
X05164Y03162*
X05174Y0316*
X05183Y03162*
X05192Y03167*
X05195Y03172*
X05234*
Y03055*
X05129Y02932*
X05129Y02932*
X05124Y02933*
X05123Y02943*
X05117Y02951*
X05109Y02957*
X05099Y02959*
X05089Y02957*
X0508Y02951*
X05075Y02943*
X05073Y02933*
X05075Y02923*
X0508Y02914*
X05089Y02909*
X05099Y02907*
X05103Y02907*
X05105Y02903*
X05048Y02836*
X04943*
X04801Y02977*
X04797Y0298*
X04793Y02981*
X0463*
X0463Y02982*
X04624Y02991*
X04616Y02997*
X04606Y02999*
X04596Y02997*
X04587Y02991*
X04582Y02984*
X04453*
X0441Y03027*
Y03135*
X04409Y03139*
X04408Y03141*
X04406Y03143*
X04365Y03184*
X04361Y03187*
X04357Y03188*
X0432*
Y0321*
X04398*
X04403Y03211*
X04407Y03214*
X0441Y03218*
X04455Y03263*
X04498*
X04502Y03257*
X04511Y03252*
X04521Y0325*
X04531Y03252*
X04539Y03257*
X04545Y03266*
X04547Y03276*
X04545Y03285*
X04541Y0329*
Y03307*
X04599Y03365*
X04942*
X04977Y03329*
X04977Y03328*
X04979Y03318*
X0498Y03317*
Y03154*
X04952Y03126*
X04935*
X04931Y0313*
X04921Y03132*
X04911Y0313*
X04902Y03124*
X04897Y03116*
X04895Y03106*
X04897Y03096*
X04902Y03087*
X04911Y03082*
X04921Y0308*
X04931Y03082*
X04935Y03085*
X04961*
X04969Y03086*
X04975Y03091*
X05015Y03131*
X05018Y03135*
X0502Y03138*
X05021Y03146*
Y0331*
X05027Y03318*
X05029Y03328*
X05027Y03338*
X05021Y03346*
X05015Y03351*
X04965Y034*
X04967Y03404*
X05057*
X05234Y03228*
G37*
G36*
X03218Y03373D02*
X03222Y0337D01*
X03227Y03369*
X0325*
X03282Y03338*
Y03333*
X0323Y03282*
X03173*
X03168Y03281*
X03166Y0328*
X03164Y03278*
X03016Y0313*
X02991*
X02986Y03129*
X02985Y03128*
X02982Y03127*
X0298Y03124*
X02973Y03126*
X02963Y03124*
X02954Y03118*
X02949Y0311*
X02947Y031*
X02949Y0309*
X02954Y03081*
X02963Y03076*
X02973Y03074*
X02982Y03076*
X02991Y03081*
X02997Y0309*
X02999Y031*
X02998Y03102*
X03001Y03106*
X03021*
X03026Y03107*
X0303Y03109*
X03178Y03257*
X03236*
X0324Y03258*
X03244Y03261*
X03302Y03318*
X03343Y03277*
Y03247*
X03338Y03244*
X03333Y03235*
X03331Y03226*
X03333Y03216*
X03338Y03207*
X03347Y03202*
X03357Y032*
X03367Y03202*
X03375Y03207*
X03381Y03216*
X03383Y03226*
X03381Y03232*
X03386Y03234*
X03405Y03216*
Y03207*
X03397*
X03392Y03206*
X03388Y03203*
X03363Y03178*
X03362Y03177*
X03346Y03161*
X03343Y03157*
X03342Y03153*
Y03045*
X03318Y03021*
X03313Y03022*
X03313Y03025*
X03307Y03034*
X03298Y0304*
X03294Y03041*
Y03016*
X03289*
Y03011*
X03264*
X03265Y03006*
X0327Y02997*
X03279Y02992*
X03282Y02991*
X03283Y02986*
X03277Y0298*
X02987*
X02953Y03013*
X02955Y0302*
X02953Y03029*
X02947Y03038*
X02939Y03044*
X02929Y03046*
X02919Y03044*
X0291Y03038*
X02905Y03029*
X02903Y0302*
X02905Y0301*
X0291Y03001*
X02919Y02996*
X02929Y02994*
X02937Y02995*
X02964Y02967*
X02962Y02963*
X02891*
X02872Y02981*
X02874Y02988*
X02872Y02998*
X02866Y03006*
X02861Y03009*
Y03122*
X02902Y03163*
X02915*
X0292Y03164*
X02924Y03167*
X02927Y03171*
X02928Y03177*
Y03201*
X02932Y03204*
X02938Y03213*
X0294Y03223*
X02938Y03232*
X02932Y03241*
X02923Y03247*
X02914Y03249*
X02904Y03247*
X02895Y03241*
X0289Y03232*
X02888Y03223*
X0289Y03213*
X02895Y03204*
X02901Y032*
Y0319*
X02897*
X02891Y03189*
X02887Y03186*
X02838Y03137*
X02835Y03133*
X02834Y03128*
Y03009*
X02829Y03006*
X02824Y02998*
X02822Y02988*
X02824Y02978*
X02829Y02969*
X02838Y02964*
X02848Y02962*
X02854Y02963*
X02876Y0294*
X0288Y02937*
X02886Y02936*
X03186*
X03189Y02932*
X03189Y02932*
X03191Y02922*
X03196Y02913*
X03205Y02908*
X03215Y02906*
X03225Y02908*
X03233Y02913*
X03239Y02922*
X03241Y02932*
X03239Y02942*
X03233Y0295*
X03232Y02951*
X03233Y02955*
X03282*
X03287Y02956*
X03291Y02959*
X03363Y03031*
X03366Y03035*
X03367Y0304*
Y03059*
X03371Y03062*
X03375Y0306*
X03385Y03058*
X03394Y0306*
X03399Y03053*
Y03025*
X03204Y0283*
X03074Y02829*
X03073Y02834*
X03073Y02834*
X03079Y02843*
X0308Y02848*
X0303*
X03031Y02843*
X03036Y02834*
X03037Y02834*
X03035Y02829*
X02877Y02829*
X02738Y02971*
X02741Y02976*
X02746Y02975*
Y02995*
X02726*
X02726Y0299*
X02722Y02988*
X02688Y03023*
X02688Y03104*
X0269Y03105*
X02699Y0311*
X02699Y03111*
X02704Y03109*
X02705Y03112*
X02725*
Y03132*
X0272Y03131*
X02711Y03125*
X02711Y03124*
X02706Y03126*
X02707Y03129*
X02705Y03139*
X02699Y03147*
X02693Y03151*
Y03238*
X02781Y03327*
X02784Y03331*
X02785Y03336*
Y03443*
X02845Y03503*
X03087*
X03218Y03373*
G37*
G36*
X04385Y03129D02*
Y03022D01*
X04386Y03017*
X04389Y03013*
X04439Y02963*
X04443Y0296*
X04448Y02959*
X04584*
X04587Y02954*
X04596Y02949*
X04606Y02947*
X04616Y02949*
X04624Y02954*
X04625Y02956*
X04787*
X04929Y02815*
X04933Y02812*
X04938Y02811*
X05021*
X05022Y02809*
X0502Y02805*
X0488Y02755*
X04876Y02757*
X04875Y02762*
X04869Y02771*
X04864Y02774*
Y02824*
X04869Y02827*
X04875Y02836*
X04877Y02846*
X04875Y02856*
X04869Y02864*
X0486Y0287*
X04851Y02872*
X04841Y0287*
X04832Y02864*
X04827Y02856*
X04825Y02846*
X04827Y02836*
X04832Y02827*
X04837Y02824*
Y02774*
X04832Y02771*
X04827Y02762*
X04825Y02753*
X04827Y02743*
X04828Y02741*
X04826Y02736*
X04648Y02673*
X04523Y02671*
X04521Y02676*
X04529Y02686*
X04538Y02703*
X04544Y02721*
X04546Y0274*
X04544Y02758*
X04538Y02776*
X04529Y02793*
X04517Y02807*
X04503Y02819*
X04486Y02828*
X04468Y02834*
X04455Y02835*
X0445Y0286*
X04437Y02899*
X04422Y02936*
X04403Y02973*
X04381Y03007*
X04356Y03039*
X04329Y03069*
X0432Y03078*
Y0309*
X04325Y03091*
Y03091*
X0433Y03082*
X04339Y03077*
X04344Y03076*
Y03101*
Y03126*
X04339Y03125*
X0433Y03119*
X04325Y0311*
X0432Y03111*
Y03163*
X04351*
X04385Y03129*
G37*
%LNronemotorboard-v9-2*%
%LPC*%
G36*
X0518Y03072D02*
Y03052D01*
X052*
X05199Y03057*
X05193Y03065*
X05184Y03071*
X0518Y03072*
G37*
G36*
X0517D02*
X05165Y03071D01*
X05156Y03065*
X05151Y03057*
X0515Y03052*
X0517*
Y03072*
G37*
G36*
X052Y03042D02*
X0518D01*
Y03022*
X05184Y03023*
X05193Y03028*
X05199Y03037*
X052Y03042*
G37*
G36*
X0517D02*
X0515D01*
X05151Y03037*
X05156Y03028*
X05165Y03023*
X0517Y03022*
Y03042*
G37*
G36*
X04876Y03061D02*
Y03041D01*
X04896*
X04895Y03045*
X04889Y03054*
X0488Y0306*
X04876Y03061*
G37*
G36*
X04866D02*
X04861Y0306D01*
X04852Y03054*
X04847Y03045*
X04846Y03041*
X04866*
Y03061*
G37*
G36*
X04374Y03096D02*
X04354D01*
Y03076*
X04359Y03077*
X04367Y03082*
X04373Y03091*
X04374Y03096*
G37*
G36*
X02735Y03132D02*
Y03112D01*
X02755*
X02754Y03117*
X02748Y03125*
X02739Y03131*
X02735Y03132*
G37*
G36*
X04354Y03126D02*
Y03106D01*
X04374*
X04373Y0311*
X04367Y03119*
X04359Y03125*
X04354Y03126*
G37*
G36*
X04809Y03194D02*
Y03174D01*
X04829*
X04828Y03179*
X04823Y03188*
X04814Y03193*
X04809Y03194*
G37*
G36*
X04752D02*
X04747Y03193D01*
X04739Y03188*
X04733Y03179*
X04732Y03174*
X04752*
Y03194*
G37*
G36*
X02755Y03102D02*
X02735D01*
Y03082*
X02739Y03083*
X02748Y03088*
X02754Y03097*
X02755Y03102*
G37*
G36*
X02725D02*
X02705D01*
X02706Y03097*
X02711Y03088*
X0272Y03083*
X02725Y03082*
Y03102*
G37*
G36*
X04829Y03117D02*
X04809D01*
Y03097*
X04814Y03098*
X04823Y03104*
X04828Y03112*
X04829Y03117*
G37*
G36*
X04752D02*
X04732D01*
X04733Y03112*
X04739Y03104*
X04747Y03098*
X04752Y03097*
Y03117*
G37*
G36*
X03284Y03041D02*
X03279Y0304D01*
X0327Y03034*
X03265Y03025*
X03264Y03021*
X03284*
Y03041*
G37*
G36*
X04685Y02884D02*
X0468Y02883D01*
X04671Y02877*
X04666Y02868*
X04665Y02864*
X04685*
Y02884*
G37*
G36*
X0306Y02878D02*
Y02858D01*
X0308*
X03079Y02863*
X03073Y02871*
X03064Y02877*
X0306Y02878*
G37*
G36*
X03139Y02906D02*
X03134Y02905D01*
X03125Y02899*
X0312Y0289*
X03119Y02886*
X03139*
Y02906*
G37*
G36*
X04695Y02884D02*
Y02864D01*
X04715*
X04714Y02868*
X04708Y02877*
X047Y02883*
X04695Y02884*
G37*
G36*
X0305Y02878D02*
X03045Y02877D01*
X03036Y02871*
X03031Y02863*
X0303Y02858*
X0305*
Y02878*
G37*
G36*
X04715Y02854D02*
X04695D01*
Y02834*
X047Y02835*
X04708Y0284*
X04714Y02849*
X04715Y02854*
G37*
G36*
X04685D02*
X04665D01*
X04666Y02849*
X04671Y0284*
X0468Y02835*
X04685Y02834*
Y02854*
G37*
G36*
X03169Y02876D02*
X03149D01*
Y02856*
X03153Y02857*
X03162Y02862*
X03168Y02871*
X03169Y02876*
G37*
G36*
X03139D02*
X03119D01*
X0312Y02871*
X03125Y02862*
X03134Y02857*
X03139Y02856*
Y02876*
G37*
G36*
X03149Y02906D02*
Y02886D01*
X03169*
X03168Y0289*
X03162Y02899*
X03153Y02905*
X03149Y02906*
G37*
G36*
X02756Y03025D02*
Y03005D01*
X02776*
X02775Y03009*
X02769Y03018*
X02761Y03024*
X02756Y03025*
G37*
G36*
X02746D02*
X02741Y03024D01*
X02732Y03018*
X02727Y03009*
X02726Y03005*
X02746*
Y03025*
G37*
G36*
X04896Y03031D02*
X04876D01*
Y03011*
X0488Y03012*
X04889Y03017*
X04895Y03026*
X04896Y03031*
G37*
G36*
X04866D02*
X04846D01*
X04847Y03026*
X04852Y03017*
X04861Y03012*
X04866Y03011*
Y03031*
G37*
G36*
X02776Y02995D02*
X02756D01*
Y02975*
X02761Y02976*
X02769Y02981*
X02775Y0299*
X02776Y02995*
G37*
G36*
X0492Y0293D02*
X049D01*
Y0291*
X04905Y02911*
X04913Y02916*
X04919Y02925*
X0492Y0293*
G37*
G36*
X0489D02*
X0487D01*
X04871Y02925*
X04876Y02916*
X04885Y02911*
X0489Y0291*
Y0293*
G37*
G36*
X049Y0296D02*
Y0294D01*
X0492*
X04919Y02945*
X04913Y02953*
X04905Y02959*
X049Y0296*
G37*
G36*
X0489D02*
X04885Y02959D01*
X04876Y02953*
X04871Y02945*
X0487Y0294*
X0489*
Y0296*
G37*
G36*
X04799Y03194D02*
X04794Y03193D01*
X04786Y03188*
X04783Y03183*
X04778*
X04775Y03188*
X04767Y03193*
X04762Y03194*
Y03169*
X04757*
Y03164*
X04732*
X04733Y03159*
X04739Y03151*
X04743Y03148*
Y03143*
X04739Y0314*
X04733Y03132*
X04732Y03127*
X04757*
Y03122*
X04762*
Y03097*
X04767Y03098*
X04775Y03104*
X04778Y03108*
X04783*
X04786Y03104*
X04794Y03098*
X04799Y03097*
Y03122*
X04804*
Y03127*
X04829*
X04828Y03132*
X04823Y0314*
X04818Y03143*
Y03148*
X04823Y03151*
X04828Y03159*
X04829Y03164*
X04804*
Y03169*
X04799*
Y03194*
G37*
G36*
X02981Y04628D02*
X02961D01*
Y04608*
X02966Y04609*
X02974Y04614*
X0298Y04623*
X02981Y04628*
G37*
G36*
X02951D02*
X02931D01*
X02932Y04623*
X02937Y04614*
X02946Y04609*
X02951Y04608*
Y04628*
G37*
G36*
X03152Y04629D02*
X03132D01*
Y04609*
X03137Y0461*
X03145Y04615*
X03151Y04624*
X03152Y04629*
G37*
G36*
X03122D02*
X03102D01*
X03103Y04624*
X03108Y04615*
X03117Y0461*
X03122Y04609*
Y04629*
G37*
G36*
X03005Y03459D02*
Y03439D01*
X03025*
X03024Y03443*
X03018Y03452*
X03009Y03458*
X03005Y03459*
G37*
G36*
X0289Y0345D02*
X02885Y03449D01*
X02876Y03443*
X02871Y03435*
X0287Y0343*
X0289*
Y0345*
G37*
G36*
X03025Y03429D02*
X03005D01*
Y03409*
X03009Y0341*
X03018Y03415*
X03024Y03424*
X03025Y03429*
G37*
G36*
X02995Y03459D02*
X0299Y03458D01*
X02981Y03452*
X02976Y03443*
X02975Y03439*
X02995*
Y03459*
G37*
G36*
X029Y0345D02*
Y0343D01*
X0292*
X02919Y03435*
X02913Y03443*
X02904Y03449*
X029Y0345*
G37*
G36*
X02951Y04658D02*
X02946Y04657D01*
X02937Y04651*
X02932Y04643*
X02931Y04638*
X02951*
Y04658*
G37*
G36*
X03013Y04934D02*
X03008Y04933D01*
X03Y04928*
X02994Y04919*
X02993Y04914*
X03013*
Y04934*
G37*
G36*
X03182Y05003D02*
X03172Y05001D01*
X03163Y04995*
X03158Y04986*
X03156Y04977*
X03158Y04967*
X03163Y04958*
X03169Y04954*
Y0493*
X0317Y04925*
X03172Y04923*
X03167Y04915*
X03165Y04906*
X03167Y04896*
X03172Y04887*
X03181Y04882*
X03191Y0488*
X032Y04882*
X03209Y04887*
X03215Y04896*
X03217Y04906*
X03215Y04915*
X03209Y04924*
X032Y0493*
X03198Y0493*
X03194Y04935*
Y04954*
X032Y04958*
X03206Y04967*
X03208Y04977*
X03206Y04986*
X032Y04995*
X03192Y05001*
X03182Y05003*
G37*
G36*
X0306Y04934D02*
X03055Y04933D01*
X03047Y04928*
X03044Y04923*
X03039*
X03036Y04928*
X03028Y04933*
X03023Y04934*
Y04909*
X03018*
Y04904*
X02993*
X02994Y04899*
X03Y04891*
X03004Y04888*
Y04883*
X03Y0488*
X02994Y04872*
X02993Y04867*
X03018*
Y04862*
X03023*
Y04837*
X03028Y04838*
X03036Y04844*
X03039Y04848*
X03044*
X03047Y04844*
X03055Y04838*
X0306Y04837*
Y04862*
X03065*
Y04867*
X0309*
X03089Y04872*
X03084Y0488*
X03079Y04883*
Y04888*
X03084Y04891*
X03089Y04899*
X0309Y04904*
X03065*
Y04909*
X0306*
Y04934*
G37*
G36*
X0307D02*
Y04914D01*
X0309*
X03089Y04919*
X03084Y04928*
X03075Y04933*
X0307Y04934*
G37*
G36*
X0309Y04857D02*
X0307D01*
Y04837*
X03075Y04838*
X03084Y04844*
X03089Y04852*
X0309Y04857*
G37*
G36*
X03122Y04659D02*
X03117Y04658D01*
X03108Y04652*
X03103Y04643*
X03102Y04639*
X03122*
Y04659*
G37*
G36*
X02961Y04658D02*
Y04638D01*
X02981*
X0298Y04643*
X02974Y04651*
X02966Y04657*
X02961Y04658*
G37*
G36*
X03013Y04857D02*
X02993D01*
X02994Y04852*
X03Y04844*
X03008Y04838*
X03013Y04837*
Y04857*
G37*
G36*
X03132Y04659D02*
Y04639D01*
X03152*
X03151Y04643*
X03145Y04652*
X03137Y04658*
X03132Y04659*
G37*
G36*
X04883Y03287D02*
X04878Y03286D01*
X04869Y0328*
X04864Y03272*
X04863Y03267*
X04883*
Y03287*
G37*
G36*
X04913Y03257D02*
X04893D01*
Y03237*
X04898Y03238*
X04906Y03243*
X04912Y03252*
X04913Y03257*
G37*
G36*
X04385Y03308D02*
X04365D01*
X04366Y03303*
X04371Y03294*
X0438Y03289*
X04385Y03288*
Y03308*
G37*
G36*
X04893Y03287D02*
Y03267D01*
X04913*
X04912Y03272*
X04906Y0328*
X04898Y03286*
X04893Y03287*
G37*
G36*
X04883Y03257D02*
X04863D01*
X04864Y03252*
X04869Y03243*
X04878Y03238*
X04883Y03237*
Y03257*
G37*
G36*
X03216Y03206D02*
X03196D01*
Y03186*
X032Y03187*
X03209Y03192*
X03215Y03201*
X03216Y03206*
G37*
G36*
X03186D02*
X03166D01*
X03167Y03201*
X03172Y03192*
X03181Y03187*
X03186Y03186*
Y03206*
G37*
G36*
X03196Y03236D02*
Y03216D01*
X03216*
X03215Y0322*
X03209Y03229*
X032Y03235*
X03196Y03236*
G37*
G36*
X03186D02*
X03181Y03235D01*
X03172Y03229*
X03167Y0322*
X03166Y03216*
X03186*
Y03236*
G37*
G36*
X04415Y03308D02*
X04395D01*
Y03288*
X044Y03289*
X04408Y03294*
X04414Y03303*
X04415Y03308*
G37*
G36*
X0289Y0342D02*
X0287D01*
X02871Y03415*
X02876Y03406*
X02885Y03401*
X0289Y034*
Y0342*
G37*
G36*
X03222Y03356D02*
Y03336D01*
X03242*
X03241Y03341*
X03235Y03349*
X03226Y03355*
X03222Y03356*
G37*
G36*
X02995Y03429D02*
X02975D01*
X02976Y03424*
X02981Y03415*
X0299Y0341*
X02995Y03409*
Y03429*
G37*
G36*
X0292Y0342D02*
X029D01*
Y034*
X02904Y03401*
X02913Y03406*
X02919Y03415*
X0292Y0342*
G37*
G36*
X03212Y03356D02*
X03207Y03355D01*
X03198Y03349*
X03193Y03341*
X03192Y03336*
X03212*
Y03356*
G37*
G36*
X03242Y03326D02*
X03222D01*
Y03306*
X03226Y03307*
X03235Y03312*
X03241Y03321*
X03242Y03326*
G37*
G36*
X03212D02*
X03192D01*
X03193Y03321*
X03198Y03312*
X03207Y03307*
X03212Y03306*
Y03326*
G37*
G36*
X04395Y03338D02*
Y03318D01*
X04415*
X04414Y03322*
X04408Y03331*
X044Y03337*
X04395Y03338*
G37*
G36*
X04385D02*
X0438Y03337D01*
X04371Y03331*
X04366Y03322*
X04365Y03318*
X04385*
Y03338*
G37*
%LNronemotorboard-v9-3*%
%LPD*%
G54D10*
X04262Y0456D02*
X04407Y04415D01*
X0435Y03758D02*
X04407Y03815D01*
Y04415*
X04319Y043D02*
X04358Y04262D01*
Y03938D02*
Y04262D01*
X04318Y03898D02*
X04358Y03938D01*
X04546Y03501D02*
Y04593D01*
X04276Y03566D02*
X04471D01*
X04497Y03452D02*
X04546Y03501D01*
X03484Y0311D02*
X03537D01*
X03449Y03074D02*
X03484Y0311D01*
X03449Y03074D02*
Y03074D01*
X03384Y03098D02*
X03415Y03129D01*
X03384Y03085D02*
Y03098D01*
X03411Y03195D02*
X0344Y03224D01*
X03397Y03195D02*
X03411D01*
X03371Y03169D02*
X03397Y03195D01*
X03371Y03169D02*
X03371D01*
X03355Y03153D02*
X03371Y03169D01*
X03355Y0304D02*
Y03153D01*
X03488Y03003D02*
X03498D01*
X03339Y02854D02*
X03488Y03003D01*
X03468Y0296D02*
X03491D01*
X03421Y02913D02*
X03468Y0296D01*
X03421Y02913D02*
X03421D01*
X03355Y02847D02*
X03421Y02913D01*
X03339Y02853D02*
Y02854D01*
X03355Y02845D02*
Y02847D01*
X03354Y02844D02*
X03355Y02845D01*
X03354Y02818D02*
Y02844D01*
X03068Y02597D02*
X03105D01*
X0318Y02671*
X03191Y02705D02*
X03339Y02853D01*
X03191Y02705D02*
X03191D01*
X03164Y02678D02*
X03191Y02705D01*
X03164Y02678D02*
Y02678D01*
X03147Y02661D02*
X03164Y02678D01*
X03198Y02689D02*
X03258Y0275D01*
X03197Y02689D02*
X03198D01*
X0318Y02672D02*
X03197Y02689D01*
X0318Y02671D02*
Y02672D01*
X03258Y0275D02*
X03389D01*
X02998Y02661D02*
X03147D01*
X03683Y03152D02*
Y03287D01*
X03491Y0296D02*
X03683Y03152D01*
X0381Y03254D02*
X04214D01*
X03399Y02843D02*
X0381Y03254D01*
X03392Y02843D02*
X03399D01*
X03423Y03138D02*
X03521D01*
X03413Y03127D02*
X03423Y03138D01*
X03521D02*
X03631Y03248D01*
X03444Y03157D02*
X03499Y03212D01*
X03405Y03157D02*
X03444D01*
X03427Y03052D02*
X03449Y03074D01*
X03427Y03013D02*
Y03052D01*
X03427Y03093D02*
X03433Y03087D01*
Y03081D02*
Y03087D01*
X03411Y03059D02*
X03433Y03081D01*
X03282Y02968D02*
X03355Y0304D01*
X0344Y03224D02*
X03447D01*
X04214Y03254D02*
X04292Y03176D01*
X0327Y02547D02*
X03356Y02461D01*
X03631Y03248D02*
X0365D01*
X03499Y03356D02*
X03557Y03414D01*
X03499Y03212D02*
Y03356D01*
X03557Y03414D02*
X03558Y03413D01*
X03678Y0335D02*
Y0337D01*
Y0335D02*
X03738Y0329D01*
X03403Y03374D02*
X03425Y03396D01*
X03403Y03318D02*
Y03374D01*
X03447Y03224D02*
X03453Y0323D01*
X0345Y03239D02*
X0347Y03259D01*
X03425Y03396D02*
Y03434D01*
X0346Y03469*
X03384Y03418D02*
Y03549D01*
X03236Y0327D02*
X03384Y03418D01*
Y03549D02*
X03451Y03617D01*
X03902Y0404D02*
X03941Y04079D01*
X03902Y03825D02*
Y0404D01*
X03919Y03787D02*
X03933Y03801D01*
Y04034D02*
X03957Y04058D01*
X03933Y03801D02*
Y04034D01*
X03807Y03924D02*
X03822Y0391D01*
Y03807D02*
Y0391D01*
Y03807D02*
X03855Y03774D01*
X03783Y03908D02*
X03803Y03889D01*
Y03812D02*
Y03889D01*
X0375Y03759D02*
X03803Y03812D01*
X03848Y03767D02*
X03855Y03774D01*
X03919Y03736D02*
X03979Y03796D01*
X03747Y03736D02*
X03919D01*
X03654Y03666D02*
Y0371D01*
Y03666D02*
X03669Y03651D01*
X03654Y0371D02*
X03703Y03759D01*
X03681Y03593D02*
X03699Y03611D01*
X03665Y03593D02*
X03681D01*
X03563Y03491D02*
X03665Y03593D01*
X03563Y03468D02*
Y03491D01*
X03762Y03568D02*
X03786D01*
X03617Y03423D02*
X03762Y03568D01*
X03718Y03908D02*
X03783D01*
X03743Y03924D02*
X03807D01*
X03703Y03759D02*
X0375D01*
X03461Y04207D02*
X03743Y03924D01*
X03411Y04216D02*
X03718Y03908D01*
X03792Y0341D02*
X0382Y03382D01*
X03675Y0341D02*
X03792D01*
X0382Y03382D02*
X04001D01*
X03563Y03461D02*
Y03467D01*
X0347Y03368D02*
X03563Y03461D01*
X0347Y03259D02*
Y03368D01*
X03758Y03327D02*
X03903D01*
X03227Y03382D02*
X03306D01*
X03173Y0327D02*
X03236D01*
X04614Y02969D02*
X04793D01*
X04938Y02824*
X05206*
X05511Y03129*
Y03124D02*
Y03129D01*
X04952Y03567D02*
X05281Y03238D01*
X04952Y03567D02*
Y04424D01*
X05511Y03129D02*
Y03194D01*
X05467Y03238D02*
X05511Y03194D01*
X05281Y03238D02*
X05467D01*
X04952Y04424D02*
X05107Y04579D01*
Y04605*
X02829Y02645D02*
Y02716D01*
X0348Y03047D02*
X03491D01*
X0346Y03027D02*
X0348Y03047D01*
X0346Y03D02*
Y03027D01*
X03413Y02583D02*
Y02759D01*
X03354Y02818D02*
X03413Y02759D01*
Y02583D02*
X03751Y02245D01*
X0315Y02691D02*
X0346Y03D01*
X03156Y0272D02*
X03444Y03007D01*
X03185Y02771D02*
X03427Y03013D01*
X03037Y02771D02*
X03185D01*
X03189Y02798D02*
X03411Y0302D01*
X0285Y02798D02*
X03189D01*
X03779Y03614D02*
X03817D01*
X03597Y0329D02*
Y03431D01*
Y03286D02*
Y0329D01*
X0327Y02547D02*
Y02645D01*
X04244Y05288D02*
X04253Y05279D01*
X04043Y03876D02*
X04052Y03885D01*
X03451Y03617D02*
X03638D01*
X03444Y03007D02*
Y03046D01*
X03465Y03067*
X03411Y0302D02*
Y03059D01*
X04211Y0327D02*
X0423Y03289D01*
X03758Y03487D02*
X03766D01*
X03706D02*
X03758D01*
X03761Y03489D02*
X03893Y03621D01*
X04085*
X04141Y03661D02*
X04162Y0364D01*
X03855Y03661D02*
X04141D01*
X03845Y03651D02*
X03855Y03661D01*
X04295Y03758D02*
X0435D01*
X04205Y0438D02*
Y04559D01*
Y0438D02*
X04285Y043D01*
X04428Y03716D02*
Y04442D01*
X04241Y04629D02*
X04428Y04442D01*
X04494Y047D02*
Y04868D01*
Y047D02*
X04523Y04671D01*
X04479Y04883D02*
X04494Y04868D01*
X04479Y04883D02*
Y04935D01*
X04326Y03614D02*
X04428Y03716D01*
X0445Y04689D02*
Y04839D01*
Y04689D02*
X04546Y04593D01*
X04295Y0476D02*
X04319Y04736D01*
Y04669D02*
Y04736D01*
X04298Y04648D02*
X04319Y04669D01*
X04295Y0476D02*
Y05288D01*
X03781Y04114D02*
X03787Y04108D01*
Y04067D02*
Y04108D01*
Y04067D02*
X03806Y04048D01*
Y04004D02*
Y04048D01*
X04126Y03453D02*
X04198Y03525D01*
X04126Y03359D02*
Y03453D01*
X04121Y03354D02*
X04126Y03359D01*
X0411Y03395D02*
Y03591D01*
X04085Y0337D02*
X0411Y03395D01*
X04012Y0337D02*
X04085D01*
X04192Y03427D02*
X04217Y03452D01*
X04192Y03311D02*
Y03427D01*
X04171Y0329D02*
X04192Y03311D01*
X05063Y03417D02*
X0527Y0321D01*
X04295Y03417D02*
X05063D01*
X04291Y03413D02*
X04295Y03417D01*
X04217Y03452D02*
X04497D01*
X0411Y03591D02*
X04129Y0361D01*
X04471Y03566D02*
X04472Y03565D01*
X04252Y03542D02*
X04276Y03566D01*
X04322Y03582D02*
X04448Y03708D01*
X04228Y03582D02*
X04322D01*
X0422Y03574D02*
X04228Y03582D01*
X04104Y03702D02*
X04122D01*
X03461Y04207D02*
Y04584D01*
X03617Y03354D02*
X03683Y03287D01*
X03793Y03451D02*
X03816Y03428D01*
X0371Y03451D02*
X03793D01*
X04001Y03382D02*
X04012Y0337D01*
X04633Y04718D02*
Y0484D01*
X04567Y04906D02*
X04633Y0484D01*
X04567Y04906D02*
Y04967D01*
X04253Y04748D02*
X04289Y04712D01*
Y04712D02*
Y04712D01*
X04253Y04748D02*
Y05279D01*
X04195Y05012D02*
X04232Y04975D01*
Y04734D02*
Y04975D01*
X04071Y03906D02*
X04301Y03676D01*
X04051Y04731D02*
X04071Y04711D01*
Y03906D02*
Y04711D01*
X04088Y03924D02*
Y04823D01*
X04061Y0485D02*
X04088Y04823D01*
X04229Y04731D02*
X04232Y04734D01*
X04195Y05012D02*
Y05285D01*
X04061Y0485D02*
Y05055D01*
X04145Y05139*
Y05286*
X04095Y05288D02*
Y0534D01*
X04121Y05366*
X04352*
X04441Y05277*
Y05069D02*
Y05277D01*
Y05069D02*
X04543Y04967D01*
X04567*
X04195Y04896D02*
Y04945D01*
X04145Y04885D02*
Y04945D01*
X04118Y04573D02*
X04129Y04562D01*
X04095Y04882D02*
Y04946D01*
Y04882D02*
X04118Y04859D01*
X03021Y03118D02*
X03173Y0327D01*
X02991Y03118D02*
X03021D01*
X02973Y031D02*
X02991Y03118D01*
X0501Y04666D02*
Y04846D01*
X04875Y04531D02*
X0501Y04666D01*
X02829Y02716D02*
X02878Y02765D01*
X02924*
X02969Y0272*
X03156*
X02951Y02691D02*
X0315D01*
X02897Y02637D02*
X02951Y02691D01*
X02897Y02607D02*
Y02637D01*
Y02607D02*
Y02608D01*
X03047Y02576D02*
X03068Y02597D01*
X03039Y02567D02*
X03074D01*
X04916Y04896D02*
Y05457D01*
X04761Y04741D02*
X04916Y04896D01*
X04742Y04741D02*
X04761D01*
X04149Y04031D02*
Y04077D01*
X04129Y04098D02*
X04149Y04077D01*
X04129Y04098D02*
Y04128D01*
X03389Y0275D02*
X0339Y02749D01*
X03537Y0311D02*
X03575Y03148D01*
Y03149*
X03654Y03249D02*
Y0325D01*
X04118Y04573D02*
Y04859D01*
X03182Y0493D02*
X03192Y0492D01*
X03182Y0493D02*
Y04977D01*
X03184Y04975*
Y04913D02*
X03191Y04906D01*
X0339Y02749D02*
X03397D01*
X0353Y04771D02*
X03566Y04735D01*
X04684Y02439D02*
X0471Y02413D01*
X0462Y02439D02*
X04684D01*
X04485Y02574D02*
X0462Y02439D01*
X03122Y05171D02*
X0315Y05143D01*
X02603Y05171D02*
X03122D01*
X03394Y05446D02*
X03499Y05341D01*
X03278Y05446D02*
X03394D01*
X03245Y05479D02*
X03278Y05446D01*
X03751Y02245D02*
X04346D01*
X03489Y03092D02*
X03541D01*
X03465Y03068D02*
X03489Y03092D01*
X03034Y02774D02*
X03037Y02771D01*
X02969Y02632D02*
X02998Y02661D01*
X03541Y03092D02*
X03558Y03075D01*
X0353Y05299D02*
X03623Y05392D01*
X0353Y04771D02*
Y05299D01*
X03628Y04682D02*
Y05031D01*
X03593Y05066D02*
X03628Y05031D01*
X03593Y05066D02*
Y0514D01*
X04632Y03582D02*
Y0457D01*
X02954Y05127D02*
X03053D01*
X05447Y0321D02*
X05474Y03183D01*
X0527Y0321D02*
X05447D01*
X04398Y03224D02*
X0445Y03276D01*
X04521*
X04045Y04793D02*
Y05278D01*
X03061Y05297D02*
X03204D01*
X03205Y05298*
X03692Y04733D02*
Y05031D01*
X03678Y05211D02*
X03959D01*
X03715Y05246D02*
X03925D01*
X03741Y05298D02*
X03743D01*
X03765Y05276*
X03895*
X04149Y04031D02*
X0418Y04001D01*
X04223*
X03959Y05211D02*
X03995Y05247D01*
Y05273*
X03925Y05246D02*
X0395Y05271D01*
Y05299*
X03893Y05274D02*
X03895Y05276D01*
X04095Y05407D02*
Y0543D01*
X0408Y05392D02*
X04095Y05407D01*
X04494Y02393D02*
X04643D01*
X04346Y02245D02*
X04494Y02393D01*
X0258Y04934D02*
X02583Y04934D01*
X02731Y04906*
X02579Y04935D02*
X0258Y04934D01*
X02579Y04935D02*
X0258D01*
X03623Y05392D02*
X0408D01*
X04563Y05447D02*
Y05573D01*
X03432Y05561D02*
X03564Y05429D01*
X03919Y0557D02*
X0394Y05549D01*
X03919Y0557D02*
Y05608D01*
X0416Y05688D02*
X04225Y05623D01*
X04081Y05688D02*
X0416D01*
X02982Y05211D02*
X03145D01*
X02443Y04844D02*
Y05011D01*
Y04844D02*
X02485Y04802D01*
X02515*
X02443Y05011D02*
X02603Y05171D01*
X04648Y05725D02*
X04916Y05457D01*
X04461Y05725D02*
X04648D01*
X04395Y05659D02*
X04461Y05725D01*
X05265Y0502D02*
X05323Y05078D01*
X05301Y04709D02*
X05426Y04833D01*
X05245Y04709D02*
X05301D01*
X05426Y04833D02*
Y04942D01*
X05427Y04943*
X04129Y04318D02*
Y04319D01*
X04121Y04327D02*
X04129Y04319D01*
X04221Y04318D02*
Y04321D01*
X04228Y04328*
X04226Y04629D02*
X04241D01*
X04484Y02574D02*
X04485D01*
X03945Y04918D02*
Y04948D01*
X03499Y04724D02*
Y05341D01*
X04398Y03022D02*
Y03135D01*
Y03022D02*
X04448Y02972D01*
X04596*
X02681Y03244D02*
X02773Y03336D01*
Y03449*
X0284Y03516*
X02681Y03129D02*
Y03244D01*
X0284Y03516D02*
X03093D01*
X03227Y03382*
X02826Y02774D02*
X0285Y02798D01*
X05099Y02933D02*
X05166Y02866D01*
Y02864D02*
Y02866D01*
X02931Y03019D02*
X02982Y02968D01*
X03282*
X05265Y04909D02*
Y0502D01*
X05236Y0488D02*
X05265Y04909D01*
X0501Y04846D02*
X05044Y0488D01*
X05236*
X04875Y03744D02*
Y04531D01*
X04859Y03751D02*
Y04566D01*
Y04568*
X04922Y03544D02*
X0499Y03476D01*
X04922Y04476D02*
X04949Y04503D01*
X04922Y03544D02*
Y04476D01*
X03499Y04724D02*
X03572Y04651D01*
X04727Y04726D02*
X04742Y04741D01*
X03794Y03364D02*
X03996D01*
X04005Y03354*
X04121*
X03736Y04375D02*
X03824Y04463D01*
Y04803*
X03846Y04825*
X03957Y04058D02*
Y04906D01*
X03945Y04918D02*
X03957Y04906D01*
X03941Y04079D02*
Y04892D01*
X03895Y04938D02*
X03941Y04892D01*
X03857Y04306D02*
Y04323D01*
X03884Y0435*
Y04556*
X03889Y04561*
X04024Y04677D02*
Y04678D01*
Y04677D02*
X04052Y04649D01*
Y03885D02*
Y04649D01*
X03736Y04322D02*
Y04324D01*
Y04375*
X03764Y03699D02*
X03931D01*
X03995Y04946D02*
Y04948D01*
X03973Y04236D02*
Y04261D01*
X03986Y04273*
Y04311*
X03973Y04323D02*
X03986Y04311D01*
X03973Y04323D02*
Y04924D01*
X03995Y04946*
X0426Y03898D02*
X04318D01*
X0421Y03848D02*
X0426Y03898D01*
X04007Y03771D02*
X04133D01*
X03973Y04236D02*
X03974Y04236D01*
X03973Y03891D02*
Y04236D01*
X03411Y04216D02*
Y046D01*
X04121Y04327D02*
X04148Y04354D01*
Y04882*
X04145Y04885D02*
X04148Y04882D01*
X04166Y04867D02*
X04195Y04896D01*
X04166Y04378D02*
Y04867D01*
Y04378D02*
X04216Y04328D01*
X0423*
X04229Y04672D02*
X04448Y04453D01*
X0346Y03469D02*
Y03486D01*
X04773Y03637D02*
X04859Y03723D01*
Y03751*
X04836Y03647D02*
Y03661D01*
X04875Y037*
Y03743*
X04448Y03708D02*
Y04453D01*
X04531Y04793D02*
X04555Y04817D01*
X04531Y04731D02*
Y04793D01*
X02897Y02565D02*
Y02607D01*
X03491Y03047D02*
Y03056D01*
X04301Y03655D02*
Y03676D01*
X03637Y0336D02*
X03727Y0327D01*
X03738Y0329D02*
X04171D01*
X03727Y0327D02*
X04074D01*
X04075D02*
X04211D01*
X0405Y03326D02*
X04157D01*
X04198Y03525D02*
X04276D01*
X04266Y03614D02*
X04326D01*
X0421Y03585D02*
X0422Y03574D01*
X04207Y03542D02*
X04252D01*
X03692Y03681D02*
X03747Y03736D01*
X03669Y03651D02*
X03716D01*
X04088Y03924D02*
X04241Y03771D01*
X03716Y03651D02*
X03764Y03699D01*
X03778Y03642D02*
Y03653D01*
X04162Y03587D02*
X04207Y03542D01*
X04162Y03587D02*
Y03638D01*
X03981Y03797D02*
X04007Y03771D01*
X03931Y03699D02*
X03954Y03722D01*
X03973Y03891D02*
X04053Y03811D01*
X04106*
X03778Y03653D02*
X03806Y03681D01*
X04083*
X04104Y03702*
X04285Y043D02*
X04319D01*
X04357Y03176D02*
X04398Y03135D01*
X04292Y03176D02*
X04357D01*
X03637Y0336D02*
Y03418D01*
X03706Y03487*
X03617Y03354D02*
Y03423D01*
X03597Y03431D02*
X03779Y03614D01*
G54D11*
X04228Y04111D02*
X04232Y04115D01*
X04172Y04127D02*
X04188Y04111D01*
X0417Y04119D02*
Y04159D01*
X04205Y04194*
X04271*
X04305Y04228*
X0431Y04275D02*
X0434Y04246D01*
Y04126D02*
Y04246D01*
X04322Y04108D02*
X0434Y04126D01*
X04292Y04283D02*
X04299Y04275D01*
X0431*
X03184Y02649D02*
X03254Y02719D01*
X03357Y03226D02*
Y03352D01*
X03402Y03397*
Y03529*
X03433Y0356*
X03764Y03891D02*
X03782Y03874D01*
Y03817D02*
Y03874D01*
X03741Y03776D02*
X03782Y03817D01*
X04264Y03372D02*
X0432Y03317D01*
X04252Y03372D02*
X04264D01*
X03892Y04113D02*
X03902Y04102D01*
X03905Y04105*
X03854Y04054D02*
X03902Y04102D01*
X03655Y04222D02*
X03803D01*
X03854Y03812D02*
Y04054D01*
X04157Y034D02*
X04162Y03395D01*
X03706Y03891D02*
X03764D01*
X0363Y0371D02*
X03696Y03776D01*
X0363Y0371D02*
D01*
X03628Y03708D02*
X0363Y0371D01*
X03628Y03664D02*
Y03708D01*
X03696Y03776D02*
X03741D01*
X03705Y03891D02*
X03706Y03891D01*
X03365Y04232D02*
X03705Y03891D01*
X03433Y0356D02*
X03437D01*
X04533Y05023D02*
X04675D01*
X04676Y04844D02*
Y05017D01*
X0283Y04918D02*
Y05036D01*
X04003Y03904D02*
Y04336D01*
X03449Y03397D02*
X03469Y03417D01*
X03449Y03281D02*
Y03397D01*
X03869Y034D02*
X0407D01*
X04292Y03274D02*
Y03343D01*
X0422Y03356D02*
X04258Y03318D01*
Y03261D02*
Y03318D01*
Y03261D02*
X04295Y03224D01*
X04398*
X03389Y03221D02*
X03449Y03281D01*
X03141Y0288D02*
X03145D01*
X0314Y02875D02*
X03145Y0288D01*
X02809Y02851D02*
X03057D01*
X02751Y02866D02*
X02785Y02832D01*
X02915Y03177D02*
Y03219D01*
X02897Y03177D02*
X02915D01*
X02848Y03128D02*
X02897Y03177D01*
X03196Y0295D02*
X03214Y02931D01*
X02848Y02988D02*
Y03128D01*
X03352Y02545D02*
X03399Y02498D01*
Y02445D02*
Y02498D01*
X03351Y02397D02*
X03399Y02445D01*
X03305Y02397D02*
X03351D01*
X03297Y02719D02*
X03349Y02667D01*
X03254Y02719D02*
X03297D01*
X04165Y054D02*
X04353D01*
X05163Y04798D02*
X0533D01*
X03837Y04113D02*
X03892D01*
X04157Y03441D02*
X04196Y0348D01*
X04157Y034D02*
Y03441D01*
X0422Y03356D02*
Y03391D01*
X0432Y03317D02*
X04381D01*
X04196Y0348D02*
X04297D01*
X04349Y03532*
X04166Y03739D02*
X04235Y0367D01*
X04083Y03739D02*
X04166D01*
X04069Y03725D02*
X04083Y03739D01*
X04033Y03725D02*
X04069D01*
X04598Y04628D02*
Y04822D01*
X04533Y04887D02*
X04598Y04822D01*
X04528Y04892D02*
X04533Y04887D01*
X03349Y02603D02*
Y02667D01*
X03184Y02567D02*
Y02649D01*
X0383Y04113D02*
Y04195D01*
X03139Y02875D02*
X03143Y02879D01*
X02767Y02809D02*
X02809Y02851D01*
X02751Y02866D02*
Y03D01*
X02767Y02718D02*
Y02809D01*
X02848Y02988D02*
X02886Y0295D01*
X05153Y04992D02*
X05253Y05092D01*
X04879Y04908D02*
Y05138D01*
X04815Y04844D02*
X04879Y04908D01*
X04676Y04844D02*
X04815D01*
X03139Y02869D02*
Y02875D01*
X0314*
X03135D02*
X03139D01*
X02581Y03091D02*
X02595Y03077D01*
X03637Y04535D02*
X03667D01*
X05331Y03186D02*
X05379Y03138D01*
X05174Y03186D02*
X05331D01*
X05317Y03082D02*
X05362Y03036D01*
X05217Y03082D02*
X05317D01*
X03365Y04446D02*
Y04665D01*
X03698Y05689D02*
X03894D01*
X05317Y03082D02*
Y03128D01*
X0424Y05572D02*
X0428Y05532D01*
X0415Y05572D02*
X0424D01*
X04105Y05617D02*
X0415Y05572D01*
X0339Y04782D02*
X03637Y04535D01*
X0289Y05096D02*
X03385D01*
X0283Y05036D02*
X0289Y05096D01*
X02686Y04837D02*
X02871D01*
X04465Y05091D02*
Y05348D01*
Y05091D02*
X04533Y05023D01*
X03905Y04105D02*
Y04287D01*
X04851Y02753D02*
Y02846D01*
X04648Y02477D02*
Y02692D01*
X02595Y03077D02*
X027D01*
X0273Y03107*
X02886Y0295D02*
X03196D01*
X04676Y04717D02*
Y04844D01*
X03655Y04222D02*
Y0448D01*
X03803Y04222D02*
X0383Y04195D01*
X03802Y04349D02*
X03853Y044D01*
Y04511*
X03365Y04232D02*
Y04446D01*
X0354Y03664D02*
X03628D01*
X0533Y04798D02*
X05343Y04811D01*
X0339Y04782D02*
Y05379D01*
X04472Y03565D02*
X04474Y03567D01*
X02998Y02495D02*
X03112D01*
X03184Y02567*
X04176Y04317D02*
X0421Y04283D01*
X04292*
X04188Y04111D02*
X04228D01*
G54D42*
X04327Y04355D02*
X04382Y04299D01*
X04365Y03854D02*
X04382Y03871D01*
Y04299*
X02956Y04633D02*
X03127D01*
X05001Y03146D02*
Y03336D01*
X04676Y03611D02*
Y04377D01*
X04395Y0469D02*
X04516Y04569D01*
Y04496D02*
Y04569D01*
X04344Y04609D02*
Y05288D01*
Y04609D02*
X04474Y04479D01*
Y03567D02*
Y04479D01*
Y03565D02*
Y03567D01*
X04395Y0469D02*
Y04929D01*
X03595Y04235D02*
Y04521D01*
X0319Y0471D02*
X03406D01*
X03595Y04521*
X04284Y03854D02*
X04365D01*
X04591Y03386D02*
X04951D01*
X04521Y03316D02*
X04591Y03386D01*
X04517Y03553D02*
Y04479D01*
X03794Y04518D02*
Y05115D01*
X03595Y04235D02*
X03678Y04152D01*
X04921Y03106D02*
X04961D01*
X05001Y03146*
X04521Y03276D02*
Y03316D01*
X04951Y03386D02*
X05001Y03336D01*
X03082Y0438D02*
Y04557D01*
Y0438D02*
X03608Y03854D01*
X03706*
X04517Y04479D02*
Y04483D01*
X04474Y03567D02*
X04476D01*
X03678Y04152D02*
X03734D01*
X04275Y04355D02*
X04327D01*
G54D43*
X04643Y04657D02*
X04911D01*
X04585Y04599D02*
X04643Y04657D01*
X04582Y04442D02*
X04585Y04599D01*
X04582Y03526D02*
Y04442D01*
G54D44*
X02691Y02787D03*
X02762Y02857D03*
Y02716D03*
X02832Y02787D03*
Y02645D03*
X02903Y02716D03*
Y02575D03*
X02974Y02645D03*
Y02504D03*
G54D45*
X03045Y02575D03*
G54D46*
X03664Y05115D03*
X04526D03*
X04755D03*
X04675D03*
X03455Y0349D03*
G54D47*
X0427Y04149D03*
Y0385D03*
X03734D03*
Y04149D03*
G54D48*
X04517Y04479D03*
Y03545D03*
X04677Y03611D03*
X04476Y03567D03*
X03796Y04339D03*
X04305Y04228D03*
X03432Y031D03*
X03401Y03157D03*
X0321Y0266D03*
X03274Y02651D03*
X03558Y03413D03*
X03597Y0329D03*
X03676Y03373D03*
X03357Y03226D03*
X03853Y03821D03*
X03437Y0356D03*
X03736Y03377D03*
X03856Y03411D03*
X03798Y03363D03*
X03305Y03385D03*
X03682Y03419D03*
X04292Y03274D03*
X05107Y04605D03*
X03191Y03211D03*
X02914Y03223D03*
X03305Y02397D03*
X03382Y02748D03*
X03579Y03248D03*
X0435Y05401D03*
X04195Y05285D03*
X04164Y05401D03*
X04085Y03621D03*
X04295Y03758D03*
X04212Y04572D03*
X04262Y0456D03*
X04523Y04671D03*
X04479Y04935D03*
X04344Y05289D03*
X04393Y04941D03*
X03805Y03998D03*
X04156Y03394D03*
X04223Y03392D03*
X04349Y03532D03*
X04235Y0367D03*
X0396Y03725D03*
X04033D03*
X03853Y0377D03*
X03906Y0333D03*
X0372Y03452D03*
X03811Y03432D03*
X03747Y03324D03*
X03812Y03606D03*
X04528Y04892D03*
X04296Y04649D03*
X04051Y03872D03*
X04024Y04678D03*
X04289Y04712D03*
X04051Y04731D03*
X04229D03*
X04145Y05286D03*
X04095Y05287D03*
X04195Y04945D03*
X04145D03*
X04095Y04946D03*
X02973Y031D03*
X04859Y04566D03*
X04045Y04792D03*
X04121Y03705D03*
X04124Y04129D03*
X0417Y04117D03*
X03351Y02548D03*
X03495Y03008D03*
X03575Y0315D03*
X04222Y04D03*
X03829Y04111D03*
X04675Y05017D03*
X04227Y04672D03*
X04226Y04629D03*
X04118Y04563D03*
X02751Y03D03*
X05343Y04811D03*
X02848Y02988D03*
X05253Y05092D03*
X05153Y04992D03*
X04879Y05138D03*
X0303Y02767D03*
X03558Y03075D03*
X0494Y04496D03*
X03557Y04738D03*
X04244Y03775D03*
X04304Y03659D03*
X04131Y03603D03*
X04289Y03519D03*
X04268Y03618D03*
X03899Y03823D03*
X03985Y03799D03*
X03495Y03056D03*
X0273Y03107D03*
X02581Y03091D03*
X03594Y05143D03*
X02515Y04802D03*
X03156Y05143D03*
X03628Y04682D03*
X03571Y04651D03*
X05379Y0312D03*
X05174Y03186D03*
X05315Y03129D03*
X04567Y04967D03*
X04632Y0457D03*
X05175Y03047D03*
X04349Y03101D03*
X03365Y04665D03*
Y04446D03*
X05474Y03183D03*
X03884Y04563D03*
X04045Y05289D03*
X03053Y05127D03*
X03058Y05301D03*
X03205Y05298D03*
X03693Y05033D03*
X03678Y05211D03*
X03715Y05246D03*
X03741Y05298D03*
X03692Y04733D03*
X03995Y04948D03*
X03945D03*
X03895Y04947D03*
X03846Y04825D03*
X03794Y04518D03*
X03127Y04634D03*
X02956Y04633D03*
X03081Y04556D03*
X04582Y04442D03*
X03461Y04584D03*
X03995Y05273D03*
X0395Y05299D03*
X03895Y05276D03*
X03795Y05116D03*
X04245Y05289D03*
X04295Y05288D03*
X04096Y03814D03*
X04709Y02413D03*
X04643Y02393D03*
X03922Y03781D03*
X05359Y03033D03*
X0439Y03313D03*
X04895Y02935D03*
X04486Y02578D03*
X05428Y04942D03*
X04563Y05573D03*
Y05433D03*
X03432Y05561D03*
X03564Y05429D03*
X02583Y0493D03*
X02731Y04906D03*
X0469Y02859D03*
X04871Y03036D03*
X04921Y03106D03*
X04521Y03276D03*
X05003Y03328D03*
X03357Y02462D03*
X0319Y0471D03*
X03182Y04977D03*
X03191Y04906D03*
X04804Y03169D03*
Y03122D03*
X04757Y03169D03*
Y03122D03*
X03018Y04862D03*
Y04909D03*
X03065Y04862D03*
Y04909D03*
X03785Y04119D03*
X03905Y04105D03*
X03144Y02881D03*
X03055Y02853D03*
X02895Y03425D03*
X03Y03434D03*
X03289Y03016D03*
X0394Y05549D03*
X03696Y0569D03*
X04225Y05623D03*
X0428Y05532D03*
X04095Y0543D03*
X03245Y05479D03*
X04676Y04377D03*
X03657Y04481D03*
X03667Y04535D03*
X03145Y05211D03*
X02972Y0521D03*
X02949Y05131D03*
X04395Y05659D03*
X02686Y04837D03*
X02829Y04918D03*
X0339Y05379D03*
X04465Y05348D03*
X05323Y05078D03*
X05245Y04709D03*
X04176Y04317D03*
X04321Y04105D03*
X04129Y04318D03*
X04003Y04336D03*
X04005Y04249D03*
X03904Y04294D03*
X03859Y04311D03*
X04003Y03904D03*
X04851Y02753D03*
Y02846D03*
X04648Y02477D03*
X04606Y02973D03*
X04888Y03262D03*
X0407Y034D03*
X03638Y03618D03*
X02681Y03129D03*
X03217Y03331D03*
X05099Y02933D03*
X05166Y02864D03*
X02929Y0302D03*
X03385Y03084D03*
X03215Y02932D03*
X0499Y03478D03*
X04218Y03586D03*
X0463Y04705D03*
X03701Y04219D03*
X03854Y04518D03*
X03736Y04324D03*
X03411Y046D03*
X04232Y04111D03*
X0421Y03848D03*
X04133Y03771D03*
X0354Y03664D03*
X04454Y04851D03*
X04263Y03365D03*
X03403Y0332D03*
X04773Y03637D03*
X04836Y03647D03*
X03445Y03231D03*
X04632Y03585D03*
X04583Y03522D03*
X04293Y03418D03*
X04679Y04707D03*
X04727Y04709D03*
X04555Y04817D03*
X04531Y04731D03*
X05165Y04795D03*
X03654Y0325D03*
X04226Y03288D03*
X04149Y03327D03*
X04036Y03326D03*
X03839Y03647D03*
X03758Y03487D03*
X03697Y03682D03*
X03771Y03646D03*
X03783Y03568D03*
X03697Y03616D03*
X04273Y04354D03*
X04221Y04318D03*
X03385Y02835D03*
X04223Y0324D03*
X0348Y03426D03*
G54D49*
X04911Y04658D03*
G54D50*
X0445Y0274D03*
X0355D03*
G54D51*
X04Y0274D03*
G54D52*
X03918Y03562D03*
X03966D03*
X04013D03*
X03918Y03515D03*
X03966D03*
X04013D03*
X03918Y03467D03*
X03966D03*
X04013D03*
G54D53*
X03255Y04508D03*
X04745D03*
X02907Y04354D03*
X05093D03*
X02907Y03646D03*
X03255Y03492D03*
X04745D03*
X05093Y03646D03*
G54D54*
X05082Y03644D03*
Y04352D03*
X02922Y04355D03*
Y03647D03*
G54D55*
X03913Y05684D03*
Y05615D03*
X04086Y05616D03*
Y05684D03*
M02*