%FSTAX23Y23*%
%MOIN*%
%SFA1B1*%

%IPPOS*%
%AMD17*
4,1,4,-0.001400,0.026400,-0.022100,0.014400,0.001400,-0.026400,0.022100,-0.014400,-0.001400,0.026400,0.0*
%
%AMD18*
4,1,4,-0.018000,0.019300,-0.026200,-0.003200,0.018000,-0.019300,0.026200,0.003200,-0.018000,0.019300,0.0*
%
%AMD19*
4,1,4,0.026200,-0.003200,0.018000,0.019300,-0.026200,0.003200,-0.018000,-0.019300,0.026200,-0.003200,0.0*
%
%AMD20*
4,1,4,0.022100,0.014400,0.001400,0.026400,-0.022100,-0.014400,-0.001400,-0.026400,0.022100,0.014400,0.0*
%
%AMD45*
4,1,4,0.000000,-0.041700,0.041700,0.000000,0.000000,0.041700,-0.041700,0.000000,0.000000,-0.041700,0.0*
%
%ADD10C,0.008000*%
%ADD11C,0.010000*%
%ADD12R,0.019700X0.023600*%
%ADD13R,0.027600X0.035400*%
%ADD14R,0.029100X0.110000*%
%ADD15R,0.011800X0.031500*%
%ADD16R,0.031500X0.011800*%
G04~CAMADD=17~9~0.0~0.0~240.0~470.0~0.0~0.0~0~0.0~0.0~0.0~0.0~0~0.0~0.0~0.0~0.0~0~0.0~0.0~0.0~30.0~442.0~527.0*
%ADD17D17*%
G04~CAMADD=18~9~0.0~0.0~240.0~470.0~0.0~0.0~0~0.0~0.0~0.0~0.0~0~0.0~0.0~0.0~0.0~0~0.0~0.0~0.0~70.0~524.0~385.0*
%ADD18D18*%
G04~CAMADD=19~9~0.0~0.0~240.0~470.0~0.0~0.0~0~0.0~0.0~0.0~0.0~0~0.0~0.0~0.0~0.0~0~0.0~0.0~0.0~290.0~524.0~385.0*
%ADD19D19*%
G04~CAMADD=20~9~0.0~0.0~240.0~470.0~0.0~0.0~0~0.0~0.0~0.0~0.0~0~0.0~0.0~0.0~0.0~0~0.0~0.0~0.0~330.0~442.0~527.0*
%ADD20D20*%
%ADD21R,0.094500X0.094500*%
%ADD22O,0.037400X0.009800*%
%ADD23O,0.009800X0.037400*%
%ADD24R,0.023600X0.019700*%
%ADD25R,0.035400X0.027600*%
%ADD26R,0.047200X0.055100*%
%ADD27O,0.013800X0.059100*%
%ADD28R,0.098400X0.098400*%
%ADD29O,0.033500X0.009800*%
%ADD30O,0.009800X0.033500*%
%ADD31R,0.035400X0.031500*%
%ADD32R,0.141700X0.141700*%
%ADD33O,0.009800X0.031500*%
%ADD34O,0.031500X0.009800*%
%ADD35R,0.055100X0.047200*%
%ADD36R,0.173000X0.056500*%
%ADD37R,0.102400X0.043300*%
%ADD38R,0.059100X0.023600*%
%ADD39R,0.031500X0.035400*%
%ADD40R,0.080000X0.050000*%
%ADD41R,0.078700X0.039400*%
%ADD42C,0.025000*%
%ADD43C,0.040000*%
%ADD44C,0.059100*%
G04~CAMADD=45~10~0.0~590.4~0.0~0.0~0.0~0.0~0~0.0~0.0~0.0~0.0~0~0.0~0.0~0.0~0.0~0~0.0~0.0~0.0~225.0~590.4~0.0*
%ADD45D45*%
%ADD46C,0.050000*%
%ADD47C,0.055100*%
%ADD48C,0.035000*%
%ADD49C,0.040000*%
%ADD50C,0.175000*%
%ADD51C,0.915000*%
%ADD52C,0.026000*%
%ADD53C,0.089000*%
%ADD54C,0.140000*%
%LNronemotorboard-v9-1*%
%LPD*%
G36*
X04925Y03144D02*
X04919D01*
X04884Y03156*
X04916Y03168*
X04925*
Y03144*
G37*
G36*
X04933Y03192D02*
X0489Y03171D01*
X04889Y0318*
X04913Y03215*
X04935Y03216*
X04933Y03192*
G37*
G36*
X04673Y03181D02*
X04668Y03172D01*
X04643Y03185*
X04618*
Y03221*
X04633*
X04673Y03181*
G37*
G36*
X04689Y03156D02*
X04644Y03144D01*
X04626*
Y03168*
X04643*
X04689Y03156*
G37*
G36*
X04918Y0307D02*
X0492Y0305D01*
X0491Y03049*
X04877Y03093*
X04883Y031*
X04918Y0307*
G37*
G36*
X04929Y03122D02*
X04931Y03098D01*
X04909Y03099*
X04885Y03134*
X04891Y03141*
X04929Y03122*
G37*
G36*
X0467Y03133D02*
X04639Y03103D01*
X04618Y03102*
Y03125*
X04642*
X04667Y0314*
X0467Y03133*
G37*
G36*
X03142Y04758D02*
X03114Y04755D01*
X03107Y04752*
X03078Y04782*
X03085Y04786*
X03142Y04758*
G37*
G36*
X02945Y04842D02*
X02934Y04821D01*
X02929Y04817*
X02912Y04835*
X02937Y04852*
X02945*
Y04842*
G37*
G36*
X0317Y04835D02*
X03153Y04817D01*
X03148Y04821*
X03137Y04842*
Y04852*
X03145*
X0317Y04835*
G37*
G36*
X03006Y04784D02*
X02972Y0475D01*
X02938Y04758*
X02999Y04788*
X03006Y04784*
G37*
G36*
X04716Y03195D02*
X04681D01*
Y03218*
X04716Y03219*
Y03195*
G37*
G36*
X03025Y04773D02*
X03013Y04746D01*
X02989*
Y04752*
X03016Y04778*
X03025Y04773*
G37*
G36*
X03093Y04753D02*
Y04747D01*
X03069*
X03057Y04774*
X03066Y04779*
X03093Y04753*
G37*
G54D10*
X03843Y05199D02*
D01*
X03843Y05199*
X03843Y05198*
X03843Y05198*
X03843Y05197*
X03843Y05197*
X03843Y05197*
X03843Y05196*
X03844Y05196*
X03844Y05195*
X03844Y05195*
X03844Y05195*
X03845Y05195*
X03843Y05199D02*
D01*
X03843Y05199*
X03843Y05198*
X03843Y05198*
X03843Y05197*
X03843Y05197*
X03843Y05197*
X03843Y05196*
X03844Y05196*
X03844Y05195*
X03844Y05195*
X03844Y05195*
X03845Y05195*
X03842Y05202D02*
D01*
X03842Y05201*
X03842Y052*
X03842Y052*
X03842Y05199*
X03842Y05198*
X03842Y05198*
X03843Y05197*
X03843Y05196*
X03843Y05196*
X03844Y05195*
X03844Y05195*
X03845Y05195*
X03843Y05199D02*
D01*
X03843Y05199*
X03843Y05198*
X03843Y05198*
X03843Y05197*
X03843Y05197*
X03843Y05197*
X03843Y05196*
X03844Y05196*
X03844Y05195*
X03844Y05195*
X03844Y05195*
X03845Y05195*
X03843Y05199D02*
D01*
X03843Y05199*
X03843Y05198*
X03843Y05198*
X03843Y05197*
X03843Y05197*
X03843Y05197*
X03843Y05196*
X03844Y05196*
X03844Y05195*
X03844Y05195*
X03844Y05195*
X03845Y05195*
X03942Y05198D02*
D01*
X03942Y05197*
X03942Y05197*
X03942Y05197*
X03942Y05197*
X03942Y05196*
X03942Y05196*
X03942Y05196*
X03942Y05196*
X03942Y05196*
X03942Y05196*
X03942Y05195*
X03942Y05195*
X03943Y05195*
X03943Y05195*
X03943Y05195*
X03943Y05195*
X03943Y05195*
X03944Y05195*
X03944Y05195*
X03944Y05195*
X03944Y05195*
X03944Y05195*
X03945Y05195*
X03943Y05197D02*
D01*
X03943Y05196*
X03943Y05196*
X03943Y05196*
X03943Y05196*
X03943Y05196*
X03943Y05196*
X03943Y05196*
X03943Y05195*
X03943Y05195*
X03943Y05195*
X03943Y05195*
X03943Y05195*
X03943Y05195*
X03943Y05195*
X03944Y05195*
X03944Y05195*
X03944Y05195*
X03944Y05195*
X03944Y05195*
X03944Y05195*
X03944Y05195*
X03944Y05195*
X03945Y05195*
X0444Y03571D02*
X04507Y03638D01*
X04493Y03652D02*
X04758D01*
X04696Y03638D02*
X04726Y03607D01*
X04507Y03638D02*
X04696D01*
X04424Y036D02*
X04476Y03652D01*
X04406Y03605D02*
X04471Y0367D01*
X03766Y04326D02*
X03806Y04285D01*
X03433Y03175D02*
X03579Y03321D01*
X03433Y03115D02*
Y03175D01*
X03525Y03038D02*
Y03167D01*
X03504Y03017D02*
X03525Y03038D01*
X03499Y03017D02*
X03504D01*
X03433Y03115D02*
X03441Y03107D01*
X03483Y03088D02*
Y03195D01*
X03432Y03037D02*
X03483Y03088D01*
X03432Y02551D02*
Y03037D01*
X03385Y02835D02*
Y02972D01*
X03347Y0301D02*
X03385Y02972D01*
X03347Y0301D02*
Y03092D01*
X03397Y03142*
X03288Y03153D02*
X0329Y03155D01*
X03288Y03104D02*
Y03153D01*
Y03104D02*
X03289Y03103D01*
X03397Y03142D02*
X03404D01*
X0421Y03243D02*
X0422Y03233D01*
X03211Y02664D02*
X03237Y0269D01*
X03324*
X03334Y027*
X03284Y0266D02*
X0332D01*
X03275Y02651D02*
X03284Y0266D01*
X03334Y027D02*
Y02714D01*
X03339Y0272*
X0332Y0266D02*
X03325D01*
X0332D02*
X0332D01*
X03336Y0272D02*
X03339D01*
X03557Y03414D02*
Y03517D01*
Y03414D02*
X03558Y03413D01*
X03539Y03534D02*
X03557Y03517D01*
X03539Y03534D02*
Y03565D01*
X03635Y03381D02*
X03677Y03423D01*
X03307Y03381D02*
X03635D01*
X03565Y03361D02*
X03682D01*
X03524Y0332D02*
X03565Y03361D01*
X03748Y03321D02*
X03753Y03326D01*
X03579Y03321D02*
X03748D01*
X03578Y0322D02*
X03668D01*
X03525Y03167D02*
X03578Y0322D01*
X0381Y03228D02*
X03864Y03282D01*
X03803Y03244D02*
X03858Y03299D01*
X03775Y0326D02*
X03879Y03364D01*
X03768Y03276D02*
X03872Y0338D01*
X0372Y03244D02*
X03803D01*
X03726Y03228D02*
X0381D01*
X03687Y03188D02*
X03726Y03228D01*
X0368Y03204D02*
X0372Y03244D01*
X03707Y0326D02*
X03775D01*
X03668Y0322D02*
X03707Y0326D01*
X03679Y03276D02*
X03768D01*
X03653Y0325D02*
X03679Y03276D01*
X03761Y03292D02*
X03795Y03325D01*
X03647Y03292D02*
X03761D01*
X03606Y03251D02*
X03647Y03292D01*
X03415Y0332D02*
X03524D01*
X03425Y03256D02*
X03449Y03232D01*
X03137Y03256D02*
X03425D01*
X03085Y03203D02*
X03137Y03256D01*
X03685Y0337D02*
X0378Y03465D01*
X03936Y03613D02*
Y03642D01*
Y0361D02*
Y03613D01*
X03892Y03797D02*
X03899Y03804D01*
Y03823*
X03892Y03687D02*
Y03796D01*
Y03687D02*
X03936Y03642D01*
X0385Y03774D02*
X03856Y03768D01*
Y03699D02*
Y03768D01*
Y03699D02*
X03916Y03638D01*
X03923Y0368D02*
Y03787D01*
Y0368D02*
X03952Y03651D01*
X03774Y03834D02*
Y03862D01*
X03751Y03811D02*
X03774Y03834D01*
X03668Y03756D02*
X03723Y03811D01*
X03668Y03695D02*
Y03756D01*
X03667Y03694D02*
X03668Y03695D01*
X03667Y03647D02*
Y03694D01*
X03639Y03619D02*
X03667Y03647D01*
X03751Y03633D02*
X03759Y03641D01*
X03751Y0354D02*
Y03633D01*
Y0354D02*
X03786Y03505D01*
X03774Y03862D02*
X03779Y03867D01*
X03723Y03811D02*
X03751D01*
X03779Y03867D02*
X04008D01*
X0378Y03465D02*
X03867D01*
X03872Y0338D02*
X03893D01*
X03879Y03364D02*
X039D01*
X04293Y03345D02*
Y0338D01*
X04274Y03326D02*
X04293Y03345D01*
X04164Y03326D02*
X04274D01*
X04311Y0334D02*
Y03389D01*
X04259Y03288D02*
X04311Y0334D01*
X0423Y03288D02*
X04259D01*
X05054Y04605D02*
X05107D01*
X03976Y03258D02*
Y03307D01*
X03951Y03282D02*
X03976Y03307D01*
Y03412*
X03255Y03072D02*
Y03102D01*
X0317Y02987D02*
X03255Y03072D01*
X0317Y02905D02*
Y02987D01*
X03385Y03064D02*
X03416Y03033D01*
Y02786D02*
Y03033D01*
X03388Y02758D02*
X03416Y02786D01*
X03432Y02551D02*
X03522Y02461D01*
X02878Y02996D02*
Y0326D01*
X02898Y0328*
X02878Y02996D02*
X02978Y02896D01*
X03818Y03581D02*
Y03609D01*
X03588Y03289D02*
X03597Y03279D01*
X04295Y05293D02*
X04308D01*
X04295D02*
Y05336D01*
Y05288D02*
Y05293D01*
X04288Y04648D02*
X04298D01*
X03697Y03619D02*
Y03673D01*
X03636Y03619D02*
X03639D01*
X02973Y03099D02*
X03025Y03151D01*
X04245Y05289D02*
Y05338D01*
X04195Y05195D02*
Y05285D01*
X03003Y05245D02*
X0306Y05302D01*
X03136Y05328D02*
X03763D01*
X03022Y05214D02*
X03136Y05328D01*
X03022Y04963D02*
Y05214D01*
X02922Y05098D02*
X02945Y05121D01*
X02922Y04941D02*
Y05098D01*
Y04941D02*
X02937Y04925D01*
X0293Y05209D02*
X02975D01*
X02855Y05134D02*
X0293Y05209D01*
X04262Y04558D02*
X04461D01*
X04221Y03285D02*
X04227D01*
X04099Y03637D02*
X04149D01*
X04085Y03623D02*
X04099Y03637D01*
X04085Y03621D02*
Y03623D01*
X04149Y03637D02*
X0427Y03758D01*
X04295*
X0422Y04575D02*
X04292Y04647D01*
X04461Y04558D02*
X04523Y0462D01*
Y04671*
X04479Y04928D02*
Y04935D01*
X04459Y04908D02*
X04479Y04928D01*
X04354Y04908D02*
X04459D01*
X04345Y04917D02*
X04354Y04908D01*
X04345Y04917D02*
Y05035D01*
X04295Y04928D02*
Y05035D01*
Y04928D02*
X04331Y04892D01*
X04528*
X04282Y04852D02*
X04452D01*
X03805Y04151D02*
Y0418D01*
X0377D02*
X03805D01*
X03755Y04195D02*
X0377Y0418D01*
X03857Y04093D02*
Y04189D01*
X03819Y04055D02*
X03857Y04093D01*
X0371Y04055D02*
X03819D01*
X03779Y04125D02*
X03805Y04151D01*
X04293Y0338D02*
Y03414D01*
Y0338D02*
X04293Y0338D01*
X04159Y03321D02*
X04164Y03326D01*
X04227Y03285D02*
Y03287D01*
X04406Y03532D02*
Y03605D01*
X04359Y03485D02*
X04406Y03532D01*
X04064Y03485D02*
X04359D01*
X04424Y03527D02*
Y036D01*
X04363Y03466D02*
X04424Y03527D01*
X04145Y03466D02*
X04363D01*
X0444Y03518D02*
Y03571D01*
X04311Y03389D02*
X0444Y03518D01*
X04304Y03659D02*
X04305Y03658D01*
Y03533D02*
Y03658D01*
X043Y03528D02*
X04305Y03533D01*
X04008Y03867D02*
X04066Y03809D01*
Y03702D02*
Y03809D01*
X04015Y03651D02*
X04066Y03702D01*
X04085Y03773D02*
X04096Y03784D01*
X04085Y03698D02*
Y03773D01*
X04034Y03647D02*
X04085Y03698D01*
X03961Y03692D02*
Y03721D01*
Y03692D02*
X03974Y03679D01*
X03995Y03613D02*
Y03776D01*
X03976Y03796D02*
X03995Y03776D01*
X04096Y03784D02*
Y03811D01*
X03986Y03961D02*
Y04123D01*
X0397Y03945D02*
X03986Y03961D01*
X03906Y03945D02*
X0397D01*
X0396Y04149D02*
X03986Y04123D01*
X02934Y03254D02*
X03075D01*
X03499Y03165D02*
X03585Y03251D01*
X03499Y03062D02*
Y03165D01*
X03795Y03325D02*
Y0336D01*
X03608Y0345D02*
X03709D01*
X03583Y03475D02*
X03608Y0345D01*
X03812Y03426D02*
X03832Y03446D01*
X03812Y03425D02*
Y03426D01*
X03832Y03446D02*
X03867D01*
X03867Y03544D02*
X03867Y03544D01*
X03805Y03544D02*
X03867D01*
X03772Y03577D02*
X03805Y03544D01*
X03834Y03564D02*
X03867D01*
X03818Y03581D02*
X03834Y03564D01*
X04245Y04889D02*
X04282Y04852D01*
X04245Y04889D02*
Y05035D01*
X04295Y05195D02*
Y05288D01*
X04035Y03842D02*
X04047Y03854D01*
X04024Y04678D02*
X04047Y04701D01*
X04278*
X04051Y04731D02*
X04229D01*
X04145Y05195D02*
Y05286D01*
X04095Y05195D02*
Y05287D01*
X04195Y04945D02*
Y05032D01*
X04221Y04318D02*
X04228Y04325D01*
X042Y04297D02*
X04221Y04318D01*
Y04321*
X04129Y04319D02*
X04149Y04298D01*
X04145Y04945D02*
Y0503D01*
X03895Y04562D02*
X04129D01*
X03857Y04256D02*
Y04323D01*
X04095Y04946D02*
Y0503D01*
X03Y03175D02*
Y03214D01*
X02929Y03104D02*
X03Y03175D01*
X02929Y03034D02*
Y03104D01*
X04064Y03465D02*
X04144Y03466D01*
X04064Y03524D02*
X0419D01*
X04064Y03583D02*
X04097D01*
X02899Y02634D02*
X02961Y02696D01*
X03114D02*
X03253Y02835D01*
X02961Y02696D02*
X03114D01*
X03109Y02713D02*
X03214Y02817D01*
X02905Y02713D02*
X03109D01*
X02829Y02634D02*
X02899D01*
X03388Y02758D02*
X03397Y02749D01*
X04943Y04504D02*
Y04527D01*
X04727Y04697D02*
X04858Y04566D01*
X0399Y04733D02*
X04049Y04792D01*
X03692Y04733D02*
X0399D01*
X04201Y04646D02*
X04227Y04672D01*
X03664Y04646D02*
X04201D01*
X03628Y04682D02*
X03664Y04646D01*
X04108Y03703D02*
X04172D01*
X04244Y03775*
X04129Y04128D02*
Y04132D01*
X04101Y0416D02*
X04129Y04132D01*
X04101Y0416D02*
Y04188D01*
X042Y04105D02*
Y04186D01*
X03522Y0242D02*
Y02461D01*
X03499Y03011D02*
Y03017D01*
X03893Y0338D02*
X03897Y03384D01*
X03558Y03087D02*
X03659Y03188D01*
X03653Y0325D02*
X03653D01*
X0422Y03948D02*
X04293D01*
X04191Y04095D02*
X042Y04104D01*
X04191Y03977D02*
Y04095D01*
Y03977D02*
X0422Y03948D01*
X04222Y04D02*
X04285D01*
X02898Y0328D02*
X02934D01*
X02978Y02896D02*
X03013D01*
X05441Y03054D02*
X05487Y031D01*
X05382Y03054D02*
X05441D01*
X0527Y0321D02*
X05278Y03202D01*
X03248Y04989D02*
X03252Y04985D01*
X03223Y04989D02*
X03248D01*
X03204Y05008D02*
X03223Y04989D01*
X03232Y04945D02*
X03251D01*
X03119Y04906D02*
X03191D01*
X04703Y03D02*
Y03017D01*
X04711Y03025*
X04738*
X04751Y03038*
Y03063*
X047Y02995D02*
X04701D01*
X03998Y05291D02*
X04008Y05301D01*
Y0534*
X03091Y0265D02*
X03221Y0278D01*
X02987Y0265D02*
X03091D01*
X02985Y02648D02*
X02987Y0265D01*
X03198Y02828D02*
Y02872D01*
X03182Y02834D02*
Y02893D01*
X03168Y02821D02*
X03182Y02834D01*
X03025Y02821D02*
X03168D01*
X03168Y02798D02*
X03198Y02828D01*
X02851Y02798D02*
X03168D01*
X04095Y0543D02*
Y05484D01*
X03461Y0463D02*
X03567Y04736D01*
X03916Y03613D02*
Y03638D01*
X04142Y05494D02*
X04155D01*
X04112Y05464D02*
X04142Y05494D01*
X04097Y05464D02*
X04112D01*
X0472Y02473D02*
X04742D01*
X04645Y02398D02*
X0472Y02473D01*
X04632Y0457D02*
Y04715D01*
X03593Y04629D02*
X04226D01*
X04711Y02418D02*
X0477Y02427D01*
X04643Y02393D02*
Y02398D01*
X04067Y03446D02*
X04107D01*
X02831Y02778D02*
X02851Y02798D01*
X03022Y02755D02*
Y02774D01*
X0298Y02713D02*
X03022Y02755D01*
Y02774D02*
X03034D01*
X03015Y02831D02*
X03025Y02821D01*
X03042Y02565D02*
X03197Y0272D01*
X0328*
X03221Y0278D02*
X0328D01*
X03253Y02835D02*
X0328D01*
X03214Y02817D02*
Y02851D01*
X03253Y0289*
X0328*
X039Y03364D02*
X03916Y03381D01*
X04097Y03583D02*
X04128Y03614D01*
X03916Y03381D02*
Y03416D01*
X03897Y03384D02*
Y03416D01*
X04034Y03613D02*
Y03647D01*
X04015Y03613D02*
Y03651D01*
X03952Y03651D02*
X03956Y03647D01*
Y03613D02*
Y03647D01*
X03976Y03613D02*
Y03611D01*
X03956Y0361D02*
Y03613D01*
X03015Y02831D02*
Y0289D01*
X02583Y02974D02*
X02604Y02953D01*
X02816Y03163D02*
X02845Y03134D01*
X02636Y02989D02*
X0265Y02975D01*
X02636Y02989D02*
Y03017D01*
X0266Y03041*
X04398Y05655D02*
X04484Y05622D01*
X03156Y05143D02*
X03594D01*
X03571Y04651D02*
X03593Y04629D01*
X0534Y03096D02*
X05382Y03054D01*
X04741Y03379D02*
X04771Y03349D01*
X04681Y03379D02*
X04741D01*
X04531Y02856D02*
X04591Y02796D01*
X04547Y02862D02*
X04597Y02812D01*
X02937Y04925D02*
X02964D01*
X02855Y04978D02*
X02927Y04905D01*
X02964*
X03951Y05298D02*
Y05341D01*
X04671Y03116D02*
X04698D01*
X04638Y03106D02*
X04668Y03136D01*
X04529Y03106D02*
X04638D01*
X04668Y03136D02*
X04693D01*
X04674Y03096D02*
X04698D01*
X04567Y04967D02*
X04621D01*
X03461Y04584D02*
Y0463D01*
X03003Y05022D02*
Y05218D01*
Y05245*
X03072Y05033D02*
X03693D01*
X03145Y05211D02*
X03678D01*
X03205Y05298D02*
X03741D01*
X03787Y05304D02*
X03843D01*
X03763Y05328D02*
X03787Y05304D01*
X03042Y05003D02*
X03072Y05033D01*
X03042Y04963D02*
Y05003D01*
X03995Y04948D02*
Y05035D01*
X03945Y04948D02*
Y05035D01*
X03895Y04947D02*
Y05035D01*
X04228Y04325D02*
Y04328D01*
X042Y04253D02*
Y04297D01*
X04149Y04253D02*
Y04298D01*
X042Y0419D02*
X0424D01*
X041D02*
X04148D01*
X0396Y04149D02*
Y0419D01*
X04095Y04054D02*
Y04092D01*
X0405Y04137D02*
X04095Y04092D01*
X0405Y04137D02*
Y0419D01*
X04001Y04825D02*
X04045Y04869D01*
X03846Y04825D02*
X04001D01*
X04045Y04869D02*
Y05035D01*
X03002Y04785D02*
Y04808D01*
X02965Y04748D02*
X03002Y04785D01*
X02965Y04745D02*
Y04748D01*
X03081Y04783D02*
X03118Y04746D01*
X03081Y04783D02*
Y04808D01*
X03002Y04963D02*
Y05022D01*
X03995Y05273D02*
X04005D01*
X0395Y05299D02*
X03951Y05298D01*
X03895Y05195D02*
Y05276D01*
Y05339*
X03843Y0527D02*
Y05304D01*
Y05335*
X0384Y05338D02*
X03843Y05335D01*
Y0527D02*
X03847Y05266D01*
X03942Y05198D02*
Y05289D01*
X04245Y05195D02*
Y05289D01*
X04045Y05195D02*
Y05289D01*
X03493Y02391D02*
X03522Y0242D01*
X03434Y0241D02*
X03493Y02391D01*
X0317Y02905D02*
X03182Y02893D01*
X03847Y05243D02*
Y05266D01*
X03995Y05195D02*
Y05263D01*
X02511Y04896D02*
X02545Y0493D01*
X02583*
X03245Y05481D02*
X03318Y05554D01*
X03245Y05481D02*
Y05484D01*
Y05479D02*
Y05481D01*
X03323Y05607D02*
X03386D01*
X03432Y05561*
X04503Y05668D02*
X04534Y05655D01*
X04563Y05626*
Y05573D02*
Y05626D01*
X05397Y05047D02*
X05428Y05016D01*
Y04942D02*
Y05016D01*
X05487Y031D02*
Y03109D01*
X03401Y02367D02*
X03417D01*
X03357Y02411D02*
X03401Y02367D01*
X03357Y02411D02*
Y02462D01*
X04486Y02578D02*
Y02585D01*
X0454Y0264*
X04524Y05395D02*
X04563Y05433D01*
X03426Y05567D02*
X03432Y05561D01*
X03514Y0538D02*
X03564Y05429D01*
X0273Y04774D02*
X02731Y04906D01*
X02726Y04778D02*
X0273Y04774D01*
X048Y03306D02*
X04802Y03308D01*
X048Y03282D02*
Y03306D01*
X0479Y03272D02*
X048Y03282D01*
X0479Y03265D02*
Y03272D01*
X04521Y03097D02*
X04529Y03106D01*
X0479Y03228D02*
Y03265D01*
X04771Y03228D02*
Y03349D01*
X03165Y04925D02*
X03177Y04938D01*
X03209D02*
X0323Y04916D01*
X03177Y04938D02*
X03209D01*
X03119Y04925D02*
X03165D01*
X03182Y04977D02*
X03201Y04976D01*
X0308Y04964D02*
Y04985D01*
X03103Y05008*
X03204*
X0323Y04916D02*
X03251D01*
X03201Y04976D02*
X03232Y04945D01*
X03248Y04874D02*
X03251Y04876D01*
X03251Y04945D02*
X03253Y04946D01*
X03865Y0419D02*
X0391D01*
X03865Y0419D02*
X03865Y0419D01*
X03119Y04866D02*
X03158D01*
X03189Y04835*
X03251*
X03173Y04874D02*
X03248D01*
X03161Y04886D02*
X03173Y04874D01*
X03119Y04886D02*
X03161D01*
X02846Y03305D02*
X02934D01*
X02846Y03346D02*
Y03389D01*
X02878Y03254D02*
X02934D01*
X03255Y03102D02*
X03256Y03103D01*
X03289*
X0401Y05518D02*
X04013Y05521D01*
X0394Y05518D02*
X0401D01*
X0394Y05512D02*
Y05549D01*
X04225Y05494D02*
Y05623D01*
X04791Y02937D02*
X04792Y02938D01*
X0479Y02941D02*
Y02958D01*
X04791Y02871D02*
Y02937D01*
X0479Y03063D02*
X04791Y03063D01*
X0481Y03037D02*
Y03063D01*
Y03037D02*
X0484Y03008D01*
Y02995D02*
Y03008D01*
X0479Y02958D02*
X048Y02968D01*
X04791Y03049D02*
Y03063D01*
X048Y02968D02*
Y03019D01*
X04791Y03027D02*
Y03056D01*
Y03027D02*
X048Y03019D01*
X0469Y02954D02*
Y02967D01*
X047Y02977*
Y02994*
X04095Y05484D02*
Y05486D01*
X04084Y05484D02*
X04095D01*
X02855Y04978D02*
Y05134D01*
X03053Y05127D02*
Y05221D01*
X03078Y05246*
X03715*
X03952Y03651D02*
X03952Y0365D01*
X02515Y04802D02*
X02549Y04858D01*
X04621Y04908D02*
X04671D01*
X04751Y04906D02*
X04811D01*
X05323Y05078D02*
X0535Y05036D01*
X05245Y0471D02*
Y0475D01*
X04129Y04318D02*
Y04319D01*
X04221Y04321D02*
X04228Y04328D01*
X03708Y04D02*
X0381D01*
X04633Y03427D02*
X04681Y03379D01*
X04633Y03427D02*
Y03583D01*
X04606Y02973D02*
X04649D01*
Y03004*
X04708Y03063*
X04731*
X04618Y0303D02*
X04646Y03058D01*
Y03091*
X04671Y03116*
X04662Y03051D02*
Y03084D01*
X04674Y03096*
X04624Y03014D02*
X04662Y03051D01*
X0527Y03164D02*
Y0321D01*
Y03164D02*
X05277Y03157D01*
Y03117D02*
Y03157D01*
Y03117D02*
X05298Y03096D01*
X0534*
X04991Y03445D02*
X05214Y03222D01*
X0523Y03162D02*
X0526Y03132D01*
X05214Y03155D02*
X05244Y03125D01*
X05214Y03155D02*
Y03222D01*
X03091Y03254D02*
X03092Y03255D01*
X0261Y03107D02*
X02666Y03163D01*
X02816*
X02583Y02974D02*
Y03016D01*
X0261Y03043*
Y03107*
X0266Y03041D02*
Y03108D01*
X02681Y03129*
X04531Y02856D02*
Y02964D01*
X04597Y0303*
X04618*
X04547Y02862D02*
Y02957D01*
X04603Y03014*
X04624*
X05102Y02867D02*
X05244Y03009D01*
Y03125*
X0526Y03002D02*
Y03132D01*
X04597Y02812D02*
X05047D01*
X05102Y02867*
X04591Y02796D02*
X05053D01*
X05004Y02935D02*
X05097D01*
X05099Y02933*
X05144Y02885D02*
X05166Y02864D01*
X05053Y02796D02*
X0526Y03002D01*
X04943Y04504D02*
X0495Y04497D01*
X03025Y03151D02*
Y03214D01*
X03198Y02872D02*
X03273Y02947D01*
X03385Y03064D02*
Y03084D01*
Y03085*
X04989Y0347D02*
X04997D01*
X0523Y03237*
Y03162D02*
Y03237D01*
X04807Y03607D02*
X0497Y03445D01*
X04991*
X04643Y02398D02*
X04645D01*
X04064Y03544D02*
X04253D01*
X04064Y03564D02*
X04137D01*
X02993Y03074D02*
X03048D01*
X02972Y03096D02*
X02993Y03074D01*
X03124Y03111D02*
Y0313D01*
X03115Y0314D02*
X03124Y0313D01*
X03115Y0314D02*
Y03156D01*
X03806Y04256D02*
Y04285D01*
X03738Y04326D02*
X03766D01*
X03845Y04947D02*
Y05035D01*
X03802Y04904D02*
X03845Y04947D01*
X03645Y04904D02*
X03802D01*
X03411Y0467D02*
X03645Y04904D01*
X03411Y046D02*
Y0467D01*
X03975Y03613D02*
Y03677D01*
X03974Y03679D02*
X03975Y03677D01*
X03974Y03679D02*
X03975Y03678D01*
X04133Y03771D02*
X0421Y03848D01*
X03161Y03035D02*
X03182D01*
X03218Y03*
X03585Y03504D02*
Y03565D01*
X0348Y03518D02*
Y03565D01*
X03459Y03497D02*
X0348Y03518D01*
X03583Y03475D02*
Y03494D01*
X03897Y03613D02*
Y03635D01*
X04727Y04697D02*
Y04711D01*
X04858Y04565D02*
Y04566D01*
X03085Y03111D02*
Y03203D01*
X04914Y04754D02*
Y0478D01*
X04813Y0367D02*
X04836Y03647D01*
X04758Y03652D02*
X04773Y03637D01*
X04726Y03607D02*
X04807D01*
X04471Y0367D02*
X04813D01*
X04476Y03652D02*
X04492D01*
X04525Y036D02*
Y03635D01*
X04995Y04607D02*
Y04695D01*
X04049Y04792D02*
X04068Y04773D01*
X04738D02*
X04756Y04754D01*
Y04713D02*
X04943Y04527D01*
X04756Y04713D02*
Y04754D01*
X04901Y04605D02*
X04995D01*
X04772Y04733D02*
Y04772D01*
X04729Y04816D02*
X04772Y04772D01*
X04555Y04816D02*
Y04817D01*
X04514Y04748D02*
X04531Y04731D01*
X04245Y04748D02*
X04514D01*
X04233Y04736D02*
X04245Y04748D01*
X04772Y04733D02*
X04901Y04605D01*
X03492Y03055D02*
X03499Y03062D01*
X04555Y04816D02*
X04729D01*
X04068Y04773D02*
X04738D01*
X03936Y03363D02*
X03936Y03416D01*
X03483Y03195D02*
X03577Y03289D01*
X03588*
X03574Y03151D02*
X03627Y03204D01*
X03585Y03251D02*
X03606D01*
X03627Y03204D02*
X0368D01*
X03659Y03188D02*
X03687D01*
X03909Y03336D02*
X03936Y03363D01*
X03926Y03299D02*
X03956Y03329D01*
Y03413*
X03864Y03282D02*
X03951D01*
X03858Y03299D02*
X03926D01*
X05451Y03141D02*
X05474Y03182D01*
X05475Y03183*
X04034Y03334D02*
Y03416D01*
X03995Y03312D02*
Y03416D01*
Y03312D02*
X04019Y03289D01*
X04068*
X04108Y03329*
X03759Y03641D02*
X03769D01*
X0419Y03524D02*
X04199Y03516D01*
X04288*
X0429Y03528D02*
X043D01*
X04253Y03544D02*
X04269Y0356D01*
Y03604*
X04137Y03564D02*
X04157Y03584D01*
X04214*
X03748Y03714D02*
X03818D01*
X03897Y03635*
X03762Y03485D02*
X03867D01*
X03786Y03505D02*
X03865D01*
X0424Y0419D02*
X04258Y04208D01*
X04108Y03324D02*
Y03375D01*
Y03324D02*
X04189Y03243D01*
X0421*
G54D11*
X02149Y03331D02*
D01*
X022Y03203*
X0226Y03079*
X02328Y0296*
X02405Y02846*
X02489Y02738*
X02581Y02635*
X02679Y0254*
X02784Y02451*
X02895Y0237*
X03012Y02297*
X03133Y02232*
X03258Y02176*
X03387Y02129*
X03519Y02091*
X03653Y02062*
X03789Y02043*
X03926Y02033*
X04064Y02032*
X04201Y02042*
X04337Y0206*
X04471Y02089*
X04603Y02126*
X04733Y02173*
X04858Y02229*
X0498Y02293*
X05096Y02365*
X05208Y02446*
X05313Y02534*
X05412Y02629*
X05504Y02731*
X05589Y02839*
X05666Y02953*
X05735Y03072*
X05796Y03195*
X05847Y03322*
X05851Y03331*
Y04669D02*
D01*
X05799Y04796*
X05739Y0492*
X05671Y05039*
X05594Y05153*
X0551Y05261*
X05418Y05364*
X0532Y05459*
X05215Y05548*
X05104Y05629*
X04987Y05702*
X04866Y05767*
X04741Y05823*
X04612Y0587*
X0448Y05908*
X04346Y05937*
X0421Y05956*
X04073Y05966*
X03935Y05967*
X03798Y05957*
X03662Y05939*
X03528Y0591*
X03396Y05873*
X03266Y05826*
X03141Y0577*
X03019Y05706*
X02903Y05634*
X02791Y05553*
X02686Y05465*
X02587Y0537*
X02495Y05268*
X0241Y0516*
X02333Y05046*
X02264Y04927*
X02203Y04804*
X02152Y04677*
X02149Y04669*
X05323D02*
D01*
X05318Y04668*
X05314Y04668*
X05309Y04667*
X05305Y04666*
X05301Y04665*
X05297Y04663*
X05293Y04661*
X05289Y04659*
X05285Y04656*
X05282Y04654*
X05279Y04651*
X05276Y04648*
X05273Y04644*
X0527Y04641*
X05268Y04637*
X05266Y04633*
X05264Y04629*
X05263Y04625*
X05261Y04621*
X0526Y04616*
X0526Y04612*
X0526Y04608*
X0526Y04606*
Y03394D02*
D01*
X0526Y03389*
X0526Y03385*
X05261Y0338*
X05262Y03376*
X05263Y03372*
X05265Y03368*
X05267Y03364*
X05269Y0336*
X05272Y03356*
X05274Y03353*
X05277Y0335*
X0528Y03347*
X05284Y03344*
X05287Y03341*
X05291Y03339*
X05295Y03337*
X05299Y03335*
X05303Y03334*
X05307Y03332*
X05312Y03331*
X05316Y03331*
X0532Y03331*
X05323Y03331*
X0274Y04606D02*
D01*
X02739Y0461*
X02739Y04614*
X02738Y04619*
X02737Y04623*
X02736Y04627*
X02734Y04631*
X02732Y04635*
X0273Y04639*
X02727Y04643*
X02725Y04646*
X02722Y04649*
X02719Y04652*
X02715Y04655*
X02712Y04658*
X02708Y0466*
X02704Y04662*
X027Y04664*
X02696Y04665*
X02692Y04667*
X02687Y04668*
X02683Y04668*
X02679Y04668*
X02677Y04669*
Y03331D02*
D01*
X02681Y03331*
X02685Y03331*
X0269Y03332*
X02694Y03333*
X02698Y03334*
X02702Y03336*
X02706Y03338*
X0271Y0334*
X02714Y03343*
X02717Y03345*
X0272Y03348*
X02723Y03351*
X02726Y03355*
X02729Y03358*
X02731Y03362*
X02733Y03366*
X02735Y0337*
X02736Y03374*
X02738Y03378*
X02739Y03383*
X02739Y03387*
X02739Y03391*
X0274Y03394*
X04173Y03967D02*
Y04122D01*
X04305Y04228D02*
Y04263D01*
Y04226D02*
Y04228D01*
X04293Y04274D02*
X04305Y04263D01*
X04255Y04274D02*
X04293D01*
X03355Y03143D02*
Y03159D01*
X03349Y03137D02*
X03355Y03143D01*
X03349Y03127D02*
Y03137D01*
X03328Y03106D02*
X03349Y03127D01*
X03328Y02988D02*
Y03106D01*
X03385Y02835D02*
X03392D01*
X03342D02*
X03385D01*
X03318Y02978D02*
X03328Y02988D01*
X03324Y03331D02*
X0338Y03275D01*
X03305Y03331D02*
X03324D01*
X03705Y03339D02*
X03736Y0337D01*
X03569Y03339D02*
X03705D01*
X03505Y03275D02*
X03569Y03339D01*
X03091Y03331D02*
X03217D01*
X0338Y03275D02*
X03505D01*
X03217Y03331D02*
X03304D01*
X03814Y03822D02*
X03851D01*
X038Y03808D02*
X03814Y03822D01*
X038Y03774D02*
Y03808D01*
X04349Y03101D02*
X0439D01*
X04291Y03216D02*
Y03278D01*
X03813Y03849D02*
X03981D01*
X03793Y03829D02*
X03813Y03849D01*
X04975Y03306D02*
X05001Y03332D01*
X04157Y03396D02*
X04163Y03392D01*
X04153Y034D02*
X04157Y03396D01*
X03745Y03781D02*
X03791Y03827D01*
X03745Y03774D02*
Y03781D01*
X03651Y03859D02*
X03732Y0394D01*
X03651Y03702D02*
Y03859D01*
X03552Y03603D02*
X03651Y03702D01*
X03734Y03673D02*
X03741Y0368D01*
X03734Y03595D02*
Y03673D01*
X03704Y03565D02*
X03734Y03595D01*
X03644Y03565D02*
X03704D01*
X03251Y04796D02*
X03293D01*
X03708Y03943D02*
X0376D01*
X03437Y0356D02*
Y03586D01*
X03454Y03603*
X03552*
X04682Y04448D02*
Y04707D01*
X04676Y04977D02*
Y05017D01*
X05378Y0312D02*
X05407Y03166D01*
X04175Y04253D02*
Y04317D01*
X0396Y04249D02*
X04048D01*
X03992Y03885D02*
X04007Y039D01*
X03357Y03197D02*
Y03226D01*
X03753Y03401D02*
X03846D01*
X0373Y03378D02*
X03753Y03401D01*
X0373Y03364D02*
Y03378D01*
X03525Y03474D02*
Y035D01*
X03477Y03426D02*
X03525Y03474D01*
X0469Y02915D02*
X04729D01*
X0469D02*
Y02917D01*
Y02862D02*
Y02915D01*
X0464Y02918D02*
X0469D01*
X0476Y02946D02*
Y02988D01*
X04729Y02915D02*
X0476Y02946D01*
X04244Y03169D02*
X04291Y03216D01*
X04182Y03226D02*
X04306Y03102D01*
X04347Y03101D02*
X04349D01*
X04306Y03102D02*
X04348D01*
X04182Y03226D02*
D01*
X04153Y03255D02*
X04182Y03226D01*
X04039Y03255D02*
X04153D01*
X03244Y02978D02*
X03318D01*
X03215Y02949D02*
X03244Y02978D01*
X03174Y03194D02*
X03191Y03211D01*
X03145Y03194D02*
X03174D01*
X03232Y03205D02*
X03349D01*
X03357Y03162D02*
Y03197D01*
X03349Y03205D02*
X03357Y03197D01*
X03182Y03155D02*
X03232Y03205D01*
X03085Y02968D02*
Y02998D01*
X03086Y02968D02*
X03094Y0296D01*
X03124Y02898D02*
X03145Y02878D01*
X03055Y02853D02*
Y02895D01*
X02895Y0301D02*
Y03136D01*
X02938Y02967D02*
X03085D01*
X02895Y0301D02*
X02938Y02967D01*
X02895Y03136D02*
X02898Y0314D01*
X02915*
Y03179D02*
Y03219D01*
X02715Y02949D02*
X02718D01*
X02692Y02993D02*
X02718Y02949D01*
X02635Y02724D02*
X02978Y02381D01*
X02635Y02724D02*
Y02869D01*
X03289Y02381D02*
X03305Y02397D01*
X02978Y02381D02*
X03289D01*
X02635Y02869D02*
X02715Y02949D01*
X02718D02*
X02761D01*
X04225Y05449D02*
Y0545D01*
X04227Y05449D02*
X04278D01*
X04225D02*
X04227D01*
X04213D02*
X04225D01*
X04227D02*
Y0545D01*
Y0543D02*
Y05449D01*
Y0543D02*
X0424Y05417D01*
Y05399D02*
Y05417D01*
Y05399D02*
X04295D01*
X0423D02*
X0424D01*
X04394Y05309D02*
Y0536D01*
X0435Y05404D02*
X04394Y0536D01*
X04212Y05448D02*
X04217Y05452D01*
X04162Y05448D02*
X04212D01*
X04278Y05449D02*
X0428Y05447D01*
X05165Y04799D02*
Y04846D01*
Y04795D02*
Y04799D01*
X05289Y04771D02*
X05303D01*
X05165Y04799D02*
X05166D01*
X05126D02*
X05165D01*
X03701Y04263D02*
X03745D01*
X03701Y04219D02*
Y04263D01*
X03846Y04055D02*
X03905D01*
X03836Y04045D02*
X03846Y04055D01*
X03836Y03903D02*
Y04045D01*
X04216Y03445D02*
X04264Y03397D01*
Y03373D02*
Y03397D01*
Y03373D02*
X04266Y03371D01*
X04163Y03392D02*
X04215D01*
X04108Y03445D02*
X04216D01*
X0435Y03535D02*
Y03669D01*
X04307Y03712D02*
X0435Y03669D01*
X04265Y03712D02*
X04307D01*
X04235Y03682D02*
X04265Y03712D01*
X04235Y0367D02*
Y03682D01*
X03981Y03849D02*
X04032Y03798D01*
Y03737D02*
Y03798D01*
X03085Y03008D02*
Y03075D01*
X03065Y03094D02*
X03085Y03075D01*
X03065Y03094D02*
Y03111D01*
X02967Y0318D02*
X02974Y03187D01*
X02919Y0318D02*
X02967D01*
X02974Y03187D02*
Y03214D01*
X03905Y04055D02*
Y04105D01*
X03341Y02835D02*
Y02948D01*
X03215Y02931D02*
Y02932D01*
X02761Y02685D02*
X02767Y02691D01*
X02761Y02624D02*
Y02685D01*
Y02624D02*
X02982Y02403D01*
X04816Y04967D02*
X05051D01*
X0485Y04849D02*
Y04967D01*
X03379Y02623D02*
Y0266D01*
X03341Y02727D02*
Y02835D01*
X03251Y02473D02*
X03316Y02466D01*
X03315Y02467D02*
X03316Y02467D01*
X03315Y02467D02*
Y02615D01*
X03354Y02553D02*
Y02615D01*
X03371*
X03354D02*
X03354D01*
X03351Y0255D02*
X03354Y02553D01*
X03371Y02615D02*
X03379Y02623D01*
X03351Y02546D02*
Y02548D01*
Y02546D02*
X03403Y02493D01*
X03486Y05606D02*
X03502Y05622D01*
X03486Y05438D02*
Y05606D01*
Y05438D02*
X03496Y05428D01*
X0415Y03944D02*
X04173Y03967D01*
X02885Y03425D02*
Y03438D01*
X02896Y03384D02*
Y03423D01*
X02883Y03371D02*
X02896Y03384D01*
X02883Y03343D02*
Y03371D01*
Y03423D02*
X02885Y03425D01*
X02883Y03345D02*
X029D01*
X02874Y03448D02*
X02885Y03438D01*
X02843Y03448D02*
X02874D01*
X03042Y04749D02*
Y04808D01*
X05031Y03058D02*
X05051Y03077D01*
X0488Y03096D02*
X04919Y03058D01*
X0305Y0337D02*
Y03395D01*
X0546Y0485D02*
X05463Y04847D01*
Y04805D02*
Y04847D01*
X05428Y0477D02*
X05463Y04805D01*
X05244Y0495D02*
X05302Y05008D01*
X05244Y04809D02*
Y0495D01*
Y04809D02*
X0529D01*
X04318Y0544D02*
D01*
X04288D02*
X04318D01*
X0428Y05448D02*
X04288Y0544D01*
X03217Y02489D02*
X03243Y02483D01*
X03191Y02484D02*
X03217Y02489D01*
X0311Y02403D02*
X03191Y02484D01*
X02982Y02403D02*
X0311D01*
X0273Y03021D02*
X02751Y03D01*
X0273Y03021D02*
Y03107D01*
X03139Y02885D02*
X03144Y02881D01*
X03145Y0288*
X03055Y0285D02*
Y02853D01*
X03Y03405D02*
X0304D01*
X02974D02*
X03D01*
Y03425*
Y03371D02*
Y03405D01*
X05303Y04771D02*
X05343Y04811D01*
X028Y02988D02*
X02848D01*
X05286Y05057D02*
X053Y05016D01*
X05253Y05092D02*
X05286Y05057D01*
X05005Y05138D02*
X05153Y04992D01*
X04879Y05138D02*
X05005D01*
X03818Y03885D02*
X03992D01*
X0376Y03943D02*
X03818Y03885D01*
X03958Y03903D02*
X04Y03945D01*
X03836Y03903D02*
X03958D01*
X02548Y03142D02*
X02549Y03143D01*
X02505Y03116D02*
X02548Y03142D01*
X02738Y03115D02*
X028D01*
X0273Y03107D02*
X02738Y03115D01*
X02576Y03096D02*
X02581Y03091D01*
X02549Y03141D02*
X02576Y03096D01*
X02761Y02949D02*
X028Y02988D01*
Y03076D02*
X02849D01*
X0285Y03075*
X05362Y03029D02*
X05363Y0303D01*
X05362Y03029D02*
X05362Y03029D01*
X0439Y03267D02*
Y03313D01*
X04823Y03274D02*
X0483D01*
Y03409*
X03293Y04796D02*
X03365Y04724D01*
Y04665D02*
Y04724D01*
X0439Y03101D02*
Y03101D01*
X04671Y03176D02*
X04698D01*
X04631Y03216D02*
X04671Y03176D01*
X03042Y04808D02*
Y04809D01*
X03062Y04776D02*
Y04808D01*
X03987Y05453D02*
X03996Y05444D01*
X0394Y05453D02*
X03987D01*
X03939Y05454D02*
X0394Y05453D01*
X03832D02*
X0394D01*
X03696Y05589D02*
X03832Y05453D01*
X03696Y05589D02*
Y0569D01*
X03953Y05399D02*
X04008D01*
X03898D02*
X03953D01*
X03843D02*
X03898D01*
X0257Y04789D02*
X02589Y04825D01*
X0257Y04789D02*
X02643Y04715D01*
X02643Y05023D02*
X02644Y05023D01*
X02606Y05055D02*
X02647Y0503D01*
X02624Y04973D02*
X02644Y05023D01*
X02624Y04973D02*
X02685Y04906D01*
X03359Y05515D02*
X03418D01*
X0345Y05482*
Y05425D02*
Y05482D01*
X03496Y05423D02*
Y05428D01*
X03502Y05622D02*
X03516D01*
X03526Y05626D02*
X03696Y0569D01*
X04672Y05553D02*
X04687Y05599D01*
X04466Y0544D02*
Y05468D01*
X04512Y05514*
Y05544*
X0448Y05575D02*
X04512Y05544D01*
X04466Y05575D02*
X0448D01*
X04466D02*
X04473Y05572D01*
X04472Y05574D02*
X04473Y05572D01*
X04475Y05571*
X04603Y05565D02*
X04663Y0556D01*
X04504Y05466D02*
X04603Y05565D01*
X04504Y05466D02*
X04504Y0544D01*
X05454Y04858D02*
X05493Y04881D01*
X0529Y0477D02*
X05428D01*
X05359Y03033D02*
X05362Y03029D01*
X05371Y03021*
X05358Y02983D02*
X05371Y02996D01*
Y03021*
X0527Y03269D02*
X05372D01*
X05414Y03177D02*
X05423Y03219D01*
X05372Y03269D02*
X05423Y03219D01*
X05351Y02968D02*
X05394Y02943D01*
X05315Y03129D02*
Y0323D01*
X04599Y02574D02*
Y0264D01*
X04655Y02519D02*
X04721D01*
X04599Y02574D02*
X04655Y02519D01*
X04566Y0241D02*
X0458Y02371D01*
X04581Y0237*
X0458Y02368D02*
X04581Y0237D01*
X0456Y02555D02*
X04611Y02505D01*
X04586Y02417D02*
X04611Y02442D01*
X04573Y02417D02*
X04586D01*
X0456Y02555D02*
Y02595D01*
X03403Y02493D02*
X03438Y02459D01*
X04887Y03261D02*
Y03315D01*
X04889Y02935D02*
X04895D01*
X04889D02*
D01*
X04849D02*
X04889D01*
X04863Y03195D02*
Y03221D01*
X05039Y03206D02*
X05051Y03194D01*
X0481Y03107D02*
Y03116D01*
X04771Y03063D02*
Y03136D01*
X04781Y03146*
X0481Y03116*
X04863*
Y03096D02*
X0488D01*
X04863Y03156D02*
X04921D01*
X04641D02*
X04698D01*
X04581Y03215D02*
X04611D01*
X04751Y03175D02*
Y03228D01*
Y03175D02*
X04781Y03146D01*
X0481Y03228D02*
Y03261D01*
X04823Y03274*
X0483Y03228D02*
Y03273D01*
X04611Y03216D02*
X04631D01*
X0484Y03036D02*
X04871D01*
X0483Y03046D02*
X0484Y03036D01*
X03119Y04846D02*
X0314D01*
X03062Y04906D02*
Y04964D01*
X02941Y04846D02*
X02963D01*
X0314D02*
X03161Y04826D01*
X03061Y04776D02*
X03081Y04756D01*
X03001Y04746D02*
Y04756D01*
X05323Y04669D02*
X05851D01*
X0526Y03394D02*
Y04606D01*
X05323Y03331D02*
X05851D01*
X02149Y04669D02*
X02677D01*
X0274Y03394D02*
Y04606D01*
X02149Y03331D02*
X02677D01*
X03832Y04127D02*
Y04189D01*
X03001Y04756D02*
X03023Y04778D01*
X03022D02*
Y04807D01*
X02974Y03371D02*
Y03405D01*
X0304D02*
X0305Y03395D01*
X03025Y03371D02*
Y03404D01*
X029Y03345D02*
X02913Y03331D01*
X02934*
X02885Y03425D02*
X02895D01*
X03289Y03016D02*
Y03064D01*
X04399Y03213D02*
X04535D01*
X04399Y03213D02*
X04399Y03213D01*
X04771Y03019D02*
Y03063D01*
X04759Y03007D02*
X04771Y03019D01*
X04751Y03228D02*
Y03272D01*
X04741Y03283D02*
X04751Y03272D01*
X04741Y03283D02*
Y03292D01*
X03684Y04518D02*
X03794D01*
X03667Y04535D02*
X03684Y04518D01*
X02643Y04715D02*
X0273D01*
X02685Y04754D02*
Y04836D01*
X02686Y04837*
X02829Y04757D02*
Y04918D01*
X02788Y04716D02*
X02829Y04757D01*
X0273Y04716D02*
X02788D01*
X02685Y04836D02*
Y04906D01*
X0339Y05379D02*
X03446D01*
X03452Y05371D02*
Y05426D01*
X03498Y05669D02*
X03516Y05623D01*
X04008Y05399D02*
Y05441D01*
X04465Y05399D02*
Y0544D01*
X04318D02*
X04465D01*
X0428Y05448D02*
Y05532D01*
X04008Y05399D02*
D01*
X04174*
X04672Y05553D02*
X04723Y05539D01*
Y05451D02*
Y05539D01*
X04581Y05309D02*
X04723Y05451D01*
X04394Y05309D02*
X04581D01*
X04394Y05235D02*
Y05309D01*
X04816Y04967D02*
Y0502D01*
X04771Y05065D02*
X04816Y0502D01*
X04724Y05065D02*
X04771D01*
X04675Y05114D02*
X04724Y05065D01*
X0475Y0497D02*
X04751Y04969D01*
X04681D02*
X04749D01*
X04465Y05348D02*
Y05394D01*
X041Y04249D02*
Y04277D01*
X04085Y04292D02*
X041Y04277D01*
X0391Y0425D02*
Y0429D01*
X04008Y04349D02*
X04143D01*
X04175Y04318*
X03913Y04292D02*
X04085D01*
X04284Y0406D02*
Y04087D01*
X04175Y0414D02*
Y04186D01*
X03794Y04332D02*
X03832Y04294D01*
Y04256D02*
Y04294D01*
X03905Y04055D02*
X03905D01*
X04Y03945D02*
X04096D01*
X04094Y03944D02*
X0415D01*
X03905Y04055D02*
Y04055D01*
X04736Y02526D02*
X04778Y02544D01*
X04851Y02617*
Y02753*
Y02846D02*
Y02883D01*
X04611Y02442D02*
Y02476D01*
Y02505*
Y02476D02*
X04647D01*
X04648Y02477*
X03231Y02434D02*
X03246Y02479D01*
X04942Y03315D02*
X04951Y03306D01*
X04975*
X04884Y0325D02*
X04888Y03246D01*
X04863Y03221D02*
X04888Y03246D01*
X04863Y03136D02*
X0489D01*
X04921Y03106*
X0489Y03176D02*
X0492Y03205D01*
X04863Y03175D02*
X0489D01*
X05175Y03137D02*
X05207D01*
X05227Y03118*
X04084Y03414D02*
X04108D01*
X0407Y034D02*
X04084Y03414D01*
X04108D02*
Y03444D01*
Y03445*
X04107D02*
X04108Y03444D01*
X04847Y02884D02*
X05095D01*
X05227Y03016*
Y03118*
X04895Y02935D02*
X04945D01*
X028Y02988D02*
Y03075D01*
X03144Y03111D02*
Y03153D01*
X03145Y03154*
X03116Y03194D02*
X03145D01*
X03798Y04339D02*
X03998D01*
X04904Y04764D02*
X04909Y0476D01*
X0508Y04845D02*
X05126Y04799D01*
X0508Y04845D02*
Y04939D01*
X05051Y04967D02*
X0508Y04939D01*
X03094Y0296D02*
X03124D01*
X03125*
X03124Y02898D02*
Y0296D01*
Y02998*
X03051Y03371D02*
X03076D01*
X03089Y03359*
Y03331D02*
Y03359D01*
X03741Y0368D02*
X03811D01*
X0384Y03651*
X04165Y0413D02*
X04173Y04122D01*
X04165Y0413D02*
X04175Y0414D01*
X04284Y04087D02*
X04301Y04104D01*
X04319*
X04037Y03446D02*
X04064D01*
X04033Y0345D02*
X04037Y03446D01*
X03145Y03155D02*
X03182D01*
G54D12*
X03145Y03155D03*
Y03194D03*
X03251Y04876D03*
Y04916D03*
X03251Y04796D03*
Y04835D03*
X0529Y0477D03*
Y04809D03*
X05315Y0323D03*
Y03269D03*
X028Y03114D03*
Y03075D03*
X02685Y04754D03*
Y04715D03*
X02915Y0314D03*
Y03179D03*
X03289Y03064D03*
Y03103D03*
X02846Y03307D03*
Y03346D03*
X02883Y03304D03*
Y03343D03*
X04108Y03414D03*
Y03375D03*
X0325Y0495D03*
Y04989D03*
X0469Y02915D03*
Y02954D03*
X03115Y03155D03*
Y03194D03*
G54D13*
X0328Y02835D03*
X03339D03*
X04465Y05395D03*
X04524D03*
X04599Y0264D03*
X0454D03*
X03379Y0266D03*
X0332D03*
X0345Y0538D03*
X03509D03*
X03339Y0272D03*
X0328D03*
X03339Y0278D03*
X0328D03*
X03339Y0289D03*
X0328D03*
X03339Y02945D03*
X0328D03*
X04849Y02935D03*
X0479D03*
Y02885D03*
X04849D03*
X05004Y02935D03*
X04945D03*
X047Y02995D03*
X04759D03*
X0474Y03305D03*
X04799D03*
X04584Y036D03*
X04525D03*
X03525Y035D03*
X03584D03*
X03539Y03565D03*
X0348D03*
X03585D03*
X03644D03*
X05054Y04605D03*
X04995D03*
X0398Y03255D03*
X04039D03*
G54D14*
X03795Y05195D03*
X03845Y05035D03*
Y05195D03*
X03895D03*
Y05035D03*
X03945D03*
Y05195D03*
X03995D03*
Y05035D03*
X04045Y05195D03*
Y05035D03*
X04095D03*
Y05195D03*
X04145D03*
Y05035D03*
X04195D03*
Y05195D03*
X04395D03*
X04345D03*
X04295D03*
X04245D03*
Y05035D03*
X04295D03*
X04345D03*
X04395D03*
X03795D03*
G54D15*
X02974Y03214D03*
X03D03*
X03025D03*
X03051D03*
Y03371D03*
X03025D03*
X03D03*
X02974D03*
G54D16*
X03091Y03254D03*
Y0328D03*
Y03305D03*
Y03331D03*
X02934D03*
Y03305D03*
Y0328D03*
Y03254D03*
G54D17*
X05494Y04883D03*
X05451Y04858D03*
X05394Y05056D03*
X05351Y05031D03*
X05307Y05006D03*
X05407Y04833D03*
X02505Y03116D03*
X02549Y03141D03*
X02605Y02943D03*
X02649Y02968D03*
X02692Y02993D03*
X02592Y03166D03*
G54D18*
X04689Y056D03*
X04672Y05553D03*
X04501Y05669D03*
X04484Y05622D03*
X04466Y05575D03*
X04654Y05506D03*
X03228Y02432D03*
X03246Y02479D03*
X03416Y02363D03*
X03434Y0241D03*
X03451Y02457D03*
X03263Y02526D03*
G54D19*
X04583Y02363D03*
X04566Y0241D03*
X04771Y02432D03*
X04754Y02479D03*
X04736Y02526D03*
X04548Y02457D03*
X03498Y05669D03*
X03516Y05622D03*
X0331Y056D03*
X03328Y05553D03*
X03345Y05506D03*
X03533Y05575D03*
G54D20*
X05394Y02943D03*
X05351Y02968D03*
X05494Y03116D03*
X05451Y03141D03*
X05407Y03166D03*
X05307Y02993D03*
X02605Y05056D03*
X02649Y05031D03*
X02505Y04883D03*
X02549Y04858D03*
X02592Y04833D03*
X02692Y05006D03*
G54D21*
X04781Y03146D03*
G54D22*
X04698Y03096D03*
Y03116D03*
Y03136D03*
Y03155D03*
Y03175D03*
Y03195D03*
X04863D03*
Y03175D03*
Y03155D03*
Y03136D03*
Y03116D03*
Y03096D03*
G54D23*
X04731Y03228D03*
X04751D03*
X04771D03*
X0479D03*
X0481D03*
X0483D03*
Y03063D03*
X0481D03*
X0479D03*
X04771D03*
X04751D03*
X04731D03*
G54D24*
X04504Y0544D03*
X04465D03*
X0456Y02595D03*
X04599D03*
X03315Y02615D03*
X03354D03*
X03489Y05425D03*
X0345D03*
X03054Y02895D03*
X03015D03*
X048Y0299D03*
X04839D03*
G54D25*
X05245Y04809D03*
Y0475D03*
X0527Y03269D03*
Y0321D03*
X02845Y03075D03*
Y03134D03*
X0273Y04715D03*
Y04774D03*
X02843Y03389D03*
Y03448D03*
X04255Y04215D03*
Y04274D03*
X0375Y04205D03*
Y04264D03*
X0396Y04249D03*
Y0419D03*
X0391Y04249D03*
Y0419D03*
X04816Y04908D03*
Y04967D03*
X04621Y04908D03*
Y04967D03*
X03939Y05454D03*
Y05513D03*
X04225Y05509D03*
Y0545D03*
X04165D03*
Y05509D03*
X041Y0419D03*
Y04249D03*
X0405D03*
Y0419D03*
X02955Y04685D03*
Y04744D03*
X03125Y04685D03*
Y04744D03*
X03843Y05399D03*
Y0534D03*
X03898Y05399D03*
Y0534D03*
X03953Y05399D03*
Y0534D03*
X04008Y05399D03*
Y0534D03*
X0424D03*
Y05399D03*
X04295Y0534D03*
Y05399D03*
X038Y03774D03*
Y03715D03*
X03745D03*
Y03774D03*
G54D26*
X03346Y0316D03*
X03283D03*
G54D27*
X042Y04253D03*
X04175D03*
X04149D03*
X042Y04186D03*
X04175D03*
X04149D03*
X03857Y04256D03*
X03832D03*
X03806D03*
X03857Y04189D03*
X03832D03*
X03806D03*
G54D28*
X03042Y04886D03*
G54D29*
X03119Y04925D03*
Y04905D03*
Y04886D03*
Y04866D03*
Y04846D03*
X02964D03*
Y04866D03*
Y04886D03*
Y04905D03*
Y04925D03*
X03048Y03074D03*
Y03055D03*
Y03035D03*
X03161D03*
Y03055D03*
Y03074D03*
G54D30*
X03081Y04808D03*
X03061D03*
X03042D03*
X03022D03*
X03002D03*
Y04963D03*
X03022D03*
X03042D03*
X03061D03*
X03081D03*
X03144Y03111D03*
X03124D03*
X03105D03*
X03085D03*
X03065D03*
Y02998D03*
X03085D03*
X03105D03*
X03124D03*
X03144D03*
G54D31*
X03135Y04507D03*
Y04562D03*
X05175Y03137D03*
Y03082D03*
X0465Y02917D03*
Y02972D03*
X0439Y03156D03*
Y03101D03*
Y03212D03*
Y03267D03*
G54D32*
X03966Y03515D03*
G54D33*
X04034Y03416D03*
X04015D03*
X03995D03*
X03975D03*
X03956D03*
X03936D03*
X03916D03*
X03897D03*
Y03613D03*
X03916D03*
X03936D03*
X03956D03*
X03975D03*
X03995D03*
X04015D03*
X04034D03*
G54D34*
X03867Y03446D03*
Y03465D03*
Y03485D03*
Y03505D03*
Y03524D03*
Y03544D03*
Y03564D03*
Y03583D03*
X04064D03*
Y03564D03*
Y03544D03*
Y03524D03*
Y03505D03*
Y03485D03*
Y03465D03*
Y03446D03*
G54D35*
X04751Y04906D03*
Y04969D03*
X04681Y04906D03*
Y04969D03*
G54D36*
X05046Y03189D03*
Y03072D03*
X04535Y03213D03*
Y03096D03*
G54D37*
X0492Y05028D03*
Y04921D03*
G54D38*
X04013Y05521D03*
Y05446D03*
X04084Y05484D03*
G54D39*
X04887Y03305D03*
X04942D03*
G54D40*
X05175Y04855D03*
Y04695D03*
X04995Y04855D03*
Y04695D03*
G54D41*
X04077Y03948D03*
X04272D03*
X04077Y04004D03*
X04272D03*
Y04059D03*
X04077D03*
X03927Y04051D03*
X03732D03*
X03927Y03996D03*
X03732D03*
Y0394D03*
X03927D03*
G54D42*
X04357Y04184D02*
Y04324D01*
X04355Y04182D02*
X04357Y04184D01*
X04355Y0418D02*
Y04182D01*
X04328Y04153D02*
X04355Y0418D01*
X04273Y04408D02*
X04357Y04324D01*
X03854Y04518D02*
X04602D01*
X04275Y04153D02*
X04328D01*
X03122Y04408D02*
X04273D01*
X04251Y04375D02*
X04266Y0436D01*
X03108Y04375D02*
X04251D01*
X03657Y04479D02*
X04517Y04479D01*
X03424Y0448D02*
X03657Y04479D01*
X03127Y04634D02*
X03161Y04601D01*
X04584Y03518D02*
Y03595D01*
X03136Y04441D02*
X03365D01*
X05174Y03138D02*
Y03217D01*
X03794Y05053D02*
Y05154D01*
X04602Y04518D02*
X04672Y04448D01*
X04676Y04377D02*
Y04442D01*
X04347Y05183D02*
Y05288D01*
X04355Y03156D02*
X04641D01*
X04395Y04942D02*
Y05035D01*
X04341Y03364D02*
X04476Y03499D01*
X04341Y0317D02*
Y03364D01*
X04476Y03499D02*
Y03503D01*
X04919Y03058D02*
X05031D01*
X04341Y0317D02*
X04354Y03157D01*
X05174Y03138D02*
X05175Y03137D01*
Y03047D02*
D01*
Y03082D01*
X04948Y03136D02*
X05175D01*
X03135Y04442D02*
Y04507D01*
X03041Y04536D02*
X03135Y04442D01*
Y04562D02*
Y04625D01*
X03303Y04601D02*
X03424Y0448D01*
X02955Y04634D02*
Y04685D01*
X03161Y04601D02*
X03303D01*
X03125Y04637D02*
Y04685D01*
X03Y0453D02*
X03122Y04408D01*
X02967Y04516D02*
X03108Y04375D01*
X03041Y04536D02*
Y04746D01*
X03081Y04556D02*
Y04746D01*
X04771Y05109D02*
X04854D01*
X04935Y05028*
X0492Y03205D02*
X04994D01*
X04521Y03214D02*
Y03276D01*
X04928Y03156D02*
X04948Y03136D01*
X04921Y03156D02*
X04928D01*
X03Y04745D02*
X03001Y04746D01*
X0291Y04815D02*
X02918Y04823D01*
X03161Y04825D02*
Y04826D01*
Y04825D02*
X0319Y04796D01*
Y0471D02*
Y04796D01*
X03Y0453D02*
Y04745D01*
X0291Y04575D02*
Y04815D01*
Y04575D02*
X02967Y04518D01*
X04597Y05193D02*
X04675Y05115D01*
X04397Y05193D02*
X04597D01*
X04395Y05035D02*
Y05195D01*
X03366Y04441D02*
X04582Y04442D01*
X04677Y03575D02*
Y03611D01*
X04987Y03414D02*
X05174Y03227D01*
X04684Y03414D02*
X04987D01*
X04518Y03441D02*
Y03543D01*
X0439Y03313D02*
X04518Y03441D01*
X0466Y03438D02*
X04684Y03414D01*
X0466Y03438D02*
Y03558D01*
X04677Y03575*
X04476Y03503D02*
X04477Y03504D01*
Y03559*
X03794Y04518D02*
X03854D01*
G54D43*
X04913Y04658D02*
Y04906D01*
X04585Y03329D02*
X04696Y03218D01*
X04583Y03518D02*
X04585Y03329D01*
X04583Y03519D02*
Y03518D01*
G54D44*
X02691Y02787D03*
X02762Y02857D03*
Y02716D03*
X02832Y02787D03*
Y02645D03*
X02903Y02716D03*
Y02575D03*
X02974Y02645D03*
Y02504D03*
G54D45*
X03045Y02575D03*
G54D46*
X03664Y05115D03*
X04526D03*
X04755D03*
X04675D03*
X03455Y0349D03*
G54D47*
X0427Y04149D03*
Y0385D03*
X03734D03*
Y04149D03*
G54D48*
X04517Y04479D03*
Y03545D03*
X04677Y03611D03*
X04476Y03567D03*
X03796Y04339D03*
X04305Y04228D03*
X03432Y031D03*
X03401Y03157D03*
X0321Y0266D03*
X03274Y02651D03*
X03558Y03413D03*
X03597Y0329D03*
X03676Y03373D03*
X03357Y03226D03*
X03853Y03821D03*
X03437Y0356D03*
X03736Y03377D03*
X03856Y03411D03*
X03798Y03363D03*
X03305Y03385D03*
X03682Y03419D03*
X04292Y03274D03*
X05107Y04605D03*
X03191Y03211D03*
X02914Y03223D03*
X03305Y02397D03*
X03382Y02748D03*
X03579Y03248D03*
X0435Y05401D03*
X04195Y05285D03*
X04164Y05401D03*
X04085Y03621D03*
X04295Y03758D03*
X04212Y04572D03*
X04262Y0456D03*
X04523Y04671D03*
X04479Y04935D03*
X04344Y05289D03*
X04393Y04941D03*
X03805Y03998D03*
X04156Y03394D03*
X04223Y03392D03*
X04349Y03532D03*
X04235Y0367D03*
X0396Y03725D03*
X04033D03*
X03853Y0377D03*
X03906Y0333D03*
X0372Y03452D03*
X03811Y03432D03*
X03747Y03324D03*
X03812Y03606D03*
X04528Y04892D03*
X04296Y04649D03*
X04051Y03872D03*
X04024Y04678D03*
X04289Y04712D03*
X04051Y04731D03*
X04229D03*
X04145Y05286D03*
X04095Y05287D03*
X04195Y04945D03*
X04145D03*
X04095Y04946D03*
X02973Y031D03*
X04859Y04566D03*
X04045Y04792D03*
X04121Y03705D03*
X04124Y04129D03*
X0417Y04117D03*
X03351Y02548D03*
X03495Y03008D03*
X03575Y0315D03*
X04222Y04D03*
X03829Y04111D03*
X04675Y05017D03*
X04227Y04672D03*
X04226Y04629D03*
X04118Y04563D03*
X02751Y03D03*
X05343Y04811D03*
X02848Y02988D03*
X05253Y05092D03*
X05153Y04992D03*
X04879Y05138D03*
X0303Y02767D03*
X03558Y03075D03*
X0494Y04496D03*
X03557Y04738D03*
X04244Y03775D03*
X04304Y03659D03*
X04131Y03603D03*
X04289Y03519D03*
X04268Y03618D03*
X03899Y03823D03*
X03985Y03799D03*
X03495Y03056D03*
X0273Y03107D03*
X02581Y03091D03*
X03594Y05143D03*
X02515Y04802D03*
X03156Y05143D03*
X03628Y04682D03*
X03571Y04651D03*
X05379Y0312D03*
X05174Y03186D03*
X05315Y03129D03*
X04567Y04967D03*
X04632Y0457D03*
X05175Y03047D03*
X04349Y03101D03*
X03365Y04665D03*
Y04446D03*
X05474Y03183D03*
X03884Y04563D03*
X04045Y05289D03*
X03053Y05127D03*
X03058Y05301D03*
X03205Y05298D03*
X03693Y05033D03*
X03678Y05211D03*
X03715Y05246D03*
X03741Y05298D03*
X03692Y04733D03*
X03995Y04948D03*
X03945D03*
X03895Y04947D03*
X03846Y04825D03*
X03794Y04518D03*
X03127Y04634D03*
X02956Y04633D03*
X03081Y04556D03*
X04582Y04442D03*
X03461Y04584D03*
X03995Y05273D03*
X0395Y05299D03*
X03895Y05276D03*
X03795Y05116D03*
X04245Y05289D03*
X04295Y05288D03*
X04096Y03814D03*
X04709Y02413D03*
X04643Y02393D03*
X03922Y03781D03*
X05359Y03033D03*
X0439Y03313D03*
X04895Y02935D03*
X04486Y02578D03*
X05428Y04942D03*
X04563Y05573D03*
Y05433D03*
X03432Y05561D03*
X03564Y05429D03*
X02583Y0493D03*
X02731Y04906D03*
X0469Y02859D03*
X04871Y03036D03*
X04921Y03106D03*
X04521Y03276D03*
X05003Y03328D03*
X03357Y02462D03*
X0319Y0471D03*
X03182Y04977D03*
X03191Y04906D03*
X04804Y03169D03*
Y03122D03*
X04757Y03169D03*
Y03122D03*
X03018Y04862D03*
Y04909D03*
X03065Y04862D03*
Y04909D03*
X03785Y04119D03*
X03905Y04105D03*
X03144Y02881D03*
X03055Y02853D03*
X02895Y03425D03*
X03Y03434D03*
X03289Y03016D03*
X0394Y05549D03*
X03696Y0569D03*
X04225Y05623D03*
X0428Y05532D03*
X04095Y0543D03*
X03245Y05479D03*
X04676Y04377D03*
X03657Y04481D03*
X03667Y04535D03*
X03145Y05211D03*
X02972Y0521D03*
X02949Y05131D03*
X04395Y05659D03*
X02686Y04837D03*
X02829Y04918D03*
X0339Y05379D03*
X04465Y05348D03*
X05323Y05078D03*
X05245Y04709D03*
X04176Y04317D03*
X04321Y04105D03*
X04129Y04318D03*
X04003Y04336D03*
X04005Y04249D03*
X03904Y04294D03*
X03859Y04311D03*
X04003Y03904D03*
X04851Y02753D03*
Y02846D03*
X04648Y02477D03*
X04606Y02973D03*
X04888Y03262D03*
X0407Y034D03*
X03638Y03618D03*
X02681Y03129D03*
X03217Y03331D03*
X05099Y02933D03*
X05166Y02864D03*
X02929Y0302D03*
X03385Y03084D03*
X03215Y02932D03*
X0499Y03478D03*
X04218Y03586D03*
X0463Y04705D03*
X03701Y04219D03*
X03854Y04518D03*
X03736Y04324D03*
X03411Y046D03*
X04232Y04111D03*
X0421Y03848D03*
X04133Y03771D03*
X0354Y03664D03*
X04454Y04851D03*
X04263Y03365D03*
X03403Y0332D03*
X04773Y03637D03*
X04836Y03647D03*
X03445Y03231D03*
X04632Y03585D03*
X04583Y03522D03*
X04293Y03418D03*
X04679Y04707D03*
X04727Y04709D03*
X04555Y04817D03*
X04531Y04731D03*
X05165Y04795D03*
X03654Y0325D03*
X04226Y03288D03*
X04149Y03327D03*
X04036Y03326D03*
X03839Y03647D03*
X03758Y03487D03*
X03697Y03682D03*
X03771Y03646D03*
X03783Y03568D03*
X03697Y03616D03*
X04273Y04354D03*
X04221Y04318D03*
X03385Y02835D03*
X04223Y0324D03*
X0348Y03426D03*
G54D49*
X04911Y04658D03*
G54D50*
X0445Y0274D03*
X0355D03*
G54D51*
X04Y0274D03*
G54D52*
X03918Y03562D03*
X03966D03*
X04013D03*
X03918Y03515D03*
X03966D03*
X04013D03*
X03918Y03467D03*
X03966D03*
X04013D03*
G54D53*
X03255Y04508D03*
X04745D03*
X02907Y04354D03*
X05093D03*
X02907Y03646D03*
X03255Y03492D03*
X04745D03*
X05093Y03646D03*
G54D54*
X05082Y03644D03*
Y04352D03*
X02922Y04355D03*
Y03647D03*
M02*