%FSLAX25Y25*%
%MOIN*%
G70*
G01*
G75*
G04 Layer_Color=16711935*
%ADD10C,0.01500*%
%ADD11C,0.04000*%
%ADD12R,0.03150X0.05906*%
G04:AMPARAMS|DCode=13|XSize=35.43mil|YSize=27.56mil|CornerRadius=0mil|HoleSize=0mil|Usage=FLASHONLY|Rotation=169.100|XOffset=0mil|YOffset=0mil|HoleType=Round|Shape=Rectangle|*
%AMROTATEDRECTD13*
4,1,4,0.02000,0.01018,0.01479,-0.01688,-0.02000,-0.01018,-0.01479,0.01688,0.02000,0.01018,0.0*
%
%ADD13ROTATEDRECTD13*%

%ADD14R,0.02756X0.03543*%
G04:AMPARAMS|DCode=15|XSize=35.43mil|YSize=27.56mil|CornerRadius=0mil|HoleSize=0mil|Usage=FLASHONLY|Rotation=162.000|XOffset=0mil|YOffset=0mil|HoleType=Round|Shape=Rectangle|*
%AMROTATEDRECTD15*
4,1,4,0.02111,0.00763,0.01259,-0.01858,-0.02111,-0.00763,-0.01259,0.01858,0.02111,0.00763,0.0*
%
%ADD15ROTATEDRECTD15*%

G04:AMPARAMS|DCode=16|XSize=35.43mil|YSize=27.56mil|CornerRadius=0mil|HoleSize=0mil|Usage=FLASHONLY|Rotation=234.000|XOffset=0mil|YOffset=0mil|HoleType=Round|Shape=Rectangle|*
%AMROTATEDRECTD16*
4,1,4,-0.00073,0.02243,0.02156,0.00623,0.00073,-0.02243,-0.02156,-0.00623,-0.00073,0.02243,0.0*
%
%ADD16ROTATEDRECTD16*%

G04:AMPARAMS|DCode=17|XSize=35.43mil|YSize=27.56mil|CornerRadius=0mil|HoleSize=0mil|Usage=FLASHONLY|Rotation=306.000|XOffset=0mil|YOffset=0mil|HoleType=Round|Shape=Rectangle|*
%AMROTATEDRECTD17*
4,1,4,-0.02156,0.00623,0.00073,0.02243,0.02156,-0.00623,-0.00073,-0.02243,-0.02156,0.00623,0.0*
%
%ADD17ROTATEDRECTD17*%

G04:AMPARAMS|DCode=18|XSize=35.43mil|YSize=27.56mil|CornerRadius=0mil|HoleSize=0mil|Usage=FLASHONLY|Rotation=18.000|XOffset=0mil|YOffset=0mil|HoleType=Round|Shape=Rectangle|*
%AMROTATEDRECTD18*
4,1,4,-0.01259,-0.01858,-0.02111,0.00763,0.01259,0.01858,0.02111,-0.00763,-0.01259,-0.01858,0.0*
%
%ADD18ROTATEDRECTD18*%

%ADD19R,0.03543X0.02756*%
%ADD20R,0.08000X0.05000*%
G04:AMPARAMS|DCode=21|XSize=35.43mil|YSize=27.56mil|CornerRadius=0mil|HoleSize=0mil|Usage=FLASHONLY|Rotation=225.000|XOffset=0mil|YOffset=0mil|HoleType=Round|Shape=Rectangle|*
%AMROTATEDRECTD21*
4,1,4,0.00278,0.02227,0.02227,0.00278,-0.00278,-0.02227,-0.02227,-0.00278,0.00278,0.02227,0.0*
%
%ADD21ROTATEDRECTD21*%

G04:AMPARAMS|DCode=22|XSize=19.69mil|YSize=23.62mil|CornerRadius=0mil|HoleSize=0mil|Usage=FLASHONLY|Rotation=337.500|XOffset=0mil|YOffset=0mil|HoleType=Round|Shape=Rectangle|*
%AMROTATEDRECTD22*
4,1,4,-0.01361,-0.00715,-0.00457,0.01468,0.01361,0.00715,0.00457,-0.01468,-0.01361,-0.00715,0.0*
%
%ADD22ROTATEDRECTD22*%

G04:AMPARAMS|DCode=23|XSize=19.69mil|YSize=23.62mil|CornerRadius=0mil|HoleSize=0mil|Usage=FLASHONLY|Rotation=292.500|XOffset=0mil|YOffset=0mil|HoleType=Round|Shape=Rectangle|*
%AMROTATEDRECTD23*
4,1,4,-0.01468,0.00457,0.00715,0.01361,0.01468,-0.00457,-0.00715,-0.01361,-0.01468,0.00457,0.0*
%
%ADD23ROTATEDRECTD23*%

G04:AMPARAMS|DCode=24|XSize=19.69mil|YSize=23.62mil|CornerRadius=0mil|HoleSize=0mil|Usage=FLASHONLY|Rotation=247.500|XOffset=0mil|YOffset=0mil|HoleType=Round|Shape=Rectangle|*
%AMROTATEDRECTD24*
4,1,4,-0.00715,0.01361,0.01468,0.00457,0.00715,-0.01361,-0.01468,-0.00457,-0.00715,0.01361,0.0*
%
%ADD24ROTATEDRECTD24*%

G04:AMPARAMS|DCode=25|XSize=19.69mil|YSize=23.62mil|CornerRadius=0mil|HoleSize=0mil|Usage=FLASHONLY|Rotation=202.500|XOffset=0mil|YOffset=0mil|HoleType=Round|Shape=Rectangle|*
%AMROTATEDRECTD25*
4,1,4,0.00457,0.01468,0.01361,-0.00715,-0.00457,-0.01468,-0.01361,0.00715,0.00457,0.01468,0.0*
%
%ADD25ROTATEDRECTD25*%

%ADD26R,0.02362X0.01969*%
%ADD27R,0.01969X0.02362*%
G04:AMPARAMS|DCode=28|XSize=80mil|YSize=50mil|CornerRadius=0mil|HoleSize=0mil|Usage=FLASHONLY|Rotation=104.000|XOffset=0mil|YOffset=0mil|HoleType=Round|Shape=Rectangle|*
%AMROTATEDRECTD28*
4,1,4,0.03393,-0.03276,-0.01458,-0.04486,-0.03393,0.03276,0.01458,0.04486,0.03393,-0.03276,0.0*
%
%ADD28ROTATEDRECTD28*%

%ADD29R,0.09449X0.09449*%
%ADD30R,0.06850X0.05512*%
%ADD31P,0.13919X4X345.0*%
%ADD32P,0.13919X4X285.0*%
G04:AMPARAMS|DCode=33|XSize=17.32mil|YSize=98.43mil|CornerRadius=0mil|HoleSize=0mil|Usage=FLASHONLY|Rotation=245.000|XOffset=0mil|YOffset=0mil|HoleType=Round|Shape=Rectangle|*
%AMROTATEDRECTD33*
4,1,4,-0.04094,0.02865,0.04826,-0.01295,0.04094,-0.02865,-0.04826,0.01295,-0.04094,0.02865,0.0*
%
%ADD33ROTATEDRECTD33*%

%ADD34R,0.04134X0.05906*%
%ADD35R,0.02362X0.04134*%
G04:AMPARAMS|DCode=36|XSize=64.96mil|YSize=21.65mil|CornerRadius=0mil|HoleSize=0mil|Usage=FLASHONLY|Rotation=259.100|XOffset=0mil|YOffset=0mil|HoleType=Round|Shape=Rectangle|*
%AMROTATEDRECTD36*
4,1,4,-0.00449,0.03394,0.01677,0.02985,0.00449,-0.03394,-0.01677,-0.02985,-0.00449,0.03394,0.0*
%
%ADD36ROTATEDRECTD36*%

%ADD37C,0.00800*%
%ADD38C,0.02500*%
%ADD39C,0.02000*%
%ADD40C,0.01200*%
%ADD41C,0.01000*%
G04:AMPARAMS|DCode=42|XSize=10mil|YSize=50mil|CornerRadius=0mil|HoleSize=0mil|Usage=FLASHONLY|Rotation=216.000|XOffset=0mil|YOffset=0mil|HoleType=Round|Shape=Rectangle|*
%AMROTATEDRECTD42*
4,1,4,-0.01065,0.02316,0.01874,-0.01729,0.01065,-0.02316,-0.01874,0.01729,-0.01065,0.02316,0.0*
%
%ADD42ROTATEDRECTD42*%

G04:AMPARAMS|DCode=43|XSize=10mil|YSize=50mil|CornerRadius=0mil|HoleSize=0mil|Usage=FLASHONLY|Rotation=144.000|XOffset=0mil|YOffset=0mil|HoleType=Round|Shape=Rectangle|*
%AMROTATEDRECTD43*
4,1,4,0.01874,0.01729,-0.01065,-0.02316,-0.01874,-0.01729,0.01065,0.02316,0.01874,0.01729,0.0*
%
%ADD43ROTATEDRECTD43*%

G04:AMPARAMS|DCode=44|XSize=10mil|YSize=50mil|CornerRadius=0mil|HoleSize=0mil|Usage=FLASHONLY|Rotation=288.000|XOffset=0mil|YOffset=0mil|HoleType=Round|Shape=Rectangle|*
%AMROTATEDRECTD44*
4,1,4,-0.02532,-0.00297,0.02223,0.01248,0.02532,0.00297,-0.02223,-0.01248,-0.02532,-0.00297,0.0*
%
%ADD44ROTATEDRECTD44*%

G04:AMPARAMS|DCode=45|XSize=10mil|YSize=50mil|CornerRadius=0mil|HoleSize=0mil|Usage=FLASHONLY|Rotation=72.000|XOffset=0mil|YOffset=0mil|HoleType=Round|Shape=Rectangle|*
%AMROTATEDRECTD45*
4,1,4,0.02223,-0.01248,-0.02532,0.00297,-0.02223,0.01248,0.02532,-0.00297,0.02223,-0.01248,0.0*
%
%ADD45ROTATEDRECTD45*%

%ADD46R,0.01000X0.05000*%
%ADD47C,0.03000*%
%ADD48C,0.15800*%
%ADD49C,0.14900*%
%ADD50C,0.06000*%
%ADD51C,0.26000*%
%ADD52C,0.08661*%
%ADD53C,0.05000*%
%ADD54R,0.05906X0.05906*%
%ADD55C,0.05906*%
G04:AMPARAMS|DCode=56|XSize=86.61mil|YSize=70.87mil|CornerRadius=0mil|HoleSize=0mil|Usage=FLASHONLY|Rotation=79.100|XOffset=0mil|YOffset=0mil|HoleType=Round|Shape=Round|*
%AMOVALD56*
21,1,0.01575,0.07087,0.00000,0.00000,79.1*
1,1,0.07087,-0.00149,-0.00773*
1,1,0.07087,0.00149,0.00773*
%
%ADD56OVALD56*%

%ADD57C,0.03500*%
%ADD58C,0.02700*%
%ADD59C,0.02598*%
%ADD60R,0.06693X0.01378*%
%ADD61R,0.05906X0.02362*%
%ADD62R,0.05512X0.04724*%
%ADD63R,0.03543X0.03150*%
%ADD64R,0.07087X0.04724*%
%ADD65R,0.03150X0.03543*%
%ADD66R,0.08661X0.07480*%
%ADD67O,0.01496X0.06299*%
%ADD68R,0.03937X0.04429*%
%ADD69R,0.06299X0.05118*%
%ADD70R,0.02913X0.11004*%
%ADD71R,0.04724X0.05512*%
%ADD72R,0.01142X0.06890*%
%ADD73R,0.06890X0.01142*%
%ADD74R,0.06496X0.01142*%
%ADD75R,0.01142X0.06496*%
%ADD76O,0.03347X0.00984*%
%ADD77O,0.00984X0.03347*%
%ADD78R,0.14173X0.14173*%
%ADD79O,0.00984X0.03150*%
%ADD80O,0.03150X0.00984*%
%ADD81R,0.02362X0.05906*%
%ADD82R,0.01732X0.05394*%
%ADD83C,0.02913*%
%ADD84C,0.02914*%
%ADD85R,0.07500X0.06000*%
%ADD86C,0.00500*%
%ADD87C,0.00787*%
%ADD88C,0.00984*%
%ADD89C,0.01300*%
%ADD90R,0.03950X0.06706*%
%ADD91C,0.04800*%
G04:AMPARAMS|DCode=92|XSize=43.43mil|YSize=35.56mil|CornerRadius=0mil|HoleSize=0mil|Usage=FLASHONLY|Rotation=169.100|XOffset=0mil|YOffset=0mil|HoleType=Round|Shape=Rectangle|*
%AMROTATEDRECTD92*
4,1,4,0.02469,0.01335,0.01796,-0.02157,-0.02469,-0.01335,-0.01796,0.02157,0.02469,0.01335,0.0*
%
%ADD92ROTATEDRECTD92*%

%ADD93R,0.03556X0.04343*%
G04:AMPARAMS|DCode=94|XSize=43.43mil|YSize=35.56mil|CornerRadius=0mil|HoleSize=0mil|Usage=FLASHONLY|Rotation=162.000|XOffset=0mil|YOffset=0mil|HoleType=Round|Shape=Rectangle|*
%AMROTATEDRECTD94*
4,1,4,0.02615,0.01020,0.01516,-0.02362,-0.02615,-0.01020,-0.01516,0.02362,0.02615,0.01020,0.0*
%
%ADD94ROTATEDRECTD94*%

G04:AMPARAMS|DCode=95|XSize=43.43mil|YSize=35.56mil|CornerRadius=0mil|HoleSize=0mil|Usage=FLASHONLY|Rotation=234.000|XOffset=0mil|YOffset=0mil|HoleType=Round|Shape=Rectangle|*
%AMROTATEDRECTD95*
4,1,4,-0.00162,0.02802,0.02715,0.00712,0.00162,-0.02802,-0.02715,-0.00712,-0.00162,0.02802,0.0*
%
%ADD95ROTATEDRECTD95*%

G04:AMPARAMS|DCode=96|XSize=43.43mil|YSize=35.56mil|CornerRadius=0mil|HoleSize=0mil|Usage=FLASHONLY|Rotation=306.000|XOffset=0mil|YOffset=0mil|HoleType=Round|Shape=Rectangle|*
%AMROTATEDRECTD96*
4,1,4,-0.02715,0.00712,0.00162,0.02802,0.02715,-0.00712,-0.00162,-0.02802,-0.02715,0.00712,0.0*
%
%ADD96ROTATEDRECTD96*%

G04:AMPARAMS|DCode=97|XSize=43.43mil|YSize=35.56mil|CornerRadius=0mil|HoleSize=0mil|Usage=FLASHONLY|Rotation=18.000|XOffset=0mil|YOffset=0mil|HoleType=Round|Shape=Rectangle|*
%AMROTATEDRECTD97*
4,1,4,-0.01516,-0.02362,-0.02615,0.01020,0.01516,0.02362,0.02615,-0.01020,-0.01516,-0.02362,0.0*
%
%ADD97ROTATEDRECTD97*%

%ADD98R,0.04343X0.03556*%
%ADD99R,0.08800X0.05800*%
G04:AMPARAMS|DCode=100|XSize=43.43mil|YSize=35.56mil|CornerRadius=0mil|HoleSize=0mil|Usage=FLASHONLY|Rotation=225.000|XOffset=0mil|YOffset=0mil|HoleType=Round|Shape=Rectangle|*
%AMROTATEDRECTD100*
4,1,4,0.00278,0.02793,0.02793,0.00278,-0.00278,-0.02793,-0.02793,-0.00278,0.00278,0.02793,0.0*
%
%ADD100ROTATEDRECTD100*%

G04:AMPARAMS|DCode=101|XSize=27.69mil|YSize=31.62mil|CornerRadius=0mil|HoleSize=0mil|Usage=FLASHONLY|Rotation=337.500|XOffset=0mil|YOffset=0mil|HoleType=Round|Shape=Rectangle|*
%AMROTATEDRECTD101*
4,1,4,-0.01884,-0.00931,-0.00674,0.01991,0.01884,0.00931,0.00674,-0.01991,-0.01884,-0.00931,0.0*
%
%ADD101ROTATEDRECTD101*%

G04:AMPARAMS|DCode=102|XSize=27.69mil|YSize=31.62mil|CornerRadius=0mil|HoleSize=0mil|Usage=FLASHONLY|Rotation=292.500|XOffset=0mil|YOffset=0mil|HoleType=Round|Shape=Rectangle|*
%AMROTATEDRECTD102*
4,1,4,-0.01991,0.00674,0.00931,0.01884,0.01991,-0.00674,-0.00931,-0.01884,-0.01991,0.00674,0.0*
%
%ADD102ROTATEDRECTD102*%

G04:AMPARAMS|DCode=103|XSize=27.69mil|YSize=31.62mil|CornerRadius=0mil|HoleSize=0mil|Usage=FLASHONLY|Rotation=247.500|XOffset=0mil|YOffset=0mil|HoleType=Round|Shape=Rectangle|*
%AMROTATEDRECTD103*
4,1,4,-0.00931,0.01884,0.01991,0.00674,0.00931,-0.01884,-0.01991,-0.00674,-0.00931,0.01884,0.0*
%
%ADD103ROTATEDRECTD103*%

G04:AMPARAMS|DCode=104|XSize=27.69mil|YSize=31.62mil|CornerRadius=0mil|HoleSize=0mil|Usage=FLASHONLY|Rotation=202.500|XOffset=0mil|YOffset=0mil|HoleType=Round|Shape=Rectangle|*
%AMROTATEDRECTD104*
4,1,4,0.00674,0.01991,0.01884,-0.00931,-0.00674,-0.01991,-0.01884,0.00931,0.00674,0.01991,0.0*
%
%ADD104ROTATEDRECTD104*%

%ADD105R,0.03162X0.02769*%
%ADD106R,0.02769X0.03162*%
G04:AMPARAMS|DCode=107|XSize=88mil|YSize=58mil|CornerRadius=0mil|HoleSize=0mil|Usage=FLASHONLY|Rotation=104.000|XOffset=0mil|YOffset=0mil|HoleType=Round|Shape=Rectangle|*
%AMROTATEDRECTD107*
4,1,4,0.03878,-0.03568,-0.01749,-0.04971,-0.03878,0.03568,0.01749,0.04971,0.03878,-0.03568,0.0*
%
%ADD107ROTATEDRECTD107*%

%ADD108R,0.10249X0.10249*%
%ADD109R,0.07650X0.06312*%
%ADD110P,0.15051X4X345.0*%
%ADD111P,0.15051X4X285.0*%
G04:AMPARAMS|DCode=112|XSize=25.32mil|YSize=106.42mil|CornerRadius=0mil|HoleSize=0mil|Usage=FLASHONLY|Rotation=245.000|XOffset=0mil|YOffset=0mil|HoleType=Round|Shape=Rectangle|*
%AMROTATEDRECTD112*
4,1,4,-0.04288,0.03396,0.05358,-0.01101,0.04288,-0.03396,-0.05358,0.01101,-0.04288,0.03396,0.0*
%
%ADD112ROTATEDRECTD112*%

%ADD113R,0.04934X0.06706*%
%ADD114R,0.03162X0.04934*%
G04:AMPARAMS|DCode=115|XSize=72.96mil|YSize=29.65mil|CornerRadius=0mil|HoleSize=0mil|Usage=FLASHONLY|Rotation=259.100|XOffset=0mil|YOffset=0mil|HoleType=Round|Shape=Rectangle|*
%AMROTATEDRECTD115*
4,1,4,-0.00766,0.03863,0.02146,0.03302,0.00766,-0.03863,-0.02146,-0.03302,-0.00766,0.03863,0.0*
%
%ADD115ROTATEDRECTD115*%

%ADD116C,0.03800*%
%ADD117C,0.16600*%
%ADD118C,0.15700*%
%ADD119C,0.06800*%
%ADD120C,0.26800*%
%ADD121C,0.09461*%
%ADD122C,0.05800*%
%ADD123R,0.06706X0.06706*%
%ADD124C,0.06706*%
G04:AMPARAMS|DCode=125|XSize=94.61mil|YSize=78.87mil|CornerRadius=0mil|HoleSize=0mil|Usage=FLASHONLY|Rotation=79.100|XOffset=0mil|YOffset=0mil|HoleType=Round|Shape=Round|*
%AMOVALD125*
21,1,0.01575,0.07887,0.00000,0.00000,79.1*
1,1,0.07887,-0.00149,-0.00773*
1,1,0.07887,0.00149,0.00773*
%
%ADD125OVALD125*%

%ADD126C,0.04300*%
%ADD127R,0.07493X0.02178*%
%ADD128R,0.06706X0.03162*%
%ADD129R,0.06312X0.05524*%
%ADD130R,0.04343X0.03950*%
%ADD131R,0.07887X0.05524*%
%ADD132R,0.03950X0.04343*%
%ADD133R,0.09461X0.08280*%
%ADD134O,0.02296X0.07099*%
%ADD135R,0.04737X0.05229*%
%ADD136R,0.07099X0.05918*%
%ADD137R,0.03713X0.11804*%
%ADD138R,0.05524X0.06312*%
%ADD139R,0.01942X0.07690*%
%ADD140R,0.07690X0.01942*%
%ADD141R,0.07296X0.01942*%
%ADD142R,0.01942X0.07296*%
%ADD143O,0.04147X0.01784*%
%ADD144O,0.01784X0.04147*%
%ADD145R,0.14973X0.14973*%
%ADD146O,0.01784X0.03950*%
%ADD147O,0.03950X0.01784*%
%ADD148R,0.03162X0.06706*%
%ADD149R,0.02532X0.06194*%
%ADD150C,0.03398*%
G36*
X601255Y206307D02*
X602461Y205941D01*
X603573Y205347D01*
X604547Y204547D01*
X605347Y203573D01*
X605941Y202461D01*
X606307Y201255D01*
X606431Y200000D01*
X606307Y198745D01*
X605941Y197539D01*
X605347Y196427D01*
X604547Y195453D01*
X603573Y194653D01*
X602461Y194059D01*
X601255Y193693D01*
X600000Y193569D01*
X598745Y193693D01*
X597539Y194059D01*
X596427Y194653D01*
X595453Y195453D01*
X594653Y196427D01*
X594059Y197539D01*
X593693Y198745D01*
X593569Y200000D01*
X593693Y201255D01*
X594059Y202461D01*
X594653Y203573D01*
X595453Y204547D01*
X596427Y205347D01*
X597539Y205941D01*
X598745Y206307D01*
X600000Y206431D01*
X601255Y206307D01*
D02*
G37*
G36*
X201255Y606307D02*
X202461Y605941D01*
X203573Y605347D01*
X204547Y604547D01*
X205347Y603573D01*
X205941Y602461D01*
X206307Y601255D01*
X206431Y600000D01*
X206307Y598745D01*
X205941Y597539D01*
X205347Y596427D01*
X204547Y595453D01*
X203573Y594653D01*
X202461Y594059D01*
X201255Y593693D01*
X200000Y593569D01*
X198745Y593693D01*
X197539Y594059D01*
X196427Y594653D01*
X195453Y595453D01*
X194653Y596427D01*
X194059Y597539D01*
X193693Y598745D01*
X193569Y600000D01*
X193693Y601255D01*
X194059Y602461D01*
X194653Y603573D01*
X195453Y604547D01*
X196427Y605347D01*
X197539Y605941D01*
X198745Y606307D01*
X200000Y606431D01*
X201255Y606307D01*
D02*
G37*
D57*
X270500Y417819D02*
D03*
X244500Y401000D02*
D03*
X288500Y363000D02*
D03*
X281500D02*
D03*
X274000D02*
D03*
X288500Y368500D02*
D03*
X230500Y369500D02*
D03*
X230750Y363000D02*
D03*
X244750Y363500D02*
D03*
X237750D02*
D03*
X251500D02*
D03*
X284500Y397000D02*
D03*
X280000D02*
D03*
X272000Y395500D02*
D03*
X281500Y368500D02*
D03*
X274000D02*
D03*
X244500Y370000D02*
D03*
X237500D02*
D03*
X252500Y391500D02*
D03*
X246500Y392000D02*
D03*
X233500Y386000D02*
D03*
X224014Y382249D02*
D03*
X246950Y456400D02*
D03*
X252500Y373500D02*
D03*
X364000Y359500D02*
D03*
X367000Y383713D02*
D03*
X364500Y388500D02*
D03*
X245975Y431975D02*
D03*
X227500Y431500D02*
D03*
X278500Y413000D02*
D03*
X271600Y463000D02*
D03*
X248500Y357000D02*
D03*
X381000Y370000D02*
D03*
X382809Y387191D02*
D03*
X422000Y368000D02*
D03*
X401500Y378500D02*
D03*
X407000Y361000D02*
D03*
X377500Y399000D02*
D03*
X360000Y385000D02*
D03*
X355500Y389500D02*
D03*
X359500Y391000D02*
D03*
X358500Y394500D02*
D03*
X362000Y396000D02*
D03*
X358500Y401000D02*
D03*
X381000Y365500D02*
D03*
X283500Y409500D02*
D03*
X279000Y419000D02*
D03*
X282500Y420500D02*
D03*
X286500D02*
D03*
X276000Y424000D02*
D03*
X287000Y425500D02*
D03*
X272772Y428000D02*
D03*
X289000Y432000D02*
D03*
X284000Y405000D02*
D03*
X266200Y456200D02*
D03*
X314500Y348500D02*
D03*
X356000Y411000D02*
D03*
X248000Y427000D02*
D03*
Y401000D02*
D03*
X263000Y368500D02*
D03*
X292500Y380500D02*
D03*
X293000Y450000D02*
D03*
X515000Y433000D02*
D03*
X419000Y235000D02*
D03*
X449000Y498000D02*
D03*
D93*
X442147Y268400D02*
D03*
X448053D02*
D03*
X447953Y263400D02*
D03*
X442047D02*
D03*
X438553Y268400D02*
D03*
X432647D02*
D03*
X342953Y439000D02*
D03*
X337047D02*
D03*
X316447Y438900D02*
D03*
X322353D02*
D03*
X363247Y354300D02*
D03*
X369153D02*
D03*
X334853Y487200D02*
D03*
X328947D02*
D03*
X438453Y263400D02*
D03*
X432547D02*
D03*
Y253000D02*
D03*
X438453D02*
D03*
X465047Y390500D02*
D03*
X470953D02*
D03*
X261047Y395000D02*
D03*
X266953D02*
D03*
X442547Y258500D02*
D03*
X448453D02*
D03*
X392453Y405000D02*
D03*
X386547D02*
D03*
X396453Y385500D02*
D03*
X390547D02*
D03*
X403547Y414500D02*
D03*
X409453D02*
D03*
Y385500D02*
D03*
X403547D02*
D03*
X390547Y414500D02*
D03*
X396453D02*
D03*
X414047Y228500D02*
D03*
X419953D02*
D03*
X507047Y446000D02*
D03*
X512953D02*
D03*
X432547Y277100D02*
D03*
X438453D02*
D03*
X447953Y277100D02*
D03*
X442047D02*
D03*
X338453Y355500D02*
D03*
X332547D02*
D03*
X246453Y386500D02*
D03*
X240547D02*
D03*
X514953Y428500D02*
D03*
X509047D02*
D03*
X355547Y366500D02*
D03*
X361453D02*
D03*
X355547Y371500D02*
D03*
X361453D02*
D03*
X327047Y421000D02*
D03*
X332953D02*
D03*
X504953Y395500D02*
D03*
X499047D02*
D03*
D98*
X343000Y423147D02*
D03*
Y429053D02*
D03*
X338500Y420453D02*
D03*
Y414547D02*
D03*
X281500Y477953D02*
D03*
Y472047D02*
D03*
X317500Y422547D02*
D03*
Y428453D02*
D03*
X478500Y507547D02*
D03*
Y513453D02*
D03*
X322500Y420453D02*
D03*
Y414547D02*
D03*
X333000Y434047D02*
D03*
Y439953D02*
D03*
X408200Y403053D02*
D03*
Y397147D02*
D03*
X538300Y367947D02*
D03*
Y373853D02*
D03*
X542800Y367947D02*
D03*
Y373853D02*
D03*
X547300Y367947D02*
D03*
Y373853D02*
D03*
X551800Y367947D02*
D03*
Y373853D02*
D03*
X265000Y512953D02*
D03*
Y507047D02*
D03*
X269500Y298047D02*
D03*
Y303953D02*
D03*
X251500Y427047D02*
D03*
Y432953D02*
D03*
X233500Y426547D02*
D03*
Y432453D02*
D03*
X375000Y247047D02*
D03*
Y252953D02*
D03*
X370000Y247047D02*
D03*
Y252953D02*
D03*
X362500Y250547D02*
D03*
Y256453D02*
D03*
X445000Y494453D02*
D03*
Y488547D02*
D03*
X556500Y368047D02*
D03*
Y373953D02*
D03*
X424500Y243953D02*
D03*
Y238047D02*
D03*
X413500Y243953D02*
D03*
Y238047D02*
D03*
X425000Y554453D02*
D03*
Y548547D02*
D03*
X288000Y457047D02*
D03*
Y462953D02*
D03*
X268500Y362547D02*
D03*
Y368453D02*
D03*
D105*
X331469Y426500D02*
D03*
X327531D02*
D03*
X290832Y482300D02*
D03*
X294769D02*
D03*
X344031Y482500D02*
D03*
X347969D02*
D03*
X388469Y244000D02*
D03*
X384531D02*
D03*
X277031Y380500D02*
D03*
X280969D02*
D03*
X284531D02*
D03*
X288468D02*
D03*
X280531Y392500D02*
D03*
X284468D02*
D03*
X280531Y388579D02*
D03*
X284468D02*
D03*
X259031Y361500D02*
D03*
X262969D02*
D03*
X355468Y251000D02*
D03*
X351531D02*
D03*
X425031Y447500D02*
D03*
X428968D02*
D03*
X503531Y434500D02*
D03*
X507469D02*
D03*
X478969Y393000D02*
D03*
X475031D02*
D03*
X297031Y472500D02*
D03*
X300969D02*
D03*
X300469Y450000D02*
D03*
X296531D02*
D03*
X262968Y365000D02*
D03*
X259031D02*
D03*
D106*
X325800Y435432D02*
D03*
Y439369D02*
D03*
X346600Y438869D02*
D03*
Y434931D02*
D03*
X312900Y438869D02*
D03*
Y434931D02*
D03*
X328800Y435432D02*
D03*
Y439369D02*
D03*
X318000Y503468D02*
D03*
Y499531D02*
D03*
X512000Y470031D02*
D03*
Y473969D02*
D03*
X479500Y474531D02*
D03*
Y478469D02*
D03*
X273000Y384468D02*
D03*
Y380531D02*
D03*
X247000Y409229D02*
D03*
Y405291D02*
D03*
X278681Y404350D02*
D03*
Y408287D02*
D03*
X288500Y376969D02*
D03*
Y373031D02*
D03*
X255500Y368969D02*
D03*
Y365031D02*
D03*
X351500Y477031D02*
D03*
Y480969D02*
D03*
X417500Y239032D02*
D03*
Y242969D02*
D03*
X420500Y239032D02*
D03*
Y242969D02*
D03*
X515500Y420031D02*
D03*
Y423969D02*
D03*
X348000Y494532D02*
D03*
Y498469D02*
D03*
X276500Y384531D02*
D03*
Y388469D02*
D03*
D116*
X597000Y395000D02*
D03*
Y400000D02*
D03*
Y405000D02*
D03*
X395000Y597000D02*
D03*
X400000D02*
D03*
X405000D02*
D03*
X203400Y395000D02*
D03*
X203500Y400000D02*
D03*
X203400Y405000D02*
D03*
X405000Y203100D02*
D03*
X400000Y203000D02*
D03*
X395000Y203100D02*
D03*
D117*
X200000Y200000D02*
D03*
X600000Y600000D02*
D03*
D118*
X291700Y520100D02*
D03*
X508300D02*
D03*
D119*
X271236Y264164D02*
D03*
X264164Y271236D02*
D03*
Y528764D02*
D03*
X271236Y535836D02*
D03*
X405000Y212800D02*
D03*
X395000D02*
D03*
X235173Y457761D02*
D03*
X239000Y467000D02*
D03*
X242827Y476239D02*
D03*
X242727Y324061D02*
D03*
X238900Y333300D02*
D03*
X235073Y342539D02*
D03*
X333300Y238900D02*
D03*
X324061Y242727D02*
D03*
X342539Y235073D02*
D03*
X475939Y242727D02*
D03*
X466700Y238900D02*
D03*
X457461Y235073D02*
D03*
X564927Y342539D02*
D03*
X561100Y333300D02*
D03*
X557273Y324061D02*
D03*
Y475939D02*
D03*
X561100Y466700D02*
D03*
X564927Y457461D02*
D03*
X457461Y564927D02*
D03*
X466700Y561100D02*
D03*
X475939Y557273D02*
D03*
X395000Y587200D02*
D03*
X405000D02*
D03*
X535836Y271236D02*
D03*
X528764Y264164D02*
D03*
X587200Y405000D02*
D03*
Y395000D02*
D03*
X528764Y535836D02*
D03*
X535836Y528764D02*
D03*
X247000Y502000D02*
D03*
X257000D02*
D03*
X553000D02*
D03*
X543000D02*
D03*
X247000Y298000D02*
D03*
X257000D02*
D03*
X324061Y557273D02*
D03*
X333300Y561100D02*
D03*
X342539Y564927D02*
D03*
X212800Y395000D02*
D03*
Y405000D02*
D03*
X543000Y298000D02*
D03*
X553000D02*
D03*
D120*
X291700Y279900D02*
D03*
X508300D02*
D03*
D121*
X312000Y390500D02*
D03*
Y370500D02*
D03*
X332000D02*
D03*
X322006Y380540D02*
D03*
X332000Y390500D02*
D03*
D122*
X341800Y516600D02*
D03*
Y524600D02*
D03*
X443000Y527300D02*
D03*
X356900Y527000D02*
D03*
D123*
X488500Y546500D02*
D03*
X550000Y400000D02*
D03*
D124*
X488500Y536500D02*
D03*
X540000Y400000D02*
D03*
X550000Y410000D02*
D03*
X540000D02*
D03*
X550000Y420000D02*
D03*
X540000D02*
D03*
X550000Y430000D02*
D03*
X540000D02*
D03*
X550000Y440000D02*
D03*
X540000D02*
D03*
D125*
X382611Y230783D02*
D03*
X380452Y219571D02*
D03*
X352230Y225006D02*
D03*
X354389Y236217D02*
D03*
D126*
X378000Y413000D02*
D03*
X242500Y425000D02*
D03*
X374000Y405000D02*
D03*
X239000Y380000D02*
D03*
X244500Y380500D02*
D03*
X267000Y448500D02*
D03*
X234000Y422000D02*
D03*
X254000Y491500D02*
D03*
X262500D02*
D03*
X267000Y495000D02*
D03*
X352000Y416500D02*
D03*
X353000Y422000D02*
D03*
X268500Y483500D02*
D03*
X311100Y419500D02*
D03*
X283453Y462953D02*
D03*
X290500Y445500D02*
D03*
X406500Y231500D02*
D03*
X439700Y480700D02*
D03*
X545000Y455000D02*
D03*
X535500Y455500D02*
D03*
X524200Y458600D02*
D03*
X528500Y510000D02*
D03*
X334500Y281500D02*
D03*
X416000Y491000D02*
D03*
X429700Y404800D02*
D03*
X429000Y411000D02*
D03*
X434000Y403500D02*
D03*
X443500Y409500D02*
D03*
X444300Y417700D02*
D03*
X365000Y434000D02*
D03*
X583000Y384500D02*
D03*
X564500D02*
D03*
X553000D02*
D03*
X476500Y274500D02*
D03*
X436802Y247302D02*
D03*
X348500Y322900D02*
D03*
X365550Y508450D02*
D03*
X311000Y444500D02*
D03*
X476700Y435900D02*
D03*
X466500Y472000D02*
D03*
X473000Y471037D02*
D03*
X314500Y448000D02*
D03*
X321000Y455500D02*
D03*
X301500Y490000D02*
D03*
X286500Y468500D02*
D03*
X424000Y351000D02*
D03*
X443100Y483400D02*
D03*
X352500Y355500D02*
D03*
X471000Y493500D02*
D03*
X579000Y429000D02*
D03*
X430500Y371500D02*
D03*
X435000Y382000D02*
D03*
X435500Y370000D02*
D03*
X354500Y552500D02*
D03*
X458000Y538000D02*
D03*
X417500Y558500D02*
D03*
X367000Y295000D02*
D03*
X383550Y417450D02*
D03*
X455000Y520000D02*
D03*
X456500Y454500D02*
D03*
X376500Y461500D02*
D03*
X380350Y476900D02*
D03*
X341000Y545000D02*
D03*
X368500Y501500D02*
D03*
X363500Y544000D02*
D03*
X300500Y477500D02*
D03*
X290832Y486332D02*
D03*
X353500Y473000D02*
D03*
X362100Y501500D02*
D03*
X358000Y496000D02*
D03*
X367500Y492500D02*
D03*
X367050Y487831D02*
D03*
X362500Y481000D02*
D03*
X334200Y314500D02*
D03*
X422500Y274500D02*
D03*
X498000Y247500D02*
D03*
X352000Y544000D02*
D03*
X362625Y460500D02*
D03*
X351500Y436500D02*
D03*
X311500Y429000D02*
D03*
X327422Y430373D02*
D03*
X459000Y372500D02*
D03*
X543000Y331000D02*
D03*
X464500Y279500D02*
D03*
X443200Y285900D02*
D03*
X574000Y424000D02*
D03*
X568000Y416900D02*
D03*
X566600Y406500D02*
D03*
X269500Y308000D02*
D03*
X400000Y234000D02*
D03*
X359500Y228300D02*
D03*
X367700Y226100D02*
D03*
X503500Y446000D02*
D03*
X400000Y244000D02*
D03*
X450300Y253200D02*
D03*
X356400Y431700D02*
D03*
X345500Y477500D02*
D03*
X324879Y472121D02*
D03*
X423000Y442500D02*
D03*
X416000Y444100D02*
D03*
X503500Y427500D02*
D03*
X382872Y572000D02*
D03*
X478000Y499963D02*
D03*
X452200Y491900D02*
D03*
X457300Y493200D02*
D03*
X461800Y500300D02*
D03*
X484500Y510000D02*
D03*
X474500Y476000D02*
D03*
X441500Y393500D02*
D03*
X447000D02*
D03*
X451200Y409600D02*
D03*
X457500Y418000D02*
D03*
X477911Y409289D02*
D03*
X470100Y409400D02*
D03*
X488600Y423400D02*
D03*
X488700Y429300D02*
D03*
X488000Y437500D02*
D03*
X485000Y411500D02*
D03*
X523800Y505800D02*
D03*
X449000Y417000D02*
D03*
X429000Y289000D02*
D03*
X459500Y254000D02*
D03*
X484100Y364900D02*
D03*
X524500Y301000D02*
D03*
X363200Y224800D02*
D03*
X390100Y466000D02*
D03*
X466600Y476800D02*
D03*
X423200Y487900D02*
D03*
X329000Y331600D02*
D03*
X408700Y473100D02*
D03*
X465500Y273500D02*
D03*
X441800Y243500D02*
D03*
X447400Y284000D02*
D03*
X448300Y300600D02*
D03*
X438600Y290500D02*
D03*
X425500Y286000D02*
D03*
X422000Y338500D02*
D03*
X418500Y297500D02*
D03*
X365300Y304400D02*
D03*
X370600Y313400D02*
D03*
X378100Y299000D02*
D03*
X447800Y355300D02*
D03*
X408300Y335000D02*
D03*
X424000Y311800D02*
D03*
X399000Y326500D02*
D03*
X391000Y309300D02*
D03*
X395000Y542900D02*
D03*
X411800Y427900D02*
D03*
X484300Y346200D02*
D03*
X267600Y518224D02*
D03*
X517100Y484100D02*
D03*
X521400D02*
D03*
X525700Y484200D02*
D03*
X535900Y478100D02*
D03*
X541900D02*
D03*
X498200Y483300D02*
D03*
X482674Y473826D02*
D03*
X493300Y461600D02*
D03*
X483800Y453500D02*
D03*
X516100Y499300D02*
D03*
X519500Y502400D02*
D03*
X500400Y356400D02*
D03*
X444900Y434000D02*
D03*
X346800Y503700D02*
D03*
X523800Y500500D02*
D03*
X490500Y555500D02*
D03*
X329000Y355000D02*
D03*
X350400Y569000D02*
D03*
X461900Y575000D02*
D03*
X463000Y532000D02*
D03*
X329600Y311200D02*
D03*
X446600Y360200D02*
D03*
X556500Y389000D02*
D03*
X461900Y409800D02*
D03*
X473600Y445100D02*
D03*
X481800Y359300D02*
D03*
X485000Y426500D02*
D03*
X568300Y421900D02*
D03*
X429500Y465800D02*
D03*
X454300Y363100D02*
D03*
X573700Y445000D02*
D03*
X458300Y355200D02*
D03*
X550300Y474100D02*
D03*
X408200Y504100D02*
D03*
X411700Y507800D02*
D03*
X402600Y451500D02*
D03*
X407950Y482950D02*
D03*
X430100Y477300D02*
D03*
X448600Y441000D02*
D03*
X434600Y469700D02*
D03*
X375100Y542700D02*
D03*
X345900Y447500D02*
D03*
X484000Y316000D02*
D03*
X405500Y270300D02*
D03*
X405600Y263400D02*
D03*
X528000Y321000D02*
D03*
X450400Y384200D02*
D03*
X380000Y542600D02*
D03*
X385000Y542700D02*
D03*
X390000Y542900D02*
D03*
X420000Y542700D02*
D03*
X415000D02*
D03*
X410000D02*
D03*
X405000Y542800D02*
D03*
X400000Y542900D02*
D03*
X380500Y244000D02*
D03*
X374800Y257400D02*
D03*
X370000Y257500D02*
D03*
X332853Y335247D02*
D03*
X332700Y339600D02*
D03*
X350800Y311500D02*
D03*
X405500Y258700D02*
D03*
X415500Y258800D02*
D03*
X365321Y313421D02*
D03*
X316000Y309100D02*
D03*
X335500Y343100D02*
D03*
X447600Y331200D02*
D03*
X337400Y348000D02*
D03*
X452100Y326400D02*
D03*
X393500Y342000D02*
D03*
X394000Y348000D02*
D03*
X397500Y351500D02*
D03*
X458300Y367800D02*
D03*
X480100Y387900D02*
D03*
X543000Y350700D02*
D03*
X489500Y392000D02*
D03*
X542800Y360500D02*
D03*
X542700Y355900D02*
D03*
X518300Y346800D02*
D03*
X539800Y325600D02*
D03*
X473700Y415300D02*
D03*
X448900Y447800D02*
D03*
X469100Y418300D02*
D03*
X472300Y421300D02*
D03*
X472400Y428200D02*
D03*
X488700Y442800D02*
D03*
X476400Y453900D02*
D03*
X371500Y326500D02*
D03*
X530700Y355500D02*
D03*
X368200Y577300D02*
D03*
X360600Y575800D02*
D03*
X517000Y356200D02*
D03*
X506200Y387700D02*
D03*
X499400Y352100D02*
D03*
X506000Y370300D02*
D03*
X437600Y488200D02*
D03*
X569400Y364200D02*
D03*
X573200Y371100D02*
D03*
X459000Y388000D02*
D03*
X421200Y451800D02*
D03*
X428600Y439950D02*
D03*
X383600Y429300D02*
D03*
Y433600D02*
D03*
X404300Y443300D02*
D03*
X459400Y438700D02*
D03*
X397400Y506800D02*
D03*
X547500Y363500D02*
D03*
X511900Y312200D02*
D03*
X481800Y354700D02*
D03*
X524200Y463000D02*
D03*
X454100Y529800D02*
D03*
Y534300D02*
D03*
X390800Y506600D02*
D03*
Y497800D02*
D03*
X416700Y480700D02*
D03*
X488600Y447100D02*
D03*
X489000Y386000D02*
D03*
X486000Y382500D02*
D03*
X426500Y500300D02*
D03*
Y494200D02*
D03*
X451200Y484500D02*
D03*
X454200Y524600D02*
D03*
X392500Y271000D02*
D03*
X424000Y455100D02*
D03*
X429800Y458100D02*
D03*
X504600Y361700D02*
D03*
X507800Y344800D02*
D03*
X524500Y373400D02*
D03*
X521000Y455600D02*
D03*
X580000Y379764D02*
D03*
Y414200D02*
D03*
X441000Y230500D02*
D03*
X435100Y227500D02*
D03*
X399000Y448500D02*
D03*
X551700Y486900D02*
D03*
X377600Y334700D02*
D03*
X343500Y344600D02*
D03*
X374200Y347000D02*
D03*
X373700Y354100D02*
D03*
X503700Y316000D02*
D03*
X506100Y300800D02*
D03*
X334700Y546600D02*
D03*
X276500Y508800D02*
D03*
X315300Y271300D02*
D03*
X357500Y298000D02*
D03*
X339000Y262500D02*
D03*
X358900Y320700D02*
D03*
X430000Y562500D02*
D03*
X478000Y327000D02*
D03*
X456600Y297400D02*
D03*
X509500Y401000D02*
D03*
X503792Y409707D02*
D03*
X494800Y404100D02*
D03*
X493000Y395000D02*
D03*
X297500Y419000D02*
D03*
X443000Y372500D02*
D03*
X319500Y494400D02*
D03*
X334700Y473400D02*
D03*
X331500Y462500D02*
D03*
X333000Y454500D02*
D03*
X313500Y477500D02*
D03*
X353447Y460447D02*
D03*
X525500Y311500D02*
D03*
X360900Y424200D02*
D03*
X405400Y508000D02*
D03*
X356200Y426600D02*
D03*
X400500Y459500D02*
D03*
X394500Y456500D02*
D03*
X382300Y410200D02*
D03*
X477800Y283700D02*
D03*
X469000Y342000D02*
D03*
X463500Y345000D02*
D03*
X397500D02*
D03*
X380000Y494800D02*
D03*
X407250Y427950D02*
D03*
X428500Y423500D02*
D03*
X416500Y389000D02*
D03*
X415000Y412500D02*
D03*
X416500Y404800D02*
D03*
Y399500D02*
D03*
X426000Y395500D02*
D03*
X363000Y290000D02*
D03*
X472000Y386000D02*
D03*
X370000Y265500D02*
D03*
X348500Y247500D02*
D03*
X386000Y270500D02*
D03*
X363500Y266000D02*
D03*
X534000Y383000D02*
D03*
X512450Y392722D02*
D03*
X525500Y391500D02*
D03*
X547000Y379000D02*
D03*
X563936Y379764D02*
D03*
X545000Y466700D02*
D03*
X396500Y379500D02*
D03*
X409500D02*
D03*
X403500Y420600D02*
D03*
X390500Y420500D02*
D03*
D127*
X447880Y502843D02*
D03*
Y505402D02*
D03*
Y507961D02*
D03*
Y510521D02*
D03*
Y513080D02*
D03*
Y515639D02*
D03*
Y518198D02*
D03*
Y520757D02*
D03*
X470321Y502843D02*
D03*
Y505402D02*
D03*
Y507961D02*
D03*
Y510521D02*
D03*
Y513080D02*
D03*
Y515639D02*
D03*
Y518198D02*
D03*
Y520757D02*
D03*
X492220Y367457D02*
D03*
Y364898D02*
D03*
Y362339D02*
D03*
Y359780D02*
D03*
Y357221D02*
D03*
Y354661D02*
D03*
Y352102D02*
D03*
Y349543D02*
D03*
X469779Y367457D02*
D03*
Y364898D02*
D03*
Y362339D02*
D03*
Y359780D02*
D03*
Y357221D02*
D03*
Y354661D02*
D03*
Y352102D02*
D03*
Y349543D02*
D03*
D128*
X401243Y403840D02*
D03*
Y396360D02*
D03*
X394157Y400100D02*
D03*
D129*
X356500Y449150D02*
D03*
Y442850D02*
D03*
X347000Y269350D02*
D03*
Y275650D02*
D03*
D130*
X456500Y476256D02*
D03*
Y470744D02*
D03*
X357500Y359256D02*
D03*
Y353744D02*
D03*
X286200Y477756D02*
D03*
Y472244D02*
D03*
X350500Y447756D02*
D03*
Y442244D02*
D03*
D131*
X503874Y483174D02*
D03*
X488126Y483274D02*
D03*
X503874Y473726D02*
D03*
X488126Y473826D02*
D03*
X340874Y503674D02*
D03*
X325126Y503774D02*
D03*
X340874Y494226D02*
D03*
X325126Y494326D02*
D03*
X270874Y411493D02*
D03*
X255126Y411593D02*
D03*
X270874Y402044D02*
D03*
X255126Y402144D02*
D03*
D132*
X422744Y434000D02*
D03*
X428256D02*
D03*
X505744Y422500D02*
D03*
X511256D02*
D03*
X316644Y433600D02*
D03*
X322156D02*
D03*
X342956Y433500D02*
D03*
X337444D02*
D03*
D133*
X299000Y435000D02*
D03*
D134*
X295161Y443957D02*
D03*
X297721D02*
D03*
X300279D02*
D03*
X302839D02*
D03*
X295161Y426043D02*
D03*
X297721D02*
D03*
X300279D02*
D03*
X302839D02*
D03*
D135*
X328980Y276969D02*
D03*
X339020D02*
D03*
X328980Y253031D02*
D03*
X339020D02*
D03*
D136*
X355000Y255610D02*
D03*
Y269390D02*
D03*
D137*
X370000Y535002D02*
D03*
X430000D02*
D03*
X425000D02*
D03*
X420000D02*
D03*
X415000D02*
D03*
Y518998D02*
D03*
X420000D02*
D03*
X425000D02*
D03*
X430000D02*
D03*
X410000D02*
D03*
Y535002D02*
D03*
X405000D02*
D03*
Y518998D02*
D03*
X400000D02*
D03*
Y535002D02*
D03*
X395000D02*
D03*
Y518998D02*
D03*
X390000Y535002D02*
D03*
Y518998D02*
D03*
X385000D02*
D03*
Y535002D02*
D03*
X380000D02*
D03*
Y518998D02*
D03*
X375000D02*
D03*
Y535002D02*
D03*
X370000Y518998D02*
D03*
D138*
X254850Y356500D02*
D03*
X261150D02*
D03*
D139*
X442478Y402277D02*
D03*
X444447D02*
D03*
X446415D02*
D03*
X448384D02*
D03*
X450352D02*
D03*
X452320D02*
D03*
X454289D02*
D03*
X456257D02*
D03*
X458226D02*
D03*
X460194D02*
D03*
X462163D02*
D03*
X464131D02*
D03*
X466100D02*
D03*
X468069D02*
D03*
X470037D02*
D03*
X472006D02*
D03*
X473974D02*
D03*
X475943D02*
D03*
X477911D02*
D03*
X479880D02*
D03*
X481848D02*
D03*
X483816D02*
D03*
X485785D02*
D03*
X487753D02*
D03*
X489722D02*
D03*
Y461923D02*
D03*
X487753D02*
D03*
X485785D02*
D03*
X483816D02*
D03*
X481848D02*
D03*
X479880D02*
D03*
X477911D02*
D03*
X475943D02*
D03*
X473974D02*
D03*
X472006D02*
D03*
X470037D02*
D03*
X468069D02*
D03*
X466100D02*
D03*
X464131D02*
D03*
X462163D02*
D03*
X460194D02*
D03*
X458226D02*
D03*
X456257D02*
D03*
X454289D02*
D03*
X452320D02*
D03*
X450352D02*
D03*
X448384D02*
D03*
X446415D02*
D03*
X444447D02*
D03*
X442478D02*
D03*
D140*
X495923Y408478D02*
D03*
Y410447D02*
D03*
Y412415D02*
D03*
Y414384D02*
D03*
Y416352D02*
D03*
Y418321D02*
D03*
Y420289D02*
D03*
Y422258D02*
D03*
Y424226D02*
D03*
Y426194D02*
D03*
Y428163D02*
D03*
Y430131D02*
D03*
Y432100D02*
D03*
Y434068D02*
D03*
Y436037D02*
D03*
Y438005D02*
D03*
Y439974D02*
D03*
Y441943D02*
D03*
Y443911D02*
D03*
Y445880D02*
D03*
Y447848D02*
D03*
Y449817D02*
D03*
Y451785D02*
D03*
Y453754D02*
D03*
Y455722D02*
D03*
X436277D02*
D03*
Y453754D02*
D03*
Y451785D02*
D03*
Y449817D02*
D03*
Y447848D02*
D03*
Y445880D02*
D03*
Y443911D02*
D03*
Y441943D02*
D03*
Y439974D02*
D03*
Y438005D02*
D03*
Y436037D02*
D03*
Y434068D02*
D03*
Y432100D02*
D03*
Y430131D02*
D03*
Y428163D02*
D03*
Y426194D02*
D03*
Y424226D02*
D03*
Y422258D02*
D03*
Y420289D02*
D03*
Y418321D02*
D03*
Y416352D02*
D03*
Y414384D02*
D03*
Y412415D02*
D03*
Y410447D02*
D03*
Y408478D02*
D03*
D141*
X313757Y452573D02*
D03*
Y454542D02*
D03*
Y456510D02*
D03*
Y458479D02*
D03*
Y460447D02*
D03*
Y462416D02*
D03*
Y464384D02*
D03*
Y466353D02*
D03*
Y468321D02*
D03*
Y470290D02*
D03*
Y472258D02*
D03*
Y474227D02*
D03*
X345843D02*
D03*
Y472258D02*
D03*
Y470290D02*
D03*
Y468321D02*
D03*
Y466353D02*
D03*
Y464384D02*
D03*
Y462416D02*
D03*
Y460447D02*
D03*
Y458479D02*
D03*
Y456510D02*
D03*
Y454542D02*
D03*
Y452573D02*
D03*
D142*
X318973Y479443D02*
D03*
X320942D02*
D03*
X322910D02*
D03*
X324879D02*
D03*
X326847D02*
D03*
X328816D02*
D03*
X330784D02*
D03*
X332753D02*
D03*
X334721D02*
D03*
X336690D02*
D03*
X338658D02*
D03*
X340627D02*
D03*
Y447357D02*
D03*
X338658D02*
D03*
X336690D02*
D03*
X334721D02*
D03*
X332753D02*
D03*
X330784D02*
D03*
X328816D02*
D03*
X326847D02*
D03*
X324879D02*
D03*
X322910D02*
D03*
X320942D02*
D03*
X318973D02*
D03*
D143*
X252724Y377882D02*
D03*
Y379850D02*
D03*
Y383787D02*
D03*
Y385756D02*
D03*
X268276D02*
D03*
Y383787D02*
D03*
Y381819D02*
D03*
Y379850D02*
D03*
Y377882D02*
D03*
X252724Y381819D02*
D03*
D144*
X256563Y389595D02*
D03*
X258531D02*
D03*
X260500D02*
D03*
X262468D02*
D03*
X264437D02*
D03*
Y374043D02*
D03*
X262468D02*
D03*
X260500D02*
D03*
X258531D02*
D03*
X256563D02*
D03*
D145*
X360400Y338200D02*
D03*
D146*
X367290Y348043D02*
D03*
X365321D02*
D03*
X363353D02*
D03*
X361384D02*
D03*
X359416D02*
D03*
X357447D02*
D03*
X355479D02*
D03*
X353510D02*
D03*
Y328357D02*
D03*
X355479D02*
D03*
X357447D02*
D03*
X359416D02*
D03*
X361384D02*
D03*
X363353D02*
D03*
X365321D02*
D03*
X367290D02*
D03*
X289831Y478056D02*
D03*
X291800D02*
D03*
X293769D02*
D03*
Y472544D02*
D03*
X291800D02*
D03*
X289831D02*
D03*
D147*
X350557Y345090D02*
D03*
Y343121D02*
D03*
Y341153D02*
D03*
Y339184D02*
D03*
Y337216D02*
D03*
Y335247D02*
D03*
Y333279D02*
D03*
Y331310D02*
D03*
X370243D02*
D03*
Y333279D02*
D03*
Y335247D02*
D03*
Y337216D02*
D03*
Y339184D02*
D03*
Y341153D02*
D03*
Y343121D02*
D03*
Y345090D02*
D03*
D148*
X293760Y466543D02*
D03*
X301240D02*
D03*
X297500Y459457D02*
D03*
D149*
X382366Y250555D02*
D03*
X384925D02*
D03*
X387484D02*
D03*
X390043D02*
D03*
X392602D02*
D03*
X395161D02*
D03*
X397720D02*
D03*
X400280D02*
D03*
X402839D02*
D03*
X405398D02*
D03*
X407957D02*
D03*
X410516D02*
D03*
X413075D02*
D03*
X415634D02*
D03*
Y277445D02*
D03*
X413075D02*
D03*
X410516D02*
D03*
X407957D02*
D03*
X405398D02*
D03*
X402839D02*
D03*
X400280D02*
D03*
X397720D02*
D03*
X395161D02*
D03*
X392602D02*
D03*
X390043D02*
D03*
X387484D02*
D03*
X384925D02*
D03*
X382366D02*
D03*
D150*
X296638Y437362D02*
D03*
Y432638D02*
D03*
X301362Y437362D02*
D03*
Y432638D02*
D03*
X365124Y333476D02*
D03*
X360400D02*
D03*
X355676D02*
D03*
X365124Y338200D02*
D03*
X360400D02*
D03*
X355676D02*
D03*
X365124Y342924D02*
D03*
X360400D02*
D03*
X355676D02*
D03*
M02*
