%FSLAX25Y25*%
%MOIN*%
G70*
G01*
G75*
G04 Layer_Physical_Order=2*
G04 Layer_Color=16711680*
%ADD10C,0.01500*%
%ADD11C,0.04000*%
%ADD12R,0.03150X0.05906*%
G04:AMPARAMS|DCode=13|XSize=35.43mil|YSize=27.56mil|CornerRadius=0mil|HoleSize=0mil|Usage=FLASHONLY|Rotation=169.100|XOffset=0mil|YOffset=0mil|HoleType=Round|Shape=Rectangle|*
%AMROTATEDRECTD13*
4,1,4,0.02000,0.01018,0.01479,-0.01688,-0.02000,-0.01018,-0.01479,0.01688,0.02000,0.01018,0.0*
%
%ADD13ROTATEDRECTD13*%

%ADD14R,0.02756X0.03543*%
G04:AMPARAMS|DCode=15|XSize=35.43mil|YSize=27.56mil|CornerRadius=0mil|HoleSize=0mil|Usage=FLASHONLY|Rotation=162.000|XOffset=0mil|YOffset=0mil|HoleType=Round|Shape=Rectangle|*
%AMROTATEDRECTD15*
4,1,4,0.02111,0.00763,0.01259,-0.01858,-0.02111,-0.00763,-0.01259,0.01858,0.02111,0.00763,0.0*
%
%ADD15ROTATEDRECTD15*%

G04:AMPARAMS|DCode=16|XSize=35.43mil|YSize=27.56mil|CornerRadius=0mil|HoleSize=0mil|Usage=FLASHONLY|Rotation=234.000|XOffset=0mil|YOffset=0mil|HoleType=Round|Shape=Rectangle|*
%AMROTATEDRECTD16*
4,1,4,-0.00073,0.02243,0.02156,0.00623,0.00073,-0.02243,-0.02156,-0.00623,-0.00073,0.02243,0.0*
%
%ADD16ROTATEDRECTD16*%

G04:AMPARAMS|DCode=17|XSize=35.43mil|YSize=27.56mil|CornerRadius=0mil|HoleSize=0mil|Usage=FLASHONLY|Rotation=306.000|XOffset=0mil|YOffset=0mil|HoleType=Round|Shape=Rectangle|*
%AMROTATEDRECTD17*
4,1,4,-0.02156,0.00623,0.00073,0.02243,0.02156,-0.00623,-0.00073,-0.02243,-0.02156,0.00623,0.0*
%
%ADD17ROTATEDRECTD17*%

G04:AMPARAMS|DCode=18|XSize=35.43mil|YSize=27.56mil|CornerRadius=0mil|HoleSize=0mil|Usage=FLASHONLY|Rotation=18.000|XOffset=0mil|YOffset=0mil|HoleType=Round|Shape=Rectangle|*
%AMROTATEDRECTD18*
4,1,4,-0.01259,-0.01858,-0.02111,0.00763,0.01259,0.01858,0.02111,-0.00763,-0.01259,-0.01858,0.0*
%
%ADD18ROTATEDRECTD18*%

%ADD19R,0.03543X0.02756*%
%ADD20R,0.08000X0.05000*%
G04:AMPARAMS|DCode=21|XSize=35.43mil|YSize=27.56mil|CornerRadius=0mil|HoleSize=0mil|Usage=FLASHONLY|Rotation=225.000|XOffset=0mil|YOffset=0mil|HoleType=Round|Shape=Rectangle|*
%AMROTATEDRECTD21*
4,1,4,0.00278,0.02227,0.02227,0.00278,-0.00278,-0.02227,-0.02227,-0.00278,0.00278,0.02227,0.0*
%
%ADD21ROTATEDRECTD21*%

G04:AMPARAMS|DCode=22|XSize=19.69mil|YSize=23.62mil|CornerRadius=0mil|HoleSize=0mil|Usage=FLASHONLY|Rotation=337.500|XOffset=0mil|YOffset=0mil|HoleType=Round|Shape=Rectangle|*
%AMROTATEDRECTD22*
4,1,4,-0.01361,-0.00715,-0.00457,0.01468,0.01361,0.00715,0.00457,-0.01468,-0.01361,-0.00715,0.0*
%
%ADD22ROTATEDRECTD22*%

G04:AMPARAMS|DCode=23|XSize=19.69mil|YSize=23.62mil|CornerRadius=0mil|HoleSize=0mil|Usage=FLASHONLY|Rotation=292.500|XOffset=0mil|YOffset=0mil|HoleType=Round|Shape=Rectangle|*
%AMROTATEDRECTD23*
4,1,4,-0.01468,0.00457,0.00715,0.01361,0.01468,-0.00457,-0.00715,-0.01361,-0.01468,0.00457,0.0*
%
%ADD23ROTATEDRECTD23*%

G04:AMPARAMS|DCode=24|XSize=19.69mil|YSize=23.62mil|CornerRadius=0mil|HoleSize=0mil|Usage=FLASHONLY|Rotation=247.500|XOffset=0mil|YOffset=0mil|HoleType=Round|Shape=Rectangle|*
%AMROTATEDRECTD24*
4,1,4,-0.00715,0.01361,0.01468,0.00457,0.00715,-0.01361,-0.01468,-0.00457,-0.00715,0.01361,0.0*
%
%ADD24ROTATEDRECTD24*%

G04:AMPARAMS|DCode=25|XSize=19.69mil|YSize=23.62mil|CornerRadius=0mil|HoleSize=0mil|Usage=FLASHONLY|Rotation=202.500|XOffset=0mil|YOffset=0mil|HoleType=Round|Shape=Rectangle|*
%AMROTATEDRECTD25*
4,1,4,0.00457,0.01468,0.01361,-0.00715,-0.00457,-0.01468,-0.01361,0.00715,0.00457,0.01468,0.0*
%
%ADD25ROTATEDRECTD25*%

%ADD26R,0.02362X0.01969*%
%ADD27R,0.01969X0.02362*%
G04:AMPARAMS|DCode=28|XSize=80mil|YSize=50mil|CornerRadius=0mil|HoleSize=0mil|Usage=FLASHONLY|Rotation=104.000|XOffset=0mil|YOffset=0mil|HoleType=Round|Shape=Rectangle|*
%AMROTATEDRECTD28*
4,1,4,0.03393,-0.03276,-0.01458,-0.04486,-0.03393,0.03276,0.01458,0.04486,0.03393,-0.03276,0.0*
%
%ADD28ROTATEDRECTD28*%

%ADD29R,0.09449X0.09449*%
%ADD30R,0.06850X0.05512*%
%ADD31P,0.13919X4X345.0*%
%ADD32P,0.13919X4X285.0*%
G04:AMPARAMS|DCode=33|XSize=17.32mil|YSize=98.43mil|CornerRadius=0mil|HoleSize=0mil|Usage=FLASHONLY|Rotation=245.000|XOffset=0mil|YOffset=0mil|HoleType=Round|Shape=Rectangle|*
%AMROTATEDRECTD33*
4,1,4,-0.04094,0.02865,0.04826,-0.01295,0.04094,-0.02865,-0.04826,0.01295,-0.04094,0.02865,0.0*
%
%ADD33ROTATEDRECTD33*%

%ADD34R,0.04134X0.05906*%
%ADD35R,0.02362X0.04134*%
G04:AMPARAMS|DCode=36|XSize=64.96mil|YSize=21.65mil|CornerRadius=0mil|HoleSize=0mil|Usage=FLASHONLY|Rotation=259.100|XOffset=0mil|YOffset=0mil|HoleType=Round|Shape=Rectangle|*
%AMROTATEDRECTD36*
4,1,4,-0.00449,0.03394,0.01677,0.02985,0.00449,-0.03394,-0.01677,-0.02985,-0.00449,0.03394,0.0*
%
%ADD36ROTATEDRECTD36*%

%ADD37C,0.00800*%
%ADD38C,0.02500*%
%ADD39C,0.02000*%
%ADD40C,0.01200*%
%ADD41C,0.01000*%
G04:AMPARAMS|DCode=42|XSize=10mil|YSize=50mil|CornerRadius=0mil|HoleSize=0mil|Usage=FLASHONLY|Rotation=216.000|XOffset=0mil|YOffset=0mil|HoleType=Round|Shape=Rectangle|*
%AMROTATEDRECTD42*
4,1,4,-0.01065,0.02316,0.01874,-0.01729,0.01065,-0.02316,-0.01874,0.01729,-0.01065,0.02316,0.0*
%
%ADD42ROTATEDRECTD42*%

G04:AMPARAMS|DCode=43|XSize=10mil|YSize=50mil|CornerRadius=0mil|HoleSize=0mil|Usage=FLASHONLY|Rotation=144.000|XOffset=0mil|YOffset=0mil|HoleType=Round|Shape=Rectangle|*
%AMROTATEDRECTD43*
4,1,4,0.01874,0.01729,-0.01065,-0.02316,-0.01874,-0.01729,0.01065,0.02316,0.01874,0.01729,0.0*
%
%ADD43ROTATEDRECTD43*%

G04:AMPARAMS|DCode=44|XSize=10mil|YSize=50mil|CornerRadius=0mil|HoleSize=0mil|Usage=FLASHONLY|Rotation=288.000|XOffset=0mil|YOffset=0mil|HoleType=Round|Shape=Rectangle|*
%AMROTATEDRECTD44*
4,1,4,-0.02532,-0.00297,0.02223,0.01248,0.02532,0.00297,-0.02223,-0.01248,-0.02532,-0.00297,0.0*
%
%ADD44ROTATEDRECTD44*%

G04:AMPARAMS|DCode=45|XSize=10mil|YSize=50mil|CornerRadius=0mil|HoleSize=0mil|Usage=FLASHONLY|Rotation=72.000|XOffset=0mil|YOffset=0mil|HoleType=Round|Shape=Rectangle|*
%AMROTATEDRECTD45*
4,1,4,0.02223,-0.01248,-0.02532,0.00297,-0.02223,0.01248,0.02532,-0.00297,0.02223,-0.01248,0.0*
%
%ADD45ROTATEDRECTD45*%

%ADD46R,0.01000X0.05000*%
%ADD47C,0.03000*%
%ADD48C,0.15800*%
%ADD49C,0.14900*%
%ADD50C,0.06000*%
%ADD51C,0.26000*%
%ADD52C,0.08661*%
%ADD53C,0.05000*%
%ADD54R,0.05906X0.05906*%
%ADD55C,0.05906*%
G04:AMPARAMS|DCode=56|XSize=86.61mil|YSize=70.87mil|CornerRadius=0mil|HoleSize=0mil|Usage=FLASHONLY|Rotation=79.100|XOffset=0mil|YOffset=0mil|HoleType=Round|Shape=Round|*
%AMOVALD56*
21,1,0.01575,0.07087,0.00000,0.00000,79.1*
1,1,0.07087,-0.00149,-0.00773*
1,1,0.07087,0.00149,0.00773*
%
%ADD56OVALD56*%

%ADD57C,0.03500*%
%ADD58C,0.02700*%
%ADD59C,0.02598*%
%ADD60R,0.06693X0.01378*%
%ADD61R,0.05906X0.02362*%
%ADD62R,0.05512X0.04724*%
%ADD63R,0.03543X0.03150*%
%ADD64R,0.07087X0.04724*%
%ADD65R,0.03150X0.03543*%
%ADD66R,0.08661X0.07480*%
%ADD67O,0.01496X0.06299*%
%ADD68R,0.03937X0.04429*%
%ADD69R,0.06299X0.05118*%
%ADD70R,0.02913X0.11004*%
%ADD71R,0.04724X0.05512*%
%ADD72R,0.01142X0.06890*%
%ADD73R,0.06890X0.01142*%
%ADD74R,0.06496X0.01142*%
%ADD75R,0.01142X0.06496*%
%ADD76O,0.03347X0.00984*%
%ADD77O,0.00984X0.03347*%
%ADD78R,0.14173X0.14173*%
%ADD79O,0.00984X0.03150*%
%ADD80O,0.03150X0.00984*%
%ADD81R,0.02362X0.05906*%
%ADD82R,0.01732X0.05394*%
%ADD83C,0.02913*%
%ADD84C,0.02914*%
%ADD85R,0.07500X0.06000*%
G36*
X239776Y411132D02*
Y399000D01*
X239870Y398532D01*
X240135Y398135D01*
X243635Y394635D01*
X244032Y394370D01*
X244500Y394276D01*
X244831D01*
X245035Y393607D01*
X244950Y393550D01*
X244475Y392839D01*
X244407Y392500D01*
X248593D01*
X248525Y392839D01*
X248050Y393550D01*
X247965Y393607D01*
X248169Y394276D01*
X251867D01*
X251936Y393580D01*
X251661Y393525D01*
X250950Y393050D01*
X250475Y392339D01*
X250407Y392000D01*
X252500D01*
Y391500D01*
X253000D01*
Y389407D01*
X253339Y389475D01*
X254050Y389950D01*
X254525Y390661D01*
X254549Y390780D01*
X255246Y390712D01*
Y389851D01*
X252387Y387073D01*
X251543D01*
X251071Y386979D01*
X248631D01*
Y389072D01*
X244275D01*
Y383928D01*
X244759D01*
X244824Y383830D01*
X245051Y383282D01*
X244500Y383100D01*
D01*
X243505Y382902D01*
X242661Y382339D01*
X242098Y381495D01*
X242040Y381204D01*
X241354Y381068D01*
X240839Y381838D01*
X239995Y382402D01*
X239000Y382600D01*
X238005Y382402D01*
X237161Y381838D01*
X236598Y380995D01*
X236400Y380000D01*
X236598Y379005D01*
X237161Y378162D01*
X237713Y377793D01*
X237509Y377123D01*
X233607D01*
X232000Y378730D01*
Y383674D01*
X232617Y384004D01*
X232661Y383975D01*
X233500Y383808D01*
X234339Y383975D01*
X235050Y384450D01*
X235525Y385161D01*
X235548Y385277D01*
X238369D01*
Y383928D01*
X242725D01*
Y389072D01*
X238369D01*
Y387723D01*
X234790D01*
X234339Y388025D01*
X233500Y388192D01*
X232661Y388025D01*
X232617Y387996D01*
X232000Y388326D01*
Y404270D01*
X239130Y411400D01*
X239776Y411132D01*
D02*
G37*
G36*
X277184Y415357D02*
X277115Y414661D01*
X276950Y414550D01*
X276475Y413839D01*
X276407Y413500D01*
X280593D01*
X280525Y413839D01*
X280240Y414265D01*
X280478Y414709D01*
X281170Y414812D01*
X283631Y412351D01*
X283624Y412315D01*
X283431Y411678D01*
X282661Y411525D01*
X281950Y411050D01*
X281475Y410339D01*
X281308Y409500D01*
X281475Y408661D01*
X281950Y407950D01*
X282661Y407475D01*
X282668Y407473D01*
X282804Y406787D01*
X282450Y406550D01*
X281975Y405839D01*
X281808Y405000D01*
X281975Y404161D01*
X282450Y403450D01*
X283161Y402975D01*
X284000Y402808D01*
X284802Y402968D01*
X292135Y395635D01*
X292532Y395370D01*
X293000Y395276D01*
X294500D01*
Y382492D01*
X293883Y382162D01*
X293339Y382525D01*
X292500Y382692D01*
X291661Y382525D01*
X290995Y382080D01*
X290450D01*
Y382284D01*
X290000D01*
Y387500D01*
X286450D01*
Y388079D01*
X284468D01*
Y389079D01*
X286450D01*
Y390363D01*
D01*
Y390363D01*
X286450Y390363D01*
Y390716D01*
X286450D01*
Y392000D01*
X284468D01*
Y393000D01*
X286450D01*
Y394284D01*
X285476D01*
X285339Y394975D01*
X286050Y395450D01*
X286525Y396161D01*
X286593Y396500D01*
X284500D01*
Y397000D01*
X284000D01*
Y399093D01*
X283661Y399025D01*
X282950Y398550D01*
X282600Y398026D01*
X281900D01*
X281550Y398550D01*
X280839Y399025D01*
X280500Y399093D01*
Y397000D01*
X280000D01*
Y396500D01*
X277907D01*
X277975Y396161D01*
X278450Y395450D01*
X279161Y394975D01*
X279024Y394284D01*
X278550D01*
Y394000D01*
X274326D01*
X274000Y394610D01*
Y393609D01*
X273635Y393365D01*
X270135Y389865D01*
X269870Y389468D01*
X269777Y389000D01*
Y387519D01*
X269758Y387500D01*
X266000D01*
Y392252D01*
X266177Y392428D01*
X269131D01*
Y393000D01*
X269500D01*
Y396945D01*
X270025Y397408D01*
X273611Y396959D01*
X273550Y397050D01*
X273348Y397185D01*
X273285Y397882D01*
X273920Y398500D01*
X273920Y398500D01*
X274292Y398882D01*
X275217D01*
Y399914D01*
X278000D01*
X278468Y400007D01*
X278865Y400273D01*
X279546Y400954D01*
X279812Y401351D01*
X279905Y401819D01*
Y402369D01*
X280465D01*
Y406306D01*
Y407787D01*
X276897D01*
Y406306D01*
Y402369D01*
D01*
Y402369D01*
X276889Y402361D01*
X275217D01*
Y405207D01*
X273685D01*
Y405937D01*
X266268D01*
X264224Y407924D01*
Y409000D01*
X264130Y409468D01*
X263865Y409865D01*
X263116Y410614D01*
Y414500D01*
X259469D01*
Y414755D01*
X250783D01*
Y414500D01*
X247167D01*
X246652Y414000D01*
X247041Y413622D01*
Y411210D01*
X245216D01*
Y407247D01*
Y405791D01*
X247000D01*
Y404791D01*
X245216D01*
Y403602D01*
X245000Y403424D01*
Y401000D01*
Y398907D01*
X245339Y398975D01*
X246050Y399450D01*
X246450D01*
X247161Y398975D01*
X247500Y398907D01*
Y401000D01*
X248500D01*
Y398907D01*
X248839Y398975D01*
X249550Y399450D01*
X250025Y400161D01*
X250086Y400467D01*
X250783Y400398D01*
Y398982D01*
X254626D01*
Y402144D01*
X255626D01*
Y398982D01*
X259469D01*
Y398982D01*
X259534D01*
X260029Y398487D01*
Y397572D01*
X258869D01*
Y393396D01*
X258286Y393009D01*
X257786Y393220D01*
Y393937D01*
X257693Y394405D01*
X257587Y394564D01*
X257428Y394802D01*
X255865Y396365D01*
X255468Y396630D01*
X255000Y396724D01*
X245007D01*
X243383Y398347D01*
X243713Y398964D01*
X244000Y398907D01*
Y401000D01*
Y403093D01*
X243661Y403025D01*
X242950Y402550D01*
X242893Y402465D01*
X242224Y402669D01*
Y411993D01*
X248507Y418277D01*
X257500D01*
X257968Y418370D01*
X258365Y418635D01*
X260907Y421176D01*
X271365D01*
X277184Y415357D01*
D02*
G37*
G36*
X235123Y347647D02*
X234855Y347000D01*
X232095D01*
X224014Y355081D01*
Y357841D01*
X224661Y358108D01*
X235123Y347647D01*
D02*
G37*
G36*
X240662Y423162D02*
X241505Y422598D01*
X242500Y422400D01*
X242778Y422455D01*
X243108Y421838D01*
X228311Y407042D01*
X228046Y406645D01*
X227953Y406177D01*
Y377324D01*
X228046Y376855D01*
X228311Y376458D01*
X231335Y373435D01*
X231732Y373170D01*
X232200Y373077D01*
X247831D01*
X248299Y373170D01*
X248696Y373435D01*
X249839Y374578D01*
X250457Y374248D01*
X250407Y374000D01*
X252500D01*
Y373000D01*
X250407D01*
X250475Y372661D01*
X250950Y371950D01*
X251514Y371573D01*
Y370124D01*
X251514D01*
X251514D01*
Y369776D01*
X251797Y369500D01*
X252158Y369851D01*
D01*
D01*
X252158Y369851D01*
X252158Y369851D01*
X252312Y370000D01*
X253716D01*
Y366987D01*
Y365495D01*
X253050Y365050D01*
X252339Y365525D01*
X252000Y365593D01*
Y363500D01*
Y361407D01*
X252339Y361475D01*
X253050Y361950D01*
X253525Y362661D01*
X253603Y363050D01*
X253716D01*
X253716D01*
X255000Y363050D01*
Y365031D01*
X256000D01*
Y363050D01*
X257050D01*
Y360056D01*
X251688D01*
Y358590D01*
X249990D01*
X249339Y359025D01*
X248500Y359192D01*
X247661Y359025D01*
X246950Y358550D01*
X246475Y357839D01*
X246308Y357000D01*
X246475Y356161D01*
X246950Y355450D01*
X247385Y355160D01*
X247522Y355022D01*
X247522Y355022D01*
X248200Y354569D01*
X249000Y354410D01*
X249000Y354410D01*
X251688D01*
Y352944D01*
X264312D01*
Y359716D01*
X264950D01*
Y361000D01*
X262969D01*
Y362000D01*
X264950D01*
Y363284D01*
X264949D01*
Y364000D01*
X265928D01*
Y363047D01*
X271072D01*
Y364725D01*
X270833D01*
Y366275D01*
X271072D01*
Y370631D01*
X271072D01*
X271072Y371232D01*
X271862Y372000D01*
X272377Y371500D01*
X286716D01*
Y371050D01*
X287241D01*
X287444Y370380D01*
X286950Y370050D01*
X286475Y369339D01*
X286407Y369000D01*
X290593D01*
X290525Y369339D01*
X290050Y370050D01*
X289556Y370380D01*
X289759Y371050D01*
X290091D01*
X290000Y371172D01*
Y374988D01*
X290284D01*
Y378716D01*
X290450D01*
Y378920D01*
X290995D01*
X291661Y378475D01*
X292500Y378308D01*
X293339Y378475D01*
X293883Y378838D01*
X294500Y378508D01*
Y370676D01*
Y354730D01*
X286770Y347000D01*
X244730D01*
X244365Y347365D01*
X243968Y347630D01*
X243500Y347724D01*
X238507D01*
X225238Y360992D01*
Y380481D01*
X225565Y380699D01*
X226040Y381410D01*
X226207Y382249D01*
X226040Y383088D01*
X225565Y383799D01*
X224853Y384275D01*
X224014Y384441D01*
Y424000D01*
X231527D01*
X231857Y423383D01*
X231598Y422995D01*
X231400Y422000D01*
X231598Y421005D01*
X232161Y420161D01*
X233005Y419598D01*
X234000Y419400D01*
X234995Y419598D01*
X235839Y420161D01*
X236402Y421005D01*
X236600Y422000D01*
X236402Y422995D01*
X236143Y423383D01*
X236473Y424000D01*
X240101D01*
X240662Y423162D01*
D02*
G37*
%LPC*%
G36*
X282000Y365093D02*
Y363500D01*
X283593D01*
X283525Y363839D01*
X283050Y364550D01*
X282339Y365025D01*
X282000Y365093D01*
D02*
G37*
G36*
X289000D02*
Y363500D01*
X290593D01*
X290525Y363839D01*
X290050Y364550D01*
X289339Y365025D01*
X289000Y365093D01*
D02*
G37*
G36*
X288000D02*
X287661Y365025D01*
X286950Y364550D01*
X286475Y363839D01*
X286407Y363500D01*
X288000D01*
Y365093D01*
D02*
G37*
G36*
X273500D02*
X273161Y365025D01*
X272450Y364550D01*
X271975Y363839D01*
X271907Y363500D01*
X273500D01*
Y365093D01*
D02*
G37*
G36*
X231250D02*
Y363500D01*
X232843D01*
X232775Y363839D01*
X232300Y364550D01*
X231589Y365025D01*
X231250Y365093D01*
D02*
G37*
G36*
X281000D02*
X280661Y365025D01*
X279950Y364550D01*
X279475Y363839D01*
X279407Y363500D01*
X281000D01*
Y365093D01*
D02*
G37*
G36*
X274500D02*
Y363500D01*
X276093D01*
X276025Y363839D01*
X275550Y364550D01*
X274839Y365025D01*
X274500Y365093D01*
D02*
G37*
G36*
X276093Y368000D02*
X274500D01*
Y366407D01*
X274839Y366475D01*
X275550Y366950D01*
X276025Y367661D01*
X276093Y368000D01*
D02*
G37*
G36*
X273500D02*
X271907D01*
X271975Y367661D01*
X272450Y366950D01*
X273161Y366475D01*
X273500Y366407D01*
Y368000D01*
D02*
G37*
G36*
X283593D02*
X282000D01*
Y366407D01*
X282339Y366475D01*
X283050Y366950D01*
X283525Y367661D01*
X283593Y368000D01*
D02*
G37*
G36*
X281000D02*
X279407D01*
X279475Y367661D01*
X279950Y366950D01*
X280661Y366475D01*
X281000Y366407D01*
Y368000D01*
D02*
G37*
G36*
X251000Y365593D02*
X250661Y365525D01*
X249950Y365050D01*
X249475Y364339D01*
X249407Y364000D01*
X251000D01*
Y365593D01*
D02*
G37*
G36*
X238250D02*
Y364000D01*
X239843D01*
X239775Y364339D01*
X239300Y365050D01*
X238589Y365525D01*
X238250Y365593D01*
D02*
G37*
G36*
X237250D02*
X236911Y365525D01*
X236200Y365050D01*
X235725Y364339D01*
X235657Y364000D01*
X237250D01*
Y365593D01*
D02*
G37*
G36*
X245250D02*
Y364000D01*
X246843D01*
X246775Y364339D01*
X246300Y365050D01*
X245589Y365525D01*
X245250Y365593D01*
D02*
G37*
G36*
X244250D02*
X243911Y365525D01*
X243200Y365050D01*
X242725Y364339D01*
X242657Y364000D01*
X244250D01*
Y365593D01*
D02*
G37*
G36*
X276093Y362500D02*
X274500D01*
Y360907D01*
X274839Y360975D01*
X275550Y361450D01*
X276025Y362161D01*
X276093Y362500D01*
D02*
G37*
G36*
X273500D02*
X271907D01*
X271975Y362161D01*
X272450Y361450D01*
X273161Y360975D01*
X273500Y360907D01*
Y362500D01*
D02*
G37*
G36*
X283593D02*
X282000D01*
Y360907D01*
X282339Y360975D01*
X283050Y361450D01*
X283525Y362161D01*
X283593Y362500D01*
D02*
G37*
G36*
X281000D02*
X279407D01*
X279475Y362161D01*
X279950Y361450D01*
X280661Y360975D01*
X281000Y360907D01*
Y362500D01*
D02*
G37*
G36*
X271072Y362047D02*
X269000D01*
Y360369D01*
X271072D01*
Y362047D01*
D02*
G37*
G36*
X268000D02*
X265928D01*
Y360369D01*
X268000D01*
Y362047D01*
D02*
G37*
G36*
X232843Y362500D02*
X231250D01*
Y360907D01*
X231589Y360975D01*
X232300Y361450D01*
X232775Y362161D01*
X232843Y362500D01*
D02*
G37*
G36*
X230250D02*
X228657D01*
X228725Y362161D01*
X229200Y361450D01*
X229911Y360975D01*
X230250Y360907D01*
Y362500D01*
D02*
G37*
G36*
X246843Y363000D02*
X245250D01*
Y361407D01*
X245589Y361475D01*
X246300Y361950D01*
X246775Y362661D01*
X246843Y363000D01*
D02*
G37*
G36*
X244250D02*
X242657D01*
X242725Y362661D01*
X243200Y361950D01*
X243911Y361475D01*
X244250Y361407D01*
Y363000D01*
D02*
G37*
G36*
X230250Y365093D02*
X229911Y365025D01*
X229200Y364550D01*
X228725Y363839D01*
X228657Y363500D01*
X230250D01*
Y365093D01*
D02*
G37*
G36*
X251000Y363000D02*
X249407D01*
X249475Y362661D01*
X249950Y361950D01*
X250661Y361475D01*
X251000Y361407D01*
Y363000D01*
D02*
G37*
G36*
X290593Y362500D02*
X289000D01*
Y360907D01*
X289339Y360975D01*
X290050Y361450D01*
X290525Y362161D01*
X290593Y362500D01*
D02*
G37*
G36*
X288000D02*
X286407D01*
X286475Y362161D01*
X286950Y361450D01*
X287661Y360975D01*
X288000Y360907D01*
Y362500D01*
D02*
G37*
G36*
X239843Y363000D02*
X238250D01*
Y361407D01*
X238589Y361475D01*
X239300Y361950D01*
X239775Y362661D01*
X239843Y363000D01*
D02*
G37*
G36*
X237250D02*
X235657D01*
X235725Y362661D01*
X236200Y361950D01*
X236911Y361475D01*
X237250Y361407D01*
Y363000D01*
D02*
G37*
G36*
X288000Y368000D02*
X286407D01*
X286475Y367661D01*
X286950Y366950D01*
X287661Y366475D01*
X288000Y366407D01*
Y368000D01*
D02*
G37*
G36*
X279500Y399093D02*
X279161Y399025D01*
X278450Y398550D01*
X277975Y397839D01*
X277907Y397500D01*
X279500D01*
Y399093D01*
D02*
G37*
G36*
X274000Y396377D02*
Y396000D01*
X274093D01*
X274025Y396339D01*
X274000Y396377D01*
D02*
G37*
G36*
X270374Y410993D02*
X266531D01*
Y408331D01*
X270374D01*
Y410993D01*
D02*
G37*
G36*
X285000Y399093D02*
Y397500D01*
X286593D01*
X286525Y397839D01*
X286050Y398550D01*
X285339Y399025D01*
X285000Y399093D01*
D02*
G37*
G36*
X246000Y391500D02*
X244407D01*
X244475Y391161D01*
X244950Y390450D01*
X245661Y389975D01*
X246000Y389907D01*
Y391500D01*
D02*
G37*
G36*
X252000Y391000D02*
X250407D01*
X250475Y390661D01*
X250950Y389950D01*
X251661Y389475D01*
X252000Y389407D01*
Y391000D01*
D02*
G37*
G36*
X274093Y395000D02*
X274000D01*
Y394623D01*
X274025Y394661D01*
X274093Y395000D01*
D02*
G37*
G36*
X248593Y391500D02*
X247000D01*
Y389907D01*
X247339Y389975D01*
X248050Y390450D01*
X248525Y391161D01*
X248593Y391500D01*
D02*
G37*
G36*
X272593Y417319D02*
X271000D01*
Y415726D01*
X271339Y415794D01*
X272050Y416269D01*
X272525Y416980D01*
X272593Y417319D01*
D02*
G37*
G36*
X270000D02*
X268407D01*
X268475Y416980D01*
X268950Y416269D01*
X269661Y415794D01*
X270000Y415726D01*
Y417319D01*
D02*
G37*
G36*
X271000Y419912D02*
Y418319D01*
X272593D01*
X272525Y418658D01*
X272050Y419369D01*
X271339Y419844D01*
X271000Y419912D01*
D02*
G37*
G36*
X270000D02*
X269661Y419844D01*
X268950Y419369D01*
X268475Y418658D01*
X268407Y418319D01*
X270000D01*
Y419912D01*
D02*
G37*
G36*
X280593Y412500D02*
X276407D01*
X276475Y412161D01*
X276950Y411450D01*
X277661Y410975D01*
X277710Y410965D01*
X277641Y410268D01*
X276897D01*
Y408787D01*
X280465D01*
Y410268D01*
X279359D01*
X279290Y410965D01*
X279339Y410975D01*
X280050Y411450D01*
X280525Y412161D01*
X280593Y412500D01*
D02*
G37*
G36*
X275217Y410993D02*
X271374D01*
Y408331D01*
X275217D01*
Y410993D01*
D02*
G37*
G36*
Y414655D02*
X271374D01*
Y411993D01*
X275217D01*
Y414655D01*
D02*
G37*
G36*
X270374D02*
X266531D01*
Y411993D01*
X270374D01*
Y414655D01*
D02*
G37*
G36*
X245000Y372093D02*
Y370500D01*
X246593D01*
X246525Y370839D01*
X246050Y371550D01*
X245339Y372025D01*
X245000Y372093D01*
D02*
G37*
G36*
X244000Y369500D02*
X242407D01*
X242475Y369161D01*
X242950Y368450D01*
X243661Y367975D01*
X244000Y367907D01*
Y369500D01*
D02*
G37*
G36*
X239593D02*
X238000D01*
Y367907D01*
X238339Y367975D01*
X239050Y368450D01*
X239525Y369161D01*
X239593Y369500D01*
D02*
G37*
G36*
X273500Y370593D02*
X273161Y370525D01*
X272450Y370050D01*
X271975Y369339D01*
X271907Y369000D01*
X273500D01*
Y370593D01*
D02*
G37*
G36*
X246593Y369500D02*
X245000D01*
Y367907D01*
X245339Y367975D01*
X246050Y368450D01*
X246525Y369161D01*
X246593Y369500D01*
D02*
G37*
G36*
X230000Y369000D02*
X228407D01*
X228475Y368661D01*
X228950Y367950D01*
X229661Y367475D01*
X230000Y367407D01*
Y369000D01*
D02*
G37*
G36*
X290593Y368000D02*
X289000D01*
Y366407D01*
X289339Y366475D01*
X290050Y366950D01*
X290525Y367661D01*
X290593Y368000D01*
D02*
G37*
G36*
X237000Y369500D02*
X235407D01*
X235475Y369161D01*
X235950Y368450D01*
X236661Y367975D01*
X237000Y367907D01*
Y369500D01*
D02*
G37*
G36*
X232593Y369000D02*
X231000D01*
Y367407D01*
X231339Y367475D01*
X232050Y367950D01*
X232525Y368661D01*
X232593Y369000D01*
D02*
G37*
G36*
X237000Y372093D02*
X236661Y372025D01*
X235950Y371550D01*
X235475Y370839D01*
X235407Y370500D01*
X237000D01*
Y372093D01*
D02*
G37*
G36*
X231000Y371593D02*
Y370000D01*
X232593D01*
X232525Y370339D01*
X232050Y371050D01*
X231339Y371525D01*
X231000Y371593D01*
D02*
G37*
G36*
X244000Y372093D02*
X243661Y372025D01*
X242950Y371550D01*
X242475Y370839D01*
X242407Y370500D01*
X244000D01*
Y372093D01*
D02*
G37*
G36*
X238000D02*
Y370500D01*
X239593D01*
X239525Y370839D01*
X239050Y371550D01*
X238339Y372025D01*
X238000Y372093D01*
D02*
G37*
G36*
X281000Y370593D02*
X280661Y370525D01*
X279950Y370050D01*
X279475Y369339D01*
X279407Y369000D01*
X281000D01*
Y370593D01*
D02*
G37*
G36*
X274500D02*
Y369000D01*
X276093D01*
X276025Y369339D01*
X275550Y370050D01*
X274839Y370525D01*
X274500Y370593D01*
D02*
G37*
G36*
X230000Y371593D02*
X229661Y371525D01*
X228950Y371050D01*
X228475Y370339D01*
X228407Y370000D01*
X230000D01*
Y371593D01*
D02*
G37*
G36*
X282000Y370593D02*
Y369000D01*
X283593D01*
X283525Y369339D01*
X283050Y370050D01*
X282339Y370525D01*
X282000Y370593D01*
D02*
G37*
%LPD*%
D10*
X288468Y377000D02*
X288500Y376969D01*
X288468Y377000D02*
Y380500D01*
X369164Y380350D02*
X370003Y381189D01*
X353850Y380350D02*
X369164D01*
X370003Y383592D02*
Y387239D01*
X365850Y391392D02*
Y424417D01*
Y391392D02*
X370003Y387239D01*
X361500Y428767D02*
X365850Y424417D01*
X355086Y362381D02*
X358500D01*
X353056Y360350D02*
X355086Y362381D01*
X353056Y356056D02*
Y360350D01*
X346000Y372500D02*
X353850Y380350D01*
X272000Y463000D02*
Y482505D01*
X370003Y381189D02*
Y383592D01*
X370003Y383592D02*
X370003Y383592D01*
X346000Y365805D02*
Y372500D01*
X340695Y360500D02*
X346000Y365805D01*
X327500Y360500D02*
X340695D01*
X325600Y358600D02*
X327500Y360500D01*
X288468Y380500D02*
X292500D01*
X277000Y462706D02*
X286206Y453500D01*
X277000Y462706D02*
Y481000D01*
X312600Y516600D01*
X274500Y461953D02*
Y481753D01*
X317347Y524600D01*
X272000Y482505D02*
X324995Y535500D01*
X274500Y461953D02*
X285253Y451200D01*
X283453Y462953D02*
X288000D01*
X290500Y445500D02*
X292043Y443957D01*
X290100Y445900D02*
X290500Y445500D01*
X290100Y445900D02*
Y449900D01*
X288800Y451200D02*
X290100Y449900D01*
X285253Y451200D02*
X288800D01*
X302839Y443957D02*
X303200Y444318D01*
Y452300D01*
X302000Y453500D02*
X303200Y452300D01*
X286206Y453500D02*
X302000D01*
X292856Y449856D02*
X293000Y450000D01*
X292501D02*
X296531D01*
X300279Y436279D02*
Y443957D01*
Y449811D02*
X300469Y450000D01*
X300279Y443957D02*
Y449811D01*
X296531Y450000D02*
X297721Y448811D01*
Y443957D02*
Y448811D01*
X425000Y548547D02*
X425000Y548547D01*
Y535002D02*
Y548547D01*
X490200Y461700D02*
X493300D01*
X355500Y248000D02*
Y251000D01*
X351000Y255500D02*
X355000D01*
X328980Y272520D02*
Y276969D01*
Y272520D02*
X330500Y271000D01*
X335500D01*
X347000Y275650D02*
Y280500D01*
X339000Y253051D02*
X339020Y253031D01*
X339000Y253051D02*
Y262500D01*
X361500Y436667D02*
X366450Y441617D01*
X361500Y428767D02*
Y436667D01*
X500886Y297000D02*
X525167D01*
X564927Y457461D02*
X573900D01*
X543000Y292500D02*
Y297500D01*
X498739Y248239D02*
X543000Y292500D01*
X478467Y493500D02*
X484500Y499533D01*
X471000Y493500D02*
X478467D01*
X529186Y522114D02*
X535836Y528764D01*
X533500Y306723D02*
X555388Y328611D01*
X533500Y305333D02*
Y306723D01*
X525167Y297000D02*
X533500Y305333D01*
X576600Y374630D02*
X580000Y371230D01*
Y345400D02*
Y371230D01*
X567700Y333100D02*
X580000Y345400D01*
X576600Y418800D02*
X579000Y421200D01*
Y429000D01*
X417500Y558500D02*
X420200Y555800D01*
Y542900D02*
Y555800D01*
X368500Y498167D02*
Y501500D01*
X363600Y493267D02*
X368500Y498167D01*
X366450Y441617D02*
Y483292D01*
X425050Y504550D02*
X426500Y503100D01*
Y500300D02*
Y503100D01*
X363600Y486142D02*
Y493267D01*
Y486142D02*
X366450Y483292D01*
X550300Y474100D02*
Y477700D01*
X545800Y482200D02*
X550300Y477700D01*
X542067Y482200D02*
X545800D01*
X556411Y328611D02*
X561100Y333300D01*
X555388Y328611D02*
X556411D01*
X576600Y374630D02*
Y418800D01*
X269500Y303953D02*
Y308000D01*
X354500Y247000D02*
X355500Y248000D01*
X354500Y236328D02*
Y247000D01*
X448500Y232547D02*
X455577Y239623D01*
X465977D01*
X484500Y499533D02*
Y510000D01*
X526100Y505800D02*
X528000Y503900D01*
Y496182D02*
Y503900D01*
X425050Y504550D02*
Y518948D01*
X469800Y235600D02*
X482100D01*
X528000Y496182D02*
X539782Y484400D01*
X561300Y333100D02*
X567700D01*
X466819Y238581D02*
X469800Y235600D01*
X359600Y228700D02*
Y233904D01*
X362500Y236804D01*
Y250547D01*
X470037Y402277D02*
Y409037D01*
X539867Y484400D02*
X542067Y482200D01*
X530750Y355550D02*
X533000Y357800D01*
Y373900D01*
X425000Y518998D02*
Y535002D01*
X327422Y426578D02*
Y430373D01*
X299000Y435000D02*
X300279Y436279D01*
X292043Y443957D02*
X295161D01*
X345843Y447557D02*
Y452573D01*
X482100Y235600D02*
X489750Y243250D01*
X543000Y298000D02*
X557500Y312500D01*
Y324000D01*
X435500Y227000D02*
X443000D01*
X448500Y232500D01*
X489750Y243250D02*
Y285864D01*
X500886Y297000D01*
X355842Y256453D02*
X362500D01*
X312600Y516600D02*
X341800D01*
X317347Y524600D02*
X341800D01*
X331500Y535500D02*
X341000Y545000D01*
X324995Y535500D02*
X331500D01*
X335500Y271000D02*
X351000Y255500D01*
X325600Y301900D02*
Y358600D01*
Y301900D02*
X347000Y280500D01*
X328200Y332000D02*
X329000Y332800D01*
X533000Y373900D02*
X555600D01*
X523804Y505700D02*
X526100Y505800D01*
D11*
X600000Y200000D02*
D03*
X200000Y600000D02*
D03*
D14*
X442147Y268400D02*
D03*
X448053D02*
D03*
X447953Y263400D02*
D03*
X442047D02*
D03*
X438553Y268400D02*
D03*
X432647D02*
D03*
X342953Y439000D02*
D03*
X337047D02*
D03*
X316447Y438900D02*
D03*
X322353D02*
D03*
X363247Y354300D02*
D03*
X369153D02*
D03*
X334853Y487200D02*
D03*
X328947D02*
D03*
X438453Y263400D02*
D03*
X432547D02*
D03*
Y253000D02*
D03*
X438453D02*
D03*
X465047Y390500D02*
D03*
X470953D02*
D03*
X261047Y395000D02*
D03*
X266953D02*
D03*
X442547Y258500D02*
D03*
X448453D02*
D03*
X392453Y405000D02*
D03*
X386547D02*
D03*
X396453Y385500D02*
D03*
X390547D02*
D03*
X403547Y414500D02*
D03*
X409453D02*
D03*
Y385500D02*
D03*
X403547D02*
D03*
X390547Y414500D02*
D03*
X396453D02*
D03*
X414047Y228500D02*
D03*
X419953D02*
D03*
X507047Y446000D02*
D03*
X512953D02*
D03*
X432547Y277100D02*
D03*
X438453D02*
D03*
X447953Y277100D02*
D03*
X442047D02*
D03*
X338453Y355500D02*
D03*
X332547D02*
D03*
X246453Y386500D02*
D03*
X240547D02*
D03*
X514953Y428500D02*
D03*
X509047D02*
D03*
X355547Y366500D02*
D03*
X361453D02*
D03*
X355547Y371500D02*
D03*
X361453D02*
D03*
X327047Y421000D02*
D03*
X332953D02*
D03*
X504953Y395500D02*
D03*
X499047D02*
D03*
D19*
X343000Y423147D02*
D03*
Y429053D02*
D03*
X338500Y420453D02*
D03*
Y414547D02*
D03*
X281500Y477953D02*
D03*
Y472047D02*
D03*
X317500Y422547D02*
D03*
Y428453D02*
D03*
X478500Y507547D02*
D03*
Y513453D02*
D03*
X322500Y420453D02*
D03*
Y414547D02*
D03*
X333000Y434047D02*
D03*
Y439953D02*
D03*
X408200Y403053D02*
D03*
Y397147D02*
D03*
X538300Y367947D02*
D03*
Y373853D02*
D03*
X542800Y367947D02*
D03*
Y373853D02*
D03*
X547300Y367947D02*
D03*
Y373853D02*
D03*
X551800Y367947D02*
D03*
Y373853D02*
D03*
X265000Y512953D02*
D03*
Y507047D02*
D03*
X269500Y298047D02*
D03*
Y303953D02*
D03*
X251500Y427047D02*
D03*
Y432953D02*
D03*
X233500Y426547D02*
D03*
Y432453D02*
D03*
X375000Y247047D02*
D03*
Y252953D02*
D03*
X370000Y247047D02*
D03*
Y252953D02*
D03*
X362500Y250547D02*
D03*
Y256453D02*
D03*
X445000Y494453D02*
D03*
Y488547D02*
D03*
X556500Y368047D02*
D03*
Y373953D02*
D03*
X424500Y243953D02*
D03*
Y238047D02*
D03*
X413500Y243953D02*
D03*
Y238047D02*
D03*
X425000Y554453D02*
D03*
Y548547D02*
D03*
X288000Y457047D02*
D03*
Y462953D02*
D03*
X268500Y362547D02*
D03*
Y368453D02*
D03*
D26*
X331469Y426500D02*
D03*
X327531D02*
D03*
X290832Y482300D02*
D03*
X294769D02*
D03*
X344031Y482500D02*
D03*
X347969D02*
D03*
X388469Y244000D02*
D03*
X384531D02*
D03*
X277031Y380500D02*
D03*
X280969D02*
D03*
X284531D02*
D03*
X288468D02*
D03*
X280531Y392500D02*
D03*
X284468D02*
D03*
X280531Y388579D02*
D03*
X284468D02*
D03*
X259031Y361500D02*
D03*
X262969D02*
D03*
X355468Y251000D02*
D03*
X351531D02*
D03*
X425031Y447500D02*
D03*
X428968D02*
D03*
X503531Y434500D02*
D03*
X507469D02*
D03*
X478969Y393000D02*
D03*
X475031D02*
D03*
X297031Y472500D02*
D03*
X300969D02*
D03*
X300469Y450000D02*
D03*
X296531D02*
D03*
X262968Y365000D02*
D03*
X259031D02*
D03*
D27*
X325800Y435432D02*
D03*
Y439369D02*
D03*
X346600Y438869D02*
D03*
Y434931D02*
D03*
X312900Y438869D02*
D03*
Y434931D02*
D03*
X328800Y435432D02*
D03*
Y439369D02*
D03*
X318000Y503468D02*
D03*
Y499531D02*
D03*
X512000Y470031D02*
D03*
Y473969D02*
D03*
X479500Y474531D02*
D03*
Y478469D02*
D03*
X273000Y384468D02*
D03*
Y380531D02*
D03*
X247000Y409229D02*
D03*
Y405291D02*
D03*
X278681Y404350D02*
D03*
Y408287D02*
D03*
X288500Y376969D02*
D03*
Y373031D02*
D03*
X255500Y368969D02*
D03*
Y365031D02*
D03*
X351500Y477031D02*
D03*
Y480969D02*
D03*
X417500Y239032D02*
D03*
Y242969D02*
D03*
X420500Y239032D02*
D03*
Y242969D02*
D03*
X515500Y420031D02*
D03*
Y423969D02*
D03*
X348000Y494532D02*
D03*
Y498469D02*
D03*
X276500Y384531D02*
D03*
Y388469D02*
D03*
D37*
X278165Y416106D02*
X281606D01*
X271872Y422400D02*
X278165Y416106D01*
X260400Y422400D02*
X271872D01*
X257500Y419500D02*
X260400Y422400D01*
X248000Y419500D02*
X257500D01*
X258500Y424000D02*
X276000D01*
X255618Y421118D02*
X258500Y424000D01*
X247118Y421118D02*
X255618D01*
X254000Y423000D02*
X259000Y428000D01*
X246000Y423000D02*
X254000D01*
X259000Y428000D02*
X272772D01*
X255047Y427047D02*
X258000Y430000D01*
X251500Y427047D02*
X255047D01*
X241000Y412500D02*
X248000Y419500D01*
X241000Y399000D02*
Y412500D01*
X230777Y404776D02*
X247118Y421118D01*
X230777Y378223D02*
Y404776D01*
X229176Y406177D02*
X246000Y423000D01*
X229176Y377324D02*
Y406177D01*
X242500Y425000D02*
Y432106D01*
X255000Y395500D02*
X256563Y393937D01*
X244500Y395500D02*
X255000D01*
X241000Y399000D02*
X244500Y395500D01*
X251500Y363500D02*
X253031Y365031D01*
X255500D01*
X329431Y376031D02*
X335531D01*
X319900Y366500D02*
X329431Y376031D01*
X259031Y361500D02*
Y365000D01*
X233500Y386000D02*
Y386192D01*
X233808Y386500D01*
X236000D01*
X233100Y375900D02*
X247168D01*
X230777Y378223D02*
X233100Y375900D01*
X229176Y377324D02*
X232200Y374300D01*
X238000Y346500D02*
X243500D01*
X224014Y360486D02*
X238000Y346500D01*
X224014Y360486D02*
Y382249D01*
X264500Y379850D02*
X268276D01*
X260500Y386543D02*
X262319Y384724D01*
X258624Y518124D02*
X267776D01*
X247400Y456400D02*
Y494900D01*
X251500Y511000D02*
X258624Y518124D01*
X251500Y499000D02*
Y511000D01*
X247400Y494900D02*
X251500Y499000D01*
X246950Y456400D02*
X247400D01*
X263950Y485950D02*
X270000Y492000D01*
X268500Y502000D02*
X269950Y500550D01*
Y492050D02*
X270000Y492000D01*
X269950Y492050D02*
Y500550D01*
X271853Y507047D02*
X275900Y503000D01*
X265000Y507047D02*
X271853D01*
X373500Y354300D02*
X373700Y354100D01*
X369153Y354300D02*
X373500D01*
X262969Y362000D02*
X267953D01*
X262969D02*
Y369276D01*
Y361500D02*
Y362000D01*
X252500Y373500D02*
X253043Y374043D01*
X256563D01*
X268276Y381819D02*
X268366Y381909D01*
X271622D01*
X273000Y380531D01*
X273031Y380500D01*
X277031D01*
X280969D02*
X284531D01*
X363756Y359256D02*
X364000Y359500D01*
X357500Y359256D02*
X363756D01*
X358500Y373500D02*
X359900Y374900D01*
X372100D01*
X375200Y378000D01*
Y390300D01*
X370334Y376500D02*
X373600Y379766D01*
X356000Y376500D02*
X370334D01*
X369971Y378400D02*
X371953Y380382D01*
X355104Y378400D02*
X369971D01*
X361056Y382450D02*
X362606Y384000D01*
X358944Y382450D02*
X361056D01*
X357894Y383500D02*
X358944Y382450D01*
X362606Y384000D02*
X366712D01*
X367000Y383713D01*
X358500Y388000D02*
X365000D01*
X364500Y388500D02*
X365000Y388000D01*
X367800Y392200D02*
X372000Y388000D01*
X367800Y392200D02*
Y427000D01*
X365000Y429800D02*
X367800Y427000D01*
X369400Y392944D02*
X373600Y388744D01*
X369400Y393237D02*
X369547Y393091D01*
X368400Y455500D02*
Y484100D01*
X369400Y393237D02*
Y454500D01*
X368400Y455500D02*
X369400Y454500D01*
X370000Y456500D02*
X371000Y455500D01*
Y394500D02*
X375200Y390300D01*
X370000Y456500D02*
Y490000D01*
X371000Y394500D02*
Y455500D01*
X355547Y376047D02*
X356000Y376500D01*
X347950Y371246D02*
X355104Y378400D01*
X355547Y371500D02*
Y376047D01*
X358500Y366500D02*
Y373500D01*
X349600Y364237D02*
Y368100D01*
X353000Y371500D01*
X348313Y360687D02*
X351200Y363575D01*
Y365200D01*
X352500Y366500D01*
X346500Y361137D02*
X349600Y364237D01*
X338500Y355500D02*
X348000Y365000D01*
X347950Y365050D02*
X348000Y365000D01*
X347950Y365050D02*
Y371246D01*
X348313Y353687D02*
X351000Y351000D01*
X348313Y353687D02*
Y360687D01*
X355547Y365500D02*
X357500D01*
X352500Y366500D02*
X355547D01*
X346500Y353000D02*
Y361137D01*
X373600Y379766D02*
Y388744D01*
X353000Y371500D02*
X355547D01*
X372000Y382391D02*
Y388000D01*
X371953Y380382D02*
Y382344D01*
X372000Y382391D01*
X262350Y459000D02*
Y491350D01*
X258000Y454650D02*
X262350Y459000D01*
X258000Y430000D02*
Y454650D01*
X263500Y453500D02*
X266200Y456200D01*
X263500Y446100D02*
Y453500D01*
Y446100D02*
X279100Y430500D01*
X246975Y431975D02*
X247953Y432953D01*
X242500Y432106D02*
X244919Y434525D01*
X245025D02*
X254000Y443500D01*
X244919Y434525D02*
X245025D01*
X245975Y431975D02*
X246975D01*
X232497Y431450D02*
X233500Y432453D01*
X227500Y431450D02*
X232497D01*
X247953Y432953D02*
X251500D01*
X270500Y413000D02*
X278500D01*
X278681Y412819D01*
Y408287D02*
Y412819D01*
X281606Y416106D02*
X298012Y399700D01*
X279100Y419000D02*
Y430500D01*
X243500Y346500D02*
X252500Y337500D01*
X273000Y384468D02*
X273197Y384665D01*
X272319Y383787D02*
X273000Y384468D01*
X276366Y384665D02*
X276500Y384531D01*
X273197Y384665D02*
X276366D01*
X268276Y383787D02*
X272319D01*
X276610Y388579D02*
X280531D01*
Y392500D01*
X274500D02*
X280531D01*
X271000Y389000D02*
X274500Y392500D01*
X271000Y387012D02*
Y389000D01*
X269744Y385756D02*
X271000Y387012D01*
X268276Y385756D02*
X269744D01*
X381000Y370000D02*
X381328D01*
X381894Y370566D01*
Y384500D01*
X380050Y386344D02*
X381894Y384500D01*
X380050Y386344D02*
Y396450D01*
X377500Y399000D02*
X380050Y396450D01*
X382809Y387191D02*
X383560Y386440D01*
Y368060D02*
Y386440D01*
X357444Y391950D02*
X359550D01*
X422000Y368000D02*
X425000Y371000D01*
X401500Y366500D02*
Y378500D01*
Y366500D02*
X407000Y361000D01*
X343600Y376600D02*
X350500Y383500D01*
X357894D01*
X359650Y385350D02*
X360000Y385000D01*
X348950Y385350D02*
X359650D01*
X346650Y383050D02*
X348950Y385350D01*
X357450Y386950D02*
X358500Y388000D01*
X354444Y386950D02*
X357450D01*
X353494Y387900D02*
X354444Y386950D01*
X347400Y387900D02*
X353494D01*
X335531Y376031D02*
X347400Y387900D01*
X346550Y383050D02*
X346650D01*
X381000Y365500D02*
X383560Y368060D01*
X345000Y389500D02*
X355500D01*
X333131Y377631D02*
X345000Y389500D01*
X359500Y391000D02*
X359550Y391050D01*
Y391950D01*
X356894Y392500D02*
X357444Y391950D01*
X345000Y392500D02*
X356894D01*
X336000Y383500D02*
X345000Y392500D01*
X358500Y394500D02*
Y395500D01*
X357600Y396400D02*
X358500Y395500D01*
X333922Y396400D02*
X357600D01*
X334584Y398000D02*
X360000D01*
X362000Y396000D01*
X360900Y403400D02*
Y424200D01*
X358500Y401000D02*
X360900Y403400D01*
X329000Y383500D02*
X336000D01*
X325500Y387000D02*
X329000Y383500D01*
X328768Y377631D02*
X333131D01*
X318000Y366863D02*
X328768Y377631D01*
X318500Y387000D02*
X325500D01*
X303000Y371500D02*
X318500Y387000D01*
X303000Y361500D02*
Y371500D01*
X279000Y337500D02*
X303000Y361500D01*
X252500Y337500D02*
X279000D01*
X267953Y362000D02*
X268500Y362547D01*
X259031Y359118D02*
X261150Y357000D01*
X259031Y359118D02*
Y361500D01*
X342000Y378500D02*
X346550Y383050D01*
X357500Y365500D02*
X358500Y366500D01*
X333822Y396500D02*
X333922Y396400D01*
X343600Y366163D02*
Y376600D01*
X342000Y367500D02*
Y378500D01*
X334484Y398100D02*
X334584Y398000D01*
X294900Y398100D02*
X334484D01*
X283500Y409500D02*
X294900Y398100D01*
X359000Y406500D02*
Y419500D01*
X352200Y399700D02*
X359000Y406500D01*
X298012Y399700D02*
X352200D01*
X279000Y419000D02*
X279100D01*
X291800Y410200D02*
X296800D01*
X286500Y415500D02*
Y420500D01*
Y415500D02*
X291800Y410200D01*
X274131Y449369D02*
X282500Y441000D01*
X282500Y420500D02*
X282996Y420996D01*
Y420996D01*
X282500Y420500D02*
X282996Y420996D01*
X282500Y420500D02*
Y441000D01*
X289500Y416000D02*
Y423000D01*
X287000Y425500D02*
X289500Y423000D01*
X285500Y431000D02*
Y441500D01*
X291500Y416656D02*
Y425000D01*
X285500Y431000D02*
X291500Y425000D01*
X289000Y432000D02*
X293213Y427787D01*
X289500Y416000D02*
X293600Y411900D01*
X291500Y416656D02*
X294656Y413500D01*
X293213Y417287D02*
Y427787D01*
Y417287D02*
X295050Y415450D01*
X295161Y421339D02*
X297500Y419000D01*
X295161Y421339D02*
Y426043D01*
X356000Y406000D02*
Y411000D01*
X296800Y410200D02*
X305700Y401300D01*
X351300D01*
X356000Y406000D01*
X293600Y411900D02*
X298600D01*
X353450Y408500D02*
Y412950D01*
X347850Y402900D02*
X353450Y408500D01*
X307600Y402900D02*
X347850D01*
X298600Y411900D02*
X307600Y402900D01*
X351850Y409350D02*
Y416350D01*
X347000Y404500D02*
X351850Y409350D01*
X309000Y404500D02*
X347000D01*
X300000Y413500D02*
X309000Y404500D01*
X294656Y413500D02*
X300000D01*
X338453Y355500D02*
X338500D01*
X348469Y345090D02*
X350557D01*
X338453Y355106D02*
X348469Y345090D01*
X338453Y355106D02*
Y355500D01*
X346500Y353000D02*
X351457Y348043D01*
X339937Y362500D02*
X343600Y366163D01*
X339000Y364500D02*
X342000Y367500D01*
X314500Y348500D02*
X318000Y352000D01*
Y366863D01*
X319900Y338900D02*
Y366500D01*
X324500Y364500D02*
X339000D01*
X321500Y361500D02*
X324500Y364500D01*
X321500Y334500D02*
Y361500D01*
X325000Y362500D02*
X339937D01*
X323600Y361100D02*
X325000Y362500D01*
X279047Y298047D02*
X319900Y338900D01*
X312500Y325500D02*
X321500Y334500D01*
X351850Y416350D02*
X352000Y416500D01*
X353450Y412950D02*
X356000Y415500D01*
X356200Y422300D02*
X359000Y419500D01*
X248000Y427000D02*
X248047Y427047D01*
X251500D01*
X270874Y402044D02*
X271781Y401138D01*
X278000D01*
X278681Y401819D01*
Y404350D01*
X267869Y449369D02*
X274131D01*
X263950Y463050D02*
X285500Y441500D01*
X284000Y405000D02*
X284500D01*
X293000Y396500D01*
X333822D01*
X256563Y389595D02*
Y393937D01*
X251413Y377882D02*
X252724D01*
X247831Y374300D02*
X251413Y377882D01*
X232200Y374300D02*
X247831D01*
X236000Y386500D02*
X240547D01*
X264437Y392484D02*
X266953Y395000D01*
X264437Y389595D02*
Y392484D01*
X262468Y389595D02*
Y396453D01*
X248000Y401000D02*
X253981D01*
X255126Y402144D01*
X247000Y402000D02*
X248000Y401000D01*
X247000Y402000D02*
Y405291D01*
Y409229D02*
X247229D01*
X249593Y411593D01*
X255126D01*
X266953Y395000D02*
Y395213D01*
X264600Y397565D02*
X266953Y395213D01*
X264600Y397565D02*
Y401100D01*
X265545Y402044D01*
X270874D01*
X261047Y395000D02*
X263000Y396953D01*
Y409000D01*
X261000Y411000D02*
X263000Y409000D01*
X255719Y411000D02*
X261000D01*
X255126Y411593D02*
X255719Y411000D01*
X268047Y368453D02*
X268500D01*
X264437Y372063D02*
X268047Y368453D01*
X264437Y372063D02*
Y374043D01*
X255500Y368969D02*
Y369165D01*
X256878Y370543D01*
X258043D01*
X258531Y371031D01*
Y374043D01*
X262468Y369777D02*
Y374043D01*
Y369777D02*
X262969Y369276D01*
X259031Y365319D02*
Y368819D01*
X260500Y376000D02*
X261417Y376917D01*
X265417D01*
X266382Y377882D01*
X268276D01*
X260500Y374043D02*
Y376000D01*
X259583Y376917D02*
X260500Y376000D01*
X256782Y376917D02*
X259583D01*
X260500Y386543D02*
Y389595D01*
X259031Y368819D02*
X260500Y370287D01*
Y374043D01*
X255639Y378060D02*
X256782Y376917D01*
X255639Y378060D02*
Y384639D01*
X258531Y387531D01*
Y389595D01*
X247168Y375900D02*
X251119Y379850D01*
X252724D01*
X249991Y381819D02*
X252724D01*
X245672Y377500D02*
X249991Y381819D01*
X241500Y377500D02*
X245672D01*
X249287Y383787D02*
X252724D01*
X248000Y382500D02*
X249287Y383787D01*
X246000Y382500D02*
X248000D01*
X239000Y380000D02*
X241500Y377500D01*
X244500Y380500D02*
Y381000D01*
X246000Y382500D01*
X246453Y386500D02*
X247197Y385756D01*
X252724D01*
X263950Y463050D02*
Y485950D01*
X267000Y448500D02*
X267869Y449369D01*
X249500Y442547D02*
Y492000D01*
X233500Y426547D02*
X249500Y442547D01*
X233500Y422500D02*
X234000Y422000D01*
X233500Y422500D02*
Y426547D01*
X249500Y492000D02*
X252500Y495000D01*
X267000D01*
X262350Y491350D02*
X262500Y491500D01*
X257000Y502000D02*
Y509906D01*
X260047Y512953D01*
X265000D01*
X254000Y443500D02*
Y491500D01*
X257000Y502000D02*
X268500D01*
X356000Y415500D02*
Y419000D01*
X353000Y422000D02*
X356000Y419000D01*
X356200Y422300D02*
Y426600D01*
X342500Y411200D02*
X344900Y413600D01*
Y420200D01*
X286303Y472047D02*
X286500Y472244D01*
Y468500D02*
Y472244D01*
X281500Y472047D02*
X286303D01*
X339963Y411200D02*
X342500D01*
X301050Y415450D02*
X310372Y406128D01*
X334891D01*
X295050Y415450D02*
X301050D01*
X334891Y406128D02*
X339963Y411200D01*
X311272Y407728D02*
X334228D01*
X312574Y409328D02*
X329528D01*
X303950Y417952D02*
Y419775D01*
X308150Y418278D02*
X311581Y414847D01*
X322300D01*
X313237Y410928D02*
X328100D01*
X306250Y417915D02*
X313237Y410928D01*
X306250Y417915D02*
Y431175D01*
X303950Y417952D02*
X312574Y409328D01*
X308150Y418278D02*
Y426150D01*
X302350Y416650D02*
X311272Y407728D01*
X302350Y416650D02*
Y418650D01*
X316706Y422654D02*
X320005D01*
X321906Y420753D02*
X322300D01*
X320005Y422654D02*
X321906Y420753D01*
X313553Y419500D02*
X316706Y422654D01*
X311100Y419500D02*
X313553D01*
X308150Y426150D02*
X308200Y426200D01*
X316644Y433600D02*
X317100Y433144D01*
Y428953D02*
Y433144D01*
X308200Y426200D02*
Y430367D01*
X329900Y412728D02*
Y422794D01*
X328100Y410928D02*
X329900Y412728D01*
X329528Y409328D02*
X332953Y412753D01*
X336690Y439000D02*
Y447357D01*
Y439000D02*
X337444Y438246D01*
Y433500D02*
Y438246D01*
X321700Y438247D02*
X322353Y438900D01*
X321700Y434256D02*
Y438247D01*
X342956Y433500D02*
X343000Y433456D01*
Y429053D02*
Y433456D01*
Y415047D02*
Y423147D01*
X342500Y414547D02*
X343000Y415047D01*
X334556Y425725D02*
X346225D01*
X333147Y424316D02*
X334556Y425725D01*
X332800Y430300D02*
Y433447D01*
X331469Y428969D02*
X332800Y430300D01*
X331469Y426500D02*
Y428969D01*
X346225Y425725D02*
X362300Y441800D01*
X297500Y459457D02*
X301043D01*
X305953Y454547D01*
Y433140D02*
Y454547D01*
X296181Y457000D02*
X297500Y458319D01*
X295681Y457000D02*
X296181D01*
X295634Y457047D02*
X295681Y457000D01*
X288000Y457047D02*
X295634D01*
X503500Y427500D02*
X503776Y427224D01*
Y424468D02*
Y427224D01*
Y424468D02*
X505744Y422500D01*
X519200Y388774D02*
Y433984D01*
X520800Y384700D02*
Y434700D01*
X517216Y438284D02*
X520800Y434700D01*
X511100Y368963D02*
X522490Y380352D01*
X522400Y383432D02*
X522487Y380445D01*
X522490Y380352D01*
X522400Y383432D02*
Y436100D01*
Y380442D02*
Y383432D01*
X518526Y439974D02*
X522400Y436100D01*
X521000Y455600D02*
X524000Y452600D01*
Y398500D02*
Y452600D01*
Y398500D02*
X525500Y397000D01*
X515000Y428547D02*
Y433000D01*
X514953Y428500D02*
X515000Y428547D01*
X511256Y422500D02*
X513724Y420031D01*
X515000D01*
X514831Y423969D02*
X515000D01*
X513328Y425472D02*
X514831Y423969D01*
X512076Y425472D02*
X513328D01*
X509047Y428500D02*
X512076Y425472D01*
X507097Y430450D02*
X509047Y428500D01*
X502278Y430450D02*
X507097D01*
X501960Y430131D02*
X502278Y430450D01*
X495923Y430131D02*
X501960D01*
X516500Y436684D02*
X519200Y433984D01*
X501191Y438284D02*
X517216D01*
X495923Y439974D02*
X518526D01*
X419953Y228500D02*
X427000D01*
X409500D02*
X414047D01*
X406500Y231500D02*
X409500Y228500D01*
X406900Y237500D02*
X412400Y232000D01*
X421000D01*
X424500Y235500D01*
Y238047D01*
X417500Y239032D02*
X420500D01*
X419000Y235000D02*
X420500Y236500D01*
Y239032D01*
X423516Y242969D02*
X424500Y243953D01*
X420500Y242969D02*
X423516D01*
X424500Y243953D02*
Y244000D01*
X422000Y246500D02*
X424500Y244000D01*
X416453Y246500D02*
X422000D01*
X415634Y247319D02*
X416453Y246500D01*
X413500Y243953D02*
X414484Y242969D01*
X417500D01*
X429953Y554453D02*
X430000Y554500D01*
X425000Y554453D02*
X429953D01*
X370100Y239100D02*
X407563D01*
X408615Y238047D01*
X413500D01*
X415634Y247319D02*
Y250555D01*
X413075Y244378D02*
X413500Y243953D01*
X413075Y244378D02*
Y250555D01*
X449500Y219500D02*
X457500Y227500D01*
X395000Y214000D02*
X400500Y219500D01*
X449500D01*
X445000Y494453D02*
X445453D01*
X449000Y498000D01*
X442276Y500776D02*
X452276D01*
X440700Y499200D02*
X442276Y500776D01*
X436600Y472772D02*
Y483028D01*
Y472772D02*
X438450Y470922D01*
X436600Y483028D02*
X440700Y487128D01*
X434600Y470600D02*
Y501100D01*
X438902Y505402D01*
X445000Y488547D02*
X446415Y487132D01*
Y461923D02*
Y487132D01*
X454000Y502500D02*
Y513000D01*
X440700Y487128D02*
Y499200D01*
X452276Y500776D02*
X454000Y502500D01*
X447880Y502843D02*
X450734D01*
X439843Y502843D02*
X447880D01*
X437600Y488200D02*
Y500600D01*
X439843Y502843D01*
X447880Y505300D02*
X449300D01*
X438902Y505402D02*
X447880D01*
X498200Y483300D02*
X506300D01*
X489722Y450500D02*
Y464400D01*
X485174Y420289D02*
X502912D01*
X472741Y513100D02*
X481400D01*
X479880Y450500D02*
Y474531D01*
X470600Y511068D02*
Y513080D01*
X456257Y454743D02*
Y471757D01*
X428552Y447848D02*
X448900D01*
X431863Y436037D02*
X442637D01*
X489722Y397778D02*
Y406778D01*
X492000Y395500D02*
X499000D01*
X438400Y252900D02*
X440400D01*
X435500Y227500D02*
Y232263D01*
X348000Y482500D02*
X351500D01*
X341600Y503800D02*
X346800D01*
X348000Y480000D02*
Y482500D01*
X345500Y474227D02*
Y477500D01*
X334865Y479300D02*
X336868D01*
X334721Y473400D02*
Y479443D01*
X340627Y447357D02*
X350101D01*
X343875Y454542D02*
X345843Y452573D01*
X332753Y446351D02*
Y454747D01*
X313757Y468321D02*
Y474227D01*
X367300Y348043D02*
Y351000D01*
X387484Y250500D02*
X390043D01*
X371500Y326400D02*
X399000D01*
X524300Y458600D02*
X553937D01*
X513400Y502500D02*
X519500D01*
X405700Y480600D02*
X408000Y482900D01*
X315300Y271300D02*
Y287600D01*
X312500Y290400D02*
X315300Y287600D01*
X343044Y266491D02*
Y280456D01*
X323600Y299900D02*
X343044Y280456D01*
X323600Y299900D02*
Y361100D01*
X465500Y535500D02*
X467400Y533600D01*
X460500Y535500D02*
X465500D01*
X458000Y538000D02*
X460500Y535500D01*
X416400Y491400D02*
Y509735D01*
X412300Y489626D02*
X416700Y485225D01*
X413700Y468258D02*
Y485963D01*
X410700Y488963D02*
X413700Y485963D01*
X412100Y468920D02*
Y485300D01*
X408000Y489400D02*
X412100Y485300D01*
X412300Y489626D02*
Y495937D01*
X410700Y488963D02*
Y496600D01*
X408000Y489400D02*
Y503800D01*
X412300Y495937D02*
X414800Y498437D01*
X410700Y496600D02*
X411700Y497600D01*
X448250Y492978D02*
X455600Y500328D01*
X448250Y462056D02*
Y492978D01*
X416000Y444100D02*
Y452400D01*
X426500Y462900D01*
X424000Y455100D02*
X429154D01*
X420000Y446428D02*
X423388Y449817D01*
X425031Y445969D02*
X426200Y444800D01*
X425031Y445969D02*
Y447500D01*
X476700Y436100D02*
X483500D01*
X485531Y434069D02*
X503331D01*
X475600Y435900D02*
Y436900D01*
X422744Y436244D02*
X423472Y436972D01*
X422744Y434000D02*
Y436244D01*
X423472Y436972D02*
X430928D01*
X436277Y422258D02*
X444320D01*
X427831Y434069D02*
X444669D01*
X443078Y420650D02*
X445550D01*
X472300Y421200D02*
X479737D01*
X409400Y430100D02*
X411700Y427800D01*
X409400Y430100D02*
Y442600D01*
X431478Y408478D02*
X436277D01*
X429700Y406700D02*
X431478Y408478D01*
X429700Y404800D02*
Y406700D01*
X419600Y392100D02*
Y424400D01*
X421200Y389528D02*
Y426650D01*
X422800Y388865D02*
Y425300D01*
X424450Y397050D02*
Y424687D01*
X426050Y400978D02*
Y413450D01*
Y400978D02*
X428950Y398078D01*
Y393450D02*
Y398078D01*
X418000Y409000D02*
Y418400D01*
X416500Y407500D02*
X418000Y409000D01*
X438100Y404100D02*
X443250Y409250D01*
X438100Y389900D02*
Y404100D01*
X436412Y412550D02*
X457500D01*
X446383Y414384D02*
X449000Y417000D01*
X436277Y414384D02*
X446383D01*
X434000Y388935D02*
Y403500D01*
X405700Y450300D02*
Y480600D01*
X404050Y455550D02*
Y506650D01*
X405400Y508000D01*
X405000Y512672D02*
Y518998D01*
X402450Y510122D02*
X405000Y512672D01*
X402450Y503450D02*
Y510122D01*
X400000Y510500D02*
X400850Y509650D01*
Y504113D02*
Y509650D01*
X383600Y509200D02*
X385000Y510600D01*
X383600Y434500D02*
Y509200D01*
X365000Y429800D02*
Y434000D01*
X366881Y485619D02*
X368400Y484100D01*
X367500Y492500D02*
X370000Y490000D01*
X344900Y420200D02*
X356400Y431700D01*
X358600Y468600D02*
Y495400D01*
X356353Y466353D02*
X358600Y468600D01*
X345843Y466353D02*
X356353D01*
X357000Y470500D02*
Y492404D01*
X354821Y468321D02*
X357000Y470500D01*
X345843Y468321D02*
X354821D01*
X333900Y484200D02*
X334853Y485153D01*
Y487200D01*
X338100D01*
X411500Y391500D02*
Y398694D01*
X394157Y400100D02*
X410094D01*
X411500Y398694D01*
X416500Y404800D02*
Y407500D01*
X390500Y411000D02*
Y414500D01*
X392500Y409000D02*
X400700D01*
X392500Y405953D02*
Y409000D01*
X390500Y411000D02*
X392500Y409000D01*
X430500Y369263D02*
X435300Y364463D01*
X430500Y369263D02*
Y371500D01*
X419050Y353950D02*
X427050D01*
X416163Y356837D02*
X419050Y353950D01*
X416163Y356837D02*
Y384491D01*
X419950Y355550D02*
X427950D01*
X417763Y357737D02*
X419950Y355550D01*
X417763Y357737D02*
Y383828D01*
X447500Y326500D02*
Y330600D01*
X443650Y322650D02*
X447500Y326500D01*
X443650Y300850D02*
Y322650D01*
X466163Y352100D02*
X471300D01*
X463263Y355000D02*
X466163Y352100D01*
X458500Y355000D02*
X463263D01*
X390950Y309350D02*
X396000Y314400D01*
X469000Y342000D02*
X497872D01*
X507800Y354300D02*
Y367700D01*
X502000Y348500D02*
X507800Y354300D01*
X498828Y348500D02*
X502000D01*
X497785Y349543D02*
X498828Y348500D01*
X478000Y327000D02*
X485135D01*
X583000Y345500D02*
Y384500D01*
X570000Y332500D02*
X583000Y345500D01*
X580000Y380528D02*
Y414200D01*
X553000Y384500D02*
X564500D01*
X567500Y379156D02*
Y403000D01*
X566100Y377756D02*
X567500Y379156D01*
X566600Y403900D02*
X567500Y403000D01*
X543000Y331000D02*
X545500D01*
X519450Y305450D02*
X525500Y311500D01*
X504315Y305450D02*
X519450D01*
X506100Y297100D02*
Y300800D01*
X476500Y274500D02*
X481000D01*
X465700Y357200D02*
X471800D01*
X422500Y274500D02*
Y287172D01*
X436900Y301572D01*
Y365125D01*
X438600Y283300D02*
X442000Y279900D01*
X438600Y283300D02*
Y290500D01*
X434700Y247500D02*
X436603D01*
X415500Y258800D02*
X416500Y259800D01*
X437600D01*
X406800Y263100D02*
X408900Y261000D01*
Y255900D02*
Y261000D01*
X407957Y254957D02*
X408900Y255900D01*
X407957Y250555D02*
Y254957D01*
X351000Y351000D02*
X354663D01*
X355479Y350184D01*
X351457Y348043D02*
X353510D01*
X367321Y351021D02*
X369100Y352800D01*
X365321Y351021D02*
X367321D01*
X341284Y337216D02*
X350557D01*
X339000Y339500D02*
X341284Y337216D01*
X332800Y339500D02*
X339000D01*
X342047Y341153D02*
X350557D01*
X337300Y345900D02*
X342047Y341153D01*
X341737Y339200D02*
X350542D01*
X371900Y293600D02*
X389100D01*
X370500Y300500D02*
X372100Y298900D01*
X361200Y300500D02*
X370500D01*
X359500Y302200D02*
X361200Y300500D01*
X351450Y312150D02*
Y324122D01*
X353510Y315190D02*
Y328357D01*
X350557Y325014D02*
Y331310D01*
Y325014D02*
X351450Y324122D01*
X345000Y322900D02*
X348500D01*
X347500Y514096D02*
Y539500D01*
X344154Y510750D02*
X347500Y514096D01*
X317750Y510750D02*
X344154D01*
X328816Y479443D02*
Y483316D01*
X326847Y483610D02*
X329000Y485763D01*
X326847Y479443D02*
Y483610D01*
X329000Y485763D02*
Y486800D01*
X319500Y494700D02*
Y496400D01*
X318000Y497900D02*
X319500Y496400D01*
X318000Y497900D02*
Y499531D01*
X300969Y472500D02*
Y477031D01*
X304000Y464384D02*
X313757D01*
X304000D02*
Y479672D01*
Y462156D02*
Y464384D01*
X340267Y442200D02*
X349800D01*
X338658Y443809D02*
X340267Y442200D01*
X337000Y410500D02*
Y414547D01*
X334228Y407728D02*
X337000Y410500D01*
X331422Y424316D02*
X333147D01*
X329900Y422794D02*
X331422Y424316D01*
X327531Y421484D02*
Y426500D01*
X333000Y439953D02*
Y441500D01*
X330784Y443716D02*
X333000Y441500D01*
X330784Y443716D02*
Y447357D01*
X322910Y439410D02*
Y447357D01*
X506400Y404100D02*
X509500Y401000D01*
X494800Y404100D02*
X506400D01*
X468025Y382525D02*
X474025D01*
X451300Y409700D02*
X453300D01*
X448383Y406883D02*
X451100Y409600D01*
X448383Y402277D02*
Y406883D01*
X453300Y409700D02*
X454289Y408711D01*
Y402277D02*
Y408711D01*
X490306Y426194D02*
X495923D01*
X490150Y426350D02*
X490306Y426194D01*
X485150Y426350D02*
X490150D01*
X489426Y424226D02*
X495923D01*
X488700Y442800D02*
X489811Y443911D01*
X495923D01*
X483500Y436100D02*
X485531Y434069D01*
X489722Y450500D02*
X490817D01*
X491500Y449817D01*
X482500Y450500D02*
X489722D01*
X482500Y445900D02*
Y450500D01*
X513000Y443500D02*
Y446000D01*
X511443Y441943D02*
X513000Y443500D01*
X495923Y441943D02*
X511443D01*
X507400Y433400D02*
Y434400D01*
X506100Y432100D02*
X507400Y433400D01*
X495923Y432100D02*
X506100D01*
X453528Y475391D02*
X454393Y476256D01*
X453528Y468672D02*
Y475391D01*
Y468672D02*
X454289Y467911D01*
X460194Y466832D02*
X461850Y468487D01*
X458226Y467126D02*
X460250Y469150D01*
X463450Y475050D02*
X466500Y472000D01*
X463450Y475050D02*
Y498650D01*
X471500Y472537D02*
X473000Y471037D01*
X466500Y495200D02*
X467800Y496500D01*
X466500Y476800D02*
Y495200D01*
X482200Y483200D02*
X488126D01*
X479500Y480500D02*
X482200Y483200D01*
X479500Y478469D02*
Y480500D01*
X494200Y470500D02*
Y481300D01*
X492700Y482800D02*
X494200Y481300D01*
X489700Y482800D02*
X492700D01*
X566600Y403900D02*
Y406500D01*
X406900Y266400D02*
X410500Y262800D01*
Y250600D02*
Y262800D01*
X449100Y524600D02*
X454200D01*
X447880Y523380D02*
X449100Y524600D01*
X447880Y520757D02*
Y523380D01*
X451300Y529800D02*
X454100D01*
X444400Y522900D02*
X451300Y529800D01*
X441000Y522900D02*
X444400D01*
X442680Y510520D02*
X450734D01*
X466400Y349600D02*
X472200D01*
X561888Y339500D02*
X564927Y342539D01*
X558526Y339500D02*
X561888D01*
X540026Y321000D02*
X558526Y339500D01*
X422900Y442900D02*
X430600D01*
X467466Y505402D02*
X475598D01*
X461860Y518198D02*
X470321D01*
X452600Y534200D02*
X453400Y535000D01*
X442976Y507961D02*
X450734D01*
X462157Y520757D02*
X470321D01*
X342953Y439000D02*
X346600D01*
X312900Y438900D02*
X316447D01*
X432700Y249500D02*
Y253000D01*
X382300Y410100D02*
X385400D01*
X357447Y322053D02*
X358850Y320650D01*
X410100Y311900D02*
X424000D01*
X365300Y304500D02*
X402700D01*
X257000Y298000D02*
X269500D01*
X506640Y312300D02*
X511900D01*
X542800Y360500D02*
Y367947D01*
X542700Y355800D02*
X551800D01*
X547500Y363500D02*
Y367300D01*
X442500Y254000D02*
Y258500D01*
X483817Y453500D02*
Y461923D01*
X338658Y443809D02*
Y451342D01*
X328816Y447357D02*
Y455816D01*
X330684Y457684D01*
X324879Y451879D02*
X328816Y455816D01*
X489366Y357220D02*
X496820D01*
X429500Y458300D02*
X432078Y455722D01*
X442500Y397500D02*
Y402500D01*
X408300Y327200D02*
Y335000D01*
X448500Y255000D02*
Y258500D01*
X466037Y354600D02*
X472300D01*
X503874Y473726D02*
X512000D01*
X403547Y381453D02*
Y385500D01*
X375000Y535002D02*
Y542700D01*
X427500Y263500D02*
X432700D01*
X466100Y432144D02*
Y442050D01*
X470400D01*
X458450D02*
X466100D01*
X344000Y480500D02*
Y482500D01*
X432500Y277100D02*
Y285500D01*
X309147Y466353D02*
X313757D01*
X307000Y468500D02*
X309147Y466353D01*
X307000Y468500D02*
Y484500D01*
X301500Y490000D02*
X307000Y484500D01*
X313757Y448743D02*
X314500Y448000D01*
X313757Y448743D02*
Y452573D01*
X324179Y454179D02*
Y458479D01*
X320942Y450942D02*
X324179Y454179D01*
X320942Y447357D02*
Y450942D01*
X330684Y457684D02*
X333988D01*
X324879Y447357D02*
Y451879D01*
X320042Y454542D02*
X321000Y455500D01*
X313757Y454542D02*
X320042D01*
X304000Y462156D02*
X305709Y460447D01*
X313757D01*
X289831Y472544D02*
Y478056D01*
X297721Y423279D02*
X302350Y418650D01*
X297721Y423279D02*
Y426043D01*
X415000Y399500D02*
X416500D01*
X409500Y389500D02*
X411500Y391500D01*
X411447Y403053D02*
X415000Y399500D01*
X461800Y500300D02*
X463450Y498650D01*
X455600Y514200D02*
X462157Y520757D01*
X455600Y500328D02*
Y514200D01*
X450734Y513080D02*
X453920D01*
X380000Y542600D02*
Y568437D01*
X374087Y574350D02*
X380000Y568437D01*
X362050Y574350D02*
X374087D01*
X360600Y575800D02*
X362050Y574350D01*
X532750Y500361D02*
Y514961D01*
X492211Y555500D02*
X532750Y514961D01*
X570000Y315000D02*
Y332500D01*
X488600Y429400D02*
Y432100D01*
X480000D02*
X488600D01*
X470500D02*
X480000D01*
Y425463D02*
X485174Y420289D01*
X480000Y425463D02*
Y432100D01*
X465800Y427400D02*
X470500Y432100D01*
X509300Y418500D02*
X511200Y420400D01*
X504701Y418500D02*
X509300D01*
X502912Y420289D02*
X504701Y418500D01*
X320942Y468500D02*
Y479443D01*
Y464442D02*
Y468500D01*
X327700D01*
X330784Y471584D01*
X390000Y247000D02*
Y250457D01*
X388469Y245469D02*
X390000Y247000D01*
X388469Y244000D02*
Y245469D01*
X447400Y370400D02*
Y380600D01*
X438100Y389900D02*
X447400Y380600D01*
X438500Y298500D02*
Y384435D01*
X434000Y388935D02*
X438500Y384435D01*
X440450Y369950D02*
X443000Y372500D01*
X440450Y299050D02*
Y369950D01*
X417074Y287100D02*
X433700Y303726D01*
X416137Y283900D02*
X435300Y303063D01*
X442050Y365050D02*
X447400Y370400D01*
X442050Y300187D02*
Y365050D01*
X443650Y363150D02*
X453400Y372900D01*
X352600Y550600D02*
X354500Y552500D01*
X411150Y510850D02*
X413022D01*
X410000Y512000D02*
X411150Y510850D01*
X410000Y512000D02*
Y518998D01*
X455000Y516500D02*
Y520000D01*
X454139Y515639D02*
X455000Y516500D01*
X456500Y481600D02*
X457250Y482350D01*
X456500Y476256D02*
Y481600D01*
X451700Y444850D02*
X453307Y446457D01*
X451700Y429637D02*
Y444850D01*
X447678D02*
X451700D01*
X454393Y476256D02*
X456500D01*
X451928Y468009D02*
Y480656D01*
X450328Y461946D02*
Y483228D01*
X451928Y468009D02*
X452320Y467617D01*
X451928Y480656D02*
X454350Y483078D01*
X452320Y461923D02*
Y467617D01*
X375000Y474500D02*
X376500Y473000D01*
Y461500D02*
Y473000D01*
X385550Y464669D02*
Y507950D01*
X312500Y505500D02*
X317750Y510750D01*
X365550Y499550D02*
Y508450D01*
X361507Y495507D02*
X365550Y499550D01*
X375000Y474500D02*
Y518998D01*
X380000Y494800D02*
Y518998D01*
X351000Y531500D02*
X363500Y544000D01*
X351000Y490500D02*
Y531500D01*
X347500Y487000D02*
X351000Y490500D01*
X290832Y482368D02*
Y486332D01*
X294769Y482300D02*
X301372D01*
X351000Y473000D02*
X353500D01*
Y475000D01*
X436277Y424226D02*
X444026D01*
X448600Y428800D01*
X444320Y422258D02*
X451700Y429637D01*
X442717Y420289D02*
X443078Y420650D01*
X436277Y420289D02*
X442717D01*
X359328Y501500D02*
X362100D01*
X361507Y481993D02*
Y495507D01*
Y481993D02*
X362500Y481000D01*
X294769Y480769D02*
Y482300D01*
X293769Y479769D02*
X294769Y480769D01*
X293769Y478056D02*
Y479769D01*
X366881Y485619D02*
Y487662D01*
X362300Y468800D02*
Y480800D01*
X357884Y464384D02*
X362300Y468800D01*
Y441800D02*
Y460175D01*
X336600Y314500D02*
X345000Y322900D01*
X334200Y314500D02*
X336600D01*
X386547Y405000D02*
Y408953D01*
X385400Y410100D02*
X386547Y408953D01*
X312500Y483500D02*
Y505500D01*
X300969Y466815D02*
Y472500D01*
X316557Y479443D02*
X318973D01*
X312500Y483500D02*
X316557Y479443D01*
X297031Y468031D02*
Y472500D01*
X295543Y466543D02*
X297031Y468031D01*
X293760Y466543D02*
X295543D01*
X332953Y421000D02*
X338000D01*
X332953Y412753D02*
Y421000D01*
X349931Y434931D02*
X351500Y436500D01*
X346600Y434931D02*
X349931D01*
X328800Y431751D02*
Y435432D01*
X327422Y430373D02*
X328800Y431751D01*
X309503Y431670D02*
Y443003D01*
X308200Y430367D02*
X309503Y431670D01*
X306250Y431175D02*
X307553Y432477D01*
Y447253D01*
X304650Y431837D02*
X305953Y433140D01*
X300279Y423446D02*
X303950Y419775D01*
X300279Y423446D02*
Y426043D01*
X307553Y447253D02*
X309309Y449009D01*
X309503Y443003D02*
X311000Y444500D01*
X309309Y449009D02*
Y455610D01*
X310209Y456510D01*
X313757D01*
X459000Y379500D02*
X462163Y382663D01*
X459000Y372500D02*
Y379500D01*
X478969Y393000D02*
Y395531D01*
X477911Y396589D02*
X478969Y395531D01*
X477911Y396589D02*
Y402277D01*
X465000Y390547D02*
Y395000D01*
X464131Y395868D02*
X465000Y395000D01*
X464131Y395868D02*
Y402277D01*
X453400Y372900D02*
Y387200D01*
X455500Y370600D02*
X458300Y367800D01*
X455500Y370600D02*
Y394600D01*
X462163Y382663D02*
Y402277D01*
X576150Y347150D02*
Y372322D01*
X566500Y337500D02*
X576150Y347150D01*
X559000Y337500D02*
X566500D01*
X539500Y318000D02*
X559000Y337500D01*
X528000Y321000D02*
X540026D01*
X542363Y325600D02*
X553500Y336737D01*
X539800Y325600D02*
X542363D01*
X553500Y336737D02*
Y345900D01*
X545500Y331000D02*
X551800Y337300D01*
X574000Y374472D02*
X576150Y372322D01*
X574000Y374472D02*
Y424000D01*
X571300Y373600D02*
Y417772D01*
X568000Y416272D02*
X569700Y414572D01*
X568300Y420772D02*
X571300Y417772D01*
X568300Y420772D02*
Y421900D01*
X571300Y373600D02*
X573200Y371700D01*
X568400Y426700D02*
X579000Y437300D01*
X565350Y425913D02*
X577300Y437863D01*
X565350Y419650D02*
Y425913D01*
X425000Y371000D02*
Y389500D01*
X269500Y298047D02*
X279047D01*
X477100Y445100D02*
X484700Y437500D01*
X408300Y297500D02*
X418500D01*
X355479Y348043D02*
Y350184D01*
X429000Y289000D02*
X432500Y285500D01*
X382366Y274634D02*
X386000Y271000D01*
X382366Y274634D02*
Y277445D01*
X392602Y271898D02*
Y277445D01*
X389000Y271813D02*
X390043Y272857D01*
X389000Y270100D02*
Y271813D01*
Y270100D02*
X392700Y266400D01*
X400280Y244280D02*
Y250555D01*
X363200Y232200D02*
X370000Y239000D01*
X363200Y224800D02*
Y232200D01*
X384531Y241769D02*
X385600Y240700D01*
X367400Y234137D02*
X370763Y237500D01*
X407957Y245345D02*
Y250357D01*
X406612Y244000D02*
X407957Y245345D01*
X400000Y244000D02*
X406612D01*
X410516Y245641D02*
Y250555D01*
X448500Y255000D02*
X450300Y253200D01*
X442500Y254000D02*
X446250Y250250D01*
X447953Y263400D02*
X450900D01*
X432700Y249500D02*
X434700Y247500D01*
X350258Y472258D02*
X351000Y473000D01*
X345843Y472258D02*
X350258D01*
X345843Y460447D02*
X353447D01*
X351500Y480969D02*
Y482500D01*
X345500Y477500D02*
X348000Y480000D01*
X343000Y479500D02*
X344000Y480500D01*
X340684Y479500D02*
X343000D01*
X340627Y462627D02*
Y479443D01*
X324879Y472121D02*
Y479443D01*
X426200Y444800D02*
X430237D01*
X407300Y428900D02*
Y442763D01*
X401200Y429828D02*
Y445800D01*
X428500Y423500D02*
X431194Y426194D01*
X432089Y428163D02*
X436277D01*
X431754Y427828D02*
X432089Y428163D01*
X431794Y430131D02*
X436277D01*
X431091Y429428D02*
X431794Y430131D01*
X431500Y432100D02*
X436277D01*
X382872Y572000D02*
X390000Y564872D01*
Y542900D02*
Y564872D01*
X478000Y499963D02*
Y503000D01*
X475598Y505402D02*
X478000Y503000D01*
X467800Y496500D02*
X478709D01*
X480950Y498741D02*
Y505550D01*
X478950Y507550D02*
X480950Y505550D01*
X478709Y496500D02*
X480950Y498741D01*
X471500Y482700D02*
X488200Y499400D01*
Y525937D01*
X474500Y483000D02*
X493200Y501700D01*
Y523200D01*
X458800Y499128D02*
X461850Y496078D01*
X457200Y498465D02*
X460250Y495415D01*
X454350Y483078D02*
Y489750D01*
X452200Y491900D02*
X454350Y489750D01*
X458800Y499128D02*
Y512875D01*
X457200Y498465D02*
Y513537D01*
X495923Y422257D02*
X505657D01*
X481400Y513100D02*
X482800Y514500D01*
X480537Y533600D02*
X488200Y525937D01*
X457500Y409572D02*
Y412550D01*
X474500Y476000D02*
Y483000D01*
X535900Y478100D02*
X541900D01*
X471500Y472537D02*
Y482700D01*
X441500Y396500D02*
X442500Y397500D01*
X441500Y393500D02*
Y396500D01*
X444500Y396000D02*
Y402000D01*
Y396000D02*
X447000Y393500D01*
X457500Y412550D02*
Y418000D01*
X456257Y408329D02*
X457500Y409572D01*
X456257Y402277D02*
Y408329D01*
X450352Y384248D02*
Y402277D01*
X506254Y414383D02*
X514300Y406337D01*
X506548Y416352D02*
X515900Y407000D01*
X514450Y388550D02*
X516000Y390100D01*
X501400Y373237D02*
X517600Y389437D01*
X501500Y391500D02*
X508500D01*
X475000Y365000D02*
X501500Y391500D01*
X499800Y373900D02*
X514400Y388500D01*
X483554Y415120D02*
X486617D01*
X480374Y418300D02*
X483554Y415120D01*
X484217Y416720D02*
X487280D01*
X479737Y421200D02*
X484217Y416720D01*
X484880Y418320D02*
X495923D01*
X475000Y428200D02*
X484880Y418320D01*
X466100Y402277D02*
Y412233D01*
X487280Y416720D02*
X491278Y412722D01*
X485000Y411500D02*
X489722Y406778D01*
X491884Y408478D02*
X495923D01*
X489678Y410684D02*
X491884Y408478D01*
X489678Y410684D02*
Y412059D01*
X486617Y415120D02*
X489678Y412059D01*
X469100Y418300D02*
X480374D01*
X492179Y410446D02*
X495923D01*
X491278Y411347D02*
X492179Y410446D01*
X491278Y411347D02*
Y412722D01*
X460194Y394194D02*
Y402277D01*
X459000Y393000D02*
X460194Y394194D01*
X459000Y388000D02*
Y393000D01*
X553000Y298000D02*
X570000Y315000D01*
X471000Y365000D02*
X475000D01*
Y362300D02*
X500500Y387800D01*
X436277Y418321D02*
X443680D01*
X522328Y301000D02*
X524500D01*
X519478Y303850D02*
X522328Y301000D01*
X479880Y474531D02*
X481869D01*
X488600Y432100D02*
X495923D01*
X556600Y389000D02*
X567000D01*
X566100Y368047D02*
Y377756D01*
Y358500D02*
Y368047D01*
X557000D02*
X566100D01*
X420000Y512400D02*
X423100Y509300D01*
Y488000D02*
Y509300D01*
X426500Y462900D02*
Y493800D01*
X408900Y465720D02*
X412100Y468920D01*
X472000Y362300D02*
X475000D01*
X440400Y252900D02*
X445800Y247500D01*
X448400Y268400D02*
X450300D01*
X443200Y284000D02*
X447900Y279300D01*
X443200Y284000D02*
Y285900D01*
X448300Y300600D02*
X452100Y304400D01*
X329500Y301100D02*
Y310900D01*
X464000Y332400D02*
X477700Y318700D01*
X399900Y318800D02*
X408300Y327200D01*
X385800Y318800D02*
X399900D01*
X376700Y309700D02*
X385800Y318800D01*
X363900Y309700D02*
X376700D01*
X362371Y311229D02*
X363900Y309700D01*
X402700Y304500D02*
X410100Y311900D01*
X367290Y316910D02*
X370600Y313600D01*
X464000Y332400D02*
Y343800D01*
X362371Y324950D02*
X363353Y325932D01*
Y328357D01*
X425850Y261850D02*
X427500Y263500D01*
X410500Y261850D02*
X425850D01*
X438453Y277100D02*
X441600D01*
X368500Y577200D02*
X373500D01*
X392700Y266400D02*
X406900D01*
X478300Y352000D02*
X484100Y346200D01*
X521400Y484100D02*
Y493900D01*
X516100Y499200D02*
X521400Y493900D01*
X525700Y484200D02*
Y498400D01*
X481869Y474531D02*
X482600Y473800D01*
X482674Y473826D02*
X488126D01*
X492700Y469000D02*
X494200Y470500D01*
X501900Y467400D02*
X503800Y469300D01*
X489100Y467400D02*
X501900D01*
X487753Y466053D02*
X489100Y467400D01*
X486900Y469000D02*
X492700D01*
X485785Y467885D02*
X486900Y469000D01*
X465057Y502843D02*
X467466D01*
X462300Y505600D02*
X465057Y502843D01*
X457200Y513537D02*
X461860Y518198D01*
X458800Y512875D02*
X461564Y515639D01*
X462300Y505600D02*
Y509300D01*
X492300Y360113D02*
Y362032D01*
X442637Y436037D02*
X447400Y440800D01*
X448600Y428800D02*
Y440800D01*
X319574Y494326D02*
X325126D01*
X318000Y503468D02*
X324268D01*
X327400Y503800D02*
X331100D01*
X553100Y494300D02*
Y501200D01*
X512000Y467000D02*
Y470031D01*
X479880Y450500D02*
X482500D01*
X472500D02*
X479880D01*
X485785Y461923D02*
Y467885D01*
X487753Y461923D02*
Y466053D01*
X503800Y469300D02*
Y472000D01*
X346500Y573800D02*
X350400Y569000D01*
X466100Y446400D02*
Y461923D01*
X445550Y420650D02*
X453700Y428800D01*
X463600Y414733D02*
Y429644D01*
X466150Y446350D02*
X475600Y436900D01*
X473600Y445100D02*
X477100D01*
X420000Y512400D02*
Y518998D01*
X482461Y354661D02*
X489366D01*
X428952Y416352D02*
X436277D01*
X450734Y515639D02*
X454139D01*
X462300Y509300D02*
X463400Y510400D01*
X452320Y388280D02*
X453400Y387200D01*
X463400Y510400D02*
X467100D01*
X413022Y510850D02*
X414800Y509072D01*
X415000Y511135D02*
X416400Y509735D01*
X414800Y498437D02*
Y509072D01*
X415000Y511135D02*
Y518998D01*
X411700Y497600D02*
Y507800D01*
X403547Y411847D02*
Y414500D01*
X400700Y409000D02*
X403547Y411847D01*
X432078Y455722D02*
X436277D01*
X461564Y515639D02*
X467466D01*
X350500Y442244D02*
X355644D01*
X312900Y430400D02*
Y434931D01*
X538200Y355200D02*
X542700Y350700D01*
X538200Y355200D02*
Y367400D01*
X511200Y420400D02*
Y422100D01*
X429154Y455100D02*
X430500Y453754D01*
X423388Y449817D02*
X436277D01*
X430500Y453754D02*
X436277D01*
X380000Y535002D02*
Y542600D01*
X385000Y535002D02*
Y542700D01*
X390000Y535002D02*
Y542900D01*
X415000Y535002D02*
Y542700D01*
X410000Y535002D02*
Y542700D01*
X405000Y535002D02*
Y542800D01*
X421315Y451785D02*
X436277D01*
X400000Y535002D02*
Y542900D01*
X326847Y442647D02*
Y447357D01*
X325800Y441600D02*
X326847Y442647D01*
X325800Y439369D02*
Y441600D01*
X330784Y471584D02*
Y479443D01*
X468069Y402277D02*
X470037D01*
X472006D01*
X332800Y479100D02*
X334700D01*
X313757Y458479D02*
X324179D01*
X325800Y435432D02*
X328669D01*
X313757Y460447D02*
X322947D01*
X397720Y250555D02*
Y254500D01*
X367953Y247047D02*
X370000D01*
X396453Y385500D02*
Y389700D01*
X365900Y249100D02*
X367953Y247047D01*
X365900Y249100D02*
Y260100D01*
X370000Y252953D02*
Y257500D01*
X375000Y252953D02*
Y257100D01*
X395161Y250555D02*
Y254339D01*
X392100Y257400D02*
X395161Y254339D01*
X375000Y247047D02*
X378147D01*
X379300Y248200D01*
Y254500D01*
X382200Y257400D01*
X392100D01*
X357447Y322053D02*
Y328357D01*
X350557Y333279D02*
X355579D01*
X367400Y226200D02*
Y234137D01*
X405398Y250555D02*
Y258598D01*
X397720Y272580D02*
Y277445D01*
X390043Y272857D02*
Y277445D01*
X365321Y313421D02*
Y328357D01*
X367290Y316910D02*
Y328357D01*
X363353Y348043D02*
Y353453D01*
X357447Y348043D02*
Y353347D01*
X390043Y277445D02*
Y282857D01*
X452100Y304400D02*
Y326400D01*
X390043Y282857D02*
X394287Y287100D01*
X407957Y277445D02*
Y282357D01*
X409500Y283900D01*
X431433Y443733D02*
X436099D01*
X431905Y441943D02*
X436277D01*
X430237Y444800D02*
X431317Y445880D01*
X430600Y442900D02*
X431433Y443733D01*
X429554Y410446D02*
X436277D01*
X495923Y436037D02*
X501206D01*
X501853Y436684D01*
X516500D01*
X495923Y438006D02*
X500912D01*
X501191Y438284D01*
X472177Y461923D02*
X473974D01*
X468069Y455106D02*
Y461923D01*
X452320Y388280D02*
Y402277D01*
X481848Y389648D02*
Y402277D01*
X458226Y461923D02*
Y467126D01*
X460194Y461923D02*
Y466832D01*
X453307Y456165D02*
X454289Y457146D01*
X453307Y446457D02*
Y456165D01*
X446649Y445880D02*
X447678Y444850D01*
X490000Y428163D02*
X495923D01*
X472006Y451006D02*
Y461923D01*
X370243Y335247D02*
X373784D01*
X370243Y337216D02*
X373490D01*
X370243Y341153D02*
X372902D01*
X385000Y542700D02*
Y565700D01*
X373500Y577200D02*
X385000Y565700D01*
X509500Y373400D02*
X520800Y384700D01*
X438450Y467650D02*
Y470922D01*
X458226Y397326D02*
Y402277D01*
X455500Y394600D02*
X458226Y397326D01*
X430928Y436972D02*
X431863Y436037D01*
X431194Y426194D02*
X436277D01*
X429963Y440000D02*
X431905Y441943D01*
X428650Y440000D02*
X429963D01*
X385100Y429300D02*
X386600Y430800D01*
X447400Y440800D02*
X448400D01*
X453700Y428800D02*
Y437300D01*
X458450Y442050D01*
X459400Y438700D02*
X461900Y436200D01*
Y410000D02*
Y436200D01*
X495923Y416352D02*
X506548D01*
X495923Y414383D02*
X506254D01*
X563500Y451300D02*
X574489D01*
X579000Y446789D01*
X562837Y449700D02*
X573826D01*
X577300Y446226D01*
X441900Y534200D02*
X452600D01*
X469200Y535500D02*
X480900D01*
X463000Y532000D02*
X479800D01*
X467400Y533600D02*
X480537D01*
X457400Y547300D02*
X469200Y535500D01*
X457400Y547300D02*
Y564866D01*
X390000Y512400D02*
Y518998D01*
X385000Y510600D02*
Y518998D01*
X390800Y498900D02*
Y506600D01*
X416700Y481900D02*
Y485225D01*
X468069Y454931D02*
X472500Y450500D01*
X482500Y445900D02*
X485600Y442800D01*
X488300D01*
X491500Y449817D02*
X495923D01*
X472400Y428200D02*
X475000D01*
X480100Y387900D02*
X481848Y389648D01*
X463800Y352200D02*
X466400Y349600D01*
X454300Y363100D02*
X459800D01*
X465700Y357200D01*
X478300Y352000D02*
Y358700D01*
X472634Y359780D02*
X477220D01*
X478300Y358700D01*
X482800Y514500D02*
Y525000D01*
X470321Y507961D02*
X478139D01*
X443100Y483400D02*
X444446Y482054D01*
Y461923D02*
Y482054D01*
X439800Y480700D02*
X442478Y478022D01*
Y461923D02*
Y478022D01*
X480900Y535500D02*
X493200Y523200D01*
X438100Y515100D02*
X442680Y510520D01*
X438100Y515100D02*
Y520000D01*
X441000Y522900D01*
X436500Y514437D02*
Y528800D01*
Y514437D02*
X442976Y507961D01*
X436500Y528800D02*
X441900Y534200D01*
X438500Y263400D02*
X442047D01*
X438700Y268400D02*
X442147D01*
X432747Y263647D02*
Y268300D01*
X438453Y260653D02*
Y263400D01*
X496820Y357220D02*
X499800Y360200D01*
Y373900D01*
X503000Y363300D02*
Y372574D01*
Y363300D02*
X504600Y361700D01*
X503000Y372574D02*
X519200Y388774D01*
X501400Y357700D02*
Y373237D01*
X500600Y356900D02*
X501400Y357700D01*
X517000Y370072D02*
X523359Y376431D01*
X517000Y356400D02*
Y370072D01*
X520700Y369500D02*
X524500Y373300D01*
X523359Y376431D02*
X539731D01*
X552300Y389000D01*
X556500D01*
X579000Y437300D02*
Y446789D01*
X577300Y437863D02*
Y446226D01*
X573700Y436525D02*
Y445000D01*
X553500Y345900D02*
X566100Y358500D01*
X437600Y259800D02*
X438453Y260653D01*
X397720Y272580D02*
X400000Y270300D01*
X405500D01*
X482800Y525247D02*
Y529000D01*
X479800Y532000D02*
X482800Y529000D01*
X514878Y496322D02*
X517100Y494100D01*
Y484100D02*
Y494100D01*
X512300Y498928D02*
X514878Y496350D01*
X512300Y498928D02*
Y501400D01*
X513400Y502500D01*
X407300Y470800D02*
X408700Y472200D01*
X550300Y488300D02*
X551700Y486900D01*
X532750Y500361D02*
X544811Y488300D01*
X550300D01*
X365321Y348043D02*
Y351021D01*
X370243Y343121D02*
X372607D01*
X373843Y344357D01*
X370243Y345090D02*
X373790D01*
X373843Y344357D02*
Y346743D01*
X370243Y331310D02*
X382610D01*
X370243Y333279D02*
X375979D01*
X377400Y334700D01*
X337300Y345900D02*
Y347700D01*
X335500Y343100D02*
X337837D01*
X341737Y339200D01*
X345207Y343121D02*
X350557D01*
X343728Y344600D02*
X345207Y343121D01*
X332853Y335247D02*
X350557D01*
X484000Y316000D02*
X503700D01*
X430900Y465800D02*
X436600D01*
X438450Y467650D01*
X388300Y464200D02*
X389549Y465449D01*
X324061Y556839D02*
X330300Y550600D01*
X271236Y535836D02*
X276471Y530600D01*
X463600Y414733D02*
X466100Y412233D01*
X463600Y429644D02*
X466100Y432144D01*
X465800Y416400D02*
Y427400D01*
Y416400D02*
X470100Y412100D01*
Y409400D02*
Y412100D01*
X303100Y263000D02*
X323212Y242888D01*
X359500Y302200D02*
Y311463D01*
X357500Y298000D02*
Y311200D01*
X362371Y311229D02*
Y324950D01*
X355479Y315484D02*
X359500Y311463D01*
X355479Y315484D02*
Y328357D01*
X353510Y315190D02*
X357500Y311200D01*
X396453Y389700D02*
X409453D01*
Y385500D02*
Y389700D01*
X483817Y384683D02*
Y402277D01*
Y384683D02*
X486000Y382500D01*
X485785Y389415D02*
Y402277D01*
Y389415D02*
X489000Y386200D01*
X551800Y337300D02*
Y355800D01*
Y367947D01*
X487754Y393746D02*
Y402277D01*
Y393746D02*
X489500Y392000D01*
X489722Y397778D02*
X492000Y395500D01*
X495923Y412415D02*
X501585D01*
X504000Y410000D01*
X384531Y241769D02*
Y244000D01*
X380500D02*
X384531D01*
X365900Y260100D02*
X368300Y262500D01*
X389720D01*
X397720Y254500D01*
X392400Y400600D02*
Y403700D01*
X392900Y400100D02*
X394157D01*
X408200Y403053D02*
X411447D01*
X401243Y403840D02*
X407413D01*
X408200Y403053D01*
X337000Y414547D02*
X342500D01*
X388469Y244000D02*
X400000D01*
X311500Y429000D02*
X312900Y430400D01*
X490500Y555500D02*
X492211D01*
X329100Y487700D02*
Y489600D01*
X331100Y491600D02*
Y503800D01*
X329100Y489600D02*
X331100Y491600D01*
X330300Y550600D02*
X352600D01*
X290957Y466543D02*
X293760D01*
X289831Y467669D02*
X290957Y466543D01*
X289831Y467669D02*
Y472544D01*
X353490Y456510D02*
X356490Y453510D01*
X345843Y456510D02*
X353490D01*
Y460405D01*
X338100Y487200D02*
X341100Y490200D01*
X329700Y484200D02*
X333900D01*
X313757Y462416D02*
X318916D01*
X320942Y464442D01*
X291800Y478056D02*
Y479700D01*
X290819Y480682D02*
X291800Y479700D01*
X290819Y480682D02*
Y482287D01*
X337684Y462416D02*
X345843D01*
X334200Y465900D02*
X337684Y462416D01*
X322947Y460447D02*
X328400Y465900D01*
X334200D01*
X324179Y458479D02*
X328200Y462500D01*
X331500D01*
X334072D01*
X338093Y458479D01*
X340673D01*
X345843D01*
X340673Y454542D02*
Y458479D01*
X313500Y474483D02*
Y477500D01*
X335950Y454050D02*
Y455722D01*
X333988Y457684D02*
X335950Y455722D01*
Y454050D02*
X338658Y451342D01*
X340673Y454542D02*
X343875D01*
X345843D01*
X328816Y439515D02*
Y447357D01*
Y483316D02*
X329700Y484200D01*
X334721Y447357D02*
Y452779D01*
X338658Y479443D02*
Y483158D01*
X345843Y464384D02*
X357884D01*
X351500Y477000D02*
X353500Y475000D01*
X333000Y454500D02*
X334721Y452779D01*
X527828Y318000D02*
X539500D01*
X516878Y307050D02*
X527828Y318000D01*
X338658Y483158D02*
X342500Y487000D01*
X347500D01*
X341100Y490200D02*
Y493600D01*
X340874Y494226D02*
X347694D01*
X346800Y503700D02*
X348000Y502500D01*
Y498469D02*
Y502500D01*
X400000Y510500D02*
Y518998D01*
X395000Y512000D02*
Y518998D01*
X394000Y511000D02*
X395000Y512000D01*
X385550Y507950D02*
X390000Y512400D01*
X385550Y464669D02*
X386600Y463619D01*
X395000Y535002D02*
Y542900D01*
X410500Y465058D02*
X413700Y468258D01*
X409400Y442600D02*
X410500Y443700D01*
X407300Y442763D02*
X408900Y444363D01*
X404300Y443700D02*
X407300Y446700D01*
X401200Y445800D02*
X405700Y450300D01*
X410500Y443700D02*
Y465058D01*
X408900Y444363D02*
Y465720D01*
X407300Y446700D02*
Y470800D01*
X395950Y505350D02*
X397400Y506800D01*
X395950Y464000D02*
Y505350D01*
X402600Y451900D02*
Y454100D01*
X404050Y455550D01*
X394000Y465500D02*
Y511000D01*
X386600Y430800D02*
Y463619D01*
X391000Y462500D02*
X394000Y465500D01*
X391000Y437765D02*
Y462500D01*
X394500Y456500D02*
Y462550D01*
X395950Y464000D01*
X409500Y283900D02*
X416137D01*
X394287Y287100D02*
X417074D01*
X504978Y303850D02*
X519478D01*
X503653Y307050D02*
X516878D01*
X483000Y288660D02*
X506640Y312300D01*
X477700Y283705D02*
Y318700D01*
X481313Y277550D02*
X484600Y280837D01*
X480650Y279150D02*
X483000Y281500D01*
X486200Y287335D02*
X504315Y305450D01*
X487800Y286672D02*
X504978Y303850D01*
X462437Y358200D02*
X466037Y354600D01*
X484600Y287997D02*
X503653Y307050D01*
X433700Y303726D02*
Y363800D01*
X435500Y366526D02*
X436900Y365125D01*
X435500Y366526D02*
Y370000D01*
X435300Y303063D02*
Y364463D01*
X433228Y382000D02*
X435000D01*
X427500Y376272D02*
X433228Y382000D01*
X427500Y370000D02*
Y376272D01*
Y370000D02*
X433700Y363800D01*
X481000Y274500D02*
X486200Y279700D01*
X480500Y271500D02*
X487800Y278800D01*
X467500Y271500D02*
X480500D01*
X465500Y273500D02*
X467500Y271500D01*
X275000Y269000D02*
X281000Y263000D01*
X266400Y269000D02*
X275000D01*
X264164Y271236D02*
X266400Y269000D01*
X312500Y290400D02*
Y325500D01*
X397550Y452950D02*
X399000Y451500D01*
Y448500D02*
Y451500D01*
X414000Y437000D02*
X420000Y443000D01*
Y446428D01*
X450300Y268400D02*
X451400Y269500D01*
Y280000D01*
X447400Y284000D02*
X451400Y280000D01*
X450900Y263400D02*
X453000Y265500D01*
Y284000D01*
X438500Y298500D02*
X453000Y284000D01*
X440450Y299050D02*
X454700Y284800D01*
X442050Y300187D02*
X456300Y285937D01*
X458000Y255500D02*
X459500Y254000D01*
X458000Y255500D02*
Y286500D01*
X443650Y300850D02*
X458000Y286500D01*
X446250Y250250D02*
X452250D01*
X454700Y252700D01*
Y284800D01*
X440750Y235250D02*
X456300Y250800D01*
Y285937D01*
X445800Y242563D02*
Y247500D01*
X435500Y232263D02*
X445800Y242563D01*
X440750Y230750D02*
Y235250D01*
X484700Y437500D02*
X488000D01*
X447300Y359700D02*
X448800Y358200D01*
X462437D01*
X382610Y331310D02*
X389800Y338500D01*
X422000D01*
X380537Y342000D02*
X393500D01*
X373784Y335247D02*
X380537Y342000D01*
X381275Y345000D02*
X396750D01*
X373490Y337216D02*
X381275Y345000D01*
X370243Y339184D02*
X373196D01*
X382012Y348000D02*
X394000D01*
X373196Y339184D02*
X382012Y348000D01*
X372902Y341153D02*
X383249Y351500D01*
X397500D01*
X507950Y344750D02*
X512700Y349500D01*
Y368300D01*
X485135Y327000D02*
X511100Y352965D01*
Y368963D01*
X497872Y342000D02*
X509500Y353628D01*
Y373400D01*
X506000Y369500D02*
X507800Y367700D01*
X518300Y346800D02*
X520700Y349200D01*
Y369500D01*
X355050Y497222D02*
X359328Y501500D01*
X355050Y494354D02*
X357000Y492404D01*
X355050Y494354D02*
Y497222D01*
X397550Y452950D02*
Y500813D01*
X400500Y459500D02*
Y501500D01*
X402450Y503450D01*
X397550Y500813D02*
X400850Y504113D01*
X447800Y355300D02*
X450900Y352200D01*
X463800D01*
X481800Y359300D02*
X484300D01*
X487400Y362400D01*
X490500D01*
X430428Y431028D02*
X431500Y432100D01*
X426928Y429428D02*
X431091D01*
X427591Y427828D02*
X431754D01*
X426050Y413450D02*
X428952Y416352D01*
X411037Y423100D02*
X415000Y419137D01*
Y412500D02*
Y419137D01*
X416500Y389000D02*
X419600Y392100D01*
X411700Y424700D02*
X418000Y418400D01*
X414000Y430000D02*
X419600Y424400D01*
X422800Y425300D02*
X426928Y429428D01*
X424450Y397050D02*
X426000Y395500D01*
X424450Y424687D02*
X427591Y427828D01*
X417763Y383828D02*
X422800Y388865D01*
X416163Y384491D02*
X421200Y389528D01*
X425000Y389500D02*
X428950Y393450D01*
X421200Y426650D02*
X425578Y431028D01*
X430428D01*
X425200Y350800D02*
X427000Y349000D01*
Y324300D02*
Y349000D01*
X427050Y353950D02*
X428600Y352400D01*
X427950Y355550D02*
X430200Y353300D01*
X396000Y314400D02*
X417100D01*
X427000Y324300D01*
X428600Y312228D02*
Y352400D01*
X419135Y300500D02*
X430200Y311565D01*
X396000Y300500D02*
X419135D01*
X430200Y311565D02*
Y353300D01*
X418472Y302100D02*
X428600Y312228D01*
X389100Y293600D02*
X396000Y300500D01*
X372100Y298900D02*
X378100D01*
X365778Y297950D02*
X370150D01*
X372050Y296050D01*
X367000Y295000D02*
X370500D01*
X372050Y296050D02*
X384550D01*
X390600Y302100D01*
X418472D01*
X414000Y430000D02*
Y437000D01*
X370500Y295000D02*
X371900Y293600D01*
X400300Y289500D02*
X408300Y297500D01*
X329500Y301100D02*
X341100Y289500D01*
X361778Y287050D02*
X364222D01*
X366672Y289500D02*
X400300D01*
X341100D02*
X359328D01*
X361778Y287050D01*
X364222D02*
X366672Y289500D01*
X363000Y290000D02*
Y295172D01*
X365778Y297950D01*
X456600Y297400D02*
X474850Y279150D01*
X480650D01*
X464500Y279500D02*
X466450Y277550D01*
X481313D01*
X453650Y293113D02*
X459600Y287163D01*
Y259066D02*
X475939Y242727D01*
X459600Y259066D02*
Y287163D01*
X453650Y293113D02*
Y303687D01*
X456000Y306037D01*
Y327000D01*
X443650Y339350D02*
Y363150D01*
Y339350D02*
X456000Y327000D01*
X478969Y390940D02*
Y393000D01*
X477150Y389122D02*
X478969Y390940D01*
X477150Y385650D02*
Y389122D01*
X474025Y382525D02*
X477150Y385650D01*
X468069Y396608D02*
X470000Y394677D01*
X468069Y396608D02*
Y402277D01*
X470000Y394677D02*
Y402240D01*
Y394677D02*
X472006Y396682D01*
Y402277D01*
X483000Y281500D02*
Y288660D01*
X484600Y280837D02*
Y287997D01*
X486200Y279700D02*
Y287335D01*
X487800Y278800D02*
Y286672D01*
X301372Y482300D02*
X304000Y479672D01*
X425500Y286000D02*
X428500Y283000D01*
Y275000D02*
Y283000D01*
Y275000D02*
X431000Y272500D01*
X437000D01*
X438553Y270947D01*
Y268400D02*
Y270947D01*
X347500Y539500D02*
X352000Y544000D01*
X427000Y228500D02*
X441800Y243300D01*
X385600Y240700D02*
X405575D01*
X410516Y245641D01*
X370763Y237500D02*
X406900D01*
X348500Y247500D02*
Y249500D01*
X350000Y251000D01*
X351531D01*
X343044Y266491D02*
X348035Y261500D01*
X359000D01*
X363500Y266000D01*
X473974Y402277D02*
X475943D01*
X461850Y468487D02*
Y496078D01*
X460250Y469150D02*
Y495415D01*
X302839Y426043D02*
X304650Y427855D01*
Y431837D01*
X534000Y383000D02*
X544000D01*
X506500Y401000D02*
X509500D01*
X504953Y399453D02*
X506500Y401000D01*
X504953Y395500D02*
Y399453D01*
X508500Y391500D02*
X509722Y392722D01*
X512450D01*
X514300Y395700D02*
Y406337D01*
X515900Y396600D02*
Y407000D01*
X514300Y395700D02*
X516000Y394000D01*
Y390100D02*
Y394000D01*
X515900Y396600D02*
X517600Y394900D01*
Y389437D02*
Y394900D01*
X525500Y391500D02*
Y397000D01*
X523700Y500400D02*
X525700Y498400D01*
X500500Y387800D02*
X506200D01*
X547000Y379000D02*
X563172D01*
X563936Y379764D01*
X512700Y368300D02*
X529000Y384600D01*
X356490Y449150D02*
Y453510D01*
X457500Y227500D02*
Y235100D01*
X447900Y277000D02*
Y279300D01*
X489366Y349543D02*
X497785D01*
X446450Y402250D02*
Y412500D01*
X431317Y445880D02*
X446649D01*
X454289Y457146D02*
Y467911D01*
X457250Y482350D02*
Y493572D01*
X568400Y421900D02*
Y426700D01*
X442000Y277100D02*
Y279900D01*
X569700Y364200D02*
Y414572D01*
X565350Y419650D02*
X568050Y416950D01*
X489366Y364898D02*
X494702D01*
X484100Y364900D02*
X492300D01*
X544000Y383000D02*
X563500Y402500D01*
Y426326D01*
X573700Y436525D01*
X529000Y449000D02*
X535500Y455500D01*
X529000Y384600D02*
Y449000D01*
X489576Y352100D02*
X499400D01*
X524200Y463000D02*
X551800D01*
X563500Y451300D01*
X553937Y458600D02*
X562837Y449700D01*
X403547Y381453D02*
X405500Y379500D01*
X409500D01*
X390547Y381453D02*
Y385500D01*
Y381453D02*
X392500Y379500D01*
X396500D01*
X401200Y429828D02*
X406328Y424700D01*
X411700D01*
X391000Y437765D02*
X405665Y423100D01*
X411037D01*
X383550Y417450D02*
X386000Y419900D01*
Y423500D01*
X388300Y425800D01*
Y464200D01*
X390500Y420500D02*
X394500D01*
X396453Y418547D01*
Y414500D02*
Y418547D01*
X403500Y420600D02*
X406900D01*
X409500Y418000D01*
Y414700D02*
Y418000D01*
X293500Y263000D02*
Y263700D01*
X281000Y263000D02*
X293500D01*
X303100D01*
D38*
X248500Y357000D02*
X249000Y356500D01*
X254850D01*
D39*
X372300Y457500D02*
X373500Y456300D01*
Y406000D02*
Y456300D01*
Y406000D02*
X374500Y405000D01*
X288500Y368500D02*
Y373031D01*
X233961Y342539D02*
X235073D01*
X219500Y357000D02*
X233961Y342539D01*
X219500Y357000D02*
Y398300D01*
X264500Y379850D02*
Y384449D01*
X262319Y384724D02*
X264224D01*
X259500D02*
X262319D01*
X264106Y379457D02*
X264500Y379850D01*
X264224Y384724D02*
X264500Y384449D01*
X258138Y383362D02*
X259500Y384724D01*
X258138Y379457D02*
Y383362D01*
X275000Y501900D02*
X280100Y507000D01*
X361453Y366500D02*
Y371500D01*
X377850Y371350D02*
Y392650D01*
X358500Y362631D02*
X361453Y365583D01*
Y366500D01*
X373000D01*
X377850Y371350D01*
X352500Y355500D02*
X353056Y356056D01*
X329000Y355000D02*
X329500Y355500D01*
X332547D01*
X227500Y431450D02*
Y438500D01*
X242827Y476239D02*
X243800Y475266D01*
Y454800D02*
Y475266D01*
X227500Y438500D02*
X243800Y454800D01*
X212800Y416800D02*
X227500Y431500D01*
X212800Y405000D02*
Y416800D01*
X354256Y353744D02*
X357500D01*
X352500Y355500D02*
X354256Y353744D01*
X374000Y396500D02*
X377850Y392650D01*
X374000Y396500D02*
Y405000D01*
X372300Y457500D02*
Y502720D01*
X268500Y484500D02*
X275000Y491000D01*
X268500Y483500D02*
Y484500D01*
X275000Y491000D02*
Y501900D01*
X348328Y242500D02*
X354500Y236328D01*
X336900Y242500D02*
X348328D01*
X333300Y238900D02*
X336900Y242500D01*
X431500Y224000D02*
X435000Y227500D01*
X406000Y224000D02*
X431500D01*
X400000Y230000D02*
X406000Y224000D01*
X430000Y554500D02*
Y562500D01*
Y535002D02*
Y554500D01*
X400000Y230000D02*
Y234000D01*
X530550Y510000D02*
Y514050D01*
Y499450D02*
Y510000D01*
X493300Y461700D02*
X506500D01*
X528500Y510000D02*
X530550D01*
X339020Y276969D02*
Y279980D01*
X337500Y281500D02*
X339020Y279980D01*
X334500Y281500D02*
X337500D01*
X318969Y253031D02*
X328980D01*
X292000Y280000D02*
X318969Y253031D01*
X498100Y546500D02*
X530550Y514050D01*
X488500Y546500D02*
X498100D01*
X471500D02*
X488500D01*
X466700Y551300D02*
X471500Y546500D01*
X466700Y551300D02*
Y561100D01*
X370000Y505020D02*
X372300Y502720D01*
X370000Y505020D02*
Y518000D01*
X573900Y457461D02*
Y473500D01*
X347000Y269350D02*
X355000D01*
X434000Y581000D02*
X439900Y575100D01*
X405000Y581000D02*
X434000D01*
X405000D02*
Y587200D01*
X353700Y581000D02*
X405000D01*
X351666Y578966D02*
X353700Y581000D01*
X534950Y501272D02*
Y516350D01*
X529186Y522114D02*
X534950Y516350D01*
X380350Y446850D02*
Y476900D01*
X378000Y444500D02*
X380350Y446850D01*
X583600Y412100D02*
Y445300D01*
X582400Y410900D02*
X583600Y412100D01*
X582400Y400000D02*
Y410900D01*
X476300Y575000D02*
X529186Y522114D01*
X462700Y575000D02*
X476300D01*
X439900Y575100D02*
X461600D01*
X370000Y551000D02*
Y560631D01*
Y535002D02*
Y551000D01*
X329000Y332800D02*
Y355000D01*
X346500Y573800D02*
X351666Y578966D01*
X370000Y560631D01*
X553100Y494300D02*
X573900Y473500D01*
X534950Y501272D02*
X541923Y494300D01*
X553100D01*
X506500Y461700D02*
X511500Y466700D01*
X420000Y535002D02*
Y542700D01*
X561900Y467500D02*
X564700Y470300D01*
Y476800D01*
X430100Y478000D02*
Y518898D01*
X573900Y455000D02*
X583600Y445300D01*
X582400Y400000D02*
X587200Y395200D01*
X551389Y481900D02*
X559600D01*
X564700Y476800D01*
X530550Y499450D02*
X545200Y484800D01*
X548489D01*
X551389Y481900D01*
X317100Y571800D02*
X344500D01*
X346500Y573800D01*
X295860Y546600D02*
X334700D01*
X280100Y530840D02*
X295860Y546600D01*
X573900Y455000D02*
Y457461D01*
X280100Y507000D02*
Y530840D01*
X276500Y508800D02*
Y531200D01*
X317100Y571800D01*
X511500Y466700D02*
X545000D01*
X561100D01*
X533000Y443000D02*
X545000Y455000D01*
X533000Y407000D02*
Y443000D01*
Y407000D02*
X540000Y400000D01*
X212800Y405000D02*
X219500Y398300D01*
X258138Y379457D02*
X258681Y380000D01*
X259000D01*
X378000Y413000D02*
Y444500D01*
D40*
Y407335D02*
Y413000D01*
Y407335D02*
X388975Y396360D01*
X284468Y388579D02*
Y392500D01*
X388975Y396360D02*
X401243D01*
X465543Y367457D02*
X469779D01*
X463000Y370000D02*
X465543Y367457D01*
X463000Y370000D02*
Y377500D01*
X522000Y271000D02*
X528764Y264164D01*
X401243Y396360D02*
X404860D01*
X405647Y397147D01*
X408200D01*
X468025Y392702D02*
X470000Y394677D01*
X463000Y377500D02*
X468025Y382525D01*
Y392702D01*
D41*
X286500Y477756D02*
Y487300D01*
X281500Y477953D02*
X281697Y477756D01*
X286200D01*
X347000Y275650D02*
X365850D01*
X357998Y518998D02*
X370000D01*
X353350Y514350D02*
X357998Y518998D01*
X353350Y493650D02*
Y514350D01*
X349300Y513492D02*
Y534800D01*
X344808Y509000D02*
X349300Y513492D01*
X319528Y509000D02*
X344808D01*
X345800Y514800D02*
Y542300D01*
X343450Y512450D02*
X345800Y514800D01*
X311650Y512450D02*
X343450D01*
X469800Y467500D02*
X476500D01*
X463500D02*
X469800D01*
Y486300D01*
X479536Y412464D02*
X481500Y410500D01*
X476464Y412464D02*
X479536D01*
X473974Y409974D02*
X476464Y412464D01*
X476500Y467500D02*
X477911Y466089D01*
Y461923D02*
Y466089D01*
X286500Y487300D02*
X311650Y512450D01*
X286800Y478056D02*
X289831D01*
X471000Y487500D02*
Y493500D01*
X353500Y473000D02*
X355300Y474800D01*
X362500Y548000D02*
X365500Y551000D01*
X370000D01*
X315000Y504472D02*
X319528Y509000D01*
X315000Y490383D02*
Y504472D01*
Y490383D02*
X320942Y484442D01*
Y479443D02*
Y484442D01*
X475031Y391531D02*
Y393000D01*
X474000Y390500D02*
X475031Y391531D01*
X470953Y390500D02*
X474000D01*
X371400Y264600D02*
X394700D01*
X402839Y256461D01*
Y250555D02*
Y256461D01*
X490020Y445880D02*
X495923D01*
X477911Y455411D02*
Y461923D01*
X476400Y453900D02*
X477911Y455411D01*
X355300Y474800D02*
Y491700D01*
X353350Y493650D02*
X355300Y491700D01*
X470953Y387047D02*
X472000Y386000D01*
X470953Y387047D02*
Y390500D01*
X370500Y265500D02*
X371400Y264600D01*
X349300Y534800D02*
X362500Y548000D01*
X351500D02*
X362500D01*
X345800Y542300D02*
X351500Y548000D01*
X365850Y275650D02*
X370000Y271500D01*
Y265500D02*
Y271500D01*
X473974Y398026D02*
Y402277D01*
Y398026D02*
X475031Y396969D01*
Y393000D02*
Y396969D01*
X475943Y397880D02*
Y402277D01*
X475031Y396969D02*
X475943Y397880D01*
X479880Y402277D02*
Y406380D01*
X481500Y408000D01*
Y410500D01*
X473974Y402277D02*
Y409974D01*
X469800Y486300D02*
X471000Y487500D01*
X462163Y466163D02*
X463500Y467500D01*
X462163Y461923D02*
Y466163D01*
X473664Y415264D02*
X476464Y412464D01*
X495923Y445880D02*
X506880D01*
D47*
X597000Y395000D02*
D03*
Y400000D02*
D03*
Y405000D02*
D03*
X395000Y597000D02*
D03*
X400000D02*
D03*
X405000D02*
D03*
X203400Y395000D02*
D03*
X203500Y400000D02*
D03*
X203400Y405000D02*
D03*
X405000Y203100D02*
D03*
X400000Y203000D02*
D03*
X395000Y203100D02*
D03*
D48*
X200000Y200000D02*
D03*
X600000Y600000D02*
D03*
D49*
X291700Y520100D02*
D03*
X508300D02*
D03*
D50*
X271236Y264164D02*
D03*
X264164Y271236D02*
D03*
Y528764D02*
D03*
X271236Y535836D02*
D03*
X405000Y212800D02*
D03*
X395000D02*
D03*
X235173Y457761D02*
D03*
X239000Y467000D02*
D03*
X242827Y476239D02*
D03*
X242727Y324061D02*
D03*
X238900Y333300D02*
D03*
X235073Y342539D02*
D03*
X333300Y238900D02*
D03*
X324061Y242727D02*
D03*
X342539Y235073D02*
D03*
X475939Y242727D02*
D03*
X466700Y238900D02*
D03*
X457461Y235073D02*
D03*
X564927Y342539D02*
D03*
X561100Y333300D02*
D03*
X557273Y324061D02*
D03*
Y475939D02*
D03*
X561100Y466700D02*
D03*
X564927Y457461D02*
D03*
X457461Y564927D02*
D03*
X466700Y561100D02*
D03*
X475939Y557273D02*
D03*
X395000Y587200D02*
D03*
X405000D02*
D03*
X535836Y271236D02*
D03*
X528764Y264164D02*
D03*
X587200Y405000D02*
D03*
Y395000D02*
D03*
X528764Y535836D02*
D03*
X535836Y528764D02*
D03*
X247000Y502000D02*
D03*
X257000D02*
D03*
X553000D02*
D03*
X543000D02*
D03*
X247000Y298000D02*
D03*
X257000D02*
D03*
X324061Y557273D02*
D03*
X333300Y561100D02*
D03*
X342539Y564927D02*
D03*
X212800Y395000D02*
D03*
Y405000D02*
D03*
X543000Y298000D02*
D03*
X553000D02*
D03*
D51*
X291700Y279900D02*
D03*
X508300D02*
D03*
D52*
X312000Y390500D02*
D03*
Y370500D02*
D03*
X332000D02*
D03*
X322006Y380540D02*
D03*
X332000Y390500D02*
D03*
D53*
X341800Y516600D02*
D03*
Y524600D02*
D03*
X443000Y527300D02*
D03*
X356900Y527000D02*
D03*
D54*
X488500Y546500D02*
D03*
X550000Y400000D02*
D03*
D55*
X488500Y536500D02*
D03*
X540000Y400000D02*
D03*
X550000Y410000D02*
D03*
X540000D02*
D03*
X550000Y420000D02*
D03*
X540000D02*
D03*
X550000Y430000D02*
D03*
X540000D02*
D03*
X550000Y440000D02*
D03*
X540000D02*
D03*
D56*
X382611Y230783D02*
D03*
X380452Y219571D02*
D03*
X352230Y225006D02*
D03*
X354389Y236217D02*
D03*
D57*
X378000Y413000D02*
D03*
X242500Y425000D02*
D03*
X374000Y405000D02*
D03*
X239000Y380000D02*
D03*
X244500Y380500D02*
D03*
X267000Y448500D02*
D03*
X234000Y422000D02*
D03*
X254000Y491500D02*
D03*
X262500D02*
D03*
X267000Y495000D02*
D03*
X352000Y416500D02*
D03*
X353000Y422000D02*
D03*
X268500Y483500D02*
D03*
X311100Y419500D02*
D03*
X283453Y462953D02*
D03*
X290500Y445500D02*
D03*
X406500Y231500D02*
D03*
X439700Y480700D02*
D03*
X545000Y455000D02*
D03*
X535500Y455500D02*
D03*
X524200Y458600D02*
D03*
X528500Y510000D02*
D03*
X334500Y281500D02*
D03*
X416000Y491000D02*
D03*
X429700Y404800D02*
D03*
X429000Y411000D02*
D03*
X434000Y403500D02*
D03*
X443500Y409500D02*
D03*
X444300Y417700D02*
D03*
X365000Y434000D02*
D03*
X583000Y384500D02*
D03*
X564500D02*
D03*
X553000D02*
D03*
X476500Y274500D02*
D03*
X436802Y247302D02*
D03*
X348500Y322900D02*
D03*
X365550Y508450D02*
D03*
X311000Y444500D02*
D03*
X476700Y435900D02*
D03*
X466500Y472000D02*
D03*
X473000Y471037D02*
D03*
X314500Y448000D02*
D03*
X321000Y455500D02*
D03*
X301500Y490000D02*
D03*
X286500Y468500D02*
D03*
X424000Y351000D02*
D03*
X443100Y483400D02*
D03*
X352500Y355500D02*
D03*
X471000Y493500D02*
D03*
X579000Y429000D02*
D03*
X430500Y371500D02*
D03*
X435000Y382000D02*
D03*
X435500Y370000D02*
D03*
X354500Y552500D02*
D03*
X458000Y538000D02*
D03*
X417500Y558500D02*
D03*
X367000Y295000D02*
D03*
X383550Y417450D02*
D03*
X455000Y520000D02*
D03*
X456500Y454500D02*
D03*
X376500Y461500D02*
D03*
X380350Y476900D02*
D03*
X341000Y545000D02*
D03*
X368500Y501500D02*
D03*
X363500Y544000D02*
D03*
X300500Y477500D02*
D03*
X290832Y486332D02*
D03*
X353500Y473000D02*
D03*
X362100Y501500D02*
D03*
X358000Y496000D02*
D03*
X367500Y492500D02*
D03*
X367050Y487831D02*
D03*
X362500Y481000D02*
D03*
X334200Y314500D02*
D03*
X422500Y274500D02*
D03*
X498000Y247500D02*
D03*
X352000Y544000D02*
D03*
X362625Y460500D02*
D03*
X351500Y436500D02*
D03*
X311500Y429000D02*
D03*
X327422Y430373D02*
D03*
X459000Y372500D02*
D03*
X543000Y331000D02*
D03*
X464500Y279500D02*
D03*
X443200Y285900D02*
D03*
X574000Y424000D02*
D03*
X568000Y416900D02*
D03*
X566600Y406500D02*
D03*
X269500Y308000D02*
D03*
X400000Y234000D02*
D03*
X359500Y228300D02*
D03*
X367700Y226100D02*
D03*
X503500Y446000D02*
D03*
X400000Y244000D02*
D03*
X450300Y253200D02*
D03*
X356400Y431700D02*
D03*
X345500Y477500D02*
D03*
X324879Y472121D02*
D03*
X423000Y442500D02*
D03*
X416000Y444100D02*
D03*
X503500Y427500D02*
D03*
X382872Y572000D02*
D03*
X478000Y499963D02*
D03*
X452200Y491900D02*
D03*
X457300Y493200D02*
D03*
X461800Y500300D02*
D03*
X484500Y510000D02*
D03*
X474500Y476000D02*
D03*
X441500Y393500D02*
D03*
X447000D02*
D03*
X451200Y409600D02*
D03*
X457500Y418000D02*
D03*
X477911Y409289D02*
D03*
X470100Y409400D02*
D03*
X488600Y423400D02*
D03*
X488700Y429300D02*
D03*
X488000Y437500D02*
D03*
X485000Y411500D02*
D03*
X523800Y505800D02*
D03*
X449000Y417000D02*
D03*
X429000Y289000D02*
D03*
X459500Y254000D02*
D03*
X484100Y364900D02*
D03*
X524500Y301000D02*
D03*
X363200Y224800D02*
D03*
X390100Y466000D02*
D03*
X466600Y476800D02*
D03*
X423200Y487900D02*
D03*
X329000Y331600D02*
D03*
X408700Y473100D02*
D03*
X465500Y273500D02*
D03*
X441800Y243500D02*
D03*
X447400Y284000D02*
D03*
X448300Y300600D02*
D03*
X438600Y290500D02*
D03*
X425500Y286000D02*
D03*
X422000Y338500D02*
D03*
X418500Y297500D02*
D03*
X365300Y304400D02*
D03*
X370600Y313400D02*
D03*
X378100Y299000D02*
D03*
X447800Y355300D02*
D03*
X408300Y335000D02*
D03*
X424000Y311800D02*
D03*
X399000Y326500D02*
D03*
X391000Y309300D02*
D03*
X395000Y542900D02*
D03*
X411800Y427900D02*
D03*
X484300Y346200D02*
D03*
X267600Y518224D02*
D03*
X517100Y484100D02*
D03*
X521400D02*
D03*
X525700Y484200D02*
D03*
X535900Y478100D02*
D03*
X541900D02*
D03*
X498200Y483300D02*
D03*
X482674Y473826D02*
D03*
X493300Y461600D02*
D03*
X483800Y453500D02*
D03*
X516100Y499300D02*
D03*
X519500Y502400D02*
D03*
X500400Y356400D02*
D03*
X444900Y434000D02*
D03*
X346800Y503700D02*
D03*
X523800Y500500D02*
D03*
X490500Y555500D02*
D03*
X329000Y355000D02*
D03*
X350400Y569000D02*
D03*
X461900Y575000D02*
D03*
X463000Y532000D02*
D03*
X329600Y311200D02*
D03*
X446600Y360200D02*
D03*
X556500Y389000D02*
D03*
X461900Y409800D02*
D03*
X473600Y445100D02*
D03*
X481800Y359300D02*
D03*
X485000Y426500D02*
D03*
X568300Y421900D02*
D03*
X429500Y465800D02*
D03*
X454300Y363100D02*
D03*
X573700Y445000D02*
D03*
X458300Y355200D02*
D03*
X550300Y474100D02*
D03*
X408200Y504100D02*
D03*
X411700Y507800D02*
D03*
X402600Y451500D02*
D03*
X407950Y482950D02*
D03*
X430100Y477300D02*
D03*
X448600Y441000D02*
D03*
X434600Y469700D02*
D03*
X375100Y542700D02*
D03*
X345900Y447500D02*
D03*
X484000Y316000D02*
D03*
X405500Y270300D02*
D03*
X405600Y263400D02*
D03*
X528000Y321000D02*
D03*
X450400Y384200D02*
D03*
X380000Y542600D02*
D03*
X385000Y542700D02*
D03*
X390000Y542900D02*
D03*
X420000Y542700D02*
D03*
X415000D02*
D03*
X410000D02*
D03*
X405000Y542800D02*
D03*
X400000Y542900D02*
D03*
X380500Y244000D02*
D03*
X374800Y257400D02*
D03*
X370000Y257500D02*
D03*
X332853Y335247D02*
D03*
X332700Y339600D02*
D03*
X350800Y311500D02*
D03*
X405500Y258700D02*
D03*
X415500Y258800D02*
D03*
X365321Y313421D02*
D03*
X316000Y309100D02*
D03*
X335500Y343100D02*
D03*
X447600Y331200D02*
D03*
X337400Y348000D02*
D03*
X452100Y326400D02*
D03*
X393500Y342000D02*
D03*
X394000Y348000D02*
D03*
X397500Y351500D02*
D03*
X458300Y367800D02*
D03*
X480100Y387900D02*
D03*
X543000Y350700D02*
D03*
X489500Y392000D02*
D03*
X542800Y360500D02*
D03*
X542700Y355900D02*
D03*
X518300Y346800D02*
D03*
X539800Y325600D02*
D03*
X473700Y415300D02*
D03*
X448900Y447800D02*
D03*
X469100Y418300D02*
D03*
X472300Y421300D02*
D03*
X472400Y428200D02*
D03*
X488700Y442800D02*
D03*
X476400Y453900D02*
D03*
X371500Y326500D02*
D03*
X530700Y355500D02*
D03*
X368200Y577300D02*
D03*
X360600Y575800D02*
D03*
X517000Y356200D02*
D03*
X506200Y387700D02*
D03*
X499400Y352100D02*
D03*
X506000Y370300D02*
D03*
X437600Y488200D02*
D03*
X569400Y364200D02*
D03*
X573200Y371100D02*
D03*
X459000Y388000D02*
D03*
X421200Y451800D02*
D03*
X428600Y439950D02*
D03*
X383600Y429300D02*
D03*
Y433600D02*
D03*
X404300Y443300D02*
D03*
X459400Y438700D02*
D03*
X397400Y506800D02*
D03*
X547500Y363500D02*
D03*
X511900Y312200D02*
D03*
X481800Y354700D02*
D03*
X524200Y463000D02*
D03*
X454100Y529800D02*
D03*
Y534300D02*
D03*
X390800Y506600D02*
D03*
Y497800D02*
D03*
X416700Y480700D02*
D03*
X488600Y447100D02*
D03*
X489000Y386000D02*
D03*
X486000Y382500D02*
D03*
X426500Y500300D02*
D03*
Y494200D02*
D03*
X451200Y484500D02*
D03*
X454200Y524600D02*
D03*
X392500Y271000D02*
D03*
X424000Y455100D02*
D03*
X429800Y458100D02*
D03*
X504600Y361700D02*
D03*
X507800Y344800D02*
D03*
X524500Y373400D02*
D03*
X521000Y455600D02*
D03*
X580000Y379764D02*
D03*
Y414200D02*
D03*
X441000Y230500D02*
D03*
X435100Y227500D02*
D03*
X399000Y448500D02*
D03*
X551700Y486900D02*
D03*
X377600Y334700D02*
D03*
X343500Y344600D02*
D03*
X374200Y347000D02*
D03*
X373700Y354100D02*
D03*
X503700Y316000D02*
D03*
X506100Y300800D02*
D03*
X334700Y546600D02*
D03*
X276500Y508800D02*
D03*
X315300Y271300D02*
D03*
X357500Y298000D02*
D03*
X339000Y262500D02*
D03*
X358900Y320700D02*
D03*
X430000Y562500D02*
D03*
X478000Y327000D02*
D03*
X456600Y297400D02*
D03*
X509500Y401000D02*
D03*
X503792Y409707D02*
D03*
X494800Y404100D02*
D03*
X493000Y395000D02*
D03*
X297500Y419000D02*
D03*
X443000Y372500D02*
D03*
X319500Y494400D02*
D03*
X334700Y473400D02*
D03*
X331500Y462500D02*
D03*
X333000Y454500D02*
D03*
X313500Y477500D02*
D03*
X353447Y460447D02*
D03*
X525500Y311500D02*
D03*
X360900Y424200D02*
D03*
X405400Y508000D02*
D03*
X356200Y426600D02*
D03*
X400500Y459500D02*
D03*
X394500Y456500D02*
D03*
X382300Y410200D02*
D03*
X477800Y283700D02*
D03*
X469000Y342000D02*
D03*
X463500Y345000D02*
D03*
X397500D02*
D03*
X380000Y494800D02*
D03*
X407250Y427950D02*
D03*
X428500Y423500D02*
D03*
X416500Y389000D02*
D03*
X415000Y412500D02*
D03*
X416500Y404800D02*
D03*
Y399500D02*
D03*
X426000Y395500D02*
D03*
X363000Y290000D02*
D03*
X472000Y386000D02*
D03*
X370000Y265500D02*
D03*
X348500Y247500D02*
D03*
X386000Y270500D02*
D03*
X363500Y266000D02*
D03*
X534000Y383000D02*
D03*
X512450Y392722D02*
D03*
X525500Y391500D02*
D03*
X547000Y379000D02*
D03*
X563936Y379764D02*
D03*
X545000Y466700D02*
D03*
X396500Y379500D02*
D03*
X409500D02*
D03*
X403500Y420600D02*
D03*
X390500Y420500D02*
D03*
D58*
X270500Y417819D02*
D03*
X244500Y401000D02*
D03*
X288500Y363000D02*
D03*
X281500D02*
D03*
X274000D02*
D03*
X288500Y368500D02*
D03*
X230500Y369500D02*
D03*
X230750Y363000D02*
D03*
X244750Y363500D02*
D03*
X237750D02*
D03*
X251500D02*
D03*
X284500Y397000D02*
D03*
X280000D02*
D03*
X272000Y395500D02*
D03*
X281500Y368500D02*
D03*
X274000D02*
D03*
X244500Y370000D02*
D03*
X237500D02*
D03*
X252500Y391500D02*
D03*
X246500Y392000D02*
D03*
X233500Y386000D02*
D03*
X224014Y382249D02*
D03*
X246950Y456400D02*
D03*
X252500Y373500D02*
D03*
X364000Y359500D02*
D03*
X367000Y383713D02*
D03*
X364500Y388500D02*
D03*
X245975Y431975D02*
D03*
X227500Y431500D02*
D03*
X278500Y413000D02*
D03*
X271600Y463000D02*
D03*
X248500Y357000D02*
D03*
X381000Y370000D02*
D03*
X382809Y387191D02*
D03*
X422000Y368000D02*
D03*
X401500Y378500D02*
D03*
X407000Y361000D02*
D03*
X377500Y399000D02*
D03*
X360000Y385000D02*
D03*
X355500Y389500D02*
D03*
X359500Y391000D02*
D03*
X358500Y394500D02*
D03*
X362000Y396000D02*
D03*
X358500Y401000D02*
D03*
X381000Y365500D02*
D03*
X283500Y409500D02*
D03*
X279000Y419000D02*
D03*
X282500Y420500D02*
D03*
X286500D02*
D03*
X276000Y424000D02*
D03*
X287000Y425500D02*
D03*
X272772Y428000D02*
D03*
X289000Y432000D02*
D03*
X284000Y405000D02*
D03*
X266200Y456200D02*
D03*
X314500Y348500D02*
D03*
X356000Y411000D02*
D03*
X248000Y427000D02*
D03*
Y401000D02*
D03*
X263000Y368500D02*
D03*
X292500Y380500D02*
D03*
X293000Y450000D02*
D03*
X515000Y433000D02*
D03*
X419000Y235000D02*
D03*
X449000Y498000D02*
D03*
D59*
X296638Y437362D02*
D03*
Y432638D02*
D03*
X301362Y437362D02*
D03*
Y432638D02*
D03*
X262500Y380000D02*
D03*
X259000D02*
D03*
X262500Y384000D02*
D03*
X365124Y333476D02*
D03*
X360400D02*
D03*
X355676D02*
D03*
X365124Y338200D02*
D03*
X360400D02*
D03*
X355676D02*
D03*
X365124Y342924D02*
D03*
X360400D02*
D03*
X355676D02*
D03*
D60*
X447880Y502843D02*
D03*
Y505402D02*
D03*
Y507961D02*
D03*
Y510521D02*
D03*
Y513080D02*
D03*
Y515639D02*
D03*
Y518198D02*
D03*
Y520757D02*
D03*
X470321Y502843D02*
D03*
Y505402D02*
D03*
Y507961D02*
D03*
Y510521D02*
D03*
Y513080D02*
D03*
Y515639D02*
D03*
Y518198D02*
D03*
Y520757D02*
D03*
X492220Y367457D02*
D03*
Y364898D02*
D03*
Y362339D02*
D03*
Y359780D02*
D03*
Y357221D02*
D03*
Y354661D02*
D03*
Y352102D02*
D03*
Y349543D02*
D03*
X469779Y367457D02*
D03*
Y364898D02*
D03*
Y362339D02*
D03*
Y359780D02*
D03*
Y357221D02*
D03*
Y354661D02*
D03*
Y352102D02*
D03*
Y349543D02*
D03*
D61*
X401243Y403840D02*
D03*
Y396360D02*
D03*
X394157Y400100D02*
D03*
D62*
X356500Y449150D02*
D03*
Y442850D02*
D03*
X347000Y269350D02*
D03*
Y275650D02*
D03*
D63*
X456500Y476256D02*
D03*
Y470744D02*
D03*
X357500Y359256D02*
D03*
Y353744D02*
D03*
X286200Y477756D02*
D03*
Y472244D02*
D03*
X350500Y447756D02*
D03*
Y442244D02*
D03*
D64*
X503874Y483174D02*
D03*
X488126Y483274D02*
D03*
X503874Y473726D02*
D03*
X488126Y473826D02*
D03*
X340874Y503674D02*
D03*
X325126Y503774D02*
D03*
X340874Y494226D02*
D03*
X325126Y494326D02*
D03*
X270874Y411493D02*
D03*
X255126Y411593D02*
D03*
X270874Y402044D02*
D03*
X255126Y402144D02*
D03*
D65*
X422744Y434000D02*
D03*
X428256D02*
D03*
X505744Y422500D02*
D03*
X511256D02*
D03*
X316644Y433600D02*
D03*
X322156D02*
D03*
X342956Y433500D02*
D03*
X337444D02*
D03*
D66*
X299000Y435000D02*
D03*
D67*
X295161Y443957D02*
D03*
X297721D02*
D03*
X300279D02*
D03*
X302839D02*
D03*
X295161Y426043D02*
D03*
X297721D02*
D03*
X300279D02*
D03*
X302839D02*
D03*
D68*
X328980Y276969D02*
D03*
X339020D02*
D03*
X328980Y253031D02*
D03*
X339020D02*
D03*
D69*
X355000Y255610D02*
D03*
Y269390D02*
D03*
D70*
X370000Y535002D02*
D03*
X430000D02*
D03*
X425000D02*
D03*
X420000D02*
D03*
X415000D02*
D03*
Y518998D02*
D03*
X420000D02*
D03*
X425000D02*
D03*
X430000D02*
D03*
X410000D02*
D03*
Y535002D02*
D03*
X405000D02*
D03*
Y518998D02*
D03*
X400000D02*
D03*
Y535002D02*
D03*
X395000D02*
D03*
Y518998D02*
D03*
X390000Y535002D02*
D03*
Y518998D02*
D03*
X385000D02*
D03*
Y535002D02*
D03*
X380000D02*
D03*
Y518998D02*
D03*
X375000D02*
D03*
Y535002D02*
D03*
X370000Y518998D02*
D03*
D71*
X254850Y356500D02*
D03*
X261150D02*
D03*
D72*
X442478Y402277D02*
D03*
X444447D02*
D03*
X446415D02*
D03*
X448384D02*
D03*
X450352D02*
D03*
X452320D02*
D03*
X454289D02*
D03*
X456257D02*
D03*
X458226D02*
D03*
X460194D02*
D03*
X462163D02*
D03*
X464131D02*
D03*
X466100D02*
D03*
X468069D02*
D03*
X470037D02*
D03*
X472006D02*
D03*
X473974D02*
D03*
X475943D02*
D03*
X477911D02*
D03*
X479880D02*
D03*
X481848D02*
D03*
X483816D02*
D03*
X485785D02*
D03*
X487753D02*
D03*
X489722D02*
D03*
Y461923D02*
D03*
X487753D02*
D03*
X485785D02*
D03*
X483816D02*
D03*
X481848D02*
D03*
X479880D02*
D03*
X477911D02*
D03*
X475943D02*
D03*
X473974D02*
D03*
X472006D02*
D03*
X470037D02*
D03*
X468069D02*
D03*
X466100D02*
D03*
X464131D02*
D03*
X462163D02*
D03*
X460194D02*
D03*
X458226D02*
D03*
X456257D02*
D03*
X454289D02*
D03*
X452320D02*
D03*
X450352D02*
D03*
X448384D02*
D03*
X446415D02*
D03*
X444447D02*
D03*
X442478D02*
D03*
D73*
X495923Y408478D02*
D03*
Y410447D02*
D03*
Y412415D02*
D03*
Y414384D02*
D03*
Y416352D02*
D03*
Y418321D02*
D03*
Y420289D02*
D03*
Y422258D02*
D03*
Y424226D02*
D03*
Y426194D02*
D03*
Y428163D02*
D03*
Y430131D02*
D03*
Y432100D02*
D03*
Y434068D02*
D03*
Y436037D02*
D03*
Y438005D02*
D03*
Y439974D02*
D03*
Y441943D02*
D03*
Y443911D02*
D03*
Y445880D02*
D03*
Y447848D02*
D03*
Y449817D02*
D03*
Y451785D02*
D03*
Y453754D02*
D03*
Y455722D02*
D03*
X436277D02*
D03*
Y453754D02*
D03*
Y451785D02*
D03*
Y449817D02*
D03*
Y447848D02*
D03*
Y445880D02*
D03*
Y443911D02*
D03*
Y441943D02*
D03*
Y439974D02*
D03*
Y438005D02*
D03*
Y436037D02*
D03*
Y434068D02*
D03*
Y432100D02*
D03*
Y430131D02*
D03*
Y428163D02*
D03*
Y426194D02*
D03*
Y424226D02*
D03*
Y422258D02*
D03*
Y420289D02*
D03*
Y418321D02*
D03*
Y416352D02*
D03*
Y414384D02*
D03*
Y412415D02*
D03*
Y410447D02*
D03*
Y408478D02*
D03*
D74*
X313757Y452573D02*
D03*
Y454542D02*
D03*
Y456510D02*
D03*
Y458479D02*
D03*
Y460447D02*
D03*
Y462416D02*
D03*
Y464384D02*
D03*
Y466353D02*
D03*
Y468321D02*
D03*
Y470290D02*
D03*
Y472258D02*
D03*
Y474227D02*
D03*
X345843D02*
D03*
Y472258D02*
D03*
Y470290D02*
D03*
Y468321D02*
D03*
Y466353D02*
D03*
Y464384D02*
D03*
Y462416D02*
D03*
Y460447D02*
D03*
Y458479D02*
D03*
Y456510D02*
D03*
Y454542D02*
D03*
Y452573D02*
D03*
D75*
X318973Y479443D02*
D03*
X320942D02*
D03*
X322910D02*
D03*
X324879D02*
D03*
X326847D02*
D03*
X328816D02*
D03*
X330784D02*
D03*
X332753D02*
D03*
X334721D02*
D03*
X336690D02*
D03*
X338658D02*
D03*
X340627D02*
D03*
Y447357D02*
D03*
X338658D02*
D03*
X336690D02*
D03*
X334721D02*
D03*
X332753D02*
D03*
X330784D02*
D03*
X328816D02*
D03*
X326847D02*
D03*
X324879D02*
D03*
X322910D02*
D03*
X320942D02*
D03*
X318973D02*
D03*
D76*
X252724Y377882D02*
D03*
Y379850D02*
D03*
Y383787D02*
D03*
Y385756D02*
D03*
X268276D02*
D03*
Y383787D02*
D03*
Y381819D02*
D03*
Y379850D02*
D03*
Y377882D02*
D03*
X252724Y381819D02*
D03*
D77*
X256563Y389595D02*
D03*
X258531D02*
D03*
X260500D02*
D03*
X262468D02*
D03*
X264437D02*
D03*
Y374043D02*
D03*
X262468D02*
D03*
X260500D02*
D03*
X258531D02*
D03*
X256563D02*
D03*
D78*
X360400Y338200D02*
D03*
D79*
X367290Y348043D02*
D03*
X365321D02*
D03*
X363353D02*
D03*
X361384D02*
D03*
X359416D02*
D03*
X357447D02*
D03*
X355479D02*
D03*
X353510D02*
D03*
Y328357D02*
D03*
X355479D02*
D03*
X357447D02*
D03*
X359416D02*
D03*
X361384D02*
D03*
X363353D02*
D03*
X365321D02*
D03*
X367290D02*
D03*
X289831Y478056D02*
D03*
X291800D02*
D03*
X293769D02*
D03*
Y472544D02*
D03*
X291800D02*
D03*
X289831D02*
D03*
D80*
X350557Y345090D02*
D03*
Y343121D02*
D03*
Y341153D02*
D03*
Y339184D02*
D03*
Y337216D02*
D03*
Y335247D02*
D03*
Y333279D02*
D03*
Y331310D02*
D03*
X370243D02*
D03*
Y333279D02*
D03*
Y335247D02*
D03*
Y337216D02*
D03*
Y339184D02*
D03*
Y341153D02*
D03*
Y343121D02*
D03*
Y345090D02*
D03*
D81*
X293760Y466543D02*
D03*
X301240D02*
D03*
X297500Y459457D02*
D03*
D82*
X382366Y250555D02*
D03*
X384925D02*
D03*
X387484D02*
D03*
X390043D02*
D03*
X392602D02*
D03*
X395161D02*
D03*
X397720D02*
D03*
X400280D02*
D03*
X402839D02*
D03*
X405398D02*
D03*
X407957D02*
D03*
X410516D02*
D03*
X413075D02*
D03*
X415634D02*
D03*
Y277445D02*
D03*
X413075D02*
D03*
X410516D02*
D03*
X407957D02*
D03*
X405398D02*
D03*
X402839D02*
D03*
X400280D02*
D03*
X397720D02*
D03*
X395161D02*
D03*
X392602D02*
D03*
X390043D02*
D03*
X387484D02*
D03*
X384925D02*
D03*
X382366D02*
D03*
D83*
X430000Y518998D02*
Y535002D01*
D84*
X370000Y518998D02*
Y535002D01*
D85*
X261250Y381500D02*
D03*
M02*
