%FSLAX25Y25*%
%MOIN*%
G70*
G01*
G75*
G04 Layer_Color=8388736*
%ADD10C,0.01500*%
%ADD11C,0.04000*%
%ADD12R,0.03150X0.05906*%
G04:AMPARAMS|DCode=13|XSize=35.43mil|YSize=27.56mil|CornerRadius=0mil|HoleSize=0mil|Usage=FLASHONLY|Rotation=169.100|XOffset=0mil|YOffset=0mil|HoleType=Round|Shape=Rectangle|*
%AMROTATEDRECTD13*
4,1,4,0.02000,0.01018,0.01479,-0.01688,-0.02000,-0.01018,-0.01479,0.01688,0.02000,0.01018,0.0*
%
%ADD13ROTATEDRECTD13*%

%ADD14R,0.02756X0.03543*%
G04:AMPARAMS|DCode=15|XSize=35.43mil|YSize=27.56mil|CornerRadius=0mil|HoleSize=0mil|Usage=FLASHONLY|Rotation=162.000|XOffset=0mil|YOffset=0mil|HoleType=Round|Shape=Rectangle|*
%AMROTATEDRECTD15*
4,1,4,0.02111,0.00763,0.01259,-0.01858,-0.02111,-0.00763,-0.01259,0.01858,0.02111,0.00763,0.0*
%
%ADD15ROTATEDRECTD15*%

G04:AMPARAMS|DCode=16|XSize=35.43mil|YSize=27.56mil|CornerRadius=0mil|HoleSize=0mil|Usage=FLASHONLY|Rotation=234.000|XOffset=0mil|YOffset=0mil|HoleType=Round|Shape=Rectangle|*
%AMROTATEDRECTD16*
4,1,4,-0.00073,0.02243,0.02156,0.00623,0.00073,-0.02243,-0.02156,-0.00623,-0.00073,0.02243,0.0*
%
%ADD16ROTATEDRECTD16*%

G04:AMPARAMS|DCode=17|XSize=35.43mil|YSize=27.56mil|CornerRadius=0mil|HoleSize=0mil|Usage=FLASHONLY|Rotation=306.000|XOffset=0mil|YOffset=0mil|HoleType=Round|Shape=Rectangle|*
%AMROTATEDRECTD17*
4,1,4,-0.02156,0.00623,0.00073,0.02243,0.02156,-0.00623,-0.00073,-0.02243,-0.02156,0.00623,0.0*
%
%ADD17ROTATEDRECTD17*%

G04:AMPARAMS|DCode=18|XSize=35.43mil|YSize=27.56mil|CornerRadius=0mil|HoleSize=0mil|Usage=FLASHONLY|Rotation=18.000|XOffset=0mil|YOffset=0mil|HoleType=Round|Shape=Rectangle|*
%AMROTATEDRECTD18*
4,1,4,-0.01259,-0.01858,-0.02111,0.00763,0.01259,0.01858,0.02111,-0.00763,-0.01259,-0.01858,0.0*
%
%ADD18ROTATEDRECTD18*%

%ADD19R,0.03543X0.02756*%
%ADD20R,0.08000X0.05000*%
G04:AMPARAMS|DCode=21|XSize=35.43mil|YSize=27.56mil|CornerRadius=0mil|HoleSize=0mil|Usage=FLASHONLY|Rotation=225.000|XOffset=0mil|YOffset=0mil|HoleType=Round|Shape=Rectangle|*
%AMROTATEDRECTD21*
4,1,4,0.00278,0.02227,0.02227,0.00278,-0.00278,-0.02227,-0.02227,-0.00278,0.00278,0.02227,0.0*
%
%ADD21ROTATEDRECTD21*%

G04:AMPARAMS|DCode=22|XSize=19.69mil|YSize=23.62mil|CornerRadius=0mil|HoleSize=0mil|Usage=FLASHONLY|Rotation=337.500|XOffset=0mil|YOffset=0mil|HoleType=Round|Shape=Rectangle|*
%AMROTATEDRECTD22*
4,1,4,-0.01361,-0.00715,-0.00457,0.01468,0.01361,0.00715,0.00457,-0.01468,-0.01361,-0.00715,0.0*
%
%ADD22ROTATEDRECTD22*%

G04:AMPARAMS|DCode=23|XSize=19.69mil|YSize=23.62mil|CornerRadius=0mil|HoleSize=0mil|Usage=FLASHONLY|Rotation=292.500|XOffset=0mil|YOffset=0mil|HoleType=Round|Shape=Rectangle|*
%AMROTATEDRECTD23*
4,1,4,-0.01468,0.00457,0.00715,0.01361,0.01468,-0.00457,-0.00715,-0.01361,-0.01468,0.00457,0.0*
%
%ADD23ROTATEDRECTD23*%

G04:AMPARAMS|DCode=24|XSize=19.69mil|YSize=23.62mil|CornerRadius=0mil|HoleSize=0mil|Usage=FLASHONLY|Rotation=247.500|XOffset=0mil|YOffset=0mil|HoleType=Round|Shape=Rectangle|*
%AMROTATEDRECTD24*
4,1,4,-0.00715,0.01361,0.01468,0.00457,0.00715,-0.01361,-0.01468,-0.00457,-0.00715,0.01361,0.0*
%
%ADD24ROTATEDRECTD24*%

G04:AMPARAMS|DCode=25|XSize=19.69mil|YSize=23.62mil|CornerRadius=0mil|HoleSize=0mil|Usage=FLASHONLY|Rotation=202.500|XOffset=0mil|YOffset=0mil|HoleType=Round|Shape=Rectangle|*
%AMROTATEDRECTD25*
4,1,4,0.00457,0.01468,0.01361,-0.00715,-0.00457,-0.01468,-0.01361,0.00715,0.00457,0.01468,0.0*
%
%ADD25ROTATEDRECTD25*%

%ADD26R,0.02362X0.01969*%
%ADD27R,0.01969X0.02362*%
G04:AMPARAMS|DCode=28|XSize=80mil|YSize=50mil|CornerRadius=0mil|HoleSize=0mil|Usage=FLASHONLY|Rotation=104.000|XOffset=0mil|YOffset=0mil|HoleType=Round|Shape=Rectangle|*
%AMROTATEDRECTD28*
4,1,4,0.03393,-0.03276,-0.01458,-0.04486,-0.03393,0.03276,0.01458,0.04486,0.03393,-0.03276,0.0*
%
%ADD28ROTATEDRECTD28*%

%ADD29R,0.09449X0.09449*%
%ADD30R,0.06850X0.05512*%
%ADD31P,0.13919X4X345.0*%
%ADD32P,0.13919X4X285.0*%
G04:AMPARAMS|DCode=33|XSize=17.32mil|YSize=98.43mil|CornerRadius=0mil|HoleSize=0mil|Usage=FLASHONLY|Rotation=245.000|XOffset=0mil|YOffset=0mil|HoleType=Round|Shape=Rectangle|*
%AMROTATEDRECTD33*
4,1,4,-0.04094,0.02865,0.04826,-0.01295,0.04094,-0.02865,-0.04826,0.01295,-0.04094,0.02865,0.0*
%
%ADD33ROTATEDRECTD33*%

%ADD34R,0.04134X0.05906*%
%ADD35R,0.02362X0.04134*%
G04:AMPARAMS|DCode=36|XSize=64.96mil|YSize=21.65mil|CornerRadius=0mil|HoleSize=0mil|Usage=FLASHONLY|Rotation=259.100|XOffset=0mil|YOffset=0mil|HoleType=Round|Shape=Rectangle|*
%AMROTATEDRECTD36*
4,1,4,-0.00449,0.03394,0.01677,0.02985,0.00449,-0.03394,-0.01677,-0.02985,-0.00449,0.03394,0.0*
%
%ADD36ROTATEDRECTD36*%

%ADD37C,0.00800*%
%ADD38C,0.02500*%
%ADD39C,0.02000*%
%ADD40C,0.01200*%
%ADD41C,0.01000*%
G04:AMPARAMS|DCode=42|XSize=10mil|YSize=50mil|CornerRadius=0mil|HoleSize=0mil|Usage=FLASHONLY|Rotation=216.000|XOffset=0mil|YOffset=0mil|HoleType=Round|Shape=Rectangle|*
%AMROTATEDRECTD42*
4,1,4,-0.01065,0.02316,0.01874,-0.01729,0.01065,-0.02316,-0.01874,0.01729,-0.01065,0.02316,0.0*
%
%ADD42ROTATEDRECTD42*%

G04:AMPARAMS|DCode=43|XSize=10mil|YSize=50mil|CornerRadius=0mil|HoleSize=0mil|Usage=FLASHONLY|Rotation=144.000|XOffset=0mil|YOffset=0mil|HoleType=Round|Shape=Rectangle|*
%AMROTATEDRECTD43*
4,1,4,0.01874,0.01729,-0.01065,-0.02316,-0.01874,-0.01729,0.01065,0.02316,0.01874,0.01729,0.0*
%
%ADD43ROTATEDRECTD43*%

G04:AMPARAMS|DCode=44|XSize=10mil|YSize=50mil|CornerRadius=0mil|HoleSize=0mil|Usage=FLASHONLY|Rotation=288.000|XOffset=0mil|YOffset=0mil|HoleType=Round|Shape=Rectangle|*
%AMROTATEDRECTD44*
4,1,4,-0.02532,-0.00297,0.02223,0.01248,0.02532,0.00297,-0.02223,-0.01248,-0.02532,-0.00297,0.0*
%
%ADD44ROTATEDRECTD44*%

G04:AMPARAMS|DCode=45|XSize=10mil|YSize=50mil|CornerRadius=0mil|HoleSize=0mil|Usage=FLASHONLY|Rotation=72.000|XOffset=0mil|YOffset=0mil|HoleType=Round|Shape=Rectangle|*
%AMROTATEDRECTD45*
4,1,4,0.02223,-0.01248,-0.02532,0.00297,-0.02223,0.01248,0.02532,-0.00297,0.02223,-0.01248,0.0*
%
%ADD45ROTATEDRECTD45*%

%ADD46R,0.01000X0.05000*%
%ADD47C,0.03000*%
%ADD48C,0.15800*%
%ADD49C,0.14900*%
%ADD50C,0.06000*%
%ADD51C,0.26000*%
%ADD52C,0.08661*%
%ADD53C,0.05000*%
%ADD54R,0.05906X0.05906*%
%ADD55C,0.05906*%
G04:AMPARAMS|DCode=56|XSize=86.61mil|YSize=70.87mil|CornerRadius=0mil|HoleSize=0mil|Usage=FLASHONLY|Rotation=79.100|XOffset=0mil|YOffset=0mil|HoleType=Round|Shape=Round|*
%AMOVALD56*
21,1,0.01575,0.07087,0.00000,0.00000,79.1*
1,1,0.07087,-0.00149,-0.00773*
1,1,0.07087,0.00149,0.00773*
%
%ADD56OVALD56*%

%ADD57C,0.03500*%
%ADD58C,0.02700*%
%ADD59C,0.02598*%
%ADD60R,0.06693X0.01378*%
%ADD61R,0.05906X0.02362*%
%ADD62R,0.05512X0.04724*%
%ADD63R,0.03543X0.03150*%
%ADD64R,0.07087X0.04724*%
%ADD65R,0.03150X0.03543*%
%ADD66R,0.08661X0.07480*%
%ADD67O,0.01496X0.06299*%
%ADD68R,0.03937X0.04429*%
%ADD69R,0.06299X0.05118*%
%ADD70R,0.02913X0.11004*%
%ADD71R,0.04724X0.05512*%
%ADD72R,0.01142X0.06890*%
%ADD73R,0.06890X0.01142*%
%ADD74R,0.06496X0.01142*%
%ADD75R,0.01142X0.06496*%
%ADD76O,0.03347X0.00984*%
%ADD77O,0.00984X0.03347*%
%ADD78R,0.14173X0.14173*%
%ADD79O,0.00984X0.03150*%
%ADD80O,0.03150X0.00984*%
%ADD81R,0.02362X0.05906*%
%ADD82R,0.01732X0.05394*%
%ADD83C,0.02913*%
%ADD84C,0.02914*%
%ADD85R,0.07500X0.06000*%
%ADD86C,0.00500*%
%ADD87C,0.00787*%
%ADD88C,0.00984*%
%ADD89C,0.01300*%
%ADD90R,0.03950X0.06706*%
%ADD91C,0.04800*%
G04:AMPARAMS|DCode=92|XSize=43.43mil|YSize=35.56mil|CornerRadius=0mil|HoleSize=0mil|Usage=FLASHONLY|Rotation=169.100|XOffset=0mil|YOffset=0mil|HoleType=Round|Shape=Rectangle|*
%AMROTATEDRECTD92*
4,1,4,0.02469,0.01335,0.01796,-0.02157,-0.02469,-0.01335,-0.01796,0.02157,0.02469,0.01335,0.0*
%
%ADD92ROTATEDRECTD92*%

%ADD93R,0.03556X0.04343*%
G04:AMPARAMS|DCode=94|XSize=43.43mil|YSize=35.56mil|CornerRadius=0mil|HoleSize=0mil|Usage=FLASHONLY|Rotation=162.000|XOffset=0mil|YOffset=0mil|HoleType=Round|Shape=Rectangle|*
%AMROTATEDRECTD94*
4,1,4,0.02615,0.01020,0.01516,-0.02362,-0.02615,-0.01020,-0.01516,0.02362,0.02615,0.01020,0.0*
%
%ADD94ROTATEDRECTD94*%

G04:AMPARAMS|DCode=95|XSize=43.43mil|YSize=35.56mil|CornerRadius=0mil|HoleSize=0mil|Usage=FLASHONLY|Rotation=234.000|XOffset=0mil|YOffset=0mil|HoleType=Round|Shape=Rectangle|*
%AMROTATEDRECTD95*
4,1,4,-0.00162,0.02802,0.02715,0.00712,0.00162,-0.02802,-0.02715,-0.00712,-0.00162,0.02802,0.0*
%
%ADD95ROTATEDRECTD95*%

G04:AMPARAMS|DCode=96|XSize=43.43mil|YSize=35.56mil|CornerRadius=0mil|HoleSize=0mil|Usage=FLASHONLY|Rotation=306.000|XOffset=0mil|YOffset=0mil|HoleType=Round|Shape=Rectangle|*
%AMROTATEDRECTD96*
4,1,4,-0.02715,0.00712,0.00162,0.02802,0.02715,-0.00712,-0.00162,-0.02802,-0.02715,0.00712,0.0*
%
%ADD96ROTATEDRECTD96*%

G04:AMPARAMS|DCode=97|XSize=43.43mil|YSize=35.56mil|CornerRadius=0mil|HoleSize=0mil|Usage=FLASHONLY|Rotation=18.000|XOffset=0mil|YOffset=0mil|HoleType=Round|Shape=Rectangle|*
%AMROTATEDRECTD97*
4,1,4,-0.01516,-0.02362,-0.02615,0.01020,0.01516,0.02362,0.02615,-0.01020,-0.01516,-0.02362,0.0*
%
%ADD97ROTATEDRECTD97*%

%ADD98R,0.04343X0.03556*%
%ADD99R,0.08800X0.05800*%
G04:AMPARAMS|DCode=100|XSize=43.43mil|YSize=35.56mil|CornerRadius=0mil|HoleSize=0mil|Usage=FLASHONLY|Rotation=225.000|XOffset=0mil|YOffset=0mil|HoleType=Round|Shape=Rectangle|*
%AMROTATEDRECTD100*
4,1,4,0.00278,0.02793,0.02793,0.00278,-0.00278,-0.02793,-0.02793,-0.00278,0.00278,0.02793,0.0*
%
%ADD100ROTATEDRECTD100*%

G04:AMPARAMS|DCode=101|XSize=27.69mil|YSize=31.62mil|CornerRadius=0mil|HoleSize=0mil|Usage=FLASHONLY|Rotation=337.500|XOffset=0mil|YOffset=0mil|HoleType=Round|Shape=Rectangle|*
%AMROTATEDRECTD101*
4,1,4,-0.01884,-0.00931,-0.00674,0.01991,0.01884,0.00931,0.00674,-0.01991,-0.01884,-0.00931,0.0*
%
%ADD101ROTATEDRECTD101*%

G04:AMPARAMS|DCode=102|XSize=27.69mil|YSize=31.62mil|CornerRadius=0mil|HoleSize=0mil|Usage=FLASHONLY|Rotation=292.500|XOffset=0mil|YOffset=0mil|HoleType=Round|Shape=Rectangle|*
%AMROTATEDRECTD102*
4,1,4,-0.01991,0.00674,0.00931,0.01884,0.01991,-0.00674,-0.00931,-0.01884,-0.01991,0.00674,0.0*
%
%ADD102ROTATEDRECTD102*%

G04:AMPARAMS|DCode=103|XSize=27.69mil|YSize=31.62mil|CornerRadius=0mil|HoleSize=0mil|Usage=FLASHONLY|Rotation=247.500|XOffset=0mil|YOffset=0mil|HoleType=Round|Shape=Rectangle|*
%AMROTATEDRECTD103*
4,1,4,-0.00931,0.01884,0.01991,0.00674,0.00931,-0.01884,-0.01991,-0.00674,-0.00931,0.01884,0.0*
%
%ADD103ROTATEDRECTD103*%

G04:AMPARAMS|DCode=104|XSize=27.69mil|YSize=31.62mil|CornerRadius=0mil|HoleSize=0mil|Usage=FLASHONLY|Rotation=202.500|XOffset=0mil|YOffset=0mil|HoleType=Round|Shape=Rectangle|*
%AMROTATEDRECTD104*
4,1,4,0.00674,0.01991,0.01884,-0.00931,-0.00674,-0.01991,-0.01884,0.00931,0.00674,0.01991,0.0*
%
%ADD104ROTATEDRECTD104*%

%ADD105R,0.03162X0.02769*%
%ADD106R,0.02769X0.03162*%
G04:AMPARAMS|DCode=107|XSize=88mil|YSize=58mil|CornerRadius=0mil|HoleSize=0mil|Usage=FLASHONLY|Rotation=104.000|XOffset=0mil|YOffset=0mil|HoleType=Round|Shape=Rectangle|*
%AMROTATEDRECTD107*
4,1,4,0.03878,-0.03568,-0.01749,-0.04971,-0.03878,0.03568,0.01749,0.04971,0.03878,-0.03568,0.0*
%
%ADD107ROTATEDRECTD107*%

%ADD108R,0.10249X0.10249*%
%ADD109R,0.07650X0.06312*%
%ADD110P,0.15051X4X345.0*%
%ADD111P,0.15051X4X285.0*%
G04:AMPARAMS|DCode=112|XSize=25.32mil|YSize=106.42mil|CornerRadius=0mil|HoleSize=0mil|Usage=FLASHONLY|Rotation=245.000|XOffset=0mil|YOffset=0mil|HoleType=Round|Shape=Rectangle|*
%AMROTATEDRECTD112*
4,1,4,-0.04288,0.03396,0.05358,-0.01101,0.04288,-0.03396,-0.05358,0.01101,-0.04288,0.03396,0.0*
%
%ADD112ROTATEDRECTD112*%

%ADD113R,0.04934X0.06706*%
%ADD114R,0.03162X0.04934*%
G04:AMPARAMS|DCode=115|XSize=72.96mil|YSize=29.65mil|CornerRadius=0mil|HoleSize=0mil|Usage=FLASHONLY|Rotation=259.100|XOffset=0mil|YOffset=0mil|HoleType=Round|Shape=Rectangle|*
%AMROTATEDRECTD115*
4,1,4,-0.00766,0.03863,0.02146,0.03302,0.00766,-0.03863,-0.02146,-0.03302,-0.00766,0.03863,0.0*
%
%ADD115ROTATEDRECTD115*%

%ADD116C,0.03800*%
%ADD117C,0.16600*%
%ADD118C,0.15700*%
%ADD119C,0.06800*%
%ADD120C,0.26800*%
%ADD121C,0.09461*%
%ADD122C,0.05800*%
%ADD123R,0.06706X0.06706*%
%ADD124C,0.06706*%
G04:AMPARAMS|DCode=125|XSize=94.61mil|YSize=78.87mil|CornerRadius=0mil|HoleSize=0mil|Usage=FLASHONLY|Rotation=79.100|XOffset=0mil|YOffset=0mil|HoleType=Round|Shape=Round|*
%AMOVALD125*
21,1,0.01575,0.07887,0.00000,0.00000,79.1*
1,1,0.07887,-0.00149,-0.00773*
1,1,0.07887,0.00149,0.00773*
%
%ADD125OVALD125*%

%ADD126C,0.04300*%
G36*
X601255Y206307D02*
X602461Y205941D01*
X603573Y205347D01*
X604547Y204547D01*
X605347Y203573D01*
X605941Y202461D01*
X606307Y201255D01*
X606431Y200000D01*
X606307Y198745D01*
X605941Y197539D01*
X605347Y196427D01*
X604547Y195453D01*
X603573Y194653D01*
X602461Y194059D01*
X601255Y193693D01*
X600000Y193569D01*
X598745Y193693D01*
X597539Y194059D01*
X596427Y194653D01*
X595453Y195453D01*
X594653Y196427D01*
X594059Y197539D01*
X593693Y198745D01*
X593569Y200000D01*
X593693Y201255D01*
X594059Y202461D01*
X594653Y203573D01*
X595453Y204547D01*
X596427Y205347D01*
X597539Y205941D01*
X598745Y206307D01*
X600000Y206431D01*
X601255Y206307D01*
D02*
G37*
G36*
X201255Y606307D02*
X202461Y605941D01*
X203573Y605347D01*
X204547Y604547D01*
X205347Y603573D01*
X205941Y602461D01*
X206307Y601255D01*
X206431Y600000D01*
X206307Y598745D01*
X205941Y597539D01*
X205347Y596427D01*
X204547Y595453D01*
X203573Y594653D01*
X202461Y594059D01*
X201255Y593693D01*
X200000Y593569D01*
X198745Y593693D01*
X197539Y594059D01*
X196427Y594653D01*
X195453Y595453D01*
X194653Y596427D01*
X194059Y597539D01*
X193693Y598745D01*
X193569Y600000D01*
X193693Y601255D01*
X194059Y602461D01*
X194653Y603573D01*
X195453Y604547D01*
X196427Y605347D01*
X197539Y605941D01*
X198745Y606307D01*
X200000Y606431D01*
X201255Y606307D01*
D02*
G37*
D57*
X270500Y417819D02*
D03*
X244500Y401000D02*
D03*
X288500Y363000D02*
D03*
X281500D02*
D03*
X274000D02*
D03*
X288500Y368500D02*
D03*
X230500Y369500D02*
D03*
X230750Y363000D02*
D03*
X244750Y363500D02*
D03*
X237750D02*
D03*
X251500D02*
D03*
X284500Y397000D02*
D03*
X280000D02*
D03*
X272000Y395500D02*
D03*
X281500Y368500D02*
D03*
X274000D02*
D03*
X244500Y370000D02*
D03*
X237500D02*
D03*
X252500Y391500D02*
D03*
X246500Y392000D02*
D03*
X233500Y386000D02*
D03*
X224014Y382249D02*
D03*
X246950Y456400D02*
D03*
X252500Y373500D02*
D03*
X364000Y359500D02*
D03*
X367000Y383713D02*
D03*
X364500Y388500D02*
D03*
X245975Y431975D02*
D03*
X227500Y431500D02*
D03*
X278500Y413000D02*
D03*
X271600Y463000D02*
D03*
X248500Y357000D02*
D03*
X381000Y370000D02*
D03*
X382809Y387191D02*
D03*
X422000Y368000D02*
D03*
X401500Y378500D02*
D03*
X407000Y361000D02*
D03*
X377500Y399000D02*
D03*
X360000Y385000D02*
D03*
X355500Y389500D02*
D03*
X359500Y391000D02*
D03*
X358500Y394500D02*
D03*
X362000Y396000D02*
D03*
X358500Y401000D02*
D03*
X381000Y365500D02*
D03*
X283500Y409500D02*
D03*
X279000Y419000D02*
D03*
X282500Y420500D02*
D03*
X286500D02*
D03*
X276000Y424000D02*
D03*
X287000Y425500D02*
D03*
X272772Y428000D02*
D03*
X289000Y432000D02*
D03*
X284000Y405000D02*
D03*
X266200Y456200D02*
D03*
X314500Y348500D02*
D03*
X356000Y411000D02*
D03*
X248000Y427000D02*
D03*
Y401000D02*
D03*
X263000Y368500D02*
D03*
X292500Y380500D02*
D03*
X293000Y450000D02*
D03*
X515000Y433000D02*
D03*
X419000Y235000D02*
D03*
X449000Y498000D02*
D03*
D90*
X396406Y414618D02*
D03*
Y404382D02*
D03*
X390500D02*
D03*
Y414618D02*
D03*
X403594Y385382D02*
D03*
Y395618D02*
D03*
X409500D02*
D03*
Y385382D02*
D03*
X409406Y414618D02*
D03*
Y404382D02*
D03*
X403500D02*
D03*
Y414618D02*
D03*
X390595Y385382D02*
D03*
Y395618D02*
D03*
X396500D02*
D03*
Y385382D02*
D03*
D91*
X257000Y509000D02*
D03*
X562500Y493500D02*
D03*
X374500Y587000D02*
D03*
X486000Y245500D02*
D03*
X318500Y551500D02*
D03*
X524500Y305500D02*
D03*
X531500Y310500D02*
D03*
X487000Y525500D02*
D03*
X443300Y444100D02*
D03*
Y451600D02*
D03*
X415400Y451500D02*
D03*
X389000Y451000D02*
D03*
X537000Y317000D02*
D03*
X517000Y312000D02*
D03*
X440000Y567500D02*
D03*
X417000D02*
D03*
X418500Y221500D02*
D03*
D92*
X374558Y251900D02*
D03*
X373442Y246100D02*
D03*
X369558Y252900D02*
D03*
X368442Y247100D02*
D03*
D93*
X433447Y252400D02*
D03*
X439353Y252400D02*
D03*
X396447Y287500D02*
D03*
X402353D02*
D03*
X326953Y297900D02*
D03*
X321047D02*
D03*
X416453Y213000D02*
D03*
X410547D02*
D03*
X301953Y258000D02*
D03*
X296047D02*
D03*
X382547Y587000D02*
D03*
X388453D02*
D03*
X471847Y287500D02*
D03*
X477753D02*
D03*
X433447Y276400D02*
D03*
X439353D02*
D03*
X321847Y287500D02*
D03*
X327753D02*
D03*
X542953Y513000D02*
D03*
X537047D02*
D03*
X433447Y268400D02*
D03*
X439353Y268400D02*
D03*
X472047Y298400D02*
D03*
X477953D02*
D03*
X397047Y298000D02*
D03*
X402953D02*
D03*
X433447Y260400D02*
D03*
X439353D02*
D03*
X227453Y391500D02*
D03*
X221547D02*
D03*
D94*
X422887Y302192D02*
D03*
X424712Y307808D02*
D03*
X497887Y301692D02*
D03*
X499712Y307308D02*
D03*
X347888Y301892D02*
D03*
X349712Y307508D02*
D03*
D95*
X417089Y331164D02*
D03*
X412311Y334636D02*
D03*
X492089Y330864D02*
D03*
X487311Y334336D02*
D03*
X342089Y330864D02*
D03*
X337311Y334336D02*
D03*
D96*
X387689Y334636D02*
D03*
X382911Y331164D02*
D03*
X462689Y334336D02*
D03*
X457911Y330864D02*
D03*
X312689Y334336D02*
D03*
X307911Y330864D02*
D03*
D97*
X375287Y307808D02*
D03*
X377112Y302192D02*
D03*
X450287Y307508D02*
D03*
X452112Y301892D02*
D03*
X300888Y305308D02*
D03*
X302712Y299692D02*
D03*
D98*
X385000Y397047D02*
D03*
Y402953D02*
D03*
X524500Y514547D02*
D03*
X524500Y520453D02*
D03*
X263000Y517547D02*
D03*
X263000Y523453D02*
D03*
D99*
X466000Y304400D02*
D03*
Y320400D02*
D03*
X484000Y304400D02*
D03*
Y320400D02*
D03*
X316000Y304400D02*
D03*
Y320400D02*
D03*
X334000Y304400D02*
D03*
Y320400D02*
D03*
X391000Y304700D02*
D03*
Y320700D02*
D03*
X409000Y304700D02*
D03*
Y320700D02*
D03*
D100*
X584412Y415588D02*
D03*
X588588Y411412D02*
D03*
X529912Y285088D02*
D03*
X534088Y280912D02*
D03*
D101*
X564753Y327819D02*
D03*
X563247Y324182D02*
D03*
X232747Y472682D02*
D03*
X234253Y476319D02*
D03*
D102*
X466819Y232253D02*
D03*
X463181Y230747D02*
D03*
X333681Y567247D02*
D03*
X337318Y568753D02*
D03*
D103*
X327818Y233247D02*
D03*
X324181Y234753D02*
D03*
D104*
X231753Y333181D02*
D03*
X230247Y336819D02*
D03*
D105*
X472532Y565000D02*
D03*
X476469D02*
D03*
D106*
X569000Y466469D02*
D03*
Y462531D02*
D03*
D107*
X453440Y219703D02*
D03*
X437915Y215832D02*
D03*
X449085Y237168D02*
D03*
X433560Y233297D02*
D03*
D108*
X300138Y391724D02*
D03*
D109*
X298839Y380500D02*
D03*
D110*
X342146Y361634D02*
D03*
D111*
Y412366D02*
D03*
D112*
X537273Y337922D02*
D03*
X539403Y342489D02*
D03*
X541532Y347056D02*
D03*
X535143Y333354D02*
D03*
X533013Y328787D02*
D03*
X520668Y334544D02*
D03*
X522797Y339111D02*
D03*
X529187Y352813D02*
D03*
X527057Y348246D02*
D03*
X524927Y343678D02*
D03*
D113*
X220728Y439008D02*
D03*
X274272D02*
D03*
Y405937D02*
D03*
X220728D02*
D03*
D114*
X255649Y415898D02*
D03*
X259980D02*
D03*
X246988D02*
D03*
X251319D02*
D03*
X238327D02*
D03*
X242657Y415898D02*
D03*
X233996Y415898D02*
D03*
X229665D02*
D03*
D115*
X374686Y232309D02*
D03*
X371593Y232904D02*
D03*
X368500Y233500D02*
D03*
X365407Y234096D02*
D03*
X362314Y234691D02*
D03*
D116*
X597000Y395000D02*
D03*
Y400000D02*
D03*
Y405000D02*
D03*
X395000Y597000D02*
D03*
X400000D02*
D03*
X405000D02*
D03*
X203400Y395000D02*
D03*
X203500Y400000D02*
D03*
X203400Y405000D02*
D03*
X405000Y203100D02*
D03*
X400000Y203000D02*
D03*
X395000Y203100D02*
D03*
D117*
X200000Y200000D02*
D03*
X600000Y600000D02*
D03*
D118*
X291700Y520100D02*
D03*
X508300D02*
D03*
D119*
X271236Y264164D02*
D03*
X264164Y271236D02*
D03*
Y528764D02*
D03*
X271236Y535836D02*
D03*
X405000Y212800D02*
D03*
X395000D02*
D03*
X235173Y457761D02*
D03*
X239000Y467000D02*
D03*
X242827Y476239D02*
D03*
X242727Y324061D02*
D03*
X238900Y333300D02*
D03*
X235073Y342539D02*
D03*
X333300Y238900D02*
D03*
X324061Y242727D02*
D03*
X342539Y235073D02*
D03*
X475939Y242727D02*
D03*
X466700Y238900D02*
D03*
X457461Y235073D02*
D03*
X564927Y342539D02*
D03*
X561100Y333300D02*
D03*
X557273Y324061D02*
D03*
Y475939D02*
D03*
X561100Y466700D02*
D03*
X564927Y457461D02*
D03*
X457461Y564927D02*
D03*
X466700Y561100D02*
D03*
X475939Y557273D02*
D03*
X395000Y587200D02*
D03*
X405000D02*
D03*
X535836Y271236D02*
D03*
X528764Y264164D02*
D03*
X587200Y405000D02*
D03*
Y395000D02*
D03*
X528764Y535836D02*
D03*
X535836Y528764D02*
D03*
X247000Y502000D02*
D03*
X257000D02*
D03*
X553000D02*
D03*
X543000D02*
D03*
X247000Y298000D02*
D03*
X257000D02*
D03*
X324061Y557273D02*
D03*
X333300Y561100D02*
D03*
X342539Y564927D02*
D03*
X212800Y395000D02*
D03*
Y405000D02*
D03*
X543000Y298000D02*
D03*
X553000D02*
D03*
D120*
X291700Y279900D02*
D03*
X508300D02*
D03*
D121*
X312000Y390500D02*
D03*
Y370500D02*
D03*
X332000D02*
D03*
X322006Y380540D02*
D03*
X332000Y390500D02*
D03*
D122*
X341800Y516600D02*
D03*
Y524600D02*
D03*
X443000Y527300D02*
D03*
X356900Y527000D02*
D03*
D123*
X488500Y546500D02*
D03*
X550000Y400000D02*
D03*
D124*
X488500Y536500D02*
D03*
X540000Y400000D02*
D03*
X550000Y410000D02*
D03*
X540000D02*
D03*
X550000Y420000D02*
D03*
X540000D02*
D03*
X550000Y430000D02*
D03*
X540000D02*
D03*
X550000Y440000D02*
D03*
X540000D02*
D03*
D125*
X382611Y230783D02*
D03*
X380452Y219571D02*
D03*
X352230Y225006D02*
D03*
X354389Y236217D02*
D03*
D126*
X378000Y413000D02*
D03*
X242500Y425000D02*
D03*
X374000Y405000D02*
D03*
X239000Y380000D02*
D03*
X244500Y380500D02*
D03*
X267000Y448500D02*
D03*
X234000Y422000D02*
D03*
X254000Y491500D02*
D03*
X262500D02*
D03*
X267000Y495000D02*
D03*
X352000Y416500D02*
D03*
X353000Y422000D02*
D03*
X268500Y483500D02*
D03*
X283453Y462953D02*
D03*
M02*
