%FSLAX25Y25*%
%MOIN*%
G70*
G01*
G75*
G04 Layer_Color=32896*
%ADD10C,0.01500*%
%ADD11C,0.04000*%
%ADD12R,0.03150X0.05906*%
G04:AMPARAMS|DCode=13|XSize=35.43mil|YSize=27.56mil|CornerRadius=0mil|HoleSize=0mil|Usage=FLASHONLY|Rotation=169.100|XOffset=0mil|YOffset=0mil|HoleType=Round|Shape=Rectangle|*
%AMROTATEDRECTD13*
4,1,4,0.02000,0.01018,0.01479,-0.01688,-0.02000,-0.01018,-0.01479,0.01688,0.02000,0.01018,0.0*
%
%ADD13ROTATEDRECTD13*%

%ADD14R,0.02756X0.03543*%
G04:AMPARAMS|DCode=15|XSize=35.43mil|YSize=27.56mil|CornerRadius=0mil|HoleSize=0mil|Usage=FLASHONLY|Rotation=162.000|XOffset=0mil|YOffset=0mil|HoleType=Round|Shape=Rectangle|*
%AMROTATEDRECTD15*
4,1,4,0.02111,0.00763,0.01259,-0.01858,-0.02111,-0.00763,-0.01259,0.01858,0.02111,0.00763,0.0*
%
%ADD15ROTATEDRECTD15*%

G04:AMPARAMS|DCode=16|XSize=35.43mil|YSize=27.56mil|CornerRadius=0mil|HoleSize=0mil|Usage=FLASHONLY|Rotation=234.000|XOffset=0mil|YOffset=0mil|HoleType=Round|Shape=Rectangle|*
%AMROTATEDRECTD16*
4,1,4,-0.00073,0.02243,0.02156,0.00623,0.00073,-0.02243,-0.02156,-0.00623,-0.00073,0.02243,0.0*
%
%ADD16ROTATEDRECTD16*%

G04:AMPARAMS|DCode=17|XSize=35.43mil|YSize=27.56mil|CornerRadius=0mil|HoleSize=0mil|Usage=FLASHONLY|Rotation=306.000|XOffset=0mil|YOffset=0mil|HoleType=Round|Shape=Rectangle|*
%AMROTATEDRECTD17*
4,1,4,-0.02156,0.00623,0.00073,0.02243,0.02156,-0.00623,-0.00073,-0.02243,-0.02156,0.00623,0.0*
%
%ADD17ROTATEDRECTD17*%

G04:AMPARAMS|DCode=18|XSize=35.43mil|YSize=27.56mil|CornerRadius=0mil|HoleSize=0mil|Usage=FLASHONLY|Rotation=18.000|XOffset=0mil|YOffset=0mil|HoleType=Round|Shape=Rectangle|*
%AMROTATEDRECTD18*
4,1,4,-0.01259,-0.01858,-0.02111,0.00763,0.01259,0.01858,0.02111,-0.00763,-0.01259,-0.01858,0.0*
%
%ADD18ROTATEDRECTD18*%

%ADD19R,0.03543X0.02756*%
%ADD20R,0.08000X0.05000*%
G04:AMPARAMS|DCode=21|XSize=35.43mil|YSize=27.56mil|CornerRadius=0mil|HoleSize=0mil|Usage=FLASHONLY|Rotation=225.000|XOffset=0mil|YOffset=0mil|HoleType=Round|Shape=Rectangle|*
%AMROTATEDRECTD21*
4,1,4,0.00278,0.02227,0.02227,0.00278,-0.00278,-0.02227,-0.02227,-0.00278,0.00278,0.02227,0.0*
%
%ADD21ROTATEDRECTD21*%

G04:AMPARAMS|DCode=22|XSize=19.69mil|YSize=23.62mil|CornerRadius=0mil|HoleSize=0mil|Usage=FLASHONLY|Rotation=337.500|XOffset=0mil|YOffset=0mil|HoleType=Round|Shape=Rectangle|*
%AMROTATEDRECTD22*
4,1,4,-0.01361,-0.00715,-0.00457,0.01468,0.01361,0.00715,0.00457,-0.01468,-0.01361,-0.00715,0.0*
%
%ADD22ROTATEDRECTD22*%

G04:AMPARAMS|DCode=23|XSize=19.69mil|YSize=23.62mil|CornerRadius=0mil|HoleSize=0mil|Usage=FLASHONLY|Rotation=292.500|XOffset=0mil|YOffset=0mil|HoleType=Round|Shape=Rectangle|*
%AMROTATEDRECTD23*
4,1,4,-0.01468,0.00457,0.00715,0.01361,0.01468,-0.00457,-0.00715,-0.01361,-0.01468,0.00457,0.0*
%
%ADD23ROTATEDRECTD23*%

G04:AMPARAMS|DCode=24|XSize=19.69mil|YSize=23.62mil|CornerRadius=0mil|HoleSize=0mil|Usage=FLASHONLY|Rotation=247.500|XOffset=0mil|YOffset=0mil|HoleType=Round|Shape=Rectangle|*
%AMROTATEDRECTD24*
4,1,4,-0.00715,0.01361,0.01468,0.00457,0.00715,-0.01361,-0.01468,-0.00457,-0.00715,0.01361,0.0*
%
%ADD24ROTATEDRECTD24*%

G04:AMPARAMS|DCode=25|XSize=19.69mil|YSize=23.62mil|CornerRadius=0mil|HoleSize=0mil|Usage=FLASHONLY|Rotation=202.500|XOffset=0mil|YOffset=0mil|HoleType=Round|Shape=Rectangle|*
%AMROTATEDRECTD25*
4,1,4,0.00457,0.01468,0.01361,-0.00715,-0.00457,-0.01468,-0.01361,0.00715,0.00457,0.01468,0.0*
%
%ADD25ROTATEDRECTD25*%

%ADD26R,0.02362X0.01969*%
%ADD27R,0.01969X0.02362*%
G04:AMPARAMS|DCode=28|XSize=80mil|YSize=50mil|CornerRadius=0mil|HoleSize=0mil|Usage=FLASHONLY|Rotation=104.000|XOffset=0mil|YOffset=0mil|HoleType=Round|Shape=Rectangle|*
%AMROTATEDRECTD28*
4,1,4,0.03393,-0.03276,-0.01458,-0.04486,-0.03393,0.03276,0.01458,0.04486,0.03393,-0.03276,0.0*
%
%ADD28ROTATEDRECTD28*%

%ADD29R,0.09449X0.09449*%
%ADD30R,0.06850X0.05512*%
%ADD31P,0.13919X4X345.0*%
%ADD32P,0.13919X4X285.0*%
G04:AMPARAMS|DCode=33|XSize=17.32mil|YSize=98.43mil|CornerRadius=0mil|HoleSize=0mil|Usage=FLASHONLY|Rotation=245.000|XOffset=0mil|YOffset=0mil|HoleType=Round|Shape=Rectangle|*
%AMROTATEDRECTD33*
4,1,4,-0.04094,0.02865,0.04826,-0.01295,0.04094,-0.02865,-0.04826,0.01295,-0.04094,0.02865,0.0*
%
%ADD33ROTATEDRECTD33*%

%ADD34R,0.04134X0.05906*%
%ADD35R,0.02362X0.04134*%
G04:AMPARAMS|DCode=36|XSize=64.96mil|YSize=21.65mil|CornerRadius=0mil|HoleSize=0mil|Usage=FLASHONLY|Rotation=259.100|XOffset=0mil|YOffset=0mil|HoleType=Round|Shape=Rectangle|*
%AMROTATEDRECTD36*
4,1,4,-0.00449,0.03394,0.01677,0.02985,0.00449,-0.03394,-0.01677,-0.02985,-0.00449,0.03394,0.0*
%
%ADD36ROTATEDRECTD36*%

%ADD37C,0.00800*%
%ADD38C,0.02500*%
%ADD39C,0.02000*%
%ADD40C,0.01200*%
%ADD41C,0.01000*%
G04:AMPARAMS|DCode=42|XSize=10mil|YSize=50mil|CornerRadius=0mil|HoleSize=0mil|Usage=FLASHONLY|Rotation=216.000|XOffset=0mil|YOffset=0mil|HoleType=Round|Shape=Rectangle|*
%AMROTATEDRECTD42*
4,1,4,-0.01065,0.02316,0.01874,-0.01729,0.01065,-0.02316,-0.01874,0.01729,-0.01065,0.02316,0.0*
%
%ADD42ROTATEDRECTD42*%

G04:AMPARAMS|DCode=43|XSize=10mil|YSize=50mil|CornerRadius=0mil|HoleSize=0mil|Usage=FLASHONLY|Rotation=144.000|XOffset=0mil|YOffset=0mil|HoleType=Round|Shape=Rectangle|*
%AMROTATEDRECTD43*
4,1,4,0.01874,0.01729,-0.01065,-0.02316,-0.01874,-0.01729,0.01065,0.02316,0.01874,0.01729,0.0*
%
%ADD43ROTATEDRECTD43*%

G04:AMPARAMS|DCode=44|XSize=10mil|YSize=50mil|CornerRadius=0mil|HoleSize=0mil|Usage=FLASHONLY|Rotation=288.000|XOffset=0mil|YOffset=0mil|HoleType=Round|Shape=Rectangle|*
%AMROTATEDRECTD44*
4,1,4,-0.02532,-0.00297,0.02223,0.01248,0.02532,0.00297,-0.02223,-0.01248,-0.02532,-0.00297,0.0*
%
%ADD44ROTATEDRECTD44*%

G04:AMPARAMS|DCode=45|XSize=10mil|YSize=50mil|CornerRadius=0mil|HoleSize=0mil|Usage=FLASHONLY|Rotation=72.000|XOffset=0mil|YOffset=0mil|HoleType=Round|Shape=Rectangle|*
%AMROTATEDRECTD45*
4,1,4,0.02223,-0.01248,-0.02532,0.00297,-0.02223,0.01248,0.02532,-0.00297,0.02223,-0.01248,0.0*
%
%ADD45ROTATEDRECTD45*%

%ADD46R,0.01000X0.05000*%
%ADD47C,0.03000*%
%ADD48C,0.15800*%
%ADD49C,0.14900*%
%ADD50C,0.06000*%
%ADD51C,0.26000*%
%ADD52C,0.08661*%
%ADD53C,0.05000*%
%ADD54R,0.05906X0.05906*%
%ADD55C,0.05906*%
G04:AMPARAMS|DCode=56|XSize=86.61mil|YSize=70.87mil|CornerRadius=0mil|HoleSize=0mil|Usage=FLASHONLY|Rotation=79.100|XOffset=0mil|YOffset=0mil|HoleType=Round|Shape=Round|*
%AMOVALD56*
21,1,0.01575,0.07087,0.00000,0.00000,79.1*
1,1,0.07087,-0.00149,-0.00773*
1,1,0.07087,0.00149,0.00773*
%
%ADD56OVALD56*%

%ADD57C,0.03500*%
%ADD58C,0.02700*%
%ADD59C,0.02598*%
%ADD60R,0.06693X0.01378*%
%ADD61R,0.05906X0.02362*%
%ADD62R,0.05512X0.04724*%
%ADD63R,0.03543X0.03150*%
%ADD64R,0.07087X0.04724*%
%ADD65R,0.03150X0.03543*%
%ADD66R,0.08661X0.07480*%
%ADD67O,0.01496X0.06299*%
%ADD68R,0.03937X0.04429*%
%ADD69R,0.06299X0.05118*%
%ADD70R,0.02913X0.11004*%
%ADD71R,0.04724X0.05512*%
%ADD72R,0.01142X0.06890*%
%ADD73R,0.06890X0.01142*%
%ADD74R,0.06496X0.01142*%
%ADD75R,0.01142X0.06496*%
%ADD76O,0.03347X0.00984*%
%ADD77O,0.00984X0.03347*%
%ADD78R,0.14173X0.14173*%
%ADD79O,0.00984X0.03150*%
%ADD80O,0.03150X0.00984*%
%ADD81R,0.02362X0.05906*%
%ADD82R,0.01732X0.05394*%
%ADD83C,0.02913*%
%ADD84C,0.02914*%
%ADD85R,0.07500X0.06000*%
%ADD86C,0.00500*%
%ADD87C,0.00787*%
%ADD88C,0.00984*%
%ADD89C,0.01300*%
%ADD90R,0.03950X0.06706*%
%ADD91C,0.04800*%
G04:AMPARAMS|DCode=92|XSize=43.43mil|YSize=35.56mil|CornerRadius=0mil|HoleSize=0mil|Usage=FLASHONLY|Rotation=169.100|XOffset=0mil|YOffset=0mil|HoleType=Round|Shape=Rectangle|*
%AMROTATEDRECTD92*
4,1,4,0.02469,0.01335,0.01796,-0.02157,-0.02469,-0.01335,-0.01796,0.02157,0.02469,0.01335,0.0*
%
%ADD92ROTATEDRECTD92*%

%ADD93R,0.03556X0.04343*%
G04:AMPARAMS|DCode=94|XSize=43.43mil|YSize=35.56mil|CornerRadius=0mil|HoleSize=0mil|Usage=FLASHONLY|Rotation=162.000|XOffset=0mil|YOffset=0mil|HoleType=Round|Shape=Rectangle|*
%AMROTATEDRECTD94*
4,1,4,0.02615,0.01020,0.01516,-0.02362,-0.02615,-0.01020,-0.01516,0.02362,0.02615,0.01020,0.0*
%
%ADD94ROTATEDRECTD94*%

G04:AMPARAMS|DCode=95|XSize=43.43mil|YSize=35.56mil|CornerRadius=0mil|HoleSize=0mil|Usage=FLASHONLY|Rotation=234.000|XOffset=0mil|YOffset=0mil|HoleType=Round|Shape=Rectangle|*
%AMROTATEDRECTD95*
4,1,4,-0.00162,0.02802,0.02715,0.00712,0.00162,-0.02802,-0.02715,-0.00712,-0.00162,0.02802,0.0*
%
%ADD95ROTATEDRECTD95*%

G04:AMPARAMS|DCode=96|XSize=43.43mil|YSize=35.56mil|CornerRadius=0mil|HoleSize=0mil|Usage=FLASHONLY|Rotation=306.000|XOffset=0mil|YOffset=0mil|HoleType=Round|Shape=Rectangle|*
%AMROTATEDRECTD96*
4,1,4,-0.02715,0.00712,0.00162,0.02802,0.02715,-0.00712,-0.00162,-0.02802,-0.02715,0.00712,0.0*
%
%ADD96ROTATEDRECTD96*%

G04:AMPARAMS|DCode=97|XSize=43.43mil|YSize=35.56mil|CornerRadius=0mil|HoleSize=0mil|Usage=FLASHONLY|Rotation=18.000|XOffset=0mil|YOffset=0mil|HoleType=Round|Shape=Rectangle|*
%AMROTATEDRECTD97*
4,1,4,-0.01516,-0.02362,-0.02615,0.01020,0.01516,0.02362,0.02615,-0.01020,-0.01516,-0.02362,0.0*
%
%ADD97ROTATEDRECTD97*%

%ADD98R,0.04343X0.03556*%
%ADD99R,0.08800X0.05800*%
G04:AMPARAMS|DCode=100|XSize=43.43mil|YSize=35.56mil|CornerRadius=0mil|HoleSize=0mil|Usage=FLASHONLY|Rotation=225.000|XOffset=0mil|YOffset=0mil|HoleType=Round|Shape=Rectangle|*
%AMROTATEDRECTD100*
4,1,4,0.00278,0.02793,0.02793,0.00278,-0.00278,-0.02793,-0.02793,-0.00278,0.00278,0.02793,0.0*
%
%ADD100ROTATEDRECTD100*%

G04:AMPARAMS|DCode=101|XSize=27.69mil|YSize=31.62mil|CornerRadius=0mil|HoleSize=0mil|Usage=FLASHONLY|Rotation=337.500|XOffset=0mil|YOffset=0mil|HoleType=Round|Shape=Rectangle|*
%AMROTATEDRECTD101*
4,1,4,-0.01884,-0.00931,-0.00674,0.01991,0.01884,0.00931,0.00674,-0.01991,-0.01884,-0.00931,0.0*
%
%ADD101ROTATEDRECTD101*%

G04:AMPARAMS|DCode=102|XSize=27.69mil|YSize=31.62mil|CornerRadius=0mil|HoleSize=0mil|Usage=FLASHONLY|Rotation=292.500|XOffset=0mil|YOffset=0mil|HoleType=Round|Shape=Rectangle|*
%AMROTATEDRECTD102*
4,1,4,-0.01991,0.00674,0.00931,0.01884,0.01991,-0.00674,-0.00931,-0.01884,-0.01991,0.00674,0.0*
%
%ADD102ROTATEDRECTD102*%

G04:AMPARAMS|DCode=103|XSize=27.69mil|YSize=31.62mil|CornerRadius=0mil|HoleSize=0mil|Usage=FLASHONLY|Rotation=247.500|XOffset=0mil|YOffset=0mil|HoleType=Round|Shape=Rectangle|*
%AMROTATEDRECTD103*
4,1,4,-0.00931,0.01884,0.01991,0.00674,0.00931,-0.01884,-0.01991,-0.00674,-0.00931,0.01884,0.0*
%
%ADD103ROTATEDRECTD103*%

G04:AMPARAMS|DCode=104|XSize=27.69mil|YSize=31.62mil|CornerRadius=0mil|HoleSize=0mil|Usage=FLASHONLY|Rotation=202.500|XOffset=0mil|YOffset=0mil|HoleType=Round|Shape=Rectangle|*
%AMROTATEDRECTD104*
4,1,4,0.00674,0.01991,0.01884,-0.00931,-0.00674,-0.01991,-0.01884,0.00931,0.00674,0.01991,0.0*
%
%ADD104ROTATEDRECTD104*%

%ADD105R,0.03162X0.02769*%
%ADD106R,0.02769X0.03162*%
G04:AMPARAMS|DCode=107|XSize=88mil|YSize=58mil|CornerRadius=0mil|HoleSize=0mil|Usage=FLASHONLY|Rotation=104.000|XOffset=0mil|YOffset=0mil|HoleType=Round|Shape=Rectangle|*
%AMROTATEDRECTD107*
4,1,4,0.03878,-0.03568,-0.01749,-0.04971,-0.03878,0.03568,0.01749,0.04971,0.03878,-0.03568,0.0*
%
%ADD107ROTATEDRECTD107*%

%ADD108R,0.10249X0.10249*%
%ADD109R,0.07650X0.06312*%
%ADD110P,0.15051X4X345.0*%
%ADD111P,0.15051X4X285.0*%
G04:AMPARAMS|DCode=112|XSize=25.32mil|YSize=106.42mil|CornerRadius=0mil|HoleSize=0mil|Usage=FLASHONLY|Rotation=245.000|XOffset=0mil|YOffset=0mil|HoleType=Round|Shape=Rectangle|*
%AMROTATEDRECTD112*
4,1,4,-0.04288,0.03396,0.05358,-0.01101,0.04288,-0.03396,-0.05358,0.01101,-0.04288,0.03396,0.0*
%
%ADD112ROTATEDRECTD112*%

%ADD113R,0.04934X0.06706*%
%ADD114R,0.03162X0.04934*%
G04:AMPARAMS|DCode=115|XSize=72.96mil|YSize=29.65mil|CornerRadius=0mil|HoleSize=0mil|Usage=FLASHONLY|Rotation=259.100|XOffset=0mil|YOffset=0mil|HoleType=Round|Shape=Rectangle|*
%AMROTATEDRECTD115*
4,1,4,-0.00766,0.03863,0.02146,0.03302,0.00766,-0.03863,-0.02146,-0.03302,-0.00766,0.03863,0.0*
%
%ADD115ROTATEDRECTD115*%

%ADD116C,0.03800*%
%ADD117C,0.16600*%
%ADD118C,0.15700*%
%ADD119C,0.06800*%
%ADD120C,0.26800*%
%ADD121C,0.09461*%
%ADD122C,0.05800*%
%ADD123R,0.06706X0.06706*%
%ADD124C,0.06706*%
G04:AMPARAMS|DCode=125|XSize=94.61mil|YSize=78.87mil|CornerRadius=0mil|HoleSize=0mil|Usage=FLASHONLY|Rotation=79.100|XOffset=0mil|YOffset=0mil|HoleType=Round|Shape=Round|*
%AMOVALD125*
21,1,0.01575,0.07887,0.00000,0.00000,79.1*
1,1,0.07887,-0.00149,-0.00773*
1,1,0.07887,0.00149,0.00773*
%
%ADD125OVALD125*%

%ADD126C,0.04300*%
%ADD127R,0.07493X0.02178*%
%ADD128R,0.06706X0.03162*%
%ADD129R,0.06312X0.05524*%
%ADD130R,0.04343X0.03950*%
%ADD131R,0.07887X0.05524*%
%ADD132R,0.03950X0.04343*%
%ADD133R,0.09461X0.08280*%
%ADD134O,0.02296X0.07099*%
%ADD135R,0.04737X0.05229*%
%ADD136R,0.07099X0.05918*%
%ADD137R,0.03713X0.11804*%
%ADD138R,0.05524X0.06312*%
%ADD139R,0.01942X0.07690*%
%ADD140R,0.07690X0.01942*%
%ADD141R,0.07296X0.01942*%
%ADD142R,0.01942X0.07296*%
%ADD143O,0.04147X0.01784*%
%ADD144O,0.01784X0.04147*%
%ADD145R,0.14973X0.14973*%
%ADD146O,0.01784X0.03950*%
%ADD147O,0.03950X0.01784*%
%ADD148R,0.03162X0.06706*%
%ADD149R,0.02532X0.06194*%
%ADD150C,0.03398*%
%ADD151C,0.02362*%
%ADD152C,0.00394*%
D37*
X606400Y200000D02*
G03*
X606400Y200000I-6400J0D01*
G01*
X206400Y600000D02*
G03*
X206400Y600000I-6400J0D01*
G01*
X383490Y269905D02*
G03*
X383490Y269905I-1419J0D01*
G01*
X378331Y254157D02*
X419669D01*
Y273843D01*
X381283D02*
X419669D01*
X378331Y270890D02*
X381283Y273843D01*
X378331Y254157D02*
Y270890D01*
X363000Y380500D02*
Y383499D01*
X361501D01*
X361001Y382999D01*
Y381999D01*
X361501Y381500D01*
X363000D01*
X362000D02*
X361001Y380500D01*
X358002Y383499D02*
X359001Y382999D01*
X360001Y381999D01*
Y381000D01*
X359501Y380500D01*
X358502D01*
X358002Y381000D01*
Y381500D01*
X358502Y381999D01*
X360001D01*
X355003Y383499D02*
X357002D01*
Y381999D01*
X356002Y382499D01*
X355502D01*
X355003Y381999D01*
Y381000D01*
X355502Y380500D01*
X356502D01*
X357002Y381000D01*
X363000Y374700D02*
Y377699D01*
X361501D01*
X361001Y377199D01*
Y376200D01*
X361501Y375700D01*
X363000D01*
X362000D02*
X361001Y374700D01*
X358002Y377699D02*
X359001Y377199D01*
X360001Y376200D01*
Y375200D01*
X359501Y374700D01*
X358502D01*
X358002Y375200D01*
Y375700D01*
X358502Y376200D01*
X360001D01*
X355003Y377699D02*
X356002Y377199D01*
X357002Y376200D01*
Y375200D01*
X356502Y374700D01*
X355502D01*
X355003Y375200D01*
Y375700D01*
X355502Y376200D01*
X357002D01*
X267000Y457000D02*
X271498D01*
Y459249D01*
X270749Y459999D01*
X269249D01*
X268499Y459249D01*
Y457000D01*
Y458499D02*
X267000Y459999D01*
X271498Y464498D02*
Y461498D01*
X269249D01*
X269999Y462998D01*
Y463748D01*
X269249Y464498D01*
X267750D01*
X267000Y463748D01*
Y462248D01*
X267750Y461498D01*
X267000Y465997D02*
Y467497D01*
Y466747D01*
X271498D01*
X270749Y465997D01*
X430999Y549999D02*
X431499Y549500D01*
Y548500D01*
X430999Y548000D01*
X429000D01*
X428500Y548500D01*
Y549500D01*
X429000Y549999D01*
X428500Y552498D02*
X431499D01*
X429999Y550999D01*
Y552998D01*
X431499Y555997D02*
X430999Y554998D01*
X429999Y553998D01*
X429000D01*
X428500Y554498D01*
Y555498D01*
X429000Y555997D01*
X429500D01*
X429999Y555498D01*
Y553998D01*
X412500Y217000D02*
X415499D01*
Y218499D01*
X414999Y218999D01*
X414000D01*
X413500Y218499D01*
Y217000D01*
Y218000D02*
X412500Y218999D01*
X415499Y221998D02*
Y219999D01*
X414000D01*
X414499Y220999D01*
Y221498D01*
X414000Y221998D01*
X413000D01*
X412500Y221498D01*
Y220499D01*
X413000Y219999D01*
Y222998D02*
X412500Y223498D01*
Y224498D01*
X413000Y224997D01*
X414999D01*
X415499Y224498D01*
Y223498D01*
X414999Y222998D01*
X414499D01*
X414000Y223498D01*
Y224997D01*
X426500Y217000D02*
X429499D01*
Y218499D01*
X428999Y218999D01*
X427999D01*
X427500Y218499D01*
Y217000D01*
Y218000D02*
X426500Y218999D01*
X429499Y221998D02*
Y219999D01*
X427999D01*
X428499Y220999D01*
Y221498D01*
X427999Y221998D01*
X427000D01*
X426500Y221498D01*
Y220499D01*
X427000Y219999D01*
X428999Y222998D02*
X429499Y223498D01*
Y224498D01*
X428999Y224997D01*
X428499D01*
X427999Y224498D01*
X427500Y224997D01*
X427000D01*
X426500Y224498D01*
Y223498D01*
X427000Y222998D01*
X427500D01*
X427999Y223498D01*
X428499Y222998D01*
X428999D01*
X427999Y223498D02*
Y224498D01*
X423999Y218999D02*
X424499Y218499D01*
Y217500D01*
X423999Y217000D01*
X422000D01*
X421500Y217500D01*
Y218499D01*
X422000Y218999D01*
X421500Y221498D02*
X424499D01*
X422999Y219999D01*
Y221998D01*
X424499Y222998D02*
Y224997D01*
X423999D01*
X422000Y222998D01*
X421500D01*
X419499Y218999D02*
X419999Y218499D01*
Y217500D01*
X419499Y217000D01*
X417500D01*
X417000Y217500D01*
Y218499D01*
X417500Y218999D01*
X417000Y221498D02*
X419999D01*
X418500Y219999D01*
Y221998D01*
X419499Y222998D02*
X419999Y223498D01*
Y224498D01*
X419499Y224997D01*
X418999D01*
X418500Y224498D01*
X418000Y224997D01*
X417500D01*
X417000Y224498D01*
Y223498D01*
X417500Y222998D01*
X418000D01*
X418500Y223498D01*
X418999Y222998D01*
X419499D01*
X418500Y223498D02*
Y224498D01*
X438500Y492000D02*
X441499D01*
Y493500D01*
X440999Y493999D01*
X439999D01*
X439500Y493500D01*
Y492000D01*
Y493000D02*
X438500Y493999D01*
X441499Y496998D02*
X440999Y495999D01*
X439999Y494999D01*
X439000D01*
X438500Y495499D01*
Y496498D01*
X439000Y496998D01*
X439500D01*
X439999Y496498D01*
Y494999D01*
X438500Y499498D02*
X441499D01*
X439999Y497998D01*
Y499997D01*
X239000Y382500D02*
Y379501D01*
X240499D01*
X240999Y380001D01*
Y381000D01*
X240499Y381500D01*
X239000D01*
X240000D02*
X240999Y382500D01*
X243998Y379501D02*
X242999Y380001D01*
X241999Y381000D01*
Y382000D01*
X242499Y382500D01*
X243498D01*
X243998Y382000D01*
Y381500D01*
X243498Y381000D01*
X241999D01*
X244998Y379501D02*
X246997D01*
Y380001D01*
X244998Y382000D01*
Y382500D01*
X339500Y358500D02*
Y361499D01*
X338000D01*
X337501Y360999D01*
Y359999D01*
X338000Y359500D01*
X339500D01*
X338500D02*
X337501Y358500D01*
X336501Y360999D02*
X336001Y361499D01*
X335001D01*
X334502Y360999D01*
Y360499D01*
X335001Y359999D01*
X335501D01*
X335001D01*
X334502Y359500D01*
Y359000D01*
X335001Y358500D01*
X336001D01*
X336501Y359000D01*
X332002Y358500D02*
Y361499D01*
X333502Y359999D01*
X331503D01*
X303001Y482999D02*
X303501Y483499D01*
X304500D01*
X305000Y482999D01*
Y481000D01*
X304500Y480500D01*
X303501D01*
X303001Y481000D01*
X302001Y482999D02*
X301501Y483499D01*
X300501D01*
X300002Y482999D01*
Y482499D01*
X300501Y481999D01*
X301001D01*
X300501D01*
X300002Y481500D01*
Y481000D01*
X300501Y480500D01*
X301501D01*
X302001Y481000D01*
X297003Y480500D02*
X299002D01*
X297003Y482499D01*
Y482999D01*
X297502Y483499D01*
X298502D01*
X299002Y482999D01*
X264849Y472999D02*
X265349Y472500D01*
Y471500D01*
X264849Y471000D01*
X262850D01*
X262350Y471500D01*
Y472500D01*
X262850Y472999D01*
X262350Y475498D02*
X265349D01*
X263849Y473999D01*
Y475998D01*
X262350Y478997D02*
Y476998D01*
X264349Y478997D01*
X264849D01*
X265349Y478498D01*
Y477498D01*
X264849Y476998D01*
X331001Y402499D02*
X331501Y402999D01*
X332500D01*
X333000Y402499D01*
Y400500D01*
X332500Y400000D01*
X331501D01*
X331001Y400500D01*
X328502Y400000D02*
Y402999D01*
X330001Y401500D01*
X328002D01*
X327002Y400000D02*
X326002D01*
X326502D01*
Y402999D01*
X327002Y402499D01*
X347501Y414999D02*
X348001Y415499D01*
X349000D01*
X349500Y414999D01*
Y413000D01*
X349000Y412500D01*
X348001D01*
X347501Y413000D01*
X345002Y412500D02*
Y415499D01*
X346501Y414000D01*
X344502D01*
X343502Y414999D02*
X343002Y415499D01*
X342002D01*
X341503Y414999D01*
Y414499D01*
X342002Y414000D01*
X342502D01*
X342002D01*
X341503Y413500D01*
Y413000D01*
X342002Y412500D01*
X343002D01*
X343502Y413000D01*
X316501Y410999D02*
X317001Y411499D01*
X318000D01*
X318500Y410999D01*
Y409000D01*
X318000Y408500D01*
X317001D01*
X316501Y409000D01*
X314001Y408500D02*
Y411499D01*
X315501Y410000D01*
X313502D01*
X311002Y408500D02*
Y411499D01*
X312502Y410000D01*
X310503D01*
X348999Y353999D02*
X349499Y353500D01*
Y352500D01*
X348999Y352000D01*
X347000D01*
X346500Y352500D01*
Y353500D01*
X347000Y353999D01*
X346500Y354999D02*
Y355999D01*
Y355499D01*
X349499D01*
X348999Y354999D01*
X347000Y357498D02*
X346500Y357998D01*
Y358998D01*
X347000Y359498D01*
X348999D01*
X349499Y358998D01*
Y357998D01*
X348999Y357498D01*
X348499D01*
X348000Y357998D01*
Y359498D01*
X367800Y450999D02*
Y447000D01*
X365134D01*
X361136Y450999D02*
X363801D01*
Y448999D01*
X362468Y449666D01*
X361802D01*
X361136Y448999D01*
Y447666D01*
X361802Y447000D01*
X363135D01*
X363801Y447666D01*
X270500Y420818D02*
X268501Y417819D01*
Y420818D02*
X270500Y417819D01*
X267501Y420818D02*
X265502D01*
X266501D01*
Y417819D01*
X264502D02*
Y419818D01*
X263502Y420818D01*
X262503Y419818D01*
Y417819D01*
Y419318D01*
X264502D01*
X261503Y420818D02*
Y417819D01*
X259504D01*
X256505D02*
X258504D01*
X256505Y419818D01*
Y420318D01*
X257004Y420818D01*
X258004D01*
X258504Y420318D01*
X246501Y369001D02*
X246001Y369500D01*
Y370500D01*
X246501Y371000D01*
X248500D01*
X249000Y370500D01*
Y369500D01*
X248500Y369001D01*
X249000Y366002D02*
Y368001D01*
X247001Y366002D01*
X246501D01*
X246001Y366501D01*
Y367501D01*
X246501Y368001D01*
Y365002D02*
X246001Y364502D01*
Y363502D01*
X246501Y363003D01*
X247001D01*
X247500Y363502D01*
Y364002D01*
Y363502D01*
X248000Y363003D01*
X248500D01*
X249000Y363502D01*
Y364502D01*
X248500Y365002D01*
X253999Y349182D02*
X253500Y348682D01*
X252500D01*
X252000Y349182D01*
Y351181D01*
X252500Y351681D01*
X253500D01*
X253999Y351181D01*
X256998Y351681D02*
X254999D01*
X256998Y349682D01*
Y349182D01*
X256499Y348682D01*
X255499D01*
X254999Y349182D01*
X257998D02*
X258498Y348682D01*
X259498D01*
X259997Y349182D01*
Y351181D01*
X259498Y351681D01*
X258498D01*
X257998Y351181D01*
Y349182D01*
X287501Y362001D02*
X287001Y362501D01*
Y363500D01*
X287501Y364000D01*
X289500D01*
X290000Y363500D01*
Y362501D01*
X289500Y362001D01*
X290000Y359002D02*
Y361001D01*
X288001Y359002D01*
X287501D01*
X287001Y359502D01*
Y360501D01*
X287501Y361001D01*
Y358002D02*
X287001Y357502D01*
Y356502D01*
X287501Y356003D01*
X288001D01*
X288500Y356502D01*
X289000Y356003D01*
X289500D01*
X290000Y356502D01*
Y357502D01*
X289500Y358002D01*
X289000D01*
X288500Y357502D01*
X288001Y358002D01*
X287501D01*
X288500Y357502D02*
Y356502D01*
X280499Y383580D02*
X279999Y383080D01*
X279000D01*
X278500Y383580D01*
Y385579D01*
X279000Y386079D01*
X279999D01*
X280499Y385579D01*
X283498Y386079D02*
X281499D01*
X283498Y384080D01*
Y383580D01*
X282998Y383080D01*
X281999D01*
X281499Y383580D01*
X286497Y383080D02*
X284498D01*
Y384579D01*
X285498Y384080D01*
X285998D01*
X286497Y384579D01*
Y385579D01*
X285998Y386079D01*
X284998D01*
X284498Y385579D01*
X252999Y344682D02*
X252500Y344182D01*
X251500D01*
X251000Y344682D01*
Y346681D01*
X251500Y347181D01*
X252500D01*
X252999Y346681D01*
X255998Y347181D02*
X253999D01*
X255998Y345182D01*
Y344682D01*
X255499Y344182D01*
X254499D01*
X253999Y344682D01*
X256998Y347181D02*
X257998D01*
X257498D01*
Y344182D01*
X256998Y344682D01*
X282182Y408320D02*
X281682Y408819D01*
Y409819D01*
X282182Y410319D01*
X284181D01*
X284681Y409819D01*
Y408819D01*
X284181Y408320D01*
X284681Y405321D02*
Y407320D01*
X282682Y405321D01*
X282182D01*
X281682Y405820D01*
Y406820D01*
X282182Y407320D01*
X284681Y402821D02*
X281682D01*
X283182Y404321D01*
Y402321D01*
X281999Y397001D02*
X281500Y396501D01*
X280500D01*
X280000Y397001D01*
Y399000D01*
X280500Y399500D01*
X281500D01*
X281999Y399000D01*
X284998Y399500D02*
X282999D01*
X284998Y397501D01*
Y397001D01*
X284499Y396501D01*
X283499D01*
X282999Y397001D01*
X287997Y396501D02*
X286998Y397001D01*
X285998Y398001D01*
Y399000D01*
X286498Y399500D01*
X287498D01*
X287997Y399000D01*
Y398500D01*
X287498Y398001D01*
X285998D01*
X242001Y409761D02*
X241501Y410260D01*
Y411260D01*
X242001Y411760D01*
X244000D01*
X244500Y411260D01*
Y410260D01*
X244000Y409761D01*
X244500Y406762D02*
Y408761D01*
X242501Y406762D01*
X242001D01*
X241501Y407261D01*
Y408261D01*
X242001Y408761D01*
X244500Y403762D02*
Y405762D01*
X242501Y403762D01*
X242001D01*
X241501Y404262D01*
Y405262D01*
X242001Y405762D01*
X283499Y366001D02*
X282999Y365501D01*
X282000D01*
X281500Y366001D01*
Y368000D01*
X282000Y368500D01*
X282999D01*
X283499Y368000D01*
X286498Y368500D02*
X284499D01*
X286498Y366501D01*
Y366001D01*
X285999Y365501D01*
X284999D01*
X284499Y366001D01*
X287498Y365501D02*
X289497D01*
Y366001D01*
X287498Y368000D01*
Y368500D01*
X275500Y375001D02*
Y378000D01*
X277499D01*
X278499Y375501D02*
X278999Y375001D01*
X279998D01*
X280498Y375501D01*
Y376001D01*
X279998Y376501D01*
X279499D01*
X279998D01*
X280498Y377000D01*
Y377500D01*
X279998Y378000D01*
X278999D01*
X278499Y377500D01*
X271001Y378000D02*
X274000D01*
Y376001D01*
Y373002D02*
Y375001D01*
X272001Y373002D01*
X271501D01*
X271001Y373501D01*
Y374501D01*
X271501Y375001D01*
X275201Y396060D02*
X278200D01*
Y394061D01*
Y391561D02*
X275201D01*
X276700Y393061D01*
Y391061D01*
X249000Y396500D02*
Y393501D01*
X250500D01*
X250999Y394001D01*
Y395001D01*
X250500Y395500D01*
X249000D01*
X250000D02*
X250999Y396500D01*
X253499D02*
Y393501D01*
X251999Y395001D01*
X253998D01*
X254998Y394001D02*
X255498Y393501D01*
X256498D01*
X256997Y394001D01*
Y394501D01*
X256498Y395001D01*
X256997Y395500D01*
Y396000D01*
X256498Y396500D01*
X255498D01*
X254998Y396000D01*
Y395500D01*
X255498Y395001D01*
X254998Y394501D01*
Y394001D01*
X255498Y395001D02*
X256498D01*
X280501Y482499D02*
X281000Y482999D01*
X282000D01*
X282500Y482499D01*
Y480500D01*
X282000Y480000D01*
X281000D01*
X280501Y480500D01*
X279501Y482499D02*
X279001Y482999D01*
X278001D01*
X277502Y482499D01*
Y481999D01*
X278001Y481499D01*
X278501D01*
X278001D01*
X277502Y481000D01*
Y480500D01*
X278001Y480000D01*
X279001D01*
X279501Y480500D01*
X275002Y480000D02*
Y482999D01*
X276502Y481499D01*
X274503D01*
X352499Y452999D02*
X352999Y452499D01*
Y451500D01*
X352499Y451000D01*
X350500D01*
X350000Y451500D01*
Y452499D01*
X350500Y452999D01*
X352499Y453999D02*
X352999Y454499D01*
Y455499D01*
X352499Y455998D01*
X351999D01*
X351500Y455499D01*
Y454999D01*
Y455499D01*
X351000Y455998D01*
X350500D01*
X350000Y455499D01*
Y454499D01*
X350500Y453999D01*
X352999Y458997D02*
Y456998D01*
X351500D01*
X351999Y457998D01*
Y458498D01*
X351500Y458997D01*
X350500D01*
X350000Y458498D01*
Y457498D01*
X350500Y456998D01*
X332028Y411328D02*
X332527Y410828D01*
Y409828D01*
X332028Y409328D01*
X330028D01*
X329528Y409828D01*
Y410828D01*
X330028Y411328D01*
X332028Y412327D02*
X332527Y412827D01*
Y413827D01*
X332028Y414327D01*
X331528D01*
X331028Y413827D01*
Y413327D01*
Y413827D01*
X330528Y414327D01*
X330028D01*
X329528Y413827D01*
Y412827D01*
X330028Y412327D01*
X332527Y417326D02*
X332028Y416326D01*
X331028Y415326D01*
X330028D01*
X329528Y415826D01*
Y416826D01*
X330028Y417326D01*
X330528D01*
X331028Y416826D01*
Y415326D01*
X309499Y432999D02*
X309999Y432500D01*
Y431500D01*
X309499Y431000D01*
X307500D01*
X307000Y431500D01*
Y432500D01*
X307500Y432999D01*
X307000Y435499D02*
X309999D01*
X308500Y433999D01*
Y435998D01*
X309499Y436998D02*
X309999Y437498D01*
Y438498D01*
X309499Y438997D01*
X307500D01*
X307000Y438498D01*
Y437498D01*
X307500Y436998D01*
X309499D01*
X347999Y425999D02*
X348499Y425499D01*
Y424500D01*
X347999Y424000D01*
X346000D01*
X345500Y424500D01*
Y425499D01*
X346000Y425999D01*
X347999Y426999D02*
X348499Y427499D01*
Y428499D01*
X347999Y428998D01*
X347499D01*
X347000Y428499D01*
Y427999D01*
Y428499D01*
X346500Y428998D01*
X346000D01*
X345500Y428499D01*
Y427499D01*
X346000Y426999D01*
Y429998D02*
X345500Y430498D01*
Y431498D01*
X346000Y431997D01*
X347999D01*
X348499Y431498D01*
Y430498D01*
X347999Y429998D01*
X347499D01*
X347000Y430498D01*
Y431997D01*
X331001Y406899D02*
X331501Y407399D01*
X332500D01*
X333000Y406899D01*
Y404900D01*
X332500Y404400D01*
X331501D01*
X331001Y404900D01*
X330001Y406899D02*
X329501Y407399D01*
X328502D01*
X328002Y406899D01*
Y406399D01*
X328502Y405899D01*
X329001D01*
X328502D01*
X328002Y405400D01*
Y404900D01*
X328502Y404400D01*
X329501D01*
X330001Y404900D01*
X327002Y406899D02*
X326502Y407399D01*
X325502D01*
X325003Y406899D01*
Y406399D01*
X325502Y405899D01*
X325003Y405400D01*
Y404900D01*
X325502Y404400D01*
X326502D01*
X327002Y404900D01*
Y405400D01*
X326502Y405899D01*
X327002Y406399D01*
Y406899D01*
X326502Y405899D02*
X325502D01*
X318500Y413000D02*
Y415999D01*
X317001D01*
X316501Y415499D01*
Y414500D01*
X317001Y414000D01*
X318500D01*
X317500D02*
X316501Y413000D01*
X313502Y415999D02*
X315501D01*
Y414500D01*
X314501Y414999D01*
X314001D01*
X313502Y414500D01*
Y413500D01*
X314001Y413000D01*
X315001D01*
X315501Y413500D01*
X312502Y415999D02*
X310503D01*
Y415499D01*
X312502Y413500D01*
Y413000D01*
X349500Y417000D02*
Y419999D01*
X348001D01*
X347501Y419499D01*
Y418500D01*
X348001Y418000D01*
X349500D01*
X348500D02*
X347501Y417000D01*
X344502Y419999D02*
X346501D01*
Y418500D01*
X345501Y418999D01*
X345002D01*
X344502Y418500D01*
Y417500D01*
X345002Y417000D01*
X346001D01*
X346501Y417500D01*
X341503Y419999D02*
X343502D01*
Y418500D01*
X342502Y418999D01*
X342002D01*
X341503Y418500D01*
Y417500D01*
X342002Y417000D01*
X343002D01*
X343502Y417500D01*
X333000Y410000D02*
X335999D01*
Y411500D01*
X335499Y411999D01*
X334500D01*
X334000Y411500D01*
Y410000D01*
Y411000D02*
X333000Y411999D01*
X335999Y414998D02*
Y412999D01*
X334500D01*
X334999Y413999D01*
Y414499D01*
X334500Y414998D01*
X333500D01*
X333000Y414499D01*
Y413499D01*
X333500Y412999D01*
X333000Y417498D02*
X335999D01*
X334500Y415998D01*
Y417997D01*
X327999Y411499D02*
X328499Y410999D01*
Y410000D01*
X327999Y409500D01*
X326000D01*
X325500Y410000D01*
Y410999D01*
X326000Y411499D01*
X327999Y412499D02*
X328499Y412999D01*
Y413999D01*
X327999Y414498D01*
X327499D01*
X326999Y413999D01*
Y413499D01*
Y413999D01*
X326500Y414498D01*
X326000D01*
X325500Y413999D01*
Y412999D01*
X326000Y412499D01*
X328499Y415498D02*
Y417497D01*
X327999D01*
X326000Y415498D01*
X325500D01*
X324000Y410928D02*
X321001D01*
Y409429D01*
X321501Y408929D01*
X322500D01*
X323000Y409429D01*
Y410928D01*
Y409929D02*
X324000Y408929D01*
X321001Y405930D02*
X321501Y406930D01*
X322500Y407929D01*
X323500D01*
X324000Y407430D01*
Y406430D01*
X323500Y405930D01*
X323000D01*
X322500Y406430D01*
Y407929D01*
X321501Y404930D02*
X321001Y404430D01*
Y403431D01*
X321501Y402931D01*
X323500D01*
X324000Y403431D01*
Y404430D01*
X323500Y404930D01*
X321501D01*
X315000Y398500D02*
X317999D01*
Y399999D01*
X317499Y400499D01*
X316499D01*
X316000Y399999D01*
Y398500D01*
Y399500D02*
X315000Y400499D01*
X317999Y403498D02*
Y401499D01*
X316499D01*
X316999Y402499D01*
Y402998D01*
X316499Y403498D01*
X315500D01*
X315000Y402998D01*
Y401999D01*
X315500Y401499D01*
X317499Y404498D02*
X317999Y404998D01*
Y405998D01*
X317499Y406497D01*
X316999D01*
X316499Y405998D01*
Y405498D01*
Y405998D01*
X316000Y406497D01*
X315500D01*
X315000Y405998D01*
Y404998D01*
X315500Y404498D01*
X279834Y466666D02*
Y469332D01*
X280501Y469999D01*
X281834D01*
X282500Y469332D01*
Y466666D01*
X281834Y466000D01*
X280501D01*
X281167Y467333D02*
X279834Y466000D01*
X280501D02*
X279834Y466666D01*
X275835Y466000D02*
X278501D01*
X275835Y468666D01*
Y469332D01*
X276502Y469999D01*
X277835D01*
X278501Y469332D01*
X266500Y471000D02*
X269499D01*
Y472500D01*
X268999Y472999D01*
X268000D01*
X267500Y472500D01*
Y471000D01*
Y472000D02*
X266500Y472999D01*
X269499Y475998D02*
Y473999D01*
X268000D01*
X268499Y474999D01*
Y475498D01*
X268000Y475998D01*
X267000D01*
X266500Y475498D01*
Y474499D01*
X267000Y473999D01*
X268999Y476998D02*
X269499Y477498D01*
Y478498D01*
X268999Y478997D01*
X267000D01*
X266500Y478498D01*
Y477498D01*
X267000Y476998D01*
X268999D01*
X337500Y403500D02*
X340499D01*
Y404999D01*
X339999Y405499D01*
X339000D01*
X338500Y404999D01*
Y403500D01*
Y404500D02*
X337500Y405499D01*
X340499Y408498D02*
Y406499D01*
X339000D01*
X339499Y407499D01*
Y407999D01*
X339000Y408498D01*
X338000D01*
X337500Y407999D01*
Y406999D01*
X338000Y406499D01*
X340499Y411497D02*
X339999Y410498D01*
X339000Y409498D01*
X338000D01*
X337500Y409998D01*
Y410998D01*
X338000Y411497D01*
X338500D01*
X339000Y410998D01*
Y409498D01*
X342000Y402500D02*
X344999D01*
Y404000D01*
X344499Y404499D01*
X343499D01*
X343000Y404000D01*
Y402500D01*
Y403500D02*
X342000Y404499D01*
X344999Y407498D02*
Y405499D01*
X343499D01*
X343999Y406499D01*
Y406998D01*
X343499Y407498D01*
X342500D01*
X342000Y406998D01*
Y405999D01*
X342500Y405499D01*
X342000Y410497D02*
Y408498D01*
X343999Y410497D01*
X344499D01*
X344999Y409998D01*
Y408998D01*
X344499Y408498D01*
X243500Y352501D02*
Y356500D01*
X246166D01*
X250165Y352501D02*
X248832Y353168D01*
X247499Y354501D01*
Y355834D01*
X248165Y356500D01*
X249498D01*
X250165Y355834D01*
Y355167D01*
X249498Y354501D01*
X247499D01*
D41*
X259860Y266632D02*
G03*
X266509Y259982I3325J-3325D01*
G01*
X266632Y540140D02*
G03*
X259982Y533491I-3325J-3325D01*
G01*
X395212Y206501D02*
G03*
X404615Y206501I4702J0D01*
G01*
X236378Y477129D02*
G03*
X230049Y461852I-3164J-7639D01*
G01*
X229883Y338608D02*
G03*
X236211Y323331I3164J-7639D01*
G01*
X323171Y236278D02*
G03*
X338448Y229949I7639J-3164D01*
G01*
X461392Y229883D02*
G03*
X476669Y236211I7639J3164D01*
G01*
X563723Y323171D02*
G03*
X570051Y338448I3164J7639D01*
G01*
X570117Y461392D02*
G03*
X563789Y476669I-3164J7639D01*
G01*
X476829Y563723D02*
G03*
X461552Y570051I-7639J3164D01*
G01*
X404788Y593499D02*
G03*
X395385Y593499I-4702J0D01*
G01*
X533368Y259860D02*
G03*
X540018Y266509I3325J3325D01*
G01*
X593499Y395212D02*
G03*
X593499Y404615I0J4702D01*
G01*
X540140Y533368D02*
G03*
X533491Y540018I-3325J3325D01*
G01*
X261925Y502000D02*
G03*
X261925Y502000I-9925J0D01*
G01*
X557925D02*
G03*
X557925Y502000I-9925J0D01*
G01*
X261925Y298000D02*
G03*
X261925Y298000I-9925J0D01*
G01*
X322935Y257599D02*
G03*
X325000Y255534I2065J0D01*
G01*
X342913D02*
G03*
X344978Y257599I0J2065D01*
G01*
X324999Y274625D02*
G03*
X322934Y272560I0J-2065D01*
G01*
X338608Y570117D02*
G03*
X323331Y563789I-7639J-3164D01*
G01*
X206501Y404788D02*
G03*
X206501Y395385I0J-4702D01*
G01*
X557925Y298000D02*
G03*
X557925Y298000I-9925J0D01*
G01*
X482520Y469774D02*
Y487324D01*
Y469774D02*
X509426D01*
Y487324D01*
X482520D02*
X509426D01*
X270528Y256386D02*
X279014Y264872D01*
X264872Y279014D02*
X279014Y264872D01*
X256386Y270528D02*
X264872Y279014D01*
X256386Y270528D02*
X270528Y256386D01*
X256386Y529472D02*
X264872Y520986D01*
X279014Y535128D01*
X270528Y543614D02*
X279014Y535128D01*
X256386Y529472D02*
X270528Y543614D01*
X410000Y206800D02*
Y218800D01*
X390000D02*
X410000D01*
X390000Y206800D02*
Y218800D01*
Y206800D02*
X410000D01*
X227440Y455552D02*
X238803Y450846D01*
X250284Y478562D01*
X227440Y455552D02*
X238905Y483232D01*
X238957Y483254D01*
X250284Y478562D01*
X238821Y317031D02*
X250184Y321738D01*
X238703Y349454D02*
X250184Y321738D01*
X227355Y344711D02*
X238821Y317031D01*
X227355Y344711D02*
X227376Y344763D01*
X238703Y349454D01*
X344748Y227340D02*
X349454Y238703D01*
X321738Y250184D02*
X349454Y238703D01*
X317068Y238805D02*
X344748Y227340D01*
X317046Y238857D02*
X317068Y238805D01*
X317046Y238857D02*
X321738Y250184D01*
X478262Y250184D02*
X482969Y238821D01*
X450546Y238703D02*
X478262Y250184D01*
X455289Y227355D02*
X482969Y238821D01*
X455237Y227376D02*
X455289Y227355D01*
X450546Y238703D02*
X455237Y227376D01*
X561297Y349454D02*
X572660Y344748D01*
X549816Y321738D02*
X561297Y349454D01*
X561195Y317068D02*
X572660Y344748D01*
X561143Y317046D02*
X561195Y317068D01*
X549816Y321738D02*
X561143Y317046D01*
X549816Y478262D02*
X561179Y482969D01*
X549816Y478262D02*
X561297Y450546D01*
X561179Y482969D02*
X572645Y455289D01*
X572624Y455237D02*
X572645Y455289D01*
X561297Y450546D02*
X572624Y455237D01*
X450546Y561297D02*
X455252Y572660D01*
X450546Y561297D02*
X478262Y549816D01*
X455252Y572660D02*
X482932Y561195D01*
X482954Y561143D01*
X478262Y549816D02*
X482954Y561143D01*
X390000Y581200D02*
Y593200D01*
Y581200D02*
X410000D01*
Y593200D01*
X390000D02*
X410000D01*
X535128Y279014D02*
X543614Y270528D01*
X520986Y264872D02*
X535128Y279014D01*
X520986Y264872D02*
X529472Y256386D01*
X543614Y270528D01*
X581200Y410000D02*
X593200D01*
X581200Y390000D02*
Y410000D01*
Y390000D02*
X593200D01*
Y410000D01*
X520986Y535128D02*
X529472Y543614D01*
X520986Y535128D02*
X535128Y520986D01*
X543614Y529472D01*
X529472Y543614D02*
X543614Y529472D01*
X320100Y490700D02*
X345800D01*
X320100D02*
Y507300D01*
X345800D01*
Y490700D02*
Y507300D01*
X335300Y532277D02*
X352800D01*
X335300Y509049D02*
X352800D01*
X352824Y509600D02*
Y532100D01*
X335107Y509600D02*
Y532100D01*
X330326Y523000D02*
X333200D01*
X331800Y521400D02*
Y524400D01*
X333800Y521600D02*
X334800D01*
X333800Y519600D02*
Y521600D01*
Y519600D02*
X334800D01*
X249520Y398093D02*
Y415643D01*
Y398093D02*
X276426D01*
Y415643D01*
X249520D02*
X276426D01*
X317031Y561179D02*
X321738Y549816D01*
X349454Y561297D01*
X317031Y561179D02*
X344711Y572645D01*
X344763Y572624D01*
X349454Y561297D01*
X365200Y534402D02*
Y534702D01*
X206800Y390000D02*
X218800D01*
Y410000D01*
X206800D02*
X218800D01*
X206800Y390000D02*
Y410000D01*
X527834Y422832D02*
X528501Y423499D01*
X529834D01*
X530500Y422832D01*
Y420166D01*
X529834Y419500D01*
X528501D01*
X527834Y420166D01*
X524502Y419500D02*
Y423499D01*
X526501Y421499D01*
X523836D01*
X519837Y423499D02*
X522503D01*
Y421499D01*
X521170Y422166D01*
X520503D01*
X519837Y421499D01*
Y420166D01*
X520503Y419500D01*
X521836D01*
X522503Y420166D01*
X295266Y452568D02*
X294599Y451901D01*
X293266D01*
X292600Y452568D01*
Y455234D01*
X293266Y455900D01*
X294599D01*
X295266Y455234D01*
X298598Y455900D02*
Y451901D01*
X296599Y453901D01*
X299265D01*
X300597Y455234D02*
X301264Y455900D01*
X302597D01*
X303263Y455234D01*
Y452568D01*
X302597Y451901D01*
X301264D01*
X300597Y452568D01*
Y453234D01*
X301264Y453901D01*
X303263D01*
X530500Y426500D02*
Y430999D01*
X528251D01*
X527501Y430249D01*
Y428749D01*
X528251Y427999D01*
X530500D01*
X529001D02*
X527501Y426500D01*
X523002Y430999D02*
X524502Y430249D01*
X526002Y428749D01*
Y427250D01*
X525252Y426500D01*
X523752D01*
X523002Y427250D01*
Y427999D01*
X523752Y428749D01*
X526002D01*
X521503Y430249D02*
X520753Y430999D01*
X519254D01*
X518504Y430249D01*
Y429499D01*
X519254Y428749D01*
X520003D01*
X519254D01*
X518504Y427999D01*
Y427250D01*
X519254Y426500D01*
X520753D01*
X521503Y427250D01*
X556000Y376500D02*
X560499D01*
Y378749D01*
X559749Y379499D01*
X558249D01*
X557500Y378749D01*
Y376500D01*
Y377999D02*
X556000Y379499D01*
Y380998D02*
Y382498D01*
Y381748D01*
X560499D01*
X559749Y380998D01*
X556000Y384747D02*
Y386247D01*
Y385497D01*
X560499D01*
X559749Y384747D01*
X340500Y291498D02*
Y285500D01*
X337501D01*
X336501Y286500D01*
Y290498D01*
X337501Y291498D01*
X340500D01*
X331503Y285500D02*
Y291498D01*
X334502Y288499D01*
X330503D01*
X370500Y260000D02*
Y263999D01*
X368501D01*
X367834Y263332D01*
Y261999D01*
X368501Y261333D01*
X370500D01*
X369167D02*
X367834Y260000D01*
X366501D02*
X365168D01*
X365835D01*
Y263999D01*
X366501Y263332D01*
X361170Y260000D02*
Y263999D01*
X363169Y261999D01*
X360503D01*
X461600Y275700D02*
Y280199D01*
X459351D01*
X458601Y279449D01*
Y277949D01*
X459351Y277200D01*
X461600D01*
X460101D02*
X458601Y275700D01*
X457101D02*
X455602D01*
X456352D01*
Y280199D01*
X457101Y279449D01*
X453353Y276450D02*
X452603Y275700D01*
X451103D01*
X450354Y276450D01*
Y279449D01*
X451103Y280199D01*
X452603D01*
X453353Y279449D01*
Y278699D01*
X452603Y277949D01*
X450354D01*
X437000Y283998D02*
Y279500D01*
X434751D01*
X434001Y280250D01*
Y283249D01*
X434751Y283998D01*
X437000D01*
X429502D02*
X431002Y283249D01*
X432502Y281749D01*
Y280250D01*
X431752Y279500D01*
X430252D01*
X429502Y280250D01*
Y280999D01*
X430252Y281749D01*
X432502D01*
X271000Y357181D02*
X266501D01*
Y354932D01*
X267251Y354182D01*
X268751D01*
X269500Y354932D01*
Y357181D01*
Y355682D02*
X271000Y354182D01*
Y350433D02*
X266501D01*
X268751Y352682D01*
Y349683D01*
X266501Y348184D02*
Y345185D01*
X267251D01*
X270250Y348184D01*
X271000D01*
X278500Y477498D02*
Y473750D01*
X277750Y473000D01*
X276251D01*
X275501Y473750D01*
Y477498D01*
X274002Y473750D02*
X273252Y473000D01*
X271752D01*
X271002Y473750D01*
Y476749D01*
X271752Y477498D01*
X273252D01*
X274002Y476749D01*
Y475999D01*
X273252Y475249D01*
X271002D01*
X362501Y478749D02*
X363251Y479498D01*
X364750D01*
X365500Y478749D01*
Y475750D01*
X364750Y475000D01*
X363251D01*
X362501Y475750D01*
X361001Y478749D02*
X360252Y479498D01*
X358752D01*
X358002Y478749D01*
Y477999D01*
X358752Y477249D01*
X359502D01*
X358752D01*
X358002Y476500D01*
Y475750D01*
X358752Y475000D01*
X360252D01*
X361001Y475750D01*
X356503Y475000D02*
X355003D01*
X355753D01*
Y479498D01*
X356503Y478749D01*
X323002Y522001D02*
Y523500D01*
Y522751D01*
X326750D01*
X327500Y523500D01*
Y524250D01*
X326750Y525000D01*
X327500Y520502D02*
Y519002D01*
Y519752D01*
X323002D01*
X323751Y520502D01*
X327500Y516753D02*
Y515253D01*
Y516003D01*
X323002D01*
X323751Y516753D01*
X370000Y507499D02*
X367001Y503000D01*
Y507499D02*
X370000Y503000D01*
X365501Y507499D02*
X362502D01*
X364002D01*
Y503000D01*
X361003D02*
Y505999D01*
X359503Y507499D01*
X358004Y505999D01*
Y503000D01*
Y505249D01*
X361003D01*
X356504Y507499D02*
Y503000D01*
X353505D01*
X352006Y506749D02*
X351256Y507499D01*
X349757D01*
X349007Y506749D01*
Y505999D01*
X349757Y505249D01*
X350506D01*
X349757D01*
X349007Y504499D01*
Y503750D01*
X349757Y503000D01*
X351256D01*
X352006Y503750D01*
X329000Y467899D02*
Y464150D01*
X328250Y463400D01*
X326751D01*
X326001Y464150D01*
Y467899D01*
X324501D02*
X321502D01*
Y467149D01*
X324501Y464150D01*
Y463400D01*
X514500Y449000D02*
Y453499D01*
X512251D01*
X511501Y452749D01*
Y451249D01*
X512251Y450499D01*
X514500D01*
X513000D02*
X511501Y449000D01*
X510002Y452749D02*
X509252Y453499D01*
X507752D01*
X507002Y452749D01*
Y451999D01*
X507752Y451249D01*
X508502D01*
X507752D01*
X507002Y450499D01*
Y449750D01*
X507752Y449000D01*
X509252D01*
X510002Y449750D01*
X510001Y416749D02*
X510751Y417498D01*
X512250D01*
X513000Y416749D01*
Y413750D01*
X512250Y413000D01*
X510751D01*
X510001Y413750D01*
X508501Y416749D02*
X507752Y417498D01*
X506252D01*
X505502Y416749D01*
Y415999D01*
X506252Y415249D01*
X505502Y414500D01*
Y413750D01*
X506252Y413000D01*
X507752D01*
X508501Y413750D01*
Y414500D01*
X507752Y415249D01*
X508501Y415999D01*
Y416749D01*
X507752Y415249D02*
X506252D01*
X477249Y386499D02*
X477998Y385749D01*
Y384250D01*
X477249Y383500D01*
X474250D01*
X473500Y384250D01*
Y385749D01*
X474250Y386499D01*
X477998Y390998D02*
X477249Y389498D01*
X475749Y387999D01*
X474250D01*
X473500Y388748D01*
Y390248D01*
X474250Y390998D01*
X475000D01*
X475749Y390248D01*
Y387999D01*
X437000Y402199D02*
Y398450D01*
X436250Y397700D01*
X434751D01*
X434001Y398450D01*
Y402199D01*
X432502Y397700D02*
X431002D01*
X431752D01*
Y402199D01*
X432502Y401449D01*
X380300Y279099D02*
Y275350D01*
X379550Y274600D01*
X378051D01*
X377301Y275350D01*
Y279099D01*
X375801Y278349D02*
X375052Y279099D01*
X373552D01*
X372802Y278349D01*
Y277599D01*
X373552Y276849D01*
X374302D01*
X373552D01*
X372802Y276099D01*
Y275350D01*
X373552Y274600D01*
X375052D01*
X375801Y275350D01*
X397000Y417500D02*
Y421999D01*
X394751D01*
X394001Y421249D01*
Y419749D01*
X394751Y418999D01*
X397000D01*
X395500D02*
X394001Y417500D01*
X392501Y421249D02*
X391752Y421999D01*
X390252D01*
X389502Y421249D01*
Y420499D01*
X390252Y419749D01*
X391002D01*
X390252D01*
X389502Y418999D01*
Y418250D01*
X390252Y417500D01*
X391752D01*
X392501Y418250D01*
X388003Y417500D02*
X386503D01*
X387253D01*
Y421999D01*
X388003Y421249D01*
X413000Y388500D02*
Y392999D01*
X410751D01*
X410001Y392249D01*
Y390749D01*
X410751Y390000D01*
X413000D01*
X411501D02*
X410001Y388500D01*
X408501Y392249D02*
X407752Y392999D01*
X406252D01*
X405502Y392249D01*
Y391499D01*
X406252Y390749D01*
X407002D01*
X406252D01*
X405502Y390000D01*
Y389250D01*
X406252Y388500D01*
X407752D01*
X408501Y389250D01*
X404003Y392249D02*
X403253Y392999D01*
X401754D01*
X401004Y392249D01*
Y389250D01*
X401754Y388500D01*
X403253D01*
X404003Y389250D01*
Y392249D01*
X413000Y417500D02*
Y421999D01*
X410751D01*
X410001Y421249D01*
Y419749D01*
X410751Y418999D01*
X413000D01*
X411501D02*
X410001Y417500D01*
X405502D02*
X408501D01*
X405502Y420499D01*
Y421249D01*
X406252Y421999D01*
X407752D01*
X408501Y421249D01*
X404003Y418250D02*
X403253Y417500D01*
X401754D01*
X401004Y418250D01*
Y421249D01*
X401754Y421999D01*
X403253D01*
X404003Y421249D01*
Y420499D01*
X403253Y419749D01*
X401004D01*
X394500Y388500D02*
Y392999D01*
X392251D01*
X391501Y392249D01*
Y390749D01*
X392251Y390000D01*
X394500D01*
X393001D02*
X391501Y388500D01*
X387002D02*
X390002D01*
X387002Y391499D01*
Y392249D01*
X387752Y392999D01*
X389252D01*
X390002Y392249D01*
X385503D02*
X384753Y392999D01*
X383254D01*
X382504Y392249D01*
Y391499D01*
X383254Y390749D01*
X382504Y390000D01*
Y389250D01*
X383254Y388500D01*
X384753D01*
X385503Y389250D01*
Y390000D01*
X384753Y390749D01*
X385503Y391499D01*
Y392249D01*
X384753Y390749D02*
X383254D01*
X383000Y403000D02*
Y407499D01*
X380751D01*
X380001Y406749D01*
Y405249D01*
X380751Y404499D01*
X383000D01*
X381501D02*
X380001Y403000D01*
X378502Y406749D02*
X377752Y407499D01*
X376252D01*
X375502Y406749D01*
Y405999D01*
X376252Y405249D01*
X377002D01*
X376252D01*
X375502Y404499D01*
Y403750D01*
X376252Y403000D01*
X377752D01*
X378502Y403750D01*
X371004Y403000D02*
X374003D01*
X371004Y405999D01*
Y406749D01*
X371754Y407499D01*
X373253D01*
X374003Y406749D01*
X367000Y232500D02*
X371498D01*
Y234749D01*
X370749Y235499D01*
X369249D01*
X368499Y234749D01*
Y232500D01*
Y233999D02*
X367000Y235499D01*
Y236999D02*
Y238498D01*
Y237748D01*
X371498D01*
X370749Y236999D01*
X371498Y240747D02*
Y243746D01*
X370749D01*
X367750Y240747D01*
X367000D01*
X372998Y232500D02*
X377497D01*
Y234749D01*
X376747Y235499D01*
X375248D01*
X374498Y234749D01*
Y232500D01*
Y233999D02*
X372998Y235499D01*
Y236999D02*
Y238498D01*
Y237748D01*
X377497D01*
X376747Y236999D01*
X377497Y243746D02*
X376747Y242247D01*
X375248Y240747D01*
X373748D01*
X372998Y241497D01*
Y242997D01*
X373748Y243746D01*
X374498D01*
X375248Y242997D01*
Y240747D01*
X508001Y441249D02*
X508751Y441998D01*
X510250D01*
X511000Y441249D01*
Y438250D01*
X510250Y437500D01*
X508751D01*
X508001Y438250D01*
X504252Y437500D02*
Y441998D01*
X506501Y439749D01*
X503502D01*
X426401Y430549D02*
X427151Y431298D01*
X428650D01*
X429400Y430549D01*
Y427550D01*
X428650Y426800D01*
X427151D01*
X426401Y427550D01*
X424901Y430549D02*
X424152Y431298D01*
X422652D01*
X421902Y430549D01*
Y429799D01*
X422652Y429049D01*
X423402D01*
X422652D01*
X421902Y428300D01*
Y427550D01*
X422652Y426800D01*
X424152D01*
X424901Y427550D01*
X230000Y436500D02*
X234499D01*
Y438749D01*
X233749Y439499D01*
X232249D01*
X231500Y438749D01*
Y436500D01*
Y437999D02*
X230000Y439499D01*
Y443998D02*
Y440999D01*
X232999Y443998D01*
X233749D01*
X234499Y443248D01*
Y441748D01*
X233749Y440999D01*
X250000Y437000D02*
X254499D01*
Y439249D01*
X253749Y439999D01*
X252249D01*
X251500Y439249D01*
Y437000D01*
Y438499D02*
X250000Y439999D01*
Y441499D02*
Y442998D01*
Y442248D01*
X254499D01*
X253749Y441499D01*
X285000Y299500D02*
Y303998D01*
X282751D01*
X282001Y303249D01*
Y301749D01*
X282751Y300999D01*
X285000D01*
X283501D02*
X282001Y299500D01*
X278252D02*
Y303998D01*
X280502Y301749D01*
X277502D01*
X276003Y303249D02*
X275253Y303998D01*
X273754D01*
X273004Y303249D01*
Y300250D01*
X273754Y299500D01*
X275253D01*
X276003Y300250D01*
Y303249D01*
X269000Y503500D02*
X273499D01*
Y505749D01*
X272749Y506499D01*
X271249D01*
X270499Y505749D01*
Y503500D01*
Y504999D02*
X269000Y506499D01*
X272749Y507999D02*
X273499Y508748D01*
Y510248D01*
X272749Y510998D01*
X271999D01*
X271249Y510248D01*
Y509498D01*
Y510248D01*
X270499Y510998D01*
X269750D01*
X269000Y510248D01*
Y508748D01*
X269750Y507999D01*
X273499Y515496D02*
X272749Y513997D01*
X271249Y512497D01*
X269750D01*
X269000Y513247D01*
Y514746D01*
X269750Y515496D01*
X270499D01*
X271249Y514746D01*
Y512497D01*
X348998Y280500D02*
X344500D01*
Y283499D01*
Y284998D02*
Y286498D01*
Y285748D01*
X348998D01*
X348249Y284998D01*
X505700Y493298D02*
X502701Y488800D01*
Y493298D02*
X505700Y488800D01*
X501201Y493298D02*
X498202D01*
X499702D01*
Y488800D01*
X496703D02*
Y491799D01*
X495203Y493298D01*
X493704Y491799D01*
Y488800D01*
Y491049D01*
X496703D01*
X492204Y493298D02*
Y488800D01*
X489205D01*
X487706D02*
X486206D01*
X486956D01*
Y493298D01*
X487706Y492549D01*
X549800Y376200D02*
X554298D01*
Y378449D01*
X553549Y379199D01*
X552049D01*
X551299Y378449D01*
Y376200D01*
Y377699D02*
X549800Y379199D01*
Y380698D02*
Y382198D01*
Y381448D01*
X554298D01*
X553549Y380698D01*
Y384447D02*
X554298Y385197D01*
Y386697D01*
X553549Y387446D01*
X550550D01*
X549800Y386697D01*
Y385197D01*
X550550Y384447D01*
X553549D01*
X545400Y354300D02*
X549898D01*
Y356549D01*
X549149Y357299D01*
X547649D01*
X546900Y356549D01*
Y354300D01*
Y355800D02*
X545400Y357299D01*
X546150Y358799D02*
X545400Y359548D01*
Y361048D01*
X546150Y361798D01*
X549149D01*
X549898Y361048D01*
Y359548D01*
X549149Y358799D01*
X548399D01*
X547649Y359548D01*
Y361798D01*
X540400Y376700D02*
X544899D01*
Y378949D01*
X544149Y379699D01*
X542649D01*
X541899Y378949D01*
Y376700D01*
Y378200D02*
X540400Y379699D01*
X544149Y381199D02*
X544899Y381948D01*
Y383448D01*
X544149Y384198D01*
X543399D01*
X542649Y383448D01*
X541899Y384198D01*
X541150D01*
X540400Y383448D01*
Y381948D01*
X541150Y381199D01*
X541899D01*
X542649Y381948D01*
X543399Y381199D01*
X544149D01*
X542649Y381948D02*
Y383448D01*
X535400Y357600D02*
X539898D01*
Y359849D01*
X539149Y360599D01*
X537649D01*
X536900Y359849D01*
Y357600D01*
Y359100D02*
X535400Y360599D01*
X539898Y362099D02*
Y365098D01*
X539149D01*
X536150Y362099D01*
X535400D01*
X458500Y255000D02*
Y259499D01*
X456251D01*
X455501Y258749D01*
Y257249D01*
X456251Y256500D01*
X458500D01*
X457000D02*
X455501Y255000D01*
X451002Y259499D02*
X454002D01*
Y257249D01*
X452502Y257999D01*
X451752D01*
X451002Y257249D01*
Y255750D01*
X451752Y255000D01*
X453252D01*
X454002Y255750D01*
X450601Y475049D02*
X451351Y475799D01*
X452850D01*
X453600Y475049D01*
Y472050D01*
X452850Y471300D01*
X451351D01*
X450601Y472050D01*
X449101Y475799D02*
X446102D01*
Y475049D01*
X449101Y472050D01*
Y471300D01*
X428101Y452949D02*
X428851Y453698D01*
X430350D01*
X431100Y452949D01*
Y449950D01*
X430350Y449200D01*
X428851D01*
X428101Y449950D01*
X423602Y453698D02*
X426602D01*
Y451449D01*
X425102Y452199D01*
X424352D01*
X423602Y451449D01*
Y449950D01*
X424352Y449200D01*
X425852D01*
X426602Y449950D01*
X354501Y247749D02*
X355251Y248499D01*
X356750D01*
X357500Y247749D01*
Y244750D01*
X356750Y244000D01*
X355251D01*
X354501Y244750D01*
X353001D02*
X352252Y244000D01*
X350752D01*
X350002Y244750D01*
Y247749D01*
X350752Y248499D01*
X352252D01*
X353001Y247749D01*
Y246999D01*
X352252Y246249D01*
X350002D01*
X233001Y387000D02*
X236750D01*
X237500Y386250D01*
Y384751D01*
X236750Y384001D01*
X233001D01*
Y379502D02*
X233751Y381002D01*
X235251Y382502D01*
X236750D01*
X237500Y381752D01*
Y380252D01*
X236750Y379502D01*
X236000D01*
X235251Y380252D01*
Y382502D01*
X474501Y482249D02*
X475251Y482999D01*
X476750D01*
X477500Y482249D01*
Y479250D01*
X476750Y478500D01*
X475251D01*
X474501Y479250D01*
X473001Y478500D02*
X471502D01*
X472252D01*
Y482999D01*
X473001Y482249D01*
X519001Y473749D02*
X519751Y474499D01*
X521250D01*
X522000Y473749D01*
Y470750D01*
X521250Y470000D01*
X519751D01*
X519001Y470750D01*
X514502Y470000D02*
X517501D01*
X514502Y472999D01*
Y473749D01*
X515252Y474499D01*
X516752D01*
X517501Y473749D01*
X402001Y407750D02*
Y410749D01*
X402751Y411498D01*
X404250D01*
X405000Y410749D01*
Y407750D01*
X404250Y407000D01*
X402751D01*
X403501Y408499D02*
X402001Y407000D01*
X402751D02*
X402001Y407750D01*
X400501Y407000D02*
X399002D01*
X399752D01*
Y411498D01*
X400501Y410749D01*
X470500Y383000D02*
Y387498D01*
X468251D01*
X467501Y386749D01*
Y385249D01*
X468251Y384500D01*
X470500D01*
X469000D02*
X467501Y383000D01*
X463752D02*
Y387498D01*
X466002Y385249D01*
X463002D01*
X411000Y395000D02*
X415498D01*
Y397249D01*
X414749Y397999D01*
X413249D01*
X412500Y397249D01*
Y395000D01*
Y396499D02*
X411000Y397999D01*
X414749Y399499D02*
X415498Y400248D01*
Y401748D01*
X414749Y402498D01*
X413999D01*
X413249Y401748D01*
Y400998D01*
Y401748D01*
X412500Y402498D01*
X411750D01*
X411000Y401748D01*
Y400248D01*
X411750Y399499D01*
X414749Y403997D02*
X415498Y404747D01*
Y406246D01*
X414749Y406996D01*
X413999D01*
X413249Y406246D01*
Y405497D01*
Y406246D01*
X412500Y406996D01*
X411750D01*
X411000Y406246D01*
Y404747D01*
X411750Y403997D01*
X389501Y241249D02*
X390251Y241999D01*
X391750D01*
X392500Y241249D01*
Y238250D01*
X391750Y237500D01*
X390251D01*
X389501Y238250D01*
X388001Y237500D02*
X386502D01*
X387252D01*
Y241999D01*
X388001Y241249D01*
X384253D02*
X383503Y241999D01*
X382003D01*
X381254Y241249D01*
Y238250D01*
X382003Y237500D01*
X383503D01*
X384253Y238250D01*
Y241249D01*
X430000Y249000D02*
Y253499D01*
X427751D01*
X427001Y252749D01*
Y251249D01*
X427751Y250500D01*
X430000D01*
X428501D02*
X427001Y249000D01*
X425501D02*
X424002D01*
X424752D01*
Y253499D01*
X425501Y252749D01*
X418754Y249000D02*
X421753D01*
X418754Y251999D01*
Y252749D01*
X419503Y253499D01*
X421003D01*
X421753Y252749D01*
X355601Y543798D02*
X357101D01*
X356351D01*
Y540050D01*
X357101Y539300D01*
X357850D01*
X358600Y540050D01*
X351852Y539300D02*
Y543798D01*
X354101Y541549D01*
X351102D01*
X432000Y256000D02*
Y260498D01*
X429751D01*
X429001Y259749D01*
Y258249D01*
X429751Y257500D01*
X432000D01*
X430501D02*
X429001Y256000D01*
X427501D02*
X426002D01*
X426752D01*
Y260498D01*
X427501Y259749D01*
X420754Y260498D02*
X423753D01*
Y258249D01*
X422253Y258999D01*
X421503D01*
X420754Y258249D01*
Y256750D01*
X421503Y256000D01*
X423003D01*
X423753Y256750D01*
X311376Y505126D02*
X310627Y505876D01*
Y507375D01*
X311376Y508125D01*
X314375D01*
X315125Y507375D01*
Y505876D01*
X314375Y505126D01*
X311376Y503626D02*
X310627Y502877D01*
Y501377D01*
X311376Y500627D01*
X312126D01*
X312876Y501377D01*
Y502127D01*
Y501377D01*
X313626Y500627D01*
X314375D01*
X315125Y501377D01*
Y502877D01*
X314375Y503626D01*
X311376Y499128D02*
X310627Y498378D01*
Y496879D01*
X311376Y496129D01*
X314375D01*
X315125Y496879D01*
Y498378D01*
X314375Y499128D01*
X311376D01*
X347001Y488249D02*
X347751Y488999D01*
X349250D01*
X350000Y488249D01*
Y485250D01*
X349250Y484500D01*
X347751D01*
X347001Y485250D01*
X345501Y488249D02*
X344752Y488999D01*
X343252D01*
X342502Y488249D01*
Y487499D01*
X343252Y486749D01*
X344002D01*
X343252D01*
X342502Y485999D01*
Y485250D01*
X343252Y484500D01*
X344752D01*
X345501Y485250D01*
X341003Y488249D02*
X340253Y488999D01*
X338754D01*
X338004Y488249D01*
Y487499D01*
X338754Y486749D01*
X339503D01*
X338754D01*
X338004Y485999D01*
Y485250D01*
X338754Y484500D01*
X340253D01*
X341003Y485250D01*
X326500Y484200D02*
Y488698D01*
X324251D01*
X323501Y487949D01*
Y486449D01*
X324251Y485700D01*
X326500D01*
X325001D02*
X323501Y484200D01*
X319752D02*
Y488698D01*
X322002Y486449D01*
X319002D01*
X317503Y484950D02*
X316753Y484200D01*
X315254D01*
X314504Y484950D01*
Y487949D01*
X315254Y488698D01*
X316753D01*
X317503Y487949D01*
Y487199D01*
X316753Y486449D01*
X314504D01*
X373500Y357500D02*
Y361999D01*
X371251D01*
X370501Y361249D01*
Y359749D01*
X371251Y358999D01*
X373500D01*
X372001D02*
X370501Y357500D01*
X369002Y361249D02*
X368252Y361999D01*
X366752D01*
X366002Y361249D01*
Y360499D01*
X366752Y359749D01*
X367502D01*
X366752D01*
X366002Y358999D01*
Y358250D01*
X366752Y357500D01*
X368252D01*
X369002Y358250D01*
X361504Y361999D02*
X364503D01*
Y359749D01*
X363003Y360499D01*
X362254D01*
X361504Y359749D01*
Y358250D01*
X362254Y357500D01*
X363753D01*
X364503Y358250D01*
X355249Y491999D02*
X355998Y491249D01*
Y489750D01*
X355249Y489000D01*
X352250D01*
X351500Y489750D01*
Y491249D01*
X352250Y491999D01*
X351500Y496498D02*
Y493499D01*
X354499Y496498D01*
X355249D01*
X355998Y495748D01*
Y494248D01*
X355249Y493499D01*
X352250Y497997D02*
X351500Y498747D01*
Y500246D01*
X352250Y500996D01*
X355249D01*
X355998Y500246D01*
Y498747D01*
X355249Y497997D01*
X354499D01*
X353749Y498747D01*
Y500996D01*
X492800Y512000D02*
Y516499D01*
X490551D01*
X489801Y515749D01*
Y514249D01*
X490551Y513499D01*
X492800D01*
X491300D02*
X489801Y512000D01*
X485302Y516499D02*
X486802Y515749D01*
X488302Y514249D01*
Y512750D01*
X487552Y512000D01*
X486052D01*
X485302Y512750D01*
Y513499D01*
X486052Y514249D01*
X488302D01*
X429900Y266600D02*
Y271098D01*
X427651D01*
X426901Y270349D01*
Y268849D01*
X427651Y268099D01*
X429900D01*
X428401D02*
X426901Y266600D01*
X425401D02*
X423902D01*
X424652D01*
Y271098D01*
X425401Y270349D01*
X421653D02*
X420903Y271098D01*
X419403D01*
X418654Y270349D01*
Y269599D01*
X419403Y268849D01*
X418654Y268099D01*
Y267350D01*
X419403Y266600D01*
X420903D01*
X421653Y267350D01*
Y268099D01*
X420903Y268849D01*
X421653Y269599D01*
Y270349D01*
X420903Y268849D02*
X419403D01*
X381000Y342699D02*
Y338950D01*
X380250Y338200D01*
X378751D01*
X378001Y338950D01*
Y342699D01*
X373502D02*
X376501D01*
Y340449D01*
X375002Y341199D01*
X374252D01*
X373502Y340449D01*
Y338950D01*
X374252Y338200D01*
X375752D01*
X376501Y338950D01*
X457700Y265399D02*
Y260900D01*
X455451D01*
X454701Y261650D01*
Y264649D01*
X455451Y265399D01*
X457700D01*
X450202D02*
X453201D01*
Y263149D01*
X451702Y263899D01*
X450952D01*
X450202Y263149D01*
Y261650D01*
X450952Y260900D01*
X452452D01*
X453201Y261650D01*
X468800Y527298D02*
Y523550D01*
X468050Y522800D01*
X466551D01*
X465801Y523550D01*
Y527298D01*
X461302Y522800D02*
X464301D01*
X461302Y525799D01*
Y526549D01*
X462052Y527298D01*
X463552D01*
X464301Y526549D01*
X485300Y373599D02*
Y369850D01*
X484550Y369100D01*
X483051D01*
X482301Y369850D01*
Y373599D01*
X478552Y369100D02*
Y373599D01*
X480801Y371349D01*
X477802D01*
X462500Y271098D02*
Y266600D01*
X460251D01*
X459501Y267350D01*
Y270349D01*
X460251Y271098D01*
X462500D01*
X458002D02*
X455002D01*
Y270349D01*
X458002Y267350D01*
Y266600D01*
X291000Y436498D02*
Y431500D01*
X290000Y430500D01*
X288001D01*
X287001Y431500D01*
Y436498D01*
X285002Y435498D02*
X284002Y436498D01*
X282003D01*
X281003Y435498D01*
Y434499D01*
X282003Y433499D01*
X281003Y432499D01*
Y431500D01*
X282003Y430500D01*
X284002D01*
X285002Y431500D01*
Y432499D01*
X284002Y433499D01*
X285002Y434499D01*
Y435498D01*
X284002Y433499D02*
X282003D01*
X504500Y398500D02*
Y402998D01*
X502251D01*
X501501Y402249D01*
Y400749D01*
X502251Y399999D01*
X504500D01*
X503000D02*
X501501Y398500D01*
X497752D02*
Y402998D01*
X500001Y400749D01*
X497002D01*
X492504Y398500D02*
X495503D01*
X492504Y401499D01*
Y402249D01*
X493254Y402998D01*
X494753D01*
X495503Y402249D01*
X358498Y278499D02*
Y274500D01*
X355499D01*
Y276499D01*
Y274500D01*
X352500D01*
Y280498D02*
Y282497D01*
Y281498D01*
X358498D01*
X357498Y280498D01*
X203400Y615098D02*
Y609100D01*
Y612099D01*
X199401D01*
Y615098D01*
Y609100D01*
X197402D02*
X195403D01*
X196402D01*
Y615098D01*
X197402Y614098D01*
X605900Y190398D02*
Y184400D01*
Y187399D01*
X601901D01*
Y190398D01*
Y184400D01*
X596903D02*
Y190398D01*
X599902Y187399D01*
X595903D01*
X438100Y464049D02*
X437350Y464798D01*
X435851D01*
X435101Y464049D01*
Y463299D01*
X435851Y462549D01*
X435101Y461799D01*
Y461050D01*
X435851Y460300D01*
X437350D01*
X438100Y461050D01*
Y461799D01*
X437350Y462549D01*
X438100Y463299D01*
Y464049D01*
X437350Y462549D02*
X435851D01*
X433602Y461050D02*
X432852Y460300D01*
X431352D01*
X430602Y461050D01*
Y464049D01*
X431352Y464798D01*
X432852D01*
X433602Y464049D01*
Y463299D01*
X432852Y462549D01*
X430602D01*
X426104Y464798D02*
X427603Y464049D01*
X429103Y462549D01*
Y461050D01*
X428353Y460300D01*
X426854D01*
X426104Y461050D01*
Y461799D01*
X426854Y462549D01*
X429103D01*
X421605Y460300D02*
X424604D01*
X421605Y463299D01*
Y464049D01*
X422355Y464798D01*
X423855D01*
X424604Y464049D01*
X420106Y462549D02*
X417107D01*
X412608Y464049D02*
X413358Y464798D01*
X414857D01*
X415607Y464049D01*
Y461050D01*
X414857Y460300D01*
X413358D01*
X412608Y461050D01*
X411109Y460300D02*
Y464798D01*
X408859D01*
X408110Y464049D01*
Y462549D01*
X408859Y461799D01*
X411109D01*
X406610Y464798D02*
Y461050D01*
X405860Y460300D01*
X404361D01*
X403611Y461050D01*
Y464798D01*
D86*
X421000Y211000D02*
Y213999D01*
X419500D01*
X419001Y213499D01*
Y212499D01*
X419500Y212000D01*
X421000D01*
X420000D02*
X419001Y211000D01*
X418001D02*
X417001D01*
X417501D01*
Y213999D01*
X418001Y213499D01*
X415502D02*
X415002Y213999D01*
X414002D01*
X413502Y213499D01*
Y212999D01*
X414002Y212499D01*
X414502D01*
X414002D01*
X413502Y212000D01*
Y211500D01*
X414002Y211000D01*
X415002D01*
X415502Y211500D01*
D87*
X344378Y425313D02*
Y426887D01*
X341622Y425313D02*
Y426887D01*
X337122Y416713D02*
Y418287D01*
X339878Y416713D02*
Y418287D01*
X444313Y267022D02*
X445887D01*
X444313Y269778D02*
X445887D01*
X280122Y474213D02*
Y475787D01*
X282878Y474213D02*
Y475787D01*
X452300Y502000D02*
X465900D01*
X452300Y521000D02*
X465900D01*
X452300Y502000D02*
Y521000D01*
X465900Y502000D02*
Y521000D01*
X444213Y264778D02*
X445787D01*
X444213Y262022D02*
X445787D01*
X318878Y424713D02*
Y426287D01*
X316122Y424713D02*
Y426287D01*
X434813Y269778D02*
X436387D01*
X434813Y267022D02*
X436387D01*
X479878Y509713D02*
Y511287D01*
X477122Y509713D02*
Y511287D01*
X321122Y416713D02*
Y418287D01*
X323878Y416713D02*
Y418287D01*
X334378Y436213D02*
Y437787D01*
X331622Y436213D02*
Y437787D01*
X339213Y440378D02*
X340787D01*
X339213Y437622D02*
X340787D01*
X318613Y437522D02*
X320187D01*
X318613Y440278D02*
X320187D01*
X365413Y352922D02*
X366987D01*
X365413Y355678D02*
X366987D01*
X331113Y488578D02*
X332687D01*
X331113Y485822D02*
X332687D01*
X434713Y264778D02*
X436287D01*
X434713Y262022D02*
X436287D01*
X434713Y251622D02*
X436287D01*
X434713Y254378D02*
X436287D01*
X406822Y399313D02*
Y400887D01*
X409578Y399313D02*
Y400887D01*
X467213Y389122D02*
X468787D01*
X467213Y391878D02*
X468787D01*
X394944Y406006D02*
X396519D01*
X394944Y402856D02*
Y406006D01*
Y394194D02*
X396519D01*
X394944D02*
Y397344D01*
X263213Y393622D02*
X264787D01*
X263213Y396378D02*
X264787D01*
X272409Y386831D02*
X273591D01*
X274669Y379909D02*
Y381091D01*
X444713Y257122D02*
X446287D01*
X444713Y259878D02*
X446287D01*
X539678Y370113D02*
Y371687D01*
X536922Y370113D02*
Y371687D01*
X544178Y370113D02*
Y371687D01*
X541422Y370113D02*
Y371687D01*
X548678Y370113D02*
Y371687D01*
X545922Y370113D02*
Y371687D01*
X553178Y370113D02*
Y371687D01*
X550422Y370113D02*
Y371687D01*
X263622Y509213D02*
Y510787D01*
X266378Y509213D02*
Y510787D01*
X270878Y300213D02*
Y301787D01*
X268122Y300213D02*
Y301787D01*
X252878Y429213D02*
Y430787D01*
X250122Y429213D02*
Y430787D01*
X234878Y428713D02*
Y430287D01*
X232122Y428713D02*
Y430287D01*
X376378Y249213D02*
Y250787D01*
X373622Y249213D02*
Y250787D01*
X371378Y249213D02*
Y250787D01*
X368622Y249213D02*
Y250787D01*
X388713Y406378D02*
X390287D01*
X388713Y403622D02*
X390287D01*
X392713Y386878D02*
X394287D01*
X392713Y384122D02*
X394287D01*
X405713Y413122D02*
X407287D01*
X405713Y415878D02*
X407287D01*
X405713Y386878D02*
X407287D01*
X405713Y384122D02*
X407287D01*
X392713Y413122D02*
X394287D01*
X392713Y415878D02*
X394287D01*
X416213Y227122D02*
X417787D01*
X416213Y229878D02*
X417787D01*
X509213Y444622D02*
X510787D01*
X509213Y447378D02*
X510787D01*
X434713Y275722D02*
X436287D01*
X434713Y278478D02*
X436287D01*
X444213Y278478D02*
X445787D01*
X444213Y275722D02*
X445787D01*
X363878Y252713D02*
Y254287D01*
X361122Y252713D02*
Y254287D01*
X334713Y356878D02*
X336287D01*
X334713Y354122D02*
X336287D01*
X242713Y387878D02*
X244287D01*
X242713Y385122D02*
X244287D01*
X443622Y490713D02*
Y492287D01*
X446378Y490713D02*
Y492287D01*
X557878Y370213D02*
Y371787D01*
X555122Y370213D02*
Y371787D01*
X511213Y429878D02*
X512787D01*
X511213Y427122D02*
X512787D01*
X423122Y240213D02*
Y241787D01*
X425878Y240213D02*
Y241787D01*
X412122Y240213D02*
Y241787D01*
X414878Y240213D02*
Y241787D01*
X423622Y550713D02*
Y552287D01*
X426378Y550713D02*
Y552287D01*
X289378Y459213D02*
Y460787D01*
X286622Y459213D02*
Y460787D01*
X357713Y365122D02*
X359287D01*
X357713Y367878D02*
X359287D01*
X357713Y370122D02*
X359287D01*
X357713Y372878D02*
X359287D01*
X292898Y429095D02*
Y440906D01*
X305102Y429095D02*
Y440906D01*
X358100Y259100D02*
Y265875D01*
X351900Y259100D02*
Y265900D01*
X355000Y537000D02*
X367600D01*
X445000Y529702D02*
Y537202D01*
X355000Y514972D02*
Y524202D01*
Y529802D02*
Y537000D01*
X431900Y537202D02*
X445000D01*
X432100Y517102D02*
X441499D01*
X358701Y516980D02*
X367600D01*
X358701Y514972D02*
Y516980D01*
X355000Y514972D02*
Y516980D01*
Y514972D02*
Y516980D01*
Y514972D02*
X358701D01*
X441499Y515094D02*
Y517102D01*
Y515102D02*
X443500D01*
X275909Y382169D02*
X277091D01*
X329213Y419622D02*
X330787D01*
X329213Y422378D02*
X330787D01*
X441297Y456903D02*
X490903D01*
X441297Y407297D02*
X490903D01*
Y456903D01*
X441297Y407297D02*
Y456903D01*
X318580Y452179D02*
Y474620D01*
X341020Y452179D02*
Y474620D01*
X318580Y452179D02*
X341020D01*
X318580Y474620D02*
X341020D01*
X252232Y373551D02*
Y375815D01*
Y373551D02*
X254496D01*
X266504D02*
X268768D01*
Y375815D01*
Y387823D02*
Y390087D01*
X266504D02*
X268768D01*
X252232D02*
X254496D01*
X252232Y387823D02*
Y390087D01*
X370636Y327964D02*
Y328259D01*
X370341Y327964D02*
X370636D01*
X350164D02*
X350459D01*
X350164D02*
Y328259D01*
Y348141D02*
Y348436D01*
X350459D01*
X370341D02*
X370636D01*
Y348141D02*
Y348436D01*
X501213Y396878D02*
X502787D01*
X501213Y394122D02*
X502787D01*
X269878Y364713D02*
Y366287D01*
X291595Y460244D02*
Y461819D01*
Y460244D02*
X294744D01*
X303405D02*
Y461819D01*
X300256Y460244D02*
X303405D01*
X474200Y368300D02*
X487800D01*
X474200Y349300D02*
X487800D01*
Y368300D01*
X474200Y349300D02*
Y368300D01*
X294950Y472150D02*
Y473233D01*
Y477367D02*
Y478450D01*
X295835D01*
D88*
X470813Y523611D02*
G03*
X470813Y523611I-492J0D01*
G01*
X306382Y426043D02*
G03*
X306382Y426043I-492J0D01*
G01*
X436769Y405722D02*
G03*
X436769Y405722I-492J0D01*
G01*
X314249Y449817D02*
G03*
X314249Y449817I-492J0D01*
G01*
X249378Y377882D02*
G03*
X249378Y377882I-492J0D01*
G01*
X374475Y345090D02*
G03*
X374475Y345090I-492J0D01*
G01*
X290905Y466543D02*
G03*
X290905Y466543I-492J0D01*
G01*
X470272Y346689D02*
G03*
X470272Y346689I-492J0D01*
G01*
X288500Y481800D02*
G03*
X288500Y481800I-432J0D01*
G01*
D151*
X462250Y513965D02*
G03*
X462250Y513965I-1181J0D01*
G01*
X446415Y411234D02*
G03*
X446415Y411234I-1181J0D01*
G01*
X323698Y456116D02*
G03*
X323698Y456116I-1181J0D01*
G01*
X480213Y356335D02*
G03*
X480213Y356335I-1181J0D01*
G01*
D152*
X338300Y271700D02*
X340100D01*
X328200Y271500D02*
X330000D01*
X329100Y270600D02*
Y272400D01*
M02*
