%FSTAX23Y23*%
%MOIN*%
%SFA1B1*%

%IPPOS*%
%ADD10C,0.008000*%
%ADD11R,0.059060X0.059060*%
%ADD12C,0.059060*%
%ADD13C,0.050000*%
%ADD14C,0.120000*%
%LNjtag_connector3-1*%
%LPD*%
G54D10*
X02732Y03935D02*
X02777Y0398D01*
X02785*
X026Y03935D02*
X02732D01*
X02755D02*
X02855D01*
X027Y0388D02*
X02755Y03935D01*
X0268Y0388D02*
X027D01*
X02525Y0386D02*
X026Y03935D01*
X0278Y03795D02*
Y0388D01*
X0272Y03735D02*
X0278Y03795D01*
X02865Y04125D02*
X02885Y04105D01*
X0278Y0414D02*
Y0418D01*
Y0404D02*
Y0408D01*
X02837Y04221D02*
X02865Y04193D01*
Y04125D02*
Y04193D01*
X02555Y0413D02*
X0277D01*
X0232Y03895D02*
X02555Y0413D01*
X0232Y0388D02*
Y03895D01*
X02855Y03935D02*
X0289Y039D01*
Y0383D02*
Y039D01*
X0277Y0371D02*
X0289Y0383D01*
X02255Y0371D02*
X0277D01*
X0222Y03745D02*
X02255Y0371D01*
X0222Y03745D02*
Y0378D01*
X0258Y0408D02*
X0268D01*
X02495Y03995D02*
X0258Y0408D01*
X02485Y0413D02*
X0249Y04125D01*
X0227Y0413D02*
X02485D01*
X0222Y0408D02*
X0227Y0413D01*
X0222Y0378D02*
Y0388D01*
X02653Y04221D02*
X02837D01*
X02595Y0428D02*
X02653Y04221D01*
X0232Y0428D02*
X02595D01*
X0277Y0403D02*
X0278Y0404D01*
X0264Y0403D02*
X0277D01*
X0239Y0378D02*
X0264Y0403D01*
X0232Y0378D02*
X0239D01*
X0277Y0413D02*
X0278Y0414D01*
X02275Y03735D02*
X0272D01*
X02275D02*
Y04035D01*
X0232Y0408*
G54D11*
X0232Y0378D03*
X0278Y0388D03*
G54D12*
X0222Y0378D03*
X0232Y0388D03*
X0222D03*
X0232Y0398D03*
X0222D03*
X0232Y0408D03*
X0222D03*
X0232Y0418D03*
X0222D03*
X0232Y0428D03*
X0222D03*
X0232Y0438D03*
X0222D03*
X0268Y0428D03*
X0278D03*
X0268Y0418D03*
X0278D03*
X0268Y0408D03*
X0278D03*
X0268Y0398D03*
X0278D03*
X0268Y0388D03*
G54D13*
X02525Y0386D03*
X0249Y04D03*
Y04125D03*
X0287Y04105D03*
G54D14*
X02228Y0325D03*
X02771D03*
X02228Y0475D03*
X02771D03*
M02*