M48
;Layer_Color=9474304
;FILE_FORMAT=2:5
INCH,LZ
;TYPE=PLATED
T1F00S00C0.01200
T2F00S00C0.01299
T3F00S00C0.02000
T4F00S00C0.03500
T5F00S00C0.03543
T6F00S00C0.04685
T7F00S00C0.05200
T8F00S00C0.05950
T9F00S00C0.12900
;TYPE=NON_PLATED
T10F00S00C0.03100
T11F00S00C0.15800
%
T01
X0419Y0235
X02885Y0363
Y03685
X02815
Y0363
X0274
Y03685
X0263
X02525Y03735
X02515Y03635
X024475
X02445Y037
X02375
X023775Y03635
X023075Y0363
X02305Y03695
X0224014Y0382249
X02335Y0386
X02465Y0392
X02525Y03915
X0248Y0401
X02445
X0248Y0427
X0245975Y0431975
X02275Y04315
X024695Y04564
X02662Y04562
X02716Y0463
X0293Y045
X0289Y0432
X0287Y04255
X02865Y04205
X02825
X0279Y0419
X02785Y0413
X02835Y04095
X0284Y0405
X02845Y0397
X028
X0272Y03955
X02705Y0417819
X0276Y0424
X0272772Y0428
X02925Y03805
X02485Y0357
X03145Y03485
X0364Y03595
X0381Y03655
Y037
X0382809Y0387191
X03775Y0399
X0362Y0396
X03585Y03945
X03595Y0391
X03555Y03895
X036Y0385
X03645Y03885
X0367Y0383713
X03585Y0401
X0356Y0411
X04015Y03785
X0407Y0361
X0422Y0368
X0515Y0433
X0449Y0498
T02
X0259Y038
X02625
Y0384
X0296638Y0432638
Y0437362
X0301362
Y0432638
X0355676Y0342924
Y03382
Y0333476
X03604
X0365124
Y03382
X03604
Y0342924
X0365124
T03
X0498Y02475
X04765Y02745
X04778Y02837
X05061Y03008
X05119Y03122
X05255Y03115
X05245Y0301
X04566Y02974
X04483Y03006
X04474Y0284
X04432Y02859
X04386Y02905
X0429Y0289
X04255Y0286
X04225Y02745
X04055Y02703
X04056Y02634
X04055Y02587
X04155Y02588
X04Y0244
Y0234
X04065Y02315
X04351Y02275
X0441Y02305
X04418Y02435
X0436802Y0247302
X04503Y02532
X04595Y0254
X04655Y02735
X04645Y02795
X04185Y02975
X0424Y03118
X0391Y03093
X03781Y0299
X0367Y0295
X0363Y029
X03575Y0298
X03653Y03044
X03508Y03115
X03296Y03112
X0316Y03091
X03153Y02713
X03345Y02815
X0339Y02625
X03485Y02475
X03595Y02283
X03632Y02248
X03677Y02261
X03805Y0244
X03748Y02574
X037Y02575
Y02655
X03635Y0266
X0386Y02705
X03925Y0271
X02695Y0308
X02445Y03805
X0239Y038
X0234Y0422
X02425Y0425
X0267Y04485
X02905Y04455
X0311Y04445
X03115Y0429
X03111Y04195
X02975Y0419
X0283453Y0462953
X02865Y04685
X0321Y04555
X0333Y04545
X03315Y04625
X0353447Y0460447
X0362625Y04605
X03765Y04615
X03901Y0466
X03945Y04565
X04005Y04595
X04026Y04515
X0399Y04485
X04043Y04433
X0416Y04441
X0423Y04425
X04286Y043995
X04285Y04235
X0429Y0411
X04297Y04048
X0434Y04035
X04435Y04095
X04512Y04096
X0449Y0417
X04443Y04177
X04575Y0418
X04619Y04098
X0459Y0388
X04504Y03842
X0447Y03935
X04415
X0426Y03955
X04165Y03995
Y04048
X0415Y04125
X04118Y04279
X040725Y042795
X04035Y04206
X03905Y04205
X038355Y041745
X03823Y04102
X0378Y0413
X0374Y0405
X03609Y04242
X03562Y04266
X03564Y04317
X03515Y04365
X0353Y0422
X0352Y04165
X0365Y0434
X03836Y04336
Y04293
X03459Y04475
X03145Y0448
X0327422Y0430373
X0329Y0355
X03374Y0348
X03355Y03431
X03327Y03396
X0332853Y0335247
X0329Y03316
X03342Y03145
X03485Y03229
X03589Y03207
X0365321Y0313421
X03706Y03134
X03715Y03265
X03776Y03347
X03742Y0347
X03737Y03541
X03525Y03555
X03435Y03446
X03935Y0342
X0394Y0348
X03975Y0345
Y03515
X0399Y03265
X04083Y0335
X0422Y03385
X0424Y0351
X04305Y03715
X04355Y037
X0443Y03725
X04466Y03602
X04478Y03553
X04583Y03552
X04543Y03631
X04583Y03678
X0459Y03725
X04635Y0345
X04476Y03312
X04521Y03264
X0435Y0382
X04165Y0389
X04095Y03795
X03965
X04212Y04518
X0424Y04551
X04298Y04581
X04295Y04658
X04489Y04478
X04486Y0441
X04449Y0434
X04594Y04387
X04565Y04545
X04764Y04539
X04838Y04535
X04886Y04471
X04887Y04428
X0488Y04375
X04887Y04293
X04886Y04234
X0485Y04265
X04724Y04282
X04723Y04213
X04691Y04183
X04737Y04153
X04701Y04094
X0477911Y0409289
X0485Y04115
X04948Y04041
X0493Y0395
X04895Y0392
X0489Y0386
X0486Y03825
X04801Y03879
X0472Y0386
X04841Y03649
X04818Y03593
Y03547
X04843Y03462
X0469Y0342
X0478Y0327
X0484Y0316
X05037
X0528Y0321
X05398Y03256
X0543Y0331
Y03507
X05427Y03559
X05428Y03605
X05475Y03635
X0547Y0379
X0553Y03845
X05565Y0389
X05645Y03845
X0563936Y0379764
X058
X0583Y03845
X05732Y03711
X05694Y03642
X05666Y04065
X0568Y04169
X05683Y04219
X0574Y0424
X0579Y0429
X058Y04142
X05737Y0445
X0545Y0455
X05355Y04555
X05242Y04586
Y0463
X0521Y04556
X05035Y0446
Y04275
X0503792Y0409707
X05095Y0401
X051245Y0392722
X05062Y03877
X0506Y03703
X05046Y03617
X05004Y03564
X04994Y03521
X05078Y03448
X05183Y03468
X0517Y03562
X05307Y03555
X05245Y03734
X0534Y0383
X05255Y03915
X04767Y04359
X04736Y04451
X04933Y04616
X0545Y04667
X05503Y04741
X05419Y04781
X05359
X05257Y04842
X05214Y04841
X05171
X05161Y04993
X05195Y05024
X05238Y05005
Y05058
X05285Y051
X04845
X0478Y0499963
X0471Y04935
X04745Y0476
X0473Y0471037
X0482674Y0473826
X04982Y04833
X05517Y04869
X04905Y05555
X04619Y0575
X0458Y0538
X04541Y05343
Y05298
X04542Y05246
X0455Y052
X0463Y0532
X04618Y05003
X04573Y04932
X04522Y04919
X04512Y04845
X04431Y04834
X04397Y04807
X04376Y04882
X04232Y04879
X04265Y04942
Y05003
X0416Y0491
X04167Y04807
X040795Y048295
X04087Y04731
X04301Y04773
X04346Y04697
X04665Y0472
X04666Y04768
X04082Y05041
X04054Y0508
X04117Y05078
X03974Y05068
X03908Y05066
Y04978
X038Y04948
X03675Y04925
X036705Y0487831
X03625Y0481
X03535Y0473
X03455Y04775
X03347Y04734
X0324879Y0472121
X03135Y04775
X03195Y04944
X03468Y05037
X03621Y05015
X03685
X036555Y050845
X0358Y0496
X038035Y04769
X038Y05426
X03751Y05427
X0385
X039Y05429
X0395
X04
X0405Y05428
X041Y05427
X0415
X042
X04175Y05585
X043Y05625
X0382872Y0572
X03682Y05773
X03606Y05758
X03504Y0569
X03545Y05525
X0352Y0544
X03635
X0341Y0545
X03347Y05466
X03015Y049
X03005Y04775
X0290832Y0486332
X02685Y04835
X0267Y0495
X02625Y04915
X0254
X02765Y05088
X02676Y0518224
T04
X0475939Y0242727
X0528764Y0264164
X0535836Y0271236
X0543Y0298
X0553
X04667Y02389
X0457461Y0235073
X0405Y02128
X0395
X0342539Y0235073
X03333Y02389
X0324061Y0242727
X0271236Y0264164
X0264164Y0271236
X0257Y0298
X0247
X0242727Y0324061
X02389Y03333
X0235073Y0342539
X02128Y0395
Y0405
X0235173Y0457761
X0239Y0467
X05611Y04667
X0564927Y0457461
X05872Y0405
Y0395
X0564927Y0342539
X05611Y03333
X0557273Y0324061
Y0475939
X0553Y0502
X0543
X0535836Y0528764
X0528764Y0535836
X0475939Y0557273
X04667Y05611
X0457461Y0564927
X0405Y05872
X0395
X0342539Y0564927
X03333Y05611
X0324061Y0557273
X03418Y05246
Y05166
X0264164Y0528764
X0271236Y0535836
X0257Y0502
X0247
X0242827Y0476239
T05
X054Y04
X055
Y041
X054
Y042
X055
Y043
X054
Y044
X055
X04885Y05365
Y05465
T06
X03569Y0527
X0443Y05273
T07
X035223Y0225006
X0354389Y0236217
X0382611Y0230783
X0380452Y0219571
T08
X0312Y03705
Y03905
X0322006Y038054
X0332Y03905
Y03705
T09
X05083Y02799
X02917
X05083Y05201
X02917
T10
X0395Y02031
X04Y0203
X0405Y02031
X02034Y0395
X02035Y04
X02034Y0405
X0597
Y04
Y0395
X0405Y0597
X04
X0395
T11
X02Y02
X06Y06
M30
